<?xml version="1.0" encoding="UTF-8"?>
<!-- Generator: Adobe Illustrator 24.0.0, SVG Export Plug-In . SVG Version: 6.00 Build 0)  -->
<svg version="1.1" id="Слой_1" xmlns="http://www.w3.org/2000/svg" xmlns:xlink="http://www.w3.org/1999/xlink" x="0px" y="0px" width="63px" height="20px" viewBox="0 0 63 20" style="enable-background:new 0 0 63 20;" xml:space="preserve">
<style type="text/css">
	.st0{fill-rule:evenodd;clip-rule:evenodd;fill:#FAB81B;}
</style>
<path class="st0" d="M10.1,18.9l25.6,0c0,0,0.7-0.2,1-0.3c1.3-0.4,3.9-1.4,5-2.1c0.1-0.1,0.4-0.4,0.5-0.5c0.1-0.1,0.2-0.4,0.3-0.6  c0.1-0.2,0.2-0.5,0.2-0.7c0-0.2-0.1-0.8-0.1-0.8l0.2-0.2l0.2,0l0.3-0.3v-0.3l-0.1-0.4l0.7,0.5l0.5,0.6l0.2-0.6c0,0-0.6-0.8-0.8-1  c-0.2-0.2-1.1-0.7-1.1-0.7l-0.2-0.6h-0.3l-0.4,0.4h-1.2l-0.3,0v-0.4h0.4l0-1L40,9.9V9.6h-1l-0.2,0.2l-0.2,0.4l0.1,0.4l-0.9-0.6  l-0.6-0.2l-0.4-0.1l-0.1-0.4h-0.5l-0.3,0.3l-0.6-0.2l-0.6-0.2l-0.6,0h-1.5c0,0,0.3-0.2,0.4-0.4c0.1-0.1,0.2-0.4,0.2-0.4H55l0.3,0.2  l2.7,0l0.5-0.3h3V7.3h-3L58,7.1l-2.6,0l-0.5,0.3H33.2l-0.1-0.3h3.6V6.8h-3.5c0,0-0.3-0.4-0.4-0.5c-0.2-0.2-0.6-0.4-0.9-0.5  c-0.2-0.1-1-0.3-1-0.3h-4.3l0.6-1.1h-1.9L25,5.1h-0.6l-0.6,0.4L23.3,5l-0.4-0.3h-0.3l-0.1-0.2h0.4l0.5-1l1.1,0l1-0.2l1-0.6h7.7V2.2  h-7.8l-0.3-0.3h-3.9l-0.1,0.4h-0.5v1.2h0.4v0.4l-0.3,0.5l-2.3,0.2h-0.5l-0.6-0.2l-0.1,0.4l0.3,0.4l-0.5,0V3l-0.3,2.1c0,0-1,0-1.3,0  c-0.3,0-0.9,0.1-1.1,0.3c-0.5,0.4-0.9,1.5-1.1,2.1c-0.1,0.3-0.3,0.9-0.2,1.2c0.1,0.2,0.5,0.6,0.8,0.7c0.3,0.1,1,0.3,1,0.3l-0.7,0  l-2.2-0.1V9.3H9.9V10H8.6l-1.9,0.4l-2.6,0.5c0,0,0-0.4-0.1-0.5c-0.1-0.1-0.3-0.3-0.6-0.2c-0.1,0-0.5,0.2-0.6,0.3  c-0.1,0.1-0.2,0.3-0.2,0.5c0,0.1,0.1,0.2,0.1,0.3c0.1,0.1,0.5,0.3,0.5,0.3l-0.8,0.6l-0.3,0.2l-0.1-1l-0.2-0.1l0,1.3l-0.3,0.4l0,0.5  l-0.1,0.5l0.7,0.3c0,0,0.1,0.7,0.1,0.9c0.1,0.2,0.2,0.6,0.3,0.8c0.1,0.2,0.4,0.5,0.6,0.6C4.8,17.4,10.1,18.9,10.1,18.9z"/>
</svg>