<?xml version="1.0" encoding="utf-8"?>
<!-- Generator: Adobe Illustrator 25.3.1, SVG Export Plug-In . SVG Version: 6.00 Build 0)  -->
<svg version="1.1" id="Слой_1" xmlns="http://www.w3.org/2000/svg" xmlns:xlink="http://www.w3.org/1999/xlink" x="0px" y="0px"
	 width="65.9px" height="19.2px" viewBox="0 0 65.9 19.2" style="enable-background:new 0 0 65.9 19.2;" xml:space="preserve">
<style type="text/css">
	.st0{display:none;fill-rule:evenodd;clip-rule:evenodd;fill:#FAB81B;}
	.st1{fill-rule:evenodd;clip-rule:evenodd;fill:#FAB81B;}
</style>
<path class="st0" d="M35.2,4.1l0.1,0.3l1.4,0.1l0.7,0.8v0.9l8.7,0.2V5.7h4.7v0.6h13.3v1.1H50.7v0.3h-4.6V7.4l-8.7,0.2v1.9h0.9
	l6.4,0.6l1.2,0.7v0.9c0,0,0.3,0.2,0.7,0.7c0.3,0.4,0.5,1,0.2,2c-0.1,0.3-0.8,0.9-1,1.1c-0.3,0.2-0.8,0.6-1.1,0.8
	c-0.9,0.5-3,1.5-4.3,2.1c-0.9,0.4-1.8,0.6-2.8,0.6L9,19.2c-0.3,0-0.6,0-0.9-0.1c0,0-0.5-0.2-0.7-0.2c-1.2-0.5-3.7-1.7-4.8-2.5
	c-0.2-0.1-0.4-0.3-0.6-0.5c-0.1-0.2-0.5-0.8-0.5-0.8l-0.2,0.7l-0.2,0.1H0.9l0.3-0.7l0.1-0.6l-0.1-0.3H0.9L1,14l-0.3-0.2L0.4,12h0.1
	l-0.1-0.6L0.6,11l0.5-0.1v-0.4l-0.8-0.2L0.1,9.5L0.2,9l0.4-0.2h0.3l0.3,0.5l0.2-0.1l0.7-0.7h7.5l1.1,1.1H20c0,0,0-1.6-0.1-1.6
	s-0.7-0.5-0.7-0.5h-6.4c0,0-1.2-0.4-1.3-0.5s-0.4-0.5-0.4-0.5l-0.3-1.9l0.4-1.3h2.7l0.2-0.4h0.2H17l0.3-0.2h0.3V2.3V1.9l-0.3-0.4
	l-5-5.3l5.2,5.1l0.8,0.5v0.6l0.2,0.2l0.3-0.1V2.3h0.7l-0.1-0.6h0.7V1.1l0.2,0.1h4l0.2,0.3h0.2l0.1-1H25V0l-0.4-1.7l-0.7-2.1l0.8,2.1
	l0.5,1.4h0.2v0.2l0.8-0.2h2.3v0.2L32.8,0v0.4l-4.4-0.1l-0.1,0.9l-1.4,0.1v1h1.3l0.9,0.1L35.2,4.1z"/>
<g>
	<g>
		<path class="st1" d="M63.4,5.5c0,0-0.2,0.2-0.2,0.2c-0.2,0.1-0.7,0-0.9,0.1h-9.7V5.6h-0.3V5.5h-4.1v0.2h-0.3v0.1
			c-1.7,0-3.5-0.1-5.2-0.1c-0.4,0-1.9,0.1-2.2-0.1h-6c0,0-0.4-0.4-0.5-0.4c-0.1,0-0.2-0.1-0.4-0.1c-0.4-0.2-0.8-0.6-1.2-0.8
			c-0.1,0-0.2-0.1-0.4-0.1c-0.3-0.2-0.8-0.6-1.2-0.7c-0.5,0-0.9-0.1-1.4-0.1c-0.9-0.3-2.1-0.2-3-0.5c-0.3-0.1-0.7,0-1-0.1
			c-0.1-0.3-0.2-0.6-0.2-0.9c-0.3,0-0.4,0-0.6,0.1c-0.1,0.3-0.2,0.4-0.2,0.7H21c0.1-0.1,0.5-0.1,0.7-0.1c-0.1-0.1-0.2,0-0.4-0.1
			c0,0,0-0.1,0.1-0.1c-0.2,0.1-0.2,0.1-0.5,0.1c0-0.3-0.1-0.7,0.1-0.8V1.5c-0.2,0-0.5-0.1-0.6,0h-0.1c0,0.2,0,0.3-0.1,0.5
			c-0.4,0-0.7,0-0.9,0.1v0.2h-0.6c0-0.2,0-0.2-0.1-0.3h-1.1c0.1,0.1,0,0,0.1,0.1c0,0.3-0.1,0.3-0.1,0.4h-0.1c0-0.2-0.1-0.2-0.1-0.4
			c-0.3,0-0.6-0.1-1-0.1C16.5,2,16.6,2,16.7,2c0,0.7-0.2,0.2-0.6,0.4c-0.1,0.1-0.1,0.2-0.2,0.4c-0.5,0-0.7-0.2-0.9-0.4
			c-0.1-0.1,0-0.2,0.1-0.2V2C15.1,2,15.1,2.1,15,2.2c-0.1-0.1,0-0.1-0.1-0.2c0-0.1,0-0.1-0.1-0.1c0,0.1,0,0.1-0.1,0.1
			c0,0.4,0,0.6,0.2,0.8c0.1,0,0.2,0,0.2,0.1c0.3,0.3-0.2,0.5,0.4,0.6c-0.1,0.5-0.3,0.8-0.5,1.2L15.1,5h-0.2C15,5,14.9,5,15.1,5
			c-0.1,0.2-0.1,0.4-0.2,0.5c-0.1,0.2,0,0.1-0.2,0.1c0.1,0.1,0,0.1,0.1,0.1c-0.2,0.6-0.6,1-0.6,1.7c0.3,0.3,0.6,1,1,1.1v0.1h-0.6
			c0-0.1,0-0.1-0.1-0.2c-0.1-0.1-0.2-0.1-0.2-0.2c-0.3-0.3-0.1-0.3-0.7-0.3V7.8h0.1c0-0.2,0-0.1-0.1-0.2c-0.1-0.1,0,0-0.1-0.1
			c-0.1,0.2-0.1,0.1-0.1,0.3c-0.3,0-0.7-0.2-0.9-0.1c-0.3,0.1-0.7,0.3-0.9-0.1c-0.1,0.1,0,0.1-0.1,0.2c-0.1-0.1,0-0.1-0.1-0.2H11
			c0.1,0.1,0.2,0.1,0.4,0.1v0.1c-0.1,0-0.2,0.1-0.4,0.1V7.7c-0.1,0.1-0.1,0.1-0.1,0.2c-0.1-0.1,0-0.1-0.1-0.2
			c-0.1,0.1,0,0.1-0.1,0.2H9.8L9.7,7.7C9.4,7.7,9.4,7.8,9.2,7.9H7.3V7.7H6.6v0.1h0.6v0.1c-0.2,0-0.3,0-0.5-0.1c-0.1,0,0,0.1-0.1,0.1
			c0,0-0.1-0.2-0.3-0.1v0.1H6.1V7.6C6,7.7,6,7.7,6,7.8c-0.1,0-0.1,0-0.1,0.1H5.3c0-0.1,0-0.1,0.1-0.2c-0.1,0.1-0.1,0-0.1,0.1
			c-0.1-0.1,0-0.1-0.1-0.2C5,7.7,4.9,7.8,4.9,7.9c-0.3,0-0.3-0.2-0.6-0.2L4.1,7.8c-0.4,0.1-1.4,0-1.5-0.2c0,0.1-0.1,0.1-0.1,0.2
			C2.4,7.9,2.2,7.9,2,7.9C2,8,1.9,8,1.9,8.1C1.9,8.1,1.8,7.9,1.8,7.9c-0.4,0-0.8,0-1.1,0.1c0,0.6-0.1,1.3-0.1,1.7
			c0,0.1,0,0.1-0.1,0.2L0.7,10h0.1c0.1,0.2,0,0.7,0.1,0.9C1.1,11.1,1.2,11,1.5,11V12h0.3c-0.2,0.5-0.5,1.1-0.7,1.6
			c0.1,0.3,0.4,0,0.7,0.2c0,0,0.1,0.1,0.1,0.1c0,0.2,0,0.6-0.1,0.7c0,0.1,0,0.2,0.1,0.2c0.1,0.1,0,0,0.1,0.1c0-0.1,0.1-0.1,0.1-0.3
			c0.1,0.1,0.1,0.2,0.1,0.3h0.1v-0.1h0.1c0-0.2,0-0.3-0.1-0.4v-0.2c0.1,0,0.1,0.1,0.2,0.1C2.4,15.9,3,16.7,4,17.2
			c0.6,0.3,1.5,0.6,2.2,0.8c1.1,0.4,3.5,0.8,3.5,0.8s1.7,0,2.5,0h24c0.9,0,2.3,0,3-0.3c0.9-0.3,1.5-0.5,2.4-0.9
			c0.4-0.2,0.8-0.3,1.2-0.5c0.4-0.2,0.8-0.4,1.2-0.6c1.2-0.5,2-0.8,2-2.5h0.1c0,0,0,0.3,0.1,0.3c0.1,0.1,0,0,0.1-0.1
			c0.1,0,0.1,0.1,0.2,0.1c0-0.2,0-0.5-0.1-0.7h0.1c0-0.1,0-0.2-0.1-0.2c0-0.1,0.2-0.1,0.1-0.4c-0.1-0.4-0.2-0.1-0.4-0.2
			c0,0-0.1-0.3-0.1-0.3c0,0-0.1,0-0.1-0.1c0-0.1,0-0.1-0.1-0.2h-0.1c-0.1-0.5-0.2-0.9-0.3-1.4c-1.1-0.2-2.1-0.8-3.2-0.8
			c0-0.2,0-0.1,0-0.3c-0.1-0.1-0.2-0.1-0.4-0.1V9.2h-0.4c0-0.1,0-0.2-0.1-0.2c-0.1-0.1,0,0-0.1-0.1c0,0.1-0.1,0.1-0.1,0.3h-0.2v0.1
			c-0.2,0.1-0.6-0.1-0.7-0.1c-0.2,0-0.5,0-0.7-0.1V9c-0.1,0-0.2,0-0.3,0.1c0,0,0-0.1-0.1-0.1C39.1,9,39.1,9,39,9.2
			c-0.2,0-0.2-0.1-0.4-0.2c-0.1,0,0,0.1-0.1,0.1c-0.1,0-0.2,0-0.4-0.1c0,0,0-0.1-0.1-0.1c-0.2-0.1-0.1,0.1-0.3,0h-0.4
			c0,0,0-0.1,0.1-0.1c-0.7,0-1.5-0.1-2.2-0.3c-0.3,0-0.7,0-1,0.1c0-0.2,0-0.1,0.1-0.2c-0.1-0.1-0.5-0.1-0.6-0.1
			c0.2-0.4,0.5-0.7,0.7-1.1c3.3,0,6.4-0.1,9.6-0.1c1.2,0,2.5,0,3.7-0.1v0.1h0.3v0.2h4.1V7.1c0.3,0,0.2-0.1,0.3-0.1h9.7
			c0.2,0,0.6,0,0.9,0.1c0.5,0.2,1.5,0.4,2.2,0.4V5.3C64.7,5.4,64,5.5,63.4,5.5z M1.8,11.3H1.7v-0.2h0.1V11.3z M1.9,11.1
			c0.1,0.1,0,0.1,0.1,0.2C1.9,11.2,1.9,11.2,1.9,11.1z M2,9.2v1.1H1.9V9H2C2,9.1,1.9,9.1,2,9.2z M2,8.4L2,8.4L1.9,8.5V8.2H2
			C2,8.3,1.9,8.3,2,8.4z M13.6,7.8l-0.1-0.1h0.1V7.8z M42.1,9.8c-0.1,0-0.2-0.1-0.2-0.1C42.1,9.7,42,9.7,42.1,9.8z M64.8,7.2
			c-0.2,0-0.7,0-0.9-0.1c-0.3,0-0.4,0-0.6-0.1c0-0.3-0.1-1,0.1-1.2V5.6c0.5,0,0.9-0.1,1.4-0.1V7.2z"/>
	</g>
</g>
</svg>
