<?xml version="1.0" encoding="utf-8"?>
<!-- Generator: Adobe Illustrator 26.2.1, SVG Export Plug-In . SVG Version: 6.00 Build 0)  -->
<svg version="1.1" id="Layer_1" xmlns:sketch="http://www.bohemiancoding.com/sketch/ns"
	 xmlns="http://www.w3.org/2000/svg" xmlns:xlink="http://www.w3.org/1999/xlink" x="0px" y="0px" width="31.3px" height="17.6px"
	 viewBox="0 0 31.3 17.6" style="enable-background:new 0 0 31.3 17.6;" xml:space="preserve">
<style type="text/css">
	.st0{fill-rule:evenodd;clip-rule:evenodd;fill:#8C8C7C;}
</style>
<path class="st0" d="M5.1,17.6h19.5c0,0,0.5-0.1,0.7-0.2c0.8-0.3,2.8-2,2.8-2l0.1,0.1l0,0.2l0,0.2l0,0l0.1,0l0-0.2l0.1-0.2l0-0.3
	c0,0,0.3-0.2,0.4-0.3c0.1-0.1,0.2-0.3,0.3-0.5c0-0.1,0.1-0.3,0.1-0.4c0-0.1,0-0.3,0-0.4c0-0.1,0-0.3,0-0.4c0-0.1-0.2-0.5-0.2-0.5
	l0.4-0.3l0.2-0.2L29,11.8l-0.5-0.2l-0.2-0.1l-2.3,0l-1.3,0l-0.7,0v-0.1h0.7l0.4,0l0.2-0.1l0.2,0v-0.3L25,11h-1v-0.6l-0.1-0.1h-0.2
	l-0.1,0.1h0l0-0.1h-0.1l0-0.2l-0.1-0.7h0.5l0.1-0.1H24V9.1h-0.1L23.9,9V8.9l1.9,0V8.8H30v0h0.3V8.2H30v0h-4.2v0l-2.6,0l-0.3-1.5
	l-0.1-0.1l-3.7-0.2l0-0.1H19l0,0l-0.1-0.1l-0.1-0.2l-0.2,0L18.4,6l-0.1,0.1l-0.2-0.1L18.1,6l-1.1,0V5.7h0V5.2L16.8,5h-2.6L14,5.2
	v0.5h0v0.4h-0.2v0h-2.1V6h-0.5v0.1h-0.8V5.3h0.1v0h0.1V4.9h-0.1l-0.2-0.1v-7.7h-0.1v7.7l-0.2,0.1H10v0.3h0.1v0h0.1v0.8H9.8v0.6H9.7
	v0.5h0.1v1.1H9.7v0.5h0.1v0.9H9.7V9.5h0.1V9.4L9.7,9.3H9.7L9.6,9.2h0l0,0.1H8.3V9.2L8.2,9.1h-2l0,0v0.1h0.3v0.3H5.6V9.3H6V9.2
	L5.9,9.1H4L3.9,9.2v0.1h0.3v0.2H4v0.1H3.3l-0.1,0H2.8l0-0.1l0.3-0.1l0-0.1l0,0l-0.1,0l-0.2,0l-0.1,0l0,0H2.5L2.4,9.4L1.8,9.7H1.1V10
	L1,10.2H0.9l-0.1,0v0.3l-0.2,0.1v0.1H0.6v-0.2H0.2v0.5h0.3l0,0.2l-0.1,0.1l0,0.5L0.4,12l0,0.5l-0.1,0.1l0,0.4l0.1,0.2l0,0.1
	c0,0,0,0.1,0,0.2c0,0,0.1,0.1,0.1,0.1c0,0,0.2,0,0.2,0c0,0,0.1-0.2,0.1-0.2l-0.1-0.2l0-0.1l0.4,0.3c0,0-0.1,0.3-0.2,0.4
	c0,0.2,0,0.6,0,0.8C1,14.8,1,15,1.1,15.2c0.1,0.1,0.2,0.3,0.3,0.4c0.1,0.1,0.3,0.2,0.4,0.3c0.7,0.4,2,1.3,2.7,1.6
	C4.7,17.5,5.1,17.6,5.1,17.6z"/>
</svg>
