<?xml version="1.0" encoding="UTF-8"?>
<!-- Generator: Adobe Illustrator 25.0.0, SVG Export Plug-In . SVG Version: 6.00 Build 0)  -->
<svg version="1.1" id="Layer_1" xmlns="http://www.w3.org/2000/svg" xmlns:xlink="http://www.w3.org/1999/xlink" x="0px" y="0px" width="60.8px" height="21.9px" viewBox="0 0 60.8 21.9" style="enable-background:new 0 0 60.8 21.9;" xml:space="preserve">
<style type="text/css">
	.st0{fill-rule:evenodd;clip-rule:evenodd;fill:#8C8C7C;}
</style>
<path class="st0" d="M7.6,21.1c0.3,0.1,0.6,0.2,1,0.2h27.3c0,0,0.5-0.1,0.7-0.1c1.3-0.5,3.8-2.1,4.9-3c0.2-0.1,0.5-0.4,0.6-0.6  c0.1-0.2,0.2-0.5,0.2-0.7c0-0.2-0.1-0.5-0.1-0.7c0-0.1-0.2-0.4-0.3-0.5c-0.1-0.1-0.3-0.3-0.3-0.3l0.5-0.7c0,0-0.5-0.2-0.6-0.3  c-0.2-0.1-0.5-0.1-0.7-0.2c-0.1,0-0.5,0-0.5,0l-0.3-0.3V13h-2.1v0.4l-1.2-0.7h-4.5v-0.3h0.3l0.2-0.2h2.1v-0.3l0.7-0.1v-0.2l5.6-0.2  h16.5l0.8,0.2h1.8l0.2-0.2v-1l-0.2-0.2h-1.8l-0.9,0.2H41.3l-5.9-0.2l-2-0.3L33,9.4l-0.8-0.1v0.3c0,0-1.8-0.4-2.4-0.5  c-0.5-0.1-2-0.3-2-0.3l-0.2-0.2h-1l-2.4-0.1l-0.2-0.2h-0.4V7.8h-0.3V7.7h0.4c0,0-0.2-0.3-0.3-0.3c-0.1,0-0.2,0-0.3,0.1  c-0.1,0.1-0.2,0.2-0.3,0.3c0,0.1-0.1,0.3-0.1,0.3h-0.2l-0.5-0.2h-1.2V7.4H20V6.8l0.2-0.4h0.2v0.1h0.6V5.9h-0.6V5.3L20,5.9h-0.2v-1  h-0.2v1.1H19V5.5h-0.6L18.3,0l0,5.6h-0.4v0.3h-1.3V5.3h-0.2v0.6h-3.8v0.3h5l-0.3,0.3h0.8v1.1h0.9V6.5h0.8l-0.8,1.4L18.5,8V7.6  l-0.2,0v0.5c0,0-0.4,0-0.5,0c-0.1,0-0.2,0.1-0.3,0.1c-0.1,0-0.2,0.1-0.2,0.2c0,0,0,0.2,0,0.2S17,8.8,16.9,8.8  c-0.1,0.1-0.4,0.4-0.4,0.4H16c0,0-0.2,0.2-0.2,0.3c0,0.1-0.1,0.3-0.1,0.4c-0.1,0.1-0.2,0.4-0.3,0.6c-0.1,0.1-0.2,0.3-0.3,0.4  c-0.1,0.1-0.3,0.3-0.3,0.3l0.1,0.2c0,0-0.1,0.2-0.1,0.3c0,0.1,0,0.3,0,0.3c0,0,0.3,0.1,0.4,0.1c0.6,0.1,2.4,0.3,2.4,0.3h0.2v0.4  h-6.2v-0.2h-0.4v0.2H8.3l-5.2,0.1L2.7,13l-0.1,0.3l-0.2-0.1c0,0-0.3-0.3-0.4-0.3c-0.1-0.1-0.4-0.1-0.6-0.1c-0.1,0-0.4,0.1-0.6,0.2  c-0.1,0.1-0.4,0.4-0.4,0.5c0,0.1-0.1,0.4-0.1,0.5c0,0.1,0.1,0.4,0.1,0.5c0.1,0.1,0.3,0.3,0.4,0.3c0.1,0.1,0.3,0.2,0.5,0.2  c0.1,0,0.3,0,0.4,0c0,0,0.2,0,0.2,0v1.4c0,0-0.2,0.2-0.2,0.2c0,0.1,0,0.3,0,0.3c0,0.1,0.1,0.3,0.2,0.4c0.1,0.1,0.3,0.4,0.3,0.4  l0.1-0.2h0.3c0,0,0,0.4,0,0.5c0,0.2,0.2,0.6,0.3,0.7c0.1,0.2,0.4,0.5,0.6,0.6c0.1,0.1,0.3,0.2,0.4,0.3C4.5,20.1,6.7,20.8,7.6,21.1z"/>
</svg>