<?xml version="1.0" encoding="utf-8"?>
<!-- Generator: Adobe Illustrator 22.0.0, SVG Export Plug-In . SVG Version: 6.00 Build 0)  -->
<svg version="1.1" id="Layer_1" xmlns="http://www.w3.org/2000/svg" xmlns:xlink="http://www.w3.org/1999/xlink" x="0px" y="0px"
	 width="28.8px" height="14px" viewBox="0 0 28.8 14" style="enable-background:new 0 0 28.8 14;" xml:space="preserve">
<style type="text/css">
	.st0{fill:#8C8C7C;}
</style>
<path class="st0" d="M1.3,6.8h4.2V5.9H4.2V5.1h1.7V4.7c0.4,0,0,0.8,0,0.8h4.2v0.8H11V4.7h0.4V4.2h-0.8l1.7-3h0.8V0.8h0.4V0h0.8v0.8
	h0.8L15.7,0h0.4l0.4,0.8h0.8l2.1,0.4l0.8,0.4l0.4,0.4h7.6V3h-7.6l-0.4,0.8l0.4,0.8h0.8l2.1,0.8v0.4h2.1v0.4h-1.7l0,0h-0.4v1.3h3
	l1.7,0.4L28,8.9l0.8,0.4V11l-1.7,0.8L23.3,14H6.8l-5.5-1.7L0.4,11V9.8c0,0,0.4-0.4,0.4-0.8L0,7.2l0.8-0.4H1.3z"/>
</svg>
