<?xml version="1.0" encoding="UTF-8"?>
<!-- Generator: Adobe Illustrator 24.0.0, SVG Export Plug-In . SVG Version: 6.00 Build 0)  -->
<svg version="1.1" id="Слой_1" xmlns="http://www.w3.org/2000/svg" xmlns:xlink="http://www.w3.org/1999/xlink" x="0px" y="0px" width="53.2px" height="16.7px" viewBox="0 0 53.2 16.7" style="enable-background:new 0 0 53.2 16.7;" xml:space="preserve">
<style type="text/css">
	.st0{fill-rule:evenodd;clip-rule:evenodd;fill:#8C8C7C;}
</style>
<path class="st0" d="M9.1,15.8h26.5c0,0,0.5-0.1,0.7-0.2c0.2-0.1,0.4-0.2,0.6-0.3c1-0.6,3.9-2.7,3.9-2.7h0.4l0.1,0.4l0.1,0.2h0.2  l0.2-0.3l0.1-0.2l0.5-0.2c0,0,0.2-0.1,0.3-0.2c0.1-0.1,0.1-0.3,0.2-0.4c0-0.1,0.1-0.3,0.2-0.5c0-0.1,0-0.4-0.1-0.5  c0-0.1-0.2-0.3-0.3-0.4c0,0-0.2-0.2-0.2-0.2v-0.2l1-0.7l0.6,0.4l0.2-0.4c0,0-0.8-0.6-1.1-0.8c-0.2-0.2-0.7-0.4-1-0.6  c-0.2-0.1-1-0.3-1-0.3h-2.2l-1.4-0.4V7.5h-0.6l-0.8-0.2h-2.5l-0.8,0.2V7.4h-1.1l0.3-0.3c0,0,2-0.4,2.6-0.5c0.1,0,0.1-0.3,0.1-0.3  L51,6.1l0.3,0.1h1.1V5.1h-1.1l-0.4,0.1L34.4,5c0,0-0.1-0.2-0.1-0.3c0,0-0.1-0.1-0.2-0.1c-0.9-0.3-3.6-0.5-3.6-0.5V3.9l-3.2-0.4V2.6  h-0.9L26,3.1v0.3h-0.5V3.1l-0.3-0.4L25,2.6l0.6-0.6H26c0,0,0.2-0.3,0.2-0.7c0-0.5-0.1-0.8-0.1-0.8h-0.6c0,0-0.4,0.3-0.5,0.4  c0,0.1,0,0.5,0,0.6c0.1,0.1,0.4,0.3,0.4,0.3l-0.6,0.7V2H24v0.2h-0.4l-0.1,0.1l-1.1,0.1l-1.1,0.2V2.5h-0.3v0.3L20.7,3v0.2h-0.2V1.3  h-0.1v1.9l-3.6,0.9h-4.4v0.1l-0.2,0.1l-0.2,0.5l-0.5,1.4l2.7,0.6v0.7l-1.6-0.1V7.2H5.3L4.8,7.3L4.4,7.6L4.3,7.7L3.4,7.7V7.3L2.9,7.2  L2.7,7.3l0.1,0.2l0.1,0.2H2.6v0.6c0,0-0.5,0.1-0.6,0.2C1.9,8.5,1.6,8.6,1.5,8.7C1.4,8.8,1.1,9.2,1.1,9.2L0.8,9.5L1,9.7l1,0.2  c0,0-0.1,0.2-0.1,0.3c0,0.1-0.1,0.2-0.2,0.3c0,0.1-0.1,0.2-0.1,0.3c0,0.1,0,0.3,0,0.5c0,0.1,0,0.4,0.1,0.5c0,0.1,0.2,0.3,0.3,0.4  c0.1,0.1,0.4,0.3,0.6,0.4c1.4,0.9,5.9,3.1,5.9,3.1L9.1,15.8z"/>
</svg>