<?xml version="1.0" encoding="utf-8"?>
<!-- Generator: Adobe Illustrator 22.0.0, SVG Export Plug-In . SVG Version: 6.00 Build 0)  -->
<svg version="1.1" id="Layer_1" xmlns="http://www.w3.org/2000/svg" xmlns:xlink="http://www.w3.org/1999/xlink" x="0px" y="0px"
	 width="35.8px" height="16px" viewBox="0 0 35.8 16" style="enable-background:new 0 0 35.8 16;" xml:space="preserve">
<style type="text/css">
	.st0{fill:#8C8C7C;}
</style>
<path class="st0" d="M0.4,9.3V8.4l6.3-1.7V6.3l4.2-0.4v0.4h2.1h1.7V5.9h-2.9l0.4-1.7l1.7-0.8l0.4-0.8h-0.4l0.4-0.4l0.4,0.4V2.1V0.8
	h2.1V0.4h0.8v0.4h0.4v0.8h1.3V1.3l4.2,1.3V1.3l-0.4-0.4h-2.1V0h5.5v0.4l-2.9,0.4v0.4v1.7h1.7l0.8,0.8h3.8v0.4h5.1V3.8h0.8v1.3h-0.8
	V4.6h-5.1v0.4h-4.2l-0.4,0.4l0,0h-0.8v0.4h1.3l1.7,1.3h1.3V8h-0.8l0.4,0.8l4.2-0.4l2.5,0.8l-0.8,1.3l0.8,0.8l-1.3,2.1l-0.8,0.8
	L27.8,16H7.2l-5.9-1.7c0,0-1.3-0.8-1.3-1.3v-1.3l0.4-0.8V9.3L0.4,9.3z"/>
</svg>
