<?xml version="1.0" encoding="utf-8"?>
<!-- Generator: Adobe Illustrator 17.1.0, SVG Export Plug-In . SVG Version: 6.00 Build 0)  -->
<!DOCTYPE svg PUBLIC "-//W3C//DTD SVG 1.1//EN" "http://www.w3.org/Graphics/SVG/1.1/DTD/svg11.dtd">
<svg version="1.1" id="Layer_1" xmlns="http://www.w3.org/2000/svg" xmlns:xlink="http://www.w3.org/1999/xlink" x="0px" y="0px"
	 width="45px" height="20px" viewBox="0 0 45 20" enable-background="new 0 0 45 20" xml:space="preserve">
<path fill="#8C8C7C" d="M5,20h27l4-2l2-3v-2l-1-1h-8v-1h2v-1h-3V9h-1V8h2l1-2h15V5H29V4h-5c0,0-0.6-2.8-1-3s-2,0-2,0v1h-4l-2,2h-2
	l-2,1v2v1h4v1h-5V7H8v2H7V7H4L1,8L0,9v8l2,2L5,20z"/>
</svg>
