<?xml version="1.0" encoding="utf-8"?>
<!-- Generator: Adobe Illustrator 26.0.3, SVG Export Plug-In . SVG Version: 6.00 Build 0)  -->
<svg version="1.1" id="Layer_1" xmlns="http://www.w3.org/2000/svg" xmlns:xlink="http://www.w3.org/1999/xlink" x="0px" y="0px"
	 width="40px" height="17px" viewBox="0 0 40 17" style="enable-background:new 0 0 40 17;" xml:space="preserve">
<style type="text/css">
	.st0{fill-rule:evenodd;clip-rule:evenodd;fill:#F8B71A;}
</style>
<path class="st0" d="M21.6,0.5c1.1,0,2.2,0,2.8,0.4c0,0.4,0,0.9,0,1.3c1.9,0,1.8,0.7,2.8,1.1c0.5,0.2,1.2-0.1,1.5,0.2
	c0.2,0.2,0.2,0.5,0.1,0.8c1.6,0,3.1,0.1,4.7,0.1c0,0.2,0,0.6,0,0.8c-2,0-4-0.1-5.9,0c-0.1,0.5-0.4,0.5-0.4,1.3c0.2,0,0.4,0,0.5,0.1
	c0,0.2,0,0.3,0,0.5c0.9,0,4.2-0.2,4.6,0.1c0.2,0.1,0.1,0.1,0.1,0.4c0.2,0,0.3,0,0.5,0c0-0.1,0-0.2,0-0.3c0.4,0,0.8,0,1.2,0
	c0,0.5,0,0.9,0,1.4c1.4,0,4.8-0.5,5.5,0.3c-0.2,0.3-0.3,0.6-0.5,0.9c0.2,0.4,0.4,0.8,0.6,1.2c0.5,2-2.9,3.8-4,4.5
	c-0.7,0.5-1.5,1.3-2.4,1.5c-2.3,0-4.7,0-7,0c-4.8,0-9.7,0-14.5,0c-3.9,0-7.6-0.1-9.8-1.7c-1.1-0.9-0.4-2.2-0.2-3.4
	c-0.4-0.3-0.8-0.6-1.2-0.8c0.2-0.5,0.4-1,0.6-1.5C0.9,9,0.5,8.2,0,7.6c0,0,0-0.1,0-0.1c0.2-0.1,0.3-0.1,0.5-0.2
	c0.1,0.2,0.2,0.4,0.4,0.5c0.5-1,1.5-0.4,2.3-0.2C3.5,7.2,3.8,6.8,4,6.5c3.4-0.3,6.8-0.6,10.2-1c0,0.5,0,0.9,0,1.4c0.9,0,1.8,0,2.8,0
	c0-0.4,0-0.7,0-1.1c-0.4,0-0.7,0-0.8-0.1c0.2-1.2,0.4-2.4,0.6-3.5c0.7,0,1.4,0,2.1,0c0-0.4,0-0.8,0-1.2c0-0.2-0.2-0.4,1.7-0.4
	c0-0.2,0-0.4,0-0.6c0.3,0,0.7,0,1,0C21.6,0.2,21.6,0.4,21.6,0.5z"/>
</svg>
