<?xml version="1.0" encoding="UTF-8"?>
<!-- Generator: Adobe Illustrator 24.0.0, SVG Export Plug-In . SVG Version: 6.00 Build 0)  -->
<svg version="1.1" id="Слой_1" xmlns="http://www.w3.org/2000/svg" xmlns:xlink="http://www.w3.org/1999/xlink" x="0px" y="0px" width="53px" height="24px" viewBox="0 0 53 24" style="enable-background:new 0 0 53 24;" xml:space="preserve">
<style type="text/css">
	.st0{fill-rule:evenodd;clip-rule:evenodd;fill:#8C8C7C;}
</style>
<path class="st0" d="M16.6,12.5l-0.3-0.3l2.4-3.9l0.6-0.1c0,0,0.3-0.4,0.4-0.5c0.2-0.1,0.5-0.3,0.7-0.4c0.2-0.1,0.7-0.1,0.9-0.1  c0.2,0,0.7,0,0.9,0.1c0.3,0.1,0.8,0.2,1,0.4c0.1,0.1,0.1,0.4,0.1,0.4H24V8h0.4V1.2h0.2V8h0.3v0.2h0.5V8h-0.2l0.4-0.2v0.5h0.3V7.8  h0.4l0.2-0.2h0.5v0.7h2.4l1.3,0.2l0.9,0.3L32,9.2l0.3,0.3h0.2l0.2,0.2L51,9.9l0.2-0.2h1.6v1.2h-1.5l-0.2-0.2l-18.4,0.3l-0.2,0.2  h-0.2l-0.2,0.5L31.8,12l-0.1,0.3h1.1l0.4,0.6l0.4,0.4v0.4h0.6v0.1c0,0,0.8,0.2,1,0.2c0.3,0.1,0.7,0.3,1,0.4c0.4,0.1,1.4,0.6,1.4,0.6  l0.3,0.1v0.2c0,0,0.4,0.3,0.6,0.4c0.1,0.1,0.3,0.4,0.4,0.6c0.1,0.2,0.2,0.6,0.2,0.7c0,0.2-0.1,0.7-0.1,0.7s0.1,0.7,0.1,0.9  c0,0.1-0.2,0.4-0.2,0.4V20h-0.3v-0.3c0,0-0.2,0.2-0.2,0.3c-0.1,0.1-0.4,0.2-0.5,0.3c-0.2,0.1-0.7,0.3-0.9,0.4  c-1,0.5-3.2,1.4-4.2,1.8c-0.1,0.1-0.6,0.2-0.6,0.2H6.3c0,0-0.4-0.1-0.6-0.2c-1.1-0.5-3-2-3.9-2.8c-0.1-0.1-0.4-0.5-0.4-0.5l-0.2,0.1  v0.6H1.1v-0.6l-0.5-0.5l0.1-0.4l-0.4-0.9c0,0,0-0.7,0.1-0.9c0.1-0.2,0.3-0.7,0.5-0.9c0.2-0.2,0.7-0.5,0.8-0.6c0.1,0,0.8-0.5,1.1-0.7  C3,14.3,3.6,14.1,3.9,14c0.4-0.1,1.1-0.2,1.5-0.2c0.4-0.1,1.7-0.1,1.7-0.1l0.2-0.2l4.5-0.6l0.2,0.2l1.5-0.4l1.9-0.1L16.6,12.5z"/>
</svg>