<?xml version="1.0" encoding="UTF-8"?>
<!-- Generator: Adobe Illustrator 24.0.0, SVG Export Plug-In . SVG Version: 6.00 Build 0)  -->
<svg version="1.1" id="Слой_1" xmlns="http://www.w3.org/2000/svg" xmlns:xlink="http://www.w3.org/1999/xlink" x="0px" y="0px" width="70.7px" height="23.3px" viewBox="0 0 70.7 23.3" style="enable-background:new 0 0 70.7 23.3;" xml:space="preserve">
<style type="text/css">
	.st0{fill-rule:evenodd;clip-rule:evenodd;fill:#FAB81B;}
</style>
<path class="st0" d="M10.6,23h26.6c0,0,0.8-0.2,1-0.2c1.3-0.5,3.8-1.9,4.9-2.7c0.2-0.1,0.5-0.5,0.6-0.7c0.1-0.2,0.4-0.6,0.4-0.8  c0-0.2,0-0.7,0-0.7l1.1-1.1v-0.3l0.4,0.2l0.4,0.1l0.2-0.2V16l-0.2-0.2h-0.2v0.5h-0.2l-0.5-0.6l-0.6,0.1l-0.4,0.2l-0.4-0.6h-0.2  l-0.5-0.3l-0.6-0.3L42,14.8l0.7-0.1c0,0,0.3,0.2,0.4,0.3c0.1,0.1,0.5,0.1,0.5,0.1v-1.4c0,0-0.5,0-0.6,0.1c-0.1,0-0.2,0.3-0.2,0.3  v0.2h-0.4l-0.1-0.4h-1.3c0,0,0.1-0.5,0-0.6c-0.1-0.1-0.4-0.2-0.6-0.2c-0.1,0-0.4-0.1-0.5,0c-0.1,0.1-0.3,0.4-0.3,0.5  c0,0.1-0.1,0.4-0.1,0.4l0.2,0.2L38.9,14c0,0-0.1-0.7-0.2-0.9c-0.1-0.1-0.2-0.2-0.3-0.2c-0.1,0-0.2,0-0.2,0.1  c-0.1,0.1-0.3,0.3-0.3,0.3s-0.2-0.3-0.3-0.3c-0.1,0-0.3,0-0.3,0c-0.1,0.1-0.3,0.4-0.3,0.4L35.3,13h-1.8v-0.2l1.7-0.2l0.3-1.2h2.2  l0.2-0.2l21.2-0.1l0.2,0.2h4.3l0.2-0.2H70V9.9h-6l-0.2-0.2h-4.4l-0.2,0.2L34.6,9.7l-0.6-0.4c0,0,0.1-0.1,0.1-0.2  c0-0.1,0.1-0.3,0-0.5c-0.1-0.1-0.5,0-0.6,0c-0.1,0-0.2,0.2-0.2,0.2l-0.2-0.2h-1.1l-0.2-0.2L29.8,8L30.2,8V7.5L28,7.3v0.4l-1.2-0.2  h-7.5V7.1h-2.2v0.4h-3.5v0.2L13,7.7l-0.2-7.4l0,7.4L8.9,8.4v3.7l2.3,0.7v0.2h5.9v0.2H1.4v0.3H1.1l-0.2,0.2c0,0,0,0.3,0,0.3  c0,0,0.1,0.4,0.1,0.4s0.1,0.7,0.1,0.7l0.6,2.3c0,0,0.2,0.8,0.3,1.1c0.1,0.3,0.3,0.8,0.5,1c0.2,0.2,0.5,0.6,0.7,0.7  c1.5,1,5,2.1,6.7,2.6C10.1,23,10.6,23,10.6,23z"/>
</svg>