<svg xmlns="http://www.w3.org/2000/svg" xmlns:xlink="http://www.w3.org/1999/xlink" preserveAspectRatio="xMidYMid" width="27" height="15" viewBox="0 0 27 15">
  <defs>
    <style>
      .cls-1 {
        fill: #8c8c7c;
        fill-rule: evenodd;
      }
    </style>
  </defs>
  <path d="M3.297,14.991 L23.935,14.991 C23.935,14.991 25.808,14.037 25.881,13.853 C25.955,13.670 26.836,11.982 26.836,11.982 L26.946,10.954 L24.000,7.000 L22.000,6.000 L20.059,4.338 L18.059,4.357 L18.008,4.237 L21.952,4.018 L21.952,2.954 L17.802,2.367 L17.692,1.193 L15.746,0.422 L13.028,0.349 L11.192,1.046 L10.274,2.917 L9.944,4.275 C9.944,4.275 2.909,4.553 2.725,4.553 C2.542,4.553 1.085,6.127 1.085,6.127 L0.065,8.260 L0.102,10.697 L1.130,13.670 L3.297,14.991 Z" class="cls-1"/>
</svg>
