<?xml version="1.0" encoding="utf-8"?>
<!-- Generator: Adobe Illustrator 22.0.0, SVG Export Plug-In . SVG Version: 6.00 Build 0)  -->
<svg version="1.1" id="Layer_1" xmlns="http://www.w3.org/2000/svg" xmlns:xlink="http://www.w3.org/1999/xlink" x="0px" y="0px"
	 width="36.8px" height="16px" viewBox="0 0 36.8 16" style="enable-background:new 0 0 36.8 16;" xml:space="preserve">
<style type="text/css">
	.st0{fill:#8C8C7C;}
</style>
<path class="st0" d="M1.3,10.4L1.3,10.4L0,9.9l0.4-2.6h1.3l0.4,0.9l0.4-0.9l1.7-0.4V6.5h0.9v0.4l3.5-0.4V6.1l3.9-0.4v0.4H16V5.6h-3
	l0.4-1.3l1.7-0.4h0.4L16,3h-0.4V2.6H16V2.2h4.3V1.3l-2.2-0.9V0h6.1v0.4h-3.9l0.9,0.4v0.4h0.4l0.4,0.9l3.5,0.4l0.9,0.9h5.2v0.4h4.3
	l0,0h0.9v0.9h-1.3l0,0h-4.3l0,0h-4.8l-0.4,0.4v0.4h-0.4l0,0h0.9l1.3,1.3h0.9v0.4L29,8.2h3.9l1.7,0.4l-0.4,0.4l0.9,1.3v1.3l-0.9,1.7
	L28.5,16H7.4l-5.6-2.2l-1.3-1.3v-1.3L1.3,10.4z"/>
</svg>
