<?xml version="1.0" encoding="utf-8"?>
<!-- Generator: Adobe Illustrator 23.0.0, SVG Export Plug-In . SVG Version: 6.00 Build 0)  -->
<svg version="1.1" id="Layer_1" xmlns="http://www.w3.org/2000/svg" xmlns:xlink="http://www.w3.org/1999/xlink" x="0px" y="0px"
	 width="51.9px" height="18.6px" viewBox="0 0 51.9 18.6" style="enable-background:new 0 0 51.9 18.6;" xml:space="preserve">
<style type="text/css">
	.st0{fill-rule:evenodd;clip-rule:evenodd;fill:#FAB81B;}
</style>
<path class="st0" d="M1.4,11.5l5.7-0.9H12v-1H9.3l0.5-0.4L9.5,8.9H7.7L6.9,9L6.3,8.8L6.1,7.9l0.5-1.2l1.4,0l0.2-0.3h0.7l0.4-0.5
	l1.4,0.3l0.7,0.1l0.2-0.4h0.6L12.4,0l0.2,5.9h0.7V5.4h0.5v0.4c0,0,1,0.1,1,0c0-0.1,0-1.3,0-1.3h2v1.2l3,0.6V5.7h1v0.9l1.5,0.3V6.3
	H23V7l0.3-0.2l0.3,0.6c0,0,0.5,0,0.5,0c0-0.1,0-0.8,0-0.8l2.3,0.6l0.5,0.2L49,7.6l1.2-0.5h1.7v2.1h-1.8l-1.2-0.6L26.8,8.8l-1.6,0.8
	l-0.3-0.5l-0.3,0.1L25,9.8h-1.5v0.3h3l1,1.4h2.4v0.8H31l0.3-0.7h0.5V13l1.1,0.6L32.1,15l-0.8,0.8l-2.8,1.8l-1.8,0.9L6,18.6l-1-1
	c0,0-3.4-1.7-3.5-1.8c-0.1-0.1-0.7-1.1-0.7-1.2c0-0.1,0.2-1.1,0.2-1.1L0,11.4L0.3,11l0.5-0.3L1.4,11.5z"/>
</svg>
