<?xml version="1.0" encoding="utf-8"?>
<!-- Generator: Adobe Illustrator 22.0.0, SVG Export Plug-In . SVG Version: 6.00 Build 0)  -->
<svg version="1.1" id="Layer_1" xmlns="http://www.w3.org/2000/svg" xmlns:xlink="http://www.w3.org/1999/xlink" x="0px" y="0px"
	 width="23.9px" height="13px" viewBox="0 0 23.9 13" style="enable-background:new 0 0 23.9 13;" xml:space="preserve">
<style type="text/css">
	.st0{fill:#8C8C7C;}
</style>
<path class="st0" d="M0,6.3l2.5-0.4l0.4,1.3h0.4L2.9,4.2h0.8v1.3h0.8V4.6l1.3-0.4h1.7v0.4h0.8V4.2h2.5v0.4h0.8l0.4-3.4h0.4V0.8l0,0
	L13,0h2.9l0.4,0.8h-0.4v0.4h0.4L18,1.7v0.4h1.7v0.4l4.2,0.4v0.4h-6.3v1.3h0.8l0.8,1.3l2.5,0.4l1.3,0.4l0.8,1.7v1.7l-0.8,1.3L21.4,13
	h-2.5H8l-3.8-1.3l-0.8-0.8v-0.8L0.4,8.8L0,7.5V6.3L0,6.3L0,6.3z"/>
</svg>
