<?xml version="1.0" encoding="utf-8"?>
<!-- Generator: Adobe Illustrator 25.3.1, SVG Export Plug-In . SVG Version: 6.00 Build 0)  -->
<svg version="1.1" id="Слой_1" xmlns="http://www.w3.org/2000/svg" xmlns:xlink="http://www.w3.org/1999/xlink" x="0px" y="0px"
	 width="70.3px" height="18.2px" viewBox="0 0 70.3 18.2" style="enable-background:new 0 0 70.3 18.2;" xml:space="preserve">
<style type="text/css">
	.st0{display:none;fill-rule:evenodd;clip-rule:evenodd;fill:#FAB81B;}
	.st1{display:none;}
	.st2{display:inline;}
	.st3{fill-rule:evenodd;clip-rule:evenodd;fill:#FAB81B;}
	.st4{fill-rule:evenodd;clip-rule:evenodd;fill:#8C8C7C;}
</style>
<path class="st0" d="M10.6,17.9h26.6c0,0,0.8-0.2,1-0.2c1.3-0.5,3.8-1.9,4.9-2.7c0.2-0.1,0.5-0.5,0.6-0.7s0.4-0.6,0.4-0.8
	c0-0.2,0-0.7,0-0.7l1.1-1.1v-0.3l0.4,0.2l0.4,0.1l0.2-0.2v-0.6L46,10.7h-0.2v0.5h-0.2l-0.5-0.6l-0.6,0.1l-0.4,0.2l-0.4-0.6h-0.2
	L43,10l-0.6-0.3H42l0.7-0.1c0,0,0.3,0.2,0.4,0.3c0.1,0.1,0.5,0.1,0.5,0.1V8.6c0,0-0.5,0-0.6,0.1c-0.1,0-0.2,0.3-0.2,0.3v0.2h-0.4
	l-0.1-0.4H41c0,0,0.1-0.5,0-0.6S40.6,8,40.4,8c-0.1,0-0.4-0.1-0.5,0s-0.3,0.4-0.3,0.5s-0.1,0.4-0.1,0.4l0.2,0.2l-0.8-0.2
	c0,0-0.1-0.7-0.2-0.9c-0.1-0.1-0.2-0.2-0.3-0.2s-0.2,0-0.2,0.1c-0.1,0.1-0.3,0.3-0.3,0.3s-0.2-0.3-0.3-0.3s-0.3,0-0.3,0
	C37.2,8,37,8.3,37,8.3l-1.7-0.4h-1.8V7.7l1.7-0.2l0.3-1.2h2.2l0.2-0.2L59.1,6l0.2,0.2h4.3L63.8,6H70V4.8h-6l-0.2-0.2h-4.4l-0.2,0.2
	L34.6,4.6L34,4.2c0,0,0.1-0.1,0.1-0.2c0-0.1,0.1-0.3,0-0.5c-0.1-0.1-0.5,0-0.6,0s-0.2,0.2-0.2,0.2l-0.2-0.2H32l-0.2-0.2l-2-0.4h0.4
	V2.4L28,2.2v0.4l-1.2-0.2h-7.5V2h-2.2v0.4h-3.5v0.2H13l-0.2-7.4v7.4L8.9,3.3V7l2.3,0.7v0.2h5.9v0.2H1.4v0.3H1.1L0.9,8.6v0.3L1,9.3
	L1.1,10l0.6,2.3c0,0,0.2,0.8,0.3,1.1c0.1,0.3,0.3,0.8,0.5,1S3,15,3.2,15.1c1.5,1,5,2.1,6.7,2.6C10.1,17.9,10.6,17.9,10.6,17.9z"/>
<g class="st1">
	<g class="st2">
		<path class="st3" d="M50,5.1V4.9c0,0-0.7,0-1.1,0V5h-0.3V4.6h-3.4c0,0.1,0,0.4,0,0.4h-1.9l-0.1-0.2c0,0-3,0-3.9,0L39,4.7
			c0-0.1-0.1-0.1-0.1-0.2h-2.1c-0.1-0.1-0.1-0.1-0.1-0.3c0.1-0.1,0.1-0.2,0.1-0.5c-0.2-0.1-0.2-0.2-0.6-0.2
			c-0.1,0.1-0.2,0.3-0.4,0.4c-0.1-0.1-0.3-0.1-0.4-0.2c-0.1-0.1-0.1-0.2-0.2-0.2c-0.3-0.2-0.6-0.3-1-0.3c-0.1,0.1-0.1,0.2-0.2,0.2
			c-0.1-0.1-0.2,0-0.3-0.1s0.1-0.2-0.2-0.2c-0.1,0-0.1,0.1-0.1,0.1c-0.1-0.1-0.3-0.1-0.5-0.2c-0.2-0.1-0.5-0.3-0.7-0.4h-0.4
			c-0.2,0-0.5-0.1-0.6-0.2c-0.2-0.1-0.5,0-0.6,0.1c-0.2,0-0.5,0-0.7-0.1c0-0.2,0-0.4-0.1-0.5h-0.1c-0.1,0.2-0.2,0.2-0.4,0.3
			c0,0.1,0,0.1,0.1,0.2h-0.2c-0.2-0.1-1.4-0.1-1.8-0.1C27.3,1.9,27.3,2.2,27,2c-0.1-0.1-0.2-0.3-0.2-0.5h0.4V1
			c-0.3,0-0.3-0.1-0.7-0.1c-0.1,0.1-0.2,0.2-0.2,0.2v0.4c-0.1,0.2-0.2,0.4-0.2,0.5c-0.3,0-0.3,0-0.5,0c0-0.1,0-0.3-0.1-0.4
			c0.1,0,0.1,0,0.2-0.1c-0.7,0-1.4,0-2.1-0.1v0c0.1-0.2,0.1-0.6,0.1-0.7c0.2-0.1,0.6-0.1,1-0.1c0.1,0.1,0.2,0.1,0.3,0.1V0.4
			c-0.2,0-0.6,0-0.7-0.1h2.1c0.3,0,1.2,0.1,1.2,0.1v-0.6c0,0-0.8,0.1-1.2,0.1c0-0.1,0-0.2-0.1-0.2V0H24v-0.2h-0.7
			c0,0-0.1,0.2-0.3,0.1v-0.1h-1c-0.3,0.1-1.3,0.3-1.7,0.2c-0.3-0.1-0.6-0.2-0.9-0.2l0,0c0.2,0.2,0.2,0.5,0.2,0.8
			c0.2,0,0.5-0.3,0.6-0.1V0.3c0.2,0,0.4,0,0.5,0.1c-0.1,0.2-0.1,0.3,0,0.5h0.1c0-0.2,0-0.4,0.1-0.5c0.1,0,0.1,0,0.3,0
			c0.1,0.3,0.2,0.2,0.2,0.6h0.2c0-0.1,0-0.2,0.1-0.3h0.2C22,0.8,22,0.8,22,0.9c0,0.1-0.1,0,0,0.2c0.1,0.1,0.2,0.1,0.4,0.1v0.2
			c-0.3,0-0.8,0.1-0.9,0c0,0.1,0,0.1-0.1,0.2c-0.2,0.1-0.6-0.1-0.7,0.1h0.1c0.1,0.1-0.2,0.1-0.1,0.2c0,0,0.1,0.1,0.1,0.2
			c-0.4,0-0.2,0.2-0.4,0.3c-0.5,0-0.9,0.1-1.4,0.1V1.9h-0.2v0.5c-0.3,0-0.6,0-1,0.1c0-0.2,0-0.4-0.1-0.6h-0.1v0.7h-0.4
			c0-0.2,0-0.3-0.1-0.5c-0.1,0-0.1,0-0.2-0.1c0-0.5-0.1-7.3-0.1-8.1c0-0.3,0.1-0.7-0.1-0.9c0,2.8,0.1,8.7,0,9c-0.1,0-0.1,0-0.2,0.1
			c0,0.2,0,0.4-0.1,0.5c-0.2,0-0.4,0-0.6,0.1v0.2h-0.1V2.4c0.1-0.1,0-0.1,0.1-0.2h-3.1v0.1c0.2,0.1,0.1,0,0.1,0.1c0,0-0.1,0-0.1-0.1
			v0.5c-0.1,0.1-0.1,0.1-0.1,0.2h0.1c0,0,0-0.2,0.1-0.1V3c0.1,0.1,0,2.5,0,3.2c0,0,0.8,0.1,1.2,0.1V6.1h1.8V5.8H16v0.3h1.3
			c0.1,0.2,1.2,1,1.5,1v0.1c-0.1,0-2.6-0.3-3.2-0.4V6.6h-0.2v0.2c-0.3,0-0.6,0-0.9-0.1c-0.8-0.2-1.8-0.2-2.5-0.4
			c-0.5-0.1-1.1-0.1-1.6-0.2L10.3,6V5.9C10,5.8,9.8,6.1,9.6,6.1c-0.7,0-3.1-0.2-3.5-0.2H2.9C2.7,6,2.2,6,2,6.1
			C1.9,6.2,1.7,6.3,1.6,6.4C1.1,6.3,0.8,6.1,0.8,6.8c0.1,0.1,0,0.1,0.1,0.2l0.3,0.2c0.1,0.1,0,0.5-0.1,0.6c0,0.6,0,1.1,0.1,1.7
			c0.2,0.6,0.3,1.3,0.4,1.9c0.1,0.4-0.1,0.8-0.1,1.2c0.1,0,0.2,0.1,0.3,0.1c0,0.2,0.1,0.4,0.1,0.6c-0.1,0-0.1-0.1-0.2,0
			s0,0.1-0.1,0.2c0.1,0.1,0,0.2,0.1,0.3C1.8,13.9,1.9,13.9,2,14c0.1,0.1,0.1,0.2,0.2,0.3c0.1-0.1,0,0,0.1-0.1s0-0.2,0-0.2h0.1
			c0.2-0.2,0.3-0.4,0.3-0.7c0.9,0.1,1.4,1.4,2.1,1.8c0,0,2.9,2.1,4.1,2.5c0.8,0.3,2,0.1,2.9,0.1h5.9c6.7,0,20,0,20,0
			s2.5-0.9,3.6-1.5c1.9-1,4.3-1.5,3.6-4.6c0.2-0.1,0.3-0.3,0.5-0.4c0.2,0.2,0.4,0.1,0.6,0c0-0.1,0-0.1,0.1-0.2
			c0.2-0.2,0-0.5-0.1-0.7h-0.2v0.4c-0.1,0-0.1,0-0.2,0.1l-0.1-0.2c-0.1-0.2,0.2-0.1,0-0.3c-0.3-0.3-1-0.3-1-1
			c-0.1-0.1,0-0.1-0.1-0.2c-0.1,0-0.1,0-0.2-0.1h0.2V8.8h-0.1c-0.2-0.1-0.4,0-0.6,0c0,0.2,0.1,0.2,0.1,0.3v0.1
			c-0.3-0.2-0.2,0-0.5-0.1c-0.1,0-0.1-0.2-0.2-0.2c0,0-0.1,0.1-0.2,0.1V8.8c-0.1,0-0.3-0.1-0.5-0.1V8.4c-0.1,0-0.1-0.1-0.1-0.1
			c-0.2-0.1-0.5,0-0.6-0.1C41.4,8,41.1,7.8,41,7.8c-0.2,0.2-0.4,0.5-0.7,0.5c-0.1-0.2-0.4-0.2-0.7-0.2c0-0.2,0-0.3,0.1-0.5h-1.3v0.1
			c-0.1,0.1,0,0.1-0.1,0.2H38c0,0,0-0.1,0.1-0.1h-0.4c-0.3,0.2-0.3,0-0.4-0.1c-0.2-0.1-0.3,0-0.4,0.1V7.7H37c0.1,0-0.2-0.1-0.2-0.1
			v0.2c-0.1,0.1-0.2-0.2-0.2-0.2c-0.2-0.1-0.3,0.1-0.5,0.1V7.6c0.1-0.1,0.1-0.2,0.1-0.4c0.4-0.1,0.6-0.4,0.9-0.5H39
			c0-0.1,0.1-0.1,0.1-0.2c1.1,0,2.2,0,3.3-0.1c0.1,0,0.5,0,0.7-0.1l0.2-0.1V6.1h1.9v0.1h3.4V6.1h0.3v0.2H50V6.1
			C54.2,6.1,62.6,6,62.6,6V5L50,5.1z M16,5.3h-0.1V3.5H16V5.3z M1.3,6.8c-0.1,0-0.2,0-0.2,0.1V6.6c0.1,0,0.1-0.1,0.3-0.1
			C1.4,6.6,1.4,6.7,1.3,6.8z M9.8,6.5h-8V6.4h0.1c0.4-0.4,1-0.2,1.6-0.3c0.6-0.2,5.4,0.1,6.4,0.1v0.3H9.8z M10.2,6.5V6.3
			c0.3,0,1,0,1.2,0.2H10.2z M22.7,0h-0.3v-0.1L22.7,0L22.7,0z M23.4,1.1h-0.1c0,0.1,0,0.2,0.1,0.2H23l0,0c0-0.1,0-0.5-0.1-0.7h0.4
			C23.4,0.8,23.5,1,23.4,1.1z M35.6,7.5c-0.1,0.1-0.3,0.1-0.5,0.1V7.5h0.2V7.3h0.1c0.1-0.1,0.1,0,0.2-0.1
			C35.5,7.5,35.6,7.5,35.6,7.5z M41,8c0.1,0,0.1,0,0.2,0.1c0.1,0.1,0.1,0.1,0.1,0.2c-0.1,0-0.1,0-0.2,0.1c0,0,0,0-0.1,0
			s-0.1-0.1-0.1-0.1C41,8.2,41,8.1,41,8z M36.4,4.2c-0.3-0.3-0.3-0.1-0.1-0.5h0.3c0,0.1,0.1,0.2,0.1,0.4C36.5,4.1,36.6,4.2,36.4,4.2
			z"/>
	</g>
</g>
<g>
	<g>
		<path class="st4" d="M49.6,5.8l-0.2-0.2c0,0-1.6,0-2.4,0c-1.1,0-1.8-0.2-2.7-0.5C44,5,43.1,5,42.9,4.7c-0.2,0-0.4,0-0.5,0.1
			c-0.1,0.1,0,0.1-0.1,0.2c-0.5-0.1-1.1-0.2-1.6-0.2V4.5c-1.2-0.3-4-1.1-4.4-1.1V3c-0.1,0-0.1,0-0.2,0.1H36V2.5
			c-0.6,0-0.9,0.2-1.2,0.5h-0.6V2.8c-0.5,0-0.5-0.1-0.5,0.2c-0.4,0-1.7,0.1-1.8-0.1c-0.1,0.1,0,0.1-0.1,0.2C31.6,3,31.7,3,31.7,2.7
			c-0.2-0.1-0.3,0-0.5,0c-0.1-0.1,0,0-0.1-0.1V2.3h-0.3V2.2c-0.3,0-0.6-0.1-0.8-0.1c0-0.2,0-0.2-0.1-0.3V1.7
			c-0.2,0.1-0.2,0.3-0.4,0.3c-0.1,0-0.3-0.1-0.5-0.1V1.7C29,1.7,29,1.8,29,1.9c-0.3,0-1-0.2-1.3,0.1c-0.1-0.1-0.1-0.3-0.1-0.4
			c-0.2,0-0.2,0.1-0.4-0.1h-0.1c0.1,0.1,0,0.1,0.1,0.1c-0.1,0.2-0.4,0.3-0.7,0.4c0,0.2-0.1,0.3-0.1,0.5h-0.2c0,0.6-0.1,0.6-0.2,1
			h-2.3c0.1-0.2,0-0.1,0.2-0.1c0-0.1,0-0.2-0.1-0.2c-0.3-0.1-1.5-0.2-1.7,0.1h-0.1c0-0.3-0.1-1.2-0.1-1.2V1.4h-0.1
			c0,0,0,1.2-0.1,1.8c0,0.1-0.1,0-0.1,0.2h-1c-0.1,0.1-2.2,4.5-2.1,4.9c-0.7-0.2-1.5-0.7-2.2-0.7V7.3h-5.5V7.1c0,0-0.1,0-0.1,0.1
			C11,7.1,11,7,11,7c-0.4,0-0.4,0-0.5,0.1v0.1L10,7.4v0.2c-0.2,0-0.4,0-0.5,0.1c0-0.5-0.1-1-0.1-1.5c-0.5,0-1,0-1.5,0.1
			C7.6,6.3,7.2,6.1,7,6.3C7,6.2,7,6.2,6.9,6.2V6c0.2,0,0.3,0,0.4,0.1c0.1-0.1,0-0.1,0.1-0.2H6.7v0.3H6.5C6.5,6.2,6.5,6,6.5,5.9V5.9
			H6.4c0,0.1,0,0.3-0.1,0.4v1.3C5.8,7.4,5,7.5,4.3,7.5c0.1,0.1,0,0,0.1,0.1c-0.1,0-0.2,0.1-0.2,0.1H4c0-0.1,0-0.1-0.1-0.1
			C4,7.5,4,7.5,4.1,7.5C4,7.4,3.8,7.4,3.7,7.5H3.5c0,0.1,0,0.1,0.1,0.1v0.1H3.3c0.1,0,0,0.2,0,0.2C3.1,8.1,2.7,8,2.5,8.2
			C2.5,8.2,2.5,8.2,2.5,8C2.3,8,2,8,1.9,8.1c-0.2,0-0.4,0-0.5,0.1c0,0.5,0,1.1,0.1,1.7c0,0.1,0.1,0.6,0.1,0.7v0.1H1.5
			c-0.1,0.1,0,0.1-0.1,0.1c0.1,0.2,0.1,0,0.2,0.1c0.1,0.1,0,0.1,0.1,0.2c0,0,0.7,0,0.8-0.1h0.1c-0.1,0.3-0.3,0.5-0.4,0.8
			c-0.1,0.2,0,0.6-0.1,0.7v0.1H1.9c-0.1,0-0.1,0.1-0.2,0.2c-0.1-0.2,0-0.2,0-0.4H1.6c-0.1,0.1,0,0-0.1,0.1v0.2H0.8
			c-0.1,0.1-0.2,0.1-0.2,0.2c0,0.5,0.1,0.5,0.3,0.8c0.5,0,0.5,0,0.8-0.2v-0.1c0,0,0,0.1,0.1,0.2c0.1,0.1,0.3,0.1,0.4,0.2
			c0.1,0.1,0.1,0.3,0.2,0.4c0.2,0.1,0.3-0.1,0.5,0c0.1,0,0.3,0.3,0.4,0.4c0.5,0.3,2.9,2.3,4.1,2.8c0.5,0.2,2.1,0.2,2.1,0.2
			s13.2,0,17.7,0h7c0.9,0,2.9,0,3.6-0.2c0.6-0.2,6.7-2.5,7.2-3.2c0.7-1,0.7-2.6-0.2-3.3v-0.1c0.2,0,0.5,0.1,0.7,0.1
			c0-0.5-0.3-0.7-0.5-1c0-0.1,0-0.1,0.1-0.2c-0.1-0.3-0.3-0.3-0.5-0.4c-0.2-0.1,0-0.3-0.1-0.5c-0.1-0.1-0.2-0.2-0.3-0.2
			c-0.4,0-0.4,0.2-0.6,0.3h-0.1c-0.1-0.1,0-0.1-0.3-0.2c0-0.3,0-0.2,0-0.5H43V8c1-0.2,1.9-0.3,2.9-0.5V7.4c0.8,0,2.5,0,2.5,0h1
			l0.2-0.2l19.9-0.2V6L49.6,5.8z M1.3,13.3c-0.2,0-0.2,0-0.3-0.1C1,13.1,1,13.1,1.1,13h0.2c0.1,0.1,0,0,0.1,0.1
			C1.3,13.2,1.3,13.2,1.3,13.3z M22.4,3.4V3.3C22.4,3.4,22.4,3.3,22.4,3.4L22.4,3.4z M27.6,2h-0.4V1.9c0.2-0.1,0.2-0.1,0.3-0.2
			C27.5,1.7,27.5,1.9,27.6,2L27.6,2z M31.3,2.8h0.4C31.6,2.8,31.4,2.8,31.3,2.8z M36,3.2V3.1C36.1,3.2,36,3.1,36,3.2L36,3.2z
			 M44,8.8c0.2,0,0.2,0,0.4,0.1c0,0.2,0,0.2-0.1,0.4c-0.2,0-0.2,0-0.4-0.1C43.9,9,43.9,9,44,8.8z"/>
	</g>
</g>
</svg>
