<svg xmlns="http://www.w3.org/2000/svg" width="45" height="18" viewBox="0 0 45 18">
  <path fill="#8C8C7C" fill-rule="evenodd" d="M3.21758971,16.4792063 C4.17711065,17.0309748 5.84851772,17.4782715 6.95507729,17.4782715 L26.6481143,17.4782715 C28.3069673,17.4782715 30.6238801,16.5580616 31.8314754,15.4149819 L33.9359131,13.4229736 L34.2731934,10.5373535 L32.4177246,9.41601563 L27.9224854,9.42443848 L26.9707031,8.46105957 L23.9744873,8.44921875 L24.0128174,7.75244141 L27.9709473,7.43249512 L29.1099854,6.44128418 L44.925415,6.44128418 L44.925415,5.4453125 L28.8272705,5.4453125 L27.9412842,4.44580078 L26.6311035,4.42102051 L25.9355469,3.42443848 L24.8737793,3.45239258 L24.0128174,3.9276123 L23.9089355,3.37854004 L21.2791748,3.45117188 L20.9129639,2.4029541 L18.7053223,1.81933594 L17.9284668,0.444824219 L22.9354248,0.444824219 L22.9354248,1.51599839e-17 L16.9475098,0 L16.9475098,1.35656738 L12.9926758,1.42407227 L12.9434814,2.44726563 L8.91359103,2.43022178 C8.36561172,2.42790418 7.92947305,2.86966843 7.93835449,3.35693359 L7.93835449,3.35693359 L5.95288086,3.4329834 L4.95495605,4.66955566 L4.95495605,6.44128418 L9.20275879,6.44128418 L11.7670898,7.43249512 L14.8841553,7.75244141 L14.8841553,8.44641113 L8.85620117,8.47998047 L7.19433594,9.34753418 L0.998535156,9.50744629 L0,10.4061279 L0,12.3520508 L0.542776635,13.5771528 C0.990602833,14.5879421 2.13507014,15.856708 3.09100404,16.4064138 L3.21758971,16.4792063 Z"/>
</svg>
