<?xml version="1.0" encoding="utf-8"?>
<!-- Generator: Adobe Illustrator 25.3.1, SVG Export Plug-In . SVG Version: 6.00 Build 0)  -->
<svg version="1.1" id="Слой_1" xmlns="http://www.w3.org/2000/svg" xmlns:xlink="http://www.w3.org/1999/xlink" x="0px" y="0px"
	 width="73.5px" height="21.2px" viewBox="0 0 73.5 21.2" style="enable-background:new 0 0 73.5 21.2;" xml:space="preserve">
<style type="text/css">
	.st0{display:none;fill-rule:evenodd;clip-rule:evenodd;fill:#FAB81B;}
	.st1{display:none;}
	.st2{display:inline;}
	.st3{fill-rule:evenodd;clip-rule:evenodd;fill:#FAB81B;}
	.st4{fill-rule:evenodd;clip-rule:evenodd;fill:#8C8C7C;}
</style>
<path class="st0" d="M10.6,20.9h26.6c0,0,0.8-0.2,1-0.2c1.3-0.5,3.8-1.9,4.9-2.7c0.2-0.1,0.5-0.5,0.6-0.7s0.4-0.6,0.4-0.8
	c0-0.2,0-0.7,0-0.7l1.1-1.1v-0.3l0.4,0.2l0.4,0.1l0.2-0.2v-0.6L46,13.7h-0.2v0.5h-0.2l-0.5-0.6l-0.6,0.1l-0.4,0.2l-0.4-0.6h-0.2
	L43,13l-0.6-0.3H42l0.7-0.1c0,0,0.3,0.2,0.4,0.3c0.1,0.1,0.5,0.1,0.5,0.1v-1.4c0,0-0.5,0-0.6,0.1c-0.1,0-0.2,0.3-0.2,0.3v0.2h-0.4
	l-0.1-0.4H41c0,0,0.1-0.5,0-0.6S40.6,11,40.4,11c-0.1,0-0.4-0.1-0.5,0s-0.3,0.4-0.3,0.5s-0.1,0.4-0.1,0.4l0.2,0.2l-0.8-0.2
	c0,0-0.1-0.7-0.2-0.9c-0.1-0.1-0.2-0.2-0.3-0.2s-0.2,0-0.2,0.1c-0.1,0.1-0.3,0.3-0.3,0.3s-0.2-0.3-0.3-0.3s-0.3,0-0.3,0
	C37.2,11,37,11.3,37,11.3l-1.7-0.4h-1.8v-0.2l1.7-0.2l0.3-1.2h2.2l0.2-0.2L59.1,9l0.2,0.2h4.3L63.8,9H70V7.8h-6l-0.2-0.2h-4.4
	l-0.2,0.2L34.6,7.6L34,7.2c0,0,0.1-0.1,0.1-0.2c0-0.1,0.1-0.3,0-0.5c-0.1-0.1-0.5,0-0.6,0s-0.2,0.2-0.2,0.2l-0.2-0.2H32l-0.2-0.2
	l-2-0.4h0.4V5.4L28,5.2v0.4l-1.2-0.2h-7.5V5h-2.2v0.4h-3.5v0.2H13l-0.2-7.4v7.4L8.9,6.3V10l2.3,0.7v0.2h5.9v0.2H1.4v0.3H1.1
	l-0.2,0.2v0.3L1,12.3L1.1,13l0.6,2.3c0,0,0.2,0.8,0.3,1.1c0.1,0.3,0.3,0.8,0.5,1S3,18,3.2,18.1c1.5,1,5,2.1,6.7,2.6
	C10.1,20.9,10.6,20.9,10.6,20.9z"/>
<g class="st1">
	<g class="st2">
		<path class="st3" d="M50,8.1V7.9c0,0-0.7,0-1.1,0V8h-0.3V7.6h-3.4c0,0.1,0,0.4,0,0.4h-1.9l-0.1-0.2c0,0-3,0-3.9,0L39,7.7
			c0-0.1-0.1-0.1-0.1-0.2h-2.1c-0.1-0.1-0.1-0.1-0.1-0.3c0.1-0.1,0.1-0.2,0.1-0.5c-0.2-0.1-0.2-0.2-0.6-0.2
			c-0.1,0.1-0.2,0.3-0.4,0.4c-0.1-0.1-0.3-0.1-0.4-0.2c-0.1-0.1-0.1-0.2-0.2-0.2c-0.3-0.2-0.6-0.3-1-0.3c-0.1,0.1-0.1,0.2-0.2,0.2
			c-0.1-0.1-0.2,0-0.3-0.1s0.1-0.2-0.2-0.2c-0.1,0-0.1,0.1-0.1,0.1c-0.1-0.1-0.3-0.1-0.5-0.2c-0.2-0.1-0.5-0.3-0.7-0.4h-0.4
			c-0.2,0-0.5-0.1-0.6-0.2c-0.2-0.1-0.5,0-0.6,0.1c-0.2,0-0.5,0-0.7-0.1c0-0.2,0-0.4-0.1-0.5h-0.1c-0.1,0.2-0.2,0.2-0.4,0.3
			c0,0.1,0,0.1,0.1,0.2h-0.2c-0.2-0.1-1.4-0.1-1.8-0.1C27.3,4.9,27.3,5.2,27,5c-0.1-0.1-0.2-0.3-0.2-0.5h0.4V4
			c-0.3,0-0.3-0.1-0.7-0.1c-0.1,0.1-0.2,0.2-0.2,0.2v0.4c-0.1,0.2-0.2,0.4-0.2,0.5c-0.3,0-0.3,0-0.5,0c0-0.1,0-0.3-0.1-0.4
			c0.1,0,0.1,0,0.2-0.1c-0.7,0-1.4,0-2.1-0.1v0c0.1-0.2,0.1-0.6,0.1-0.7c0.2-0.1,0.6-0.1,1-0.1c0.1,0.1,0.2,0.1,0.3,0.1V3.4
			c-0.2,0-0.6,0-0.7-0.1h2.1c0.3,0,1.2,0.1,1.2,0.1V2.8c0,0-0.8,0.1-1.2,0.1c0-0.1,0-0.2-0.1-0.2V3H24V2.8h-0.7c0,0-0.1,0.2-0.3,0.1
			V2.8h-1c-0.3,0.1-1.3,0.3-1.7,0.2c-0.3-0.1-0.6-0.2-0.9-0.2l0,0c0.2,0.2,0.2,0.5,0.2,0.8c0.2,0,0.5-0.3,0.6-0.1V3.3
			c0.2,0,0.4,0,0.5,0.1c-0.1,0.2-0.1,0.3,0,0.5h0.1c0-0.2,0-0.4,0.1-0.5c0.1,0,0.1,0,0.3,0c0.1,0.3,0.2,0.2,0.2,0.6h0.2
			c0-0.1,0-0.2,0.1-0.3h0.2C22,3.8,22,3.8,22,3.9c0,0.1-0.1,0,0,0.2c0.1,0.1,0.2,0.1,0.4,0.1v0.2c-0.3,0-0.8,0.1-0.9,0
			c0,0.1,0,0.1-0.1,0.2c-0.2,0.1-0.6-0.1-0.7,0.1h0.1c0.1,0.1-0.2,0.1-0.1,0.2c0,0,0.1,0.1,0.1,0.2c-0.4,0-0.2,0.2-0.4,0.3
			c-0.5,0-0.9,0.1-1.4,0.1V4.9h-0.2v0.5c-0.3,0-0.6,0-1,0.1c0-0.2,0-0.4-0.1-0.6h-0.1v0.7h-0.4c0-0.2,0-0.3-0.1-0.5
			c-0.1,0-0.1,0-0.2-0.1c0-0.5-0.1-7.3-0.1-8.1c0-0.3,0.1-0.7-0.1-0.9c0,2.8,0.1,8.7,0,9c-0.1,0-0.1,0-0.2,0.1c0,0.2,0,0.4-0.1,0.5
			c-0.2,0-0.4,0-0.6,0.1v0.2h-0.1V5.4c0.1-0.1,0-0.1,0.1-0.2h-3.1v0.1c0.2,0.1,0.1,0,0.1,0.1c0,0-0.1,0-0.1-0.1v0.5
			c-0.1,0.1-0.1,0.1-0.1,0.2h0.1c0,0,0-0.2,0.1-0.1V6c0.1,0.1,0,2.5,0,3.2c0,0,0.8,0.1,1.2,0.1V9.1h1.8V8.8H16v0.3h1.3
			c0.1,0.2,1.2,1,1.5,1v0.1c-0.1,0-2.6-0.3-3.2-0.4V9.6h-0.2v0.2c-0.3,0-0.6,0-0.9-0.1c-0.8-0.2-1.8-0.2-2.5-0.4
			c-0.5-0.1-1.1-0.1-1.6-0.2L10.3,9V8.9C10,8.8,9.8,9.1,9.6,9.1c-0.7,0-3.1-0.2-3.5-0.2H2.9C2.7,9,2.2,9,2,9.1
			C1.9,9.2,1.7,9.3,1.6,9.4C1.1,9.3,0.8,9.1,0.8,9.8c0.1,0.1,0,0.1,0.1,0.2l0.3,0.2c0.1,0.1,0,0.5-0.1,0.6c0,0.6,0,1.1,0.1,1.7
			c0.2,0.6,0.3,1.3,0.4,1.9c0.1,0.4-0.1,0.8-0.1,1.2c0.1,0,0.2,0.1,0.3,0.1c0,0.2,0.1,0.4,0.1,0.6c-0.1,0-0.1-0.1-0.2,0
			s0,0.1-0.1,0.2c0.1,0.1,0,0.2,0.1,0.3C1.8,16.9,1.9,16.9,2,17c0.1,0.1,0.1,0.2,0.2,0.3c0.1-0.1,0,0,0.1-0.1s0-0.2,0-0.2h0.1
			c0.2-0.2,0.3-0.4,0.3-0.7c0.9,0.1,1.4,1.4,2.1,1.8c0,0,2.9,2.1,4.1,2.5c0.8,0.3,2,0.1,2.9,0.1h5.9c6.7,0,20,0,20,0
			s2.5-0.9,3.6-1.5c1.9-1,4.3-1.5,3.6-4.6c0.2-0.1,0.3-0.3,0.5-0.4c0.2,0.2,0.4,0.1,0.6,0c0-0.1,0-0.1,0.1-0.2
			c0.2-0.2,0-0.5-0.1-0.7h-0.2v0.4c-0.1,0-0.1,0-0.2,0.1l-0.1-0.2c-0.1-0.2,0.2-0.1,0-0.3c-0.3-0.3-1-0.3-1-1
			c-0.1-0.1,0-0.1-0.1-0.2c-0.1,0-0.1,0-0.2-0.1h0.2v-0.2h-0.1c-0.2-0.1-0.4,0-0.6,0c0,0.2,0.1,0.2,0.1,0.3v0.1
			c-0.3-0.2-0.2,0-0.5-0.1c-0.1,0-0.1-0.2-0.2-0.2c0,0-0.1,0.1-0.2,0.1v-0.2c-0.1,0-0.3-0.1-0.5-0.1v-0.3c-0.1,0-0.1-0.1-0.1-0.1
			c-0.2-0.1-0.5,0-0.6-0.1c-0.3-0.2-0.6-0.4-0.7-0.4c-0.2,0.2-0.4,0.5-0.7,0.5c-0.1-0.2-0.4-0.2-0.7-0.2c0-0.2,0-0.3,0.1-0.5h-1.3
			v0.1c-0.1,0.1,0,0.1-0.1,0.2H38c0,0,0-0.1,0.1-0.1h-0.4c-0.3,0.2-0.3,0-0.4-0.1c-0.2-0.1-0.3,0-0.4,0.1v-0.1H37
			c0.1,0-0.2-0.1-0.2-0.1v0.2c-0.1,0.1-0.2-0.2-0.2-0.2c-0.2-0.1-0.3,0.1-0.5,0.1v-0.1c0.1-0.1,0.1-0.2,0.1-0.4
			c0.4-0.1,0.6-0.4,0.9-0.5H39c0-0.1,0.1-0.1,0.1-0.2c1.1,0,2.2,0,3.3-0.1c0.1,0,0.5,0,0.7-0.1l0.2-0.1V9.1h1.9v0.1h3.4V9.1h0.3v0.2
			H50V9.1C54.2,9.1,62.6,9,62.6,9V8L50,8.1z M16,8.3h-0.1V6.5H16V8.3z M1.3,9.8c-0.1,0-0.2,0-0.2,0.1V9.6c0.1,0,0.1-0.1,0.3-0.1
			C1.4,9.6,1.4,9.7,1.3,9.8z M9.8,9.5h-8V9.4h0.1c0.4-0.4,1-0.2,1.6-0.3c0.6-0.2,5.4,0.1,6.4,0.1v0.3H9.8z M10.2,9.5V9.3
			c0.3,0,1,0,1.2,0.2H10.2z M22.7,3h-0.3V2.9L22.7,3L22.7,3z M23.4,4.1h-0.1c0,0.1,0,0.2,0.1,0.2H23l0,0c0-0.1,0-0.5-0.1-0.7h0.4
			C23.4,3.8,23.5,4,23.4,4.1z M35.6,10.5c-0.1,0.1-0.3,0.1-0.5,0.1v-0.1h0.2v-0.2h0.1c0.1-0.1,0.1,0,0.2-0.1
			C35.5,10.5,35.6,10.5,35.6,10.5z M41,11c0.1,0,0.1,0,0.2,0.1c0.1,0.1,0.1,0.1,0.1,0.2c-0.1,0-0.1,0-0.2,0.1c0,0,0,0-0.1,0
			s-0.1-0.1-0.1-0.1C41,11.2,41,11.1,41,11z M36.4,7.2c-0.3-0.3-0.3-0.1-0.1-0.5h0.3c0,0.1,0.1,0.2,0.1,0.4
			C36.5,7.1,36.6,7.2,36.4,7.2z"/>
	</g>
</g>
<g class="st1">
	<g class="st2">
		<path class="st3" d="M66.6,7.7v0.2c-5.3,0-20.7-0.1-23.1-0.1c-0.3-0.1-0.2-0.3-0.3-0.3c-0.3,0-0.6,0-0.9-0.1
			C42.2,7.3,42,7,41.8,6.9c-0.1-0.1-0.4-0.1-0.5-0.2c-0.2-0.2,0.1-0.2-0.2-0.3V6.4c-0.1,0,0,0-0.1,0.1c-0.2,0.1-0.3,0.3-0.3,0.6
			c-0.1,0-0.4,0-0.6-0.1c-0.4-0.2-0.8-0.7-1.4-0.8c-0.2,0-0.5,0-0.7-0.1c-0.3-0.1-1.9-0.4-2.1-0.5c0-0.2,0-0.4,0.1-0.5
			c-0.2-0.1-0.5-0.2-0.6-0.1c-0.4,0-0.6-0.1-0.7,0.3c-0.1-0.1-0.1-0.4-0.1-0.5c-0.2,0.1-0.2,0.3-0.2,0.5c-0.1,0-0.2-0.1-0.2-0.1
			c0,0-0.2,0.1-0.4,0c0,0,0-0.1-0.1-0.1c-0.1,0-0.4-0.1-0.5-0.1c-0.5-0.1-0.7,0.1-1.2,0l-0.2-0.1c-0.2,0-0.1,0.2-0.1,0.2
			c-0.1,0.1-0.1,0-0.1-0.1c-0.1,0-0.3,0-0.4,0.1V4.7H31V4.5h-0.5c0-0.2,0-0.3,0.1-0.4c0-0.3,0-0.5-0.1-0.7c-0.5,0-0.7,0.5-0.7,1.1
			c-0.1-0.1-0.1-0.2-0.1-0.4h-0.5v0.5c-0.2-0.1-0.1-0.1-0.1-0.4c-0.4-0.1-1-0.1-1.2,0.3c-0.2-0.1-0.1-0.1-0.1-0.3
			c-0.2,0.1-0.1,0.1-0.1,0.3c-0.1-0.1-0.1-0.2-0.1-0.3c-0.2,0.1-0.1,0.1-0.1,0.3c-0.1,0-0.1-0.1-0.3-0.1V4.3h-0.7v0.2h-0.3V4.2
			c-0.2,0.1-0.1,0-0.1,0.2C26,4.3,26,4.3,26,4.2c-0.3,0-1.6,0.1-1.8,0h-0.1V4h-0.2c-0.1,0.1,0,0-0.1,0.1c0.1,0.3,0.1,0.1,0.2,0.2
			c0.1,0.1-0.1,0.1-0.1,0.1v0.5h-3.5c0-0.1,0-0.1-0.1-0.2c-0.5,0.2-3,0.2-3.6,0.2c0-0.2,0-0.2-0.1-0.3c-0.6,0-0.7-0.1-1,0.2v0.1
			h-0.1V3h-0.1v1.8c-0.2-0.1-0.1-0.1-0.1-0.3h-0.1v0.3c-0.4,0-0.4,0-0.9,0v0.3h-0.1c0,0.6,0,1.2-0.1,1.8h0.1c0,0-0.1,0.5-0.1,0.6
			c0.1,0.2,0,0,0,0.2c0,0.1,0.1-0.1,0.1,0.1c-0.1,0.1-0.1-0.1-0.1,0.1h0.1v0.3c1.2,0.3,2.4,0.8,3.6,1.2c0.3,0.1,5.1,0.3,5.3,0.3v0.1
			c-0.6,0-5.3-0.3-5.6-0.3C16.7,9.3,16,9.3,15,9.3c0-0.2-0.1-0.2-0.1-0.3h-0.1c0,0.1-0.1,0.1-0.1,0.3c-0.3,0-0.4-0.1-0.6-0.2
			c0,0-0.3,0.1-0.4,0c0,0-0.2-0.1-0.2-0.1V8.8h-0.3l-0.2-0.1c-0.1,0-0.1,0-0.2,0.1c0,0,0-0.1-0.1-0.1h-0.4c-0.2-0.1-0.2-0.1-0.5-0.1
			c0-0.2,0-0.2-0.1-0.3c-0.6,0-1.2,0-1.6,0c-0.1,0-0.2,0-0.3-0.1c-0.1,0-0.4,0.1-0.7,0.1c0,0,0-0.1-0.1-0.1c-0.1,0-0.3,0.1-0.5,0.1
			C7.6,7.9,5.3,8,4.6,8.1C4.1,8.2,3.3,7.9,3,8.1C2.8,8.2,2.9,8.2,2.9,8.5C2.7,8.4,2.8,8.4,2.7,8.2H2.4v0.2c-0.3,0-0.3,0.1-0.5,0.2
			c0,0,0,0.1-0.1,0.1C1.7,8.8,1.2,8.9,1,8.9v0.2H0.8c-0.1,0.2,0,0.9,0.1,1v0.4C1,10.8,1.2,11,1.3,11.3c0.1,0.1,0,0.5,0,0.5
			c0,0.1,0.1,0,0.1,0.3c0.2,0,0.4,0,0.5-0.1c0.1,0.1,0.1,0.1,0.1,0.3c0.2-0.2,0.4-0.4,0.8-0.4c0,0.1-0.1,0-0.1,0.1
			c0,0.1,0,0.1-0.1,0.2H2.5c0,0-0.2,0.9-0.1,1h0.1v2.4c-0.3-0.1-0.7,0-1,0.2c0,0.3,0,0.6,0.1,0.7c0.4,0.6,0.9-0.4,0.9,0.9h0.1v-0.8
			h0.2v0.1c0.2,0.1,0.4-0.2,0.6-0.2c0.1,0.1,0.1,0.1,0.1,0.3h0.1c0,0.1,0,0.1-0.1,0.1c-0.1,0.1-0.2,0-0.3-0.1H3.2
			c0,0.3,0.1,0.3,0.2,0.6c0.5,0.1,0.5,0.1,0.8-0.2c0.3,0.4,3.3,3.2,4.1,3.5c0.7,0,1.4,0,2,0.1h24.5c0.7,0,2.5,0,3-0.2
			c0.1,0,6.2-2.6,6.3-4.5c0.1,0.1,0,0.1,0.1,0.2c0.1,0.1,0.3,0.2,0.3,0.3c0.2,0,0.2,0,0.3-0.1c0.3-0.1,0.3-0.3,0.5-0.4v-0.1
			c0,0-0.1,0-0.1-0.1c-0.1,0-0.2,0.1-0.5,0.1c0.1-0.4,0.2-0.5,0.3-0.9c-0.2-0.2-0.2-0.4-0.6-0.4v-0.1c0.4-0.1,0.7-0.2,1-0.4
			c-0.1-0.3-0.9-1.4-1.2-1.5v-1.3c-0.2,0.1-0.1,0-0.1,0.2c-0.3,0-0.7,0-0.8,0.1c-0.2-0.1-0.1-0.1-0.3-0.1c0,0,0-0.3-0.1-0.1v0.1
			h-0.2c0-0.3-0.1-0.3,0.1-0.4v-0.1h-0.6c0.1,0.1,0.1,0.1,0.3,0.1v0.2c-0.2,0-0.5,0-0.7-0.1c-0.1,0-0.2,0.2-0.3,0.2
			c-0.1,0-0.5-0.2-0.6-0.2c-0.3-0.1-0.7,0-1-0.1c-0.3-0.1-0.8,0.1-1-0.1h-0.6v-0.1c0.4,0,1.6,0,1.8,0.1h0.7
			c-0.1-0.2-0.3-0.6-0.1-0.8c0-0.1,0-0.1,0.1-0.1c0.1-0.1,0.1,0,0.2-0.1v0.4c0.3-0.1,0.6-0.2,0.9-0.3c0.1-0.1,0.3-0.3,0.4-0.3
			c0.3,0,0.6,0,1-0.1c0.1,0,0.1-0.3,0.2-0.3c2.8,0,18.3-0.1,23.2-0.1v0.2h4.8V9.1C71.7,9,71.9,9.3,72,9.3c0.7-0.1,1.6-0.1,2.5-0.1
			V7.9C71.8,7.9,69.5,7.7,66.6,7.7z M14.2,5.3c0.1,0.1,0.1,0.2,0.1,0.3C14.2,5.5,14.2,5.4,14.2,5.3z M16.7,4.9c-0.3,0-0.6-0.1-0.7,0
			h-0.2c0-0.2,0.1-0.2,0.1-0.3c0.2,0,0.5,0,0.7,0.1v0.1h0.1V4.9z M2.6,8.5L2.6,8.5C2.5,8.4,2.5,8.3,2.5,8.3h0.1V8.5z M2.2,16.2
			c-0.2,0-0.2,0-0.3-0.1v-0.3c0.1,0,0.3,0,0.4-0.1C2.3,16,2.2,16.1,2.2,16.2z M3.1,15.2c-0.2,0-0.2,0.1-0.4,0.1v-0.7
			c0.2,0,0.1,0.1,0.3,0h0.1V15.2z M14.8,9.2h-0.1V9.1h0.1V9.2z M43.7,11.5H44v0.3h-0.5C43.6,11.7,43.6,11.8,43.7,11.5z M41.8,11.4
			c0.1,0,0.3,0,0.4-0.1c0,0.2,0,0.3,0.1,0.5h-0.1v0.1c-0.2,0-0.2,0-0.3-0.1c-0.1,0.1,0.1,0.1-0.1,0.1c-0.1-0.1,0-0.1-0.1-0.1
			C41.7,11.6,41.8,11.5,41.8,11.4z M41.1,6.6c0,0-0.3,0-0.2-0.1c0-0.1,0.1,0,0.1-0.1h0.1V6.6z"/>
	</g>
</g>
<g>
	<g>
		<path class="st4" d="M71.1,9V8.9c-0.4,0-0.8,0-1.3,0.1V8.8h-4.4V9C58.8,9,52.2,9,45.6,8.9V8.7c-1,0-1.2-0.4-2.1-0.4V7.5
			c-0.4,0-0.8-0.1-1.1-0.2h-0.7c-0.2-0.1-0.4-0.3-0.5-0.4c-0.2,0-0.4-0.1-0.5-0.1c0,0,0-0.1-0.1-0.1h-0.5c-0.1,0-0.1-0.2-0.1-0.2
			h-1.1c-0.1,0.1,0,0.2-0.2,0.2c-0.2,0-0.5-0.2-0.7-0.3h-1.7c0-0.3,0-0.4-0.1-0.5V5.7c0.1,0,0.1,0,0.1,0.1v0.1c0,0,0.3-0.1,0.5-0.1
			c-0.1-0.1-0.4,0-0.6-0.1c0-0.1,0-0.1-0.1-0.2h-0.8v0.4C35,5.9,35,6,34.9,6c-0.5,0.2-1.9-0.1-2.1-0.3c-0.1-0.1,0-0.1-0.1-0.2h-0.3
			c0-0.2,0.1-0.1,0.1-0.2c0.1-0.2-0.1-0.6-0.1-0.7c0.1-0.3-0.1-0.5-0.1-0.8c-0.3,0.1-0.6,0.1-1,0.2V4c-0.1,0.1,0,0.1-0.1,0.2h-0.2
			c0-0.1,0-0.1-0.1-0.2V4H31v0.3c-0.2,0-1.6,0.1-1.8,0c0-0.1,0-0.1-0.1-0.2c-0.3-0.2-0.6,0.2-0.7,0.1V4.1h-0.8
			c-0.6,0.1-1.8,0.3-2.2,0h-0.2c0,0.2,0,0.7,0.1,0.8v0.1c0.3-0.1,0.4-0.3,0.8-0.4V5c0.2-0.1,0.1-0.2,0.1-0.4C26.4,4.7,27,5,27,5
			c0.1,0.2-0.1,0.1,0.1,0.2c-0.1,0.1-0.1,0-0.2,0.1v0.5c-0.1-0.1-0.1-0.5-0.1-0.8h-0.2c0,1.1-0.2,0.8-0.6,1.3C26,6.2,26,6,26,5.8
			c-0.1,0.1-0.1,0-0.1,0.2c-0.2-0.1-0.1,0-0.1-0.2c-0.2,0.1-0.1,0.3-0.1,0.6h-0.1c-0.1-0.2-0.3-0.2-0.3-0.6c-0.1,0.1,0,0.1-0.1,0.2
			c-0.2,0-0.2,0-0.2-0.2h-0.1V6h-1.5c-0.1,0.1-0.2,0.3-0.4,0.4h-0.5c-0.6,0.2-1.5,0.1-2.1,0.3C20.2,6.1,19-3.2,18.9-4
			C18.8-3.8,20,5.7,20.1,6C20.2,6.3,20,6.4,20,6.7c-0.8,0.2-1.7,0.3-2.7,0.3v0.1h-0.1c0,0.3,0,1.6,0.2,1.8c0,0.3,0,0.6,0.1,0.8
			c0.8,0,1.4,0.4,2.2,0.4c0.1,0.1,0.1,0.2,0.2,0.3c-0.1,0-0.2,0.1-0.4,0.1v-0.2c-0.4,0-1.2,0-1.3,0.1c-0.5,0-0.5-0.1-0.7-0.4
			c-0.4,0-0.7-0.1-0.8,0c-0.1-0.1-0.2-0.4-0.4-0.5c-0.3-0.2-2.3-0.3-2.8-0.1c-0.2,0.1-0.4,0.2-0.5,0.3h-0.8v0.1
			c-0.4,0.2-1.1,0-1.3-0.2c-0.6,0-0.3,0.1-0.6,0.4C9.9,10.1,7.6,10,6.7,9.9V9.4H6.5v0.5H4.2c-0.1,0-0.4-0.2-0.5-0.2
			c0,0,0,0.1-0.1,0.1c-0.1,0-0.2,0-0.3,0.1H3.3V9.8C3.2,9.9,2.7,9.9,2.6,9.9H2.1C2,10,2,10.2,2,10.2c-0.3,0.2-0.4-0.2-0.7,0.3
			c-0.1,0.1-0.1,0.2-0.1,0.3c0.1,0.5,0.7,0.7,1,1c0.3,0.2,0.4,0.8,0.4,1.3c0.3,0,0.4,0.2,0.7,0.2c0,0.1,0,0.1-0.1,0.1
			c-0.1,0.1-0.1,0-0.2,0.1c-0.3,0.1,0,0.1-0.1,0.4c0,0.1-0.2,0.1-0.2,0.2c0.1,0.1,0.2,0.3,0.2,0.4c-0.1,0.3-0.3,0.7-0.4,1
			c0,0.1,0,0.3,0.1,0.4c-0.1,0.2-0.2,0.5-0.2,0.8c0.1,0,0.2,0,0.2-0.1c0.1-0.1,0.1-0.3,0.1-0.4c0.1,0,0.3,0,0.5,0.1v0.1h0.1v0.2
			c-0.1-0.1,0-0.1-0.1-0.2c-0.1,0-0.2,0-0.2,0.1C3,16.8,3.1,17,3.2,17.2h0.2v0.2c0.3,0.3,0.4,0.7,0.8,1c0.5,0.4,1.3,0.5,1.9,0.8
			c1.1,0.5,2.2,1.1,3.4,1.4c0.6,0.2,1.4,0.1,2.1,0.1h26.8c1.6-0.4,3-1,4.4-1.6c0.8-0.4,1.7-0.5,2.2-1.2c0.4-0.6,0.7-2.2,0-2.7
			c0-0.3,0.2-0.5,0.4-0.6c-0.1-0.3-0.1-0.8-0.1-1.3h0.5v-0.1c-0.7,0-1.6,0-1.9,0v0.2c-1.4-0.2-2.8-0.5-4.3-0.5v-0.2
			c0.7,0,1.7,0.1,2.4,0.3c0.4,0.1,0.8-0.1,1,0.1h0.6c-0.1-0.3-0.3-0.8-0.5-1c0.1-0.2,0.2-0.2,0.4-0.2c0-0.1,0.1-0.2,0.1-0.2
			c0.1,0,0.2,0,0.4-0.1c0-0.1,0.1-0.2,0.1-0.2c0.1,0,0.2-0.1,0.4-0.1c0.2-0.1,0.3-0.4,0.5-0.6c0.2-0.2,0.6-0.1,0.9-0.1v-0.2
			c6.6,0,13.2-0.1,19.8-0.1v0.2h4.4v-0.1c0.3-0.1,0.9,0.2,1.3,0.1v-0.1h1.6V9H71.1z M19.2,9.6c-0.3,0-0.9,0-1.1-0.2
			c-0.2,0-0.2,0-0.4-0.1c0-0.2,0-0.4-0.1-0.5V8.8h1.6V9.6z M19.2,8.7h-1.6V8h1.6V8.7z M19.2,7.9h-1.6V7.2C18.1,7.1,18.6,7,19.2,7
			V7.9z M19.9,9.8c-0.2,0-0.3-0.1-0.5-0.1V7c0.2,0,0.3,0,0.4-0.1h0.1V9.8z M1.9,11c-0.3,0-0.3-0.1-0.5-0.2c0-0.3,0.1-0.3,0.2-0.5
			h0.2c0,0.1,0.1,0.3,0.2,0.4C2,10.9,2,10.9,1.9,11z M11.8,9.8h0.3C12,10,11.9,9.9,11.8,9.8z M19.6,10.5c-0.2,0-0.3,0-0.4-0.1h-0.1
			v-0.1h0.5V10.5z M25.5,11.2c-0.5,0-1-0.1-1.5-0.1c-0.8-0.2-1.8-0.2-2.7-0.4c-0.5-0.1-1,0-1.3-0.2c0.5,0,1.1,0.1,1.5,0.2
			c0.7,0.2,1.5,0.1,2.1,0.2c0.5,0.1,1.3,0,1.6,0.2h0.2V11.2z M28.3,4.6c-0.1,0-0.1,0-0.1-0.1C28.2,4.6,28.2,4.6,28.3,4.6z M28.5,5.3
			c-0.1,0.1,0,0-0.1,0H28c0-0.1,0.1-0.2,0.1-0.4c0.2,0,0.3,0,0.4,0.1c0,0.1,0.1,0.2,0.1,0.2C28.5,5.3,28.6,5.2,28.5,5.3z M31.3,5.3
			h-0.2v0.4c-0.1-0.1-0.1-0.2-0.1-0.4h-1.3v0.2c-0.1-0.1,0-0.1-0.1-0.2h-1c0-0.2,0.1-0.2,0-0.4V4.9h1V4.6h-0.4
			c0.4-0.3,1.5,0.2,1.9-0.1h0.1V5.3z M44.9,13.4C45,13.5,45,13.8,45,14C44.9,13.9,44.9,13.6,44.9,13.4z M44.3,13.3
			c0,0.1,0,0.1-0.1,0.1v0.1c-0.2-0.1-0.1,0-0.1-0.2H44.3z"/>
	</g>
</g>
</svg>
