<svg xmlns="http://www.w3.org/2000/svg" xmlns:xlink="http://www.w3.org/1999/xlink" preserveAspectRatio="xMidYMid" width="45" height="18" viewBox="0 0 45 18">
  <defs>
    <style>
      .cls-1 {
        fill: #8c8c7c;
        fill-rule: evenodd;
      }
    </style>
  </defs>
  <path d="M6.149,17.982 L32.650,17.982 C32.650,17.982 35.188,16.783 35.752,16.501 C36.315,16.220 38.077,14.812 38.077,14.812 L38.024,11.287 C38.024,11.287 35.397,9.340 35.198,9.221 C34.999,9.102 33.925,9.261 33.925,9.261 L33.368,9.539 L33.169,8.983 L33.845,8.784 L33.332,7.410 L30.628,6.693 L28.314,6.400 L29.388,6.355 L31.469,5.839 L45.028,5.486 L44.908,3.857 L29.627,3.579 L28.234,2.665 L25.687,1.831 L23.697,1.235 L23.419,0.321 L21.787,0.241 L20.832,1.195 L18.405,1.235 L17.171,2.029 L15.221,5.685 L6.381,5.685 L5.095,6.495 L1.137,7.844 L0.290,9.430 L0.237,12.549 L1.031,14.558 L1.932,15.668 L4.050,16.778 L6.149,17.982 Z" class="cls-1"/>
</svg>
