<svg xmlns="http://www.w3.org/2000/svg" xmlns:xlink="http://www.w3.org/1999/xlink" preserveAspectRatio="xMidYMid" width="51" height="18" viewBox="0 0 51 18">
  <defs>
    <style type="text/css">
      .cls-1 {
        fill: #fab81b;
        fill-rule: evenodd;
      }
    </style>
  </defs>
  <path d="M-0.076,11.035 L1.383,11.045 L1.925,10.670 L1.758,10.149 L3.384,8.960 L3.821,9.294 L4.176,9.106 L3.926,8.293 L4.238,7.981 L7.031,8.043 L11.909,7.355 L13.910,7.189 L14.994,7.939 L16.109,4.072 L16.849,4.072 L16.890,3.801 L17.120,3.739 L17.328,-0.305 L17.432,3.697 L17.724,3.718 L17.787,3.989 L18.912,3.989 L19.037,2.697 L19.017,2.176 L19.934,2.071 L19.996,2.426 L20.976,2.863 C20.976,2.863 20.976,2.061 21.080,2.061 C21.184,2.061 21.997,1.999 21.997,1.999 L22.080,1.498 L22.393,1.519 L22.351,2.988 L23.039,2.947 C23.039,2.947 23.060,2.478 23.143,2.478 C23.227,2.478 23.841,2.457 23.841,2.457 L23.925,3.072 L23.998,3.958 L26.999,3.978 C26.999,3.978 26.947,2.999 27.072,2.999 C27.197,2.999 27.958,2.999 27.958,2.999 L28.000,3.989 L29.542,4.031 C29.542,4.031 30.272,4.177 30.355,4.177 C30.439,4.177 32.033,4.396 32.033,4.396 L32.033,3.833 L32.992,3.854 L33.002,4.396 L35.149,4.562 L35.420,4.813 L51.074,5.209 L51.074,5.792 L35.358,6.188 L35.087,6.584 L33.013,6.959 L31.043,7.032 L31.773,7.439 L32.023,8.054 L32.940,7.991 L32.971,8.960 L31.940,8.991 L33.357,9.982 L33.972,9.940 L33.982,9.138 L34.982,9.127 L35.003,10.003 L37.734,10.149 L38.964,10.461 L38.964,10.993 L38.276,11.003 L38.057,11.274 L38.484,11.774 L38.953,12.921 L38.526,13.921 C38.526,13.921 34.816,17.235 34.795,17.319 C34.774,17.402 33.565,18.027 33.503,17.965 C33.440,17.902 6.531,17.986 6.531,17.986 L5.155,17.673 L0.507,15.422 C0.507,15.422 -0.056,14.359 -0.014,14.276 C0.028,14.192 0.111,13.254 0.111,13.254 L0.622,12.358 L0.987,11.743 L0.007,11.733 L-0.076,11.035 Z" class="cls-1"/>
</svg>