<svg xmlns="http://www.w3.org/2000/svg" width="29" height="14" viewBox="0 0 29 14">
  <path fill="#8C8C7C" fill-rule="evenodd" d="M3.91463202,13.5051252 C4.39763406,13.7692682 5.22746065,13.9833984 5.79714709,13.9833984 L22.0353235,13.9833984 C23.1431041,13.9833984 24.764474,13.4487168 25.6537739,12.7913568 L28.5432129,10.6555176 L28.9471436,9.0213623 L26.9094238,7.09423828 L21.2753906,7.07202148 L21.979126,5.15039063 L26.9503174,5.07763672 L26.904541,4.04541016 L20.5189209,4.06188965 L20.4369735,3.92309853 C20.1567398,3.44847726 19.4832333,3.06436484 18.9275699,3.06516677 L16.0386963,3.06933594 L15.8956299,2.03149414 L13.0611572,2.39208984 L11.3883057,3.76306152 L10.272583,4.01989746 L10.272583,0 L9.90380859,0 L9.90380859,4.13391113 L10.8776855,5.8215332 L3.95483398,6.06738281 L1.00439453,7.07373047 L0,8.01123047 L0,9.00476074 L1.98303223,10.1260986 L2.96136211,12.2994858 C3.18704389,12.8008441 3.75779487,13.4193544 4.24454766,13.6855487 L3.91463202,13.5051252 Z"/>
</svg>
