<?xml version="1.0" encoding="utf-8"?>
<!-- Generator: Adobe Illustrator 17.1.0, SVG Export Plug-In . SVG Version: 6.00 Build 0)  -->
<!DOCTYPE svg PUBLIC "-//W3C//DTD SVG 1.1//EN" "http://www.w3.org/Graphics/SVG/1.1/DTD/svg11.dtd">
<svg version="1.1" id="Layer_1" xmlns="http://www.w3.org/2000/svg" xmlns:xlink="http://www.w3.org/1999/xlink" x="0px" y="0px"
	width="38px" height="17px" viewBox="0 0 38 17" enable-background="new 0 0 38 17" xml:space="preserve">
<path fill="#8C8C7C" d="M1.3,11.2c0.2,0-0.5,0-0.5,0L2,10.4L2,9L3,9l0-1.3l-2,0L1,7l2,0V6.6L5,6l2.5,0L8.2,6l9.7-1.2l0-1l-0.9,0
	l0-0.8l0.9,0L18,2l1,0l0-2l2.9,0l0,1l1.5,0.3c0,0,2.2,0.8,2.3,0.8C25.8,2.2,26,3,26,3l4,0l0,0.6l-0.8,0l0,0.4l-3,0l0.1,0.3L26,4.3
	L26,7l1,0l0-2.3l2.9,0l2.8,0.9L33,6l2,0l0,0.7l-2,0L33,8L37,8c0.1-0.1,0,0.7,0,0.7l-1,0l0,1.3c0,0,0.7,0,0.8,0c0.1,0.1,0.5,0,0.5,0
	s0.5,0.9,0.5,1c0,0.1-0.9,2-0.9,2l-2,1.9L33,16l-2.1,1L6,16.9l-4-2.1l-1-1.5c0,0,0-1.3,0-1.3c0-0.1,0.5-0.7,0.5-0.7
	S1.2,11.2,1.3,11.2z"/>
</svg>
