<svg xmlns="http://www.w3.org/2000/svg" width="48" height="18" viewBox="0 0 48 18">
  <path fill="#FAB81B" fill-rule="evenodd" d="M4.92456502,5.98916427 L0,5.98916427 L0.522959864,9.10672464 L1.93514086,9.10672464 L2.13406304,12.05618 L2.13406304,12.05618 C2.1796794,12.7325421 2.45302474,13.3735162 2.90955239,13.8746438 L4.02816384,15.1025368 L4.02816384,15.1025368 C5.18890029,16.3766702 6.83616088,17.0978661 8.5597026,17.086514 L30.2491771,16.9436557 L30.2491771,16.9436507 C32.420123,16.9293517 34.5369977,16.2649649 36.3267742,15.0361806 C36.3267742,15.0361806 36.3267742,15.0361806 36.3267742,15.0361806 C36.7379511,14.753884 37.608604,13.833786 38.938733,12.2758867 L38.938733,11.054332 L36.9781858,9.10672464 L35.0244242,7.97038367 L35.0244242,7.1038862 L32.9887627,7.97038367 L31.0468363,5.98916427 L23.9930325,5.98916427 L24.4872721,5.05938771 L25.0320088,5.05938771 L26.0766661,4.03524483 L45.9836999,4.03524483 L45.9836999,4.57508964 L47.0450843,4.57508964 L47.0450843,4.03524483 L47.9860649,4.03524483 L47.9860649,3.00794588 L47.0450843,3.00794588 L47.0450843,2.47946291 L45.9836999,2.47946291 L45.9836999,3.00794588 L26.0766661,3.00794588 L25.0320088,2.01268099 L23.9930325,1.1403448 L23.031064,1.1403448 L23.031064,1.54589907 L17.0484284,1.1403448 L17.0484284,1.09458287 L17.0484284,1.09458287 C17.0484284,0.542298125 16.6007132,0.0945828746 16.0484284,0.0945828746 L13.875638,0.0945828746 L13.875638,0.0945828746 C13.3233532,0.0945828746 12.875638,0.542298125 12.875638,1.09458287 L12.875638,1.54589907 L12.5530708,1.72637072 L12.5530708,1.72637072 C12.2370725,1.90316722 12.0413323,2.23697423 12.0413323,2.59906808 L12.0413323,3.48782547 L11.545689,3.75271327 L11.545689,3.75271327 C11.2202449,3.92664108 11.0170317,4.26565841 11.0170317,4.63466344 L11.0170317,5.98916427 L8.97994991,5.98916427 L8.97994991,5.98916427 L8.97994991,5.98916427 C8.97994991,5.47566286 8.56367477,5.05938771 8.05017335,5.05938771 L5.85434158,5.05938771 L5.85434158,5.05938771 C5.34084016,5.05938771 4.92456502,5.47566286 4.92456502,5.98916427 L4.92456502,5.98916427 Z"/>
</svg>
