<svg xmlns="http://www.w3.org/2000/svg" width="43" height="16" viewBox="0 0 43 16">
  <path fill="#FAB81B" fill-rule="evenodd" d="M16,5.23278809 L16,6.00976984 L16.3295898,6.00976984 L23.013916,7.99213989 L39.0266338,7.94304658 L43,7.94006234 L42.9970786,8.99049576 L39.0265243,8.99032505 L26.1618652,8.98806223 L34.9479924,11.0356348 L34.9178043,11.9595246 L31.383967,14.7427434 C30.5199436,15.4232406 28.9180696,15.9833222 27.8182113,15.9841673 L7.21222973,15.9999995 C6.66369526,16.000421 5.86107732,15.7182402 5.42646721,15.3697258 L0,11.018235 L0.313129007,9 L0,9 L0,8 L0.469498427,7.99213989 L1.28859485,7.3530948 L2.92605735,7.02846183 L3.23919831,6.47537116 L3.23919831,0.00650969398 L3.50474428,0 L3.50474428,6.93197235 L4.97277832,6.57019043 L4.97277832,4.40930176 L5.23040771,4.40930176 L5.23040771,6.57019043 L11.1855469,6.30639648 L11.9899211,6.93197235 L13.6394043,6.00976984 L14.9775391,6.00976984 L15,6.00976984 L15,5.11639404 L15,5 L20,5 L20,5.23278809 L16,5.23278809 Z M14,4.74418132 L15,4.74418132 L15,5.51668294 L14,5.51668294 L14,4.74418132 Z"/>
</svg>
