<svg xmlns="http://www.w3.org/2000/svg" width="36" height="19" viewBox="0 0 36 19">
  <path fill="#8C8C7C" fill-rule="evenodd" d="M13.9891357,5.02264598 L15.0473633,4.97607422 L15.9691162,4.02770996 L19.0180664,4.00219727 L20.060791,4.98608398 L21.9437256,4.95593262 L22.81604,5.98266602 L24.9981689,5.99621582 L25.9914551,7.00061035 L32.9884033,7.02233887 L32.9884033,8.05065918 L25.003418,8.01391602 L24.9736328,8.97741699 L26.0386963,8.99841309 L27.0754395,10.0130615 L29.0236816,9.92712402 L30.0152588,8.92858887 L29.9633789,9.98706055 L32.0672607,9.93505859 L35.0445557,12.0283203 L35.0043945,13.7183838 L31.5348105,16.7345659 C30.6994158,17.4607921 29.130891,18.0417989 28.0238558,18.0388501 L6.78165048,17.9822661 C6.22759554,17.9807902 5.39641161,17.7585189 4.91566613,17.485784 L3.27647254,16.555842 C2.7937494,16.2819851 2.13418142,15.7115361 1.79886899,15.2792025 L0,12.9598389 L0.10144043,10.9904785 L1.9621582,10.017334 L6.59020996,9.95556641 L8.38427734,9.0279541 L14.9818115,8.96154785 L12.9890137,6.97631836 L12.2025146,6.87927246 L12.0013428,6.05529785 L12.993042,5.93835449 L13.6270752,5.35473895 L13.6270752,0 L13.9891357,0 L13.9891357,5.02264598 Z"/>
</svg>
