<?xml version="1.0" encoding="UTF-8"?>
<!-- Generator: Adobe Illustrator 23.0.2, SVG Export Plug-In . SVG Version: 6.00 Build 0)  -->
<svg version="1.1" id="Layer_1" xmlns="http://www.w3.org/2000/svg" xmlns:xlink="http://www.w3.org/1999/xlink" x="0px" y="0px" width="46.9px" height="18.4px" viewBox="0 0 46.9 18.4" style="enable-background:new 0 0 46.9 18.4;" xml:space="preserve">
<style type="text/css">
	.st0{fill-rule:evenodd;clip-rule:evenodd;fill:#8C8C7C;}
</style>
<path class="st0" d="M0,10.9l1.6-0.6l0.3,0l0-0.2l0.3-0.1l0.1,0.3l2.3,0.1l1.1-0.2l2,0V9.7l0.2-0.2H5.8l0.6-3l2.9-0.1L4.1,0l5.5,6.1  h0.7V5.4h4.2v0.7l1,0.2V5l-1.9,0l-0.1-0.4l5.7-1.8v0.4l-3.4,1.6v1.5l0.4,0.1l0-0.5l0.6,0v0.6l3.4,0.6l0.1,0.3h5.5v0.6l18.6,0.3V8.1  h0.9l1.6-0.3V10l-1.6-0.3h-1V9.5L25.7,9.7V10l-2-0.3l-0.9,0.1h-2.4L20.2,10h4.9v0.5l4.7,0.9l0.1-0.2l1,0.1l0-0.4h1l0,0.5l1.5,0.2  l2,1.1l-0.1,0.3l-0.4-0.3l0,0.5l-0.3,0.8L34,14.6v0.7h-0.3v-0.6l-0.5,0.6l-4.6,3L28,18.4H5.9l-0.6-0.1l-4.2-2.7c0,0-1.1-1-1.1-1.1  c0-0.1,0-0.8,0-0.9C0,13.6,0.4,13,0.4,13L0,12.7v-1.2L0,10.9z"/>
</svg>