<?xml version="1.0" encoding="utf-8"?>
<!-- Generator: Adobe Illustrator 22.1.0, SVG Export Plug-In . SVG Version: 6.00 Build 0)  -->
<svg version="1.1" id="Layer_1" xmlns="http://www.w3.org/2000/svg" xmlns:xlink="http://www.w3.org/1999/xlink" x="0px" y="0px"
	 width="53.3px" height="17px" viewBox="0 0 53.3 17" style="enable-background:new 0 0 53.3 17;" xml:space="preserve">
<style type="text/css">
	.st0{fill-rule:evenodd;clip-rule:evenodd;fill:#8C8C7C;}
</style>
<path class="st0" d="M2.3,11.7L0,10.3l1.9-2.9l2,1L6.3,7l1,1l3-1l14,0l0-1l-4,0l0-2.1l0.4-0.5l-0.4-0.8l0-0.7l1-1l1.6,1l0.4,0l0-1
	l0-1l3.9,0l0,1l3.2,0l0-1l1,0l0,1l1,0l7,2l0.5,0.5l1.3,0L42.3,4l11,0.1l0,0.7l-11,0.2l-1.2,0.6l-1.2,0L39.3,6l-2,0l0,1h4l3,2l3,0
	l1,2l-1,1l0,1l-1,1l-6,2.9l-31,0l-7-4L2.3,11.7z"/>
</svg>
