<?xml version="1.0" encoding="utf-8"?>
<!-- Generator: Adobe Illustrator 22.1.0, SVG Export Plug-In . SVG Version: 6.00 Build 0)  -->
<svg version="1.1" id="Layer_1" xmlns="http://www.w3.org/2000/svg" xmlns:xlink="http://www.w3.org/1999/xlink" x="0px" y="0px"
	 width="22.5px" height="10.8px" viewBox="0 0 22.5 10.8" style="enable-background:new 0 0 22.5 10.8;" xml:space="preserve">
<style type="text/css">
	.st0{fill-rule:evenodd;clip-rule:evenodd;fill:#8C8C7C;}
</style>
<path class="st0" d="M1.8,6.8H0l0.5-0.5L1,5.9l1.8-0.1l0.5-0.7l1,0l0.6-0.4l0-0.9h1.7L7,1l1.9-0.2l0.9,0l0-0.8l0.8,0l0.1,0.7
	l0.4,0.2L12.2,1l0,0.3l1.2,0.1l0.1,0.3h1.9v0.4L20,2.2v0.3l-4.5,0.2v0.3h-2v0.3h-0.3V2.9h-0.4v0.9h1.4V3.4h0.8v0.4h0.5L18,5.7l0-0.8
	l0.6-0.1l0.1,0.9h1.5V5.4h0.4v0.4h0.2h0.8l0.9,0.7l-0.4,0.3l0.3,0.6l0.1,1l-0.6,0.9l-4.7,1.5H5.7l-3.9-1L1.1,9l-0.1-1l0.4-0.7
	L1.8,6.8z"/>
</svg>
