<?xml version="1.0" encoding="utf-8"?>
<!-- Generator: Adobe Illustrator 27.6.1, SVG Export Plug-In . SVG Version: 6.00 Build 0)  -->
<svg version="1.1" id="Layer_1" xmlns="http://www.w3.org/2000/svg" xmlns:xlink="http://www.w3.org/1999/xlink" x="0px" y="0px"
	 width="61.7px" height="15.3px" viewBox="0 0 61.7 15.3" style="enable-background:new 0 0 61.7 15.3;" xml:space="preserve">
<style type="text/css">
	.st0{fill-rule:evenodd;clip-rule:evenodd;fill:#FAB81B;}
</style>
<image style="display:none;overflow:visible;enable-background:new    ;" width="4096" height="4096" xlink:href="E:\Artmain\game\bin\tools\unifiededitor\win64\screenshots\R149_Object_268_4_02\11.07.2024 (1)\CameraPosition_ULTRA_4096x4096.png"  transform="matrix(1.608213e-02 0 0 1.608213e-02 -5.2258 -28.5704)">
</image>
<path class="st0" d="M20.5,0.5C20.5,0.5,20.6,0.5,20.5,0.5c0.1,0.1,0.1,0.2,0.1,0.3c0.5,0,1.1,0,1.6,0c0-0.1,0.1-0.1,0.2-0.1
	c0.2-0.1,0.4-0.1,0.5-0.3c0,0,0,0,0-0.1c0,0,0,0,0-0.1c0,0,0,0,0.1,0c0,0,0,0.1,0,0.1c0.2,0,0.4,0,0.6,0c0,0.1,0,0.2,0,0.2
	c0,0,0,0,0.1,0c0,0,0,0,0,0.1c0,0-0.1,0-0.1,0c0,0.1,0,0.2,0,0.3c0.2,0,0.4,0,0.5,0.1c0,0,0,0.3,0,0.3c0,0,0.1,0,0.1,0
	c0,0.1,0,0.2,0,0.2c0.1,0,0.2,0,0.2,0c0-0.1,0-0.2,0-0.3c0,0,0,0,0-0.1c0.2,0,0.4,0,0.6,0C25,1.1,25,1,25,0.9c0,0,0-0.1-0.1-0.1
	c0,0,0,0,0,0c0,0,0,0.1,0.1,0.1c0.1,0,0,0,0.1,0c0-0.1,0.1-0.1,0.1-0.2c0,0,0.1,0,0.1,0c0,0,0,0,0,0c0,0,0,0,0,0
	c0.1,0,0.3,0,0.5,0.1c0.1,0,0.2,0.1,0.2,0c0,0,0,0,0,0c0,0,0,0.1,0,0.1c0,0,0,0,0.1,0c0,0.2,0,0.4,0,0.6c0,0,0,0-0.1,0
	c0,0,0,0.1,0,0.1c0.3,0,0.6,0,1,0c0,0,0,0.1,0,0.1c0,0,0,0,0,0c0-0.1,0-0.1,0-0.2c0.1,0,0.6,0.2,0.7,0.2c0,0,0,0,0,0
	c0,0,0-0.1,0-0.1c0,0,0,0,0,0c0,0,0,0,0,0c0.2,0,0.4,0.2,0.6,0.2c0.1,0,0.2-0.1,0.4-0.1c0.3,0.1,0.6,0.3,0.8,0.4
	c0.2,0,0.8,0.2,0.9,0.3c0,0,0.1,0.1,0.1,0.1c0.1,0,0.2,0,0.3,0c0.4,0.1,1.1,0.2,1.4,0.5c0,0,0,0,0,0c0,0-0.1-0.1-0.1-0.1
	c0-0.1,0-0.1,0-0.2C32.2,2.8,32,2.7,32,2.6c0,0,0-0.2,0-0.3c0.3,0,0.5,0.2,0.8,0.3c0.1,0.1,0.3,0.2,0.4,0c0.1,0,0.3,0.1,0.5,0.2
	c0,0,0,0,0-0.1c0,0,0,0,0,0c0.1,0.1,0.1,0.1,0.2,0.1c0.3,0.2,0.6,0.3,1,0.5c0.2,0.1,0.3,0.2,0.5,0.2c0,0,0,0.1,0,0.1
	c1.5,0,3,0.1,4.5,0.1c0,0,0,0,0-0.1c0.1,0,0.2,0,0.3,0c0,0,0,0,0,0.1c2.3,0,4.7,0,7,0c0,0,0,0,0-0.1c0.1,0,0.2,0,0.3,0
	c0,0,0,0,0,0.1c2.4,0,4.9,0,7.4,0c0,0,0-0.1,0-0.2c0.1,0,0.2,0,0.2,0c0,0,0,0,0-0.1c0.1,0,0.2,0,0.3,0c0,0,0,0,0,0.1
	c1.3,0,2.6,0,3.9,0c0,0,0,0,0-0.1c0.1,0,0.2,0,0.2,0c0,0,0,0,0,0.1c0.1,0,0.2,0,0.3,0c0,0.1,0,0.2,0,0.2c0.2,0,0.5,0,0.7-0.1
	c0.4,0,0.8,0,1.2,0c0,0.4,0,0.8,0,1.1c-0.4,0-0.8,0-1.2,0c-0.2,0-0.5,0-0.7,0c0,0.1,0,0.1,0,0.2c-0.1,0-0.2,0-0.3,0c0,0,0,0,0,0.1
	c-0.1,0-0.2,0-0.2,0c0,0,0,0,0-0.1c-1.3,0-2.6,0-3.9,0c0,0,0,0,0,0.1c-0.1,0-0.2,0-0.3,0c0,0,0,0,0-0.1c-0.1,0-0.1,0-0.2,0
	c0,0,0-0.1,0-0.2c-2.5,0-4.9,0-7.4,0c0,0,0,0.1,0,0.1c-0.1,0-0.2,0-0.3,0c0,0,0,0,0-0.1c-2.4,0-4.7,0-7,0c0,0,0,0.1,0,0.1
	c-0.1,0-0.2,0-0.3,0c0,0,0,0,0-0.1c-1.5,0-3,0.1-4.5,0.1c0,0,0,0.1,0,0.1c-0.2,0-0.5,0-0.7,0c-0.1,0-0.2,0.1-0.3,0.2
	c-0.2,0.1-0.4,0.1-0.7,0.1c0-0.1,0-0.1,0.1-0.1c0,0,0,0,0,0c0,0-0.1,0-0.1,0c0,0,0,0,0,0c0,0,0.1,0,0.1-0.1c0,0,0,0,0,0c0,0,0,0,0,0
	c-0.3,0-0.6,0.1-0.9,0.2c-0.1,0-0.2,0.1-0.3,0.1c0,0.1,0,0.1,0,0.2c-0.1,0.1-0.2,0.1-0.3,0.2c-0.1,0-0.4,0-0.5,0c0,0,0,0.1,0,0.1
	c0.5,0,0.8-0.1,1.3-0.1c0,0.1,0,0.2,0,0.3c0.4,0.1,0.8,0.3,1.2,0.3c0,0,0-0.1,0-0.1c0.2,0,0.4,0.1,0.6,0.2c0.2,0.1,0.4,0.1,0.6,0.2
	C36,6.9,36.3,7,36.6,7.1c0.1,0,0.2-0.1,0.3-0.1c0.1,0,0.2,0,0.2,0c0.1,0,0.2,0,0.2,0c0-0.2,0.1-0.1,0.2-0.2c0,0,0-0.1,0-0.1
	c0,0,0,0,0.1-0.1c0,0,0,0,0.1,0c0-0.1,0-0.1,0.1-0.1c0.1,0,0.1,0,0.2,0c0,0,0,0,0.1,0c0,0,0,0,0,0.1c0.4,0,0.8,0,1.2,0
	c0,0,0-0.1,0-0.2c0.1,0,0.2,0,0.3,0c0,0,0,0.1,0.1,0.1c0,0,0.1-0.1,0.2-0.1c0,0.3,0.1,0.5,0,0.8c0,0.1,0,0.3,0,0.4
	c-0.2,0-0.3,0-0.5,0c0,0.1,0,0.2,0,0.2C39.1,8,39.2,8,39.3,8c0,0.1,0,0.2-0.1,0.2c0.2,0.1,0.5,0.2,0.7,0.2c0,0,0,0.1,0,0.1
	c-0.2,0.2-0.4,0.4-0.6,0.6c-0.1,0.2-0.3,0.4-0.5,0.5c0,0.1,0.1,0.2,0.2,0.3c0,0-0.1,0.4-0.1,0.5c0,0.1,0,0.2,0,0.3
	c0,0.1,0,0.2,0,0.4c-0.3,0.1-0.3,0.4-0.4,0.7c-0.1,0.1-0.1,0.1-0.2,0.2c0,0,0,0,0,0c-0.3,0.1-0.4,0.5-0.6,0.6c0,0-0.1,0-0.1,0
	c-0.1,0.1-0.2,0.1-0.2,0.2c-0.1,0.2-0.2,0.3-0.4,0.4c0,0-0.1,0-0.1,0c0,0.1-0.1,0.1-0.2,0.1c-0.1,0.1-0.2,0.2-0.2,0.3
	c-0.1,0.1-0.2,0.1-0.2,0.2c-0.1,0-0.1,0-0.1,0c0,0-0.1,0-0.2,0.1c-0.2,0.1-0.2,0.3-0.5,0.4c0,0,0,0,0,0c-0.3,0-0.3,0.3-0.5,0.4
	c-0.1,0.1-0.1,0.1-0.2,0.1c-0.1,0-0.1,0-0.1-0.1c-0.3,0.1-0.4,0.2-0.5,0.3c-0.1,0.1-0.1,0.1-0.2,0.1c-0.1,0-0.1,0-0.1,0
	c-0.1,0-0.2,0-0.3,0.1c-0.2,0.1-0.3,0.3-0.5,0.3c-0.1,0-0.1,0-0.1-0.1c0,0-0.3,0-0.3,0c-0.2,0-0.4,0.2-0.6,0.1
	c-0.1,0-0.1-0.1-0.1-0.1c-0.1,0-0.5,0.1-0.5,0.1c-0.2,0-0.4,0.1-0.4-0.1c-0.2,0-0.3,0.1-0.4,0.1c-0.2,0-0.3,0-0.4,0c0,0,0,0,0,0
	c0,0,0,0,0,0c-0.1,0-0.3,0-0.4,0.1c-0.1,0-0.3,0-0.4,0c0,0,0,0,0-0.1c-0.1,0-0.3,0-0.5,0.1c-0.1,0-0.3,0-0.4,0c0,0,0,0,0-0.1
	c-0.2,0-0.3,0-0.5,0.1c-0.2,0-0.4,0-0.4-0.1c-0.1,0-0.3,0-0.4,0.1c-0.2,0-0.4,0.1-0.4-0.1c-0.1,0-0.3,0-0.4,0.1
	c-0.2,0-0.4,0.1-0.4-0.1c-0.1,0-0.3,0-0.4,0.1c-0.2,0-0.4,0.1-0.4-0.1c-0.2,0-0.3,0.1-0.5,0.1c-0.1,0-0.3,0-0.4,0c0,0,0,0,0,0
	c0,0,0,0,0,0c-0.1,0-0.3,0-0.4,0.1c-0.1,0-0.3,0-0.4,0c0,0,0,0,0-0.1c-0.1,0-0.3,0-0.4,0.1c-0.1,0-0.3,0-0.4,0c0,0,0,0,0-0.1
	c-0.2,0-0.3,0-0.5,0.1c-0.2,0-0.4,0-0.4-0.1c-0.1,0-0.3,0-0.4,0.1c-0.2,0-0.4,0.1-0.4-0.1c-0.1,0-0.3,0-0.5,0.1
	c-0.2,0-0.4,0.1-0.4-0.1c-0.1,0-0.3,0-0.4,0.1c-0.2,0-0.4,0.1-0.4-0.1c-0.2,0-0.3,0.1-0.4,0.1c-0.1,0-0.3,0-0.4,0c0,0,0,0,0,0
	c0,0,0,0,0,0c-0.2,0-0.3,0.1-0.5,0.1c-0.1,0-0.3,0-0.4,0c0,0,0,0,0,0c0,0,0,0,0,0c-0.1,0-0.4,0-0.5,0.1c-0.1,0-0.3,0-0.4,0
	c0,0,0,0,0-0.1c-0.1,0-0.3,0-0.4,0.1c-0.2,0-0.4,0-0.4-0.1c-0.1,0-0.3,0-0.4,0.1c-0.2,0-0.4,0.1-0.4-0.1c-0.1,0-0.3,0-0.5,0.1
	c-0.2,0-0.4,0.1-0.4-0.1c-0.1,0-0.3,0-0.5,0.1c-0.2,0-0.4,0.1-0.4-0.1c-0.2,0-0.3,0.1-0.4,0.1c-0.1,0-0.3,0-0.4,0c0,0,0,0,0,0
	c0,0,0,0,0,0c-0.2,0-0.3,0.1-0.4,0.1c-0.1,0-0.3,0-0.4,0c0,0,0,0,0,0c0,0,0,0,0,0c-0.2,0-0.3,0.1-0.5,0.1c-0.1,0-0.1,0-0.2,0
	c0,0,0,0,0-0.1c-0.1,0-0.3-0.1-0.5-0.1c-0.1,0-0.4,0.1-0.5,0.1c0,0,0,0,0-0.1c0,0-0.1-0.1-0.1-0.1c-0.1,0-0.4,0-0.5,0
	c-0.1,0-0.2,0-0.3-0.1c0,0,0,0,0,0c0,0,0,0,0,0c0,0,0-0.1,0-0.1C9.1,15,9,14.9,9,14.9c-0.2,0-0.3,0-0.4,0c-0.1,0-0.1,0-0.2-0.1
	c0,0,0-0.1,0-0.1c-0.1,0-0.1-0.1-0.2-0.1c-0.2-0.1-0.4,0-0.6-0.2c-0.1,0,0,0,0-0.1c0,0-0.2-0.1-0.2-0.1c-0.2-0.1-0.5-0.1-0.6-0.2
	c0,0,0-0.1,0-0.1c-0.1-0.2-0.6-0.2-0.7-0.4c0,0,0,0,0,0c0-0.3-0.6-0.4-0.7-0.5c0,0,0,0,0-0.1c-0.1-0.1-0.2-0.2-0.3-0.2
	c-0.1,0-0.2,0-0.3-0.1c0,0-0.2-0.1-0.2-0.2c0,0,0-0.1,0-0.2c-0.1-0.1-0.2-0.1-0.2-0.2c0,0,0,0-0.1,0c-0.2,0-0.1,0-0.1-0.1
	C4.1,12,4,12,4,11.9c-0.1-0.1,0-0.1,0-0.2c0-0.1-0.1-0.3-0.1-0.3c0,0-0.1-0.1-0.2-0.1c0-0.1,0-0.1,0-0.2c0-0.1-0.1-0.2-0.1-0.3
	c0,0,0-0.1,0.1-0.1c0,0,0-0.2,0.1-0.3c0-0.1-0.1-0.1-0.1-0.2c0,0,0-0.1,0-0.1c0,0,0.1,0,0.1,0c0-0.1,0-0.3,0.1-0.4c0,0,0,0,0,0
	c0,0,0,0,0,0c0,0.1-0.1,0.1-0.1,0.1c0,0,0,0,0,0C3.6,9.8,3.5,9.7,3.5,9.6c-0.1,0-0.1,0-0.2,0c0,0.1,0,0.1,0,0.2c0,0.2,0,0.4,0,0.5
	c-0.1,0-0.2,0-0.3-0.1c0,0,0,0,0,0c0,0.2,0,0.5-0.1,0.6c0,0-0.1,0-0.1,0c-0.1-0.1,0-0.3,0-0.5c-0.1,0-0.2,0-0.2,0c0-0.2,0-0.4,0-0.7
	c-0.1,0-0.1,0-0.1-0.1c0,0,0-0.4,0-0.4c0-0.2-0.1-0.3-0.2-0.4C2,8.5,1.7,8.3,1.3,8.1c0,0,0-0.1,0-0.2c0-0.2-0.2-0.3-0.4-0.4
	C0.8,7.5,0.7,7.3,0.5,7.2C0.3,7.1,0.2,7,0.1,6.9C0,6.8,0.1,6.7,0,6.6c0-0.1,0-0.2,0.1-0.2c0,0,0.2,0.1,0.3,0.1
	c0.2,0.1,0.3,0.2,0.5,0.3C1,6.8,1.1,6.8,1.2,6.9c0,0,0,0,0,0c0-0.1-0.2-0.4-0.1-0.5c0,0,0,0,0,0c0,0,0,0,0,0c0,0.1,0.1,0.1,0.2,0.2
	c0,0,0,0,0,0c0,0,0,0,0,0c0-0.1,0-0.2,0.1-0.2c-0.1,0-0.1-0.1-0.2-0.1c0,0,0-0.1,0-0.1c0.1,0,0.1,0.1,0.2,0.1c0,0,0,0,0,0
	c0-0.1,0.1-0.3,0.2-0.4c0,0,0,0,0,0c0.1,0.1,0,0.3,0.1,0.5c0,0.1,0.1,0.2,0.2,0.3C2,6.7,2.1,6.8,2.2,6.9c0,0,0-0.1,0.1-0.2
	c0,0,0,0,0,0c0.1,0.2,0.3,0.4,0.5,0.5c0,0,0.2-0.1,0.3-0.1c0.2-0.1,0.4-0.1,0.6-0.2c0,0,0-0.1,0-0.1c0.1-0.1,0.2-0.1,0.3-0.1
	c0.2-0.1,0.4-0.2,0.6-0.3c0,0,0.1,0,0.1,0C4.8,6.2,5,6.1,5.2,6.1c0-0.1,0-0.1,0-0.3c0,0,0.1,0,0.1,0c0,0,0,0,0,0
	c0.1,0,0.2,0,0.3,0.1c0,0,0,0.1,0,0.1C5.9,6,6.2,6,6.2,5.9c0.1,0,0.2-0.1,0.3-0.1c0,0,0-0.1,0-0.1c0.3,0,0.6,0,0.7,0.3
	c0.2,0,0.1,0,0.2-0.2c0-0.1,0.2-0.1,0.3-0.2c0,0,0,0,0,0c0,0-0.1,0-0.1-0.1c0,0,0,0,0,0c0,0,0,0,0,0c0,0,0.1,0,0.2,0
	c0,0,0.2,0.1,0.3,0c0,0,0,0,0-0.1c0,0,0.1,0,0.1,0c0.2,0,0.5,0,0.6,0.1c0.1,0,0.2,0,0.3,0c0,0,0,0,0-0.1c0,0,0.1,0,0.1,0
	c0,0,0,0,0,0c0,0,0,0,0.1,0c0,0.1,0,0.1-0.1,0.1c0,0,0,0,0.1,0c0,0.1,0,0-0.1,0c0.1,0.1,0.5,0,0.7,0c0.2,0,0.4,0,0.6,0
	c0.4,0.1,1,0,1.4,0c0,0-0.1,0-0.1-0.1c0.1,0,0.1,0,0.2,0c0,0,0,0,0,0c0,0.1,0,0.1,0,0.1c0.1,0.1,0.5,0,0.8,0c0.1,0,0.2,0,0.2,0
	c0.2,0,0.5-0.1,0.5,0.1c0.1,0,0.2,0,0.2-0.1c0,0,0,0,0-0.1c0.3,0,0.4,0,0.7,0c0,0,0,0.1,0,0.1c0,0,0.1,0,0.1,0c0,0,0,0.1,0,0.1
	c0,0,0,0,0-0.1c0.1,0,0.1,0.1,0.1,0.1c0.2,0,0.3,0,0.5,0c0,0,0,0,0,0c0,0,0.1,0,0.1,0c0,0,0,0,0,0.1c0,0,0,0,0,0c0.1,0,0.2,0,0.3,0
	c0,0,0,0,0,0.1c0.3,0,0.7,0,1,0c0,0,0-0.1,0-0.1c-0.5,0-0.8,0.1-1-0.2c0,0,0-0.1,0-0.1c0-0.2,0-0.2,0.1-0.3c-0.1,0-0.1-0.1-0.1-0.2
	C15.9,5,16,4.8,16.2,4.6c0,0,0,0,0.1,0c0,0,0-0.1,0-0.1c0,0,0.1-0.2,0.2-0.2c0,0,0.1,0,0.1,0C16.7,4,17,3.8,17.2,3.6
	c0.5-0.5,1.1-1,1.7-1.5c0.2-0.1,0.6-0.5,0.9-0.5c0,0,0-0.1,0-0.1c0,0,0,0,0.1,0c0-0.1,0-0.1,0-0.2c0,0,0.1,0,0.1,0
	c0-0.1-0.1-0.1-0.1-0.1c0,0,0.1-0.1,0.1-0.2c0.1-0.1,0.2-0.1,0.3-0.1c0-0.3,0.1-0.5,0.1-0.9c0,0,0.1,0,0.1,0
	C20.5,0.2,20.5,0.3,20.5,0.5z M36.7,12c-0.1,0-0.4,0.3-0.4,0.4c-0.4,0-0.9,0-1.3,0c-0.1,0-0.1,0.1-0.1,0.2c-0.1,0.1-0.2,0.3-0.4,0.4
	c0,0.3-0.1,1-0.3,1.1c0,0,0,0,0,0c0.1,0,0.3-0.1,0.4-0.2c0-0.1-0.1-0.3-0.1-0.4c0,0,0-0.1,0.1-0.1c0.2,0,0.2,0.2,0.3,0.3
	c0,0,0.4-0.2,0.4-0.2c0-0.2-0.1-0.3-0.2-0.4c0,0,0.1,0,0.1-0.1c0,0,0,0,0,0c0,0,0,0,0,0c0.1,0.1,0.2,0.2,0.3,0.3
	c0,0,0.4-0.2,0.4-0.3c0-0.1-0.1-0.3-0.2-0.4c0,0,0.1,0,0.1-0.1c0.1,0,0.3,0.2,0.3,0.3c0.1,0,0.4-0.2,0.4-0.3c0,0-0.2-0.3-0.2-0.4
	C36.7,12.1,36.7,12.1,36.7,12C36.8,12.1,36.8,12.1,36.7,12C36.8,12.1,36.8,12.1,36.7,12c0.2,0.1,0.3,0.3,0.4,0.3c0,0,0,0,0,0
	c0,0,0,0,0,0c0.1-0.1,0.3-0.2,0.4-0.3c0,0,0,0,0,0c0,0-0.1,0-0.1-0.1C37.4,12,36.9,12.1,36.7,12z M12.5,12.4c0.3,0.7,0,1.7-0.5,2.1
	c-0.1,0.1-0.2,0.2-0.4,0.3c0,0,0,0.1,0,0.1c0,0,0,0,0,0c0.1,0,0.3,0,0.4,0c0-0.1,0-0.3,0.1-0.4c0.1,0,0.2,0,0.3,0
	c0,0.1,0.1,0.3,0.1,0.4c0.1,0,0.3,0,0.4,0c0-0.1,0.1-0.3,0.1-0.4c0.1,0,0.2,0,0.3,0c0,0.1,0.1,0.3,0.1,0.4c0,0,0,0,0,0c0,0,0,0,0,0
	c0.1,0,0.3,0,0.4,0c0,0,0,0,0,0c-0.5-0.2-0.8-0.6-1-1.2c0-0.1-0.1-0.3-0.1-0.5c0-0.1,0-0.2,0-0.3c0-0.1,0.1-0.2,0.1-0.3
	C12.7,12.4,12.6,12.4,12.5,12.4z M6.2,12.6C6.1,12.7,6.1,12.9,6,13c0,0.1,0.3,0.2,0.4,0.3c0.2,0,0.2-0.2,0.4-0.3c0,0,0.1,0,0.1,0.1
	c0,0.1-0.1,0.3-0.1,0.4c0,0.1,0.3,0.2,0.4,0.2c0,0,0,0,0,0c0.1-0.1,0.2-0.2,0.3-0.3c0,0,0.1,0,0.2,0.1c0,0.1,0,0.3-0.1,0.4
	c0,0.1,0.3,0.2,0.4,0.2c0,0,0,0,0.1,0c0,0,0,0,0,0C8,14,8,13.9,8.1,13.9c0,0,0.1,0,0.1-0.1c0,0,0.1,0,0.1,0c0,0,0,0,0,0c0,0,0,0,0,0
	c0,0.1,0,0.3-0.1,0.4c0.1,0.1,0.3,0.1,0.4,0.2c0,0,0,0,0-0.1c-0.2-0.2-0.3-0.5-0.4-0.9c0-0.1-0.1-0.3-0.1-0.4c0-0.2-0.1-0.1-0.1-0.2
	c-0.1-0.1-0.2-0.3-0.3-0.5C7.2,12.4,6.6,12.4,6.2,12.6z M26,14.8C26,14.8,26,14.8,26,14.8C26,14.8,26,14.8,26,14.8
	c0.1,0,0.3,0,0.4,0c0-0.1,0-0.2,0.1-0.3c0-0.2-0.2-0.3-0.3-0.4c-0.1-0.2-0.2-0.4-0.3-0.7c0-0.1-0.1-0.3,0-0.4c0,0,0-0.1,0-0.1
	c-0.1,0-0.1,0-0.1,0c0,0.5-0.1,0.9-0.3,1.2c0,0.1-0.1,0.1-0.2,0.2c-0.1,0.1-0.1,0.2-0.3,0.3c0,0.1,0,0.2,0,0.3c0.1,0,0.3,0,0.4,0
	c0-0.1,0-0.3,0.1-0.4c0,0,0,0,0,0c0,0,0,0,0,0c0.1,0,0.2,0,0.3,0C25.9,14.6,26,14.7,26,14.8z M18,14.7c-0.1-0.1-0.2-0.1-0.2-0.2
	c-0.3-0.2-0.5-0.6-0.6-1c0-0.1-0.1-0.4-0.1-0.5c0,0,0-0.1,0-0.1c0,0,0,0,0,0c0,0,0,0,0,0c-0.1,0.1,0,0.4-0.1,0.5
	c-0.1,0.4-0.2,0.8-0.5,0.9c0,0,0,0,0.1,0c0,0.1,0.1,0.3,0.1,0.4c0.1,0,0.3,0,0.4,0c0-0.1,0-0.3,0.1-0.4c0.1,0,0.2,0,0.2,0
	c0.1,0.1,0.1,0.3,0.1,0.4c0,0,0,0,0,0c0,0,0,0,0,0c0.1,0,0.3,0,0.4,0C17.9,14.8,18,14.7,18,14.7z M30.2,13c0,0.1,0,0.1,0,0.2
	C30.2,13.1,30.2,13,30.2,13C30.2,13,30.2,13,30.2,13z M22.2,14.7c0-0.2-0.3-0.3-0.4-0.4c-0.1-0.1-0.2-0.3-0.3-0.5
	c0-0.1,0-0.3-0.1-0.4c0-0.1,0-0.3,0-0.5c-0.1,0.1,0,0.4-0.1,0.6c-0.1,0.3-0.4,0.9-0.6,0.9c0,0.1,0,0.3,0.1,0.4c0.1,0,0.3,0,0.4,0
	c0-0.1,0-0.3,0.1-0.4c0,0,0,0,0,0c0.1,0,0.2,0,0.3,0c0,0.1,0.1,0.3,0.1,0.4c0,0,0,0,0,0c0,0,0,0,0,0c0.1,0,0.3,0,0.4,0
	C22.2,14.8,22.2,14.7,22.2,14.7z M30.7,14.4c-0.2-0.4-0.5-0.6-0.5-1.2c0,0.1,0,0.1,0,0.2c0,0.1-0.1,0.3-0.1,0.4
	c-0.1,0.3-0.5,0.7-0.7,0.9c0,0.1,0,0.1,0,0.2c0.1,0,0.3,0,0.4,0c0-0.1,0-0.3,0.1-0.4c0.1,0,0.2,0,0.3,0c0,0.1,0.1,0.3,0.1,0.4
	c0,0,0,0,0,0c0,0,0,0,0,0c0.1,0,0.3,0,0.4,0C30.6,14.7,30.7,14.6,30.7,14.4C30.7,14.4,30.7,14.4,30.7,14.4z"/>
</svg>
