<?xml version="1.0" encoding="utf-8"?>
<!-- Generator: Adobe Illustrator 27.2.0, SVG Export Plug-In . SVG Version: 6.00 Build 0)  -->
<svg version="1.1" id="Layer_1" xmlns="http://www.w3.org/2000/svg" xmlns:xlink="http://www.w3.org/1999/xlink" x="0px" y="0px"
	 width="43.9px" height="22px" viewBox="0 0 43.9 22" style="enable-background:new 0 0 43.9 22;" xml:space="preserve">
<style type="text/css">
	.st0{display:none;fill-rule:evenodd;clip-rule:evenodd;fill:#FAB81B;}
	.st1{display:none;}
	.st2{display:inline;}
	.st3{fill-rule:evenodd;clip-rule:evenodd;fill:#FAB81B;}
	.st4{fill-rule:evenodd;clip-rule:evenodd;fill:#8C8C7C;}
	.st5{fill-rule:evenodd;clip-rule:evenodd;fill:#F8B71A;}
</style>
<path class="st0" d="M0.8,11.2l0.9-0.1l-1.3-1H2l2.1,1h8.3v-1H8.3L8.8,9L8,8.6L8.2,8L7.3,8.2L6.8,7.8V6L6.4,5.2l0.5-0.5l1.5,0.4
	l2-0.2v-1H8.3l0.3-0.8l-0.3-1L11.1,2v3l0.8-0.6L12,1.1l0.1,4h0.6l0.5,0.5l0.4,0.3l1-0.3h0.9V4.1h4.9c0.1,0.1,0,1.9,0,1.9l2.2-0.1
	v0.5l1.1,0.4l0.8-0.7l0.3,0.7l0.6,0.3v-1c0,0,1-0.2,1,0s0,1.2,0,1.2l1.3,0.5l-0.4-0.6c0,0,0.4-0.8,0.5-0.7c0.2,0.1,2,0.9,2,0.9
	l2.6,0.1h3v0.3l10,0.2v0.9l-10,0.3v0.4h-2.8l-2.9,0.5l-2.3,0.2L26.9,11l4.7-0.3l0.2,0.1h0.6h0.5L33,11l1.4,1.1v-0.9h1v1.2
	c0,0,1.8,1.1,2,1.1s1-0.5,1-0.5l2,0.3v1.3l-1.3,1.2l1,1.2l-0.5,0.5L38.8,17l-0.4,0.1l1.1,0.8l-0.4,0.6L38,17.6l-0.4,0.3l1.1,0.8
	l-0.4,0.4l-2,0.2l-3.8,2l-2.1,0.8H10.8L9,21.4l-5.1-1.6c0,0-0.7-2-0.8-2.1c-0.1,0-1.6-1.3-1.6-1.3l0.6-0.3l-0.6-1l-0.9,0.1l-0.1-2.1
	h1.2l0.8,1L3,13.7l-0.5-0.8l-1.1-0.2l-1-0.5L0.8,11.2z"/>
<g class="st1">
	<g class="st2">
		<path class="st3" d="M43,8.8c0,0-5.4-0.1-5.6-0.2c-0.9,0-1.8,0-2.6,0c-0.2-0.2-0.4-0.5-0.7-0.7c-1.1,0-2.2,0-3.3,0
			c0-0.2,0-0.6-0.1-0.8c-0.1-0.1-0.8-0.3-0.9-0.4c-0.4-0.1-0.8,0.1-1-0.1c-0.2,0-0.2,0.1-0.4,0.1c0,0.1,0,0.1,0,0.2
			c-0.6,0-1.2-0.1-1.8-0.1c0,0,0-0.1,0-0.1c-0.1,0-0.1,0-0.2,0c0-0.1,0-0.1,0-0.2c0,0-0.1,0-0.1,0c-0.1-0.1,0-0.3,0-0.4
			c0-0.1-0.1-0.1-0.1-0.2c-0.2,0-0.4,0-0.5,0.1c-0.1,0.1-0.2,0.5-0.2,0.7c-0.2,0-0.6,0-0.7-0.1c-0.1,0-0.3,0-0.4,0
			c0-0.1,0,0,0.1-0.1c0,0,0-0.1,0-0.1c-0.1,0-0.2-0.1-0.3-0.1c0,0,0,0.1-0.1,0.1c-0.1,0-0.2-0.1-0.4-0.1c0,0-2.3-0.2-2.4-0.2
			c0,0,0,0.1,0,0.1L21,6.4c-0.2,0-2.3-0.2-2.5-0.2c0-0.1-0.1-0.1-0.1-0.2C18.3,6,18,5.9,18,5.9c-0.2,0-0.3,0-0.5,0.1
			c0,0,0-0.1,0-0.1c0,0-0.1,0-0.1,0c0,0-0.1,0-0.1,0.1c-0.1,0-0.6-0.1-0.7-0.1c-0.1,0,0,0.1-0.2,0.1c0,0,0-0.1-0.1-0.1
			c-0.3,0-0.5,0-0.8,0.1c0,0,0,0.1,0,0.1c-0.1,0-1.1-0.1-1.2-0.1c0,0-0.1,0-0.1,0c0-2.3,0-4.6,0-6.9c0,0,0,0-0.1,0
			c-0.2,0.5-0.1,1.5-0.1,2.1c0,1.6,0,3.2,0,4.7c-0.1,0-0.3,0-0.3,0.1c-0.2,0.2-0.2,0.6-0.3,0.8c-0.1,0.2,0,0-0.2,0.1
			c-0.1,0.1-0.1,0.2-0.2,0.3c0,0.2,0,0.2,0.2,0.2c-0.1,0.2-0.1,0.4-0.2,0.6c-0.2,0-0.2,0-0.3,0.1c0,0,0,0-0.1,0c0.1,0.1,0,0,0.2,0
			c0,0.3,0,0.5-0.1,0.8c-0.1,0-0.1,0-0.2,0.1c0,0.1,0,0.1,0.1,0.2c0,0.1-0.4,0.8-0.4,1.1c-0.1,0-0.1,0-0.2-0.1
			c0,0.1-0.1,0.2-0.2,0.3c0,0.3,0,0.2,0.2,0.2c-0.1,0.3-0.3,1-0.5,1.3c-0.1,0.1,0,0-0.2,0.1c0-0.2,0-0.4,0-0.6c0.1,0,0.1,0,0.2,0.1
			c0-0.1-0.1-0.1-0.1-0.2c-1.3,0-2.5,0-3.8,0c0-0.1,0-0.1-0.1-0.2c-0.2,0-0.4,0-0.5,0C7,10.4,6.7,9.7,6.5,9.1c0-0.6,0-1.1,0-1.7
			c0.2,0,0.3,0,0.4-0.1c0-0.1,0-0.3,0-0.4c-0.1,0-0.1,0-0.2-0.1c0,0,0,0-0.1,0c0,0,0,0,0-0.1C7,6.7,7.8,6.9,8.2,6.6c0-0.1,0,0,0-0.1
			c0-0.1,0-0.1,0-0.2C8.4,6.4,9,6.6,9.3,6.5c0.2-0.1,0.3-0.3,0.4-0.3c0.2,0,0.4,0,0.6,0c0-0.5,0-0.9-0.1-1.3c-0.1,0-0.1,0-0.2,0
			c0,0.1,0,0.1,0,0.2c0,0-0.1,0-0.1,0c0-0.3,0.2-0.4-0.1-0.5c0-0.1,0-0.3,0-0.4c0,0,0.1,0,0.1,0.1c0-0.1,0-0.2,0-0.3
			c-0.1,0-0.1,0-0.2,0c0,0,0,0.1-0.1,0.1c0,0,0,0-0.1,0c0,0,0,0,0,0.1c0,0,0,0,0.1,0c0,0.5,0,1,0,1.5c0,0,0,0-0.1,0
			C9.6,5.4,9.4,5.3,9.3,5.3C9.2,4.8,9.2,4.5,8.9,4.1c-0.2,0-0.2,0.1-0.3,0.1C8.5,4.1,8.4,3.9,8.3,3.8c-0.1-0.1-0.1,0-0.2-0.1
			c0,0,0,0-0.1,0c0.1,0.1,0.1,0.2,0.2,0.2c0,0,0,0.1,0,0.1C8.1,4,8,4,7.9,3.9c0,0-0.1,0-0.1,0c0-0.4,0.1-0.8,0.1-1.2
			c-0.4,0-0.9,0-1.3-0.1c-0.2,0.6,0,1.4-0.5,1.8C5.8,4.7,4.7,3.9,4.4,4C3.9,4.1,3.5,3.7,3.1,3.7c-0.1,0-1-0.2-1.3-0.3
			C0.7,3-0.8,2.7-1.8,2.1c-0.1,0.1-0.1,0.1-0.2,0.2c0,0.1,0,0.2,0.1,0.3c1.1,0,1.7,0.6,2.6,0.7c0,0.1,0,0.1-0.1,0.1
			c0,0.1,0,0,0.1,0.1c0.2,0.2,0.7,0.1,0.9,0.3c0.1,0,0.1,0,0.2,0c0,0,0-0.1,0-0.1c-0.2,0-0.3-0.1-0.4-0.2c0,0,0,0-0.1,0
			c0,0,0,0,0-0.1c0.4,0.2,1.2,0.5,1.6,0.5C2.8,4,2.6,4,2.5,3.9c-0.1,0-0.1,0-0.2,0c0,0,0,0.1,0,0.1c0.1,0,0.2,0,0.3,0.1
			c0,0.1,0,0.1,0,0.2c0.4,0.2,0.8,0.3,1.3,0.3C4,4.9,4.1,4.7,4.3,4.8c0.1,0,0,0.1,0.1,0.2c0.1,0.6,0.1,1.2,0.2,1.9
			c0.1,0.3,0.2,0.4,0.2,0.8c0,0,0.1,0,0.1,0C5,7.6,5,7.5,5,7.4c0.1,0,0.3,0,0.4,0c0,0.6,0,1.1,0,1.7c-0.2,0.6-0.5,1.4-0.6,2.1
			c-0.2,0-0.4,0-0.6,0c0,0.2,0,0.2-0.2,0.2c0.1,0.2,0,0.1,0.2,0.1c0,0.2,0,0.4,0,0.6c-0.3,0-0.2-0.1-0.3-0.2c0,0-0.1,0-0.1,0
			c0,0-0.1,0.1-0.2,0.1c-0.1,0-0.2,0-0.3-0.1l-0.1,0.1c0,0,0,0.1,0,0.1c-0.1,0-0.3,0-0.4,0c0,0.3,0,0.4,0,0.6c0,0-0.1,0-0.1,0
			c0-0.1,0-0.2-0.1-0.2c-0.1-0.1-0.3-0.2-0.3-0.3c-0.5,0-0.6,0.1-0.8,0.3c-0.1,0.3-0.2,0.9-0.1,1.1c0,0.2,0.2,0.4,0.4,0.4
			c0.2,0.2,0.7,0,1-0.1c0,0.1,0,0.2,0,0.3C2,14.2,1.4,14.4,1,14.7c-0.1,0.1-0.1,0.2-0.2,0.2c0,0.1,0,0.1,0.1,0.2
			c0.1,0.2,1.2,0.8,1.4,1c0,0,0.1,0,0.1,0.1c0,0-0.1,0.3-0.1,0.3c0,0.2,0,0.4,0,0.7c0,0.1-0.2,0.2-0.3,0.3c0,0.4,0.1,0.2,0.2,0.4
			c0.1,0.2-0.1,0.5,0.1,0.7c0.1,0.1,0,0,0.2,0.1c0-0.2,0-0.4,0-0.7c0,0,0.1,0,0.1,0c0.5,1,5.3,3.3,6,3.5c6,0,11.9,0,17.9,0
			c1.7,0,3.4,0,5.2,0c1.1,0,2.2,0.1,3-0.2c0.5-0.2,5.1-2.3,5.5-2.9c0.2-0.3,0.7-1.5,0.3-2c0-0.5,0.6-0.7,0.8-1.2
			c-0.4-0.2-0.8-0.6-1.3-0.8c-0.2-0.1-0.6-0.2-0.9-0.2c-0.3,0-0.6,0-0.9,0c-0.1,0-0.2-0.2-0.4-0.2c0-0.2,0-0.4,0-0.5
			c-0.2,0-0.2,0-0.3,0.1c0,0.1,0,0.2-0.1,0.3c-0.5,0-0.6-0.1-0.9-0.2c0-0.1,0-0.1-0.1-0.2c-0.1,0-0.1,0-0.2-0.1c0,0,0,0-0.1,0
			c0,0,0,0,0-0.1c0.1,0,0.1,0,0.2,0c0-0.1,0-0.1,0-0.2c-0.2-0.1-0.3,0-0.5,0c0.1-0.2,0.2-0.4,0.4-0.4c0-0.1-0.2-0.4-0.2-0.4
			c-0.2-0.2-0.4-0.3-0.7-0.4c-0.1,0-0.1,0-0.2,0c0,0,0.1,0.2,0.1,0.2c-0.1,0.1-0.1,0.1-0.2,0.2c0.1,0.2,0,0.3,0,0.5
			c-0.5-0.1-0.6-0.4-1-0.5c0-0.2,0-0.3,0-0.5c-0.2,0-0.4,0-0.6,0c0,0.1,0,0.3,0,0.4c-0.1,0-0.2-0.1-0.3-0.1c-0.1,0-0.7,0.1-0.7,0.1
			c0-0.1,0-0.1-0.1-0.2c-0.2-0.1-0.4,0.1-0.4,0.2l-0.1-0.1c-0.3,0-0.7,0-0.8,0.2c-0.1,0-0.1,0-0.2,0c0.3-0.4,0.1-0.4,0-0.8
			c1.9,0,3.7,0,5.6,0c0.1-0.1,0.3-0.4,0.5-0.5c0-0.1-0.1-0.2-0.2-0.2c0,0,0-0.1,0-0.1c0.7,0,6.3-0.3,6.3-0.3S55.6,10,56,10
			c0-0.4,0-0.7,0-1.1C55.2,9,43,8.8,43,8.8z M10,5.4C10,5.4,10,5.4,10,5.4C10,5.4,10,5.4,10,5.5c0,0,0,0-0.1,0C10,5.4,10,5.4,10,5.4
			z M8.4,5.2c-0.1,0-0.2,0-0.3-0.1c0-0.1,0-0.2-0.1-0.2c0,0,0,0,0-0.1c0.1,0,0.2,0.1,0.3,0.1c0,0,0.1,0,0.1,0C8.4,5,8.4,5.1,8.4,5.2
			z M8.3,4.7c0.1,0,0.2,0,0.3,0C8.5,4.7,8.4,4.7,8.3,4.7z M9.5,5.6c-0.1,0-0.1-0.1-0.2-0.2C9.4,5.5,9.5,5.6,9.5,5.6z M9.2,5.2
			C9.1,5.3,9,5.3,8.9,5.2C9,5.2,9.1,5.2,9.2,5.2z M8.9,6.2c0.2,0,0.4,0,0.6,0c0,0,0,0,0,0.1c-0.1,0-0.1,0.1-0.2,0.1
			c-0.2,0-0.3,0-0.4-0.1C8.9,6.3,8.9,6.2,8.9,6.2z M8.8,5.3c0,0-0.1,0-0.1,0c0,0,0-0.1,0-0.1C8.7,5.2,8.7,5.2,8.8,5.3
			C8.8,5.2,8.8,5.2,8.8,5.3z M7.7,4.1C8,4.2,8.3,4.4,8.7,4.4c0,0.1,0,0.1-0.1,0.2c-0.3,0-0.7,0.1-0.8-0.1c0,0-0.1,0-0.1,0
			C7.7,4.3,7.7,4.2,7.7,4.1z M7.7,4.7c0.1,0,0.1,0,0.2,0c0,0,0,0,0,0.1c0,0,0,0,0.1,0c0,0.1,0,0.1,0,0.2C7.8,4.9,7.8,4.9,7.7,4.9
			C7.7,4.8,7.7,4.8,7.7,4.7z M7.9,6.2C7.9,6.2,7.9,6.2,7.9,6.2C8,6.3,8,6.3,8,6.4c-0.1,0-0.3,0-0.4,0.1c-0.1,0-0.3,0-0.4,0
			C7.3,6.2,7.6,6.1,7.9,6.2z M6.7,5.7C6.7,5.7,6.7,5.7,6.7,5.7c-0.1,0.1,0,0.1-0.1,0.1c-0.1-0.1,0,0-0.1-0.2
			C6.6,5.7,6.6,5.7,6.7,5.7z M3.5,4.2c0.2,0,0.4,0,0.5,0.2C3.9,4.3,3.7,4.3,3.5,4.2z M2.4,13.6c0-0.1,0-0.1,0.1-0.2
			c0.1,0.1,0.1,0,0.1,0.2C2.6,13.6,2.5,13.6,2.4,13.6z M4.5,12c0,0-0.1,0-0.1,0c0-0.1,0-0.1,0-0.2c0,0,0.1,0,0.1,0
			C4.5,11.9,4.5,12,4.5,12z M4.5,11.5c0,0,0,0.1,0,0.1c0,0,0,0-0.1,0c0-0.1,0-0.1,0-0.2c0.1,0,0.1,0,0.2,0
			C4.5,11.5,4.6,11.5,4.5,11.5z M4.9,7.1c0-0.1,0-0.1-0.1-0.2C5,7,5,7,4.9,7.1C5,7.1,4.9,7.1,4.9,7.1z M6.1,6.1
			C5.7,6.3,5.4,6.5,5.1,6.9c-0.1,0-0.1,0-0.2,0C4.8,6.2,4.7,5.6,4.6,5c0.5,0,0.7,0.3,1.2,0.4c0,0.1,0,0.3,0.1,0.3
			c-0.1,0.1,0,0-0.1,0.1c0,0,0,0.1,0,0.1c0.1,0,0.1,0,0.2-0.1C6,5.9,6,6,6.1,6.1C6,6,6.1,6,6.1,6.1C6.1,6.1,6.1,6.1,6.1,6.1z
			 M6.1,5.5c0,0,0.1,0,0.1,0c0,0,0,0.1,0,0.1c0,0-0.1,0-0.1,0C6.1,5.6,6.1,5.6,6.1,5.5z M6.3,5.8C6.3,5.8,6.3,5.9,6.3,5.8
			C6.3,5.9,6.3,5.9,6.3,5.8c0,0,0-0.1,0-0.1C6.3,5.8,6.3,5.7,6.3,5.8z M7.7,11.7c-0.1,0-0.1,0-0.2,0c-0.1-0.1-0.1-0.2-0.2-0.2
			c0,0,0,0,0-0.1c0.1,0,0.2,0,0.3,0C7.7,11.5,7.7,11.6,7.7,11.7z M8.3,11.5c-0.1,0.1-0.1,0.1-0.2,0.2c-0.1,0-0.1,0-0.2,0
			c0-0.1,0-0.2,0-0.3C8.1,11.4,8.2,11.4,8.3,11.5C8.3,11.4,8.3,11.5,8.3,11.5z M11.1,12c0-0.1,0-0.2,0.1-0.3
			c0.1,0.1,0.1,0.1,0.1,0.3C11.2,12,11.1,12,11.1,12z M11.2,11.7c-0.1-0.1-0.1-0.2-0.2-0.2c0.1-0.1,0,0,0.2-0.1
			C11.2,11.5,11.2,11.6,11.2,11.7z M35.6,12c0,0.1,0,0,0,0.1c0,0,0,0.1,0,0.1c0,0,0,0-0.1,0C35.6,12.1,35.6,12,35.6,12z M35.8,12.5
			c0.1,0.1-0.1,0.3-0.2,0.3c0,0,0,0,0,0.1c0,0,0,0-0.1,0C35.6,12.7,35.7,12.6,35.8,12.5z"/>
	</g>
</g>
<g class="st1">
	<g class="st2">
		<path class="st4" d="M55.4,7.2C54.9,7.2,37.1,7,37.1,7L37,6.9c0,0-10-0.2-10.6-0.2c-0.2,0-0.6,0.1-0.8-0.1c-1.1,0-2.3,0-3.4,0
			c-0.7,0-1.1,0.1-1.4-0.3c-1,0-2.1,0-3.1,0c0-0.2,0-0.5-0.1-0.7c0-0.1,0.2,0,0.1-0.2c0-0.1-0.1,0-0.2-0.3c-0.6,0-1.2,0-1.8,0
			c0-0.1,0-0.1,0-0.2c0,0-0.1,0-0.1,0c-0.1-0.1,0-0.3,0-0.4c0-0.1-0.1-0.1-0.1-0.2c-0.2,0-0.3,0-0.4,0.1c-0.3,0.1,0,0.3-0.2,0.5
			C15,5,14.9,4.8,14.9,5.1C14.5,5,8.3,5.1,8.1,5C8.1,5,8.2,4.9,8,4.9C8,5,8,5,8,5c-0.6,0-3.7,0.1-4.4,0.1c0,0.4,0,0.7-0.1,1.1
			c-0.1,0-0.1,0-0.2-0.1c0,0,0,0-0.1,0c0,0.2-0.1,0.6,0,0.7c0,0.1,0,0,0.1,0.1c0,0.5-0.1,0.9-0.1,1.4c-0.1,0-0.1,0-0.2,0.1L3,8.5
			C2.9,9,3.4,9.4,3.1,9.8c0,0.2,0,0.5-0.1,0.6c-0.1,0,0,0-0.2,0.1c0,0.2,0,0.5-0.1,0.7c0,0.1,0.3,0.1,0.2,0.3c-0.1,0-0.1,0-0.2,0.1
			c0,0.1,0,0.1,0,0.2c-0.2,0-0.2,0-0.4-0.1c0,0.1,0,0.1-0.1,0.1c0,0.4,0.1,0.1-0.1,0.4c0.1,0.1,0,0.1,0,0.3c0,0,0,0,0.1,0
			c0,0,0,0,0,0.1c0.1-0.1,0.1-0.1,0.1-0.3c0,0,0.1,0,0.1,0c0,0.3,0,0.6-0.1,0.7c0,0.1,0,0-0.2-0.1c0,0.1,0,0.1,0,0.2
			c0.2,0,0.1,0.1,0.2-0.1c0,0,0,0,0.1,0c0,0.2,0,0.8-0.1,1C2.3,14,2.3,14,2.1,14c0.1,0.1,0,0.1,0.2,0.1c-0.1,0.2-0.8,0.8-1,1
			c-0.1,0.1-0.1,0.1-0.2,0.2c0,0.1,0,0.3-0.1,0.4c0,0-0.1,0.2-0.2,0.3c-0.1,0.3,0.2,0.4,0.2,0.5c0,0.2,0,0.4,0,0.6
			c0,0.1,0.1,0.3,0.2,0.5c0.2,0.4,0.5,0.6,0.8,0.8c0.1,0.2,0.3,0.3,0.4,0.5c0,0,0.1,0,0.1,0C2.7,19,2.9,19.2,3,19.3c0,0,0.1,0,0.1,0
			c0.1,0.1,1.5,1.5,2.3,1.8c0.5,0.2,1.4,0.2,2,0.2c1.3,0,2.6,0,4,0c4.5,0,9.1,0,13.6,0c2.2,0,4.5,0,6.7,0c0.8,0,2.2-0.1,2.9-0.2
			c1-0.2,3.5-1.5,3.7-1.7c0,0,0.1,0.1,0.1,0.2c0.1,0.1,0,0,0.1,0.1c0,0,0-0.3,0.1-0.4c0,0,0.6-0.3,0.7-0.3c0.6-0.4,1.4-1.3,1.1-2.3
			c-0.1-0.4-0.1-0.8-0.4-1.1c0-0.2,0.1-0.2,0.2-0.3c-0.1-0.3-0.4-0.4-0.6-0.5c-0.8-0.5-2.1-0.5-3.5-0.5c0.1-0.1,1-0.1,1.3-0.1
			c0-0.1,0-0.1,0-0.2c0.1,0,0.1,0.1,0.1,0.2c0,0,0.1,0,0.1,0c0-0.2,0-0.3-0.1-0.4c0-0.2,0-0.4,0-0.6c0,0,0,0-0.1,0
			c-0.1,0.1-0.1,0.2-0.1,0.4c-0.1-0.1-0.1,0-0.1-0.2c-0.4,0-1.2,0.1-1.3-0.2c-0.1,0-0.1,0.1-0.2,0c-0.1,0.1-0.1,0.1-0.1,0.2
			c-0.3,0-1.2,0.1-1.3-0.1c0,0,0,0-0.1,0c0,0.1,0,0.2,0,0.4c-0.3,0-3.1-1-3.4-1.2c-0.2-0.1-0.1-0.1-0.2-0.3
			c-0.1,0.1-0.1,0.1-0.2,0.2c-0.1-0.1-0.1,0-0.1-0.2c-0.2-0.1-0.5-0.1-0.7-0.2c0-0.1,0-0.1-0.1-0.2c0,0,0,0-0.1,0
			c-0.1,0-0.1,0.1-0.2,0.1c0,0-0.2-0.1-0.2-0.1c0,0,0,0.1-0.1,0.1c-0.5-0.3-1.2-0.4-1.7-0.6c-0.1,0-0.3-0.2-0.4-0.2
			c0,0-0.3,0.1-0.3,0.2c-0.1,0,0,0-0.1-0.1c0,0,0,0,0-0.1c-0.1,0-0.2,0-0.3,0c-0.2,0-0.1,0.1-0.2,0.1c-0.3,0.1-0.8-0.1-0.9,0
			c-0.1-0.1,0,0,0-0.1c0,0,0,0-0.1,0c-0.1-0.1-0.1,0.1-0.1,0.1c-0.1,0.1-0.4-0.1-0.5,0c-0.1,0-0.1-0.1-0.3-0.1c0-0.5,0-1.1,0-1.6
			c0,0-0.1,0-0.1,0c0,0.3,0.1,1.4-0.1,1.6c0,0,0,0.1,0,0.1c-0.2-0.1-0.1-0.6-0.2-0.8c-0.2-0.5-0.8-0.4-1.2-0.4c0-0.2,0-0.3-0.1-0.4
			c-0.1-0.1-0.3,0-0.4-0.1c0,0,0,0-0.1,0c0,0,0,0,0-0.1c0.6,0,0.7-0.1,1-0.4c0.9,0,2.2,0.1,3-0.1c0.5-0.1,1.1,0,1.5-0.1
			c0.5-0.1,1.1,0,1.5-0.1c0.4,0,0.7,0,1.1,0c0.5,0,0.9,0,1.4-0.1c0.5,0,4.3-0.1,5.3-0.1c0,0,0-0.1,0.1-0.1c1.5,0,17.4-0.2,18.3-0.2
			c0.2,0.1,0.3,0.2,0.6,0.2c0-0.6,0-1.1,0-1.7C55.7,7.1,55.6,7.2,55.4,7.2z M2.6,14.1c0-0.1,0-0.1,0-0.2c0,0,0,0,0.1,0
			c0,0,0,0,0,0.1c0,0,0.1,0,0.1,0C2.7,14.1,2.7,14,2.6,14.1z M19.1,11.2c-0.1,0-0.3,0-0.4,0.1c0-0.1,0-0.1,0-0.2c-0.3,0-0.4,0-0.7,0
			c0,0.1,0,0.1,0,0.2c0,0-0.1,0-0.1,0c0-0.2,0-0.4,0-0.5c0,0,0.1,0,0.1,0l0.1-0.2c0.1-0.2-0.1-0.2-0.1-0.2c0-0.3,0-0.5-0.1-0.8
			c0.4,0,0.9,0,1.3,0C19.2,9.9,19.3,11.1,19.1,11.2z M20.2,11.2C20.2,11.2,20.2,11.2,20.2,11.2c0,0-0.2,0-0.1,0
			C20.1,11.2,20.1,11.2,20.2,11.2C20.1,11.2,20.1,11.3,20.2,11.2c-0.3,0-0.7,0-1,0c0-0.5,0-1.1,0-1.6c0.3,0,0.7,0,1,0
			c-0.1,0.2-0.5,0.1-0.7,0.1c0,0.1,0,0-0.1,0.1c0,0.3-0.1,1.2,0.1,1.3c0,0,0,0,0,0.1C19.8,11.1,20,11.1,20.2,11.2
			C20.2,11.2,20.2,11.2,20.2,11.2C20.2,11.2,20.2,11.2,20.2,11.2C20.2,11.2,20.3,11.2,20.2,11.2C20.3,11.2,20.2,11.2,20.2,11.2z
			 M37.4,13.9c0-0.1,0-0.1,0-0.2c0,0,0.1,0,0.1,0c0,0.1,0,0-0.1,0.1c0,0.1,0,0.2,0,0.3c-0.1-0.1-0.1-0.1-0.2-0.2
			C37.3,13.9,37.2,13.9,37.4,13.9z M35.8,14.2c-0.1,0.1-0.1,0.1-0.2,0C35.7,14.2,35.8,14.2,35.8,14.2z M22.9,11.1
			C22.9,11.1,22.9,11.1,22.9,11.1c0.1-0.2,0.1-0.3,0.1-0.4c0.1,0,0.2,0,0.3,0c0,0,0,0.1,0.1,0.1c0,0,0-0.1,0-0.1c0.1,0,0.2,0,0.3,0
			c0,0.2,0,0.4,0,0.5c-0.2,0-0.7-0.2-1,0c-0.1-0.1,0.1,0,0-0.1c-0.1,0-0.1,0-0.2,0C22.6,11.1,22.7,11.1,22.9,11.1z"/>
	</g>
</g>
<g class="st1">
	<g class="st2">
		<path class="st5" d="M22.9,4.5c0-0.2,0-0.3-0.1-0.4C22.8,4.3,22.8,4.4,22.9,4.5C22.9,4.5,22.9,4.5,22.9,4.5z M22.9,4.5
			c0,0.1,0,0.2,0,0.3C23,4.8,23,4.6,22.9,4.5z M53.7,9.9V9.7c0,0-1.7,0-2.5,0c0-0.2,0-0.3,0-0.5c-0.8,0-1.1,0-1.3,0.5
			c-0.1,0-0.1,0-0.2,0c0,0,0-0.1,0-0.1c-0.1,0-0.1,0.1-0.2,0.1c-0.3,0-0.6,0-0.9,0c0,0,0-0.1,0-0.1c0,0-0.1,0-0.1,0c0,0,0,0.1,0,0.1
			c-0.4,0-0.8,0-1.1-0.1c0-0.1,0-0.2,0-0.4c-0.8,0-1.1,0-1.3,0.5c-0.1,0-0.1,0-0.2,0c0,0,0-0.1,0-0.1c0,0-0.1,0-0.1,0
			c0,0,0,0.1,0,0.1c-0.3,0-0.5,0-0.8,0c-0.1,0-0.1,0-0.2,0c0,0,0-0.1,0-0.1c0,0-0.1,0-0.1,0c0,0,0,0.1,0,0.1c-0.1,0-0.2,0-0.3,0
			c0-0.2,0-0.3,0-0.5c-0.7,0-1.1,0-1.3,0.5c-0.1,0-0.1,0-0.2,0c0,0,0-0.1,0-0.1c0,0-0.1,0-0.1,0c0,0,0,0.1,0,0.1c-0.3,0-0.5,0-0.8,0
			c-0.1,0-0.1,0-0.2,0c0,0,0-0.1,0-0.1c0,0-0.1,0-0.1,0c0,0,0,0.1,0,0.1c-0.1,0-0.2,0-0.3,0c0-0.2,0-0.3,0-0.5c-0.8,0-1,0-1.3,0.5
			c-0.1,0-0.1,0-0.2,0c0,0,0-0.1,0-0.1c0,0-0.1,0-0.1,0c0,0,0,0.1,0,0.1c-0.3,0-0.5,0-0.8,0c-0.1,0-0.1,0-0.2,0c0,0,0-0.1-0.1-0.1
			c0,0,0,0.1,0,0.1c-0.1,0-0.2,0-0.3,0c0-0.2,0-0.3,0-0.5c-0.7,0-1.2-0.1-1.3,0.5c-0.1,0-0.1,0-0.2,0c0-0.1,0-0.1,0-0.2
			c-0.1,0-0.1,0-0.2,0c0,0.1,0,0.1,0,0.2c-0.2-0.1-0.6-0.1-0.9-0.1c0-0.1,0-0.1,0-0.2c-0.1,0.1-0.1,0-0.1,0.2c-0.3,0-0.7,0-1-0.1
			c0-0.1,0-0.1,0-0.2c-0.1,0-0.1,0-0.2,0c0,0.1,0,0.1,0,0.2c-0.9,0-1.8,0-2.8,0c0-0.4-0.3-0.3-0.6-0.4c-0.5-0.3-1-0.5-1.9-0.5
			c0-0.2,0-0.4,0.1-0.5c-0.1,0-0.1,0-0.2-0.1c-0.1,0.2-0.1,0.3-0.2,0.5c0,0,0,0.1,0,0.1c-0.2,0-0.4,0-0.6-0.1c-0.4-0.1-1,0-1.4-0.1
			c-0.2-0.1-0.5,0.1-0.7-0.1c0,0,0,0-0.1,0c0,0,0,0,0-0.1c0,0,0,0,0.1,0c0,0,0-0.1,0-0.1c0.1,0,0.3,0,0.4,0c0-0.1,0-0.1,0-0.2
			c-0.2,0-0.3,0-0.5,0c0,0.1,0,0.2,0,0.4c-0.5-0.1-1-0.3-1.5-0.4c0-0.1,0-0.1-0.1-0.2c-0.2-0.1-0.6,0-0.9-0.1
			c-0.2-0.1-1.1-0.5-1.3-0.3c-0.1,0-0.1,0-0.2,0c0-0.1,0-0.3,0.1-0.4c0,0,0-0.1,0-0.1c0.1,0,0.2,0,0.3,0c0-0.2,0-0.3,0-0.5
			c-0.2,0-0.3,0-0.5,0c0.1-0.1,0.4-0.1,0.6-0.1c0-0.2,0-0.3,0-0.5c0.2,0,0.4,0,0.6,0c0-0.1,0-0.1,0-0.2c-0.2,0-0.5,0-0.6-0.1
			c0,0,0,0-0.1,0c0,0,0-0.1,0-0.1c0.5,0,0.9,0,1.2-0.1c1.3,0,2.5,0,3.8,0c0-0.1,0-0.1,0-0.2c-1.3,0-2.5,0-3.8-0.1
			C24,5.3,23.5,5.3,23,5.3C23,5.2,23,5,23,4.8c-0.1,0.1,0,0.3,0,0.5c-0.1,0-0.2,0-0.3-0.1c0-0.1,0-0.2,0-0.3c-0.1,0-0.1,0-0.2,0
			c0,0.1,0,0.1,0,0.2c-0.5,0-1.6,0-2.4-0.1c0-0.1,0-0.1,0-0.2c-0.1,0-0.2,0-0.3,0c0,0.1,0,0.1,0,0.2c-0.1,0-0.2,0-0.3,0.1
			c-0.2,0-0.2-0.1-0.2,0.1c0,0,0,0,0,0.1c-0.1-0.1-0.1,0-0.2-0.2c0,0-0.1,0-0.1,0c0,0.1,0,0.2,0,0.3c0,0-0.1,0-0.1,0
			c0,0.2,0.1,0.2,0.1,0.4c0,0,0.1,0,0.1,0c0-0.1,0-0.1,0.1-0.2c0.1,0,0.1,0,0.2,0c-0.1,0.1,0,0.1-0.2,0.1c0,0.1,0,0.1,0.1,0.1
			c-0.1,0.1,0,0-0.1,0.1c0.1,0.1,0.7,0,1,0c0,0.1,0,0.2,0,0.3c0.4,0,1,0,1.2-0.2c0,0,0.1,0,0.1,0c0,0.2,0,0.3,0,0.5
			c0.1,0,0.2,0,0.3,0.1C22,7,21.9,7.3,22,7.7c-0.5,0-1,0.1-1.5,0.1c-0.1-0.1-0.2-0.2-0.3-0.3c-0.1,0-0.2,0-0.3-0.1
			c-0.1-0.1-0.1-0.1-0.1-0.3c-0.1,0.1-0.1,0.1-0.1,0.3c-1,0-2.2,0-3,0c0,0.1,0.1,0.1,0.2,0.2c-0.2,0.1-0.3,0.3-0.5,0.4
			c0,0.1,0,0.1,0.1,0.1c-0.2,0.2-1.2,0.1-1.4,0.3C15,8.3,15,8.2,15.1,8c-0.4,0.1-0.9,0-1.4,0.1c-0.2,0.1-0.6,0-0.8,0.1
			c-0.1,0-0.2,0.1-0.4,0.1c0,0.1,0,0.2,0.1,0.3c0,0,0,0,0,0.1c-0.1,0-0.3,0-0.4,0.1c0,0,0,0-0.1,0c0-0.2,0.1-0.6-0.1-0.8
			c0-0.2,0-0.4,0-0.7c0,0-0.1,0-0.1,0c0,0.5,0,1-0.1,1.4c-1.6,0.2-3.1,0.4-4.7,0.6c0,0.2-0.1,0.1-0.1,0.2c0,0.2-0.3,1.4-0.4,1.5
			c0,0,0,0,0,0.1c0.8,0.2,1.8,0.1,2.6,0.3c0.3,0,0.7,0,1,0.1c0.3,0.1,0.7,0.1,1,0.2c0.2,0,0.3,0,0.5,0c0.4,0.1,1,0.2,1.5,0.2
			c0,0.1,0,0,0.1,0.1c0,0.2,0,0.4,0,0.7c0.4,0,0.8,0,1.2,0c0,0,0,0,0,0.1c-0.1,0-0.1,0-0.2,0.2c-0.2,0-0.4-0.1-0.5-0.1
			c0,0-0.2,0.1-0.3,0.1c-0.1,0-0.5-0.2-0.8-0.1c-0.1,0-0.2,0.1-0.4,0.1c0-0.1,0-0.2,0-0.3c0,0-0.1,0-0.1,0c0,0.1,0,0.2,0,0.3
			c-0.6,0-0.3-0.1-0.6-0.3c-0.1-0.1-0.5-0.1-0.6,0c0,0-0.1,0-0.1,0c0,0.1,0,0.2,0,0.3c-0.3,0-0.4-0.2-0.7-0.2c-0.2,0-0.4,0-0.6,0.1
			c0,0-0.1-0.2-0.1-0.2c-0.1-0.1-0.6,0-0.7,0.1c-0.1,0.1-0.1,0-0.1,0.2c-0.5-0.2-1.1,0.2-1.4,0c0,0-0.1,0-0.1,0c0-0.1,0-0.1,0-0.2
			c-0.3,0-0.7,0-1,0c0-0.1,0-0.1,0-0.2c0,0-0.1,0.1-0.1,0.2c-0.1,0.1-0.2,0-0.3,0.1c-0.4,0-1.5-0.1-1.6,0.2c-0.1,0-0.1,0-0.2,0.1
			c0,0-0.4-0.1-0.5-0.1c0,0-0.1,0.2-0.2,0.3c-0.2,0.1-0.6-0.1-0.8-0.1c-0.1,0-0.2,0.2-0.4,0.3c0,0.1,0,0.2-0.1,0.4
			c0,0.1,0.2,0.3,0.2,0.4c0,0.2-0.1,0.1-0.1,0.4c-0.2,0-0.3,0-0.5,0c0,0.1,0,0.3,0,0.4c-0.2,0-0.3,0-0.4,0.1c-0.1,0-0.3-0.2-0.4-0.3
			c0,0-0.1,0-0.1,0c0,0.2-0.1,0.2,0.1,0.3c0,0.1,0,0.1,0,0.2C1.1,14.9,1,14.8,1,14.8c0,0,0,0,0,0.1c0,0,0,0-0.1,0
			c0,0,0.2,0.5,0.2,0.5c0,0.3,0,0.2,0.3,0.4c0.1,0,0.1,0.2,0.2,0.2c0,0.3,0,0.4,0.1,0.6c0,0,0,0-0.1,0c-0.1,0.1,0,0-0.1,0
			c-0.3,0.5-0.4,0.9-0.4,1.6c0.1,0.1,0.1,0.1,0.2,0.2c0.2,0,0.4,0.1,0.5-0.1c0.5,0.4,0.7,1,1.3,1.3c0.5,0.3,1.3,0.3,1.9,0.5
			c0.9,0.3,1.9,0.6,2.9,0.8c1.4,0,2.9,0,4.3,0c4.5,0,9,0,13.5,0c2.8,0,5.7,0,8.5,0c1.2-0.3,4.2-0.8,5.2-1.8c0.5-0.5,0.7-2-0.1-2.7
			c0.1-0.1,0.3-0.1,0.4-0.2c0.2,0.1,0.1,0.3,0.3,0.4c0.4,0.2,0.7-0.1,1-0.2c0-0.1,0-0.2-0.1-0.3c-0.1,0-0.3,0.1-0.4,0.2
			c-0.7,0,0-0.5-0.2-0.8c-0.1-0.2-0.2-0.1-0.3-0.2c-0.1-0.1,0-0.2-0.1-0.2c-0.2-0.1-0.4-0.1-0.6-0.2c-0.4-0.2-0.9-0.4-1.2-0.5
			c-0.2,0-0.3-0.1-0.5-0.1c-0.2-0.1-0.5-0.3-0.8-0.3c0-0.1,0-0.3,0-0.4c-0.4,0-0.8,0-1.2,0c-0.4-0.1-0.8-0.4-1.1-0.5
			c-0.4,0-0.9-0.1-1.3-0.1c0-0.2,0-0.3,0-0.5c-0.9,0-1.8,0-2.6,0c0-0.1,0-0.1-0.1-0.2c-0.2,0-0.3,0-0.5,0c0,0.1,0,0.1,0,0.2
			c-0.8,0-1.7,0-2.5-0.1c0.2-0.1,0.5,0,0.7-0.1c0.2-0.1,1.1-0.5,1.2-0.6c0,0,0,0,0.1,0c-0.1,0.1-0.1,0.2-0.2,0.3c0,0,0,0-0.1,0
			c0,0,0,0,0,0.1c0.5,0,0.9-0.3,1.3-0.4c0.2-0.1,0.5-0.1,0.7-0.2c0.2-0.1,0.4-0.2,0.6-0.2c0-0.1,0,0,0.1-0.1c0-0.1,0-0.2,0-0.3
			c0.8,0,1.7,0,2.5,0c0,0.1,0,0.1,0,0.2c0.6,0,1.6,0,2.1-0.1c3.2,0,6.5,0,9.7,0c1,0,2,0.1,3,0.1c0.3,0,0.9,0.1,1.1-0.1
			c0,0,0.1,0,0.1,0c0-0.1,0-0.1,0-0.2c0.3,0,0.4,0.1,0.7,0.2c0.3,0.1,0.8-0.1,0.9,0c0.3,0,1.7-0.1,1.7-0.1l0.2-1.2H53.7z"/>
	</g>
</g>
<g>
	<g>
		<path class="st4" d="M32.8,10.2c0.3,0,0.6,0,0.9,0c0.1-0.1,0.2-0.3,0.4-0.4c0-0.1,0-0.3,0-0.4c0.8,0,2,0,2.8-0.1
			c1.8,0,3.6,0,5.4,0c0-0.2,0-0.4,0-0.7c-1,0-5.2,0.1-5.4,0c-0.4-0.1-0.9,0-1.4,0c-0.4,0-0.9,0-1.4,0c-0.7,0-4.6,0-4.8-0.1
			c-0.2-0.3-0.1-0.9-0.4-1.2c0,0,0-0.1,0-0.1c-0.9,0-0.9,0.1-1.3-0.5c-0.2,0-0.5-0.1-0.7-0.2c-0.1,0-0.3,0-0.4,0
			c-0.1,0-0.2-0.2-0.2-0.2c-0.1,0-0.3,0.1-0.4,0.1c-0.1-0.1-0.5-0.1-0.7-0.1C24.6,6,23.5,6,22.5,6c0-0.1-0.2-0.7-0.3-0.7
			c0-0.2,0-0.5,0-0.7c0.1-0.1,0.4,0,0.6,0c0.1,0,0.1-0.1,0.2-0.1c0-0.5,0-0.7,0-1.1c0-0.2,0-0.9,0-1.1c0,0-0.1,0-0.1,0
			c0,0.3,0,2-0.1,2.1c0,0,0,0,0,0c-0.3,0-0.5,0-0.7,0.1C22,5,22,5.6,21.9,6C21.7,6,21.7,6,21.5,6c0-0.2,0.1-0.2,0.1-0.5
			c0.1,0,0.1,0,0.2,0c0-0.1,0-0.3,0-0.4C21.6,5,21.6,5,21.5,4.9C20.9,5,20.2,5,19.5,5c0-0.1,0-0.2,0-0.3c0,0.1,0,0.1,0,0.3
			C19.2,5,19,5,19,4.9c-0.3,0-0.3-0.1-0.3,0.1c-0.2,0-0.2-0.1-0.4-0.1c0-2.6,0-2.2,0-4.8c0,0-0.1,0-0.1,0c0,1.7-0.1,4.5-0.1,4.8
			c0,0.1-0.3,0-0.4,0.2c-0.1,0-0.1,0.2-0.1,0.4c0.1,0,0.1,0,0.2,0c0,0.2,0,0.3,0,0.5c-0.1,0-0.1,0-0.2,0c0,0,0,0.1,0,0.1
			c-0.6,0-3.8,0.3-4,0.5c-0.1,0-0.1,0.1-0.1,0.1c0,1-0.1,3.7,0.1,3.9c0.2,0.2,1.5,0.5,1.8,0.6c0.1,0,0.2,0,0.4,0.1
			c0.1,0.1,0.2,0.2,0.3,0.3c0,0.1,0,0.1,0,0.2c-0.7,0-1.4,0-2.1,0c0,0,0-0.1,0-0.1c-0.1,0-0.2,0-0.3,0c0,0,0-0.1,0-0.1
			c-0.2-0.1-0.4,0.1-0.6,0.1c-0.5,0.1-1.2,0.1-1.8,0.1c0.1,0,0.1,0,0.3,0c0-0.1,0-0.2,0-0.4c-0.9,0-2,0-2.9,0c-0.7,0-1.4,0-1.9,0.1
			c-0.4,0-0.7,0-1.1,0c-0.1,0.1-0.2,0.3-0.4,0.3c-0.2,0-0.4,0-0.5,0c-0.2,0.1-0.3,0.4-0.6,0.5c-0.2-0.2-0.1-0.2-0.2-0.4
			c-0.3,0-0.6,0.4-0.7,0.6c-0.3,0-0.7,0-1,0c0.1,0.2,0.2,0.5,0.4,0.6c0,0.1-0.1,0.1-0.1,0.1c0,0.2,0,0.2,0.1,0.2c0.1,0,0,0,0.1,0
			c0.1,0,0.2,0.1,0.3,0.1c-0.1,0.3-0.6,0.7-1,0.7c0,0.2-0.7,0.8-0.9,1c0,0.1,0,0.3,0,0.4c0.4,0,0.8,0.1,1.2,0.1c0,0.5-0.3,1-0.1,1.6
			c0.1,0.4,0.5,0.8,0.8,1.1c0,0,0.3,0.1,0.3,0.1c0.1,0.1,0,0.3,0,0.4c0.1,0.1,0.2,0.1,0.4,0.2c0.1,0.1,0.1,0.3,0.2,0.4
			C3.7,19.7,3.9,19.8,4,20c0.1,0,0.2,0,0.2,0.1c0.3,0,0.6-0.3,0.7-0.3c0,0,0.1,0.2,0.2,0.2c0.4,0.2,1.2,0.7,1.2,0.7
			c0.4,0.2,0.9,0.2,1.3,0.3c6.1,0,12.3,0,18.4,0c1.6,0,3.3,0,4.9,0c1.2,0,2.4,0,3.2-0.3c0.7-0.2,1.4-0.4,2.1-0.7
			c0.4-0.2,2.5-1,2.9-1.5c0.1-0.1,0.2-0.1,0.3-0.2c0.5-0.7,0.6-2.4-0.2-2.9c0.1-0.1,0.3,0,0.4-0.1c0,0,0,0,0-0.1
			c-0.2-0.2-0.3-0.5-0.5-0.7c-0.5-0.3-1.6-0.3-2.4-0.3c0-0.5,0-1,0-1.4c0,0-0.1,0-0.1,0c0,0.1-0.1,0.2-0.1,0.3c0,0.2,0,0.1-0.1,0.2
			c0-0.1-0.2-0.4-0.2-0.4c-0.1,0.1-0.1,0-0.1,0.1c-0.2,0-0.5,0-0.7,0c0-0.1,0-0.2,0-0.3c-0.1,0.1-0.1,0.1,0,0.2
			c-0.1-0.1,0,0-0.1-0.1c0,0.1,0,0.1,0,0.1c0,0,0,0,0,0c-0.1,0,0,0,0,0c0,0-0.1,0-0.1,0c-0.2-0.3-0.3-0.7-0.3-1
			c-0.3,0.1-0.7,0.2-0.8,0.5c0,0,0,0,0,0c0,0,0.1,0.1,0.1,0.1c0,0,0,0,0,0c0,0,0,0,0,0c0,0,0.1,0.1,0.1,0.1c0,0,0,0.1,0,0.1
			c-0.1-0.1-0.1-0.1-0.1-0.2c0,0,0,0,0,0c-0.2,0-0.2,0-0.3,0.1c-0.1-0.3-0.4-0.3-0.5-0.7c-0.2,0-0.4,0-0.5,0c0,0,0-0.1,0-0.1
			c-0.2-0.1-0.5,0.3-0.8,0.1c0,0,0-0.1,0-0.1c0,0-1,0.1-1.2,0.1c-1,0-2.1,0-3.1,0c0-0.1,0-0.1,0-0.2c1.1,0,1.4-0.7,2.3-0.8
			c0,0,0,0,0,0c0,0,0,0,0,0c0-0.2-0.1-0.3-0.1-0.5c0.7,0,1.5,0,2.2,0C32.2,10.2,32.7,10.3,32.8,10.2z M4.4,19.6c-0.1,0-0.1,0-0.1,0
			c0,0-0.1,0-0.1,0c0-0.1,0-0.1,0-0.2C4.2,19.4,4.3,19.5,4.4,19.6C4.4,19.6,4.4,19.6,4.4,19.6z M6.4,11.8c0.2,0,0.4,0,0.6,0
			C6.8,11.8,6.5,11.8,6.4,11.8z M7.1,11.8c0.1,0,0.2,0,0.4,0C7.3,11.8,7.1,11.8,7.1,11.8z M7.6,11.8c0,0,0.1,0,0.1,0
			C7.7,11.8,7.7,11.8,7.6,11.8z M7.9,11.8c0.5,0,1,0,1.5,0C9.4,11.8,8,11.8,7.9,11.8z M9.7,11.8c0.1,0,0.1,0,0.2,0
			C9.9,11.8,9.8,11.8,9.7,11.8z M12.9,11.8c0,0,0.1,0,0.1,0C13,11.8,13,11.8,12.9,11.8z M36.4,13.6c0.2,0.1,0.1,0.4,0.3,0.5
			c0,0,0,0,0,0c-0.3-0.1-0.8,0-1.3,0c0-0.2,0-0.5,0-0.7C35.7,13.4,36.2,13.4,36.4,13.6z M34.3,13.4c0.2,0,0.5,0,0.7,0
			c0,0.1,0,0.5-0.1,0.6c0,0,0,0.1,0,0.1C34.6,14,34.5,13.6,34.3,13.4C34.3,13.4,34.3,13.4,34.3,13.4z M34.2,12.6
			C34.2,12.7,34.2,12.7,34.2,12.6C34.2,12.7,34.2,12.7,34.2,12.6z"/>
	</g>
</g>
</svg>
