<?xml version="1.0" encoding="UTF-8"?>
<!-- Generator: Adobe Illustrator 24.0.0, SVG Export Plug-In . SVG Version: 6.00 Build 0)  -->
<svg version="1.1" id="Слой_1" xmlns="http://www.w3.org/2000/svg" xmlns:xlink="http://www.w3.org/1999/xlink" x="0px" y="0px" width="43px" height="22.9px" viewBox="0 0 43 22.9" style="enable-background:new 0 0 43 22.9;" xml:space="preserve">
<style type="text/css">
	.st0{fill-rule:evenodd;clip-rule:evenodd;fill:#8C8C7C;}
</style>
<path class="st0" d="M20.3,11.1L20.3,11.1L17.8,11l-0.2-0.2c0,0,0.5-3.3,0.9-4.3c0.1-0.1,0.2-0.4,0.3-0.5c0.1-0.1,0.4-0.3,0.5-0.3  c0.3-0.1,1.1,0,1.1,0l0.1-0.1v-1h-0.1V4.3V1.5l0.2,2.9h0.1v0.7c0,0,0.2-0.2,0.3-0.3c0.1-0.1,0.3-0.2,0.5-0.2c0.1,0,0.3-0.1,0.4-0.1  c0.1,0,0.5,0,0.5,0V4.2h0.4l0.9-0.2l-0.3,0.3v0.2h0.3l0.1,0.3c0,0,0.3,0.2,0.3,0.3c0.1,0.1,0.2,0.5,0.2,0.5h0.5V5.2h0.1v0.3h0.7  l0.2-0.2c0,0,0.1,0.2,0.2,0.2c0.1,0,1.1,0.1,1.1,0.1V5.3h0.5c0,0-0.1-0.5,0-0.5s0.7,0,0.7,0v0.5h0.1v0.5l2,0.5l0.9,0.3l0.2,0.2  l0.2,0.9h0.8l0.5,0.1v0.3l9.5,0.2v1l-9.5,0.2v0.2l-0.3,0.2h-0.5v0.5l-0.2,0.2h-1.1v0.2L30.5,11v0.2l1.5,0.1l1.5,0.2v-0.2h0.4  l0.8-0.3l-0.3,0.4v0.1l0.2,0.1l0.2,0.2c0,0,0,0.1,0.1,0.1s1.1,0.4,1.5,0.5c0.4,0.2,1.2,0.5,1.6,0.7c0.3,0.1,0.8,0.4,1,0.5  c0.1,0.1,0.5,0.4,0.5,0.4l0.5-0.1v-0.1c0,0-0.1,0-0.2,0c0,0-0.1-0.1-0.1-0.1c0-0.1,0-0.2,0-0.3c0,0,0.1-0.1,0.1-0.1  c0.1,0,0.4,0,0.4,0v0.5h-0.1v0.1c0,0,0.4,0,0.5,0c0.2,0,0.5,0.1,0.6,0.1c0.1,0,0.5,0.2,0.5,0.2l0.2-0.5l0.1,0l-0.2,0.5l0.5,0.3  l-0.3,0.6c0,0,0.3,0.4,0.4,0.6c0.1,0.2,0.2,0.6,0.2,0.9c0,0.1,0,0.3,0,0.5c0,0.1-0.1,0.4-0.1,0.5c-0.1,0.2-0.2,0.5-0.3,0.7  c-0.2,0.2-0.6,0.6-0.8,0.8c-0.9,0.8-2.8,2.3-3.9,2.9c-0.1,0.1-0.3,0.1-0.4,0.2c-0.1,0.1-0.5,0.2-0.5,0.2H6.3c0,0-0.3-0.1-0.4-0.1  c-1.1-0.4-3.2-1.7-4.2-2.3c-0.2-0.1-0.5-0.3-0.6-0.5c-0.2-0.2-0.4-0.6-0.5-0.8c-0.1-0.2-0.1-0.5-0.1-0.7c0-0.2,0.1-0.7,0.2-0.9  c0.1-0.2,0.3-0.5,0.4-0.7c0-0.1,0.2-0.2,0.2-0.2l-0.5-0.7v-0.1l0.4-0.2l-0.3-0.4l0.1-0.1L1.2,15l2-0.7l0.3-0.3H3v-0.5h0.4l0.1,0.1  v0.4l0.4-0.3l0.6-0.5c0,0,1-0.4,1.3-0.5c0.3-0.1,0.9-0.3,1.2-0.4c0.3-0.1,1-0.3,1.4-0.4c0.5-0.1,1.6-0.2,2.1-0.2  c0.3,0,0.8-0.1,1.1-0.1c0.1,0,0.2-0.1,0.3-0.1c0.2-0.1,0.7-0.2,0.7-0.2v-0.1l0.2,0l0,0.1l1-0.1l0.5-0.1l0.3-0.2h0.5l0.1,0.1v0.1  h-0.1v0H20.3z"/>
</svg>