<?xml version="1.0" encoding="utf-8"?>
<!-- Generator: Adobe Illustrator 22.0.0, SVG Export Plug-In . SVG Version: 6.00 Build 0)  -->
<svg version="1.1" id="Layer_1" xmlns="http://www.w3.org/2000/svg" xmlns:xlink="http://www.w3.org/1999/xlink" x="0px" y="0px"
	 width="50.2px" height="19.1px" viewBox="0 0 50.2 19.1" style="enable-background:new 0 0 50.2 19.1;" xml:space="preserve">
<style type="text/css">
	.st0{fill-rule:evenodd;clip-rule:evenodd;fill:#FAB81B;}
</style>
<path class="st0" d="M6.3,19.1l-4.9-3.2l-0.1-1.2L0,13.8l1.1-1.4l0-0.5l-0.9-0.4L0.7,11l0.6-0.9H6l0.3,0.4h0.3v-0.4c0,0,0.9,0,1,0
	c0.1,0,0,0.3,0,0.3h0.6c0-0.2,3.5-0.6,3.5-0.6l0.9,0.6h2.7l-0.3-0.4l-2.8-0.7L12.2,9l-0.9,0l-0.6,0.2L9.6,8.6c0,0-0.2-0.6-0.2-0.7
	c0-0.1,0.2-0.9,0.2-0.9l0.5-0.2c0,0,1,0,1.1,0c0.1,0,0.9-0.9,0.9-0.9s0.7,0.7,0.8,0.6c0.1-0.1,0.7,0,0.7,0l0.3,0.4
	c0,0,1.3-0.2,1.4-0.3c0-0.1,0.3-0.5,0.3-0.5l0.6,0l0.1-0.9h4.6l0.5,1l1.1,0L22.7,0l0.2,6.1h1.3c0,0,3.1,0.8,3.1,0.7
	c0.1-0.1,0.4-0.8,0.4-0.8l0.4,0.7l0.4-0.2l0.8,0.7L32,7.8L32.2,8l11.3,0.2V7.9h3.7v0.3h1V7.9h2c0,0,0,1.4,0,1.3c0-0.1-2,0-2,0V9
	h-0.9v0.3h-3.8V9L32.1,9l-0.1,0.3L30,9.9l-0.6-0.5l-0.4,0.2l0.3,0.5l-0.5,0.6h2.6v0.3h0.8v-0.5h0.9c0,0-0.1,0.5,0,0.5c0.1,0,3,0,3,0
	v1l1.1,0l2.7,1.3l0.1,0.7l-0.3,0.2l0.1,0.5l-1.4,1.6l-5.3,2.7L6.3,19.1z"/>
</svg>
