<?xml version="1.0" encoding="UTF-8"?>
<!-- Generator: Adobe Illustrator 25.3.1, SVG Export Plug-In . SVG Version: 6.00 Build 0)  -->
<svg version="1.1" id="Слой_1" xmlns="http://www.w3.org/2000/svg" xmlns:xlink="http://www.w3.org/1999/xlink" x="0px" y="0px" width="75px" height="19.8px" viewBox="0 0 75 19.8" style="enable-background:new 0 0 75 19.8;" xml:space="preserve">
<style type="text/css">
	.st0{display:none;fill-rule:evenodd;clip-rule:evenodd;fill:#FAB81B;}
	.st1{display:none;}
	.st2{display:inline;}
	.st3{fill-rule:evenodd;clip-rule:evenodd;fill:#FAB81B;}
</style>
<path class="st0" d="M10.6,19.5h26.6c0,0,0.8-0.2,1-0.2c1.3-0.5,3.8-1.9,4.9-2.7c0.2-0.1,0.5-0.5,0.6-0.7c0.1-0.2,0.4-0.6,0.4-0.8  c0-0.2,0-0.7,0-0.7l1.1-1.1V13l0.4,0.2l0.4,0.1l0.2-0.2v-0.6L46,12.3h-0.2v0.5h-0.2l-0.5-0.6l-0.6,0.1l-0.4,0.2l-0.4-0.6h-0.2  L43,11.6l-0.6-0.3H42l0.7-0.1c0,0,0.3,0.2,0.4,0.3c0.1,0.1,0.5,0.1,0.5,0.1v-1.4c0,0-0.5,0-0.6,0.1c-0.1,0-0.2,0.3-0.2,0.3v0.2h-0.4  l-0.1-0.4H41c0,0,0.1-0.5,0-0.6s-0.4-0.2-0.6-0.2c-0.1,0-0.4-0.1-0.5,0s-0.3,0.4-0.3,0.5s-0.1,0.4-0.1,0.4l0.2,0.2l-0.8-0.2  c0,0-0.1-0.7-0.2-0.9c-0.1-0.1-0.2-0.2-0.3-0.2s-0.2,0-0.2,0.1c-0.1,0.1-0.3,0.3-0.3,0.3s-0.2-0.3-0.3-0.3s-0.3,0-0.3,0  C37.2,9.6,37,9.9,37,9.9l-1.7-0.4h-1.8V9.3l1.7-0.2l0.3-1.2h2.2l0.2-0.2l21.2-0.1l0.2,0.2h4.3l0.2-0.2H70V6.4h-6l-0.2-0.2h-4.4  l-0.2,0.2L34.6,6.2L34,5.8c0,0,0.1-0.1,0.1-0.2c0-0.1,0.1-0.3,0-0.5c-0.1-0.1-0.5,0-0.6,0s-0.2,0.2-0.2,0.2l-0.2-0.2H32l-0.2-0.2  l-2-0.4h0.4V4L28,3.8v0.4L26.8,4h-7.5V3.6h-2.2V4h-3.5v0.2H13l-0.2-7.4v7.4L8.9,4.9v3.7l2.3,0.7v0.2h5.9v0.2H1.4V10H1.1l-0.2,0.2  v0.3L1,10.9l0.1,0.7l0.6,2.3c0,0,0.2,0.8,0.3,1.1c0.1,0.3,0.3,0.8,0.5,1c0.2,0.2,0.5,0.6,0.7,0.7c1.5,1,5,2.1,6.7,2.6  C10.1,19.5,10.6,19.5,10.6,19.5z"/>
<g class="st1">
	<g class="st2">
		<path class="st3" d="M50,6.7V6.5c0,0-0.7,0-1.1,0v0.1h-0.3V6.2h-3.4c0,0.1,0,0.4,0,0.4h-1.9l-0.1-0.2c0,0-3,0-3.9,0L39,6.3    c0-0.1-0.1-0.1-0.1-0.2h-2.1C36.7,6,36.7,6,36.7,5.8c0.1-0.1,0.1-0.2,0.1-0.5c-0.2-0.1-0.2-0.2-0.6-0.2c-0.1,0.1-0.2,0.3-0.4,0.4    c-0.1-0.1-0.3-0.1-0.4-0.2c-0.1-0.1-0.1-0.2-0.2-0.2c-0.3-0.2-0.6-0.3-1-0.3C34.1,4.9,34.1,5,34,5c-0.1-0.1-0.2,0-0.3-0.1    s0.1-0.2-0.2-0.2c-0.1,0-0.1,0.1-0.1,0.1c-0.1-0.1-0.3-0.1-0.5-0.2c-0.2-0.1-0.5-0.3-0.7-0.4h-0.4c-0.2,0-0.5-0.1-0.6-0.2    c-0.2-0.1-0.5,0-0.6,0.1c-0.2,0-0.5,0-0.7-0.1c0-0.2,0-0.4-0.1-0.5h-0.1c-0.1,0.2-0.2,0.2-0.4,0.3c0,0.1,0,0.1,0.1,0.2h-0.2    c-0.2-0.1-1.4-0.1-1.8-0.1c-0.1-0.4-0.1-0.1-0.4-0.3c-0.1-0.1-0.2-0.3-0.2-0.5h0.4V2.6c-0.3,0-0.3-0.1-0.7-0.1    c-0.1,0.1-0.2,0.2-0.2,0.2v0.4c-0.1,0.2-0.2,0.4-0.2,0.5c-0.3,0-0.3,0-0.5,0c0-0.1,0-0.3-0.1-0.4c0.1,0,0.1,0,0.2-0.1    c-0.7,0-1.4,0-2.1-0.1v0c0.1-0.2,0.1-0.6,0.1-0.7c0.2-0.1,0.6-0.1,1-0.1c0.1,0.1,0.2,0.1,0.3,0.1V2c-0.2,0-0.6,0-0.7-0.1h2.1    c0.3,0,1.2,0.1,1.2,0.1V1.4c0,0-0.8,0.1-1.2,0.1c0-0.1,0-0.2-0.1-0.2v0.3H24V1.4h-0.7c0,0-0.1,0.2-0.3,0.1V1.4h-1    c-0.3,0.1-1.3,0.3-1.7,0.2c-0.3-0.1-0.6-0.2-0.9-0.2l0,0c0.2,0.2,0.2,0.5,0.2,0.8c0.2,0,0.5-0.3,0.6-0.1V1.9c0.2,0,0.4,0,0.5,0.1    c-0.1,0.2-0.1,0.3,0,0.5h0.1c0-0.2,0-0.4,0.1-0.5C21,2,21,2,21.2,2c0.1,0.3,0.2,0.2,0.2,0.6h0.2c0-0.1,0-0.2,0.1-0.3h0.2    C22,2.4,22,2.4,22,2.5c0,0.1-0.1,0,0,0.2c0.1,0.1,0.2,0.1,0.4,0.1V3c-0.3,0-0.8,0.1-0.9,0c0,0.1,0,0.1-0.1,0.2    c-0.2,0.1-0.6-0.1-0.7,0.1h0.1c0.1,0.1-0.2,0.1-0.1,0.2c0,0,0.1,0.1,0.1,0.2c-0.4,0-0.2,0.2-0.4,0.3c-0.5,0-0.9,0.1-1.4,0.1V3.5    h-0.2V4c-0.3,0-0.6,0-1,0.1c0-0.2,0-0.4-0.1-0.6h-0.1v0.7h-0.4c0-0.2,0-0.3-0.1-0.5c-0.1,0-0.1,0-0.2-0.1c0-0.5-0.1-7.3-0.1-8.1    c0-0.3,0.1-0.7-0.1-0.9c0,2.8,0.1,8.7,0,9c-0.1,0-0.1,0-0.2,0.1c0,0.2,0,0.4-0.1,0.5c-0.2,0-0.4,0-0.6,0.1v0.2h-0.1V4    c0.1-0.1,0-0.1,0.1-0.2h-3.1v0.1c0.2,0.1,0.1,0,0.1,0.1c0,0-0.1,0-0.1-0.1v0.5c-0.1,0.1-0.1,0.1-0.1,0.2h0.1c0,0,0-0.2,0.1-0.1    v0.1c0.1,0.1,0,2.5,0,3.2c0,0,0.8,0.1,1.2,0.1V7.7h1.8V7.4H16v0.3h1.3c0.1,0.2,1.2,1,1.5,1v0.1c-0.1,0-2.6-0.3-3.2-0.4V8.2h-0.2    v0.2c-0.3,0-0.6,0-0.9-0.1c-0.8-0.2-1.8-0.2-2.5-0.4c-0.5-0.1-1.1-0.1-1.6-0.2l-0.1-0.1V7.5C10,7.4,9.8,7.7,9.6,7.7    c-0.7,0-3.1-0.2-3.5-0.2H2.9C2.7,7.6,2.2,7.6,2,7.7C1.9,7.8,1.7,7.9,1.6,8C1.1,7.9,0.8,7.7,0.8,8.4c0.1,0.1,0,0.1,0.1,0.2l0.3,0.2    c0.1,0.1,0,0.5-0.1,0.6c0,0.6,0,1.1,0.1,1.7c0.2,0.6,0.3,1.3,0.4,1.9c0.1,0.4-0.1,0.8-0.1,1.2c0.1,0,0.2,0.1,0.3,0.1    c0,0.2,0.1,0.4,0.1,0.6c-0.1,0-0.1-0.1-0.2,0s0,0.1-0.1,0.2c0.1,0.1,0,0.2,0.1,0.3c0.1,0.1,0.2,0.1,0.3,0.2    c0.1,0.1,0.1,0.2,0.2,0.3c0.1-0.1,0,0,0.1-0.1s0-0.2,0-0.2h0.1c0.2-0.2,0.3-0.4,0.3-0.7c0.9,0.1,1.4,1.4,2.1,1.8    c0,0,2.9,2.1,4.1,2.5c0.8,0.3,2,0.1,2.9,0.1h5.9c6.7,0,20,0,20,0s2.5-0.9,3.6-1.5c1.9-1,4.3-1.5,3.6-4.6c0.2-0.1,0.3-0.3,0.5-0.4    c0.2,0.2,0.4,0.1,0.6,0c0-0.1,0-0.1,0.1-0.2c0.2-0.2,0-0.5-0.1-0.7h-0.2v0.4c-0.1,0-0.1,0-0.2,0.1l-0.1-0.2    c-0.1-0.2,0.2-0.1,0-0.3c-0.3-0.3-1-0.3-1-1c-0.1-0.1,0-0.1-0.1-0.2c-0.1,0-0.1,0-0.2-0.1h0.2v-0.2h-0.1c-0.2-0.1-0.4,0-0.6,0    c0,0.2,0.1,0.2,0.1,0.3v0.1c-0.3-0.2-0.2,0-0.5-0.1c-0.1,0-0.1-0.2-0.2-0.2c0,0-0.1,0.1-0.2,0.1v-0.2c-0.1,0-0.3-0.1-0.5-0.1V10    c-0.1,0-0.1-0.1-0.1-0.1c-0.2-0.1-0.5,0-0.6-0.1c-0.3-0.2-0.6-0.4-0.7-0.4c-0.2,0.2-0.4,0.5-0.7,0.5c-0.1-0.2-0.4-0.2-0.7-0.2    c0-0.2,0-0.3,0.1-0.5h-1.3v0.1c-0.1,0.1,0,0.1-0.1,0.2H38c0,0,0-0.1,0.1-0.1h-0.4c-0.3,0.2-0.3,0-0.4-0.1c-0.2-0.1-0.3,0-0.4,0.1    V9.3H37c0.1,0-0.2-0.1-0.2-0.1v0.2c-0.1,0.1-0.2-0.2-0.2-0.2c-0.2-0.1-0.3,0.1-0.5,0.1V9.2c0.1-0.1,0.1-0.2,0.1-0.4    c0.4-0.1,0.6-0.4,0.9-0.5H39c0-0.1,0.1-0.1,0.1-0.2c1.1,0,2.2,0,3.3-0.1c0.1,0,0.5,0,0.7-0.1l0.2-0.1V7.7h1.9v0.1h3.4V7.7h0.3v0.2    H50V7.7c4.2,0,12.6-0.1,12.6-0.1v-1L50,6.7z M16,6.9h-0.1V5.1H16V6.9z M1.3,8.4c-0.1,0-0.2,0-0.2,0.1V8.2c0.1,0,0.1-0.1,0.3-0.1    C1.4,8.2,1.4,8.3,1.3,8.4z M9.8,8.1h-8V8h0.1c0.4-0.4,1-0.2,1.6-0.3c0.6-0.2,5.4,0.1,6.4,0.1v0.3H9.8z M10.2,8.1V7.9    c0.3,0,1,0,1.2,0.2H10.2z M22.7,1.6h-0.3V1.5L22.7,1.6L22.7,1.6z M23.4,2.7h-0.1c0,0.1,0,0.2,0.1,0.2H23l0,0c0-0.1,0-0.5-0.1-0.7    h0.4C23.4,2.4,23.5,2.6,23.4,2.7z M35.6,9.1c-0.1,0.1-0.3,0.1-0.5,0.1V9.1h0.2V8.9h0.1c0.1-0.1,0.1,0,0.2-0.1    C35.5,9.1,35.6,9.1,35.6,9.1z M41,9.6c0.1,0,0.1,0,0.2,0.1c0.1,0.1,0.1,0.1,0.1,0.2c-0.1,0-0.1,0-0.2,0.1c0,0,0,0-0.1,0    s-0.1-0.1-0.1-0.1C41,9.8,41,9.7,41,9.6z M36.4,5.8c-0.3-0.3-0.3-0.1-0.1-0.5h0.3c0,0.1,0.1,0.2,0.1,0.4    C36.5,5.7,36.6,5.8,36.4,5.8z"/>
	</g>
</g>
<g>
	<g>
		<path class="st3" d="M66.6,6.4v0.2c-5.3,0-20.7-0.1-23.1-0.1c-0.3-0.1-0.2-0.3-0.3-0.3c-0.3,0-0.6,0-0.9-0.1    C42.2,6,42,5.7,41.8,5.6c-0.1-0.1-0.4-0.1-0.5-0.2c-0.2-0.2,0.1-0.2-0.2-0.3V5c-0.1,0,0,0-0.1,0.1c-0.2,0.1-0.3,0.3-0.3,0.6    c-0.1,0-0.4,0-0.6-0.1c-0.4-0.2-0.8-0.7-1.4-0.8c-0.2,0-0.5,0-0.7-0.1c-0.3-0.1-1.9-0.4-2.1-0.5c0-0.2,0-0.4,0.1-0.5    c-0.2-0.1-0.5-0.2-0.6-0.1c-0.4,0-0.6-0.1-0.7,0.3c-0.1-0.1-0.1-0.4-0.1-0.5c-0.2,0.1-0.2,0.3-0.2,0.5c-0.1,0-0.2-0.1-0.2-0.1    c0,0-0.2,0.1-0.4,0c0,0,0-0.1-0.1-0.1c-0.1,0-0.4-0.1-0.5-0.1c-0.5-0.1-0.7,0.1-1.2,0l-0.2-0.1c-0.2,0-0.1,0.2-0.1,0.2    c-0.1,0.1-0.1,0-0.1-0.1c-0.1,0-0.3,0-0.4,0.1V3.4H31V3.2h-0.5c0-0.2,0-0.3,0.1-0.4c0-0.3,0-0.5-0.1-0.7c-0.5,0-0.7,0.5-0.7,1.1    c-0.1-0.1-0.1-0.2-0.1-0.4h-0.5v0.5c-0.2-0.1-0.1-0.1-0.1-0.4c-0.4-0.1-1-0.1-1.2,0.3c-0.2-0.1-0.1-0.1-0.1-0.3    c-0.2,0.1-0.1,0.1-0.1,0.3c-0.1-0.1-0.1-0.2-0.1-0.3c-0.2,0.1-0.1,0.1-0.1,0.3c-0.1,0-0.1-0.1-0.3-0.1V2.9h-0.7v0.2h-0.3V2.8    c-0.2,0.1-0.1,0-0.1,0.2C26,3,26,3,26,2.8c-0.3,0-1.6,0.1-1.8,0h-0.1V2.6h-0.2c-0.1,0.1,0,0-0.1,0.1C23.9,3,23.9,2.8,24,2.9    C24,3,23.9,3,23.9,3.1v0.5h-3.5c0-0.1,0-0.1-0.1-0.2c-0.5,0.2-3,0.2-3.6,0.2c0-0.2,0-0.2-0.1-0.3c-0.6,0-0.7-0.1-1,0.2v0.1h-0.1    V1.7h-0.1v1.8c-0.2-0.1-0.1-0.1-0.1-0.3h-0.1v0.3c-0.4,0-0.4,0-0.9,0v0.3h-0.1c0,0.6,0,1.2-0.1,1.8h0.1c0,0-0.1,0.5-0.1,0.6    c0.1,0.2,0,0,0,0.2c0,0.1,0.1-0.1,0.1,0.1c-0.1,0.1-0.1-0.1-0.1,0.1h0.1v0.3c1.2,0.3,2.4,0.8,3.6,1.2c0.3,0.1,5.1,0.3,5.3,0.3v0.1    c-0.6,0-5.3-0.3-5.6-0.3C16.7,7.9,16,7.9,15,7.9c0-0.2-0.1-0.2-0.1-0.3h-0.1c0,0.1-0.1,0.1-0.1,0.3c-0.3,0-0.4-0.1-0.6-0.2    c0,0-0.3,0.1-0.4,0c0,0-0.2-0.1-0.2-0.1V7.5h-0.3l-0.2-0.1c-0.1,0-0.1,0-0.2,0.1c0,0,0-0.1-0.1-0.1h-0.4c-0.2-0.1-0.2-0.1-0.5-0.1    c0-0.2,0-0.2-0.1-0.3c-0.6,0-1.2,0-1.6,0c-0.1,0-0.2,0-0.3-0.1c-0.1,0-0.4,0.1-0.7,0.1c0,0,0-0.1-0.1-0.1c-0.1,0-0.3,0.1-0.5,0.1    c-0.9-0.2-3.2-0.1-3.9,0C4.1,6.9,3.3,6.6,3,6.8C2.8,6.9,2.9,6.8,2.9,7.1C2.7,7,2.8,7,2.7,6.9H2.4v0.2c-0.3,0-0.3,0.1-0.5,0.2    c0,0,0,0.1-0.1,0.1C1.7,7.5,1.2,7.5,1,7.5v0.2H0.8c-0.1,0.2,0,0.9,0.1,1v0.4C1,9.4,1.2,9.7,1.3,9.9c0.1,0.1,0,0.5,0,0.5    c0,0.1,0.1,0,0.1,0.3c0.2,0,0.4,0,0.5-0.1c0.1,0.1,0.1,0.1,0.1,0.3c0.2-0.2,0.4-0.4,0.8-0.4c0,0.1-0.1,0-0.1,0.1    c0,0.1,0,0.1-0.1,0.2H2.5c0,0-0.2,0.9-0.1,1h0.1v2.4c-0.3-0.1-0.7,0-1,0.2c0,0.3,0,0.6,0.1,0.7c0.4,0.6,0.9-0.4,0.9,0.9h0.1v-0.8    h0.2v0.1C3.1,15.3,3.3,15,3.5,15c0.1,0.1,0.1,0.1,0.1,0.3h0.1c0,0.1,0,0.1-0.1,0.1c-0.1,0.1-0.2,0-0.3-0.1H3.2    c0,0.3,0.1,0.3,0.2,0.6C3.9,16,3.9,16,4.2,15.7c0.3,0.4,3.3,3.2,4.1,3.5c0.7,0,1.4,0,2,0.1h24.5c0.7,0,2.5,0,3-0.2    c0.1,0,6.2-2.6,6.3-4.5c0.1,0.1,0,0.1,0.1,0.2c0.1,0.1,0.3,0.2,0.3,0.3c0.2,0,0.2,0,0.3-0.1c0.3-0.1,0.3-0.3,0.5-0.4v-0.1    c0,0-0.1,0-0.1-0.1c-0.1,0-0.2,0.1-0.5,0.1c0.1-0.4,0.2-0.5,0.3-0.9c-0.2-0.2-0.2-0.4-0.6-0.4V13c0.4-0.1,0.7-0.2,1-0.4    c-0.1-0.3-0.9-1.4-1.2-1.5V9.8C44,9.9,44.1,9.8,44,10c-0.3,0-0.7,0-0.8,0.1C43,10.1,43.1,10,42.9,10c0,0,0-0.3-0.1-0.1V10h-0.2    c0-0.3-0.1-0.3,0.1-0.4V9.5h-0.6c0.1,0.1,0.1,0.1,0.3,0.1v0.2c-0.2,0-0.5,0-0.7-0.1c-0.1,0-0.2,0.2-0.3,0.2    c-0.1,0-0.5-0.2-0.6-0.2c-0.3-0.1-0.7,0-1-0.1c-0.3-0.1-0.8,0.1-1-0.1h-0.6V9.4c0.4,0,1.6,0,1.8,0.1h0.7c-0.1-0.2-0.3-0.6-0.1-0.8    c0-0.1,0-0.1,0.1-0.1c0.1-0.1,0.1,0,0.2-0.1V9c0.3-0.1,0.6-0.2,0.9-0.3c0.1-0.1,0.3-0.3,0.4-0.3c0.3,0,0.6,0,1-0.1    c0.1,0,0.1-0.3,0.2-0.3c2.8,0,18.3-0.1,23.2-0.1v0.2h4.8V7.8C71.7,7.7,71.9,8,72,7.9c0.7-0.1,1.6-0.1,2.5-0.1V6.5    C71.8,6.5,69.5,6.4,66.6,6.4z M14.2,3.9c0.1,0.1,0.1,0.2,0.1,0.3C14.2,4.2,14.2,4.1,14.2,3.9z M16.7,3.5c-0.3,0-0.6-0.1-0.7,0    h-0.2c0-0.2,0.1-0.2,0.1-0.3c0.2,0,0.5,0,0.7,0.1v0.1h0.1V3.5z M2.6,7.1L2.6,7.1C2.5,7.1,2.5,7,2.5,6.9h0.1V7.1z M2.2,14.9    c-0.2,0-0.2,0-0.3-0.1v-0.3c0.1,0,0.3,0,0.4-0.1C2.3,14.7,2.2,14.7,2.2,14.9z M3.1,13.8c-0.2,0-0.2,0.1-0.4,0.1v-0.7    c0.2,0,0.1,0.1,0.3,0h0.1V13.8z M14.8,7.9h-0.1V7.7h0.1V7.9z M43.7,10.2H44v0.3h-0.5C43.6,10.4,43.6,10.4,43.7,10.2z M41.8,10    c0.1,0,0.3,0,0.4-0.1c0,0.2,0,0.3,0.1,0.5h-0.1v0.1c-0.2,0-0.2,0-0.3-0.1c-0.1,0.1,0.1,0.1-0.1,0.1c-0.1-0.1,0-0.1-0.1-0.1    C41.7,10.3,41.8,10.2,41.8,10z M41.1,5.3c0,0-0.3,0-0.2-0.1c0-0.1,0.1,0,0.1-0.1h0.1V5.3z"/>
	</g>
</g>
</svg>