<?xml version="1.0" encoding="utf-8"?>
<!-- Generator: Adobe Illustrator 27.2.0, SVG Export Plug-In . SVG Version: 6.00 Build 0)  -->
<svg version="1.1" id="Layer_1" xmlns="http://www.w3.org/2000/svg" xmlns:xlink="http://www.w3.org/1999/xlink" x="0px" y="0px"
	 width="52px" height="23.1px" viewBox="0 0 52 23.1" style="enable-background:new 0 0 52 23.1;" xml:space="preserve">
<style type="text/css">
	.st0{display:none;fill-rule:evenodd;clip-rule:evenodd;fill:#FAB81B;}
	.st1{display:none;}
	.st2{display:inline;}
	.st3{fill-rule:evenodd;clip-rule:evenodd;fill:#FAB81B;}
	.st4{fill-rule:evenodd;clip-rule:evenodd;fill:#8C8C7C;}
	.st5{fill-rule:evenodd;clip-rule:evenodd;fill:#F8B71A;}
</style>
<path class="st0" d="M0.8,12.4l0.9-0.1l-1.3-1H2l2.1,1h8.3v-1H8.3l0.5-1.1L8,9.8l0.2-0.6L7.3,9.4L6.8,9V7.2L6.4,6.4l0.5-0.5l1.5,0.4
	l2-0.2v-1H8.3l0.3-0.8l-0.3-1l2.8-0.1v3l0.8-0.6L12,2.3l0.1,4h0.6l0.5,0.5l0.4,0.3l1-0.3h0.9V5.3h4.9c0.1,0.1,0,1.9,0,1.9l2.2-0.1
	v0.5L23.7,8l0.8-0.7L24.8,8l0.6,0.3v-1c0,0,1-0.2,1,0s0,1.2,0,1.2L27.7,9l-0.4-0.6c0,0,0.4-0.8,0.5-0.7c0.2,0.1,2,0.9,2,0.9l2.6,0.1
	h3V9l10,0.2v0.9l-10,0.3v0.4h-2.8l-2.9,0.5l-2.3,0.2l-0.5,0.7l4.7-0.3l0.2,0.1h0.6h0.5l0.1,0.2l1.4,1.1v-0.9h1v1.2
	c0,0,1.8,1.1,2,1.1s1-0.5,1-0.5l2,0.3v1.3L39.1,17l1,1.2l-0.5,0.5l-0.8-0.5l-0.4,0.1l1.1,0.8l-0.4,0.6L38,18.8l-0.4,0.3l1.1,0.8
	l-0.4,0.4l-2,0.2l-3.8,2l-2.1,0.8H10.8L9,22.6L3.9,21c0,0-0.7-2-0.8-2.1c-0.1,0-1.6-1.3-1.6-1.3l0.6-0.3l-0.6-1l-0.9,0.1l-0.1-2.1
	h1.2l0.8,1L3,14.9l-0.5-0.8l-1.1-0.2l-1-0.5L0.8,12.4z"/>
<g class="st1">
	<g class="st2">
		<path class="st3" d="M43,9.9c0,0-5.4-0.1-5.6-0.2c-0.9,0-1.8,0-2.6,0c-0.2-0.2-0.4-0.5-0.7-0.7c-1.1,0-2.2,0-3.3,0
			c0-0.2,0-0.6-0.1-0.8c-0.1-0.1-0.8-0.3-0.9-0.4c-0.4-0.1-0.8,0.1-1-0.1c-0.2,0-0.2,0.1-0.4,0.1c0,0.1,0,0.1,0,0.2
			c-0.6,0-1.2-0.1-1.8-0.1c0,0,0-0.1,0-0.1c-0.1,0-0.1,0-0.2,0c0-0.1,0-0.1,0-0.2c0,0-0.1,0-0.1,0c-0.1-0.1,0-0.3,0-0.4
			c0-0.1-0.1-0.1-0.1-0.2c-0.2,0-0.4,0-0.5,0.1c-0.1,0.1-0.2,0.5-0.2,0.7c-0.2,0-0.6,0-0.7-0.1c-0.1,0-0.3,0-0.4,0
			c0-0.1,0,0,0.1-0.1c0,0,0-0.1,0-0.1c-0.1,0-0.2-0.1-0.3-0.1c0,0,0,0.1-0.1,0.1c-0.1,0-0.2-0.1-0.4-0.1c0,0-2.3-0.2-2.4-0.2
			c0,0,0,0.1,0,0.1L21,7.5c-0.2,0-2.3-0.2-2.5-0.2c0-0.1-0.1-0.1-0.1-0.2c-0.1,0-0.4-0.1-0.4-0.1c-0.2,0-0.3,0-0.5,0.1
			c0,0,0-0.1,0-0.1c0,0-0.1,0-0.1,0c0,0-0.1,0-0.1,0.1c-0.1,0-0.6-0.1-0.7-0.1c-0.1,0,0,0.1-0.2,0.1c0,0,0-0.1-0.1-0.1
			c-0.3,0-0.5,0-0.8,0.1c0,0,0,0.1,0,0.1c-0.1,0-1.1-0.1-1.2-0.1c0,0-0.1,0-0.1,0c0-2.3,0-4.6,0-6.9c0,0,0,0-0.1,0
			c-0.2,0.5-0.1,1.5-0.1,2.1c0,1.6,0,3.2,0,4.7c-0.1,0-0.3,0-0.3,0.1c-0.2,0.2-0.2,0.6-0.3,0.8c-0.1,0.2,0,0-0.2,0.1
			c-0.1,0.1-0.1,0.2-0.2,0.3c0,0.2,0,0.2,0.2,0.2c-0.1,0.2-0.1,0.4-0.2,0.6c-0.2,0-0.2,0-0.3,0.1c0,0,0,0-0.1,0c0.1,0.1,0,0,0.2,0
			c0,0.3,0,0.5-0.1,0.8c-0.1,0-0.1,0-0.2,0.1c0,0.1,0,0.1,0.1,0.2c0,0.1-0.4,0.8-0.4,1.1c-0.1,0-0.1,0-0.2-0.1
			c0,0.1-0.1,0.2-0.2,0.3c0,0.3,0,0.2,0.2,0.2c-0.1,0.3-0.3,1-0.5,1.3c-0.1,0.1,0,0-0.2,0.1c0-0.2,0-0.4,0-0.6c0.1,0,0.1,0,0.2,0.1
			c0-0.1-0.1-0.1-0.1-0.2c-1.3,0-2.5,0-3.8,0c0-0.1,0-0.1-0.1-0.2c-0.2,0-0.4,0-0.5,0c-0.2-0.7-0.4-1.4-0.6-2.1c0-0.6,0-1.1,0-1.7
			c0.2,0,0.3,0,0.4-0.1c0-0.1,0-0.3,0-0.4C6.8,8,6.8,8.1,6.7,8c0,0,0,0-0.1,0c0,0,0,0,0-0.1C7,7.8,7.8,8.1,8.2,7.7c0-0.1,0,0,0-0.1
			c0-0.1,0-0.1,0-0.2C8.4,7.5,9,7.8,9.3,7.7c0.2-0.1,0.3-0.3,0.4-0.3c0.2,0,0.4,0,0.6,0c0-0.5,0-0.9-0.1-1.3c-0.1,0-0.1,0-0.2,0
			c0,0.1,0,0.1,0,0.2c0,0-0.1,0-0.1,0c0-0.3,0.2-0.4-0.1-0.5c0-0.1,0-0.3,0-0.4c0,0,0.1,0,0.1,0.1c0-0.1,0-0.2,0-0.3
			c-0.1,0-0.1,0-0.2,0c0,0,0,0.1-0.1,0.1c0,0,0,0-0.1,0c0,0,0,0,0,0.1c0,0,0,0,0.1,0c0,0.5,0,1,0,1.5c0,0,0,0-0.1,0
			C9.6,6.6,9.4,6.5,9.3,6.4C9.2,5.9,9.2,5.6,8.9,5.2c-0.2,0-0.2,0.1-0.3,0.1C8.5,5.2,8.4,5,8.3,4.9c-0.1-0.1-0.1,0-0.2-0.1
			c0,0,0,0-0.1,0C8.1,5,8.1,5,8.2,5.1c0,0,0,0.1,0,0.1c-0.1,0-0.3,0-0.3-0.1c0,0-0.1,0-0.1,0c0-0.4,0.1-0.8,0.1-1.2
			C7.5,3.9,7,4,6.6,3.8c-0.2,0.6,0,1.4-0.5,1.8C5.8,5.8,4.7,5.1,4.4,5.1C3.9,5.3,3.5,4.9,3.1,4.8c-0.1,0-1-0.2-1.3-0.3
			C0.7,4.1-0.8,3.8-1.8,3.3c-0.1,0.1-0.1,0.1-0.2,0.2c0,0.1,0,0.2,0.1,0.3c1.1,0,1.7,0.6,2.6,0.7c0,0.1,0,0.1-0.1,0.1
			c0,0.1,0,0,0.1,0.1c0.2,0.2,0.7,0.1,0.9,0.3c0.1,0,0.1,0,0.2,0c0,0,0-0.1,0-0.1c-0.2,0-0.3-0.1-0.4-0.2c0,0,0,0-0.1,0
			c0,0,0,0,0-0.1c0.4,0.2,1.2,0.5,1.6,0.5C2.8,5.2,2.6,5.1,2.5,5C2.4,5,2.4,5,2.3,5c0,0,0,0.1,0,0.1c0.1,0,0.2,0,0.3,0.1
			c0,0.1,0,0.1,0,0.2c0.4,0.2,0.8,0.3,1.3,0.3C4,6,4.1,5.8,4.3,6c0.1,0,0,0.1,0.1,0.2C4.5,6.8,4.6,7.4,4.6,8
			c0.1,0.3,0.2,0.4,0.2,0.8c0,0,0.1,0,0.1,0C5,8.7,5,8.7,5,8.5c0.1,0,0.3,0,0.4,0c0,0.6,0,1.1,0,1.7c-0.2,0.6-0.5,1.4-0.6,2.1
			c-0.2,0-0.4,0-0.6,0c0,0.2,0,0.2-0.2,0.2c0.1,0.2,0,0.1,0.2,0.1c0,0.2,0,0.4,0,0.6c-0.3,0-0.2-0.1-0.3-0.2c0,0-0.1,0-0.1,0
			c0,0-0.1,0.1-0.2,0.1c-0.1,0-0.2,0-0.3-0.1l-0.1,0.1c0,0,0,0.1,0,0.1c-0.1,0-0.3,0-0.4,0c0,0.3,0,0.4,0,0.6c0,0-0.1,0-0.1,0
			c0-0.1,0-0.2-0.1-0.2c-0.1-0.1-0.3-0.2-0.3-0.3c-0.5,0-0.6,0.1-0.8,0.3c-0.1,0.3-0.2,0.9-0.1,1.1c0,0.2,0.2,0.4,0.4,0.4
			c0.2,0.2,0.7,0,1-0.1c0,0.1,0,0.2,0,0.3C2,15.3,1.4,15.5,1,15.8C0.9,15.9,0.8,16,0.7,16c0,0.1,0,0.1,0.1,0.2
			c0.1,0.2,1.2,0.8,1.4,1c0,0,0.1,0,0.1,0.1c0,0-0.1,0.3-0.1,0.3c0,0.2,0,0.4,0,0.7c0,0.1-0.2,0.2-0.3,0.3C1.9,19,2,18.8,2.1,19
			c0.1,0.2-0.1,0.5,0.1,0.7c0.1,0.1,0,0,0.2,0.1c0-0.2,0-0.4,0-0.7c0,0,0.1,0,0.1,0c0.5,1,5.3,3.3,6,3.5c6,0,11.9,0,17.9,0
			c1.7,0,3.4,0,5.2,0c1.1,0,2.2,0.1,3-0.2c0.5-0.2,5.1-2.3,5.5-2.9c0.2-0.3,0.7-1.5,0.3-2c0-0.5,0.6-0.7,0.8-1.2
			c-0.4-0.2-0.8-0.6-1.3-0.8c-0.2-0.1-0.6-0.2-0.9-0.2c-0.3,0-0.6,0-0.9,0c-0.1,0-0.2-0.2-0.4-0.2c0-0.2,0-0.4,0-0.5
			c-0.2,0-0.2,0-0.3,0.1c0,0.1,0,0.2-0.1,0.3c-0.5,0-0.6-0.1-0.9-0.2c0-0.1,0-0.1-0.1-0.2c-0.1,0-0.1,0-0.2-0.1c0,0,0,0-0.1,0
			c0,0,0,0,0-0.1c0.1,0,0.1,0,0.2,0c0-0.1,0-0.1,0-0.2c-0.2-0.1-0.3,0-0.5,0c0.1-0.2,0.2-0.4,0.4-0.4c0-0.1-0.2-0.4-0.2-0.4
			c-0.2-0.2-0.4-0.3-0.7-0.4c-0.1,0-0.1,0-0.2,0c0,0,0.1,0.2,0.1,0.2c-0.1,0.1-0.1,0.1-0.2,0.2c0.1,0.2,0,0.3,0,0.5
			c-0.5-0.1-0.6-0.4-1-0.5c0-0.2,0-0.3,0-0.5c-0.2,0-0.4,0-0.6,0c0,0.1,0,0.3,0,0.4c-0.1,0-0.2-0.1-0.3-0.1c-0.1,0-0.7,0.1-0.7,0.1
			c0-0.1,0-0.1-0.1-0.2c-0.2-0.1-0.4,0.1-0.4,0.2l-0.1-0.1c-0.3,0-0.7,0-0.8,0.2c-0.1,0-0.1,0-0.2,0c0.3-0.4,0.1-0.4,0-0.8
			c1.9,0,3.7,0,5.6,0c0.1-0.1,0.3-0.4,0.5-0.5c0-0.1-0.1-0.2-0.2-0.2c0,0,0-0.1,0-0.1c0.7,0,6.3-0.3,6.3-0.3s12.6-0.1,13-0.1
			c0-0.4,0-0.7,0-1.1C55.2,10.1,43,9.9,43,9.9z M10,6.5C10,6.5,10,6.5,10,6.5C10,6.6,10,6.6,10,6.6c0,0,0,0-0.1,0
			C10,6.6,10,6.6,10,6.5z M8.4,6.3c-0.1,0-0.2,0-0.3-0.1c0-0.1,0-0.2-0.1-0.2c0,0,0,0,0-0.1C8.1,6,8.3,6,8.3,6.1c0,0,0.1,0,0.1,0
			C8.4,6.2,8.4,6.2,8.4,6.3z M8.3,5.8c0.1,0,0.2,0,0.3,0C8.5,5.9,8.4,5.9,8.3,5.8z M9.5,6.8c-0.1,0-0.1-0.1-0.2-0.2
			C9.4,6.6,9.5,6.8,9.5,6.8z M9.2,6.4C9.1,6.4,9,6.4,8.9,6.4C9,6.4,9.1,6.4,9.2,6.4z M8.9,7.3c0.2,0,0.4,0,0.6,0c0,0,0,0,0,0.1
			c-0.1,0-0.1,0.1-0.2,0.1c-0.2,0-0.3,0-0.4-0.1C8.9,7.4,8.9,7.4,8.9,7.3z M8.8,6.4c0,0-0.1,0-0.1,0c0,0,0-0.1,0-0.1
			C8.7,6.3,8.7,6.3,8.8,6.4C8.8,6.4,8.8,6.4,8.8,6.4z M7.7,5.3C8,5.4,8.3,5.5,8.7,5.5c0,0.1,0,0.1-0.1,0.2c-0.3,0-0.7,0.1-0.8-0.1
			c0,0-0.1,0-0.1,0C7.7,5.5,7.7,5.4,7.7,5.3z M7.7,5.9c0.1,0,0.1,0,0.2,0c0,0,0,0,0,0.1c0,0,0,0,0.1,0c0,0.1,0,0.1,0,0.2
			C7.8,6.1,7.8,6.1,7.7,6C7.7,6,7.7,5.9,7.7,5.9z M7.9,7.3C7.9,7.4,7.9,7.4,7.9,7.3C8,7.5,8,7.4,8,7.6c-0.1,0-0.3,0-0.4,0.1
			c-0.1,0-0.3,0-0.4,0C7.3,7.3,7.6,7.3,7.9,7.3z M6.7,6.9C6.7,6.9,6.7,6.9,6.7,6.9C6.6,6.9,6.6,6.9,6.6,7c-0.1-0.1,0,0-0.1-0.2
			C6.6,6.8,6.6,6.8,6.7,6.9z M3.5,5.4c0.2,0,0.4,0,0.5,0.2C3.9,5.5,3.7,5.4,3.5,5.4z M2.4,14.7c0-0.1,0-0.1,0.1-0.2
			c0.1,0.1,0.1,0,0.1,0.2C2.6,14.7,2.5,14.7,2.4,14.7z M4.5,13.2c0,0-0.1,0-0.1,0c0-0.1,0-0.1,0-0.2c0,0,0.1,0,0.1,0
			C4.5,13,4.5,13.1,4.5,13.2z M4.5,12.7c0,0,0,0.1,0,0.1c0,0,0,0-0.1,0c0-0.1,0-0.1,0-0.2c0.1,0,0.1,0,0.2,0
			C4.5,12.6,4.6,12.6,4.5,12.7z M4.9,8.3c0-0.1,0-0.1-0.1-0.2C5,8.1,5,8.1,4.9,8.3C5,8.3,4.9,8.3,4.9,8.3z M6.1,7.2
			C5.7,7.4,5.4,7.7,5.1,8C5.1,8,5,8,4.9,8C4.8,7.4,4.7,6.8,4.6,6.1c0.5,0,0.7,0.3,1.2,0.4c0,0.1,0,0.3,0.1,0.3C5.9,7,5.9,6.9,5.8,7
			c0,0,0,0.1,0,0.1C5.9,7.1,5.9,7,6,7C6,7.1,6,7.1,6.1,7.2C6,7.2,6.1,7.2,6.1,7.2C6.1,7.2,6.1,7.2,6.1,7.2z M6.1,6.7
			c0,0,0.1,0,0.1,0c0,0,0,0.1,0,0.1c0,0-0.1,0-0.1,0C6.1,6.8,6.1,6.7,6.1,6.7z M6.3,7C6.3,7,6.3,7,6.3,7C6.3,7,6.3,7,6.3,7
			c0,0,0-0.1,0-0.1C6.3,6.9,6.3,6.9,6.3,7z M7.7,12.8c-0.1,0-0.1,0-0.2,0c-0.1-0.1-0.1-0.2-0.2-0.2c0,0,0,0,0-0.1c0.1,0,0.2,0,0.3,0
			C7.7,12.7,7.7,12.8,7.7,12.8z M8.3,12.6c-0.1,0.1-0.1,0.1-0.2,0.2c-0.1,0-0.1,0-0.2,0c0-0.1,0-0.2,0-0.3
			C8.1,12.6,8.2,12.6,8.3,12.6C8.3,12.6,8.3,12.6,8.3,12.6z M11.1,13.2c0-0.1,0-0.2,0.1-0.3c0.1,0.1,0.1,0.1,0.1,0.3
			C11.2,13.2,11.1,13.2,11.1,13.2z M11.2,12.8c-0.1-0.1-0.1-0.2-0.2-0.2c0.1-0.1,0,0,0.2-0.1C11.2,12.7,11.2,12.8,11.2,12.8z
			 M35.6,13.1c0,0.1,0,0,0,0.1c0,0,0,0.1,0,0.1c0,0,0,0-0.1,0C35.6,13.3,35.6,13.2,35.6,13.1z M35.8,13.6c0.1,0.1-0.1,0.3-0.2,0.3
			c0,0,0,0,0,0.1c0,0,0,0-0.1,0C35.6,13.9,35.7,13.7,35.8,13.6z"/>
	</g>
</g>
<g class="st1">
	<g class="st2">
		<path class="st4" d="M55.4,8.4c-0.5,0-18.3-0.2-18.3-0.2L37,8c0,0-10-0.2-10.6-0.2c-0.2,0-0.6,0.1-0.8-0.1c-1.1,0-2.3,0-3.4,0
			c-0.7,0-1.1,0.1-1.4-0.3c-1,0-2.1,0-3.1,0c0-0.2,0-0.5-0.1-0.7c0-0.1,0.2,0,0.1-0.2c0-0.1-0.1,0-0.2-0.3c-0.6,0-1.2,0-1.8,0
			c0-0.1,0-0.1,0-0.2c0,0-0.1,0-0.1,0c-0.1-0.1,0-0.3,0-0.4c0-0.1-0.1-0.1-0.1-0.2c-0.2,0-0.3,0-0.4,0.1c-0.3,0.1,0,0.3-0.2,0.5
			C15,6.1,14.9,6,14.9,6.2c-0.4-0.1-6.6,0-6.8-0.1c-0.1,0,0-0.1-0.1-0.1c0,0,0,0.1-0.1,0.1c-0.6,0-3.7,0.1-4.4,0.1
			c0,0.4,0,0.7-0.1,1.1c-0.1,0-0.1,0-0.2-0.1c0,0,0,0-0.1,0c0,0.2-0.1,0.6,0,0.7c0,0.1,0,0,0.1,0.1c0,0.5-0.1,0.9-0.1,1.4
			c-0.1,0-0.1,0-0.2,0.1L3,9.7c-0.1,0.5,0.4,0.9,0.1,1.3c0,0.2,0,0.5-0.1,0.6c-0.1,0,0,0-0.2,0.1c0,0.2,0,0.5-0.1,0.7
			c0,0.1,0.3,0.1,0.2,0.3c-0.1,0-0.1,0-0.2,0.1c0,0.1,0,0.1,0,0.2c-0.2,0-0.2,0-0.4-0.1c0,0.1,0,0.1-0.1,0.1c0,0.4,0.1,0.1-0.1,0.4
			c0.1,0.1,0,0.1,0,0.3c0,0,0,0,0.1,0c0,0,0,0,0,0.1c0.1-0.1,0.1-0.1,0.1-0.3c0,0,0.1,0,0.1,0c0,0.3,0,0.6-0.1,0.7
			c0,0.1,0,0-0.2-0.1c0,0.1,0,0.1,0,0.2c0.2,0,0.1,0.1,0.2-0.1c0,0,0,0,0.1,0c0,0.2,0,0.8-0.1,1c-0.1,0.1,0,0.1-0.2,0.1
			c0.1,0.1,0,0.1,0.2,0.1c-0.1,0.2-0.8,0.8-1,1c-0.1,0.1-0.1,0.1-0.2,0.2c0,0.1,0,0.3-0.1,0.4c0,0-0.1,0.2-0.2,0.3
			c-0.1,0.3,0.2,0.4,0.2,0.5c0,0.2,0,0.4,0,0.6c0,0.1,0.1,0.3,0.2,0.5c0.2,0.4,0.5,0.6,0.8,0.8c0.1,0.2,0.3,0.3,0.4,0.5
			c0,0,0.1,0,0.1,0c0.1,0.1,0.2,0.3,0.4,0.4c0,0,0.1,0,0.1,0c0.1,0.1,1.5,1.5,2.3,1.8c0.5,0.2,1.4,0.2,2,0.2c1.3,0,2.6,0,4,0
			c4.5,0,9.1,0,13.6,0c2.2,0,4.5,0,6.7,0c0.8,0,2.2-0.1,2.9-0.2c1-0.2,3.5-1.5,3.7-1.7c0,0,0.1,0.1,0.1,0.2c0.1,0.1,0,0,0.1,0.1
			c0,0,0-0.3,0.1-0.4c0,0,0.6-0.3,0.7-0.3c0.6-0.4,1.4-1.3,1.1-2.3c-0.1-0.4-0.1-0.8-0.4-1.1c0-0.2,0.1-0.2,0.2-0.3
			c-0.1-0.3-0.4-0.4-0.6-0.5c-0.8-0.5-2.1-0.5-3.5-0.5c0.1-0.1,1-0.1,1.3-0.1c0-0.1,0-0.1,0-0.2c0.1,0,0.1,0.1,0.1,0.2
			c0,0,0.1,0,0.1,0c0-0.2,0-0.3-0.1-0.4c0-0.2,0-0.4,0-0.6c0,0,0,0-0.1,0c-0.1,0.1-0.1,0.2-0.1,0.4c-0.1-0.1-0.1,0-0.1-0.2
			c-0.4,0-1.2,0.1-1.3-0.2c-0.1,0-0.1,0.1-0.2,0c-0.1,0.1-0.1,0.1-0.1,0.2c-0.3,0-1.2,0.1-1.3-0.1c0,0,0,0-0.1,0c0,0.1,0,0.2,0,0.4
			c-0.3,0-3.1-1-3.4-1.2c-0.2-0.1-0.1-0.1-0.2-0.3c-0.1,0.1-0.1,0.1-0.2,0.2c-0.1-0.1-0.1,0-0.1-0.2c-0.2-0.1-0.5-0.1-0.7-0.2
			c0-0.1,0-0.1-0.1-0.2c0,0,0,0-0.1,0c-0.1,0-0.1,0.1-0.2,0.1c0,0-0.2-0.1-0.2-0.1c0,0,0,0.1-0.1,0.1c-0.5-0.3-1.2-0.4-1.7-0.6
			c-0.1,0-0.3-0.2-0.4-0.2c0,0-0.3,0.1-0.3,0.2c-0.1,0,0,0-0.1-0.1c0,0,0,0,0-0.1c-0.1,0-0.2,0-0.3,0c-0.2,0-0.1,0.1-0.2,0.1
			c-0.3,0.1-0.8-0.1-0.9,0c-0.1-0.1,0,0,0-0.1c0,0,0,0-0.1,0c-0.1-0.1-0.1,0.1-0.1,0.1c-0.1,0.1-0.4-0.1-0.5,0
			c-0.1,0-0.1-0.1-0.3-0.1c0-0.5,0-1.1,0-1.6c0,0-0.1,0-0.1,0c0,0.3,0.1,1.4-0.1,1.6c0,0,0,0.1,0,0.1c-0.2-0.1-0.1-0.6-0.2-0.8
			c-0.2-0.5-0.8-0.4-1.2-0.4c0-0.2,0-0.3-0.1-0.4c-0.1-0.1-0.3,0-0.4-0.1c0,0,0,0-0.1,0c0,0,0,0,0-0.1c0.6,0,0.7-0.1,1-0.4
			c0.9,0,2.2,0.1,3-0.1c0.5-0.1,1.1,0,1.5-0.1c0.5-0.1,1.1,0,1.5-0.1c0.4,0,0.7,0,1.1,0c0.5,0,0.9,0,1.4-0.1c0.5,0,4.3-0.1,5.3-0.1
			c0,0,0-0.1,0.1-0.1c1.5,0,17.4-0.2,18.3-0.2c0.2,0.1,0.3,0.2,0.6,0.2c0-0.6,0-1.1,0-1.7C55.7,8.2,55.6,8.4,55.4,8.4z M2.6,15.2
			c0-0.1,0-0.1,0-0.2c0,0,0,0,0.1,0c0,0,0,0,0,0.1c0,0,0.1,0,0.1,0C2.7,15.2,2.7,15.2,2.6,15.2z M19.1,12.4c-0.1,0-0.3,0-0.4,0.1
			c0-0.1,0-0.1,0-0.2c-0.3,0-0.4,0-0.7,0c0,0.1,0,0.1,0,0.2c0,0-0.1,0-0.1,0c0-0.2,0-0.4,0-0.5c0,0,0.1,0,0.1,0l0.1-0.2
			c0.1-0.2-0.1-0.2-0.1-0.2c0-0.3,0-0.5-0.1-0.8c0.4,0,0.9,0,1.3,0C19.2,11.1,19.3,12.2,19.1,12.4z M20.2,12.3
			C20.2,12.3,20.2,12.3,20.2,12.3c0,0-0.2,0-0.1,0C20.1,12.4,20.1,12.4,20.2,12.3C20.1,12.4,20.1,12.4,20.2,12.3c-0.3,0-0.7,0-1,0
			c0-0.5,0-1.1,0-1.6c0.3,0,0.7,0,1,0c-0.1,0.2-0.5,0.1-0.7,0.1c0,0.1,0,0-0.1,0.1c0,0.3-0.1,1.2,0.1,1.3c0,0,0,0,0,0.1
			C19.8,12.3,20,12.2,20.2,12.3C20.2,12.3,20.2,12.3,20.2,12.3C20.2,12.3,20.2,12.3,20.2,12.3C20.2,12.4,20.3,12.4,20.2,12.3
			C20.3,12.4,20.2,12.4,20.2,12.3z M37.4,15.1c0-0.1,0-0.1,0-0.2c0,0,0.1,0,0.1,0c0,0.1,0,0-0.1,0.1c0,0.1,0,0.2,0,0.3
			c-0.1-0.1-0.1-0.1-0.2-0.2C37.3,15.1,37.2,15.1,37.4,15.1z M35.8,15.3c-0.1,0.1-0.1,0.1-0.2,0C35.7,15.3,35.8,15.3,35.8,15.3z
			 M22.9,12.3C22.9,12.2,22.9,12.3,22.9,12.3c0.1-0.2,0.1-0.3,0.1-0.4c0.1,0,0.2,0,0.3,0c0,0,0,0.1,0.1,0.1c0,0,0-0.1,0-0.1
			c0.1,0,0.2,0,0.3,0c0,0.2,0,0.4,0,0.5c-0.2,0-0.7-0.2-1,0c-0.1-0.1,0.1,0,0-0.1c-0.1,0-0.1,0-0.2,0C22.6,12.2,22.7,12.3,22.9,12.3
			z"/>
	</g>
</g>
<g class="st1">
	<g class="st2">
		<path class="st5" d="M22.9,5.7c0-0.2,0-0.3-0.1-0.4C22.8,5.4,22.8,5.5,22.9,5.7C22.9,5.7,22.9,5.7,22.9,5.7z M22.9,5.7
			c0,0.1,0,0.2,0,0.3C23,5.9,23,5.8,22.9,5.7z M53.7,11v-0.2c0,0-1.7,0-2.5,0c0-0.2,0-0.3,0-0.5c-0.8,0-1.1,0-1.3,0.5
			c-0.1,0-0.1,0-0.2,0c0,0,0-0.1,0-0.1c-0.1,0-0.1,0.1-0.2,0.1c-0.3,0-0.6,0-0.9,0c0,0,0-0.1,0-0.1c0,0-0.1,0-0.1,0c0,0,0,0.1,0,0.1
			c-0.4,0-0.8,0-1.1-0.1c0-0.1,0-0.2,0-0.4c-0.8,0-1.1,0-1.3,0.5c-0.1,0-0.1,0-0.2,0c0,0,0-0.1,0-0.1c0,0-0.1,0-0.1,0
			c0,0,0,0.1,0,0.1c-0.3,0-0.5,0-0.8,0c-0.1,0-0.1,0-0.2,0c0,0,0-0.1,0-0.1c0,0-0.1,0-0.1,0c0,0,0,0.1,0,0.1c-0.1,0-0.2,0-0.3,0
			c0-0.2,0-0.3,0-0.5c-0.7,0-1.1,0-1.3,0.5c-0.1,0-0.1,0-0.2,0c0,0,0-0.1,0-0.1c0,0-0.1,0-0.1,0c0,0,0,0.1,0,0.1c-0.3,0-0.5,0-0.8,0
			c-0.1,0-0.1,0-0.2,0c0,0,0-0.1,0-0.1c0,0-0.1,0-0.1,0c0,0,0,0.1,0,0.1c-0.1,0-0.2,0-0.3,0c0-0.2,0-0.3,0-0.5c-0.8,0-1,0-1.3,0.5
			c-0.1,0-0.1,0-0.2,0c0,0,0-0.1,0-0.1c0,0-0.1,0-0.1,0c0,0,0,0.1,0,0.1c-0.3,0-0.5,0-0.8,0c-0.1,0-0.1,0-0.2,0c0,0,0-0.1-0.1-0.1
			c0,0,0,0.1,0,0.1c-0.1,0-0.2,0-0.3,0c0-0.2,0-0.3,0-0.5c-0.7,0-1.2-0.1-1.3,0.5c-0.1,0-0.1,0-0.2,0c0-0.1,0-0.1,0-0.2
			c-0.1,0-0.1,0-0.2,0c0,0.1,0,0.1,0,0.2c-0.2-0.1-0.6-0.1-0.9-0.1c0-0.1,0-0.1,0-0.2c-0.1,0.1-0.1,0-0.1,0.2c-0.3,0-0.7,0-1-0.1
			c0-0.1,0-0.1,0-0.2c-0.1,0-0.1,0-0.2,0c0,0.1,0,0.1,0,0.2c-0.9,0-1.8,0-2.8,0c0-0.4-0.3-0.3-0.6-0.4c-0.5-0.3-1-0.5-1.9-0.5
			c0-0.2,0-0.4,0.1-0.5c-0.1,0-0.1,0-0.2-0.1c-0.1,0.2-0.1,0.3-0.2,0.5c0,0,0,0.1,0,0.1c-0.2,0-0.4,0-0.6-0.1c-0.4-0.1-1,0-1.4-0.1
			c-0.2-0.1-0.5,0.1-0.7-0.1c0,0,0,0-0.1,0c0,0,0,0,0-0.1c0,0,0,0,0.1,0c0,0,0-0.1,0-0.1c0.1,0,0.3,0,0.4,0c0-0.1,0-0.1,0-0.2
			c-0.2,0-0.3,0-0.5,0c0,0.1,0,0.2,0,0.4c-0.5-0.1-1-0.3-1.5-0.4c0-0.1,0-0.1-0.1-0.2c-0.2-0.1-0.6,0-0.9-0.1
			c-0.2-0.1-1.1-0.5-1.3-0.3c-0.1,0-0.1,0-0.2,0c0-0.1,0-0.3,0.1-0.4c0,0,0-0.1,0-0.1c0.1,0,0.2,0,0.3,0c0-0.2,0-0.3,0-0.5
			c-0.2,0-0.3,0-0.5,0c0.1-0.1,0.4-0.1,0.6-0.1c0-0.2,0-0.3,0-0.5c0.2,0,0.4,0,0.6,0c0-0.1,0-0.1,0-0.2c-0.2,0-0.5,0-0.6-0.1
			c0,0,0,0-0.1,0c0,0,0-0.1,0-0.1c0.5,0,0.9,0,1.2-0.1c1.3,0,2.5,0,3.8,0c0-0.1,0-0.1,0-0.2c-1.3,0-2.5,0-3.8-0.1
			C24,6.5,23.5,6.5,23,6.5C23,6.3,23,6.1,23,6c-0.1,0.1,0,0.3,0,0.5c-0.1,0-0.2,0-0.3-0.1c0-0.1,0-0.2,0-0.3c-0.1,0-0.1,0-0.2,0
			c0,0.1,0,0.1,0,0.2c-0.5,0-1.6,0-2.4-0.1c0-0.1,0-0.1,0-0.2c-0.1,0-0.2,0-0.3,0c0,0.1,0,0.1,0,0.2c-0.1,0-0.2,0-0.3,0.1
			c-0.2,0-0.2-0.1-0.2,0.1c0,0,0,0,0,0.1c-0.1-0.1-0.1,0-0.2-0.2c0,0-0.1,0-0.1,0c0,0.1,0,0.2,0,0.3c0,0-0.1,0-0.1,0
			c0,0.2,0.1,0.2,0.1,0.4c0,0,0.1,0,0.1,0c0-0.1,0-0.1,0.1-0.2c0.1,0,0.1,0,0.2,0c-0.1,0.1,0,0.1-0.2,0.1c0,0.1,0,0.1,0.1,0.1
			c-0.1,0.1,0,0-0.1,0.1c0.1,0.1,0.7,0,1,0c0,0.1,0,0.2,0,0.3c0.4,0,1,0,1.2-0.2c0,0,0.1,0,0.1,0c0,0.2,0,0.3,0,0.5
			c0.1,0,0.2,0,0.3,0.1c0,0.4-0.1,0.7-0.1,1.1c-0.5,0-1,0.1-1.5,0.1c-0.1-0.1-0.2-0.2-0.3-0.3c-0.1,0-0.2,0-0.3-0.1
			c-0.1-0.1-0.1-0.1-0.1-0.3c-0.1,0.1-0.1,0.1-0.1,0.3c-1,0-2.2,0-3,0c0,0.1,0.1,0.1,0.2,0.2c-0.2,0.1-0.3,0.3-0.5,0.4
			c0,0.1,0,0.1,0.1,0.1c-0.2,0.2-1.2,0.1-1.4,0.3C15,9.4,15,9.3,15.1,9.2c-0.4,0.1-0.9,0-1.4,0.1c-0.2,0.1-0.6,0-0.8,0.1
			c-0.1,0-0.2,0.1-0.4,0.1c0,0.1,0,0.2,0.1,0.3c0,0,0,0,0,0.1c-0.1,0-0.3,0-0.4,0.1c0,0,0,0-0.1,0c0-0.2,0.1-0.6-0.1-0.8
			c0-0.2,0-0.4,0-0.7c0,0-0.1,0-0.1,0c0,0.5,0,1-0.1,1.4c-1.6,0.2-3.1,0.4-4.7,0.6c0,0.2-0.1,0.1-0.1,0.2c0,0.2-0.3,1.4-0.4,1.5
			c0,0,0,0,0,0.1c0.8,0.2,1.8,0.1,2.6,0.3c0.3,0,0.7,0,1,0.1c0.3,0.1,0.7,0.1,1,0.2c0.2,0,0.3,0,0.5,0c0.4,0.1,1,0.2,1.5,0.2
			c0,0.1,0,0,0.1,0.1c0,0.2,0,0.4,0,0.7c0.4,0,0.8,0,1.2,0c0,0,0,0,0,0.1c-0.1,0-0.1,0-0.2,0.2c-0.2,0-0.4-0.1-0.5-0.1
			c0,0-0.2,0.1-0.3,0.1c-0.1,0-0.5-0.2-0.8-0.1c-0.1,0-0.2,0.1-0.4,0.1c0-0.1,0-0.2,0-0.3c0,0-0.1,0-0.1,0c0,0.1,0,0.2,0,0.3
			c-0.6,0-0.3-0.1-0.6-0.3c-0.1-0.1-0.5-0.1-0.6,0c0,0-0.1,0-0.1,0c0,0.1,0,0.2,0,0.3c-0.3,0-0.4-0.2-0.7-0.2c-0.2,0-0.4,0-0.6,0.1
			c0,0-0.1-0.2-0.1-0.2c-0.1-0.1-0.6,0-0.7,0.1c-0.1,0.1-0.1,0-0.1,0.2c-0.5-0.2-1.1,0.2-1.4,0c0,0-0.1,0-0.1,0c0-0.1,0-0.1,0-0.2
			c-0.3,0-0.7,0-1,0c0-0.1,0-0.1,0-0.2c0,0-0.1,0.1-0.1,0.2c-0.1,0.1-0.2,0-0.3,0.1c-0.4,0-1.5-0.1-1.6,0.2c-0.1,0-0.1,0-0.2,0.1
			c0,0-0.4-0.1-0.5-0.1c0,0-0.1,0.2-0.2,0.3C3.2,14.2,2.8,14,2.6,14c-0.1,0-0.2,0.2-0.4,0.3c0,0.1,0,0.2-0.1,0.4
			c0,0.1,0.2,0.3,0.2,0.4c0,0.2-0.1,0.1-0.1,0.4c-0.2,0-0.3,0-0.5,0c0,0.1,0,0.3,0,0.4c-0.2,0-0.3,0-0.4,0.1c-0.1,0-0.3-0.2-0.4-0.3
			c0,0-0.1,0-0.1,0c0,0.2-0.1,0.2,0.1,0.3c0,0.1,0,0.1,0,0.2C1.1,16,1,16,1,15.9c0,0,0,0,0,0.1c0,0,0,0-0.1,0c0,0,0.2,0.5,0.2,0.5
			c0,0.3,0,0.2,0.3,0.4c0.1,0,0.1,0.2,0.2,0.2c0,0.3,0,0.4,0.1,0.6c0,0,0,0-0.1,0c-0.1,0.1,0,0-0.1,0c-0.3,0.5-0.4,0.9-0.4,1.6
			c0.1,0.1,0.1,0.1,0.2,0.2c0.2,0,0.4,0.1,0.5-0.1c0.5,0.4,0.7,1,1.3,1.3c0.5,0.3,1.3,0.3,1.9,0.5c0.9,0.3,1.9,0.6,2.9,0.8
			c1.4,0,2.9,0,4.3,0c4.5,0,9,0,13.5,0c2.8,0,5.7,0,8.5,0c1.2-0.3,4.2-0.8,5.2-1.8c0.5-0.5,0.7-2-0.1-2.7c0.1-0.1,0.3-0.1,0.4-0.2
			c0.2,0.1,0.1,0.3,0.3,0.4c0.4,0.2,0.7-0.1,1-0.2c0-0.1,0-0.2-0.1-0.3c-0.1,0-0.3,0.1-0.4,0.2c-0.7,0,0-0.5-0.2-0.8
			c-0.1-0.2-0.2-0.1-0.3-0.2c-0.1-0.1,0-0.2-0.1-0.2c-0.2-0.1-0.4-0.1-0.6-0.2c-0.4-0.2-0.9-0.4-1.2-0.5c-0.2,0-0.3-0.1-0.5-0.1
			c-0.2-0.1-0.5-0.3-0.8-0.3c0-0.1,0-0.3,0-0.4c-0.4,0-0.8,0-1.2,0c-0.4-0.1-0.8-0.4-1.1-0.5c-0.4,0-0.9-0.1-1.3-0.1
			c0-0.2,0-0.3,0-0.5c-0.9,0-1.8,0-2.6,0c0-0.1,0-0.1-0.1-0.2c-0.2,0-0.3,0-0.5,0c0,0.1,0,0.1,0,0.2c-0.8,0-1.7,0-2.5-0.1
			c0.2-0.1,0.5,0,0.7-0.1c0.2-0.1,1.1-0.5,1.2-0.6c0,0,0,0,0.1,0c-0.1,0.1-0.1,0.2-0.2,0.3c0,0,0,0-0.1,0c0,0,0,0,0,0.1
			c0.5,0,0.9-0.3,1.3-0.4c0.2-0.1,0.5-0.1,0.7-0.2c0.2-0.1,0.4-0.2,0.6-0.2c0-0.1,0,0,0.1-0.1c0-0.1,0-0.2,0-0.3c0.8,0,1.7,0,2.5,0
			c0,0.1,0,0.1,0,0.2c0.6,0,1.6,0,2.1-0.1c3.2,0,6.5,0,9.7,0c1,0,2,0.1,3,0.1c0.3,0,0.9,0.1,1.1-0.1c0,0,0.1,0,0.1,0
			c0-0.1,0-0.1,0-0.2c0.3,0,0.4,0.1,0.7,0.2c0.3,0.1,0.8-0.1,0.9,0c0.3,0,1.7-0.1,1.7-0.1l0.2-1.2H53.7z"/>
	</g>
</g>
<g class="st1">
	<g class="st2">
		<path class="st4" d="M32.8,11.4c0.3,0,0.6,0,0.9,0c0.1-0.1,0.2-0.3,0.4-0.4c0-0.1,0-0.3,0-0.4c0.8,0,2,0,2.8-0.1
			c1.8,0,3.6,0,5.4,0c0-0.2,0-0.4,0-0.7c-1,0-5.2,0.1-5.4,0c-0.4-0.1-0.9,0-1.4,0c-0.4,0-0.9,0-1.4,0c-0.7,0-4.6,0-4.8-0.1
			c-0.2-0.3-0.1-0.9-0.4-1.2c0,0,0-0.1,0-0.1c-0.9,0-0.9,0.1-1.3-0.5c-0.2,0-0.5-0.1-0.7-0.2c-0.1,0-0.3,0-0.4,0
			c-0.1,0-0.2-0.2-0.2-0.2c-0.1,0-0.3,0.1-0.4,0.1c-0.1-0.1-0.5-0.1-0.7-0.1c-0.8-0.2-1.9-0.1-2.8-0.1c0-0.1-0.2-0.7-0.3-0.7
			c0-0.2,0-0.5,0-0.7c0.1-0.1,0.4,0,0.6,0c0.1,0,0.1-0.1,0.2-0.1c0-0.5,0-0.7,0-1.1c0-0.2,0-0.9,0-1.1c0,0-0.1,0-0.1,0
			c0,0.3,0,2-0.1,2.1c0,0,0,0,0,0c-0.3,0-0.5,0-0.7,0.1C22,6.1,22,6.8,21.9,7.2c-0.2,0-0.2-0.1-0.4-0.1c0-0.2,0.1-0.2,0.1-0.5
			c0.1,0,0.1,0,0.2,0c0-0.1,0-0.3,0-0.4c-0.1-0.1-0.1-0.1-0.2-0.2c-0.6,0.1-1.3,0.1-2.1,0.1c0-0.1,0-0.2,0-0.3c0,0.1,0,0.1,0,0.3
			c-0.2,0-0.4,0-0.4-0.1c-0.3,0-0.3-0.1-0.3,0.1c-0.2,0-0.2-0.1-0.4-0.1c0-2.6,0-2.2,0-4.8c0,0-0.1,0-0.1,0c0,1.7-0.1,4.5-0.1,4.8
			c0,0.1-0.3,0-0.4,0.2c-0.1,0-0.1,0.2-0.1,0.4c0.1,0,0.1,0,0.2,0c0,0.2,0,0.3,0,0.5c-0.1,0-0.1,0-0.2,0c0,0,0,0.1,0,0.1
			c-0.6,0-3.8,0.3-4,0.5c-0.1,0-0.1,0.1-0.1,0.1c0,1-0.1,3.7,0.1,3.9c0.2,0.2,1.5,0.5,1.8,0.6c0.1,0,0.2,0,0.4,0.1
			c0.1,0.1,0.2,0.2,0.3,0.3c0,0.1,0,0.1,0,0.2c-0.7,0-1.4,0-2.1,0c0,0,0-0.1,0-0.1c-0.1,0-0.2,0-0.3,0c0,0,0-0.1,0-0.1
			c-0.2-0.1-0.4,0.1-0.6,0.1c-0.5,0.1-1.2,0.1-1.8,0.1c0.1,0,0.1,0,0.3,0c0-0.1,0-0.2,0-0.4c-0.9,0-2,0-2.9,0c-0.7,0-1.4,0-1.9,0.1
			c-0.4,0-0.7,0-1.1,0c-0.1,0.1-0.2,0.3-0.4,0.3c-0.2,0-0.4,0-0.5,0c-0.2,0.1-0.3,0.4-0.6,0.5c-0.2-0.2-0.1-0.2-0.2-0.4
			c-0.3,0-0.6,0.4-0.7,0.6c-0.3,0-0.7,0-1,0c0.1,0.2,0.2,0.5,0.4,0.6c0,0.1-0.1,0.1-0.1,0.1c0,0.2,0,0.2,0.1,0.2c0.1,0,0,0,0.1,0
			c0.1,0,0.2,0.1,0.3,0.1c-0.1,0.3-0.6,0.7-1,0.7c0,0.2-0.7,0.8-0.9,1c0,0.1,0,0.3,0,0.4c0.4,0,0.8,0.1,1.2,0.1c0,0.5-0.3,1-0.1,1.6
			c0.1,0.4,0.5,0.8,0.8,1.1c0,0,0.3,0.1,0.3,0.1c0.1,0.1,0,0.3,0,0.4c0.1,0.1,0.2,0.1,0.4,0.2c0.1,0.1,0.1,0.3,0.2,0.4
			C3.7,20.9,3.9,21,4,21.1c0.1,0,0.2,0,0.2,0.1c0.3,0,0.6-0.3,0.7-0.3c0,0,0.1,0.2,0.2,0.2c0.4,0.2,1.2,0.7,1.2,0.7
			C6.6,22,7.1,22,7.6,22.1c6.1,0,12.3,0,18.4,0c1.6,0,3.3,0,4.9,0c1.2,0,2.4,0,3.2-0.3c0.7-0.2,1.4-0.4,2.1-0.7
			c0.4-0.2,2.5-1,2.9-1.5c0.1-0.1,0.2-0.1,0.3-0.2c0.5-0.7,0.6-2.4-0.2-2.9c0.1-0.1,0.3,0,0.4-0.1c0,0,0,0,0-0.1
			c-0.2-0.2-0.3-0.5-0.5-0.7c-0.5-0.3-1.6-0.3-2.4-0.3c0-0.5,0-1,0-1.4c0,0-0.1,0-0.1,0c0,0.1-0.1,0.2-0.1,0.3c0,0.2,0,0.1-0.1,0.2
			c0-0.1-0.2-0.4-0.2-0.4c-0.1,0.1-0.1,0-0.1,0.1c-0.2,0-0.5,0-0.7,0c0-0.1,0-0.2,0-0.3c-0.1,0.1-0.1,0.1,0,0.2
			c-0.1-0.1,0,0-0.1-0.1c0,0.1,0,0.1,0,0.1c0,0,0,0,0,0c-0.1,0,0,0,0,0c0,0-0.1,0-0.1,0c-0.2-0.3-0.3-0.7-0.3-1
			c-0.3,0.1-0.7,0.2-0.8,0.5c0,0,0,0,0,0c0,0,0.1,0.1,0.1,0.1c0,0,0,0,0,0c0,0,0,0,0,0c0,0,0.1,0.1,0.1,0.1c0,0,0,0.1,0,0.1
			c-0.1-0.1-0.1-0.1-0.1-0.2c0,0,0,0,0,0c-0.2,0-0.2,0-0.3,0.1c-0.1-0.3-0.4-0.3-0.5-0.7c-0.2,0-0.4,0-0.5,0c0,0,0-0.1,0-0.1
			c-0.2-0.1-0.5,0.3-0.8,0.1c0,0,0-0.1,0-0.1c0,0-1,0.1-1.2,0.1c-1,0-2.1,0-3.1,0c0-0.1,0-0.1,0-0.2c1.1,0,1.4-0.7,2.3-0.8
			c0,0,0,0,0,0c0,0,0,0,0,0c0-0.2-0.1-0.3-0.1-0.5c0.7,0,1.5,0,2.2,0C32.2,11.4,32.7,11.4,32.8,11.4z M4.4,20.8c-0.1,0-0.1,0-0.1,0
			c0,0-0.1,0-0.1,0c0-0.1,0-0.1,0-0.2C4.2,20.6,4.3,20.6,4.4,20.8C4.4,20.7,4.4,20.7,4.4,20.8z M6.4,12.9c0.2,0,0.4,0,0.6,0
			C6.8,13,6.5,13,6.4,12.9z M7.1,12.9c0.1,0,0.2,0,0.4,0C7.3,13,7.1,13,7.1,12.9z M7.6,12.9c0,0,0.1,0,0.1,0
			C7.7,12.9,7.7,12.9,7.6,12.9z M7.9,12.9c0.5,0,1,0,1.5,0C9.4,13,8,13,7.9,12.9z M9.7,12.9c0.1,0,0.1,0,0.2,0
			C9.9,13,9.8,13,9.7,12.9z M12.9,12.9c0,0,0.1,0,0.1,0C13,12.9,13,12.9,12.9,12.9z M36.4,14.7c0.2,0.1,0.1,0.4,0.3,0.5c0,0,0,0,0,0
			c-0.3-0.1-0.8,0-1.3,0c0-0.2,0-0.5,0-0.7C35.7,14.6,36.2,14.5,36.4,14.7z M34.3,14.5c0.2,0,0.5,0,0.7,0c0,0.1,0,0.5-0.1,0.6
			c0,0,0,0.1,0,0.1C34.6,15.2,34.5,14.7,34.3,14.5C34.3,14.6,34.3,14.5,34.3,14.5z M34.2,13.8C34.2,13.8,34.2,13.8,34.2,13.8
			C34.2,13.8,34.2,13.8,34.2,13.8z"/>
	</g>
</g>
<g>
	<g>
		<path class="st4" d="M51.5,10.3c-0.2,0-0.7,0-1-0.1c-0.1,0-0.2-0.2-0.4-0.2c-0.2,0-0.5,0.3-0.7,0.4c-0.3,0-0.6,0-1,0
			c-0.4,0.1-0.9,0.1-1.4,0.1c-0.9,0-6,0-6.4-0.1c-0.1,0-0.2-0.2-0.2-0.2c-3,0-5.9,0-8.9,0c-0.1-0.1-0.3-0.2-0.4-0.4
			c-0.5,0-1.1,0-1.6,0c-0.1-0.1-0.2-0.2-0.3-0.3c-0.2-0.1-0.5-0.2-0.8-0.3c0-0.1,0-0.3,0-0.4c-0.1,0-0.1,0-0.2,0
			c0-0.1,0-0.1-0.1-0.2c-0.1,0-0.2,0-0.4,0c-0.3-0.1-0.8-0.2-1.1-0.3c-0.1,0-0.3,0.1-0.4,0.1c-0.2,0-0.5-0.1-0.7-0.2
			c-0.4,0-0.7-0.1-1.1-0.1C24.1,8.1,23.3,8,22.4,8c0-0.3-0.1-0.3-0.2-0.5c0-0.1,0-0.3,0-0.4c-0.1-0.3-0.1-0.4-0.3-0.6
			c-0.2,0-0.6,0-0.8-0.1c-0.1,0-0.1,0-0.2-0.1c0-0.2,0.1-0.7-0.1-0.9c0-0.1,0-0.2,0-0.3c-0.1-0.1-0.2-0.2-0.4-0.3
			c-0.3-0.3-0.6-0.6-0.9-0.9c0.1-0.3,0.7-0.6,0.7-0.6l0.2-0.3l0.8-0.7l0.5-0.8L22,1.8l0.3-0.3l0.1-0.2l-0.2-0.2V1.1l-1.4,1.3h-0.1
			l-0.3,0.4H20l-0.1,0.2l-1,1l-0.5-0.4l-0.4,0.3l0.4,0.5l-0.8,0.7l0.4,0.5l0.2-0.1h0.1l-0.2,0.2L18,5.4l-0.5,0.5v0.1h0.1L17.9,6
			l0.3,0.2L18.5,6l-0.1-0.2l0.2-0.4V5.3L19,5.8v0.1l0.2-0.1l-0.4-0.7L19,5l-0.1-0.1c0,0,0.5-0.6,0.7-0.7c0,0,0,0,0-0.1
			c0,0,0,0,0.1,0c0.1,0.2,1,1,1.2,1.2c0,1.2-0.2,1.5,1,1.4c0,0,0,0,0,0.1c0,0,0,0,0.1,0c0,0.4-0.1,0.9-0.2,1.3c-0.5,0-0.8,0-1.1-0.1
			c0-0.3,0.2-0.8,0.1-0.9c-0.1-0.2-0.1-0.1-0.2-0.3c-0.1,0-0.1,0.1-0.1,0.1c-0.2,0.1-0.5-0.1-0.7,0.1c-0.3,0-0.9,0.1-1.1-0.1
			c-0.1-0.1-0.1-0.2-0.1-0.3c-0.1,0.1-0.1,0.2-0.1,0.3c0,0,0,0-0.1,0c0,0,0,0,0,0.1c-0.3,0-1.1,0-1.3-0.1c-0.1,0-0.1-0.1-0.3-0.2
			c-0.1-1-0.1-2.2-0.1-3.2c0-1.9-0.1-3.4-0.1-3.4L16.7,2l0.1,4.6l-0.3,0.2c0,0,0,0.4,0.2,0.4c0,0.3,0,0.6,0,1c-0.1,0-0.1,0-0.2,0
			c0,0.1,0,0.1,0,0.2c-1.2,0.1-2.4,0.2-3.6,0.3c0,1.3,0,2.6,0,3.9c0.4,0,0.7,0,1.1,0c0.1,0.1,0.1,0.2,0.2,0.3
			c0.2,0.1,0.4,0.3,0.6,0.4c0.1,0.1,0.1,0.1,0.2,0.2c0.2,0,0.3,0,0.5,0c-0.1,0.1-0.1,0-0.1,0.2c-0.5,0-0.9,0-1.4,0
			c0-0.1,0-0.1,0-0.2c-0.6,0-0.8-0.4-1.2,0c-0.2,0-0.4,0-0.6,0c0.1-0.1,0.1-0.1,0.2-0.2c0-0.1,0-0.2-0.1-0.3
			c-0.9,0.1-2.1,0.1-3.1,0.1c0-0.1,0-0.1,0-0.2c-0.1,0,0,0-0.1-0.1c-0.4,0-1.8-0.1-2,0.1c0,0.1,0,0-0.1,0.2c-0.1,0-0.2,0-0.3,0.1
			c0,0.1,0,0.1,0.1,0.2c0.1,0,0.1,0,0.3,0.1c-0.2,0.2-0.5,0-0.8,0c0,0,0,0,0-0.1c0,0,0,0-0.1,0c0-0.1,0-0.1,0-0.2c0.1,0,0.2,0,0.3,0
			c0-0.1,0-0.1,0-0.2c-0.1,0,0,0-0.1-0.1c-0.6,0-1.6-0.1-2.1,0.1c0,0.1,0,0.1,0,0.2c0.1,0,0.2,0,0.3,0c0,0.1,0,0.2,0,0.3
			c0,0,0,0-0.1,0c0,0,0,0,0,0.1c-0.3,0-0.6,0-1,0c0-0.1,0-0.1-0.1-0.2c-0.2,0.1-0.4,0.2-0.8,0.2c0,0.4,0,0.8,0,1.2
			c-0.2-0.1,0-0.6-0.2-0.8c0-0.2-0.1-0.2-0.3-0.3c-0.2-0.2-0.7-0.1-1.1-0.1c-0.1,0.1-0.1,0.1-0.2,0.2c-0.1,0.3-0.3,1.2,0,1.5
			c0.1,0.2,0.2,0.2,0.4,0.3c-0.1,0.1,0,0.1-0.2,0.1c0,0,0,0.1,0,0.1c0.1,0,0.1,0,0.2,0c0,0.4-0.1,1.3,0.1,1.6
			c0.2,0.3,0.5,0.4,0.9,0.4c0,0.3-0.1,0.9,0.1,1.3c0.2,0.8,0.9,1.3,1.6,1.6c0,0.2,0.1,0.3,0.1,0.5c0.2,0,0.2-0.1,0.2-0.3
			C5.2,21,5.9,22,6.7,22.2c0.5,0.2,1.3,0.1,1.9,0.1c1.3,0,2.6,0,3.9,0c4.3,0,8.6,0,12.9,0c2.7,0,5.4,0,8,0c1-0.3,3.3-1.7,3.7-1.7
			c0,0.1,0,0.2,0.1,0.3c0.1,0,0,0,0.1,0.1c0.1-0.2,0.1-0.5,0.2-0.6c0.2-0.2,0.5-0.2,0.7-0.4c0.5-0.4,1-1.4,0.7-2.3
			c-0.1-0.2,0-0.3-0.2-0.5c0-0.4,0.1-0.2,0.4-0.3c0.1,0,0.1-0.1,0.2-0.2c0,0,0,0,0-0.1c0,0,0,0-0.1,0c-0.2-0.6-1.1-0.5-1.5-0.9
			c0-0.1,0,0-0.1-0.2c-0.2,0-0.7,0.3-1.1,0.2c0-0.1,0-0.1-0.1-0.2c0-0.1-0.4-0.2-0.5-0.2c0,0-0.1,0.1-0.1,0.1c0-0.2,0-0.1,0.1-0.4
			c0.3,0,0.9,0.1,1-0.2c0,0.1,0,0,0.1,0.2c0.3,0,0.3-0.1,0.6-0.1c0-0.1,0-0.2,0-0.3c-0.5-0.1-1.1-0.1-1.6-0.1c0-0.2-0.2-0.3-0.4-0.3
			c0-0.1,0.1-0.1,0.1-0.3c-0.1,0-0.1,0-0.2-0.1c0,0,0.1-0.1,0.2-0.1c-0.1-0.3-0.3-0.3-0.5-0.5c-0.1,0-0.2,0-0.3,0
			c0.1,0-0.1,0.5-0.1,0.7c-0.2,0-0.3,0-0.5-0.1c-0.2,0-0.8,0.1-1.1,0.1c0,0-0.2,0-0.2-0.1c0-0.1,0-0.1-0.1-0.2
			c-0.1,0-0.2,0.2-0.3,0.2c-0.1,0-0.2-0.2-0.3-0.2c-0.5-0.2-1-0.4-1.7-0.6c-0.2,0-0.4,0.1-0.6,0.1c0,0,0-0.1,0-0.1
			c-0.3-0.2-0.6,0.2-1,0.1c-0.2-0.1-1,0-1.5,0c0-0.1,0-0.1,0-0.2c0.3,0,0.6,0,0.9,0c0-0.2,0-0.3,0-0.5c0.1,0,0.1,0,0.2,0
			c0-0.1,0-0.3,0-0.4c0.3,0,0.6-0.1,0.7-0.3c1.3,0,2.6,0,3.8,0c0.1-0.1,0.2-0.3,0.3-0.4c-0.1-0.2-0.2-0.2-0.3-0.3c0,0,0,0,0-0.1
			c2.5,0,4.9,0,7.4,0c0.1,0,0.2-0.2,0.3-0.2c1.6,0,3.1,0,4.7,0c1.3,0,4-0.3,4.6,0.4c0.2,0,0.3-0.1,0.4-0.2c0.4,0,0.8,0,1.1-0.2
			C51.6,11,51.6,10.5,51.5,10.3z M20.2,3.2c0,0-0.2,0.2-0.3,0.3C19.9,3.5,20.2,3.2,20.2,3.2z M2.4,16.9c-0.1,0-0.2,0-0.3-0.1
			c0-0.1,0-0.1,0-0.2c0.1,0,0.2,0,0.3,0C2.4,16.8,2.4,16.8,2.4,16.9z M2.6,17.7C2.6,17.7,2.5,17.7,2.6,17.7c-0.1,0-0.1-0.1-0.1-0.1
			c0,0,0,0,0.1,0C2.6,17.7,2.6,17.7,2.6,17.7z M2.5,16.9c0.1,0,0,0,0.1,0.1C2.5,16.9,2.6,16.9,2.5,16.9z M2.2,16.4
			C2.1,16.4,2.1,16.4,2.2,16.4c-0.1-0.2-0.1-0.5-0.1-0.7c0.1,0,0.1,0,0.2,0c-0.1-0.1,0-0.1-0.2-0.1c0,0,0-0.1,0-0.1
			c0.3,0,0.3,0.1,0.6,0.1C2.7,16,2.3,16.1,2.2,16.4z M11.1,13.3c0.2,0,0.3,0,0.5,0C11.4,13.3,11.2,13.3,11.1,13.3z M11.9,13.3
			c0.1,0,0.2,0,0.3,0C12.1,13.3,12,13.3,11.9,13.3z M50.1,11.1c-0.1,0-0.1,0-0.2-0.1c-0.2,0-0.2,0-0.3-0.1c0-0.1,0-0.1,0.1-0.2
			c0,0,0-0.1,0-0.1c0.1,0,0.2,0,0.3-0.1c0.1,0,0.1,0,0.2,0c0,0,0,0,0,0.1c0,0,0,0,0.1,0C50.2,10.8,50.1,11,50.1,11.1z M51.2,11.2
			c-0.2,0-0.4,0-0.6-0.1c0-0.2,0-0.5,0.1-0.6c0.2,0,0.3,0,0.5,0C51.2,10.8,51.2,11,51.2,11.2z"/>
	</g>
</g>
</svg>
