<svg xmlns="http://www.w3.org/2000/svg" xmlns:xlink="http://www.w3.org/1999/xlink" preserveAspectRatio="xMidYMid" width="31" height="15" viewBox="0 0 31 15">
  <defs>
    <style>
      .cls-1 {
        fill: #8c8c7c;
        fill-rule: evenodd;
      }
    </style>
  </defs>
  <path d="M5.029,14.965 L25.795,14.965 L30.020,11.689 L30.809,10.742 L30.651,7.743 L26.096,6.628 L24.729,5.728 L22.084,5.610 L22.084,5.336 L27.019,5.336 L27.019,4.034 L22.242,3.679 L20.150,1.982 C20.150,1.982 18.491,1.508 18.412,1.271 C18.334,1.035 17.781,0.245 17.781,0.245 L14.899,0.285 L13.714,1.508 L11.780,2.495 L10.573,5.107 L13.793,5.178 L13.653,5.275 L4.297,5.275 L2.383,5.849 L1.081,6.165 L0.212,8.138 L0.330,11.847 L2.068,13.781 L5.029,14.965 Z" class="cls-1"/>
</svg>
