<?xml version="1.0" encoding="UTF-8"?>
<!-- Generator: Adobe Illustrator 24.0.0, SVG Export Plug-In . SVG Version: 6.00 Build 0)  -->
<svg version="1.1" id="Слой_1" xmlns="http://www.w3.org/2000/svg" xmlns:xlink="http://www.w3.org/1999/xlink" x="0px" y="0px" width="64px" height="23px" viewBox="0 0 64 23" style="enable-background:new 0 0 64 23;" xml:space="preserve">
<style type="text/css">
	.st0{fill-rule:evenodd;clip-rule:evenodd;fill:#FAB81B;}
</style>
<path class="st0" d="M35.2,7.9l0.1,0.3l1.4,0.1l0.7,0.8V10l8.7,0.2l0-0.7l4.7,0v0.6l13.3,0v1.1l-13.4,0l0,0.3l-4.6,0l0-0.3l-8.7,0.2  l0,1.9h0.9l6.4,0.6l1.2,0.7l0,0.9c0,0,0.3,0.2,0.7,0.7c0.3,0.4,0.5,1,0.2,2c-0.1,0.3-0.8,0.9-1,1.1c-0.3,0.2-0.8,0.6-1.1,0.8  c-0.9,0.5-3,1.5-4.3,2.1c-0.9,0.4-1.8,0.6-2.8,0.6L9,23c-0.3,0-0.6,0-0.9-0.1c0,0-0.5-0.2-0.7-0.2c-1.2-0.5-3.7-1.7-4.8-2.5  c-0.2-0.1-0.4-0.3-0.6-0.5c-0.1-0.2-0.5-0.8-0.5-0.8l-0.2,0.7l-0.2,0.1H0.9l0.3-0.7l0.1-0.6l-0.1-0.3l-0.3,0L1,17.8l-0.3-0.2  l-0.3-1.8l0.1,0l-0.1-0.6l0.2-0.4l0.5-0.1v-0.4l-0.8-0.2l-0.2-0.8l0.1-0.5l0.4-0.2h0.3l0.3,0.5L1.4,13l0.7-0.7h7.5l1.1,1.1H20  c0,0,0-1.6-0.1-1.6c-0.1,0-0.7-0.5-0.7-0.5h-6.4c0,0-1.2-0.4-1.3-0.5c-0.1-0.1-0.4-0.5-0.4-0.5l-0.3-1.9l0.4-1.3l2.7,0l0.2-0.4  l0.2,0h2.7l0.3-0.2l0.3,0V6.1V5.7l-0.3-0.4L12.3,0l5.2,5.1l0.8,0.5v0.6l0.2,0.2l0.3-0.1l0-0.2l0.7,0l-0.1-0.6h0.7l0-0.6L20.3,5l4,0  l0.2,0.3h0.2l0.1-1H25V3.8l-0.4-1.7L23.9,0l0.8,2.1l0.5,1.4h0.2l0,0.2l0.8-0.2l2.3,0l0,0.2l4.3,0.1l0,0.4l-4.4-0.1l-0.1,0.9  l-1.4,0.1l0,1l1.3,0l0.9,0.1L35.2,7.9z"/>
</svg>