<?xml version="1.0" encoding="utf-8"?>
<!-- Generator: Adobe Illustrator 26.2.1, SVG Export Plug-In . SVG Version: 6.00 Build 0)  -->
<svg version="1.1" id="Layer_1" xmlns:sketch="http://www.bohemiancoding.com/sketch/ns"
	 xmlns="http://www.w3.org/2000/svg" xmlns:xlink="http://www.w3.org/1999/xlink" x="0px" y="0px" width="49.3px" height="17px"
	 viewBox="0 0 49.3 17" style="enable-background:new 0 0 49.3 17;" xml:space="preserve">
<style type="text/css">
	.st0{fill-rule:evenodd;clip-rule:evenodd;fill:#8C8C7C;}
</style>
<path class="st0" d="M7.7,17h25.8l0.9-0.3l3-1.9c0,0,0.7-0.4,0.9-0.6c0.1-0.1,0.3-0.4,0.3-0.6c0.1-0.1,0.1-0.4,0.1-0.6
	c0-0.1,0-0.5,0-0.6c0-0.1-0.2-0.3-0.2-0.3l-0.1-0.3l0.3-0.2l0.1-0.2L38.3,11v-0.2l-0.3,0l-0.3-0.1l-1.4-0.1l0-0.1l0.3,0l0-0.2h-0.6
	l-1.6-0.1L34.3,10l0.4-0.1l0-0.1l0-0.2l4.1-0.1V9.3l-5.1-0.1l-1-0.1V8.7H32l-0.3-0.3l-1.7-0.4h-3.3V7.3h4.4l0.6-0.8L31.3,6l16.8-0.3
	V4.9L29.7,4.6L29,3.9h-2.8c0,0-0.2-0.8-0.3-1.1c-0.1-0.1-0.2-0.2-0.3-0.2c-0.7,0-2.1,0.1-2.1,0.1l-0.3-1.1l-0.5,0.1h-1.5l-0.6-0.2
	L20.3,2l-1.8-0.5c0,0-3.4-0.2-4.4,0c-0.1,0-0.3,0.1-0.4,0.2c-0.1,0.1-0.2,0.3-0.2,0.4c-0.1,0.1-0.1,0.6-0.1,0.6l-0.5,0.1V1.6h-0.2
	v1.2h-1l-1.4,5.3l-0.7,0V7.6H7.3l0.1-0.2L7.2,7.3V7.1H6.7v0.2L5.8,7.2L5.2,7.4L4.6,7.6L4.3,7.5L4.1,7.6l0.2,0.1V8H3.6V7.8H3.1V8H2.7
	L2.6,8.4l-0.2,0c0,0,0.1-0.5,0.1-0.7c0-0.1-0.1-0.2-0.1-0.3c0,0-0.1-0.1-0.2-0.1C2,7.2,1.4,7.1,1.1,7.3C1,7.3,0.9,7.4,0.9,7.5
	c0,0.1-0.1,0.3-0.1,0.3C0.8,8.1,0.7,9.1,0.7,9.1h0.2l0.4,0.1l0,0.2l-0.1,0.7l0.1,0.6l0.5,0.5l-0.5,0.5V12l1.2,0.1l0.1,0.1
	c0,0-0.3,0.7-0.3,1c0,0.3,0.2,0.8,0.3,1.1c0.1,0.2,0.5,0.7,0.8,0.8c0.8,0.6,3.4,1.7,3.4,1.7L7.7,17z"/>
</svg>
