<svg xmlns="http://www.w3.org/2000/svg" xmlns:xlink="http://www.w3.org/1999/xlink" preserveAspectRatio="xMidYMid" width="30" height="15" viewBox="0 0 30 15">
  <defs>
    <style>
      .cls-1 {
        fill: #8c8c7c;
        fill-rule: evenodd;
      }
    </style>
  </defs>
  <path d="M4.313,15.030 L24.807,15.030 L26.813,13.831 C26.813,13.831 29.849,10.795 29.849,10.307 C29.849,9.819 29.741,7.373 29.741,7.373 L27.898,6.174 L24.934,5.637 L20.655,5.546 L20.361,4.926 L26.562,5.077 L26.271,3.713 L22.801,3.313 L21.305,2.636 L18.355,1.904 L17.867,0.819 L14.723,0.494 L14.181,2.608 L11.958,2.934 L11.199,5.129 L13.422,5.454 L13.367,5.645 L6.000,5.375 C6.000,5.375 3.188,7.437 3.062,7.500 C2.937,7.563 0.562,8.062 0.562,8.062 L0.469,8.812 C0.469,8.812 1.625,8.875 1.594,9.094 C1.562,9.313 1.750,9.719 1.594,9.719 C1.438,9.719 1.000,9.688 1.000,9.875 C1.000,10.063 0.938,12.031 0.938,12.031 L3.000,13.844 L4.313,15.030 Z" class="cls-1"/>
</svg>
