<?xml version="1.0" encoding="utf-8"?>
<!-- Generator: Adobe Illustrator 22.1.0, SVG Export Plug-In . SVG Version: 6.00 Build 0)  -->
<svg version="1.1" id="Layer_1" xmlns="http://www.w3.org/2000/svg" xmlns:xlink="http://www.w3.org/1999/xlink" x="0px" y="0px"
	 width="44px" height="20px" viewBox="0 0 44 20" style="enable-background:new 0 0 44 20;" xml:space="preserve">
<style type="text/css">
	.st0{fill-rule:evenodd;clip-rule:evenodd;fill:#8C8C7C;}
</style>
<path class="st0" d="M1,13.7l0.9-0.6L1.5,13l-0.1-0.7l0.4-0.4L2.9,12l0-0.6l1-0.3v1l1.2-0.7l9,0.2l1.8,0.1L15.9,11h-4.7l0.5-0.9
	l-1.6-0.1l0.8-2l0.7-0.6l0.2-0.5l0.6,0V0l0.4,6.9l0.8-0.1l0.4-0.6L15.3,6l0-0.2h0.7V4.2l-2.6-2.6l0.2-0.2l3.6,3.1l-0.3,0.4l-0.7-0.6
	l0,1.4h0.9V5.1L19,5V3.9h1v1h0.9v1l1.5,0.4V5.9H24v1.1l3.3,1.4l0.6,0.1h0.8v0.2h7.5v0.3H42V8.6h2v1.8h-2V10h-5.7v0.3h-7.6v0.6H28
	v0.8h1.9V11h2.4l0.9,0.7h0.9v-0.3h0.8v0.6l3,0.2v0.4L35,12.9v0.7l1.6,0l1.3,0.1l1,1.1l-1,0.1l0.6,0.7l-0.5,1.4l-0.7,0.7L31.6,20H8.2
	l-5.8-2l-0.7-1l-0.4-1l0.1-0.7L0,15L1,13.7z"/>
</svg>
