<svg xmlns="http://www.w3.org/2000/svg" xmlns:xlink="http://www.w3.org/1999/xlink" preserveAspectRatio="xMidYMid" width="51" height="19" viewBox="0 0 51 19">
  <defs>
    <style>
      .cls-1 {
        fill: #8c8c7c;
        fill-rule: evenodd;
      }
    </style>
  </defs>
  <path d="M5.051,18.956 L34.671,18.956 C34.671,18.956 38.775,15.869 38.945,15.276 C39.114,14.684 39.876,13.710 39.876,13.710 L39.791,11.087 L37.929,9.380 L33.740,8.619 L32.851,7.645 L30.482,7.702 L30.482,7.363 L33.627,6.785 L50.891,6.545 L50.807,5.036 L31.963,4.612 L30.567,4.105 L27.181,2.878 L22.104,2.497 L21.850,1.904 L20.834,0.973 L20.030,0.762 L19.015,1.777 L17.915,3.004 L16.815,4.697 L16.658,5.447 L16.269,5.939 L5.390,6.940 L3.570,8.252 L0.228,12.018 L0.016,14.557 L3.147,17.815 L5.051,18.956 Z" class="cls-1"/>
</svg>
