<?xml version="1.0" encoding="UTF-8"?>
<!-- Generator: Adobe Illustrator 24.0.0, SVG Export Plug-In . SVG Version: 6.00 Build 0)  -->
<svg version="1.1" id="Слой_1" xmlns="http://www.w3.org/2000/svg" xmlns:xlink="http://www.w3.org/1999/xlink" x="0px" y="0px" width="51px" height="17px" viewBox="0 0 51 17" style="enable-background:new 0 0 51 17;" xml:space="preserve">
<style type="text/css">
	.st0{fill-rule:evenodd;clip-rule:evenodd;fill:#8C8C7C;}
</style>
<path class="st0" d="M18.9,7.6h-0.7v0.2h-1.5l-0.2-0.2h-0.6v0.1h-2.7L13,7.9h-1.4L9.1,8.2L7.6,8.8L7.1,8.7l-0.2,0v0.2H5.7  c0,0-0.2-0.2-0.2-0.2c-0.1,0-0.3-0.1-0.3-0.1s-0.3,0-0.3,0.1c-0.1,0-0.2,0.2-0.2,0.2v0.6H3.7L3.4,9.2l-1.4,1.1c0,0-0.3,0-0.3,0.1  c-0.1,0-0.3,0.2-0.5,0.3c-0.1,0.1-0.4,0.3-0.4,0.3v0.2l-0.4,0.4l0.2,0.3l-0.2,0.3l0.2,0.2c0,0-0.1,0.4-0.1,0.5c0,0.2,0,0.5,0.1,0.6  c0,0.1,0.2,0.4,0.3,0.5c0.1,0.1,0.3,0.4,0.4,0.5c0.2,0.1,0.5,0.3,0.7,0.4c0.4,0.2,1.3,0.4,1.7,0.5c0.7,0.2,2.2,0.5,3,0.6  C7.1,16,7.5,16,7.5,16h24.2c0,0,0.9-0.1,1.2-0.2c0.4-0.1,1.1-0.3,1.5-0.4c0.5-0.2,1.6-0.6,2.2-0.8c0.2-0.1,0.6-0.2,0.8-0.3  c0.1-0.1,0.4-0.3,0.6-0.4c0.1-0.1,0.4-0.4,0.5-0.6c0.1-0.2,0.1-0.7,0.1-0.9c0-0.2-0.2-0.7-0.2-0.7l0.3-0.2l0.2-0.4l0.1-0.7V9.9  l-0.7-0.7h-4.1V9.1L33,8.6V8c0,0-0.3,0-0.4,0.1c-0.1,0-0.3,0.2-0.3,0.2l-1.7-0.7h-1.9V7.4h0.3V7c0,0,0.3-0.2,0.3-0.3  c0-0.1,0.1-0.3,0.1-0.3h10.4l0.3-0.2h5.7V6h3.3v0.1l1.3,0V6.1l-0.6,0V5.9l0.6,0V5.5l-0.6,0V5.3h0.6V5.2h-1.3v0.2h-3.3V5.2h-5.7  L39.8,5H29.5c0,0-0.2-0.3-0.3-0.4c-0.1-0.1-0.3-0.3-0.4-0.3c-0.1-0.1-0.4-0.2-0.6-0.2c-0.2,0-0.6-0.1-0.6-0.1l-1.9-0.3h-0.9V3.3H24  V3l-0.2-0.2V2.6h-0.3v0.3l-0.2,0.2v0.2h-1.4l-0.1,0.1h-1.9v0.2h-2.7l-0.6,1.7l-1.9,0.4l-0.7,1.8h5L18.9,7.6z"/>
</svg>