<?xml version="1.0" encoding="utf-8"?>
<!-- Generator: Adobe Illustrator 25.3.1, SVG Export Plug-In . SVG Version: 6.00 Build 0)  -->
<svg version="1.1" id="Layer_1" xmlns="http://www.w3.org/2000/svg" xmlns:xlink="http://www.w3.org/1999/xlink" x="0px" y="0px"
	 width="40.4px" height="17.8px" viewBox="0 0 40.4 17.8" style="enable-background:new 0 0 40.4 17.8;" xml:space="preserve">
<style type="text/css">
	.st0{display:none;fill:#8C8C7C;}
	.st1{fill-rule:evenodd;clip-rule:evenodd;fill:#8C8C7C;}
</style>
<path class="st0" d="M1.3,11.8L1.3,11.8L0,11.3l0.4-2.6h1.3l0.4,0.9l0.4-0.9l1.7-0.4V7.9h0.9v0.4l3.5-0.4V7.5l3.9-0.4v0.4H16V7h-3
	l0.4-1.3l1.7-0.4h0.4L16,4.4h-0.4V4H16V3.6h4.3V2.7l-2.2-0.9V1.4h6.1v0.4h-3.9l0.9,0.4v0.4h0.4L22,3.5l3.5,0.4l0.9,0.9h5.2v0.4h4.3
	l0,0h0.9v0.9h-1.3l0,0h-4.3l0,0h-4.8L26,6.5v0.4h-0.4l0,0h0.9l1.3,1.3h0.9v0.4l0.3,1h3.9l1.7,0.4l-0.4,0.4l0.9,1.3V13l-0.9,1.7
	l-5.7,2.7H7.4l-5.6-2.2l-1.3-1.3v-1.3L1.3,11.8z"/>
<g>
	<g>
		<path class="st1" d="M33.1,7.7L33.1,7.7c-0.2-0.1-0.3-0.1-0.5-0.1V7.4c-0.1,0-0.1,0-0.2,0h-6.2c-0.1,0-0.1-0.2-0.1-0.3
			c0,0-0.1-0.1-0.1-0.1c-0.1-0.1,0-0.2,0-0.3l-0.1-0.1c0-0.1,0-0.2,0-0.2c0-0.2-0.1-0.1-0.1-0.4h0v0h-0.2V5.9H25c0,0,0.1,0,0.2,0
			V5.7h-0.3V5.5c-0.2,0-0.2,0-0.3,0.2c-0.3,0-0.5,0-0.7-0.1c0-0.1,0-0.2,0-0.3h0.2c0-0.1,0-0.3,0-0.5c-0.1,0-0.1,0-0.2,0
			c-0.1,0-0.1-0.2-0.3,0c-0.1,0-0.1,0-0.1-0.1c-0.1,0-0.1,0-0.2,0v0.1h0.1c0,0.3,0,0.6,0,0.9h-0.5c0-0.2-0.1-0.2-0.2-0.3
			c0-0.1,0.1-0.1,0.1-0.1v0h-0.1c0-0.1,0.1-0.1,0-0.2V4.8H23C23,4.9,23,5,23,5.1v0.1h0c0,0,0,0,0,0C23,5,23,4.9,23,4.7
			c0,0-0.1,0-0.2-0.1c0-0.7,0-3,0-4.6h-0.1c0,2.1,0,5.2-0.2,5.4v0.1c0,0-0.1-0.1-0.2,0l-0.1,0v0.1c-0.2,0-0.3,0.1-0.5,0.1
			c0,0,0,0,0,0V6c-0.3,0-3.6,0.2-3.8,0.2c0,0,0,0-0.1-0.1c0-0.1,0-0.2,0-0.3c-0.2,0-0.4,0.1-0.5,0.1c-0.1,0-0.1,0.2-0.2,0.2
			C17.1,6.1,17,6.1,17,6c-0.1,0-0.1,0.1-0.2,0.1c-0.2-0.1-0.2,0-0.4,0.1v0.2c-0.4,0-0.6,0-0.9-0.1c0,0,0,0,0.1,0v0.1
			c-0.2,0-0.1,0-0.2-0.2c0-0.1-0.1,0-0.1-0.1c-0.1,0-0.2,0-0.3,0h0V5.1c-0.1,0.1,0,0.9,0,1.1c-0.4,0-0.7,0-1,0c0,0-0.1,0.1-0.2,0.1
			v0.3c-0.2,0-0.4,0-0.7,0c0,0.1-0.1,0.5-0.1,0.5c-0.1,0.1-0.3,0.1-0.3,0.2v0.5h0.1c0,0,0,0,0,0c0,0,0,0.1,0,0.1h-0.2
			c0-0.1,0-0.1,0.1-0.2c0-0.1-0.2-0.1-0.3-0.2c0-0.1,0,0,0-0.1V7.4c-0.4,0-0.7,0-1.1,0V7.3c0,0,0,0,0,0h-0.2v0.2
			c-0.4,0-1.4,0-1.7-0.2c-0.4,0-0.7,0-1.1,0C8,7.2,8,7.2,7.7,7.2V7.1H7.7c0,0,0.1-0.3,0.1-0.4H7.5c0,0.1,0.1,0.4,0.1,0.4H7.5v0.4
			c-0.3,0-1.3,0.1-1.4-0.1C6,7.4,6,7.4,6,7.4c0,0-0.1,0.1-0.1,0.2c0,0,0,0,0,0.1c0.1,0,0.1,0,0.2,0H7c-0.1,0.1,0,0.3,0,0.5
			c0.2,0,0.1,0.1,0.3,0.1v0.5c-0.5,0-2.8,0-3.1,0c0,0-0.3,0.1-0.4,0.1v0.1c0,0-0.1,0-0.1,0h-1V9H2.2V8C2.1,8,2,8.1,1.9,8.1
			c0,0-0.1,0.1-0.1,0.1c-0.3,0.1-0.7-0.1-1,0.1C0.7,8.4,0.7,8.6,0.5,8.7c0,0.3,0.2,0.4,0.3,0.5c0.1,0,1,0.2,1,0H2C2,9.4,2,9.5,2,9.6
			c-0.1,0-0.2,0-0.3,0.1c-0.1,0.1,0,0.5,0.1,0.6c0,0.1,0,0.1,0,0.2c-0.2,0-0.2,0-0.3,0C1.4,10.3,1.4,10,1.3,9.8
			c-0.1,0-0.3,0-0.4,0.1c0,0,0.1,0.8,0.2,0.9v0.1c0,0-0.2,0-0.2,0c0,0.2,0.1,0.3,0.2,0.5c-0.2,0.1-0.3,0.2-0.5,0.3v0
			c0,0,0.1,0.1,0.1,0.1v0.1c0.1,0,0.1,0.1,0.2,0.1v0.1c0,0,0.1,0,0.1,0c0.1,0.1,0.1,0.2,0.2,0.2h0c0,0,0,0,0,0
			c-0.1,0.2-0.3,0.3-0.3,0.4v0.1c-0.1,0.3-0.3,0.6-0.3,1c0,0,0.1,0.3,0.1,0.3v0.2c0.1,0.2,0.2,0.5,0.3,0.7c0,0,0.1,0.1,0.1,0.1
			C1,15.2,1,15.3,1,15.3c0.3,0.4,1,0.6,1.5,0.7c0.2,0,4.9,1.3,4.9,1.3s14.6,0,16.6,0c1.5,0,3.4,0.1,4.4-0.1c0.2,0,0.6-0.1,0.8-0.2
			c0.3-0.1,0.3-0.2,0.6-0.3c0.5-0.2,1.1-0.5,1.6-0.8c0.4-0.2,0.8-0.3,1.2-0.5c0.1,0,0.4-0.3,0.5-0.3c0.1,0,0,0.1,0.1,0h0.1
			c0,0,0-0.2,0-0.2c0.1,0,0.1,0,0.2,0c0.2-0.1,0.2-0.3,0.5-0.3c0-0.1,0-0.1,0-0.2v0c0.1-0.1,0.2-0.2,0.3-0.2
			c0.1-0.1,0.1-0.2,0.2-0.2v-0.1c0.1,0,0.1-0.1,0.2-0.1c0,0-0.1-0.1-0.1-0.1c0.1-0.2,0.2-0.2,0.2-0.6c0.1,0,0.1,0.1,0.2,0.1
			c0.1,0,0.1,0,0.2-0.1c0-0.1-0.1-0.2-0.1-0.3c0.1,0,0.3-0.1,0.2-0.2c-0.1-0.2-0.2-0.1-0.3-0.1c0-0.2-0.1-0.3-0.1-0.4
			c0-0.1,0.1-0.1,0.1-0.2c0-0.1-0.2-0.1-0.2-0.2c0,0,0.1-0.2,0-0.3c0-0.1-0.1,0-0.2,0c0,0-0.1-0.2-0.1-0.2l0.6-0.7
			c0,0-0.3-0.3-0.4-0.4v-0.1c0,0-0.1,0-0.2,0c-0.1-0.1-0.2-0.2-0.3-0.3c-0.2-0.1-0.5-0.1-0.7-0.2c-0.3-0.1-0.6-0.3-0.9-0.3
			c-0.1,0-4.7,0.3-4.8,0.2c0,0,0-0.2,0-0.3h0.1v0.2h0.1c0-0.2,0-0.3-0.1-0.3V8.9c-0.1,0-0.1,0-0.2,0V8.8c-0.1,0,0,0-0.1,0.1
			c-0.2,0-0.2-0.1-0.3-0.1c0,0,0,0,0,0v0h4.9c0.2,0,0.3,0,0.5,0V8.6l0.1,0H33l0.1-0.1c0.7,0,5.3,0,6.8,0V7.7H33.1z M8.2,7.9H7.6v0.2
			C7.4,8.1,7.3,8,7.1,8c0-0.1,0-0.1,0.1-0.2C7.5,7.7,8,7.7,8.2,7.9L8.2,7.9z M8.7,7.9h0.2C8.8,8,8.7,8,8.7,7.9z M9,7.8H8.3V7.7H9
			V7.8z M9.3,7.9h1.1C10.3,8,9.4,8,9.3,7.9z M10.3,7.8c-0.2,0.1-0.7,0-1,0V7.7c0.5,0,1,0,1.4,0C10.7,7.8,10.4,7.8,10.3,7.8z M11,7.9
			h-0.1V7.8H11V7.9z M11.3,7.9L11.3,7.9C11.4,7.9,11.4,7.8,11.3,7.9L11.3,7.9z M12,7.9h0.5C12.4,7.9,12.1,7.9,12,7.9z M14.8,6.5
			c-0.2,0-0.2,0-0.3-0.1h0.3C14.8,6.4,14.8,6.5,14.8,6.5z M22.4,5.9H22V5.9c0.1,0,0.2-0.1,0.3-0.1c0.2,0.1,0.3,0.1,0.3,0.2
			C22.6,5.9,22.5,5.9,22.4,5.9z M22.8,5.9h0.3C23.1,5.9,22.9,6,22.8,5.9z M23.7,5.6c-0.1-0.1-0.1-0.4-0.1-0.5
			C23.7,5.2,23.7,5.3,23.7,5.6z M24.2,5.9h0.3C24.4,5.9,24.2,6,24.2,5.9z M26.2,9.5C26.3,9.6,26.2,9.5,26.2,9.5
			C26.2,9.5,26.3,9.6,26.2,9.5z M26.2,9.3c0,0,0-0.1,0-0.1C26.3,9.2,26.3,9.2,26.2,9.3L26.2,9.3z M26.4,9.5c-0.1-0.1-0.1-0.4,0-0.5
			h0.1c0,0,0,0,0,0C26.5,9.1,26.4,9.3,26.4,9.5z M26.6,8.9c-0.1-0.1-0.1-0.1-0.3-0.1c0,0,0-0.1,0-0.1h0.3c0,0-0.1,0-0.1,0
			C26.6,8.8,26.6,8.9,26.6,8.9z"/>
	</g>
</g>
</svg>
