<?xml version="1.0" encoding="utf-8"?>
<!-- Generator: Adobe Illustrator 22.0.0, SVG Export Plug-In . SVG Version: 6.00 Build 0)  -->
<svg version="1.1" id="Layer_1" xmlns="http://www.w3.org/2000/svg" xmlns:xlink="http://www.w3.org/1999/xlink" x="0px" y="0px"
	 width="44.6px" height="15px" viewBox="0 0 44.6 15" style="enable-background:new 0 0 44.6 15;" xml:space="preserve">
<style type="text/css">
	.st0{fill:#8C8C7C;}
</style>
<path class="st0" d="M0,7.3h0.8v-2h0.8V4.5h1.2v0.8h4.5V4.9h0.8v0.4h6.1V4.9h-3.2l0.4-0.4H9.7l0.4-2L13,1.6V1.2l1.6-0.4l0,0H15V0.4
	h0.4V0h0.8v0.4h1.2l0,0h1.2v0.4l0.4,0.4l0.4-0.8c0.4,0,0.4,0.4,0.4,0.4h0.4v0.4h1.6V0.4h0.8v0.8h2v0.4h0.4h0.8l18.6,0.8v0.8H26.4
	l0.4,1.2h-1.2v0.4h6.9l0.8,0.4l0,0h0.4l1.6,2h2l2.8,3.2h-0.8v1.2L37.7,13L32,15H8.1l-5.7-1.6c0,0-0.8-1.2-1.2-1.6l0.4-1.6H0.8
	c0,0,0.8-1.2,0.4-1.2L0,8.5V7.3z"/>
</svg>
