<?xml version="1.0" encoding="UTF-8"?>
<!-- Generator: Adobe Illustrator 24.0.0, SVG Export Plug-In . SVG Version: 6.00 Build 0)  -->
<svg version="1.1" id="Слой_1" xmlns="http://www.w3.org/2000/svg" xmlns:xlink="http://www.w3.org/1999/xlink" x="0px" y="0px" width="63px" height="20px" viewBox="0 0 63 20" style="enable-background:new 0 0 63 20;" xml:space="preserve">
<style type="text/css">
	.st0{fill-rule:evenodd;clip-rule:evenodd;fill:#8C8C7C;}
</style>
<path class="st0" d="M16.1,9.9h-1.4L3,10.9l-0.2,0.2l-0.1,0.8v0.3l-0.3,0.2c0,0-0.1-0.2-0.2-0.2c-0.3-0.1-0.6-0.1-0.8,0  c-0.1,0.1-0.3,0.3-0.4,0.4c-0.1,0.1-0.1,0.3-0.1,0.4c0,0.1,0,0.3,0.1,0.3c0.1,0.1,0.3,0.3,0.4,0.3C1.6,13.9,2,13.7,2,13.7l0.2,0.1  l0.3-0.1L2.7,14c0,0-0.2,0.4-0.3,0.5c-0.1,0.1-0.2,0.4-0.2,0.5c0,0.1,0,0.4,0,0.5c0,0.1,0.2,0.4,0.3,0.5c1.1,1.1,3.8,2.5,5.2,3  C8,19,8.6,19.1,8.6,19.1h26.9c0,0,0.5-0.1,0.7-0.1c0.1,0,0.4-0.1,0.5-0.2c1-0.7,2.6-2.6,3.3-3.5c0.1-0.1,0.3-0.4,0.3-0.6  c0-0.1,0.1-0.3,0.1-0.3l0.6,0.7l0.2,0.1l0.1-0.3L40.7,14l0.9-0.6c0,0-0.4-0.7-0.6-0.9c-0.1-0.2-0.4-0.4-0.6-0.6  c-0.2-0.1-0.7-0.4-0.9-0.4c-0.4-0.1-1.7,0-1.7,0L36.6,11v-0.3h-0.2v-0.7h-0.2v0.8h-0.6v-0.4h-1.2l-0.7-0.6h-3.5l1-0.2L32,9.2  c0,0,1.6,0,2.1-0.1C34.6,9.1,36,8.8,36,8.8h22.9L60,8.9l0.8,0.3h1L62.4,9V7.6l-0.6-0.3l-1,0.1L60,7.7l-1,0.1H36.1  c0,0-1.4-0.4-1.9-0.5c-0.6-0.1-1.8-0.3-2.4-0.3c-0.2,0-1-0.1-1-0.1l-0.1-0.5l-1-0.2l-0.3,0.6l-3.1-0.6V5.4h-0.8l-0.4,0.6l-2-0.2  l-0.2-0.6l-0.5-0.3V4.7h0.6V4.4h-0.1V4.1H23V3.8h-0.8v0.4l-0.5,0.1L21,4.2l-1.5,0.6l-0.6-0.1l-0.2-0.3h-0.3V3.2h-0.2v1.2h-0.5V4.2  h-0.3v0.2l0.5,0.5v0.2c0,0-0.5,0.1-0.6,0.2c-0.1,0.1-0.4,0.3-0.5,0.4c-0.1,0.1-0.2,0.4-0.3,0.6c0,0.1-0.1,0.3-0.1,0.3  s-0.3-0.2-0.4-0.2c-0.1,0-0.2,0.1-0.3,0.2c-0.1,0.1-0.2,0.3-0.2,0.4c-0.1,0.1-0.2,0.4-0.2,0.6c0,0.1,0,0.3,0,0.4  c0,0.1,0.3,0.3,0.3,0.3s0,0.5,0,0.6c0,0.1,0,0.3,0.1,0.3c0,0.1,0.1,0.3,0.2,0.4C16,9.8,16.1,9.9,16.1,9.9z"/>
</svg>