<!DOCTYPE svg PUBLIC "-//W3C//DTD SVG 1.1//EN" "http://www.w3.org/Graphics/SVG/1.1/DTD/svg11.dtd">
<svg xmlns="http://www.w3.org/2000/svg" xmlns:xlink="http://www.w3.org/1999/xlink" version="1.1" id="Layer_1" x="0px" y="0px" width="26" height="12" viewBox="0 0 26 12" enable-background="new 0 0 26 12" xml:space="preserve">
<style type="text/css">
      #path-1 {
        fill: #8c8c7c;
     }
    </style>

<path id="path-1" d="M15.2,0.6c-0.1,0-0.2,0-0.2,0c0,0.1,0,0.1,0,0.3c0.1,0,0.1,0,0.2,0c0,0,0,0.1,0,0.1c0,0,0,0,0.1,0  c0.2,0.1,0.4,0,0.6,0.1c0.4,0.1,0.9,0.2,1.3,0.2C17.2,1.4,17.5,2,17.6,2c0.5,0,1.1,0,1.6,0c0.1,0.1,0.7,0.2,0.9,0.2  c0,0.2,0,0.1,0,0.3c-0.1,0-0.2,0-0.2,0c0.2,0,0.2-0.1,0.3,0c0,0.1-0.1,0-0.1,0.1c-0.1,0.1-0.7,0-0.9,0c-0.5,0-1.4,0-1.8,0  c0,0.3,0,0.6,0,0.9c0.1,0-0.1,0.2,0,0.2c0,0,0.2-0.1,0.2,0c0.1,0,0.6,0,0.7,0c0.1,0.2,0.3,0,0.3,0.4c0.1,0.1,0.4,1.1,0.4,1.1  c0.7,0.1,1.5,0.3,2.2,0.5c0.4,0,0.7,0,1.1,0c1.2,0,2.2,0.3,2.6,1c0.4,0.6,0.4,1.6,0,2.2c-0.3,0.4-0.7,0.7-1.1,1  c-0.8,0.6-1.6,1.2-2.6,1.6c-1,0.4-2.5,0.2-3.8,0.2c-2.5,0-5.1,0-7.6,0c-1.4,0-2.8,0-4.2,0c-0.8,0-1.7,0.1-2.3-0.2  c-0.7-0.3-1.4-0.9-1.9-1.3c-0.3-0.2-0.9-1-1-1.3C-0.2,8.2-0.1,7,1.1,6.9c0.1-0.2,0-0.3,0.1-0.4c0,0,0-0.3-0.1-0.3c0.2,0,0.1,0,0,0  c0,0,0.5,0,0.1,0C1.2,6,1.3,5.8,1.3,5.7C2,5.6,2.4,5.2,3,5c0.1,0,0.1,0,0.3,0c0.3-0.1,0.7-0.3,1-0.4C4.9,4.4,5.4,4.4,6,4.2  C7,3.9,8,3.2,8.9,3c0.8,0,1.5,0,2.3,0c0,0.2,0,0.7,0,0.8c0,0,0,0,0,0c0.1,0,0.5,0,0.6,0c0-0.6,0-1.1,0.2-1.6c0-0.2,0-0.3,0.1-0.5  c0.1-0.2,0.1-0.5,0.1-0.7c0.2,0,0.8-0.1,1.1-0.1c0-0.1,0-0.1,0-0.3c-0.1,0-0.2,0-0.2,0c0,0,0,0,0,0c0-0.1,0.1-0.3,0.1-0.4  C13.4,0,12.9,0.1,13.1,0c0.2,0,0.3,0,0.5,0c0.6,0,1.4-0.2,1.5,0.3C15.1,0.4,15.1,0.5,15.2,0.6z"/>

</svg>