<svg xmlns="http://www.w3.org/2000/svg" xmlns:xlink="http://www.w3.org/1999/xlink" preserveAspectRatio="xMidYMid" width="52" height="20" viewBox="0 0 52 20">
  <defs>
    <style>
      .cls-1 {
        fill: #8c8c7c;
        fill-rule: evenodd;
      }
    </style>
  </defs>
  <path d="M5.933,19.975 L30.810,19.975 L32.959,18.760 L34.583,17.710 L35.872,17.041 L37.018,14.655 L36.970,12.984 L34.105,10.368 L31.192,10.321 L29.091,10.121 L28.900,9.501 L28.184,9.453 L27.898,9.835 L27.181,9.835 L27.134,9.214 L29.330,9.023 L31.049,8.402 L51.915,8.402 L51.915,6.732 L30.524,6.397 L29.999,6.016 L28.853,4.918 L23.839,4.202 L23.409,3.200 L22.980,2.913 L22.741,0.670 L22.072,1.099 L21.738,2.388 L19.733,2.484 L18.778,2.961 L17.250,3.390 L16.820,4.154 L14.337,4.059 L13.764,4.966 L13.000,5.061 L12.236,6.016 L11.997,8.020 L12.714,8.879 L15.674,9.118 L15.340,9.357 L5.694,9.214 L5.456,8.489 L3.164,8.441 L2.304,9.205 L2.113,10.836 L4.437,11.060 L4.293,11.307 L1.445,11.505 L1.349,13.462 L0.299,14.130 L0.347,16.421 L2.018,18.808 L5.933,19.975 Z" class="cls-1"/>
</svg>
