<?xml version="1.0" encoding="utf-8"?>
<!-- Generator: Adobe Illustrator 25.3.1, SVG Export Plug-In . SVG Version: 6.00 Build 0)  -->
<svg version="1.1" id="Слой_1" xmlns="http://www.w3.org/2000/svg" xmlns:xlink="http://www.w3.org/1999/xlink" x="0px" y="0px"
	 width="74.9px" height="25.4px" viewBox="0 0 74.9 25.4" style="enable-background:new 0 0 74.9 25.4;" xml:space="preserve">
<style type="text/css">
	.st0{display:none;fill-rule:evenodd;clip-rule:evenodd;fill:#FAB81B;}
	.st1{display:none;}
	.st2{display:inline;}
	.st3{fill-rule:evenodd;clip-rule:evenodd;fill:#FAB81B;}
	.st4{fill-rule:evenodd;clip-rule:evenodd;fill:#8C8C7C;}
</style>
<path class="st0" d="M10.6,25.1h26.6c0,0,0.8-0.2,1-0.2c1.3-0.5,3.8-1.9,4.9-2.7c0.2-0.1,0.5-0.5,0.6-0.7s0.4-0.6,0.4-0.8
	c0-0.2,0-0.7,0-0.7l1.1-1.1v-0.3l0.4,0.2l0.4,0.1l0.2-0.2v-0.6L46,17.9h-0.2v0.5h-0.2l-0.5-0.6l-0.6,0.1l-0.4,0.2l-0.4-0.6h-0.2
	L43,17.2l-0.6-0.3H42l0.7-0.1c0,0,0.3,0.2,0.4,0.3c0.1,0.1,0.5,0.1,0.5,0.1v-1.4c0,0-0.5,0-0.6,0.1c-0.1,0-0.2,0.3-0.2,0.3v0.2h-0.4
	L42.3,16H41c0,0,0.1-0.5,0-0.6s-0.4-0.2-0.6-0.2c-0.1,0-0.4-0.1-0.5,0s-0.3,0.4-0.3,0.5s-0.1,0.4-0.1,0.4l0.2,0.2l-0.8-0.2
	c0,0-0.1-0.7-0.2-0.9c-0.1-0.1-0.2-0.2-0.3-0.2s-0.2,0-0.2,0.1c-0.1,0.1-0.3,0.3-0.3,0.3s-0.2-0.3-0.3-0.3s-0.3,0-0.3,0
	c-0.1,0.1-0.3,0.4-0.3,0.4l-1.7-0.4h-1.8v-0.2l1.7-0.2l0.3-1.2h2.2l0.2-0.2l21.2-0.1l0.2,0.2h4.3l0.2-0.2H70V12h-6l-0.2-0.2h-4.4
	L59.2,12l-24.6-0.2L34,11.4c0,0,0.1-0.1,0.1-0.2c0-0.1,0.1-0.3,0-0.5c-0.1-0.1-0.5,0-0.6,0s-0.2,0.2-0.2,0.2l-0.2-0.2H32l-0.2-0.2
	l-2-0.4h0.4V9.6L28,9.4v0.4l-1.2-0.2h-7.5V9.2h-2.2v0.4h-3.5v0.2H13l-0.2-7.4v7.4l-3.9,0.7v3.7l2.3,0.7v0.2h5.9v0.2H1.4v0.3H1.1
	l-0.2,0.2v0.3L1,16.5l0.1,0.7l0.6,2.3c0,0,0.2,0.8,0.3,1.1c0.1,0.3,0.3,0.8,0.5,1s0.5,0.6,0.7,0.7c1.5,1,5,2.1,6.7,2.6
	C10.1,25.1,10.6,25.1,10.6,25.1z"/>
<g class="st1">
	<g class="st2">
		<path class="st3" d="M50,12.3v-0.2c0,0-0.7,0-1.1,0v0.1h-0.3v-0.4h-3.4c0,0.1,0,0.4,0,0.4h-1.9L43.2,12c0,0-3,0-3.9,0L39,11.9
			c0-0.1-0.1-0.1-0.1-0.2h-2.1c-0.1-0.1-0.1-0.1-0.1-0.3c0.1-0.1,0.1-0.2,0.1-0.5c-0.2-0.1-0.2-0.2-0.6-0.2
			c-0.1,0.1-0.2,0.3-0.4,0.4c-0.1-0.1-0.3-0.1-0.4-0.2c-0.1-0.1-0.1-0.2-0.2-0.2c-0.3-0.2-0.6-0.3-1-0.3c-0.1,0.1-0.1,0.2-0.2,0.2
			c-0.1-0.1-0.2,0-0.3-0.1s0.1-0.2-0.2-0.2c-0.1,0-0.1,0.1-0.1,0.1c-0.1-0.1-0.3-0.1-0.5-0.2c-0.2-0.1-0.5-0.3-0.7-0.4h-0.4
			c-0.2,0-0.5-0.1-0.6-0.2c-0.2-0.1-0.5,0-0.6,0.1c-0.2,0-0.5,0-0.7-0.1c0-0.2,0-0.4-0.1-0.5h-0.1c-0.1,0.2-0.2,0.2-0.4,0.3
			c0,0.1,0,0.1,0.1,0.2h-0.2c-0.2-0.1-1.4-0.1-1.8-0.1c-0.1-0.4-0.1-0.1-0.4-0.3c-0.1-0.1-0.2-0.3-0.2-0.5h0.4V8.2
			c-0.3,0-0.3-0.1-0.7-0.1c-0.1,0.1-0.2,0.2-0.2,0.2v0.4c-0.1,0.2-0.2,0.4-0.2,0.5c-0.3,0-0.3,0-0.5,0c0-0.1,0-0.3-0.1-0.4
			c0.1,0,0.1,0,0.2-0.1c-0.7,0-1.4,0-2.1-0.1v0c0.1-0.2,0.1-0.6,0.1-0.7c0.2-0.1,0.6-0.1,1-0.1c0.1,0.1,0.2,0.1,0.3,0.1V7.6
			c-0.2,0-0.6,0-0.7-0.1h2.1c0.3,0,1.2,0.1,1.2,0.1V7c0,0-0.8,0.1-1.2,0.1c0-0.1,0-0.2-0.1-0.2v0.3H24V7h-0.7c0,0-0.1,0.2-0.3,0.1V7
			h-1c-0.3,0.1-1.3,0.3-1.7,0.2C20,7.1,19.7,7,19.4,7l0,0c0.2,0.2,0.2,0.5,0.2,0.8c0.2,0,0.5-0.3,0.6-0.1V7.5c0.2,0,0.4,0,0.5,0.1
			c-0.1,0.2-0.1,0.3,0,0.5h0.1c0-0.2,0-0.4,0.1-0.5c0.1,0,0.1,0,0.3,0c0.1,0.3,0.2,0.2,0.2,0.6h0.2c0-0.1,0-0.2,0.1-0.3h0.2
			C22,8,22,8,22,8.1c0,0.1-0.1,0,0,0.2c0.1,0.1,0.2,0.1,0.4,0.1v0.2c-0.3,0-0.8,0.1-0.9,0c0,0.1,0,0.1-0.1,0.2
			c-0.2,0.1-0.6-0.1-0.7,0.1h0.1C20.9,9,20.6,9,20.7,9.1c0,0,0.1,0.1,0.1,0.2c-0.4,0-0.2,0.2-0.4,0.3c-0.5,0-0.9,0.1-1.4,0.1V9.1
			h-0.2v0.5c-0.3,0-0.6,0-1,0.1c0-0.2,0-0.4-0.1-0.6h-0.1v0.7h-0.4c0-0.2,0-0.3-0.1-0.5c-0.1,0-0.1,0-0.2-0.1c0-0.5-0.1-7.3-0.1-8.1
			c0-0.3,0.1-0.7-0.1-0.9c0,2.8,0.1,8.7,0,9c-0.1,0-0.1,0-0.2,0.1c0,0.2,0,0.4-0.1,0.5c-0.2,0-0.4,0-0.6,0.1v0.2h-0.1V9.6
			c0.1-0.1,0-0.1,0.1-0.2h-3.1v0.1c0.2,0.1,0.1,0,0.1,0.1c0,0-0.1,0-0.1-0.1V10c-0.1,0.1-0.1,0.1-0.1,0.2h0.1c0,0,0-0.2,0.1-0.1v0.1
			c0.1,0.1,0,2.5,0,3.2c0,0,0.8,0.1,1.2,0.1v-0.2h1.8V13H16v0.3h1.3c0.1,0.2,1.2,1,1.5,1v0.1c-0.1,0-2.6-0.3-3.2-0.4v-0.2h-0.2V14
			c-0.3,0-0.6,0-0.9-0.1c-0.8-0.2-1.8-0.2-2.5-0.4c-0.5-0.1-1.1-0.1-1.6-0.2l-0.1-0.1v-0.1C10,13,9.8,13.3,9.6,13.3
			c-0.7,0-3.1-0.2-3.5-0.2H2.9c-0.2,0.1-0.7,0.1-0.9,0.2c-0.1,0.1-0.3,0.2-0.4,0.3c-0.5-0.1-0.8-0.3-0.8,0.4c0.1,0.1,0,0.1,0.1,0.2
			l0.3,0.2c0.1,0.1,0,0.5-0.1,0.6c0,0.6,0,1.1,0.1,1.7c0.2,0.6,0.3,1.3,0.4,1.9c0.1,0.4-0.1,0.8-0.1,1.2c0.1,0,0.2,0.1,0.3,0.1
			c0,0.2,0.1,0.4,0.1,0.6c-0.1,0-0.1-0.1-0.2,0s0,0.1-0.1,0.2c0.1,0.1,0,0.2,0.1,0.3c0.1,0.1,0.2,0.1,0.3,0.2
			c0.1,0.1,0.1,0.2,0.2,0.3c0.1-0.1,0,0,0.1-0.1s0-0.2,0-0.2h0.1c0.2-0.2,0.3-0.4,0.3-0.7c0.9,0.1,1.4,1.4,2.1,1.8
			c0,0,2.9,2.1,4.1,2.5c0.8,0.3,2,0.1,2.9,0.1h5.9c6.7,0,20,0,20,0s2.5-0.9,3.6-1.5c1.9-1,4.3-1.5,3.6-4.6c0.2-0.1,0.3-0.3,0.5-0.4
			c0.2,0.2,0.4,0.1,0.6,0c0-0.1,0-0.1,0.1-0.2c0.2-0.2,0-0.5-0.1-0.7h-0.2v0.4c-0.1,0-0.1,0-0.2,0.1l-0.1-0.2
			c-0.1-0.2,0.2-0.1,0-0.3c-0.3-0.3-1-0.3-1-1c-0.1-0.1,0-0.1-0.1-0.2c-0.1,0-0.1,0-0.2-0.1h0.2V16h-0.1c-0.2-0.1-0.4,0-0.6,0
			c0,0.2,0.1,0.2,0.1,0.3v0.1c-0.3-0.2-0.2,0-0.5-0.1c-0.1,0-0.1-0.2-0.2-0.2c0,0-0.1,0.1-0.2,0.1V16c-0.1,0-0.3-0.1-0.5-0.1v-0.3
			c-0.1,0-0.1-0.1-0.1-0.1c-0.2-0.1-0.5,0-0.6-0.1C41.4,15.2,41.1,15,41,15c-0.2,0.2-0.4,0.5-0.7,0.5c-0.1-0.2-0.4-0.2-0.7-0.2
			c0-0.2,0-0.3,0.1-0.5h-1.3v0.1c-0.1,0.1,0,0.1-0.1,0.2H38c0,0,0-0.1,0.1-0.1h-0.4c-0.3,0.2-0.3,0-0.4-0.1c-0.2-0.1-0.3,0-0.4,0.1
			v-0.1H37c0.1,0-0.2-0.1-0.2-0.1V15c-0.1,0.1-0.2-0.2-0.2-0.2c-0.2-0.1-0.3,0.1-0.5,0.1v-0.1c0.1-0.1,0.1-0.2,0.1-0.4
			c0.4-0.1,0.6-0.4,0.9-0.5H39c0-0.1,0.1-0.1,0.1-0.2c1.1,0,2.2,0,3.3-0.1c0.1,0,0.5,0,0.7-0.1l0.2-0.1v-0.1h1.9v0.1h3.4v-0.1h0.3
			v0.2H50v-0.2c4.2,0,12.6-0.1,12.6-0.1v-1L50,12.3z M16,12.5h-0.1v-1.8H16V12.5z M1.3,14c-0.1,0-0.2,0-0.2,0.1v-0.3
			c0.1,0,0.1-0.1,0.3-0.1C1.4,13.8,1.4,13.9,1.3,14z M9.8,13.7h-8v-0.1h0.1c0.4-0.4,1-0.2,1.6-0.3c0.6-0.2,5.4,0.1,6.4,0.1v0.3H9.8z
			 M10.2,13.7v-0.2c0.3,0,1,0,1.2,0.2H10.2z M22.7,7.2h-0.3V7.1L22.7,7.2L22.7,7.2z M23.4,8.3h-0.1c0,0.1,0,0.2,0.1,0.2H23l0,0
			c0-0.1,0-0.5-0.1-0.7h0.4C23.4,8,23.5,8.2,23.4,8.3z M35.6,14.7c-0.1,0.1-0.3,0.1-0.5,0.1v-0.1h0.2v-0.2h0.1
			c0.1-0.1,0.1,0,0.2-0.1C35.5,14.7,35.6,14.7,35.6,14.7z M41,15.2c0.1,0,0.1,0,0.2,0.1c0.1,0.1,0.1,0.1,0.1,0.2
			c-0.1,0-0.1,0-0.2,0.1c0,0,0,0-0.1,0s-0.1-0.1-0.1-0.1C41,15.4,41,15.3,41,15.2z M36.4,11.4c-0.3-0.3-0.3-0.1-0.1-0.5h0.3
			c0,0.1,0.1,0.2,0.1,0.4C36.5,11.3,36.6,11.4,36.4,11.4z"/>
	</g>
</g>
<g>
	<g>
		<path class="st4" d="M62.5,12.5l-0.1-0.3H59v0.3l-0.5-0.1v0.1c0,0-15.8-0.2-16.9-0.3c-0.5-0.1-1.2,0.1-1.6-0.1
			c-0.1,0-0.2-0.2-0.2-0.2c-0.2,0-0.3,0-0.5-0.1c-0.1,0-0.2-0.2-0.3-0.3h-0.1c-0.1,0-0.1-0.3-0.1-0.3h-0.3c-0.1,0-0.2-0.2-0.3-0.3
			c-0.3-0.1-0.8,0-1-0.2c-0.4,0-0.6-0.1-0.7-0.4V10c-0.1-0.2-0.2-0.3-0.3-0.5c-0.5-0.1-0.5,0.1-1,0.1v0c-0.2,0.1-0.1,0-0.1,0.1H35
			c0-0.3,0.1-0.3,0.3-0.4c0-0.2,0-0.1-0.1-0.2v0c-0.1,0-0.2,0.1-0.3,0.1L35,9.1h-0.8c-0.2,0.1-0.3,0.3-0.5,0.4
			c-0.2,0.1-1.7-0.1-1.9-0.2c-0.5-0.1-1,0.2-1.2-0.2c-0.2,0-0.2,0-0.3,0.1c0,0.2,0.1,0.2,0.2,0.3c0.1,0.3,0,0.3,0.3,0.4
			c-0.1,0.1-0.4,0.1-0.5,0h-0.1c0-0.1,0-0.3-0.1-0.4h-0.2c0-0.3,0-1.1-0.1-1.2V8c0,0-0.1,0-0.1,0.1c0-0.2-0.1-0.1,0.1-0.2
			c0-0.2,0-0.2-0.2-0.3c-0.2-0.1-0.6,0.1-0.9,0.1C28.5,8,28.3,9,28.6,9.3c-0.1,0.2,0,0.1-0.2,0.1v0.3h-0.1c-0.1-0.2-0.2-0.3-0.2-0.5
			h-0.3V8.7h-0.6v0.4c-0.1-0.1-0.1-0.2-0.1-0.4h-1.3c0,0.1,0,0.1-0.1,0.2l-0.1-0.1v0.1c-0.2,0-0.5-0.3-0.6,0c0,0-0.3,0-0.2-0.1
			c0-0.1,0.1,0,0.1-0.1c0,0-0.3,0-0.2,0.1c0,0.1,0.1,0,0.1,0.1c-0.2,0-0.2-0.1-0.3,0c-0.2-0.1-0.1,0-0.1-0.2c-0.1,0-0.1,0-0.1,0.1
			c-0.3,0-0.4-0.1-0.6-0.1c0-0.1,0.1-0.2,0.1-0.3c-0.1-0.2-0.2-0.2-0.2-0.5c-0.1,0-0.1,0-0.2,0.1h-0.1V7.6c0.2,0,0.3-0.1,0.4,0
			c0.2-0.1,0.1,0,0.1-0.2c0.8,0,3-0.1,3-0.1l-0.1-0.2h-1.1V6.7l-0.1,0.4h-0.7H24c0,0-0.6-0.2-0.8-0.3c-0.5-0.1-1.2,0-1.5,0.1
			C21,7,20.5,7,19.9,7v0.4c0.2,0,0.1,0.1,0.3,0c0.4,0,0.4,0.1,0.4,0.3c0.1,0,0.2,0,0.3-0.1c0,0.2,0,0.3,0.1,0.5
			c0.3,0.1,1.1,0.1,1.4,0.3h0.1c0-0.2,0-0.2-0.1-0.3V7.7c0.2,0,0.3,0,0.6,0V8c-0.1,0-0.3,0-0.4,0.1c-0.1,0.3-0.1,0.8-0.1,1.2h-0.3
			c0,0.1-0.2,0.1-0.2,0.2c-0.2,0-0.3-1.1-0.4-1.2c-0.1,0.1,0.2,1.1,0.2,1.3c-0.1,0-0.3,0-0.4-0.1s-0.2-1.1-0.1-1.2
			c-0.1,0-0.2,1.3-0.1,1.7h-0.9V9H20v0.6c-0.1,0.2-0.1-0.1-0.2,0.3h-2.7V9.7c-0.2,0-0.1-0.1-0.2,0h-0.1v0.2h-0.2
			c-0.3-0.7-0.3-7.8-0.2-8.8c-0.3,0.4,0.1,7.8-0.1,8.3c-0.1,0.2-0.2,0.1-0.2,0.5c-0.2,0-0.6,0.1-0.8,0.3c0,0.1-0.1,0.2-0.1,0.3h-2.3
			v-0.2h-0.1v-0.1c-0.2,0-0.2,0-0.3,0.1c0,1,0,2,0.1,2.9c0.1,0,0.1,0.1,0.2,0.1c0.8,0,2.2-0.2,2.5,0.3c0.3,0,1.5,0,1.7,0.1
			c0.6,0,0.9,0,1.3,0.2V14l-0.1-0.1c-0.2,0-0.2,0.2-0.3,0.2h-0.5c0.1-0.1,0.3-0.1,0.4-0.1c0-0.2,0-0.2-0.1-0.3c-0.7,0-1.6,0-2.3-0.1
			c-0.4,0-0.7,0-1.1,0.1c0,0,0-0.1-0.1-0.1c-0.2,0.1-0.3-0.1-0.5-0.1c-0.3-0.1-1.1,0.1-1.2,0.1c-0.1,0,0-0.2-0.2-0.1
			c0,0,0,0.1-0.1,0.1c-0.4,0.1-1.2-0.1-1.5-0.1c-0.1,0-0.3,0.2-0.5,0.1c-0.1,0-0.1-0.2-0.3-0.1c-0.1,0-0.2,0.3-0.3,0.3
			c-0.8,0-1.6,0-2.4-0.1c-0.2,0.1-0.7,0.1-1,0.3c-0.4,0.2-0.7,0.6-1.1,0.8C5,14.5,4.8,14.1,4.6,14c-0.1-0.1-0.5,0.3-0.6,0.3H3.7
			c0,0.1-0.1,0.1-0.1,0.2c-0.1,0-0.3,0.1-0.4,0.1c0,0.1-0.1,0.1-0.1,0.2c-0.1,0-0.3,0.1-0.4,0.1c0,0,0,0.1-0.1,0.1H2.5v0.1
			C2.3,15,2.2,15.2,2,15.3c0,0.3,0.2,0.5,0.3,0.7c-0.4,0.2-0.7,0.5-1.3,0.5c0,0.4-0.3,0.7-0.1,1.2c0,0.1,0.2,0.6,0.1,0.8
			c0,0.1-0.2,0.3-0.2,0.3c-0.1,0.3-0.1,0.7-0.1,1.1h0.4c0,0.1,0,0.1,0.1,0.2s0.1,0,0.3,0c-0.1,0.3-0.2,0.5-0.2,1
			c0.1,0.1,0.1,0.1,0.1,0.2c0.1,0,0.3,0.1,0.3,0.1h0.5c0,0.1,0.1,0.1,0.1,0.2c0.2,0.1,0.4,0.2,0.6,0.3c0,0,0,0.1,0.1,0.1
			s0.3,0.1,0.4,0.1c0.4,0.2,3.8,2.2,4.9,2.5c0.8,0.2,2,0.2,2.9,0.2h24.5c0.8,0,1.9,0.1,2.5-0.1c0.9-0.3,5.1-2.2,6-2.6
			c0.9-0.5,1.3-0.5,1.6-1.6c0.1-0.2,0.1-0.8,0.1-0.8l0.9-0.8h0.1c0,0-1-1.4-1.3-1.5c-0.2-0.2-1.1-0.1-1.4-0.1v-1.4
			c-0.9,0-1.1-0.1-1.4,0.5h-0.6v-0.1c0.2,0,0.2-0.1,0.4-0.2c0-0.5-0.3-0.5-0.5-0.8c0.1-0.3-0.2-0.7,0-1v-0.1c1.3-0.2,16-0.3,16-0.3
			l0.7,0.1l0.3-0.2v0.4l3.4-0.1V14h11.7v-1.5H62.5z M12.9,12.8h0.3C13.1,12.9,13,12.9,12.9,12.8z M13.5,12.8H14
			C13.8,12.9,13.6,12.9,13.5,12.8z M14.1,12.8h0.5C14.5,12.9,14.2,12.9,14.1,12.8z M14.8,12.8h0.3C15,12.9,14.9,12.9,14.8,12.8z
			 M15.1,12.6h-2.2v-0.8h2.2V12.6z M15.1,11.5h-2.2v-0.8h2.2V11.5z M1.4,17.6H1.3c0-0.1,0-0.2-0.1-0.3h0.2c0,0.1,0,0.1,0.1,0.1v0.2
			H1.4z M1.9,20.8H1.8c-0.1-0.2-0.2-0.3-0.1-0.4v-0.1C1.8,20.4,1.8,20.6,1.9,20.8L1.9,20.8z M2.2,16.8c-0.1,0-0.2-0.1-0.4,0
			c0-0.1,0-0.1,0.1-0.2h0.5C2.3,16.7,2.3,16.7,2.2,16.8z M10.4,13.8c-0.1-0.1-0.1,0-0.1-0.1C10.4,13.7,10.4,13.7,10.4,13.8
			C10.4,13.8,10.4,13.7,10.4,13.8z M12.1,13.7h0.2C12.2,13.8,12.2,13.8,12.1,13.7z M12.4,13.8c0.1-0.1,0.3-0.1,0.4-0.1h0.8
			C13.5,13.8,12.7,13.8,12.4,13.8z"/>
	</g>
</g>
</svg>
