<?xml version="1.0" encoding="utf-8"?>
<!-- Generator: Adobe Illustrator 25.3.1, SVG Export Plug-In . SVG Version: 6.00 Build 0)  -->
<svg version="1.1" id="Layer_1" xmlns="http://www.w3.org/2000/svg" xmlns:xlink="http://www.w3.org/1999/xlink" x="0px" y="0px"
	 width="52.1px" height="21.1px" viewBox="0 0 52.1 21.1" style="enable-background:new 0 0 52.1 21.1;" xml:space="preserve">
<style type="text/css">
	.st0{display:none;fill-rule:evenodd;clip-rule:evenodd;fill:#FAB81B;}
	.st1{fill-rule:evenodd;clip-rule:evenodd;fill:#FAB81B;}
</style>
<path class="st0" d="M6.3,20.8l-4.9-3.2l-0.1-1.2L0,15.5l1.1-1.4v-0.5l-0.9-0.4l0.5-0.5l0.6-0.9H6l0.3,0.4h0.3v-0.4c0,0,0.9,0,1,0
	s0,0.3,0,0.3h0.6c0-0.2,3.5-0.6,3.5-0.6l0.9,0.6h2.7L15,11.7L12.2,11v-0.3h-0.9l-0.6,0.2l-1.1-0.6c0,0-0.2-0.6-0.2-0.7
	c0-0.1,0.2-0.9,0.2-0.9l0.5-0.2c0,0,1,0,1.1,0s0.9-0.9,0.9-0.9s0.7,0.7,0.8,0.6c0.1-0.1,0.7,0,0.7,0l0.3,0.4c0,0,1.3-0.2,1.4-0.3
	c0-0.1,0.3-0.5,0.3-0.5h0.6l0.1-0.9h4.6l0.5,1h1.1l0.2-6.2l0.2,6.1h1.3c0,0,3.1,0.8,3.1,0.7c0.1-0.1,0.4-0.8,0.4-0.8l0.4,0.7
	l0.4-0.2l0.8,0.7L32,9.5l0.2,0.2l11.3,0.2V9.6h3.7v0.3h1V9.6h2c0,0,0,1.4,0,1.3s-2,0-2,0v-0.2h-0.9V11h-3.8v-0.3H32.1L32,11l-2,0.6
	l-0.6-0.5L29,11.3l0.3,0.5l-0.5,0.6h2.6v0.3h0.8v-0.5h0.9c0,0-0.1,0.5,0,0.5s3,0,3,0v1h1.1l2.7,1.3l0.1,0.7l-0.3,0.2l0.1,0.5
	L38.4,18l-5.3,2.7L6.3,20.8z"/>
<g>
	<g>
		<path class="st1" d="M50.3,9.9V9.4c0.4,0,0.7,0,1.1,0c-0.2-0.1-1.1,0-1.4,0c-1.1,0-2.3,0-3.5,0h-3.7c-0.6,0-1.4-0.1-1.9,0h-1.3
			c-0.7,0.2-2.1,0-3,0h-1.3c-0.1,0-0.5-0.1-0.6-0.1H34c-0.3-0.1-0.7-0.1-1.1-0.1V9c-0.5-0.2-1.3-0.3-1.9-0.4c-0.2-0.1-0.5,0-0.6-0.1
			h-0.2c0,0,0-0.1,0-0.1c-0.2,0-0.2,0-0.3,0c-0.2-0.2-0.4-0.3-0.5-0.5c-0.2,0-0.4,0.1-0.5,0.2c-0.2-0.3-0.3,0-0.5-0.3
			c-0.3,0-0.4,0.1-0.5,0.3h-0.2V7.9c-0.3-0.1-0.6-0.1-0.9-0.2c-0.9-0.3-1.9-0.4-3-0.5V7.1h-0.1c0-0.5,0.1-1,0.1-1.6
			c0-0.6,0-0.9,0-1.6c0-1.4-0.1-2.2-0.1-3.6c-0.1,0.1,0,0.4,0,0.6v1.5c0,1.9,0.1,3-0.2,4.7c-0.6,0-1.3-0.1-1.9,0V6.4h-0.4v0.1
			c-0.3-0.2-0.8-0.1-1.4-0.1h-3.1c0,0.3,0,0.6,0,0.8c-0.2,0-0.6,0.1-0.7,0c-0.1,0-0.1,0-0.1-0.1h0c-0.1,0,0.1,0,0.1,0
			c-0.1-0.2,0,0-0.1-0.1c-0.1-0.1-0.1-0.2-0.1-0.4c-0.3-0.7,0.1-1.6,0.6-1.9c0.2-0.2,0.4-0.2,0.5-0.4c-0.3-0.1-0.7-0.1-1,0
			c-0.2,0-0.3,0-0.5,0c0,0,0,0.1,0,0.1c-0.1,0-0.3,0-0.4,0l-0.1,0.1c-0.1,0-0.2,0-0.3,0c-0.2,0.1-0.4,0.3-0.5,0.4h-0.1
			c-0.1,0-0.3,0.1-0.4,0.2c0,0-0.1,0-0.1,0c0,0,0,0.1,0,0.1H13c0,0-0.1,0.1-0.1,0.1c-0.1,0.1-0.2,0-0.3,0.1
			c-0.1,0.1-0.1,0.2-0.2,0.2c-0.2,0.2-0.4,0.3-0.5,0.5V6c-0.2,0.2-0.5,0.3-0.6,0.5c-0.1,0.1-0.1,0.2-0.1,0.3C11,6.9,10.9,7,10.9,7
			c0,0.1,0,0.2,0,0.2c0,0.1-0.2,0.1-0.2,0.2c-0.1,0.2-0.1,0.3-0.2,0.5c0,0.1-0.2,0.1-0.2,0.2v0.2C10.2,8.4,10,8.5,9.9,8.7v0.1
			C9.9,8.9,9.7,9.1,9.6,9.2C9.6,9.3,9.5,9.3,9.4,9.4C9.3,9.5,9.2,9.6,9.1,9.7C9,9.8,8.7,9.8,8.5,10c0,0,0,0.1,0,0.1
			c-0.3,0.2-0.8,0.2-1,0.4h0v0c1.1,0,2.6,0.1,3.6-0.1c0.4-0.1,1.2,0.1,1.3,0c0,0.1,0.3,0.3,0.4,0.3v0c-0.2,0-0.3,0.2-0.4,0.2
			c-0.1,0-0.1,0-0.1,0h-0.6c-0.1,0-0.3-0.1-0.4-0.1c-0.3-0.1-0.6,0-0.9-0.1c-0.4,0-0.8,0-1.3,0c-0.5-0.1-1.1,0-1.7-0.1
			c-0.1,0-0.1-0.1-0.2,0c-0.1,0-0.4,0-0.6,0.1c-0.1,0-0.2,0.1-0.2,0.1c-0.3,0-0.5,0-0.8,0c-0.9,0-1.7,0-2.6,0
			c-0.2,0-0.4,0.1-0.6,0.1H2.2c0,0,0,0.1,0,0.1c-0.2,0.1-0.3,0.1-0.6,0.1c0.1,0.1,0.1,0.1,0.2,0.1c-0.1,0.2-0.2,0.1-0.3,0.2
			c-0.2,0.1-0.4,0.5-0.4,0.7c-0.1,0.1,0.3,0.7,0.3,1h0.1v0h0v0.4c0,0.1-0.4,0.3-0.4,0.4c-0.2,0.3-0.5,0.7-0.8,0.9
			c0.2,0.3,1.1,0.7,1.5,0.8c-0.1,0.2,0.1,0.7,0,0.9H1.7c-0.1,0.2,0.3,0.2,0,0.3v0.1h0.1c0,0-0.2,0.1-0.1,0.2h0.1v0.1H2
			c0.1-0.1,0.1-0.2,0-0.3c0.1,0,0,0,0.1,0c0,0.2-0.1,0.7,0,0.8c0.1,0,0,0,0.1,0c0.1-0.2,0.1-0.4,0-0.7c0.1,0.1,0.2,0.2,0.3,0.3
			c0,0,0.3,0.2,0.3,0.2c0.1,0.1,3.3,2.4,3.9,2.6c0.4,0.1,1.3,0,1.8,0h22.5c0.8,0,2.2,0.1,2.8-0.1c0.6-0.2,2.9-1.6,3.4-1.9
			c0.1-0.1,0.3-0.1,0.4-0.1c0,0,0-0.1,0-0.1H38v-0.1h0.1c0,0,0-0.1,0-0.1c0.1,0,0.2-0.1,0.3-0.1c0.1-0.1,0.7-0.5,0.8-0.6
			c0.3-0.4,0.6-1.1,0.4-1.7c0.1-0.1,0.2-0.1,0.3-0.2c0-0.2,0-0.3,0-0.5c0.1-0.1,0.3-0.2,0.2-0.5c-0.1-0.2-0.3-0.4-0.4-0.6
			c-0.1-0.1-0.2-0.1-0.2-0.2c-0.1-0.1-0.1-0.2-0.2-0.3c-0.3-0.2-0.7-0.3-1-0.4c-0.1,0-0.2,0-0.2,0c-0.2,0-0.5,0-0.7,0
			c-0.1,0-0.6-0.1-0.7-0.1c-0.3,0-0.8,0-1.1,0h-0.5c0,0,0-0.1,0-0.1h-0.1c0,0,0-0.1,0-0.1c-0.1-0.1-0.3-0.1-0.4-0.1
			c-0.3-0.1-0.5-0.4-0.9-0.4v-0.2c-0.3,0-0.5,0-0.6,0.2c-0.3,0-0.3-0.1-0.5-0.1c-0.4-0.1-1.1,0.1-1.4,0c-0.3-0.1-0.6,0.1-0.8,0h-0.6
			c0-0.1,0.1-0.2,0.1-0.3c0.3-0.1,0.6-0.1,1-0.1c-0.1-0.2-0.5-0.5-0.7-0.6v-0.1h0c0.1,0,0,0,0.1,0c0.1,0.2,0.4,0.3,0.5,0.4
			c0.4-0.1,0.8-0.2,1.2-0.3c0.2,0,0.4-0.1,0.6-0.1l0.3-0.1c0.1-0.1,0.1-0.2,0.3-0.1c0.3,0.1,0.9,0,1.1,0.2h0.2
			c-0.1-0.1-0.1-0.2-0.3-0.2v0c2.4,0,4.9-0.1,7.3,0c0.2,0,0.2,0.1,0.3,0.1c0.2,0,0.4,0,0.6,0c0.2,0.1,1.9,0,2.1,0h2.8
			c0.3,0,0.8,0.1,1,0h3.3v0c-0.3-0.1-0.6-0.1-0.8-0.2C50.4,10,50.4,9.9,50.3,9.9z M28.1,8.1c-0.1-0.1-0.1,0,0-0.1h0.1
			C28.2,8.1,28.2,8,28.1,8.1z M49.5,10c-0.2,0-0.3,0-0.4-0.1c0-0.1,0,0,0-0.1c0,0,0.1-0.1,0.1-0.1c0.2,0,0.2,0.1,0.4,0.1
			C49.5,9.9,49.5,9.9,49.5,10z"/>
	</g>
</g>
</svg>
