<?xml version="1.0" encoding="utf-8"?>
<!-- Generator: Adobe Illustrator 27.2.0, SVG Export Plug-In . SVG Version: 6.00 Build 0)  -->
<svg version="1.1" id="Слой_1" xmlns="http://www.w3.org/2000/svg" xmlns:xlink="http://www.w3.org/1999/xlink" x="0px" y="0px"
	 width="69.4px" height="23.3px" viewBox="0 0 69.4 23.3" style="enable-background:new 0 0 69.4 23.3;" xml:space="preserve">
<style type="text/css">
	.st0{display:none;fill-rule:evenodd;clip-rule:evenodd;fill:#FAB81B;}
	.st1{display:none;}
	.st2{display:inline;}
	.st3{fill-rule:evenodd;clip-rule:evenodd;fill:#FAB81B;}
	.st4{fill-rule:evenodd;clip-rule:evenodd;fill:#8C8C7C;}
</style>
<path class="st0" d="M15.8,13.2h-1.4l-11.7,1l-0.2,0.2l-0.1,0.8v0.3l-0.3,0.2c0,0-0.1-0.2-0.2-0.2c-0.3-0.1-0.6-0.1-0.8,0
	c-0.1,0.1-0.3,0.3-0.4,0.4c-0.1,0.1-0.1,0.3-0.1,0.4c0,0.1,0,0.3,0.1,0.3c0.1,0.1,0.3,0.3,0.4,0.3C1.3,17.2,1.7,17,1.7,17l0.2,0.1
	L2.2,17l0.2,0.3c0,0-0.2,0.4-0.3,0.5c-0.1,0.1-0.2,0.4-0.2,0.5s0,0.4,0,0.5s0.2,0.4,0.3,0.5c1.1,1.1,3.8,2.5,5.2,3
	c0.3,0,0.9,0.1,0.9,0.1h26.9c0,0,0.5-0.1,0.7-0.1c0.1,0,0.4-0.1,0.5-0.2c1-0.7,2.6-2.6,3.3-3.5c0.1-0.1,0.3-0.4,0.3-0.6
	c0-0.1,0.1-0.3,0.1-0.3l0.6,0.7l0.2,0.1l0.1-0.3l-0.6-0.9l0.9-0.6c0,0-0.4-0.7-0.6-0.9c-0.1-0.2-0.4-0.4-0.6-0.6
	c-0.2-0.1-0.7-0.4-0.9-0.4c-0.4-0.1-1.7,0-1.7,0l-1.2-0.5V14h-0.2v-0.7h-0.2v0.8h-0.6v-0.4h-1.2l-0.7-0.6h-3.5l1-0.2l0.8-0.4
	c0,0,1.6,0,2.1-0.1c0.5,0,1.9-0.3,1.9-0.3h22.9l1.1,0.1l0.8,0.3h1l0.6-0.2v-1.4l-0.6-0.3l-1,0.1L59.7,11l-1,0.1H35.8
	c0,0-1.4-0.4-1.9-0.5c-0.6-0.1-1.8-0.3-2.4-0.3c-0.2,0-1-0.1-1-0.1l-0.1-0.5l-1-0.2l-0.3,0.6L26,9.5V8.7h-0.8l-0.4,0.6l-2-0.2
	l-0.2-0.6l-0.5-0.3V8h0.6V7.7h-0.1V7.4h0.1V7.1h-0.8v0.4l-0.5,0.1l-0.7-0.1l-1.5,0.6L18.6,8l-0.2-0.3h-0.3V6.5h-0.2v1.2h-0.5V7.5
	h-0.3v0.2l0.5,0.5v0.2c0,0-0.5,0.1-0.6,0.2c-0.1,0.1-0.4,0.3-0.5,0.4c-0.1,0.1-0.2,0.4-0.3,0.6c0,0.1-0.1,0.3-0.1,0.3
	s-0.3-0.2-0.4-0.2s-0.2,0.1-0.3,0.2c-0.1,0.1-0.2,0.3-0.2,0.4c-0.1,0.1-0.2,0.4-0.2,0.6c0,0.1,0,0.3,0,0.4c0,0.1,0.3,0.3,0.3,0.3
	s0,0.5,0,0.6s0,0.3,0.1,0.3c0,0.1,0.1,0.3,0.2,0.4C15.7,13.1,15.8,13.2,15.8,13.2z"/>
<g class="st1">
	<g class="st2">
		<path class="st3" d="M57.6,12.1c-0.4,0-0.6,0.1-1,0.1c-0.1,0-0.2,0-0.3-0.1c-0.1,0-0.3,0.1-0.5,0.1c-0.1,0-0.4-0.1-0.5-0.1
			c-1.6,0.2-3.9,0.2-5.9,0.2c-3.2,0-12.1,0.1-12.9-0.1c-0.5-0.1-1.1,0-1.5-0.1h-1.9c0-0.1,0-0.1-0.1-0.2c-0.4-0.1-0.8-0.1-1.2-0.2
			c0-0.7,0-1,0-1.8c-0.9,0-0.8,0.1-1.4,0.4c-0.1,0.2-0.3,0.7-0.1,1v0.1c-0.1,0-0.2,0-0.3-0.1c-0.2,0-0.2,0-0.2,0.2
			c-0.4-0.2-0.8-0.2-1.2-0.3c-0.9-0.3-1.9-0.5-2.8-0.8c-0.4-0.1-1.1-0.1-1.5-0.3h-0.6c0.1-0.1,0.1-0.6,0-0.7
			c-0.2-0.1-0.5-0.1-0.7-0.2c-0.2,0.1-0.3,0.3-0.3,0.5c-0.2,0-0.4,0-0.6,0.1V10H22c0-0.3-0.1-0.3-0.1-0.6c-0.1-0.1-0.2-0.1-0.4-0.1
			c0.1-0.2,0.1-0.1,0.2-0.3h0.1c0-0.1-0.1,0-0.1-0.1c0,0,0-0.1,0.1-0.1c-0.2,0-0.1,0-0.3,0c0-0.2,0-0.2-0.1-0.3V8.5
			c0.1,0,0,0,0.1-0.1c0.4,0,0.1,0.1,0.4,0.2c0,0.1-0.1,0.2-0.2,0.2v0.1c0.2,0,0.4-0.2,0.6,0c0.2-0.1,0.2-0.1,0.3-0.2
			c0-0.3-0.1-1-0.1-1.3c-0.1,0,0,0-0.1-0.1c-0.7,0-0.7,0.3-1.1,0.5c0,0.4-0.1,0.5-0.2,0.9c-0.1,0-0.3,0-0.3-0.1h-0.1
			c0,0,0,0.2-0.1,0.2c-0.2,0.1-0.4,0.1-0.5,0.2c0,0-0.1,0.1-0.2,0.2h-1.6c0-0.1,0-0.2-0.1-0.3V8.5h-0.1c-0.1,0.2-0.1,0.6-0.1,0.9
			c-0.1,0-0.1,0-0.2,0.1c-0.2,0.1-0.1,0.1-0.3,0.2c0,0.1,0,0.1,0.1,0.2c0,0-0.1,0-0.1,0.1c-0.1,0.1,0,0.2-0.1,0.2
			c-0.1,0.3-1,0.3-1.5,0.3v-0.2c-0.2,0.1-0.1,0.1-0.2,0.2h-0.5c-0.2,0.1-0.8,0-1,0.1c-0.3,0-0.6,0-0.9,0c-0.4,0-0.6,0.2-0.8,0.5
			c-0.4,0.6-0.4,1.5-0.4,2.3c0.1,0.1,0,0.1,0.1,0.2c0.2,0.3,0.6,0.4,1,0.4c0,0.1,0,0.1-0.1,0.2c0,0.1,0,0.1,0.1,0.2v0.1h-1.2v-0.2
			c-0.3,0-0.4-0.1-0.5-0.1c-0.2-0.1-0.3,0.1-0.4,0.1L11.3,14c-0.1,0-0.4,0-0.4-0.1c-0.1,0-0.2,0-0.2,0.1H6.7c-0.9,0-2-0.1-2.2,0.6
			c-0.3,0-0.3-0.1-0.4-0.1c-0.1,0-0.3,0-0.4,0.1c0-0.2,0-0.2,0-0.2l-0.1-0.2c-0.2,0-0.3,0-0.5-0.1c-0.1,0.1-0.1,0.2-0.2,0.2
			c0,0.1,0.1,0.2,0.2,0.2c-0.1,0.1-0.2,0.1-0.3,0.1c0,0.1,0,0-0.1,0.1c0,0.2,0,0.3,0.1,0.5c-0.3,0-0.4,0.1-0.6,0.1v0.2
			c-0.4,0.2-0.8,0.6-1,1c0,0-0.4,0.4-0.5,0.4c0.1,0.1,0.4-0.5,0.8-0.3c0,0.9,0,1.2,0.4,1.9c0.1,0.1,0.1,0.3,0.2,0.4
			c0.1,0.1,0.3,0.1,0.4,0.2c0.2,0.1,0.1,0.4,0.3,0.5c0.2,0.1,0.3,0,0.5,0.1c0.5,0.3,3.9,2.4,5.3,2.8c0.6,0.2,1.7,0.1,2.5,0.1H16
			c6.1,0,16.3,0,18.3,0c1.4,0,4.7-2.7,4.9-3h0.3c0,0.1,0,0.2,0.1,0.2c0,0.1,0.1,0.1,0.1,0.2c0.5,0,0.2-0.1,0.5-0.3l0.1-0.1h0.2
			c0,0,0.3-0.1,0.3-0.2c0-0.1,0-0.1,0.1-0.2c0.3-0.4,0.5-0.8,0.2-1.4c-0.1-0.2-0.1-0.3-0.3-0.4c0-0.3,0.6-0.7,0.8-0.8
			c0,0,0-0.1,0.1-0.1l0.4,0.4c0.1,0,0.1,0,0.2-0.1c0-0.1,0-0.1,0.1-0.2c-0.1-0.2-0.4-0.2-0.5-0.4c0-0.1-0.1-0.1-0.1-0.2
			c-0.4-0.3-1.4-0.9-2-0.9v-0.3c-0.4,0-1.1,0.1-1.2-0.2c-0.2,0-0.3,0-0.4,0.1V15c-0.6,0-1-0.1-1.4-0.2c-0.2-0.1-0.4,0-0.6-0.1h-0.1
			v-0.3c-0.5,0-0.8-0.1-1.2-0.2h-1.1c0,0-0.1-0.1-0.2-0.2c-0.2,0-0.4,0-0.8-0.1c0,0.1,0,0.1,0.1,0.2v0.1c-0.1,0-0.8-0.1-0.8-0.1
			c-0.1,0,0,0.1-0.2,0.1c0,0-0.2-0.1-0.2-0.2c-0.2-0.1-0.3,0-0.4,0.2h-0.9v-0.1c0.2-0.1,0.2-0.1,0.2-0.3c0.3-0.1,0.5-0.2,0.8-0.3
			c0.6,0,1.2,0,1.7-0.1c0,0,0.2,0,0.2-0.1v-0.1h1.4c0.4-0.1,1,0.1,1.5-0.1c0.3-0.1,0.8-0.1,1.2-0.1h2.2c3.3,0,6.6,0,9.8-0.1
			c2.1,0,4.3,0,5.9,0.2c0.2,0,0.4-0.1,0.6-0.1l0.2,0.1c0,0,0.2-0.1,0.3-0.1c0,0,0.3,0.1,0.4,0.1c0.2,0,0.4-0.1,0.7,0
			c0.1-0.1,0.2-0.2,0.3-0.3v-0.9C57.8,12.2,57.6,12.2,57.6,12.1z M2.1,18.2L2.1,18.2c-0.2-0.5-0.5-0.9-0.3-1.7c0.1,0,0.1,0,0.2,0.1
			h0.3c-0.1,0.2-0.4,1-0.3,1.2C1.9,17.9,2.1,18.1,2.1,18.2z M40.5,17.7c0.2,0.1,0.2,0.2,0.3,0.4c0,0.4-0.2,0.7-0.3,1h-0.1v0.1h-0.1
			c0-0.2,0.1-0.4,0.2-0.5c0-0.2,0-0.3-0.1-0.4c-0.1,0-0.1,0-0.2,0.2h-0.1C40.4,18.2,40.5,18,40.5,17.7z M38.7,14.9
			c-0.1,0.1-0.1,0.1-0.2,0H38.7z M32.9,14.2c-0.1,0,0,0-0.1-0.1C32.9,14.2,32.8,14.1,32.9,14.2z M31.5,14.2c-0.1,0.1-0.1,0.1-0.2,0
			H31.5z"/>
	</g>
</g>
<g>
	<g>
		<path class="st4" d="M61.5,12c0,0-0.2,0-0.2-0.1c0,0,0-0.1-0.1-0.1c-0.1,0-0.2,0-0.4,0l-0.1-0.1c-0.3,0-0.7,0-1,0
			c-0.7,0-1.4,0-2,0c0,0-0.1,0.2-0.2,0.2c-0.2,0-0.3,0-0.5-0.1c0,0,0,0.1,0,0.1c-1.5,0-3.1,0-4.6,0c-3.9,0-7.8-0.1-11.7-0.1
			c0-0.1,0-0.1,0-0.2c-0.1-0.1-0.2-0.2-0.3-0.3c-0.6-0.1-1.2-0.2-1.7-0.4c0-0.1,0.1-0.1,0.1-0.3c0,0,0,0-0.1,0c0,0,0,0,0-0.1
			c-0.3,0-0.3,0-0.4,0.2c-0.4-0.1-0.6-0.3-0.9-0.4c-0.2-0.1-0.3-0.1-0.5-0.2c-0.1-0.1-0.2-0.3-0.4-0.3c-0.3-0.1-1.2,0.2-1.3,0.1
			C35.1,10,35,9.9,35,9.8c0,0-0.4,0.1-0.4,0.1c-0.5,0.1-1.3,0.1-1.6,0.4c-0.5,0-0.4-0.3-0.7-0.5c-0.2-0.1-0.3,0-0.4-0.1
			c0-0.1,0-0.2-0.1-0.2c-0.1-0.1-0.2-0.2-0.3-0.4c0-0.1-0.1-0.2-0.1-0.4c0,0-0.3-0.1-0.3-0.1c-0.1-0.1,0-0.3-0.1-0.4
			c-0.1,0-0.3-0.1-0.5,0c-0.1,0-0.1,0.2-0.2,0.2c0,0-0.9-0.1-1.1-0.1c0-0.1,0-0.2,0-0.2c-0.2,0-0.2,0-0.3-0.1c0-0.3,0-0.6,0.1-1
			c-0.4,0-0.3,0.2-0.5,0.2c0,0-0.3-0.2-0.4-0.2c-0.2-0.1-0.2,0.1-0.4,0.1c-0.2,0.1-0.3-0.1-0.5-0.1c-0.2,0-0.9,0.2-1.1,0.2
			c0,0,0,0.1-0.1,0.1c-0.2,0.1-0.5,0-0.7,0.1c0,0,0,0.1,0,0.1l-0.1,0.1c-0.3,0.1-1.5,0-1.6-0.2c-0.1,0-0.2,0-0.3,0
			c0,0.1-0.1,0.1-0.1,0.2c0,0-0.3,0.1-0.3,0.1C23,8,23,8.1,23,8.1c-0.3,0-0.5,0-0.6-0.2c-0.2,0-0.5,0-0.7,0c0,0,0,0.1,0,0.1
			c-0.1,0-0.1,0-0.2,0c0,0,0,0.1,0.1,0.1c-0.2,0-0.2,0-0.3-0.1c-0.1-0.1,0-0.1-0.1-0.2c0.3,0,0.6-0.1,0.7-0.1c0.1,0,0.1,0,0.2-0.1
			c0.1-0.1-0.1-0.1-0.1-0.4c0,0,0.1-0.1,0.1-0.2c0,0-0.1,0-0.1-0.1c0,0,0,0,0-0.1c0.8,0,0.4,0,0.7,0.4c0,0,0,0.1,0,0.1
			c0.1-0.1,0.1-0.3,0-0.4c0,0,0,0,0-0.1c0.5,0,1.1-0.2,1.5-0.4c0-0.4-0.2-0.8-0.1-1.1c-0.5,0-0.8,0.1-1.3,0.1c0-0.1,0-0.1,0-0.2
			c-0.2,0-0.6,0-0.8-0.1c0,0-0.1-0.9,0-1c0,0,0,0,0-0.1c-0.3,0-0.6,0-0.9-0.1c0,0.1,0,0.3-0.1,0.4c0,0-0.1,0-0.1,0
			c-0.1,0.2,0.2,0.3-0.1,0.5c0,0,0,0.1,0,0.1c0.1,0,0.2,0,0.3,0c0,0.1,0,0.1,0,0.2c-0.1,0-0.1,0-0.1-0.1c0,0-0.3,0-0.2,0.1
			c0,0.1,0.1,0,0.1,0.1c-0.3,0-0.6,0.1-1,0.1c0-0.2,0-0.4,0-0.6c-0.1,0,0,0-0.1,0.1c-0.1,0.1-0.1-0.1-0.1-0.1
			c-0.1,0.1-0.1,0.4-0.1,0.6c-0.1-0.1-0.1,0-0.1-0.1c-0.3,0-0.4,0-0.4,0.2c-0.1,0.1,0,0-0.1,0.1c0.1,0.1,0,0,0.1,0.1
			c0.2,0,0.3,0,0.5,0c0,0,0,0,0-0.1c0,0,0-0.1,0.1-0.1c0.1,0,0.1,0.2,0.2,0.2c0.1,0.1,1,0,1.1,0.1c-0.1,0.1-0.1,0.1-0.3,0.1
			c0,0.1,0,0.2,0,0.2c-0.2,0-0.4,0-0.5-0.1c-0.1,0-0.1,0.1-0.3,0.1c-0.1,0.1,0,0-0.1,0.1c0,0,0,0.1,0,0.1c0.1,0.1,0.2,0,0.3,0.1
			c0.8,0,0.9-0.1,1,0.5c-0.1,0-0.1,0.1-0.1,0.2c0,0-0.1,0-0.1,0c0,0,0,0.1,0,0.1c-0.1,0.1-0.2,0-0.3,0.1c0,0-0.1,0-0.1,0
			c0,0,0-0.3-0.1-0.3c-0.1-0.1-0.3,0-0.5,0c0,0,0,0.1,0,0.1c0.1,0,0.2,0,0.3,0c0,0.2,0,0.2-0.1,0.3c-0.5,0-1.4,0.1-1.7-0.1
			c-0.2,0-0.1,0-0.3-0.1c0-3.8,0-3.7-0.1-7.6c0,0,0,0-0.1,0c0,3.7,0,3.7,0,7.4c-0.2-0.1-0.4-0.1-0.5,0c0-0.2-0.1-0.2-0.2-0.3
			c-0.5,0-0.9,0-1.4,0c0.1,0.1,0.4,0.1,0.6,0.1c-0.1,0-0.2,0.1-0.2,0.1c-0.2,0.3-0.1,0.9,0.1,1c-0.1,0.1-0.2,0.1-0.3,0
			c-0.2,0.3,0,0.6-0.4,0.8c0,0.1,0,0.2,0,0.3c0,0,0.1,0,0.1,0.1c0,0.1-0.2,0.3-0.1,0.5c0.1,0,0.1,0,0.2,0.1c0,0,0,0,0,0.1
			c-0.1,0-0.2,0-0.3,0c0,0.3,0.1,0.3,0.3,0.4c-0.1,0.1-0.2,0.1-0.4,0.1c0,0.2,0,0.3,0.3,0.4c0,0.1,0,0.3,0,0.4c-0.2,0-0.4,0-0.5,0.1
			c0.1,0.3,0.3,0.2,0.4,0.4c0,0.1,0,0.3,0.1,0.4c-0.1-0.1-0.1,0-0.1-0.2c-0.2,0.1-0.1,0.2-0.2,0.2c-0.3,0.1-0.5,0.1-0.8,0.2
			c-0.2,0.1-0.5,0.2-0.8,0.3c-0.1,0-0.1,0-0.2,0l-0.1,0.1c0,0,0,0.1,0,0.1c0,0-0.5,0.1-0.5,0.1c-0.3,0-0.6,0-0.9,0
			c-0.9,0.2-2.3-0.1-3.4,0.2c-0.3,0.1-0.3-0.2-0.6-0.1c0,0-0.3,0.1-0.3,0.1c-0.2,0.1-0.8-0.1-0.9-0.1c0,0,0,0.1,0,0.1
			c-0.3,0-0.7,0-1,0c-0.6,0-1.1,0-1.7,0c-0.1,0-0.5,0.2-0.7,0.1c0,0,0-0.1,0-0.1c-0.1,0-0.1,0-0.2,0c0,0.1,0,0.1,0,0.2
			c-1,0-2,0.5-2.4,1.2c-0.2,0-0.3,0-0.5-0.1c0,0.1,0,0.1-0.1,0.1c0,0.1,0,0.2,0,0.3c0.1,0,0.2,0,0.4,0.1c0,0.9,0.4,1.4,1,1.7
			c0.1,0.1,0.3,0.1,0.5,0.2c0.1,0.1,0,0.2,0.1,0.2c0.1,0.1,0.6,0.4,0.7,0.4c-0.1,0.2-0.1,0.3-0.1,0.5c0.1,0,0.1,0,0.2,0
			c0-0.2,0.1-0.3,0.1-0.5c0,0,0,0,0.1,0c0.1,0.2,0.2,0.4,0.3,0.5c0.1,0,0.2,0,0.4,0.1c0,1.6,1.9,2.2,2.9,2.8
			c0.7,0.5,1.6,1.1,2.5,1.4c0.7,0,1.4,0,2.2,0.1c1.5,0,3,0,4.5,0c4.3,0,8.6,0,12.9,0c1.7,0,3.4,0,5.1,0c0.8,0,1.8,0.1,2.5-0.1
			c0.8-0.2,3.7-2.9,4-3.2c0.2-0.2,0.8-1.2,0.5-1.7c0.4-0.6,0.8-0.7,0.8-0.7l0.1-0.1c0,0-0.2-0.5-0.4-0.7c-0.3-0.5-1.3-1-2.1-1
			c0.1-0.2,0.3-0.5,0.4-0.7c0-0.1,0-0.2,0.1-0.3c0,0,0.7-0.4,0.7-0.5c0-0.1,0-0.1,0-0.2c5.5-0.1,10.9-0.1,16.4-0.2
			c0,0.1,0,0.1,0.1,0.2c0.1,0,0.2-0.1,0.4-0.1c0,0,0.1,0.2,0.2,0.2c0.9,0,1.9,0,2.8,0c0.3,0.1,0.7-0.2,1.1-0.2c0.4,0,0.8,0,1.2,0
			c2.1,0,4.2,0,6.3,0.1c0-0.4,0-0.8,0-1.1C66.5,12,64,12,61.5,12z M20.4,5.9c0.2,0,0.3,0,0.5,0C20.8,6,20.5,6,20.4,5.9z M22,6.6
			c-0.1,0-0.1,0-0.1-0.1C22,6.5,21.9,6.5,22,6.6z M21.9,4.5c0.1,0.1,0.1,0.3,0.1,0.5C21.8,4.8,21.9,4.6,21.9,4.5z M21.9,5.1
			C21.9,5.1,21.9,5.1,21.9,5.1c0.1,0.1,0.1,0.2,0.1,0.2c0,0-0.1,0-0.1,0C21.8,5.2,21.8,5.2,21.9,5.1z M21.9,6.7c0.1,0,0.2,0,0.2,0
			c0,0.1,0,0.2,0,0.2c-0.1,0-0.3,0-0.4,0C21.7,6.8,21.8,6.8,21.9,6.7z M21.7,5.1c0,0.1,0,0.1,0,0.2c-0.2,0-0.2,0-0.3-0.1
			c-0.1-0.1,0,0-0.1-0.1C21.5,5.2,21.6,5.1,21.7,5.1z M21.5,7.1c0,0,0,0.1,0,0.1l-0.1-0.1C21.4,7.1,21.5,7.1,21.5,7.1z M4.1,15.6
			c-0.1,0-0.3,0-0.4,0.1c0,0.2,0,0.2,0,0.4c-0.1,0.1-0.2,0.2-0.3,0.3c0,0-0.1,0-0.1,0c0.2-0.2,0.7-0.8,0.2-1.1c0,0,0,0,0-0.1
			c0.2,0,0.3,0,0.5-0.1c0,0,0,0,0,0.1c0,0,0,0,0.1,0c-0.1,0.1,0,0-0.1,0.1C4,15.4,4,15.4,4.1,15.6z M4,13.4c-0.1,0.1-0.1,0.1-0.2,0
			C3.8,13.4,3.9,13.4,4,13.4z M3.7,14.3c0,0,0.1,0,0.1,0c0,0.2-0.1,0.1,0,0.2c-0.1,0.1-0.5,0.2-0.8,0.2c0-0.1,0-0.1,0.1-0.2
			C3.2,14.4,3.5,14.5,3.7,14.3z M2.5,13.7c0.1,0,0.1,0,0.2,0c0,0,0,0,0,0.1c-0.2,0.1-0.3,0.4-0.5,0.5c-0.1,0.1-0.3,0.1-0.4,0.2
			c-0.1,0-0.2,0-0.2,0C1.7,14.1,2.2,14,2.5,13.7z M4.1,16.9C4.1,16.9,4.1,16.9,4.1,16.9C4.1,16.9,4,16.9,4.1,16.9
			C4,16.9,4,16.9,4.1,16.9c-0.3-0.1-0.2-0.1-0.2-0.3c-0.3,0-0.3,0.2-0.4,0.5c0,0,0,0-0.1,0c0-0.1,0-0.1-0.1-0.2
			c-0.1,0,0,0.1-0.1,0.1c0,0-0.4-0.2-0.4-0.2c0,0,0-0.1-0.1-0.1c-0.1,0-0.2,0-0.3,0.1c-0.4-0.1-0.9-0.6-1.1-0.9
			c-0.1-0.2-0.4-0.5-0.2-0.7c0.1-0.2,0.4-0.1,0.7-0.2c0.2-0.1,0.7-0.3,0.8-0.4c0.1,0,0.2,0,0.2,0c0,0,0,0,0,0.1
			c-0.3,0.2-0.1,0.1-0.2,0.3c-0.1,0.1-0.2,0.2-0.4,0.3c-0.2,0.3-0.2,0.9,0.1,1.1c0.2,0.1,0.8,0,0.9,0.1c0,0.1,0,0.1,0.1,0.2
			c0.1-0.1,0.1-0.2,0.1-0.2C4,16.3,4,16.5,4.1,16.9c0-0.1,0-0.2,0.1-0.2c0,0,0,0,0-0.1c0,0,0,0,0.1,0C4.2,16.7,4.1,16.8,4.1,16.9z
			 M2.9,14.9c-0.1,0-0.1,0-0.1-0.1C2.9,14.9,2.8,14.9,2.9,14.9z M6.2,13.4c-0.2,0-0.4,0-0.5-0.1c0.2,0,0.4,0,0.5,0
			C6.2,13.3,6.2,13.3,6.2,13.4z M16.4,11.5c0,0,0,0.2,0.1,0.4c0,0,0,0-0.1,0C16.3,11.7,16.3,11.7,16.4,11.5z M14.7,12.9
			c0.1,0,0.1,0,0.2,0C14.8,13,14.8,13,14.7,12.9z M16.4,13c-0.2,0-0.3,0-0.4-0.1c0,0,0-0.1,0-0.1c-0.3,0-0.6,0-1,0
			c0.2-0.1,0.4,0,0.6-0.1c0.1,0,0.2-0.2,0.3-0.2c0.2,0,0.4,0,0.5,0.1C16.4,12.7,16.4,12.8,16.4,13z M16.4,12.5c0,0-0.1,0-0.1,0
			c0-0.1,0-0.2,0.1-0.3c0.1,0,0.2,0,0.2,0C16.5,12.4,16.5,12.3,16.4,12.5z M17.1,7.2c0.1,0,0.1,0,0.2,0.1c0.1,0,0.1,0,0.2,0.1
			c0,0,0,0.1-0.1,0.1c-0.1,0-0.1,0-0.2,0.1c-0.1-0.1,0-0.1-0.1-0.1C17.1,7.3,17.1,7.2,17.1,7.2z M17.1,7.2c0,0,0,0.1,0,0.1
			c-0.1,0-0.2,0-0.3-0.1C16.9,7.2,17,7.2,17.1,7.2z M16.8,8.4c0.1,0,0.1,0,0.1,0.1C16.8,8.4,16.8,8.4,16.8,8.4z M17.2,8.8
			c-0.1-0.1,0-0.2,0-0.4c-0.1,0-0.2,0-0.2,0c0,0,0,0,0-0.1c0.1,0,0.1,0,0.2-0.1c0.1,0.1,0,0.1,0.1,0.1C17.2,8.6,17.2,8.7,17.2,8.8z
			 M17.3,8.3C17.3,8.3,17.3,8.3,17.3,8.3C17.2,8.2,17.3,8.3,17.3,8.3c-0.1,0-0.1,0-0.1,0c0.1-0.2,0.2-0.3,0.2-0.7
			c0.1,0.1,0.1,0.1,0.3,0.2C17.5,8,17.5,8.2,17.3,8.3z M18,7.6c-0.1,0-0.1-0.1-0.2-0.1c0.1,0,0.1,0,0.2,0C18,7.5,18,7.5,18,7.6z
			 M27.3,7.6c0.1,0.1,0,0.1,0.1,0.2C27.3,7.7,27.3,7.7,27.3,7.6z M38.5,10.9C38.5,10.9,38.5,10.9,38.5,10.9
			C38.4,11,38.4,10.9,38.5,10.9c-0.1,0-0.1,0-0.2,0c0,0,0-0.1,0.1-0.1C38.5,10.8,38.4,10.8,38.5,10.9C38.5,10.8,38.5,10.8,38.5,10.9
			C38.5,10.9,38.5,10.8,38.5,10.9z"/>
	</g>
</g>
</svg>
