<?xml version="1.0" encoding="utf-8"?>
<!-- Generator: Adobe Illustrator 27.7.0, SVG Export Plug-In . SVG Version: 6.00 Build 0)  -->
<svg version="1.1" id="Слой_1" xmlns="http://www.w3.org/2000/svg" xmlns:xlink="http://www.w3.org/1999/xlink" x="0px" y="0px"
	 width="69.4px" height="18px" viewBox="0 0 69.4 18" style="enable-background:new 0 0 69.4 18;" xml:space="preserve">
<style type="text/css">
	.st0{display:none;fill-rule:evenodd;clip-rule:evenodd;fill:#8C8C7C;}
	.st1{fill-rule:evenodd;clip-rule:evenodd;fill:#8C8C7C;}
</style>
<path class="st0" d="M11.4,16.8h24c0,0,0.6-0.1,0.8-0.2c1.4-0.5,4.1-1.5,5.3-2.3c0.1-0.1,0.3-0.2,0.4-0.3c0.1-0.2,0.3-0.5,0.4-0.7
	c0.1-0.2,0.1-0.7,0.1-0.7h1.4c0,0-0.2-0.8-0.3-1.1c-0.1-0.2-0.2-0.6-0.4-0.8s-0.6-0.5-0.8-0.7c0-0.1-0.3-0.3-0.5-0.3
	c-0.3-0.2-1.4-0.4-1.4-0.4l1.8-0.9l1.2-0.3l0.5-0.2l12.4-0.2l0.2,0.2h3.6V7.8h0.4V7.7h3.8v0.1l4.2,0.1V6.3l-4.2,0.1v0.1h-3.8V6.4
	h-0.4V6.3h-3.7l-0.1,0.2L44.2,6.4l-1.9-0.6h-0.1v-3c0,0-0.5,0-0.7,0c-0.1,0-0.3,0.1-0.4,0.2s-0.2,0.3-0.2,0.4c0,0.1-0.1,0.4,0,0.5
	c0,0.2,0.2,0.4,0.2,0.6l0.1,0.1L41,4.8l-0.2,0.3h-0.1L40,4.7h-0.8l-0.1-0.2h-1.6v0.2h-2.7l-0.3-0.1l-1-0.8V2.9h-0.3l-1.3-0.2V1.6
	h-2.1V2h-0.6l0.5-0.7H30V0c0,0-0.4,0-0.6,0.1c-0.1,0-0.2,0.2-0.2,0.3l-0.1,0.1c0,0.1-0.1,0.2-0.1,0.3v0.1L28.9,1
	c-0.1,0.1,0,0.6,0,0.6h-0.3L27.9,2h-1.1l-1.2-0.3h-0.2L25,1.5V1.2h0.1h0.4L25.7,1l0.5-0.5l0.1-0.7l-0.9-0.1l-0.1-0.2l0.1-0.1h0.1
	v-0.8h-1v0.8h0.2v0.4h-0.3v-0.3l-1.3,0.1L23-0.2h-6.1v0.4h1.9v0.2h3.1v0.3h-2.2v0.4h3h0.5v0.2h0.9v0.3l-0.4,1.1h-0.1V2.5h-0.9
	l-0.4,0.2v0.1L21.7,3l-0.1-0.2l-0.7,0.1l0,0V2.7c0-0.1,0-0.3,0-0.3c0-0.1-0.1-0.2-0.2-0.2c-0.1-0.1-0.5,0-0.5,0v0.2h-0.3v0.8L20,3.5
	l-0.5,0.1l-0.8,4.5l-0.8-0.4V7.2h-3.7v0.4l-2.1,0.1l-0.6,0.2L9.6,8.1L10,7.7V7.3L9.8,6.9V6.2c0,0-0.2-0.7-0.3-0.9
	c-0.2-0.2-0.7-0.6-1-0.7C8.4,4.6,8.1,4.5,8,4.5c-0.3,0-0.8,0.2-1,0.3S6.4,5.4,6.3,5.6s-0.1,0.8,0,1s0.3,0.7,0.4,0.8
	C6.8,7.6,7,7.8,7,7.8V8l0.1,0.2l0.4,0.1v0.2L7,8.6L6.6,8.1c0,0-0.2-0.6-0.4-0.7C6.1,7.3,5.8,7,5.6,7S5.1,7.1,5,7.2
	c0,0-0.1,0.4,0,0.6C5,8,5.1,8.3,5.2,8.4s0.4,0.1,0.5,0.1s0.4-0.1,0.4-0.1l0.1,0.4L5.7,9.3L5.3,9.7c0,0-0.7,0.4-0.8,0.6
	C4.3,10.5,4.1,10.8,4,11s-0.3,0.6-0.4,0.8c-0.1,0.2-0.1,0.7-0.1,0.7v0.3H4l0.7-0.7H5c0,0-0.1,0.2-0.1,0.3c0,0.2,0,0.5,0,0.7
	c0.1,0.2,0.2,0.6,0.4,0.8c0.1,0.1,0.3,0.2,0.4,0.3c1.1,0.7,3.4,1.9,4.7,2.4c0.2,0.1,0.6,0.2,0.8,0.2C11.2,16.7,11.4,16.8,11.4,16.8z
	"/>
<path class="st1" d="M11.1,16.8h22.5c0,0,1.2-0.3,1.6-0.4c0.6-0.3,1.8-1,2.4-1.4c0.6-0.4,1.8-1.1,2.2-1.6c0.2-0.2,0.3-0.7,0.3-1
	c0-0.1,0-0.4,0-0.4h0.8l-0.3-1.3l-0.8-0.6l-0.1-0.4l-0.9,0l-0.5-0.5l0.4-0.3L39,8.7l1.5-0.8h0.3V7.5l27.7-0.2V6.5L40.8,6.4V6l-0.5,0
	l-1.9-0.9L38.2,5l1.1-0.1l-0.4-0.4L36,4.5l-1.7,0.3l-1.4-1.8c0,0-1.7,0.1-2.2,0c-0.4,0-1.3-0.4-1.7-0.4c-0.5,0-1.6-0.1-2.1,0.1
	c-0.2,0.1-0.3,0.6-0.5,0.5c-0.3,0-0.4-1-0.7-1.1c-0.7-0.3-2.2,0-2.9,0.2c-0.3,0.1-0.9,0.5-1.2,0.6c-0.6,0.2-2.3,0.2-2.3,0.2L18.4,7
	l0,2.3l-0.3-0.8l0-1.3h-5.4v1.3h-2.3L10.3,9H9.6L9.4,8.2L5.7,9.1L6,10.2H5.1l-0.1,0.3l-0.3-0.3c0,0,0.2-0.3,0.3-0.4
	C5,9.6,5,9.4,5,9.2c0-0.1-0.1-0.4-0.2-0.5C4.7,8.6,4.4,8.4,4.3,8.3c-0.1,0-0.4-0.1-0.5,0c-0.2,0-0.5,0.1-0.6,0.2
	C3,8.6,2.8,8.9,2.8,9.1c0,0.2-0.1,0.6,0,0.7c0,0.1,0.2,0.4,0.3,0.5c0.1,0.1,0.5,0.3,0.5,0.3l-0.1,0.3c0,0-0.7,0.4-0.7,0.7
	c-0.1,0.2,0,0.6,0.1,0.8c0.1,0.1,0.4,0.2,0.5,0.2c0.1,0,0.3,0.1,0.4,0c0.2,0,0.9-0.2,0.9-0.2s-0.1,0.5,0,0.7
	c0.1,0.2,0.3,0.6,0.5,0.8c0.2,0.2,0.8,0.5,1,0.7c1,0.6,2.9,1.8,4,2.2C10.4,16.7,11.1,16.8,11.1,16.8z"/>
</svg>
