<?xml version="1.0" encoding="utf-8"?>
<!-- Generator: Adobe Illustrator 25.3.1, SVG Export Plug-In . SVG Version: 6.00 Build 0)  -->
<svg version="1.1" id="Layer_1" xmlns="http://www.w3.org/2000/svg" xmlns:xlink="http://www.w3.org/1999/xlink" x="0px" y="0px"
	 width="43.6px" height="22.5px" viewBox="0 0 43.6 22.5" style="enable-background:new 0 0 43.6 22.5;" xml:space="preserve">
<style type="text/css">
	.st0{display:none;fill-rule:evenodd;clip-rule:evenodd;fill:#FAB81B;}
	.st1{display:none;}
	.st2{display:inline;}
	.st3{fill-rule:evenodd;clip-rule:evenodd;fill:#FAB81B;}
	.st4{fill-rule:evenodd;clip-rule:evenodd;fill:#8C8C7C;}
</style>
<path class="st0" d="M0.8,11.8l0.9-0.1l-1.3-1H2l2.1,1h8.3v-1H8.3l0.5-1.1L8,9.2l0.2-0.6L7.3,8.8L6.8,8.4V6.6L6.4,5.8l0.5-0.5
	l1.5,0.4l2-0.2v-1H8.3l0.3-0.8l-0.3-1l2.8-0.1v3L11.9,5L12,1.7l0.1,4h0.6l0.5,0.5l0.4,0.3l1-0.3h0.9V4.7h4.9c0.1,0.1,0,1.9,0,1.9
	l2.2-0.1V7l1.1,0.4l0.8-0.7l0.3,0.7l0.6,0.3v-1c0,0,1-0.2,1,0s0,1.2,0,1.2l1.3,0.5l-0.4-0.6c0,0,0.4-0.8,0.5-0.7
	c0.2,0.1,2,0.9,2,0.9l2.6,0.1h3v0.3l10,0.2v0.9l-10,0.3v0.4h-2.8l-2.9,0.5l-2.3,0.2l-0.5,0.7l4.7-0.3l0.2,0.1h0.6h0.5l0.1,0.2
	l1.4,1.1v-0.9h1V13c0,0,1.8,1.1,2,1.1s1-0.5,1-0.5l2,0.3v1.3l-1.3,1.2l1,1.2l-0.5,0.5l-0.8-0.5l-0.4,0.1l1.1,0.8l-0.4,0.6L38,18.2
	l-0.4,0.3l1.1,0.8l-0.4,0.4l-2,0.2l-3.8,2l-2.1,0.8H10.8L9,22l-5.1-1.6c0,0-0.7-2-0.8-2.1C3,18.3,1.5,17,1.5,17l0.6-0.3l-0.6-1
	l-0.9,0.1l-0.1-2.1h1.2l0.8,1L3,14.3l-0.5-0.8l-1.1-0.2l-1-0.5L0.8,11.8z"/>
<g class="st1">
	<g class="st2">
		<path class="st3" d="M43,9.3c0,0-5.4-0.1-5.6-0.2h-2.6c-0.2-0.2-0.4-0.5-0.7-0.7h-3.3c0-0.2,0-0.6-0.1-0.8
			c-0.1-0.1-0.8-0.3-0.9-0.4c-0.4-0.1-0.8,0.1-1-0.1c-0.2,0-0.2,0.1-0.4,0.1v0.2c-0.6,0-1.2-0.1-1.8-0.1V7.2h-0.2V6.9h-0.1
			c-0.1-0.1,0-0.3,0-0.4c0-0.1-0.1-0.1-0.1-0.2c-0.2,0-0.4,0-0.5,0.1c-0.1,0.1-0.2,0.5-0.2,0.7c-0.2,0-0.6,0-0.7-0.1h-0.4
			c0-0.1,0,0,0.1-0.1V6.9c-0.1,0-0.2-0.1-0.3-0.1c0,0,0,0.1-0.1,0.1c-0.1,0-0.2-0.1-0.4-0.1c0,0-2.3-0.2-2.4-0.2v0.1L21,6.9
			c-0.2,0-2.3-0.2-2.5-0.2c0-0.1-0.1-0.1-0.1-0.2c-0.1,0-0.4-0.1-0.4-0.1c-0.2,0-0.3,0-0.5,0.1V6.4h-0.1c0,0-0.1,0-0.1,0.1
			c-0.1,0-0.6-0.1-0.7-0.1c-0.1,0,0,0.1-0.2,0.1c0,0,0-0.1-0.1-0.1c-0.3,0-0.5,0-0.8,0.1v0.1c-0.1,0-1.1-0.1-1.2-0.1h-0.1v-6.9h-0.1
			c-0.2,0.5-0.1,1.5-0.1,2.1v4.7c-0.1,0-0.3,0-0.3,0.1c-0.2,0.2-0.2,0.6-0.3,0.8c-0.1,0.2,0,0-0.2,0.1c-0.1,0.1-0.1,0.2-0.2,0.3
			c0,0.2,0,0.2,0.2,0.2c-0.1,0.2-0.1,0.4-0.2,0.6c-0.2,0-0.2,0-0.3,0.1h-0.1c0.1,0.1,0,0,0.2,0c0,0.3,0,0.5-0.1,0.8
			c-0.1,0-0.1,0-0.2,0.1c0,0.1,0,0.1,0.1,0.2c0,0.1-0.4,0.8-0.4,1.1c-0.1,0-0.1,0-0.2-0.1c0,0.1-0.1,0.2-0.2,0.3
			c0,0.3,0,0.2,0.2,0.2c-0.1,0.3-0.3,1-0.5,1.3c-0.1,0.1,0,0-0.2,0.1v-0.6c0.1,0,0.1,0,0.2,0.1c0-0.1-0.1-0.1-0.1-0.2H7.7
			c0-0.1,0-0.1-0.1-0.2H7.1C7,11,6.7,10.3,6.5,9.6V7.9c0.2,0,0.3,0,0.4-0.1V7.4c-0.1,0-0.1,0-0.2-0.1H6.7V7.3C7,7.2,7.8,7.5,8.2,7.1
			c0-0.1,0,0,0-0.1V6.8C8.4,6.9,9,7.1,9.3,7.1C9.5,7,9.5,6.8,9.7,6.7h0.6c0-0.5,0-0.9-0.1-1.3H10v0.2H9.9c0-0.3,0.2-0.4-0.1-0.5V4.7
			c0,0,0.1,0,0.1,0.1V4.5c-0.1,0-0.1,0-0.2,0c0,0,0,0.1-0.1,0.1H9.7v0.1h0.1v1.5H9.7C9.6,6,9.4,5.9,9.3,5.8C9.2,5.3,9.2,5,8.9,4.6
			c-0.2,0-0.2,0.1-0.3,0.1C8.5,4.6,8.4,4.4,8.3,4.3c-0.1-0.1-0.1,0-0.2-0.1H8c0.1,0.1,0.1,0.2,0.2,0.2v0.1c-0.1,0-0.3,0-0.3-0.1H7.8
			c0-0.4,0.1-0.8,0.1-1.2c-0.4,0-0.9,0-1.3-0.1C6.4,3.8,6.6,4.6,6.1,5C5.8,5.2,4.7,4.5,4.4,4.5C3.9,4.6,3.5,4.3,3.1,4.2
			C3,4.2,2.1,4,1.8,3.9C0.7,3.5-0.8,3.2-1.8,2.7c-0.1,0.1-0.1,0.1-0.2,0.2c0,0.1,0,0.2,0.1,0.3c1.1,0,1.7,0.6,2.6,0.7
			c0,0.1,0,0.1-0.1,0.1c0,0.1,0,0,0.1,0.1c0.2,0.2,0.7,0.1,0.9,0.3h0.2V4.2C1.6,4.2,1.4,4.1,1.3,4H1.2V4c0.4,0.2,1.2,0.5,1.6,0.5
			c-0.1,0.1-0.3,0-0.4-0.1H2.3v0.1c0.1,0,0.2,0,0.3,0.1v0.2C3.1,4.9,3.5,5,3.9,5.1C4,5.4,4.1,5.2,4.3,5.4c0.1,0,0,0.1,0.1,0.2
			c0.1,0.6,0.1,1.2,0.2,1.9c0.1,0.3,0.2,0.4,0.2,0.8h0.1C5,8.1,5,8,5,7.9h0.4v1.7c-0.2,0.6-0.5,1.4-0.6,2.1H4.2c0,0.2,0,0.2-0.2,0.2
			C4.1,12,4,12,4.2,11.9v0.6c-0.3,0-0.2-0.1-0.3-0.2H3.7c0,0-0.1,0.1-0.2,0.1c-0.1,0-0.2,0-0.3-0.1l-0.1,0.1v0.1H2.6
			c0,0.3,0,0.4,0,0.6H2.5c0-0.1,0-0.2-0.1-0.2c-0.1-0.1-0.3-0.2-0.3-0.3c-0.5,0-0.6,0.1-0.8,0.3c-0.1,0.3-0.2,0.9-0.1,1.1
			c0,0.2,0.2,0.4,0.4,0.4c0.2,0.2,0.7,0,1-0.1v0.3C2,14.7,1.4,14.9,1,15.2c-0.1,0.1-0.1,0.2-0.2,0.2c0,0.1,0,0.1,0.1,0.2
			c0.1,0.2,1.2,0.8,1.4,1c0,0,0.1,0,0.1,0.1c0,0-0.1,0.3-0.1,0.3v0.7c0,0.1-0.2,0.2-0.3,0.3c0,0.4,0.1,0.2,0.2,0.4
			C2.2,18.6,2,18.9,2.1,19c0.1,0.1,0,0,0.2,0.1v-0.7h0.1c0.5,1,5.3,3.3,6,3.5h23.1c1.1,0,2.2,0.1,3-0.2c0.5-0.2,5.1-2.3,5.5-2.9
			c0.2-0.3,0.7-1.5,0.3-2c0-0.5,0.6-0.7,0.8-1.2c-0.4-0.2-0.8-0.6-1.3-0.8c-0.2-0.1-0.6-0.2-0.9-0.2h-0.9c-0.1,0-0.2-0.2-0.4-0.2
			v-0.5c-0.2,0-0.2,0-0.3,0.1c0,0.1,0,0.2-0.1,0.3c-0.5,0-0.6-0.1-0.9-0.2c0-0.1,0-0.1-0.1-0.2c-0.1,0-0.1,0-0.2-0.1h-0.1v-0.1h0.2
			v-0.2c-0.2-0.1-0.3,0-0.5,0c0.1-0.2,0.2-0.4,0.4-0.4c0-0.1-0.2-0.4-0.2-0.4c-0.2-0.2-0.4-0.3-0.7-0.4h-0.2c0,0,0.1,0.2,0.1,0.2
			c-0.1,0.1-0.1,0.1-0.2,0.2c0.1,0.2,0,0.3,0,0.5c-0.5-0.1-0.6-0.4-1-0.5v-0.5h-0.6v0.4c-0.1,0-0.2-0.1-0.3-0.1
			c-0.1,0-0.7,0.1-0.7,0.1c0-0.1,0-0.1-0.1-0.2c-0.2-0.1-0.4,0.1-0.4,0.2l-0.1-0.1c-0.3,0-0.7,0-0.8,0.2h-0.2c0.3-0.4,0.1-0.4,0-0.8
			h5.6c0.1-0.1,0.3-0.4,0.5-0.5c0-0.1-0.1-0.2-0.2-0.2V11c0.7,0,6.3-0.3,6.3-0.3s12.6-0.1,13-0.1V9.5C55.2,9.5,43,9.3,43,9.3z
			 M10,5.9L10,5.9L10,6H10V5.9z M8.4,5.7L8.1,5.6c0-0.1,0-0.2-0.1-0.2V5.4c0.1,0,0.2,0.1,0.3,0.1h0.1V5.7z M8.3,5.2h0.3
			C8.5,5.3,8.4,5.3,8.3,5.2z M9.5,6.2C9.5,6.2,9.4,6.1,9.4,6C9.4,6,9.5,6.2,9.5,6.2z M9.2,5.7C9.1,5.8,9,5.8,8.9,5.7H9.2z M8.9,6.7
			h0.6v0.1c-0.1,0-0.1,0.1-0.2,0.1c-0.2,0-0.3,0-0.4-0.1V6.7z M8.8,5.8H8.7V5.7C8.7,5.7,8.7,5.7,8.8,5.8L8.8,5.8z M7.7,4.6
			C8,4.8,8.3,4.9,8.7,4.9c0,0.1,0,0.1-0.1,0.2C8.3,5.1,7.9,5.1,7.8,5H7.7C7.7,4.9,7.7,4.7,7.7,4.6z M7.7,5.2h0.2v0.1h0.1v0.2
			C7.8,5.5,7.8,5.4,7.7,5.4V5.2z M7.9,6.7L7.9,6.7C8,6.8,8,6.8,8,6.9C7.9,7,7.7,7,7.6,7.1H7.2C7.3,6.7,7.6,6.7,7.9,6.7z M6.7,6.2
			L6.7,6.2c-0.1,0.1,0,0.1-0.1,0.1c-0.1-0.1,0,0-0.1-0.2C6.6,6.2,6.6,6.2,6.7,6.2z M3.5,4.7c0.2,0,0.4,0,0.5,0.2
			C3.9,4.9,3.7,4.8,3.5,4.7z M2.4,14.1c0-0.1,0-0.1,0.1-0.2c0.1,0.1,0.1,0,0.1,0.2H2.4z M4.5,12.6H4.4v-0.2h0.1V12.6z M4.5,12.1v0.1
			H4.4v-0.2h0.2C4.5,12,4.6,12,4.5,12.1z M4.9,7.7c0-0.1,0-0.1-0.1-0.2C5,7.5,5,7.5,4.9,7.7L4.9,7.7z M6.1,6.6
			C5.7,6.8,5.4,7.1,5.1,7.4H4.9C4.8,6.8,4.7,6.1,4.6,5.5c0.5,0,0.7,0.3,1.2,0.4c0,0.1,0,0.3,0.1,0.3c-0.1,0.1,0,0-0.1,0.1v0.1
			c0.1,0,0.1,0,0.2-0.1C6,6.5,6,6.5,6.1,6.6L6.1,6.6L6.1,6.6z M6.1,6.1h0.1v0.1H6.1V6.1z M6.3,6.3L6.3,6.3L6.3,6.3c0,0,0-0.1,0-0.1
			C6.3,6.3,6.3,6.3,6.3,6.3z M7.7,12.2H7.5c-0.1-0.1-0.1-0.2-0.2-0.2v-0.1h0.3V12.2z M8.3,12c-0.1,0.1-0.1,0.1-0.2,0.2H7.9v-0.3
			L8.3,12L8.3,12z M11.1,12.6c0-0.1,0-0.2,0.1-0.3c0.1,0.1,0.1,0.1,0.1,0.3H11.1z M11.2,12.2c-0.1-0.1-0.1-0.2-0.2-0.2
			c0.1-0.1,0,0,0.2-0.1V12.2z M35.6,12.5c0,0.1,0,0,0,0.1v0.1h-0.1C35.6,12.6,35.6,12.6,35.6,12.5z M35.8,13
			c0.1,0.1-0.1,0.3-0.2,0.3v0.1h-0.1C35.6,13.2,35.7,13.1,35.8,13z"/>
	</g>
</g>
<g class="st1">
	<g class="st2">
		<path class="st4" d="M55.4,7.7c-0.5,0-18.3-0.2-18.3-0.2L37,7.4c0,0-10-0.2-10.6-0.2c-0.2,0-0.6,0.1-0.8-0.1h-3.4
			c-0.7,0-1.1,0.1-1.4-0.3h-3.1c0-0.2,0-0.5-0.1-0.7c0-0.1,0.2,0,0.1-0.2c0-0.1-0.1,0-0.2-0.3h-1.8V5.4h-0.1c-0.1-0.1,0-0.3,0-0.4
			c0-0.1-0.1-0.1-0.1-0.2c-0.2,0-0.3,0-0.4,0.1c-0.3,0.1,0,0.3-0.2,0.5c-0.1,0.1-0.1-0.1-0.2,0.2c-0.4-0.1-6.6,0-6.8-0.1
			c-0.1,0,0-0.1-0.1-0.1c0,0,0,0.1-0.1,0.1c-0.6,0-3.7,0.1-4.4,0.1c0,0.4,0,0.7-0.1,1.1c-0.1,0-0.1,0-0.2-0.1H3.3
			c0,0.2-0.1,0.6,0,0.7c0,0.1,0,0,0.1,0.1c0,0.5-0.1,0.9-0.1,1.4c-0.1,0-0.1,0-0.2,0.1L3,9.1c-0.1,0.5,0.4,0.9,0.1,1.3
			c0,0.2,0,0.5-0.1,0.6C3,11,3,11,2.9,11c0,0.2,0,0.5-0.1,0.7c0,0.1,0.3,0.1,0.2,0.3c-0.1,0-0.1,0-0.2,0.1v0.2c-0.2,0-0.2,0-0.4-0.1
			c0,0.1,0,0.1-0.1,0.1c0,0.4,0.1,0.1-0.1,0.4c0.1,0.1,0,0.1,0,0.3h0.1V13c0.1-0.1,0.1-0.1,0.1-0.3h0.1c0,0.3,0,0.6-0.1,0.7
			c0,0.1,0,0-0.2-0.1v0.2c0.2,0,0.1,0.1,0.2-0.1h0.1c0,0.2,0,0.8-0.1,1c-0.1,0.1,0,0.1-0.2,0.1c0.1,0.1,0,0.1,0.2,0.1
			c-0.1,0.2-0.8,0.8-1,1c-0.1,0.1-0.1,0.1-0.2,0.2c0,0.1,0,0.3-0.1,0.4c0,0-0.1,0.2-0.2,0.3c-0.1,0.3,0.2,0.4,0.2,0.5v0.6
			c0,0.1,0.1,0.3,0.2,0.5c0.2,0.4,0.5,0.6,0.8,0.8c0.1,0.2,0.3,0.3,0.4,0.5h0.1c0.1,0.1,0.2,0.3,0.4,0.4h0.1
			c0.1,0.1,1.5,1.5,2.3,1.8c0.5,0.2,1.4,0.2,2,0.2h24.3c0.8,0,2.2-0.1,2.9-0.2c1-0.2,3.5-1.5,3.7-1.7c0,0,0.1,0.1,0.1,0.2
			c0.1,0.1,0,0,0.1,0.1c0,0,0-0.3,0.1-0.4c0,0,0.6-0.3,0.7-0.3c0.6-0.4,1.4-1.3,1.1-2.3c-0.1-0.4-0.1-0.8-0.4-1.1
			c0-0.2,0.1-0.2,0.2-0.3c-0.1-0.3-0.4-0.4-0.6-0.5c-0.8-0.5-2.1-0.5-3.5-0.5c0.1-0.1,1-0.1,1.3-0.1v-0.2c0.1,0,0.1,0.1,0.1,0.2h0.1
			c0-0.2,0-0.3-0.1-0.4v-0.6h-0.1c-0.1,0.1-0.1,0.2-0.1,0.4c-0.1-0.1-0.1,0-0.1-0.2c-0.4,0-1.2,0.1-1.3-0.2c-0.1,0-0.1,0.1-0.2,0
			c-0.1,0.1-0.1,0.1-0.1,0.2c-0.3,0-1.2,0.1-1.3-0.1h-0.1v0.4c-0.3,0-3.1-1-3.4-1.2c-0.2-0.1-0.1-0.1-0.2-0.3
			c-0.1,0.1-0.1,0.1-0.2,0.2c-0.1-0.1-0.1,0-0.1-0.2c-0.2-0.1-0.5-0.1-0.7-0.2c0-0.1,0-0.1-0.1-0.2h-0.1c-0.1,0-0.1,0.1-0.2,0.1
			c0,0-0.2-0.1-0.2-0.1c0,0,0,0.1-0.1,0.1c-0.5-0.3-1.2-0.4-1.7-0.6c-0.1,0-0.3-0.2-0.4-0.2c0,0-0.3,0.1-0.3,0.2c-0.1,0,0,0-0.1-0.1
			v-0.1h-0.3c-0.2,0-0.1,0.1-0.2,0.1c-0.3,0.1-0.8-0.1-0.9,0c-0.1-0.1,0,0,0-0.1h-0.1c-0.1-0.1-0.1,0.1-0.1,0.1
			c-0.1,0.1-0.4-0.1-0.5,0c-0.1,0-0.1-0.1-0.3-0.1v-1.6h-0.1c0,0.3,0.1,1.4-0.1,1.6v0.1c-0.2-0.1-0.1-0.6-0.2-0.8
			c-0.2-0.5-0.8-0.4-1.2-0.4c0-0.2,0-0.3-0.1-0.4c-0.1-0.1-0.3,0-0.4-0.1h-0.1v-0.1c0.6,0,0.7-0.1,1-0.4c0.9,0,2.2,0.1,3-0.1
			c0.5-0.1,1.1,0,1.5-0.1c0.5-0.1,1.1,0,1.5-0.1h1.1c0.5,0,0.9,0,1.4-0.1c0.5,0,4.3-0.1,5.3-0.1c0,0,0-0.1,0.1-0.1
			c1.5,0,17.4-0.2,18.3-0.2c0.2,0.1,0.3,0.2,0.6,0.2V7.6C55.7,7.6,55.6,7.7,55.4,7.7z M2.6,14.6v-0.2h0.1v0.1h0.1
			C2.7,14.6,2.7,14.6,2.6,14.6z M19.1,11.7c-0.1,0-0.3,0-0.4,0.1v-0.2c-0.3,0-0.4,0-0.7,0v0.2h-0.1v-0.5H18l0.1-0.2
			c0.1-0.2-0.1-0.2-0.1-0.2c0-0.3,0-0.5-0.1-0.8h1.3C19.2,10.4,19.3,11.6,19.1,11.7z M20.2,11.7C20.2,11.7,20.2,11.7,20.2,11.7
			c0,0-0.2,0-0.1,0L20.2,11.7L20.2,11.7c-0.3,0-0.7,0-1,0v-1.6h1c-0.1,0.2-0.5,0.1-0.7,0.1c0,0.1,0,0-0.1,0.1c0,0.3-0.1,1.2,0.1,1.3
			v0.1C19.8,11.6,20,11.6,20.2,11.7C20.2,11.7,20.2,11.7,20.2,11.7C20.2,11.7,20.2,11.7,20.2,11.7C20.2,11.7,20.3,11.8,20.2,11.7
			C20.3,11.8,20.2,11.8,20.2,11.7z M37.4,14.4v-0.2h0.1c0,0.1,0,0-0.1,0.1v0.3l-0.2-0.2C37.3,14.4,37.2,14.5,37.4,14.4z M35.8,14.7
			c-0.1,0.1-0.1,0.1-0.2,0H35.8z M22.9,11.6C22.9,11.6,22.9,11.6,22.9,11.6l0.1-0.4h0.3c0,0,0,0.1,0.1,0.1v-0.1h0.3v0.5
			c-0.2,0-0.7-0.2-1,0c-0.1-0.1,0.1,0,0-0.1h-0.2C22.6,11.6,22.7,11.6,22.9,11.6z"/>
	</g>
</g>
<g>
	<g>
		<path class="st4" d="M27.2,10.6c0,0,0.2-0.1,0.2-0.1c0.1,0,0.3,0.1,0.4,0c0.2,0,0.3-0.2,0.4-0.3c0.2-0.1,0.3,0,0.4-0.1
			c0.2-0.1,0.2-0.4,0.4-0.6c0.2-0.2,0.7-0.1,1-0.1c0.9,0,1.7,0,2.6,0c3.2,0,6.5-0.1,9.7-0.1V8.4c-2.6,0-5.5,0-8.1-0.1
			c-1.5,0-3.1,0-4.6,0c-0.5-0.1-1.2,0.1-1.7,0c-0.3-0.1-0.9,0.1-1.3,0c-0.3-0.1-0.7,0-1,0V7.8c-0.2,0-0.5,0-0.6,0v0.2h-6.4
			c0-0.4,0-0.8,0-1.3c-0.8,0-2.9-0.1-2.9-0.1s-3.5,0-5.3,0H7c0,0,0,0.1,0,0.1H6.5c0-0.3,0-0.5,0.2-0.6c0-0.4,0-0.4-0.3-0.5
			c0-0.1,0-0.4,0-0.4c0-2,0-2.6,0-4.6H6.2c0,1.6,0,2,0,3.6c0,0.5,0,0.9,0,1.4c0,0-0.2,0.1-0.3,0.1v0.4c0.1,0,0.1,0,0.2,0
			c0,0.2,0,0.5,0,0.6c0,0,0,0-0.1,0c0,0.3-0.1,0.2-0.3,0.3c-0.1,0.1,0,0.3,0,0.5c0,0.1-0.2,0.2-0.2,0.3C5.1,8.4,5,8.9,4.7,9.1
			c-0.1,0.1-0.1,0-0.2,0C4.5,9.3,4.4,9.2,4.4,9.3v0.1c0,0.1-0.1,0.2-0.2,0.2c0,0.1-0.1,0.2-0.1,0.3c0,0-0.1,0-0.1,0c0,0,0,0.1,0,0.1
			c0,0-0.1,0-0.1,0c-0.1,0.2-0.2,0.4-0.3,0.5c-0.1,0-0.1,0-0.2,0v0.1c0,0,0.2,0,0.1,0.1h0c-0.1,0.2-0.2,0.3-0.3,0.4
			c-0.1,0,0,0-0.1,0c0,0.1,0,0,0.1,0.1c-0.2,0.4-0.5,0.8-0.5,1.4c-0.1,0-0.1,0-0.2,0c0,0.2,0,0.6,0,0.7h0.2v0.7c0.1,0,0.2,0,0.4,0
			v0.8c-0.5,0-0.7,0.1-1.3,0.1v0.1c-0.2,0.1-0.4,0.2-0.6,0.4c0,0.2,0.2,0.4,0.4,0.4c-0.2,0.3-0.4,0.6-0.6,1c-0.1,0.5,0,1.3,0.2,1.6
			c0.3,0.6,0.9,0.8,1.4,1.2c0.7,0.5,1.5,1.1,2.2,1.5c0.6,0.4,1.5,0.4,2.5,0.4h19.9c1.6,0,6,0,6.9-0.4c0.8-0.4,2.3-3,2.5-3.2
			c0.3-0.4,0.7-0.9,0.9-1.4c0.1-0.2,0.1-0.7,0-0.9c0-0.1,0-0.3,0-0.4c-0.3-0.7-0.8-1.1-1.5-1.3c0-0.2,0-0.4,0-0.6
			c-0.4,0-1.2,0.1-1.6,0.2c-0.2,0-0.4,0-0.5,0c0,0,0-0.1-0.1-0.1v0.1h-0.4c0-0.2-0.1-0.4,0-0.6v-0.1c0.4,0,0.7,0.1,0.9,0.4h0
			c0-0.2,0-0.4,0-0.6c-0.1-0.1-0.1-0.2-0.2-0.2c-0.2-0.1-0.6-0.1-0.9-0.2c0-0.2-0.1-0.5-0.1-0.7c-0.5,0.1-1.1,0-1.6,0.1
			c-0.3,0-0.6,0-0.9,0V12c-0.2,0.1-0.7-0.1-0.9,0c0,0-0.2,0-0.1,0h0v-0.1c0,0-0.1,0-0.1,0c0-0.2-0.1-0.2-0.1-0.4
			c-0.2,0-0.3,0.1-0.4,0.2l0,0h0.1c0,0.1,0.1,0.2,0.1,0.3c-0.1-0.1-0.2-0.1-0.3-0.2c0,0,0-0.1,0-0.1c-0.3,0.1-0.3,0.3-0.7,0.3v0.2
			c-0.1,0-0.3,0-0.4-0.1c-0.1-0.1-0.2-0.2-0.4-0.3c-0.2,0-0.4,0-0.6,0c0,0,0,0.1-0.1,0.1v-0.1c-0.1-0.1-0.4-0.1-0.5-0.1
			c-0.3-0.1-0.3,0.1-0.4,0.1c-0.1,0-0.2-0.1-0.2,0c0,0,0,0.1,0,0.1c-0.3,0-0.6-0.1-0.8-0.1c0,0-0.1-0.2-0.1-0.2h-0.2v-0.1
			c0,0-0.7,0-0.7-0.1c-0.1,0-0.2,0-0.3,0c0,0,0,0,0,0.1c-0.2,0-1.3,0-1.4-0.1c-0.3,0-0.5,0-0.5-0.2h-0.1c-0.1,0,0,0-0.1-0.1
			c-0.1,0.1-0.8,0-0.9-0.1c-0.2,0-0.4,0-0.5,0c0,0,0,0,0,0.1c-0.3,0-0.4-0.1-0.6-0.1c-0.1-0.2-0.2-0.4-0.3-0.5v-0.1H27.2z M2.6,13.4
			v-0.6h0.1c0,0.2,0,0.4,0,0.6H2.6z M27,12C27,12,27,12,27,12L27,12C26.9,12.1,26.9,12,27,12z"/>
	</g>
</g>
</svg>
