<?xml version="1.0" encoding="utf-8"?>
<!-- Generator: Adobe Illustrator 27.7.0, SVG Export Plug-In . SVG Version: 6.00 Build 0)  -->
<svg version="1.1" id="Слой_1" xmlns="http://www.w3.org/2000/svg" xmlns:xlink="http://www.w3.org/1999/xlink" x="0px" y="0px"
	 width="69.4px" height="23.3px" viewBox="0 0 69.4 23.3" style="enable-background:new 0 0 69.4 23.3;" xml:space="preserve">
<style type="text/css">
	.st0{fill-rule:evenodd;clip-rule:evenodd;fill:#8C8C7C;}
</style>
<path class="st0" d="M11.4,22.1h24c0,0,0.6-0.1,0.8-0.2c1.4-0.5,4.1-1.5,5.3-2.3c0.1-0.1,0.3-0.2,0.4-0.3c0.1-0.2,0.3-0.5,0.4-0.7
	c0.1-0.2,0.1-0.7,0.1-0.7h1.4c0,0-0.2-0.8-0.3-1.1c-0.1-0.2-0.2-0.6-0.4-0.8c-0.2-0.2-0.6-0.5-0.8-0.7C42.3,15.2,42,15,41.8,15
	c-0.3-0.2-1.4-0.4-1.4-0.4l1.8-0.9l1.2-0.3l0.5-0.2L56.3,13l0.2,0.2h3.6v-0.1h0.4v-0.1h3.8v0.1l4.2,0.1v-1.6l-4.2,0.1v0.1h-3.8v-0.1
	h-0.4v-0.1h-3.7l-0.1,0.2l-12.1-0.1l-1.9-0.6h-0.1v-3c0,0-0.5,0-0.7,0c-0.1,0-0.3,0.1-0.4,0.2s-0.2,0.3-0.2,0.4c0,0.1-0.1,0.4,0,0.5
	c0,0.2,0.2,0.4,0.2,0.6c0,0,0.1,0.1,0.1,0.1l-0.2,0.2l-0.2,0.3h-0.1L40,10h-0.8l-0.1-0.2h-1.6l0,0.2h-2.7l-0.3-0.1l-1-0.8l0-0.9
	l-0.3,0L31.9,8l0-1.1l-2.1,0v0.4h-0.6l0.5-0.7h0.3V5.3c0,0-0.4,0-0.6,0.1c-0.1,0-0.2,0.2-0.2,0.3c0,0-0.1,0.1-0.1,0.1
	c0,0.1-0.1,0.2-0.1,0.3c0,0,0,0.1,0,0.1c0,0-0.1,0.1-0.1,0.1c-0.1,0.1,0,0.6,0,0.6h-0.3l-0.7,0.4h-1.1L25.6,7h-0.2l-0.4-0.2l0-0.3
	l0.1,0l0.4,0l0.2-0.2l0.5-0.5l0.1-0.7l-0.9-0.1l-0.1-0.2l0.1-0.1l0.1,0V3.9h-1v0.8h0.2v0.4h-0.3V4.8l-1.3,0.1L23,5.1h-6.1v0.4h1.9
	v0.2h3.1V6h-2.2v0.4h3h0.5v0.2h0.9v0.3L23.7,8h-0.1V7.8h-0.9L22.3,8l0,0.1l-0.6,0.2l-0.1-0.2l-0.7,0.1l0,0c0,0,0-0.2,0-0.2
	c0-0.1,0-0.3,0-0.3c0-0.1-0.1-0.2-0.2-0.2c-0.1-0.1-0.5,0-0.5,0v0.2h-0.3v0.8L20,8.8l-0.5,0.1l-0.8,4.5L17.9,13v-0.5h-3.7v0.4
	L12.1,13l-0.6,0.2l-1.9,0.2L10,13v-0.4l-0.2-0.4v-0.7c0,0-0.2-0.7-0.3-0.9C9.3,10.4,8.8,10,8.5,9.9C8.4,9.9,8.1,9.8,8,9.8
	c-0.3,0-0.8,0.2-1,0.3c-0.2,0.1-0.6,0.6-0.7,0.8c-0.1,0.2-0.1,0.8,0,1c0.1,0.2,0.3,0.7,0.4,0.8C6.8,12.9,7,13.1,7,13.1l0,0.2
	l0.1,0.2l0.4,0.1v0.2l-0.5,0.1l-0.4-0.5c0,0-0.2-0.6-0.4-0.7c-0.1-0.1-0.4-0.4-0.6-0.4c-0.2,0-0.5,0.1-0.6,0.2
	C5,12.5,4.9,12.9,5,13.1c0,0.2,0.1,0.5,0.2,0.6c0.1,0.1,0.4,0.1,0.5,0.1c0.1,0,0.4-0.1,0.4-0.1l0.1,0.4l-0.5,0.5L5.3,15
	c0,0-0.7,0.4-0.8,0.6c-0.2,0.2-0.4,0.5-0.5,0.7c-0.1,0.2-0.3,0.6-0.4,0.8c-0.1,0.2-0.1,0.7-0.1,0.7l0,0.3h0.5l0.7-0.7H5
	c0,0-0.1,0.2-0.1,0.3c0,0.2,0,0.5,0,0.7c0.1,0.2,0.2,0.6,0.4,0.8c0.1,0.1,0.3,0.2,0.4,0.3c1.1,0.7,3.4,1.9,4.7,2.4
	c0.2,0.1,0.6,0.2,0.8,0.2C11.2,22,11.4,22.1,11.4,22.1z"/>
</svg>
