<?xml version="1.0" encoding="UTF-8"?>
<!-- Generator: Adobe Illustrator 25.0.0, SVG Export Plug-In . SVG Version: 6.00 Build 0)  -->
<svg version="1.1" id="Layer_1" xmlns="http://www.w3.org/2000/svg" xmlns:xlink="http://www.w3.org/1999/xlink" x="0px" y="0px" width="56.1px" height="21.9px" viewBox="0 0 56.1 21.9" style="enable-background:new 0 0 56.1 21.9;" xml:space="preserve">
<style type="text/css">
	.st0{display:none;fill-rule:evenodd;clip-rule:evenodd;fill:#8C8C7C;}
	.st1{fill-rule:evenodd;clip-rule:evenodd;fill:#8C8C7C;}
</style>
<path class="st0" d="M6,21.1c0.3,0.1,0.6,0.2,1,0.2h27.3c0,0,0.5-0.1,0.7-0.1c1.3-0.5,3.8-2.1,4.9-3c0.2-0.1,0.5-0.4,0.6-0.6  c0.1-0.2,0.2-0.5,0.2-0.7c0-0.2-0.1-0.5-0.1-0.7c0-0.1-0.2-0.4-0.3-0.5c-0.1-0.1-0.3-0.3-0.3-0.3l0.5-0.7c0,0-0.5-0.2-0.6-0.3  c-0.2-0.1-0.5-0.1-0.7-0.2c-0.1,0-0.5,0-0.5,0l-0.3-0.3V13h-2.1v0.4L35,12.8h-4.5v-0.3h0.3l0.2-0.2h2.1v-0.3l0.7-0.1v-0.2l5.6-0.2  h16.5l0.8,0.2h1.8l0.2-0.2v-1l-0.2-0.2h-1.8l-0.9,0.2H39.7l-5.9-0.2l-2-0.3l-0.5-0.5l-0.8-0.1v0.3c0,0-1.8-0.4-2.4-0.5  c-0.5-0.1-2-0.3-2-0.3l-0.2-0.2h-1l-2.4-0.1l-0.2-0.2h-0.4V7.8h-0.3V7.7h0.4c0,0-0.2-0.3-0.3-0.3c-0.1,0-0.2,0-0.3,0.1  c-0.1,0.1-0.2,0.2-0.3,0.3c0,0.1-0.1,0.3-0.1,0.3h-0.2l-0.5-0.2h-1.2V7.4h-0.5V6.8l0.2-0.4h0.2v0.1h0.6V5.9h-0.6V5.3l-0.5,0.5h-0.2  v-1H18v1.1h-0.6V5.5h-0.6L16.7,0l0,5.6h-0.4v0.3h-1.3V5.3h-0.2v0.6H11v0.3h5l-0.3,0.3h0.8v1.1h0.9V6.5h0.8l-0.8,1.4L16.9,8V7.6  l-0.2,0v0.5c0,0-0.4,0-0.5,0c-0.1,0-0.2,0.1-0.3,0.1c-0.1,0-0.2,0.1-0.2,0.2c0,0,0,0.2,0,0.2s-0.3,0.1-0.4,0.2  c-0.1,0.1-0.4,0.4-0.4,0.4h-0.4c0,0-0.2,0.2-0.2,0.3c0,0.1-0.1,0.3-0.1,0.4c-0.1,0.1-0.2,0.4-0.3,0.6c-0.1,0.1-0.2,0.3-0.3,0.4  c-0.1,0.1-0.3,0.3-0.3,0.3l0.1,0.2c0,0-0.1,0.2-0.1,0.3c0,0.1,0,0.3,0,0.3c0,0,0.3,0.1,0.4,0.1c0.6,0.1,2.4,0.3,2.4,0.3h0.2v0.4H10  v-0.2H9.6v0.2H6.6l-5.2,0.1L1,13l-0.1,0.3l-0.2-0.1c0,0-0.3-0.3-0.4-0.3c-0.1-0.1-0.4-0.1-0.6-0.1c-0.1,0-0.4,0.1-0.6,0.2  c-0.1,0.1-0.4,0.4-0.4,0.5c0,0.1-0.1,0.4-0.1,0.5c0,0.1,0.1,0.4,0.1,0.5c0.1,0.1,0.3,0.3,0.4,0.3c0.1,0.1,0.3,0.2,0.5,0.2  c0.1,0,0.3,0,0.4,0c0,0,0.2,0,0.2,0v1.4c0,0-0.2,0.2-0.2,0.2c0,0.1,0,0.3,0,0.3c0,0.1,0.1,0.3,0.2,0.4c0.1,0.1,0.3,0.4,0.3,0.4  l0.1-0.2h0.3c0,0,0,0.4,0,0.5c0,0.2,0.2,0.6,0.3,0.7c0.1,0.2,0.4,0.5,0.6,0.6c0.1,0.1,0.3,0.2,0.4,0.3C2.9,20.1,5,20.8,6,21.1z"/>
<path class="st1" d="M8.1,21.3h24.8c0,0,0.4,0,0.5-0.1c1.3-0.4,3.6-1.8,4.7-2.7c0.2-0.2,0.5-0.5,0.6-0.7c0.1-0.2,0.3-0.8,0.3-1  c0-0.2-0.1-0.7-0.2-0.9c-0.1-0.2-0.3-0.6-0.4-0.8c0-0.1-0.2-0.3-0.2-0.3l0.1-0.8l-1-0.5l-0.6,0v-0.5h-0.9v0.5h-0.9l0.1-0.4h0.4v-0.3  l-0.6,0h-0.5l-0.5-0.3l-0.6,0l-0.3-0.2h-0.5l-0.1-0.1l-0.3,0.1l-0.2-0.2h-1.2l0.3-0.3l0.6,0.1l0.3-0.3l1.5-0.3v-0.2h8.2l0.2-0.2  l10.3-0.1l0.1,0.1l1,0l0.6,0.2H55l0.2-0.2v-1L55,9.8h-1.5L52.8,10H52l-0.1,0.1H41.6l-0.2-0.2h-8.3V9.6l-0.8-0.1l0-0.3l-0.2-0.3  l-0.4,0L31.6,9h-0.1l-0.7-0.4l0.2,0.8L30.7,9L29.4,9l-0.5-0.4l-2-0.1c0,0,0-0.3-0.1-0.4c0-0.1-0.1-0.2-0.2-0.2c-0.1,0-0.3,0-0.4,0  c-0.1,0-0.1,0.2-0.2,0.2c0,0.1,0,0.3,0,0.3l0.2,0c0,0-0.1-0.2,0-0.3c0,0,0.1-0.1,0.1-0.1c0,0,0.1,0,0.2,0c0,0,0.1,0.2,0.1,0.2l0,0.1  l-1.1-0.1L25.8,8l-0.6-0.1V7.6L25,7.4h-0.2V7.2h-2.4v0.1h-0.2v0.3h-0.1l-0.2,0.5l-0.9,0l-0.2-0.2l-0.2,0V7.8h0.2V7.6h-1l-0.1-0.3  h-0.1l-0.1-7.2h-0.1l0.1,7.1h-0.2L19,7.7h-0.2V8h-0.7c0,0-0.1-0.2-0.1-0.3c0,0-0.1-0.1-0.1-0.2c-0.1,0-0.2-0.1-0.2,0  c-0.1,0-0.2,0.2-0.3,0.2c0,0.1-0.1,0.3-0.1,0.3h0.2c0,0,0-0.3,0-0.3c0,0,0.1-0.1,0.1-0.1c0,0,0.1,0.1,0.2,0.1c0,0.1,0,0.3,0,0.3H17  l-0.2,0.1l-0.1,0.2h-0.2l0,0.2l-0.3-0.1l-0.1,0l-0.2,0.8l0.1,0.1l0.4,0.1l0-0.1L16,9.3l0.2-0.6l0.3,0.1l-0.6,2l-0.4,0.8l0.1,0.2h0.3  l0,0.2h1.8v0.1h-3l-0.2-0.2h-2l-0.1,0.1h-0.8v0.2h-0.9L10.4,12l-4.9,0.6l0,0.2l-0.4,0l-0.5,0.7H4.3l-0.3-0.2l-0.3,0l-0.3,0.2  l-0.1,0.2l-0.6,0.3l0,0.2l0.1,0.2l-0.4,0.2l-0.2,0.1l-0.7-0.4l-0.1,0.1l0.7,0.4c0,0-0.4,0.3-0.5,0.5c-0.1,0.1-0.3,0.4-0.3,0.6  c-0.1,0.1-0.2,0.4-0.2,0.5c0,0.1,0,0.4,0,0.5c0,0.1,0.1,0.4,0.1,0.6c0.1,0.2,0.3,0.7,0.4,0.9c0.1,0.2,0.4,0.5,0.5,0.6  c0.3,0.2,0.8,0.5,1.1,0.6c0.9,0.4,2.8,1.4,3.8,1.7C7.4,21.3,8.1,21.3,8.1,21.3z"/>
</svg>