<svg xmlns="http://www.w3.org/2000/svg" xmlns:xlink="http://www.w3.org/1999/xlink" preserveAspectRatio="xMidYMid" width="62" height="23" viewBox="0 0 62 23">
  <defs>
    <style type="text/css">
      .cls-1 {
        fill: #8c8c7c;
        fill-rule: evenodd;
      }
    </style>
  </defs>
  <path d="M0.967,8.932 L15.930,8.951 L17.058,9.495 L17.968,8.974 L17.968,2.975 L21.908,2.036 L22.952,2.944 L26.034,2.047 L26.955,-0.022 L30.976,-0.032 L31.938,2.014 L38.951,3.018 L40.069,4.022 L41.008,5.986 L60.735,6.435 L62.009,6.006 L61.999,7.949 L60.787,7.501 L40.967,8.034 L40.674,8.994 L45.595,9.015 L46.107,10.019 L51.971,10.102 L51.981,10.854 L45.993,10.970 L46.003,11.992 L58.060,12.013 L60.025,12.515 L59.022,14.646 L60.838,15.995 L59.440,18.796 L53.169,22.547 L51.038,22.965 L10.038,22.933 L1.990,18.838 L1.289,16.915 L2.020,15.974 L0.965,15.974 L0.967,8.932 Z" class="cls-1"/>
</svg>