<?xml version="1.0" encoding="utf-8"?>
<!-- Generator: Adobe Illustrator 27.5.0, SVG Export Plug-In . SVG Version: 6.00 Build 0)  -->
<svg version="1.1" id="Layer_1" xmlns="http://www.w3.org/2000/svg" xmlns:xlink="http://www.w3.org/1999/xlink" x="0px" y="0px"
	 width="62px" height="24px" viewBox="0 0 62 24" style="enable-background:new 0 0 62 24;" xml:space="preserve">
<style type="text/css">
	.st0{fill-rule:evenodd;clip-rule:evenodd;fill:#8C8C7C;}
</style>
<path class="st0" d="M9.8,24h42.3c0,0,0.4,0,0.5-0.1c2-0.7,5.8-2.9,7.6-4.1c0.1-0.1,0.4-0.3,0.6-0.4c0.2-0.2,0.5-0.6,0.6-0.9
	c0.1-0.2,0.2-0.8,0.2-1c0-0.2-0.1-0.6-0.1-0.7c0-0.2-0.1-0.5-0.2-0.6c-0.1-0.2-0.4-0.6-0.4-0.6l0.6-0.4l0,0.1L62,15l0-0.3L61.3,14
	c0,0-0.4-0.4-0.6-0.5c-0.1-0.1-0.3-0.1-0.5-0.1c-0.9-0.1-3.6,0-3.6,0v-0.6h-0.5L55.9,13v0.2v0.2l-0.5,0L53.2,12l-1-0.1l0.3-0.6
	l0.1-0.4H55l0.8-0.2v-0.4h-3.1l-0.1-0.4l-0.4-1.1l-0.3-0.2h-6.3l-0.3,0.1v1.1H44V9.4h0.9V8.1l0,0h4.8l0.5-0.5V7.1L60,7h0.5V6.1H60
	L44.9,5.9V3.5h-7.4V3.4h-0.3c0,0,0.2-0.3,0.2-0.4c0-0.1,0-0.2,0-0.2c0-0.1-0.2-0.2-0.2-0.2h-1.7l-0.2-0.1c0,0,0-0.4,0-0.5
	c0-0.1-0.2-0.2-0.2-0.2c-0.1,0-0.2,0-0.3,0c-0.1,0-0.2,0.1-0.2,0.2c-0.1,0.1-0.2,0.6-0.2,0.6h-1.7c0,0-0.2,0-0.2,0.1
	c0,0.1,0,0.2,0,0.3c0,0.1,0.2,0.4,0.2,0.4h-0.3v0.1h-2.2v2.5l-0.9,0l-0.1,0.1l0,0.3l0.3,0.2l0.3,0h0.5v2.9h0.9v0.4h-1.5V9.7h-1.1
	V9.5h-0.8l-0.2,0.2h-6.3V9.6l-0.2,0h-0.8v0.2h-1.1l-1.1,0.1l0-0.5l-0.1-0.1l-2.2,0.4l0,0.3l0.1,0.3l-4,0.7v-0.1L10,11.2v0.1H9.9
	v-0.2l-0.6,0.1v0.1l0.1,0.1H9.2v-0.6l-0.3-0.1h-5H3.5l-0.3,0.7v0.4l-0.5-0.3H2.2v1.2h0.6l0.4-0.2h0.1v0.3l0.1,0.4h0.1v0.1h-2L0,14.2
	v0.2L0.4,15L1,15.1v0.3v0.6v0.3l-0.2,1c0,0,0,0.2,0,0.3c0,0.2,0.1,0.5,0.2,0.7C1,18.6,1.1,19,1.2,19.1c0.1,0.1,0.3,0.4,0.4,0.5
	c0.2,0.2,0.5,0.5,0.7,0.6c1.5,1,4.7,2.8,6.4,3.5c0.2,0.1,0.6,0.2,0.8,0.3C9.5,24,9.8,24,9.8,24z"/>
</svg>
