<?xml version="1.0" encoding="UTF-8"?>
<!-- Generator: Adobe Illustrator 25.3.1, SVG Export Plug-In . SVG Version: 6.00 Build 0)  -->
<svg version="1.1" id="Layer_1" xmlns="http://www.w3.org/2000/svg" xmlns:xlink="http://www.w3.org/1999/xlink" x="0px" y="0px" width="63.9px" height="21.9px" viewBox="0 0 63.9 21.9" style="enable-background:new 0 0 63.9 21.9;" xml:space="preserve">
<style type="text/css">
	.st0{display:none;fill-rule:evenodd;clip-rule:evenodd;fill:#8C8C7C;}
	.st1{fill-rule:evenodd;clip-rule:evenodd;fill:#FAB81B;}
</style>
<path class="st0" d="M7.6,21.1c0.3,0.1,0.6,0.2,1,0.2h27.3c0,0,0.5-0.1,0.7-0.1c1.3-0.5,3.8-2.1,4.9-3c0.2-0.1,0.5-0.4,0.6-0.6  s0.2-0.5,0.2-0.7s-0.1-0.5-0.1-0.7c0-0.1-0.2-0.4-0.3-0.5s-0.3-0.3-0.3-0.3l0.5-0.7c0,0-0.5-0.2-0.6-0.3c-0.2-0.1-0.5-0.1-0.7-0.2  c-0.1,0-0.5,0-0.5,0L40,13.9V13h-2.1v0.4l-1.2-0.7h-4.5v-0.3h0.3l0.2-0.2h2.1v-0.3l0.7-0.1v-0.2l5.6-0.2h16.5l0.8,0.2h1.8l0.2-0.2  v-1l-0.2-0.2h-1.8l-0.9,0.2H41.3l-5.9-0.2l-2-0.3L33,9.4l-0.8-0.1v0.3c0,0-1.8-0.4-2.4-0.5c-0.5-0.1-2-0.3-2-0.3l-0.2-0.2h-1  l-2.4-0.1L24,8.3h-0.4V7.8h-0.3V7.7h0.4c0,0-0.2-0.3-0.3-0.3c-0.1,0-0.2,0-0.3,0.1c-0.1,0.1-0.2,0.2-0.3,0.3c0,0.1-0.1,0.3-0.1,0.3  h-0.2L22,7.9h-1.2V7.4H20V6.8l0.2-0.4h0.2v0.1H21V5.9h-0.6V5.3L20,5.9h-0.2v-1h-0.2V6H19V5.5h-0.6L18.3,0v5.6h-0.4v0.3h-1.3V5.3  h-0.2v0.6h-3.8v0.3h5l-0.3,0.3h0.8v1.1H19V6.5h0.8L19,7.9L18.5,8V7.6h-0.2v0.5c0,0-0.4,0-0.5,0s-0.2,0.1-0.3,0.1  c-0.1,0-0.2,0.1-0.2,0.2v0.2c0,0-0.3,0.2-0.4,0.2c-0.1,0.1-0.4,0.4-0.4,0.4H16c0,0-0.2,0.2-0.2,0.3s-0.1,0.3-0.1,0.4  c-0.1,0.1-0.2,0.4-0.3,0.6c-0.1,0.1-0.2,0.3-0.3,0.4c-0.1,0.1-0.3,0.3-0.3,0.3l0.1,0.2c0,0-0.1,0.2-0.1,0.3s0,0.3,0,0.3  s0.3,0.1,0.4,0.1c0.6,0.1,2.4,0.3,2.4,0.3h0.2v0.4h-6.2v-0.2h-0.4v0.2H8.3l-5.2,0.1L2.7,13l-0.1,0.3l-0.2-0.1c0,0-0.3-0.3-0.4-0.3  c-0.1-0.1-0.4-0.1-0.6-0.1c-0.1,0-0.4,0.1-0.6,0.2c-0.1,0.1-0.4,0.4-0.4,0.5S0.3,13.9,0.3,14s0.1,0.4,0.1,0.5  c0.1,0.1,0.3,0.3,0.4,0.3C0.9,14.9,1.1,15,1.3,15c0.1,0,0.3,0,0.4,0h0.2v1.4l-0.2,0.2c0,0.1,0,0.3,0,0.3c0,0.1,0.1,0.3,0.2,0.4  s0.3,0.4,0.3,0.4l0.1-0.2h0.3c0,0,0,0.4,0,0.5c0,0.2,0.2,0.6,0.3,0.7c0.1,0.2,0.4,0.5,0.6,0.6c0.1,0.1,0.3,0.2,0.4,0.3  C4.5,20.1,6.7,20.8,7.6,21.1z"/>
<path class="st0" d="M9.3,21.3h28c0,0,0.5-0.1,0.7-0.2c0.1-0.1,0.3-0.2,0.5-0.3c1-0.7,2.8-2.4,3.6-3.4c0.1-0.2,0.3-0.6,0.4-0.8  c0-0.1,0-0.4,0-0.6c0-0.1-0.1-0.3-0.1-0.3l0.9-1.2c0,0-0.7-0.4-0.9-0.5c-0.1,0-0.5-0.1-0.6-0.1s-0.5,0-0.5,0V13H40l-0.7,0.7v-0.6  h-0.6v0.6l-1-0.5v-0.3l-0.3,0.3H37l-0.3-0.3h-0.2v-0.4H36l-0.4,0.4l-1-0.3H32v-0.1h2l0.3-0.1l0.2-0.5v0.6l0.5-0.3l0.5-0.2l1.6-0.3  v-0.2h23.5v-1.1H37.1v-0.2h-0.4l-1.8-0.3l-0.6-0.1l-0.6-0.3l-0.3-0.1l-0.2-0.2h0.2V7.5c0,0-0.2,0-0.3,0c-0.2,0-0.5,0-0.6,0.1  S32.2,7.9,32.1,8C32,8.1,32,8.4,32,8.5s0.1,0.3,0.2,0.4c0,0.1,0.2,0.2,0.2,0.2L32,9.4v0.2l-1.3-0.2V9h-0.8l-0.3,0.3L27.2,9V8.4h-0.3  l-0.1-0.1h-0.3L27,7.6h0.3V6.2c0,0-0.4-0.1-0.6,0c-0.1,0-0.3,0.2-0.4,0.4c-0.1,0.1-0.1,0.4-0.1,0.6c0,0.1,0.1,0.3,0.2,0.3  c0.1,0.1,0.4,0.1,0.4,0.1L26.3,8l0.1-0.4H26l-0.6,0.2h-1.7V8h-0.4v0.2h-1.1l0.3-0.4l-0.2-0.1L22,7.9L21.6,8l-0.2-0.1l-0.2-7.8  l-0.1,7.7l-0.4-0.1h-1l-0.6,0.2l-0.6-0.2V7.5L19,7.6l0.4-0.2l0.1-0.2c0,0,0.3-0.3,0.4-0.5C20,6.6,20,6.3,20,6.2S19.9,6,19.9,6  L19,6.1V5h-0.6v0.8h0.4v0.4h-0.6H18V5.4h-0.8v0.8h-4.5V5.7h-0.2v0.5h-1.2v0.4h5.1v0.2H16L15.7,7H14v0.2h2.4h1.8v0.6l0,0.2L19,8.2  h-1.6V7.8h-0.3l-0.3-0.3h-0.5l-0.2,0.3L15.5,8l-0.4,0.2l-0.5,0.3l0.4,1l-0.2,0.2c0,0-0.9-0.3-1.2-0.3c-0.2,0-0.5,0-0.7,0.1  s-0.4,0.3-0.5,0.5c-0.1,0.1-0.2,0.3-0.2,0.5c-0.1,0.1-0.2,0.6-0.2,0.6l0.2-0.1c0,0,0.1,0.4,0.1,0.5c0.1,0.1,0.2,0.3,0.4,0.4  c0.1,0.1,0.4,0.1,0.6,0.1c0.1,0,0.3-0.1,0.3-0.1l0.1,0.3l4.3,0.6l0.2,0.3h-4.8L12.7,13l-7.1,0.2l-0.4,0.2H4.7l-0.2,0.2l-0.2-0.2H2.5  v0.2H1.7l-0.4-0.2l-1,1.1l0.9,1l1-1V14l0.5,0.1l-0.6,0.6v0.4l0.8,1L3.4,16c0,0-0.2,0.6-0.2,0.8c0,0.2,0,0.7,0.1,0.9  c0,0.2,0.1,0.5,0.2,0.6c0.1,0.2,0.3,0.5,0.5,0.6c1.1,0.7,3.3,1.7,4.6,2.2C8.7,21.2,9.3,21.3,9.3,21.3z"/>
<g>
	<g>
		<path class="st1" d="M63.5,10.8c0-0.2,0-0.3-0.1-0.4c-0.2,0-0.3-0.1-0.5-0.1l-0.1-0.1c-0.1,0-0.8,0.2-0.9,0.2h-0.8    c-0.8,0-1.5-0.1-2.2,0.1h-0.7c-0.1,0-0.5,0.1-0.6,0.1h-1c-0.4,0-0.7,0-1.1,0.1c-0.5,0-2.7,0-3.2,0c-1.2,0-11.2,0-14.9-0.1    c-0.1,0-0.1-0.2-0.2-0.2c-0.1,0-0.4,0.1-0.6,0c-0.6-0.2-0.9-0.2-1.6-0.3V9.7c-0.6,0-1.4,0.1-1.7-0.3h-0.1c0.1,0,0,0,0.2-0.1    c0-0.3,0.1-0.8,0.1-0.9c0-0.2-0.1-0.6-0.1-0.9c-0.6,0-1,0.1-1.1,0.5c-0.3,0.3,0,0.9,0.2,1c-0.1,0.1-0.2,0.2-0.3,0.3h-0.1    c-0.1,0,0.1,0.1,0.1,0.1v0.1c-0.5-0.1-0.9-0.2-1.4-0.3V8.9c-0.4,0-0.9-0.1-1.1,0.2c-0.2,0-0.2-0.1-0.4-0.2c-0.2-0.1-0.4,0-0.5-0.1    L28.4,9c-0.3-0.1-0.6-0.2-1-0.2c0-0.1,0-0.1-0.1-0.2c0-0.4-0.3-0.4-0.7-0.4c0.1-0.2,0.3-0.5,0.5-0.7V7.5c0-0.1,0.1,0.1,0.1,0.1    h0.2c0.1-0.4,0-0.6,0.1-1.1c-0.1,0-0.1-0.1-0.1-0.2h-0.5c0,0-0.1,0.3-0.2,0.4h-0.1l-0.1,0.2c0,0.1,0.1,0.2,0.1,0.2h-0.1    c0,0.2-0.1,0.3-0.1,0.5c-0.2,0-0.1,0.1-0.2,0.1c-0.1,0-0.2-0.1-0.2-0.1v0.1c0,0-0.2,0.1-0.2,0.1h-0.2l-0.1,0.1    c-0.4,0.1-1-0.3-1.4-0.1C23.9,7.9,23.8,8,23.8,8c-0.2,0.2-0.9,0.2-1.3,0.2c0-0.2,0.1-0.2,0.2-0.4h0.1V7.8h-0.1V7.7    c-0.3,0.1-0.7,0.2-1.1,0.2c0-0.3,0-0.4-0.1-0.6v-9.6c-0.1,0.1-0.1,0.5-0.1,0.7v1.9c0,2.5,0,4.9-0.1,7.4c-0.4,0-0.9-0.2-1.4-0.1    c-0.1,0-0.5,0.2-0.5,0.2c-0.2,0-0.6-0.2-0.7-0.3c0,0-0.1-0.1-0.1-0.2V7.5c0.1,0,0.3,0,0.4,0.1h0.3c0,0,0.6-0.8,0.6-0.9V6.4    c0.1,0,0.1,0,0.2-0.1c0,0,0-0.1-0.1-0.1c0.1,0,0,0,0.1,0h0.1c-0.1-0.1-0.2,0-0.3-0.1c-0.1,0,0-0.1-0.2-0.1c0,0-0.1,0.1-0.3,0.1    c-0.1,0,0-0.2-0.2-0.1v0.1h-0.2c0-0.1,0,0-0.1-0.1V5.8c0,0,0.1,0,0.1,0.1c0-0.1,0-0.3,0.1-0.4h0.1V5.3c-0.1,0-0.1-0.2-0.1-0.4    c-0.3,0-0.6,0-0.8-0.1c-0.1,0.3-0.1,0.6-0.1,0.9h0.2c0,0.1,0,0.2-0.1,0.3h-0.2V5.9c-0.1,0-0.2,0-0.3,0.1V5.4h-0.8    c0,0.5,0,0.5-0.2,0.7c-0.3,0-0.4,0-0.7,0.1c-0.3,0.1-0.9,0-1.1,0.1h-2.5V5.7h-0.2v0.5h-0.8v0.2h1.4c-0.1,0.1-0.1,0-0.1,0.2    c0.2,0,2.7,0,3.7,0c-0.1,0.2-0.4,0-0.6,0.1L16,6.9c-0.2,0-0.5,0-0.7-0.1C15.1,6.9,15,7,14.9,7h-0.8v0.2c0.2,0,0.7-0.1,0.8,0.1h1.6    c-0.1,0.2-0.2,0.3-0.2,0.5c-0.3,0-0.4,0.1-0.6,0.2c-0.1,0,0-0.1-0.1-0.1c-0.1,0-0.2,0-0.3,0.1c-0.1,0.2-0.3,0.3-0.5,0.4    C15,8.5,15,8.9,15.2,9.1c-0.1,0.2-0.2,0.1-0.3,0.2c0,0-0.1,0.2-0.1,0.3c-0.1,0-0.1,0-0.2,0.1l-0.3,0.3C14.2,10,14,10,13.9,10.2    c-0.2,0.4,0.1,0.7-0.4,0.9c0,0.3,0.1,0.3,0.2,0.6c0.1,0,0.2,0.1,0.3,0.2c0.3,0,4,0.5,4.2,0.7c0,0,0,0.1,0,0.3    c-0.3,0-0.5,0-0.7-0.1c-0.7,0-1.5,0.1-2-0.1c-0.2,0-0.5,0-0.7,0.1c0,0,0-0.1-0.1-0.1h-0.4v-0.1c-0.3,0-0.7,0-1-0.1    c-0.1,0-0.4-0.2-0.5-0.2c-0.1,0-0.4,0.1-0.5,0.1c-0.3,0.1-0.7,0-0.9,0.1c-0.4,0.1-0.5-0.2-0.8-0.1c-0.2,0-0.5,0.1-0.7,0.2    c-0.3,0.1-0.7,0-0.9,0.1c-0.3,0.1-0.9-0.1-1.1-0.1c-0.2,0-0.6,0.1-0.8,0.1H5.9C4.9,13,4,13,2.7,13c0,0.1,0,0.2-0.1,0.3v0.1    c-0.4,0-0.7,0.1-0.8-0.1c-0.7,0-0.9,0.7-1.4,0.9c0.3,0.3,0.6,0.7,0.9,1c0.4-0.1,0.8-0.7,1.1-0.9c0-0.2,0-0.3-0.1-0.4v-0.1    c0.1,0,0,0,0.1,0.1c0.2,0,0.3,0,0.4,0.2c0,0-0.1,0-0.1-0.1c0,0.1,0,0.1,0.1,0.2c0,0-0.1,0-0.1-0.1c0,0.1,0,0.1,0.1,0.2    c0,0-0.1,0-0.1-0.1v0.1c-0.2,0.1-0.3,0.3-0.4,0.6c0.3,0.3,0.5,0.6,0.8,0.9h0.6c0,0.3-0.2,0.5-0.3,0.7v0.5    c-0.1,0.2-0.1,0.1-0.1,0.5c0.4,0.3,0.5,1,0.9,1.3c0.1,0,0.1,0,0.2,0.1c0.5,0.3,4.3,2,4.4,2.1c0.5,0.2,1.6,0.2,2.2,0.2h23.7    c0.9,0,2.4,0.2,3.1-0.1c0.2-0.1,0.4-0.3,0.6-0.4c0,0,3.5-3.1,3.7-3.3c0.1-0.1,0.2-0.3,0.2-0.3c0.1-0.3,0.2-0.6,0.2-0.9    c0-0.1,0-0.3-0.1-0.4c0.1-0.1,0.2-0.1,0.3-0.2v-0.2c0.1-0.2,0.3-0.6,0.5-0.7v-0.1c-0.2-0.1-0.5-0.3-0.7-0.4h-0.3    c-0.1,0-0.1-0.2-0.2-0.2h-0.3c-0.1,0-0.2-0.1-0.3-0.2v-0.2h-0.2c0-0.1,0-0.3,0.1-0.4v-0.1c-0.4,0-0.8,0.1-1.2,0.1    c-0.1,0-0.1,0.2-0.2,0.2c-0.1,0-0.3,0-0.4-0.1v-0.3c0,0,0,0.1-0.1,0.1c-0.2,0.1-0.4,0-0.5-0.1c0,0.1,0,0-0.1,0.2    c-0.4,0-0.8-0.2-1.1-0.2c-0.2,0-0.6,0.1-0.8,0.1c-0.1,0-0.1-0.1-0.3-0.1c0-0.1,0-0.1,0.1-0.2v-0.1c-0.3,0-0.5,0.1-0.6,0.1    c-0.3-0.1-0.6-0.3-1-0.3c0-0.1,0.1-0.2,0.2-0.3c0.8,0,1.3-0.3,1.9-0.2c0.1-0.1,0.1-0.2,0.2-0.3c6.3,0,12.6-0.1,18.9-0.1    c1.4,0,3.6-0.2,4.6,0.2c0.2,0.1,0.7,0,0.8,0.1c0.3,0.1,1.5,0.1,1.6-0.1h0.1c0-0.3-0.1-0.3-0.2-0.5C63.2,11.2,63.4,10.8,63.5,10.8z     M11.5,6.1c0,0.2,0,0.2,0,0.4C11.6,6.4,11.6,6.2,11.5,6.1z"/>
	</g>
</g>
</svg>