<?xml version="1.0" encoding="utf-8"?>
<!-- Generator: Adobe Illustrator 22.0.0, SVG Export Plug-In . SVG Version: 6.00 Build 0)  -->
<svg version="1.1" id="Layer_1" xmlns="http://www.w3.org/2000/svg" xmlns:xlink="http://www.w3.org/1999/xlink" x="0px" y="0px"
	 width="46.7px" height="15px" viewBox="0 0 46.7 15" style="enable-background:new 0 0 46.7 15;" xml:space="preserve">
<style type="text/css">
	.st0{fill:#8C8C7C;}
</style>
<path class="st0" d="M0,6h0.9l0.4,0.9L1.7,6l6.4-0.4V4.7H9v0.4h8.1V4.7h-3l0.4-0.4h-1.3l0.4-2.1l3-0.9l2.1-0.4V0h0.9v0.4h2.1V0h0.9
	v0.9h0.9v0.4h2.1V0.9h0.9v0.9h1.3v0.9h1.3L30,3.4l16.7,0.4v0.9H30.9l0.4,0.4H30v0.4h3.9L36,6.4h0.4l3,1.7L39,9l-0.4-0.4L38.1,9
	l0.4,0.4l-0.4,2.1l-6,3.4h-24l-4.7-2.1l-0.9-1.3v-1.3H1.7L1.3,9H0.9L0,6z"/>
</svg>
