<!DOCTYPE svg PUBLIC "-//W3C//DTD SVG 1.1//EN" "http://www.w3.org/Graphics/SVG/1.1/DTD/svg11.dtd">
<svg xmlns="http://www.w3.org/2000/svg" xmlns:xlink="http://www.w3.org/1999/xlink" version="1.1" id="Layer_1" x="0px" y="0px" width="49" height="18" viewBox="0 0 49 18" enable-background="new 0 0 49 18" xml:space="preserve">
<style type="text/css">
      #path-1 {
        fill: #8c8c7c;
     }
    </style>

<path id="path-1" d="M5.9,6.9l8,1L15,8.8h-10v-1H4L3.8,8.2L3,8.2L2.9,7.9h-1L1.8,8.1v0.3H1.4l0,0.4L0,8.9l0,0.6l0.3,0.4l0,0.7  l0.6,0.2l0,1.1l0.3,0.9l-0.1,0.3l-0.9,0l0,0.9l1.3-0.2l0.4,1.3l2.3,1.5l2.4,0.9l2.7,0.6h21.7l2.4-1.1l2.7-1.6l0.5-0.7l0.4-1.1l0-0.4  l0.5-0.4l-1-1.1l-0.7-0.6l0-0.3l-1.3-0.3L34,10.2V9.1h-0.6l-0.1-0.2h-0.9v0.3h-0.4V8.9l-0.6,0v0l-1.1-0.2L30.8,8L30,7.9l0,0.3  l-2,0.2h-0.6H27l0-0.5h0.8L29,6.9l0.5,0l2.7,0l10-0.2L42.3,7h3.8l0.1-0.3l1.1,0.1L47.6,7l0.6,0l0-1.4l-0.7,0l-0.3,0.2L46.1,6L46,5.7  l-3.7,0l-0.2,0.4L32,5.8l-2.9-0.5l-0.3,0l-0.5-0.6l-0.5-0.7l-0.4,0l-0.4,0l0,0.4l-3-0.6l-0.3-0.5h-0.5L23,3.9l-1.3,0V3.1h-0.4V2.9  h-0.6L20.5,2l-0.9-0.3L19,1.4V0.9l1.6-0.1l3-0.1H25V0.3l-1.3-0.1l-3-0.2L16.5,0l0,0h-0.5l0,0.1h0v0.3h0v0.3h2l0,0.5l0,0.6l-0.4-0.6  l-1.4-0.1l-0.7,1.3L15,2.8l0,0.4l0,0.7h-3.9h-0.7l-1.7,0l-2.9,0L5.9,6.9z"/>
</svg>