<?xml version="1.0" encoding="UTF-8"?>
<!-- Generator: Adobe Illustrator 23.0.2, SVG Export Plug-In . SVG Version: 6.00 Build 0)  -->
<svg version="1.1" id="Layer_1" xmlns="http://www.w3.org/2000/svg" xmlns:xlink="http://www.w3.org/1999/xlink" x="0px" y="0px" width="63.2px" height="14.6px" viewBox="0 0 63.2 14.6" style="enable-background:new 0 0 63.2 14.6;" xml:space="preserve">
<style type="text/css">
	.st0{fill-rule:evenodd;clip-rule:evenodd;fill:#FAB81B;}
</style>
<path class="st0" d="M34.3,14.6l-26.2,0c0,0-5.2-2-5.8-2.2C1.8,12.2,1,10.3,2,9.8c0.1-0.3-0.1-0.2-0.1-0.2l-0.8,0l0-1.3  c0,0-1.7-0.2-0.8-1.8s2.1,0.2,2,0.5c0.2-0.3,0.2-0.3,0.2-0.3l1.4,0L5,5.7l12.9,0l0-0.9l-3.9,0l0-0.2c0,0-2-0.4-0.2-1.7  c0-0.8,0-1.4,0-1.4l1.5-0.3l1.2,0.7l-0.1,0.7c0,0,1.6-1.7,2-2.2c0.8-0.3,6.2,0.6,6.2,0.6L25,0l1,0.2c0,0-0.2,0.5,0.1,0.9  c3.4,0.6,6.6,1,6.6,1L32.8,1l1.2,0.6L37,2.1l0,0.2l7.6,0l0,0.4l16.5,0.2l0.1-0.3l2,0l0,1.1l-1.9,0l-0.1-0.2L44.7,3.8l-0.1,0.4  l-7.6,0L37,4.4l-2.9,0.1L33,4.9l-0.4-0.4l-1.1,1.2l2.6,0L37.9,7c0,0,1.5,0.9,1.6,1.4c0.2,0.5,0.3,0.4,0.3,0.4l-0.3,0.5  c0,0,0.9,0.8-0.4,2.2c-1,1.2-3.2,2.7-3.2,2.7L34.3,14.6z"/>
</svg>