<?xml version="1.0" encoding="utf-8"?>
<!-- Generator: Adobe Illustrator 25.3.1, SVG Export Plug-In . SVG Version: 6.00 Build 0)  -->
<svg version="1.1" id="Слой_1" xmlns="http://www.w3.org/2000/svg" xmlns:xlink="http://www.w3.org/1999/xlink" x="0px" y="0px"
	 width="64.5px" height="22.1px" viewBox="0 0 64.5 22.1" style="enable-background:new 0 0 64.5 22.1;" xml:space="preserve">
<style type="text/css">
	.st0{display:none;fill-rule:evenodd;clip-rule:evenodd;fill:#8C8C7C;}
	.st1{fill-rule:evenodd;clip-rule:evenodd;fill:#8C8C7C;}
</style>
<path class="st0" d="M44.5,15.8l0.4-0.4V15l-1-1v-1.2h-0.8l-0.4,0.4h-1.1v0.2l-2.8-1.6h-5.5v-0.1h1.8l-0.6-0.6h1.6l1.4-0.1v-0.2
	l21.7-0.2v0.2h0.5v0.1h3.2v-0.3h8.3v0.2h4.3V9.5h-4.3v0.1h-8.3V9.2h-3.2v0.2h-0.5v0.3L37.5,9.4V9.2l-1.3-0.1h-0.6c0,0,0-0.3,0-0.4
	c0-0.1-0.1-0.2-0.2-0.2c-0.1-0.1-0.5-0.1-0.6-0.1s-0.2,0.1-0.2,0.2c0,0.1,0,0.4,0,0.4h0.3c0,0,0-0.2,0-0.3L35,8.6c0.1,0,0.2,0,0.3,0
	l0.1,0.1c0,0.1,0,0.3,0,0.3h-1.7V8.8h-0.2l-0.4-0.4l-0.8-0.2l-3.9-0.4V7.5l-0.2-0.2H28V5.6c0,0-0.6,0-0.8,0c-0.1,0-0.3,0-0.4,0.1
	c-0.1,0-0.3,0.3-0.3,0.3v1.1h0.6v0.1h-0.6v0.4h-0.3V7.1H26V6.9h-0.3v0.4h-0.1V7.1h-4.2v0.4h-7.3l-0.2-2.1v2.1h-0.4v0.2h-0.4v0.6
	c0,0,0-0.2-0.1-0.2C13,8,12.8,8,12.8,8h-0.1v0.1h0.1l0.1,0.1C13,8.2,13,8.4,13,8.4h0.1v1.3H13c0,0-0.1,0.2-0.1,0.3s-0.2,0.1-0.2,0.1
	v0.1c0,0,0.1,0,0.2-0.1c0.1,0,0.2-0.2,0.2-0.2v0.5l5,1.4h0.8v0.1h-4.2v-0.1h-0.8v-0.2h-0.4v0.2H9.8v-0.2H9.5v0.1h0.1v0.1H6.9
	l-0.3,0.1v-0.3H6.2v0.1H5.4l-0.1,0.1v0.4H5.1V12H2.6v1.3H2.5v0.1c0,0-0.3,0-0.4,0.1c-0.1,0.1-0.3,0.3-0.4,0.4c0,0.1-0.1,0.2-0.1,0.2
	l-0.3,0.3v0.1l0.2,1.7v0.1H1.3V18h0.4c0,0,0.3,0.6,0.5,0.7c0.3,0.3,1,0.6,1.4,0.7c0.7,0.3,2.4,1,3.4,1.5c0.5,0.2,1.1,0.3,1.7,0.3
	h28.2c0.7,0,1.3-0.1,2-0.3c1.3-0.5,3.6-1.3,4.6-1.8c0.1-0.1,0.3-0.2,0.4-0.3c0.1-0.1,0.4-0.4,0.5-0.6s0.3-0.6,0.4-0.8
	c0-0.2,0.1-0.5,0.1-0.6c0-0.2-0.1-0.5-0.1-0.7C44.6,16.1,44.5,15.8,44.5,15.8z"/>
<path class="st0" d="M9,21.7h25.5c0,0,0.2,0,0.3-0.1c1.3-0.4,4-1.3,5.2-1.9c0.1-0.1,0.4-0.3,0.5-0.4s0.3-0.3,0.4-0.4
	c0.1-0.1,0.2-0.3,0.3-0.4c0.1-0.2,0.2-0.7,0.3-0.9c0-0.1,0.2-0.3,0.3-0.4c0-0.1,0.2-0.1,0.2-0.2c0.1-0.1,0.2-0.3,0.2-0.4
	s0.1-0.2,0.1-0.3s-0.1-0.4-0.1-0.4l0.3,0.3l0.1-0.1h0.2l-0.2-0.4l0.4,0.4h0.2l0.1-0.1l0.1-0.1l0.1-0.2l0.2-0.2l0.1-0.2L43.7,15
	l-0.1-0.2L43,15.2v0.2v0.2h-0.1h-0.1l-0.4-0.4l-0.1-0.1v-0.9H42v-0.1h0.2v-0.2h-0.6L41.5,14l0.1,0.1l0.1,0.2c0,0-0.1,0.1-0.2,0.1
	c-0.1,0-0.3-0.1-0.4-0.2c-0.1,0-0.2-0.1-0.2-0.2c-0.1-0.1-0.2-0.2-0.3-0.2s-0.2,0-0.3-0.1c-0.1,0-0.5-0.1-0.5-0.1l-0.1-0.2l-0.1-0.3
	h-0.3L39.2,13h-0.3v0.4H39l-0.1,0.2l-0.7-0.1l-0.4,0.1c0,0-0.2-0.1-0.2-0.2c0,0-0.1-0.1-0.2-0.2c0-0.1-0.1-0.2-0.1-0.3
	s0-0.2,0.1-0.2c0,0,0.1-0.1,0.2-0.1c0.1,0,0.2-0.1,0.3-0.1s0.1,0.2,0.2,0.3h0.2l0.4-0.1l0.5-0.1c0,0,0.4-0.1,0.5-0.1
	s0.2-0.1,0.3-0.2s0.2-0.3,0.2-0.3l0.1-0.1l0.1-0.1v-0.1l8.8-0.1v0.3h5.7v-0.2h0.2l0.1-0.2h7.1l10.3,0.1v0.3h0.9v-0.1h3.8v-1.4h-3.9
	v-0.1h-0.8v0.4l-17.8-0.1l-0.1-0.2h-0.2v-0.2h-5.7v0.3L40,10.4v-0.1v-0.1c0,0,0-0.2-0.1-0.3c0-0.1-0.2-0.1-0.2-0.2
	c0,0-0.1-0.2-0.2-0.2c-0.1-0.1-0.4-0.1-0.4-0.1V9.1h-0.7L38,8.9h-1v0.5l-0.8-0.3l-0.8-0.3l-0.5-0.2l-1.1-0.2h-2V7.7h-0.7l0-0.1h-0.2
	l-0.1-0.1h-0.4h-2l0.1-0.1V7.3l-0.3-0.1V6.9l-0.3-1.3h-0.4L27,5.8l-0.1,0.1v1.3H24v0.4l-0.1,0v0.1h-0.1l-0.2-0.2h-0.3l-0.8-0.8l0,0
	h0.3V6.6h2.4h0.1V6.5h0.3V6.4h-0.3V6.3h-0.4h-2.2l-0.1-0.2H22v0.1l0,0l-0.2-0.3l-0.1-0.1l-0.1-0.1h-0.2h-0.1V0.4h-0.1v5.3h-0.1
	L21,6.1v0.1l-1.4,0.1v0.3h0.2v0.3h1.6v1h-0.1V7.7l-0.1-0.1h-0.4l-0.1,0.1l-0.2,0.7v0.4L20.4,9h-0.3v0.8h0.2V10h-0.1v0.3h0.1v0.2
	l1.9,0.4V11l-1.9-0.4h-0.4v-0.3h-0.5l-0.5,0.1H18l-0.1-0.2h-0.7v0.2H17l0-0.2h-0.6L15.6,10V9.9l-0.2-0.1l-2.9-0.1l-0.2,0.2v0.2
	l-0.7,0.1l-0.2,0.2l-0.2-0.7H8.7V9.6H8.6H8.5L8.4,9.7H6.6v0.7H5.8l-0.3,0.5v-0.2l-0.2-0.1l0,0l-0.1,0.2H5.1c0,0-0.1-0.1-0.2-0.1
	c0,0-0.1,0-0.1-0.1c0,0-0.1,0-0.2,0c0,0-0.1,0-0.2,0.1c0,0,0,0.1-0.1,0.1c0,0,0,0.1-0.1,0.2c0,0,0,0.1,0,0.2c0,0.3,0.2,1.2,0.2,1.2
	l-0.1,0.1h0.1L3.7,12l0,0l-1.5,2.2l0.6,0.4l-0.7,0.9L2,15.8l0,0.3v0.8v0.2l-0.2,0.2v0.1v0.2H2l0.2,0.2h0.6l0-0.2h0.1v0.1H2.7V18h0.2
	v0.4H2.7v0.2h0.6l0.4,0.5l0.2,0.2l0.5,0.3L5,19.9l0.4,0.2L6,20.4l0.5,0.3c0,0,0.3,0.2,0.4,0.2C7,21,7.3,21.1,7.4,21.2
	c0.1,0,0.2,0.1,0.3,0.2c0.1,0.1,0.4,0.2,0.6,0.3c0.1,0,0.3,0.1,0.4,0.1C8.6,21.6,9,21.7,9,21.7L9,21.7z"/>
<g>
	<g>
		<path class="st1" d="M63.9,10.5c-0.1-0.2-0.7-0.7-0.7-0.7l-0.1,0.8l-0.6-0.3h-0.1v0.2h-0.4v-0.1l-1.3-0.1h-4.9v0.2
			c0,0-15.9-0.1-16.6-0.1c-0.1-0.1-0.2-0.6-0.3-0.7c-0.2-0.4-0.5-0.1-0.6-0.7c-0.9,0-1.2-0.2-2.2-0.2c0,0.2,0,0.3,0,0.5
			c-0.7-0.2-1.3-0.5-1.9-0.7c-0.3-0.1-0.8,0-1.1-0.2c-0.4,0-1.9,0.1-2.1-0.1c-0.1-0.1,0-0.5-0.1-0.5c-0.1-0.3-0.5,0-0.8-0.1
			c0,0,0-0.1-0.1-0.1c-0.1,0-0.1,0-0.2,0c0,0,0-0.1,0-0.1c-0.4,0-0.7,0-1.1,0.1c0-0.1,0-0.1-0.1-0.2c-0.1-0.1-0.1,0.1-0.1,0.1
			c-0.1,0-0.2,0-0.2,0.1c-0.4,0-0.7,0-1.1,0c0-0.1,0.1-0.1,0.1-0.2c-0.1-0.1-0.2-0.1-0.3-0.1c0-0.6-0.3-1.1-0.2-1.6c0,0-0.1,0-0.1,0
			c-0.2-0.1-0.6,0.1-0.9,0.1C26,6,26,6.5,26,7c-1,0-1.9,0-2.9,0c0,0.1,0,0.3,0,0.4c-0.1,0-0.1,0-0.2,0.1c-0.2,0-0.2-0.1-0.3-0.2
			c-0.1,0-0.2,0-0.4,0c-0.2-0.1-0.5-0.6-0.7-0.7c0.4-0.3,2.5-0.2,3-0.2c0-0.1,0-0.2,0-0.2c-0.3,0.1-0.7-0.1-1.1-0.1c0,0,0,0.1,0,0.1
			c-0.2,0.1-0.5-0.1-0.5-0.1c-0.2,0-0.7,0.1-1,0.1c-0.4-0.1-0.5-0.1-1-0.1c-0.1,0-0.4-0.4-0.5-0.4c-0.1-0.1,0-5.6-0.1-5.6
			c-0.2,0.1,0.3,5.6-0.3,6.1c-0.5,0-0.9,0-1.4,0.1c0,0.3,0.1,0.3,0.1,0.6c0,0,0,0,0.1,0c0,0,0,0,0,0.1c0.3,0,0.6,0,0.9-0.1
			c0.2,0.1,0.3,0.1,0.5,0.1c0,0,0,0,0,0.1c0,0,0,0,0.1,0c0,0.3,0,0.5,0,0.8c-0.1-0.1-0.1,0-0.1-0.1c-0.1,0-0.2,0-0.4,0
			c-0.1,0.4-0.1,1-0.4,1.3c-0.1,0-0.1,0-0.2,0.1c-0.1,0.2,0.2,1.1,0.2,1.4c0.4,0,1.7,0.2,1.9,0.4c-0.9-0.2-1.8-0.4-2.6-0.5
			c-0.1,0-0.5,0.1-0.5,0.1c-0.5,0.1-1.7-0.1-1.9-0.2c0,0.1,0,0,0,0.2c-0.1,0-0.2-0.1-0.2-0.1c-0.1,0-0.3,0.1-0.5,0.1
			c-0.2-0.1-0.5-0.2-0.8-0.2c0-0.1,0-0.1,0-0.2c-0.9-0.1-2.2-0.2-2.8-0.1c-0.1,0-0.3,0-0.4,0c-0.1,0-0.1,0.2-0.2,0.3
			c-0.3,0.2-0.6-0.1-0.7,0.2c-0.2-0.1-0.2-0.4-0.4-0.6C10,9.5,8.8,9.6,8.2,9.6c-0.1,0-0.3,0-0.4,0c0,0,0-0.2-0.1-0.2
			C7.5,9.5,7.6,9.6,7.4,9.6C6.9,9.6,5.9,9.7,5.7,9.5c0,0-0.1,0-0.1,0c0,0.2,0,0.5,0,0.7c-0.6,0-0.8,0.1-0.9,0.5
			c-0.1-0.1-0.1-0.1-0.2-0.2c-0.3,0-0.3,0.2-0.5,0c-0.3,0-0.3,0-0.5,0.1c0,0.3,0.2,1.3,0.1,1.5c0,0,0,0.1,0,0.1
			C3.3,12.2,3,12,2.9,11.8c-0.3,0.1-0.3,0.3-0.5,0.5c-0.2,0.3-0.5,0.7-0.7,1c0,0.1-0.1,0.2-0.1,0.2c0,0,0,0.1,0.1,0.1
			c-0.1,0-0.2,0.1-0.2,0.1c-0.1,0.1,0,0.1-0.1,0.2c0.1,0.2,0.4,0.3,0.6,0.4c-0.2,0.3-0.6,0.6-0.8,1.1c0,0.4,0,0.8-0.1,1.2
			c0,0-0.1,0.2-0.1,0.3c0,0-0.1,0-0.1,0c-0.1,0.1,0.1,0.2,0,0.2c0.1,0.3,0.8,0.4,1.1,0.2c0,0,0,0,0.1,0c0,0,0,0.1,0,0.1
			c-0.1,0-0.1,0-0.2,0c0,0.1,0,0.2,0,0.2c0,0,0.1,0,0.1,0c0.1,0.2-0.1,0.5-0.1,0.6c0.8,0,0.9,0.5,1.3,0.9c0.2-0.1,3.8,1.9,4.6,2.1
			c0.7,0.2,1.9,0.2,2.7,0.2c1.8,0,3.6,0,5.4,0c3.9,0,7.9,0,11.8,0c2,0,6.1,0,6.1,0s2.2-0.6,3.1-1c1.2-0.5,2.7-0.7,3.3-1.8
			c0.2-0.3,0.3-0.6,0.4-0.9c0-0.1,0-0.2,0-0.4c0.1-0.1,0.2-0.1,0.2-0.2c0.3-0.3,0.6-0.8,0.4-1.4c0.1,0.1,0.1,0.1,0.2,0.2
			c0.1,0,0.2,0,0.2-0.1c0-0.1,0-0.1-0.1-0.2c0,0,0-0.1,0-0.1c0.1,0.1,0.2,0.2,0.3,0.3c0.6,0,0.4-0.3,0.7-0.5c0-0.2,0-0.3-0.1-0.4
			c0-0.1,0-0.1-0.1-0.2c-0.1,0-0.1,0-0.2,0c0,0.2,0.1,0.3,0,0.4c-0.2,0.1-0.4-0.3-0.6-0.4c0-0.4,0-0.8,0-1.1c0,0,0,0-0.1,0
			c0,0,0,0,0-0.1c-0.2,0-0.4,0-0.5,0.1c-0.1,0.1,0,0.1,0,0.3c-0.1,0-0.1,0-0.1,0.1c-0.1-0.1,0,0,0-0.2c-0.1,0-0.2,0-0.4,0.1
			c-0.1,0-0.2-0.2-0.2-0.2c-0.3-0.2-0.7-0.3-1.1-0.3c-0.1-0.2-0.2-0.3-0.2-0.5c-0.1,0-0.2,0-0.3-0.1c-0.4,0-0.4,0.2-0.5,0.5
			c-1,0-1.7-0.1-2.5-0.4c-0.3-0.1-0.7,0-0.9-0.2c0,0,0,0-0.1,0c0,0,0,0,0-0.1c0.4,0.1,1.8,0.2,2,0.4c0.1,0,0.2,0,0.4,0
			c-0.1-0.2-0.3-0.3-0.4-0.4c0-0.4,0.2-0.5,0.5-0.6c0.1,0.1,0.1,0.2,0.2,0.3c0.3,0,1.4-0.2,1.6-0.4c0.2-0.1,0.4-0.4,0.5-0.6
			c0.1-0.1,0-0.1,0.1-0.2c5.5,0,16.6-0.1,16.6-0.1v0.2h4.9l1.3-0.1v-0.1h0.4v0.2l0.6-0.2l0.1,0.8c0,0,0.6-0.5,0.7-0.7
			C63.9,11.3,64,10.7,63.9,10.5z M20.1,7.8c0,0,0-0.1,0-0.1C20.2,7.8,20.1,7.7,20.1,7.8C20.1,7.8,20.1,7.8,20.1,7.8z M20.6,7.5
			C20.5,7.5,20.5,7.5,20.6,7.5c-0.1-0.2-0.1-0.4-0.1-0.6c0.1,0.1,0.2,0.3,0.4,0.4C20.8,7.4,20.7,7.4,20.6,7.5z M1.4,16.2
			c0,0,0,0.1,0,0.1c0,0,0,0-0.1,0c0-0.2,0-0.5,0.1-0.7c0.1,0,0.1,0.1,0.2,0.1C1.6,16,1.6,16.1,1.4,16.2z M3.9,11
			c-0.2,0-0.2,0-0.3-0.1c0-0.1,0-0.1,0.1-0.2c0.2,0,0.2,0,0.3,0.1C4,10.9,3.9,10.9,3.9,11z M30.1,7.7c0.1,0.1,0,0,0.1,0.1
			C30,7.8,30.1,7.8,30.1,7.7z M38.6,13.5c0.2,0,0.2,0,0.3,0.1c0,0.1,0,0.1-0.1,0.1c-0.1,0.1,0,0-0.1,0.1c-0.1-0.1,0,0-0.1-0.1
			C38.6,13.6,38.6,13.6,38.6,13.5z M62.4,11.2h-0.4l0.1-0.3h0.3V11.2z"/>
	</g>
</g>
</svg>
