<!DOCTYPE svg PUBLIC "-//W3C//DTD SVG 1.1//EN" "http://www.w3.org/Graphics/SVG/1.1/DTD/svg11.dtd">
<svg xmlns="http://www.w3.org/2000/svg" xmlns:xlink="http://www.w3.org/1999/xlink" version="1.1" id="Layer_1" x="0px" y="0px" width="34" height="15" viewBox="0 0 34 15" enable-background="new 0 0 34 15" xml:space="preserve">
<style type="text/css">
      #path-1 {
        fill: #8c8c7c;
     }
    </style>

<path id="path-1" d="M19.1,0.5c0,0.1,0,0.2,0,0.3c0,0-0.1,0-0.1,0c0,0.1,0.1,0.1,0.1,0.2c0.2,0,0.6,0.1,0.8,0.1c0-0.1,0.1,0,0.1-0.2  c0.1,0,0.2,0,0.3,0c0,0.2,0.1,0.1,0.2,0.3c0.8,0.2,1.7,0.8,2.5,0.9c0,0.1,0,0.2,0,0.2c0.1,0.1,0.1,0.2,0.2,0.3  c0.1,0.1,0,0.4,0.1,0.4c1.8,0,1.9,0.2,5.9,0.3c0,0.2,0,0.3,0,0.6c-0.8,0-2.6,0-2.9,0c-0.7,0,0.5,0.6-0.2,0.6c0,0.1,0,0.1,0,0.2  c-0.7,0-1.9,0-2.7,0c-0.1,0.2-0.2,0-0.2,0.3c0.1,0.1,0.1,0.1,0.1,0.3c-0.1,0-0.1,0-0.2,0c0,0,0,0,0,0c0,0.1,0.1,0.5,0.1,0.6  c0.2,0,0.8,0,1,0c0.3,0.1,0.7,0.1,1,0.1c0,0.1,0,0.2,0.1,0.2c0.2,0,0.2,0,0.3,0.1c0,0.1,0,0.1,0,0.2c0,0-0.1,0-0.2,0.1  c0.1,0.1,0.3,0.3,0.3,0.3c0.6,0,1.2,0,1.8,0C27.5,7,28,6.9,28.1,7c0,0.1,0,0.9,0,0.9c0.8,0,1.4,0,2.1,0c0,0,0,0,0-0.1  c0.1,0,0.1,0,0.2,0c0-0.2-0.2-0.8-0.2-1c0-0.1,0-0.4,0-0.5c0-0.2,0.6-0.4,0.9-0.5c0,0,0,0,0.1,0c0,0.4,0,0.6,0,1  C31.1,7.2,31,7.7,31,7.9c0.1,0,0.2,0,0.4,0c0.3,0.2,0.8,0,0.9,0.3c-0.2,0.2,0,0,0,0.3c0.6,0.4,1,1.4,0.7,2.1c0,0.1-0.1,0.3-0.1,0.4  c-0.1,0.1-0.2,0.2-0.3,0.3c-0.4,0.4-0.7,0.7-1.2,1c-0.7,0.5-1.3,1.2-2.1,1.7c-0.2,0.1-0.4,0.4-0.6,0.5c-0.6,0.4-1.9,0.3-2.8,0.3  c-2.1,0-4.1,0-6.2,0c-4.4,0-8.8,0-13.3,0c-1.1-0.3-2-0.9-2.9-1.3c-0.5-0.2-0.9-0.4-1.3-0.6c-0.2-0.1-0.3-0.1-0.5-0.2  c-0.2-0.2-0.3-0.3-0.5-0.5c-0.1-0.1-0.2-0.2-0.3-0.3c0-0.1-0.6-0.4-0.6-0.4c0-0.2,0-1.1,0.1-1.3c0-0.1,0-0.2,0-0.3  C0.4,9.7,1,10,1,9.6c0-0.1,0-0.6,0-0.7c-0.2-0.1-1,0.2-1-0.5c0-0.6,0.8-0.2,0.9-0.3c0.1,0,0.2,0,0.3-0.1c0,0,0,0-0.1,0  C1.1,7.9,1,7.9,0.8,7.9c0-0.1,0.3,0.1,0.3,0c0.2,0-0.2-0.2,0-0.2C1.1,7.4,1,7.2,1,7c0.3,0,0.9,0,1.1-0.1c0.3,0,0.6,0,0.9,0  c1.8,0,4.2-0.4,5.4-0.6c1.6-0.2,2-0.3,3.5-0.4c0.1,0,0.2,0,0.3,0c0.2,0,0.4,0.1,0.6,0.1c0,0,0-0.1,0-0.1c0.1,0,0.3,0,0.4,0  c0-0.2,0-0.9,0-1c-1.1,0-1.8,0-2.9,0c0-0.2,0-0.3,0-0.5c0,0-0.1,0-0.1,0c0-0.2,0,0,0-0.2c0,0,0,0-0.1,0C10,4,10.1,3.8,10.1,3.6  c0-0.2,0-0.3-0.1-0.5c-0.1-0.2,0.1-0.6,0.1-0.9c0,0,0.1,0,0.1,0c0-0.1,0-0.2,0-0.2c0,0,0,0,0.1,0c0.3-0.2,0.8-0.2,1.2-0.3  c0.8-0.2,1.7-0.2,2.6-0.5c0.5-0.1,1.6-0.4,2.1-0.4c0-0.1,0-0.1,0-0.2c0,0-0.1,0-0.1,0c0-0.1,0.2-0.2,0.2-0.3c-0.1,0-0.1,0-0.2,0  c0,0,0,0,0,0c0.1-0.1,0.1-0.1,0.1-0.2C16.9-0.1,17.5,0,18.5,0c0.4,0,0.6-0.1,0.7,0.3c0,0,0,0.1,0.1,0.2C19.2,0.5,19.2,0.5,19.1,0.5z  "/>
</svg>