<?xml version="1.0" encoding="utf-8"?>
<!-- Generator: Adobe Illustrator 22.0.0, SVG Export Plug-In . SVG Version: 6.00 Build 0)  -->
<svg version="1.1" id="Layer_1" xmlns="http://www.w3.org/2000/svg" xmlns:xlink="http://www.w3.org/1999/xlink" x="0px" y="0px"
	 width="21.8px" height="13px" viewBox="0 0 21.8 13" style="enable-background:new 0 0 21.8 13;" xml:space="preserve">
<style type="text/css">
	.st0{fill:#8C8C7C;}
</style>
<path class="st0" d="M0.4,7.1h0.8V5.9L3.8,5h0.8V4.6H5V5h1.7V4.6h0.4V5h1.3V4.2l0,0l0.8-3.4h1.3V0h0.8v0.8l3.8,0.4l0.8,0.8H18h3.4
	v0.8h-2.9v0.4h-2.5l-0.8,0.8v0.4l0,0l0.4,1.3v0.8h1.3V5.9h0.8v0.8H21v0.4l0.8,1.3l-0.4,1.7L16.8,13H1.7l-1.3-0.8L0,10.9l0.4-1.3
	l0.8-0.4V8.8H0.4V8.4h1.3V7.5L0.4,7.1L0.4,7.1z"/>
</svg>
