<svg xmlns="http://www.w3.org/2000/svg" xmlns:xlink="http://www.w3.org/1999/xlink" preserveAspectRatio="xMidYMid" width="54" height="18" viewBox="0 0 54 18">
  <defs>
    <style>
      .cls-1 {
        fill: #8c8c7c;
        fill-rule: evenodd;
      }
    </style>
  </defs>
  <path d="M6.000,18.000 L33.000,18.000 C33.000,18.000 35.991,14.900 37.000,14.000 C38.009,13.100 38.231,12.140 38.000,11.000 C37.769,9.860 35.533,8.075 35.000,7.535 C34.467,6.995 28.000,7.289 28.000,7.289 L28.000,6.903 L32.000,6.878 L33.000,6.878 L54.000,6.903 L54.000,5.000 L31.000,5.000 L30.000,3.626 L25.000,2.626 L23.000,2.626 L22.676,3.072 L22.416,3.491 L22.101,2.513 L28.152,2.417 L28.000,1.000 L22.000,1.000 L22.000,-0.000 L21.000,-0.000 L21.000,1.000 L20.000,1.000 L20.000,2.000 L21.000,2.000 L20.676,2.584 L19.017,2.277 L16.000,1.000 L16.000,-0.000 L15.000,-0.000 L15.000,3.000 L11.000,5.000 L11.000,7.000 L16.000,7.000 L16.000,7.000 L15.906,7.004 L3.000,7.254 L-0.000,10.000 L-0.000,14.000 L4.000,17.000 L6.000,18.000 Z" class="cls-1"/>
</svg>
