<svg xmlns="http://www.w3.org/2000/svg" width="35" height="14" viewBox="0 0 35 14">
  <path fill="#8C8C7C" fill-rule="evenodd" d="M1.55556599,5.07702637 L15.4645015,5.09106445 L15.4645015,5.09106445 C15.4645015,4.54390344 15.0171679,4.10310336 14.4557757,4.10656906 L12.7555172,4.11706543 L11.6185543,2.15612793 L10.0484859,2.12255859 L9.5024654,1.0994873 L15.4820797,1.12634277 L15.5691158,0 L19.4854976,0.146972656 L19.5727779,0.998779297 L21.5921871,0.991455078 L22.0648433,0.0822753906 L22.5708248,1.1192627 L24.588525,1.11071777 L24.8854,2.12255859 L32.5224849,2.12683105 L32.4980709,3.11279297 L25.5309078,3.09838867 L24.4940425,4.09387207 L23.5383541,4.11206055 L23.5383541,5.05102539 L27.5270015,5.14050293 L28.5100338,5.99914551 L29.9651119,6.0970459 L31.4608394,5.0916748 L31.4383785,6.0970459 L33.5672847,6.15551758 L34.4776851,7.10119629 L34.1720828,8.27602541 C33.8944231,9.34343433 32.9597651,10.7483738 32.0734711,11.4224069 L31.3965476,11.9372123 C30.515176,12.6075018 28.9012347,13.1508789 27.7992517,13.1508789 L6.3478752,13.1508789 C5.79319058,13.1508789 4.96797291,12.8984413 4.51635932,12.5948808 L3.76713593,12.0912764 C3.31030226,11.7842071 2.69780842,11.1470757 2.41527223,10.6941409 L1.39016071,9.05078125 L1.72719685,7.75317383 L0.386093844,7.04091126 C-0.0979430327,6.78383828 -0.13396414,6.31443581 0.318260784,5.98322693 L1.55556599,5.07702637 Z"/>
</svg>
