<?xml version="1.0" encoding="utf-8"?>
<!-- Generator: Adobe Illustrator 25.3.1, SVG Export Plug-In . SVG Version: 6.00 Build 0)  -->
<svg version="1.1" id="Layer_1" xmlns="http://www.w3.org/2000/svg" xmlns:xlink="http://www.w3.org/1999/xlink" x="0px" y="0px"
	 width="36px" height="16.4px" viewBox="0 0 36 16.4" style="enable-background:new 0 0 36 16.4;" xml:space="preserve">
<style type="text/css">
	.st0{display:none;fill-rule:evenodd;clip-rule:evenodd;fill:#8C8C7C;}
	.st1{display:none;}
	.st2{display:inline;}
	.st3{fill-rule:evenodd;clip-rule:evenodd;fill:#FAB81B;}
</style>
<path class="st0" d="M3.1,14.3c0.9,0.7,2.4,1.2,3.6,1.2l22.1,0c1.1,0,2.7-0.6,3.5-1.4l3.5-3.3l0.5-1.4l-1-1l-4,0l-1-1l0,1l-1,0
	l-0.9-1l-2.3,0l-0.3-1l1.5-0.3l0.1-0.7l14.9,0l0-1l-14.9,0l-1.1-1l-2.9,0.1l-0.5-1.1l-2.5,0l-0.1-1l-4.9,0.1l0,1l-3.7,0l-0.1-4h-0.3
	v5l-1,0.9l0,1.1l2,1l2.1,0.1l-0.6,0.9L3.4,7.5L0.2,8.5v1.7l0.9,1.5c0.6,0.9,1.7,2.3,2.6,3L3.1,14.3z"/>
<g class="st1">
	<g class="st2">
		<path class="st3" d="M34.3,9.2c0.1-0.2,0.2-0.2,0.4-0.3c0.2-0.2,0.4-0.4,0.6-0.6c0-0.1,0-0.1,0-0.2c-0.1,0-0.3,0-0.4,0
			c-0.7,0-1,0-1.2-0.4h-0.2c0-0.4,0.1-0.9,0-1.2c-0.2,0-0.8,0.1-1,0c-0.1-0.1,0-0.2,0.1-0.2c0-0.1,0-0.2,0-0.2
			c-0.4,0-1.3-0.1-1.4,0.2h0C31,6.2,30.9,6.1,30.8,6c-1.2,0-2.2,0-3.4,0c0-0.1,0-0.2,0-0.3c0.1,0,0.1,0,0.1-0.1h1.9
			c0-0.5,0.3-0.4,0.5-0.7c0.2-0.3,0.3-0.5,0.5-0.9c0.3,0,1.8,0,1.9-0.1c0-0.1,0,0,0-0.1h2.7v-1h-2.7V2.7c-0.2,0-1.3,0-1.4-0.1h-0.7
			c0,0-0.1-0.4-0.2-0.5c-0.1-0.1-0.4-0.5-0.5-0.5c-0.3-0.2-0.8-0.3-1.4-0.3c0,0.1,0,0.2,0,0.2v0c-0.2,0-0.9,0.2-1,0.1
			c0,0,0-0.1,0-0.1c-0.2,0-0.3,0-0.5,0c-0.3-0.1-0.7-0.1-1-0.2c-0.4-0.1-0.9-0.3-1.3-0.4c-0.1,0-0.2,0-0.4,0
			c-0.3-0.1-0.8-0.3-1.2-0.3c0-0.1,0-0.3-0.1-0.4C22.4,0,21.4,0,21,0.1c-0.3,0.1-0.3-0.1-0.5,0c-0.1,0-0.5,0.1-0.6,0.1
			c0,0,0,0.1,0,0.1c0,0-0.1-0.1-0.2,0c-0.1,0-0.3,0.1-0.3,0.1c-0.1,0-0.2,0-0.2,0c-0.1,0-0.6,0.1-0.7,0.1c0,0-0.1,0.1-0.1,0.1
			c-0.3,0.1-0.7,0-0.9,0.1c-0.2,0-0.1,0.1-0.2,0.1c0,0.2,0.1,0.3,0.1,0.4h-0.1v0.3c0,0.1-0.2,0.2-0.2,0.3c0,0.2,0.1,0.1,0,0.3
			c-0.1,0.1-0.3,0-0.5,0.1c-0.4,0.1-1,0.3-1.5,0.3c0-0.1,0-0.2,0-0.3V2.2h0.2c0-0.3,0-0.2-0.1-0.3c0.6-0.6,1-0.9,1.5-1.5
			c0-0.4-0.3-0.5-0.5-0.7c-0.3-0.3-0.8-0.8-0.8-0.8c-0.2-0.2-0.4-0.4-0.6-0.7h-0.1v-2.4h-0.2v2.4c-0.1,0-0.5,0.4-0.6,0.5
			c-0.3,0.3-0.7,0.6-1,1c-0.2,0.2-0.3,0.4-0.5,0.5c0,0.3,0.2,0.3,0.4,0.5C12.8,0.8,13,1,13.2,1.2c0.1,0.1,0.2,0.2,0.3,0.2
			c0.1,0.2,0.2,0.3,0.4,0.5c-0.1,0.1-0.1,0.1-0.1,0.3H14v0.2h-0.3v0.8c0.3,0,0.5,0.1,0.8,0.1c0,0,0,0,0,0c0,0.2-0.2,0.3-0.2,0.5
			c-0.2,0.6,0.6,1.4,0.8,1.9h1.7c0,0.1,0,0.2,0,0.2h-2.9c-0.4,0-1,0.1-1.4,0V5.7h-0.2c0,0.1,0,0.2,0,0.3v0h-1.4V5.9
			c-0.2,0-0.2,0-0.3-0.2H9.7c0,0-0.1,0.2-0.1,0.2H9.5V6H8.2c0-0.2-0.1-0.2-0.1-0.3c-0.2,0-0.7-0.1-0.8,0H7.2V6C6.8,6,6.3,6,6,6
			c0,0.2-0.1,0.2-0.1,0.3C5.6,6.3,5.2,6.1,5,6.2c0,0,0,0.1,0,0.1c-0.2,0-0.5,0-0.7,0C4,6.3,3.6,6.4,3.2,6.4c0,0.3,0,0.7,0,1.1
			c-0.1,0-0.3,0-0.3,0h0V8c0,0-0.2,0.1-0.2,0.1c-0.1,0.1,0,0.1-0.1,0.2C2.2,8.3,2.1,8.3,2,8.4C1.8,8.5,1.7,8.7,1.6,8.9
			c-0.1,0,0,0-0.1,0c0,0.3-0.2,0.3-0.4,0.4v0.1H0.9V8.6H0.6c0,0.6,0,1.2,0,1.8c0,0.1-0.2,0.2-0.2,0.4c0,0.1,0.2,0.2,0.2,0.2
			c0,0.1,0,0.2,0,0.3c0,0.2,0.1,0.4,0.1,0.7h0.3c0-0.1,0-0.2,0-0.4h0c0,0.1,0.3,0.3,0.3,0.3v0.3c0.4,0.1,0.3,0.3,0.5,0.6
			c0.1,0,0.1,0.1,0.2,0.1c0.1,0.1,0.2,0.2,0.3,0.4c0.1,0.1,0.2,0.1,0.4,0.2c0,0,0,0.1,0,0.1h0.1c0,0,0,0.1,0,0.1c0.1,0,0.2,0,0.3,0
			c0.2,0.1,0.5,0.3,0.7,0.4c0.1,0.1,0.2,0,0.4,0.1c1.1,0.5,2.2,1,3.4,1.4c0.4,0.1,1.1,0,1.6,0h21.4c1.1-0.4,2-1.2,2.8-2
			c0.1-0.1,0.4-0.3,0.4-0.4c0.4-0.4,1-0.7,1.3-1.2C35.8,11,35.2,9.3,34.3,9.2z M14.4,1.2c0,0.1-0.1,0.3-0.1,0.3h0.1
			c0,0.2,0,0.3,0,0.4c-0.3,0-0.3-0.2-0.5-0.4c-0.3-0.3-0.9-0.8-1.1-1.1c0,0,0,0,0,0c0.4-0.1,1.2-0.1,1.7,0
			C14.4,0.6,14.4,0.9,14.4,1.2z M14.4,0.2c-0.3,0-1.4,0-1.7,0c0,0,0,0,0,0c0.5-0.5,1.1-1.2,1.7-1.7C14.4-1.1,14.4-0.3,14.4,0.2z
			 M14.6-1.6c0.3,0.2,0.5,0.5,0.8,0.7c0.2,0.2,0.5,0.4,0.7,0.6c0.1,0.1,0.1,0.2,0.3,0.3c0,0,0,0.1,0,0.1h-1.7V-1.6z M14.9,1.9
			c-0.1,0-0.1,0-0.2,0h-0.1V1.5h0.1c0-0.1,0-0.1,0-0.2h-0.1v-1c0.5,0,1.8,0,1.8,0S15.4,1.4,14.9,1.9z M31.7,6.7L31.7,6.7l0-0.5
			c-0.2,0-0.3,0-0.4,0.2h0c0-0.1,0.1-0.1,0.1-0.2h0.6c0,0,0,0.1,0.1,0.1C31.9,6.6,31.8,6.6,31.7,6.7z M32.2,6.3
			C32.2,6.3,32.2,6.3,32.2,6.3C32.2,6.3,32.3,6.2,32.2,6.3C32.2,6.3,32.2,6.3,32.2,6.3z M33.2,8.2c-0.1,0-0.1,0-0.2,0
			c-0.3,0-0.3-0.1-0.4-0.3c0.1-0.1,0.2-0.1,0.4-0.1c0.1-0.3,0.1-0.7,0.1-1h0.1C33.2,7.2,33.3,7.8,33.2,8.2z M33.5,8.1
			c-0.1,0.1,0-0.1,0-0.1C33.5,8,33.5,7.9,33.5,8.1z"/>
	</g>
</g>
<g>
	<g>
		<path class="st3" d="M35.6,10.2c0-0.1-0.1-0.2-0.1-0.4V9.6h-0.1c0,0-0.2-0.3-0.2-0.3c0-0.1,0.1-0.1,0-0.2c0,0-0.1,0-0.1,0V9
			c-0.1-0.1-0.1-0.1-0.2-0.2c0,0,0,0,0-0.1c-0.1-0.1-0.1,0-0.2-0.1c0,0-0.1-0.1-0.1-0.1c0-0.2,0-0.5,0-0.6c0-0.2-0.2-0.2-0.4-0.2
			c-0.3-0.1-0.6-0.2-1.1-0.2c-0.2,0-0.5,0-0.6,0h-0.5c-0.1,0-0.1-0.2-0.1-0.3h-0.1L31.8,7c-0.1-0.1,0-0.3-0.1-0.4h-0.1V6.6h-0.3
			c-0.3,0-0.5,0.1-0.6,0c-0.1,0-0.2,0-0.3,0c0,0.1,0,0,0.1,0.1c-0.1,0.1-0.3,0-0.4,0c0-0.2,0-0.5,0-0.7c0,0,0.1,0,0.1-0.1
			c-0.4-0.2-1.1-0.1-1.5-0.1h-0.5c-0.1,0-0.2-0.1-0.3-0.2c-0.1-0.1-0.2-0.1-0.3-0.1h-1.7c-0.1-0.1,0-0.1-0.2-0.2
			c0.1-0.1,0.1-0.1,0.3-0.1c0.4-0.1,0.6-0.2,0.9-0.2c0-0.1,0-0.3-0.1-0.4c0-0.1,0.1-0.1,0.1-0.2h1.9c0.1,0,0,0,0-0.1
			c0.1,0,0.2,0,0.3,0c0.3,0.1,0.7,0.1,1.1,0.1V4.1c-0.4,0-0.7,0.1-1.1,0.1c-0.1,0-0.2,0-0.3,0V3.8c0.7,0,1.3,0,2,0
			c0.4,0,0.9,0,1.2,0c0.2,0,1,0,1.1,0.1c0.3,0,0.8,0.1,1,0c0-0.2,0-0.5,0-0.6h-1c0,0,0,0,0,0.1h-0.5c-0.4-0.1-1.1,0-1.6,0
			c-0.9,0-1.8,0-2.6,0V3.1H27c0-0.3-0.3-0.5-0.5-0.6c-0.1,0-0.2-0.1-0.3-0.1c0-0.1,0-0.1,0-0.2c-0.1,0-0.2,0.1-0.4,0.1
			c-0.3-0.1-0.6-0.2-0.9-0.2C25,2,25.2,2.1,25.3,2c0,0,0-0.1,0.1-0.1V1.8h0.1c0-0.1,0,0-0.1-0.1c0-0.1,0-0.2-0.1-0.3h-1
			c-0.1,0-0.3,0-0.4,0c0,0-0.1,0-0.1,0v0.2c-0.5,0-0.9,0-1.2-0.1c0-0.1-0.1-0.4-0.1-0.4V1.1c-0.2,0-0.6-0.1-0.7,0
			c-0.1,0.1-0.1,0.4-0.1,0.5h-1.1c0-0.1,0-0.1,0-0.2c0.1,0,0.1-0.1,0.2-0.1c0.1-0.1,0-0.1,0.2-0.2V1.1c-0.1,0-0.3,0-0.4,0
			c0,0,0-0.1,0-0.1c0,0-0.2-0.1-0.2-0.1H16c-0.2,0.1-0.1,0.2-0.2,0.2c-0.1,0-0.3,0-0.4,0v0.1h0.2c0,0.2,0.1,0.2,0.2,0.3
			c0,0.1,0,0.1,0,0.1c-0.1,0.1-0.2,0-0.3,0c-0.4,0.1-0.8,0-1,0.2h-0.4c0.1,0,0,0.1,0,0.1c-0.1,0-0.6,0.3-0.8,0.2
			c-0.1,0-0.1-0.1-0.1-0.1h-0.7c-0.2,0-0.5-0.1-0.6,0h0c0.1,0.1,0.3,0.1,0.5,0.1c0,0.4,0.1,0.7,0.4,0.8V3c0,0,0,0.1-0.1,0.1H11
			c0-0.1,0-0.1,0-0.2c-0.1,0-0.1,0.1-0.2,0.2h-0.1v0.4c-0.1,0-0.3,0-0.4,0c-0.3-0.1-0.6-0.1-1-0.1v0.4c0.2,0,0.4-0.1,0.6-0.1h0.3
			c0,0,0.2-0.1,0.3,0c0.1,0,0.2,0.1,0.2,0.1h1c0.2,0,0.9-0.1,1,0c0.2,0.1,0.1,0.2,0.2,0.2h0.1c0.1,0,0.1,0.1,0.1,0.2
			c0.1,0.1,0.2,0.1,0.2,0.2c0.1,0.1,0.1,0.1,0.1,0.2c0,0,0.1,0.1,0.1,0.1c0.1,0.2,0.3,0.5,0.5,0.5v0h1.7v0.1h-0.1
			c0,0.1-0.1,0.2-0.1,0.2h-3.1c0,0,0,0,0-0.1h-0.3c0,0-0.2-0.1-0.2-0.1c-0.1,0,0,0.1-0.1,0.1c-0.1,0-0.3,0-0.4,0c0,0,0-0.1,0-0.1
			c-0.2,0-0.1,0.1-0.2,0.1H11c0,0-0.1,0.1-0.1,0.1c-0.4,0-0.8,0.1-1.3,0.1c0-0.1,0-0.1,0-0.1c0-0.1,0.2-0.1,0.3-0.1c0,0,0,0,0,0
			c0-0.1-0.1-0.1-0.1-0.2H8.2c-0.2,0-0.5,0-0.6,0.1h0v0.1h0.3V6C7.4,6,6.7,6.1,6.3,6.2c-0.1,0-0.3,0-0.4,0c0,0-0.2,0.1-0.3,0.1
			c-0.2,0.1-0.3-0.1-0.5,0c0,0,0,0,0,0.1c-0.2,0.1-0.6,0-0.7,0.1H4.1c0,0,0,0,0.1,0c0-0.2-0.1-0.2-0.2-0.3c-0.1,0-0.1,0-0.2,0.1
			c-0.1,0-0.1,0-0.2-0.1c0-0.1,0.1-0.1,0.1-0.1h0v0h0v0C3.7,6,3.6,6,3.6,6.1C3.5,6.1,3.4,6.1,3.4,6H3.1C3.1,6,3,6.1,3,6.1
			C2.9,6.2,2.9,6,2.8,6.1c0,0-0.1,0-0.2,0.1v0.1H2.4c-0.1,0-0.1,0.1-0.2,0.1c-0.1,0-0.1,0-0.2,0c0,0-0.2,0-0.3,0
			c0,0-0.1,0.1-0.1,0.1c-0.1,0-0.2,0-0.3,0c0,0-0.1,0.1-0.1,0.1c-0.1,0-0.1,0-0.2,0c0,0,0,0.1-0.1,0.1l-0.2,0c-0.1,0,0,0.1-0.1,0.1
			V7h0.1c0,0.1,0,0.1,0.1,0.1C0.8,7.3,0.6,7.5,0.5,7.6c-0.1,0-0.1,0-0.2,0c0-0.1,0-0.1,0-0.1v0h0v0h0c0,0.1,0,0.1,0,0.1
			c0,0-0.1,0.1,0,0.1c0,0.1,0.1,0.1,0.1,0.2h0.1c0,0.2,0,0.5-0.1,0.7h0.8v0c-0.1,0-0.2,0-0.3,0v0.7c0.1,0,0.2,0,0.3,0
			c0.1,0.1,0,0.3,0.1,0.4c0.1,0.2,0.5,0.4,0.7,0.5c0,0.3-0.1,0.5-0.2,0.7v0.3c0,0.5,0.1,1,0.3,1.3c0.7,1.1,2,1.2,3.3,1.7
			C6,14.7,6.8,15,7.6,15.2c0.1,0,0.2,0,0.3,0c0.3,0.1,0.6,0.1,0.9,0.2h17.5c0.6,0,1.5,0.1,2,0h0.4c0.2-0.1,0.4-0.2,0.6-0.3h0.1
			c0.1,0,0.2-0.1,0.2-0.1h0.1c0.4-0.2,0.9-0.5,1.3-0.7c0.2-0.1,0.3-0.1,0.5-0.2c0.7-0.5,1.6-0.8,2.3-1.3c0.1,0,0.1,0,0.2-0.1
			c0.1-0.1,0.2-0.2,0.3-0.2h0.2c0,0,0-0.1,0-0.1h0.1c0.1-0.1,0.1-0.2,0.2-0.2h0.1c0,0,0-0.1,0-0.1c0,0,0.1-0.1,0.1-0.1
			c0-0.1,0-0.1,0.1-0.2c0,0,0,0,0.1,0c0-0.1,0.1-0.3,0.1-0.4c0,0,0.1,0,0.1,0V11c0-0.1,0-0.2,0.1-0.3c0,0,0,0,0.1,0
			C35.6,10.7,35.5,10.3,35.6,10.2z M13,2.5c-0.2,0-0.2,0.1-0.4,0.2c0,0,0,0,0,0c-0.2-0.3-0.3-0.3-0.3-0.7c0.3,0,0.5,0.1,0.7,0.1
			C13.1,2.3,13,2.4,13,2.5z M15.8,1.4c-0.1,0-0.1-0.1-0.2-0.1V1.2h0.1C15.7,1.3,15.7,1.3,15.8,1.4L15.8,1.4z M20.4,1.2L20.4,1.2
			l0.3,0v0.1c-0.1,0-0.1,0-0.1,0.1h-0.1C20.5,1.3,20.5,1.2,20.4,1.2z M23.6,1.8h0.2C23.8,1.9,23.7,1.9,23.6,1.8z M30,6.7h-0.6
			c0,0,0,0.1-0.1,0.1c-0.1,0-0.2-0.1-0.3-0.1c-0.1,0-0.2,0-0.3-0.1c0-0.1,0,0,0-0.1c-0.1-0.2-0.2-0.3-0.3-0.4v0H30c0,0,0,0,0,0.1
			C30,6.2,30,6.4,30,6.7z"/>
	</g>
</g>
</svg>
