<?xml version="1.0" encoding="utf-8"?>
<!-- Generator: Adobe Illustrator 22.1.0, SVG Export Plug-In . SVG Version: 6.00 Build 0)  -->
<svg version="1.1" id="Layer_1" xmlns="http://www.w3.org/2000/svg" xmlns:xlink="http://www.w3.org/1999/xlink" x="0px" y="0px"
	 width="39px" height="16.7px" viewBox="0 0 39 16.7" style="enable-background:new 0 0 39 16.7;" xml:space="preserve">
<style type="text/css">
	.st0{fill-rule:evenodd;clip-rule:evenodd;fill:#8C8C7C;}
</style>
<path class="st0" d="M39,10.7l-0.4,2l-0.6,1l-5,3l-27,0l-5-2l-1-1l0.4-2l1.6-1l0-1l4,0l2-1.1l1,0L9.2,9L18,8.7l0-0.5l-2.7,0L15,7.6
	L15.6,4l0.7-0.4l0.4-0.5L18,2.7l0.8,0L19,0l0,2.9l0.5,0.8l2.5,0V3h0.7v0.7h0.6L26,4.5l0.3,0.2l0.2,1l2.1,0L28.8,6l7.6,0.1L36.7,6
	h0.6L38,5.8v0.8l-0.8-0.1h-0.6l-0.2,0l-7.6,0.2L28.6,7l-2,0l-0.2,0.7l-0.6,0l0,0.3l-0.3,0.2v0.5H27V8l0.3-0.4h1.2V7.4h0.8l0,0.3
	L30.3,8l0.5-0.1H31v0.6l2,0.2V8.2l0.3,0l0.3,0.4h0.9v1l2.4,0L39,10.7z"/>
</svg>
