<svg xmlns="http://www.w3.org/2000/svg" width="33" height="16" viewBox="0 0 33 16">
  <path fill="#8C8C7C" fill-rule="evenodd" d="M3.06787109,13.1796875 C3.65022408,14.2680768 5.47460675,15.1503906 7.12119842,15.1503906 L24.2683828,15.1503906 C25.3756091,15.1503906 27.0755487,14.7704192 28.0863284,14.2917444 L28.6214353,14.0383338 C29.6228021,13.5641165 30.9014952,12.4239215 31.4883307,11.4740678 L32.4477539,9.92114258 L30.4345703,6.46508789 L17.2753906,5.15966797 L16.5256348,4.13525391 L13.3327637,4.0300293 L13.4689941,3.09570313 L18.5419922,3.12695313 L18.4978027,2.10668945 L13.3674316,2.02783203 L13.3674316,0.983398438 L11.3793945,1.09350586 L11.371582,0 L7.39990234,0.0456542969 L7.46337891,0.956542969 L6.43115234,0.990966797 L6.43115234,2.99560547 L7.59790039,3.01025391 L7.58154297,4.01904297 L5.31811523,4.18530273 L2.55566406,9.08154297 L2.44506836,9.83691406 L0,10.0874023 C0,10.0874023 1.45623523,10.3243534 1.71606445,10.7097168 C1.97589367,11.0950802 2.60196391,12.2995275 2.60196391,12.2995275 C2.85927734,12.7856264 3.28125344,13.5784887 3.539579,14.0612865 L3.06787109,13.1796875 Z"/>
</svg>
