<svg width="54" height="17" viewBox="0 0 54 17" fill="none" xmlns="http://www.w3.org/2000/svg">
<path fill-rule="evenodd" clip-rule="evenodd" d="M22.9 0.4C22.9 0.2 22.9 0.1 22.8 0C22.8 0.2 22.8 0.2 22.9 0.4ZM22.9 0.4C22.9 0.5 22.9 0.6 22.9 0.7C23 0.6 23 0.5 22.9 0.4ZM53.7 5.8V5.6C53.7 5.6 52 5.6 51.2 5.6C51.2 5.4 51.2 5.3 51.2 5.1C50.4 5.1 50.1 5.1 49.9 5.6C49.8 5.6 49.8 5.6 49.7 5.6V5.5C49.6 5.5 49.6 5.6 49.5 5.6C49.2 5.6 48.9 5.6 48.6 5.6V5.5H48.5V5.6C48.1 5.6 47.7 5.6 47.4 5.5C47.4 5.4 47.4 5.3 47.4 5.1C46.6 5.1 46.3 5.1 46.1 5.6C46 5.6 46 5.6 45.9 5.6V5.5H45.8V5.6C45.5 5.6 45.3 5.6 45 5.6C44.9 5.6 44.9 5.6 44.8 5.6V5.5H44.7V5.6C44.6 5.6 44.5 5.6 44.4 5.6C44.4 5.4 44.4 5.3 44.4 5.1C43.7 5.1 43.3 5.1 43.1 5.6C43 5.6 43 5.6 42.9 5.6V5.5H42.8V5.6C42.5 5.6 42.3 5.6 42 5.6C41.9 5.6 41.9 5.6 41.8 5.6V5.5H41.7V5.6C41.6 5.6 41.5 5.6 41.4 5.6C41.4 5.4 41.4 5.3 41.4 5.1C40.6 5.1 40.4 5.1 40.1 5.6C40 5.6 40 5.6 39.9 5.6V5.5H39.8V5.6C39.5 5.6 39.3 5.6 39 5.6C38.9 5.6 38.9 5.6 38.8 5.6C38.8 5.6 38.8 5.5 38.7 5.5V5.6C38.6 5.6 38.5 5.6 38.4 5.6C38.4 5.4 38.4 5.3 38.4 5.1C37.7 5.1 37.2 5 37.1 5.6C37 5.6 37 5.6 36.9 5.6C36.9 5.5 36.9 5.5 36.9 5.4C36.8 5.4 36.8 5.4 36.7 5.4C36.7 5.5 36.7 5.5 36.7 5.6C36.5 5.5 36.1 5.5 35.8 5.5C35.8 5.4 35.8 5.4 35.8 5.3C35.7 5.4 35.7 5.3 35.7 5.5C35.4 5.5 35 5.5 34.7 5.4C34.7 5.3 34.7 5.3 34.7 5.2C34.6 5.2 34.6 5.2 34.5 5.2C34.5 5.3 34.5 5.3 34.5 5.4C33.6 5.4 32.7 5.4 31.7 5.4C31.7 5 31.4 5.1 31.1 5C30.6 4.7 30.1 4.5 29.2 4.5C29.2 4.3 29.2 4.1 29.3 4C29.2 4 29.2 4 29.1 3.9C29 4.1 29 4.2 28.9 4.4V4.5C28.7 4.5 28.5 4.5 28.3 4.4C27.9 4.3 27.3 4.4 26.9 4.3C26.7 4.2 26.4 4.4 26.2 4.2C26.2 4.2 26.2 4.2 26.1 4.2C26.1 4.2 26.1 4.2 26.1 4.1C26.1 4.1 26.1 4.1 26.2 4.1V4C26.3 4 26.5 4 26.6 4C26.6 3.9 26.6 3.9 26.6 3.8C26.4 3.8 26.3 3.8 26.1 3.8C26.1 3.9 26.1 4 26.1 4.2C25.6 4.1 25.1 3.9 24.6 3.8C24.6 3.7 24.6 3.7 24.5 3.6C24.3 3.5 23.9 3.6 23.6 3.5C23.4 3.4 22.5 3 22.3 3.2C22.2 3.2 22.2 3.2 22.1 3.2C22.1 3.1 22.1 2.9 22.2 2.8V2.7C22.3 2.7 22.4 2.7 22.5 2.7C22.5 2.5 22.5 2.4 22.5 2.2C22.3 2.2 22.2 2.2 22 2.2C22.1 2.1 22.4 2.1 22.6 2.1C22.6 1.9 22.6 1.8 22.6 1.6C22.8 1.6 23 1.6 23.2 1.6C23.2 1.5 23.2 1.5 23.2 1.4C23 1.4 22.7 1.4 22.6 1.3C22.6 1.3 22.6 1.3 22.5 1.3V1.2C23 1.2 23.4 1.2 23.7 1.1C25 1.1 26.2 1.1 27.5 1.1C27.5 1 27.5 1 27.5 0.9C26.2 0.9 25 0.9 23.7 0.8C24 1.2 23.5 1.2 23 1.2C23 1 23 0.9 23 0.7C22.9 0.8 23 1 23 1.2C22.9 1.2 22.8 1.2 22.7 1.1C22.7 1 22.7 0.9 22.7 0.8C22.6 0.8 22.6 0.8 22.5 0.8C22.5 0.9 22.5 0.9 22.5 1C22 1 20.9 1 20.1 0.9C20.1 0.8 20.1 0.8 20.1 0.7C20 0.7 19.9 0.7 19.8 0.7C19.8 0.8 19.8 0.8 19.8 0.9C19.7 0.9 19.6 0.9 19.5 1C19.3 1 19.3 0.9 19.3 1.1C19.3 1.1 19.3 1.1 19.3 1.2C19.2 1.1 19.2 1.2 19.1 1H19C19 1.1 19 1.2 19 1.3H18.9C18.9 1.5 19 1.5 19 1.7H19.1C19.1 1.6 19.1 1.6 19.2 1.5C19.3 1.5 19.3 1.5 19.4 1.5C19.3 1.6 19.4 1.6 19.2 1.6C19.2 1.7 19.2 1.7 19.3 1.7C19.2 1.8 19.3 1.7 19.2 1.8C19.3 1.9 19.9 1.8 20.2 1.8C20.2 1.9 20.2 2 20.2 2.1C20.6 2.1 21.2 2.1 21.4 1.9H21.5C21.5 2.1 21.5 2.2 21.5 2.4C21.6 2.4 21.7 2.4 21.8 2.5C21.8 2.9 21.7 3.2 21.7 3.6C21.2 3.6 20.7 3.7 20.2 3.7C20.1 3.6 20 3.5 19.9 3.4C19.8 3.4 19.7 3.4 19.6 3.3C19.5 3.2 19.5 3.2 19.5 3C19.4 3.1 19.4 3.1 19.4 3.3C18.4 3.3 17.2 3.3 16.4 3.3C16.4 3.4 16.5 3.4 16.6 3.5C16.4 3.6 16.3 3.8 16.1 3.9C16.1 4 16.1 4 16.2 4C16 4.2 15 4.1 14.8 4.3C15 4.2 15 4.1 15.1 3.9C14.7 4 14.2 3.9 13.7 4C13.5 4.1 13.1 4 12.9 4.1C12.8 4.1 12.7 4.2 12.5 4.2C12.5 4.3 12.5 4.4 12.6 4.5C12.6 4.5 12.6 4.5 12.6 4.6C12.5 4.6 12.3 4.6 12.2 4.7C12.2 4.7 12.2 4.7 12.1 4.7C12.1 4.5 12.2 4.1 12 3.9C12 3.7 12 3.5 12 3.2H11.9C11.9 3.7 11.9 4.2 11.8 4.6C10.3 4.8 8.80002 5 7.20002 5.2C7.20002 5.4 7.10002 5.3 7.10002 5.4C7.10002 5.6 6.80002 6.8 6.70002 6.9C6.70002 6.9 6.70002 6.9 6.70002 7C7.50002 7.2 8.50002 7.1 9.30002 7.3C9.60002 7.3 10 7.3 10.3 7.4C10.6 7.5 11 7.5 11.3 7.6C11.5 7.6 11.6 7.6 11.8 7.6C12.2 7.7 12.8 7.8 13.3 7.8C13.3 7.9 13.3 7.8 13.4 7.9C13.4 8.1 13.4 8.3 13.4 8.6C13.8 8.6 14.2 8.6 14.6 8.6C14.6 8.6 14.6 8.6 14.6 8.7C14.5 8.7 14.5 8.7 14.4 8.9C14.2 8.9 14 8.8 13.9 8.8C13.9 8.8 13.7 8.9 13.6 8.9C13.5 8.9 13.1 8.7 12.8 8.8C12.7 8.8 12.6 8.9 12.4 8.9C12.4 8.8 12.4 8.7 12.4 8.6H12.3C12.3 8.7 12.3 8.8 12.3 8.9C11.7 8.9 12 8.8 11.7 8.6C11.6 8.5 11.2 8.5 11.1 8.6H11C11 8.7 11 8.8 11 8.9C10.7 8.9 10.6 8.7 10.3 8.7C10.1 8.7 9.90002 8.7 9.70002 8.8L9.60003 8.6C9.50003 8.5 9.00002 8.6 8.90002 8.7C8.80002 8.8 8.80002 8.7 8.80002 8.9C8.30002 8.7 7.70002 9.1 7.40002 8.9H7.30002C7.30002 8.8 7.30002 8.8 7.30002 8.7C7.00002 8.7 6.60002 8.7 6.30002 8.7C6.30002 8.6 6.30002 8.6 6.30002 8.5C6.30002 8.5 6.20002 8.6 6.20002 8.7C6.00002 8.4 5.90002 8.3 5.80002 8.4C5.40002 8.4 4.30002 8.3 4.20002 8.6C4.10002 8.6 4.10002 8.6 4.00002 8.7C4.00002 8.7 3.60002 8.6 3.50002 8.6C3.50002 8.6 3.40002 8.8 3.30002 8.9C3.20002 8.9 2.80002 8.7 2.60002 8.7C2.50002 8.7 2.40002 8.9 2.20002 9C2.20002 9.1 2.20002 9.2 2.10002 9.4C2.10002 9.5 2.30002 9.7 2.30002 9.8C2.30002 10 2.20002 9.9 2.20002 10.2C2.00002 10.2 1.90002 10.2 1.70002 10.2C1.70002 10.3 1.70002 10.5 1.70002 10.6C1.50002 10.6 1.40002 10.6 1.30002 10.7C1.20002 10.7 1.00002 10.5 0.900024 10.4H0.800024C0.800024 10.6 0.700024 10.6 0.900024 10.7C0.900024 10.8 0.900024 10.8 0.900024 10.9C1.10002 10.8 1.00002 10.7 1.00002 10.7C1.00002 10.7 1.00002 10.7 1.00002 10.8C1.00002 10.8 1.00002 10.8 0.900024 10.8L1.10002 11.3C1.10002 11.6 1.10002 11.5 1.40002 11.7C1.50002 11.7 1.50002 11.9 1.60002 11.9C1.60002 12.2 1.60002 12.3 1.70002 12.5C1.70002 12.5 1.70002 12.5 1.60002 12.5C1.50002 12.6 1.60002 12.5 1.50002 12.5C1.20002 13 1.10002 13.4 1.10002 14.1C1.20002 14.2 1.20002 14.2 1.30002 14.3C1.50002 14.3 1.70002 14.4 1.80002 14.2C2.30002 14.6 2.50002 15.2 3.10002 15.5C3.60002 15.8 4.40002 15.8 5.00002 16C5.90002 16.3 6.90002 16.6 7.90002 16.8C9.30002 16.8 10.8 16.8 12.2 16.8C16.7 16.8 21.2 16.8 25.7 16.8C28.5 16.8 31.4 16.8 34.2 16.8C35.4 16.5 38.4 16 39.4 15C39.9 14.5 40.1 13 39.3 12.3C39.4 12.2 39.6 12.2 39.7 12.1C39.9 12.2 39.8 12.4 40 12.5C40.4 12.7 40.7 12.4 41 12.3C41 12.2 41 12.1 40.9 12C40.8 12 40.6 12.1 40.5 12.2C39.8 12.2 40.5 11.7 40.3 11.4C40.2 11.2 40.1 11.3 40 11.2C39.9 11.1 40 11 39.9 11C39.7 10.9 39.5 10.9 39.3 10.8C38.9 10.6 38.4 10.4 38.1 10.3C37.9 10.3 37.8 10.2 37.6 10.2C37.4 10.1 37.1 9.9 36.8 9.9C36.8 9.8 36.8 9.6 36.8 9.5C36.4 9.5 36 9.5 35.6 9.5C35.2 9.4 34.8 9.1 34.5 9C34.1 9 33.6 8.9 33.2 8.9C33.2 8.7 33.2 8.6 33.2 8.4C32.3 8.4 31.4 8.4 30.6 8.4C30.6 8.3 30.6 8.3 30.5 8.2C30.3 8.2 30.2 8.2 30 8.2C30 8.3 30 8.3 30 8.4C29.2 8.4 28.3 8.4 27.5 8.3C27.7 8.2 28 8.3 28.2 8.2C28.4 8.1 29.3 7.7 29.4 7.6C29.4 7.6 29.4 7.6 29.5 7.6C29.4 7.7 29.4 7.8 29.3 7.9C29.3 7.9 29.3 7.9 29.2 7.9C29.2 7.9 29.2 7.9 29.2 8C29.7 8 30.1 7.7 30.5 7.6C30.7 7.5 31 7.5 31.2 7.4C31.4 7.3 31.6 7.2 31.8 7.2C31.8 7.1 31.8 7.2 31.9 7.1C31.9 7 31.9 6.9 31.9 6.8C32.7 6.8 33.6 6.8 34.4 6.8C34.4 6.9 34.4 6.9 34.4 7C35 7 36 7 36.5 6.9C39.7 6.9 43 6.9 46.2 6.9C47.2 6.9 48.2 7 49.2 7C49.5 7 50.1 7.1 50.3 6.9H50.4C50.4 6.8 50.4 6.8 50.4 6.7C50.7 6.7 50.8 6.8 51.1 6.9C51.4 7.1 51.9 7 52 7C52.4 7 53.7 7 53.7 7L53.9 5.8H53.7Z" fill="#8C8C7C"/>
</svg>
