<svg xmlns="http://www.w3.org/2000/svg" width="56" height="15" viewBox="0 0 56 15">
  <path fill="#8C8C7C" fill-rule="evenodd" d="M53,3.04068988 L22.8874512,3.05029297 L22.758667,4.24401855 L21.8952637,5.74975586 L22.8874512,7.0098877 L25.2613525,7.02380371 L28.3914795,6.56396484 L29.0245361,8.01635742 L29.5074463,7.07141113 L30.2626953,7.38952637 L30.4746094,8.03808594 L33.2653809,9.26013184 L33.5372314,11.0917969 L30.1192553,13.0677105 C29.1730085,13.6147306 27.4950853,14.0648244 26.389327,14.0627225 L6.14330673,14.0242376 C5.58804187,14.0231822 4.75536003,13.7950597 4.27544359,13.5146966 L1.61505934,11.9605231 C1.1364149,11.6809031 0.614073265,11.0248079 0.451217744,10.4967531 L0,9.03369141 L0.414428711,6.05114746 L4.3972168,6.28015137 L5.40393066,7.04040527 L7.37133789,7.0135498 L7.76928711,6.05114746 L9.13220215,6.05114746 L9.54211426,6.9699707 L12.5469971,6.88598633 L12.4645996,5.14526367 L9.44030762,4.97265625 L7.43701172,4.07897949 L7.43701172,1.07507324 L12.3876953,1.01391602 L15.4945068,0 L15.4998779,1.07507324 L22.3258057,1.0958252 L24.4654541,2.03808594 L53,2.03808594 L53,1 L53.4768066,1 L53.4768066,2.03808594 L55.0620117,2.03808594 L55.0407715,3.04003906 L53.4768066,3.04053782 L53.4768066,4 L53,4 L53,3.04068988 Z"/>
</svg>
