<?xml version="1.0" encoding="UTF-8"?>
<!-- Generator: Adobe Illustrator 24.0.0, SVG Export Plug-In . SVG Version: 6.00 Build 0)  -->
<svg version="1.1" id="Слой_1" xmlns="http://www.w3.org/2000/svg" xmlns:xlink="http://www.w3.org/1999/xlink" x="0px" y="0px" width="76.2px" height="18.3px" viewBox="0 0 76.2 18.3" style="enable-background:new 0 0 76.2 18.3;" xml:space="preserve">
<style type="text/css">
	.st0{fill-rule:evenodd;clip-rule:evenodd;fill:#8C8C7C;}
</style>
<path class="st0" d="M44.5,12.4l0.4-0.4v-0.4l-1-1V9.4h-0.8l-0.4,0.4h-1.1V10l-2.8-1.6h-5.5V8.3h1.8l-0.6-0.6h1.6l1.4-0.1V7.4  l21.7-0.2v0.2h0.5v0.1h3.2V7.2h8.3v0.2h4.3V6.1h-4.3v0.1h-8.3V5.8h-3.2V6h-0.5v0.3L37.5,6V5.8l-1.3-0.1h-0.6c0,0,0-0.3,0-0.4  c0-0.1-0.1-0.2-0.2-0.2C35.3,5,34.9,5,34.8,5c-0.1,0-0.2,0.1-0.2,0.2c0,0.1,0,0.4,0,0.4h0.3c0,0,0-0.2,0-0.3c0,0,0.1-0.1,0.1-0.1  c0.1,0,0.2,0,0.3,0c0,0,0.1,0.1,0.1,0.1c0,0.1,0,0.3,0,0.3h-1.7V5.4h-0.2L33.1,5l-0.8-0.2l-3.9-0.4V4.1l-0.2-0.2H28V2.2  c0,0-0.6,0-0.8,0c-0.1,0-0.3,0-0.4,0.1c-0.1,0-0.3,0.3-0.3,0.3v1.1h0.6v0.1h-0.6v0.4h-0.3V3.7H26V3.5h-0.3v0.4h-0.1V3.7h-4.2v0.4  h-7.3L13.9,2v2.1h-0.4v0.2h-0.4v0.6c0,0,0-0.2-0.1-0.2c0-0.1-0.2-0.1-0.2-0.1c0,0-0.1,0-0.1,0v0.1c0,0,0.1,0,0.1,0  c0,0,0.1,0.1,0.1,0.1C13,4.8,13,5,13,5h0.1v1.3H13c0,0-0.1,0.2-0.1,0.3c0,0.1-0.2,0.1-0.2,0.1v0.1c0,0,0.1,0,0.2-0.1  c0.1,0,0.2-0.2,0.2-0.2V7l5,1.4h0.8v0.1h-4.2V8.4h-0.8V8.2h-0.4v0.2H9.8V8.2H9.5v0.1h0.1v0.1H6.9L6.6,8.5V8.2H6.2v0.1H5.4L5.3,8.4  v0.4H5.1V8.6H2.6v1.3H2.5V10c0,0-0.3,0-0.4,0.1c-0.1,0.1-0.3,0.3-0.4,0.4c0,0.1-0.1,0.2-0.1,0.2L1.3,11v0.1l0.2,1.7v0.1H1.3v1.7h0.4  c0,0,0.3,0.6,0.5,0.7c0.3,0.3,1,0.6,1.4,0.7c0.7,0.3,2.4,1,3.4,1.5c0.5,0.2,1.1,0.3,1.7,0.3h28.2c0.7,0,1.3-0.1,2-0.3  c1.3-0.5,3.6-1.3,4.6-1.8c0.1-0.1,0.3-0.2,0.4-0.3c0.1-0.1,0.4-0.4,0.5-0.6c0.1-0.2,0.3-0.6,0.4-0.8c0-0.2,0.1-0.5,0.1-0.6  c0-0.2-0.1-0.5-0.1-0.7C44.6,12.7,44.5,12.4,44.5,12.4z"/>
</svg>