<?xml version="1.0" encoding="UTF-8"?>
<!-- Generator: Adobe Illustrator 25.0.0, SVG Export Plug-In . SVG Version: 6.00 Build 0)  -->
<svg version="1.1" id="Layer_1" xmlns="http://www.w3.org/2000/svg" xmlns:xlink="http://www.w3.org/1999/xlink" x="0px" y="0px" width="56.1px" height="15.9px" viewBox="0 0 56.1 15.9" style="enable-background:new 0 0 56.1 15.9;" xml:space="preserve">
<style type="text/css">
	.st0{fill-rule:evenodd;clip-rule:evenodd;fill:#8C8C7C;}
</style>
<path class="st0" d="M10,15.4h23.4c0,0,0.7-0.2,1-0.2c1.3-0.4,3.7-1.4,4.8-2.2c0.2-0.1,0.5-0.5,0.7-0.7c0.2-0.2,0.4-0.7,0.5-0.9  c0.1-0.2,0-0.7,0-0.9c0-0.1-0.1-0.5-0.1-0.5h0.5c0,0-0.3-0.7-0.4-0.9c-0.1-0.2-0.5-0.6-0.6-0.7c-0.2-0.1-0.6-0.4-0.9-0.4  c-0.2-0.1-0.9-0.1-0.9-0.1h-0.4V7.1h-0.5v0.6l-0.4-0.4l-0.2-0.4l0.3,0V6c0,0-0.1,0-0.2,0c-0.1,0-0.3,0.2-0.3,0.3c0,0.1,0,0.2,0,0.3  c0,0,0.1,0.1,0.1,0.1v0.4h-0.2l-0.5-0.3l-0.3,0l-1.1-0.7h-0.7v0.1H33l-0.1-0.7h0.2V5.2L33.3,5v0.7h0.2c0,0,0.4-0.4,0.6-0.5  C34.2,5.2,34.7,5,34.7,5H37l0.3-0.1V4.8H44l0.1-0.1h0.3V4.6h8.6l0.6,0.3h0.3L54,4.8h1l0.2-0.2V3.8l-0.2-0.2h-0.9l-0.2-0.2h-0.3  l-0.7,0.4h-8.6V3.7h-0.2L44,3.5h-6.6V3.4L37,3.3h-2.2c0,0-0.6-0.3-0.8-0.4c-0.1-0.1-0.4-0.2-0.6-0.2c-0.1,0-0.4,0-0.4,0v0.5  l-0.3-0.2l-0.1,0V2.7h-0.4l-0.1-0.1H32c0,0-0.2-0.4-0.3-0.4c-0.1,0-0.2-0.1-0.3-0.1c-0.1,0-0.2,0.1-0.2,0.1  c-0.1,0.1-0.1,0.4-0.1,0.4H31V2.4h-0.4v0.1h-0.1V2.2l-1.1-0.1V1.9h-0.6V2h-0.8v0.2H28v-1h-1.7V0.9h-0.9v0.3h-1.7V2h-0.2V1.8h-0.2  v0.3l-0.7,0.1v0.1l-2.3,0.1c0,0,0-0.3,0-0.3c0,0-0.1-0.1-0.2-0.1c-0.1,0-0.2,0-0.3,0c0,0-0.1,0.1-0.2,0.2c0,0.1,0,0.4,0,0.4l0.2,0  c0,0-0.1-0.3,0-0.3c0,0,0.1-0.1,0.1-0.1c0,0,0.1,0,0.1,0c0,0,0.1,0.1,0.1,0.1c0,0.1,0,0.3,0,0.3l-1.4,0.1l0,0.3l-0.2,0.1l-0.2,0.7  l-0.3,0l-0.3,1.1l0.2,0l-0.1,0.6v0.4h1.3v0.5h-0.4l-0.5-0.3h-7.4l-0.6,0.3H9.9L9.6,5.9H5.5L5.2,6L5.1,6.1H4.8v0.1H4.6v0.2L4.3,6.6  L4,6.2L3.3,6.8c0,0-0.1-0.1-0.2-0.2C3,6.5,2.9,6.4,2.8,6.3C2.7,6.3,2.5,6.2,2.3,6.2c0,0-0.1,0-0.1,0L1.9,6H1.4l0,0.2l0.2,0.4  l0.2,0.1l0.1,0.1c0,0-0.1,0.3-0.1,0.4c0,0.1,0,0.3,0,0.4c0,0.1,0.1,0.3,0.1,0.4C1.9,8,2,8.6,2,8.6l0.5-0.3L2.3,8.1l0-0.2l0.4,0  l0.1,0l0,0.3L2,8.7l-0.1,0c0,0-0.3,0.4-0.4,0.5C1.3,9.3,1.1,9.8,1.1,9.8l0.7,0.3l0,1h0.3l0-0.9l0.5,0.2c0,0-0.2,0.2-0.2,0.3  c0,0.1-0.1,0.3-0.1,0.3l0,0.1l-0.3,0.1l0,0.8h0.5v0.3h0.2v0.2H3v-0.2h0.2c0,0,0.1,0.3,0.2,0.4c0.1,0.1,0.2,0.3,0.3,0.4  c0.1,0.1,0.3,0.3,0.4,0.4c0.1,0.1,0.4,0.2,0.6,0.3c1,0.4,3.2,1.1,4.2,1.4c0.1,0,0.4,0.1,0.5,0.1C9.5,15.4,10,15.4,10,15.4z"/>
</svg>