<svg xmlns="http://www.w3.org/2000/svg" xmlns:xlink="http://www.w3.org/1999/xlink" preserveAspectRatio="xMidYMid" width="62" height="24" viewBox="0 0 62 24">
  <defs>
    <style type="text/css">
      .cls-1 {
        fill: #8c8c7c;
        fill-rule: evenodd;
      }
    </style>
  </defs>
  <path d="M-0.029,16.244 L0.969,12.982 L6.053,13.012 L5.979,11.005 L4.941,10.980 L4.920,9.990 L5.916,10.019 L6.066,9.010 L9.944,9.004 L10.029,7.990 L13.006,8.011 L12.994,9.239 L13.909,9.978 L14.971,8.956 C14.971,8.956 24.007,9.028 24.007,8.921 C24.007,8.814 23.999,3.312 23.999,3.312 L27.991,2.034 C27.991,2.034 34.110,2.076 34.132,1.991 C34.153,1.905 34.538,0.236 34.538,0.236 L34.816,1.969 L36.314,1.969 C36.314,1.969 38.990,2.568 38.990,2.654 C38.990,2.740 38.990,4.004 38.990,4.004 L44.616,4.000 L46.777,4.960 L51.940,4.979 L52.988,4.958 L52.967,5.942 L51.897,5.942 L47.376,5.944 L45.945,7.929 L42.968,7.954 L41.000,8.768 L40.358,7.985 L39.053,7.963 L39.031,9.005 L40.465,9.006 L41.663,11.014 L41.834,10.459 L42.923,10.436 L43.103,9.742 L43.511,9.657 L43.891,9.005 L47.983,8.994 L47.983,10.001 L51.991,10.004 L51.994,10.942 L57.970,10.926 L57.990,11.890 L55.314,11.852 L55.271,12.152 L54.522,12.173 L53.217,12.684 L52.725,12.004 L52.019,12.004 L51.942,12.962 L53.752,13.069 C53.752,13.069 53.966,12.575 54.052,12.554 C54.137,12.532 55.037,12.521 55.037,12.521 L55.080,13.112 L55.720,13.090 L57.041,13.971 L59.929,14.057 L61.149,14.549 L61.932,16.236 L61.998,17.883 C61.998,17.883 61.027,20.429 60.984,20.386 C60.941,20.344 52.383,23.990 52.383,23.990 L9.982,23.963 L4.812,20.991 L2.975,20.948 L-0.029,16.244 Z" class="cls-1"/>
</svg>