<svg width="63" height="21" viewBox="0 0 63 21" fill="none" xmlns="http://www.w3.org/2000/svg">
<path fill-rule="evenodd" clip-rule="evenodd" d="M62.5 10.3C62.3 9.79999 60.9 9.99999 60.3 9.99999C60.3 9.89999 60.3 9.79999 60.3 9.69999C59.5 9.69999 58.7 9.69999 57.9 9.69999C57.9 9.59999 57.9 9.49999 57.9 9.39999C57.6 9.39999 57.3 9.39999 57 9.39999C56.9 9.49999 56.8 9.59999 56.7 9.79999C56.5 9.69999 55.5 9.79999 55.2 9.69999C55.2 9.59999 55.2 9.49999 55.2 9.29999C54.6 9.29999 54.2 9.29999 54 9.69999C53.6 9.69999 52.9 9.69999 52.4 9.69999C52.4 9.59999 52.4 9.49999 52.4 9.29999C52.1 9.29999 51.8 9.29999 51.5 9.29999C51.4 9.39999 51.3 9.49999 51.2 9.69999C50.8 9.69999 50.1 9.69999 49.6 9.69999C49.6 9.59999 49.6 9.49999 49.6 9.29999C49.4 9.29999 49.2 9.29999 49.1 9.19999C48.6 9.19999 48.6 9.39999 48.4 9.59999C48.2 9.69999 47.2 9.59999 46.9 9.69999C46.9 9.59999 46.9 9.39999 46.9 9.29999C46.3 9.29999 45.8 9.29999 45.7 9.69999C45.4 9.59999 44.6 9.69999 44.1 9.69999C44.1 9.59999 44.1 9.39999 44.1 9.29999C43.3 9.29999 43.3 9.29999 42.9 9.69999C42.9 9.69999 42.9 9.79999 42.8 9.79999C42.8 9.79999 42.1 9.89999 41.8 9.79999C41.8 9.79999 41.8 9.69999 41.7 9.69999C41.6 9.69999 41.7 9.79999 41.4 9.79999C41.4 9.69999 41.4 9.49999 41.4 9.39999C41.2 9.39999 40.8 9.39999 40.7 9.29999C40.4 9.29999 40.2 9.49999 40.1 9.79999C39.9 9.79999 39.6 9.89999 39.2 9.79999L39 9.69999C38.9 9.69999 38.9 9.69999 38.8 9.79999C38.5 9.79999 38.1 9.79999 37.9 9.69999L37.8 9.89999C37 9.89999 36.3 9.89999 35.5 9.89999C35.5 9.59999 35.3 9.49999 35 9.49999C35 9.29999 35 9.09999 35 8.79999C34.4 8.79999 33.9 8.69999 33.3 8.69999C33.3 8.49999 33.4 8.39999 33.2 8.19999C33.6 7.99999 33.5 8.09999 33.4 7.99999C33.1 7.99999 33 7.99999 32.9 8.19999C32.2 7.79999 31.3 8.09999 30.5 7.89999C30.1 7.79999 29.5 7.99999 29.3 7.79999C29.1 7.79999 28.9 7.79999 28.7 7.79999V7.69999C28.8 7.69999 28.9 7.59999 29.1 7.59999C29.1 7.49999 29.1 7.49999 29.1 7.39999C28.8 7.39999 28.4 7.39999 28.1 7.39999C28.1 7.49999 28.1 7.59999 28.1 7.69999C28 7.59999 28 7.49999 28 7.39999C27.8 7.39999 27.7 7.39999 27.5 7.39999C27.5 7.19999 27.5 7.09999 27.5 6.89999L27.7 6.79999C27.7 6.49999 27.7 6.09999 27.7 5.79999C27.3 5.79999 26.6 5.69999 26.4 5.89999C26.4 5.79999 26.4 5.89999 26.3 5.69999C26.6 5.69999 26.9 5.69999 27.2 5.59999C27.2 5.49999 27.2 5.49999 27.2 5.39999C26.9 5.39999 26.6 5.39999 26.4 5.29999C26.7 5.09999 27.2 5.29999 27.6 5.19999C28.5 4.89999 30.2 5.09999 31.3 5.09999C31.3 4.99999 31.3 4.99999 31.3 4.89999C30.2 4.89999 28.6 5.09999 27.6 4.79999C27.2 4.69999 26.7 4.89999 26.4 4.69999C26.3 4.59999 26.3 4.59999 26.3 4.39999C26.2 4.49999 26.2 4.39999 26.2 4.59999C25.6 4.59999 24.9 4.59999 24.3 4.59999C24.1 4.59999 23.8 4.39999 23.7 4.49999V4.59999C23.5 4.59999 23.3 4.59999 23.1 4.59999C23.1 4.69999 23.1 4.79999 23.1 4.89999H23C22.9 5.29999 23 5.39999 23 5.49999H23.1C23.1 5.39999 23.1 5.39999 23.1 5.29999C23.2 5.29999 23.2 5.29999 23.3 5.29999C23.3 5.39999 23.3 5.49999 23.2 5.59999C23.4 5.59999 23.7 5.59999 23.9 5.59999C23.9 5.69999 23.9 5.69999 23.9 5.79999C24.3 5.79999 24.6 5.79999 24.8 5.99999C25 5.99999 25 5.99999 25 5.99999C25 6.19999 25 6.49999 25.1 6.59999C25.1 6.79999 25 6.69999 25 6.89999C24.8 6.89999 24.7 6.89999 24.5 6.79999C24.5 6.69999 24.5 6.49999 24.5 6.39999C24.6 6.39999 24.6 6.39999 24.7 6.29999H24.8C24.8 6.19999 24.8 6.19999 24.8 6.09999C24.5 6.09999 24.2 6.09999 24 6.09999C24 6.29999 24 6.49999 24 6.79999C23.9 6.79999 23.8 6.79999 23.7 6.79999C23.7 6.69999 23.7 6.79999 23.6 6.69999C23.6 6.49999 23.6 6.49999 23.8 6.49999V6.39999C23.7 6.39999 23.6 6.49999 23.5 6.49999C23.4 6.49999 23.3 6.29999 23.2 6.29999C22.9 6.19999 22.2 6.29999 22 6.39999C21.8 6.49999 21.4 6.39999 21.3 6.29999C21.1 6.29999 21.1 6.29999 21 6.39999C21 6.49999 21 6.79999 21.1 6.99999C21 7.09999 20.9 7.09999 20.8 7.19999C20.9 7.39999 20.9 7.39999 20.9 7.59999C20.7 7.59999 20.6 7.59999 20.4 7.59999C20.4 7.49999 20.4 7.49999 20.4 7.39999C20.4 7.49999 20.4 7.39999 20.3 7.59999C20 7.59999 19.7 7.59999 19.4 7.59999C19.4 7.39999 19.5 7.39999 19.5 7.29999V7.19999C19.3 7.19999 19.4 7.19999 19.2 7.29999C19.2 7.39999 19.2 7.49999 19.3 7.69999C19.2 7.69999 19.1 7.69999 19 7.69999C19 7.59999 19 7.59999 19 7.49999C18.9 7.49999 18.9 7.49999 18.8 7.39999C18.8 7.29999 18.8 7.39999 18.7 7.29999C18.7 7.29999 18.7 7.29999 18.8 7.29999C18.8 7.29999 18.8 7.29999 18.8 7.19999C18.9 7.19999 18.9 7.19999 19 7.29999C19.1 7.39999 19 7.29999 19 7.49999C19 7.49999 19 7.49999 19.1 7.49999C19.1 7.49999 19.1 7.49999 19.1 7.39999C19.1 7.39999 19.1 7.39999 19.2 7.39999C19.2 7.19999 19.1 7.19999 19 7.19999C18.9 7.19999 18.9 7.19999 18.8 7.29999C18.8 7.49999 18.8 7.49999 18.9 7.59999V7.69999C18.8 7.69999 18.7 7.69999 18.6 7.69999C18.6 7.49999 18.6 7.29999 18.6 6.99999C18.2 6.99999 18.1 6.99999 17.9 6.79999C17.9 4.69999 17.9 2.39999 17.8 0.399994C17.6 0.599994 17.7 1.39999 17.7 1.69999C17.7 2.79999 17.7 3.99999 17.7 5.09999C17.7 5.39999 17.8 6.19999 17.6 6.39999C17.6 6.89999 17.5 6.99999 17 6.99999C17 6.99999 17 6.99999 17 7.09999C17 7.09999 17 7.09999 16.9 7.09999C16.9 7.29999 16.9 7.49999 16.9 7.69999C16.1 7.69999 15.2 7.69999 14.4 7.69999C14.3 7.59999 14.3 7.49999 14.2 7.39999C13.7 7.39999 12.9 7.29999 12.6 7.49999C12.6 7.59999 12.6 7.69999 12.5 7.79999C12.1 7.89999 12 8.19999 11.8 8.39999C11.7 8.49999 11.5 8.49999 11.4 8.59999C11.3 8.69999 11.4 9.09999 11.1 8.99999C11.1 9.09999 11 8.99999 11 8.99999V9.09999C10.8 9.39999 10.7 9.39999 10.8 9.79999C12.5 10.2 14.6 10.4 16.3 10.9C16.7 11 17.1 11 17.5 11.1C17.9 11.2 18.4 11.4 18.8 11.6C19.1 11.7 19.4 12 19.7 12.1C19.6 12.2 19.5 12.2 19.4 12.2C19.4 12.3 19.4 12.3 19.4 12.4C18.9 12.3 18.5 11.8 18 11.8C18 11.7 18 11.7 18 11.6C18 11.7 18 11.6 17.9 11.8C17.8 11.8 17.7 11.8 17.5 11.8C17.5 11.7 17.5 11.7 17.5 11.6C17.4 11.7 17.4 11.6 17.4 11.8C16.6 11.5 15.6 11.7 14.7 11.7C14.4 11.7 13.9 11.6 13.8 11.8C13.7 11.7 13.7 11.8 13.7 11.6C13.6 11.7 13.6 11.6 13.6 11.8C13.6 11.7 13.6 11.8 13.5 11.6C13.3 11.6 13.2 11.6 13 11.6C13 11.7 13 11.7 13 11.8C12.9 11.7 12.9 11.8 12.9 11.6C12.9 11.7 12.9 11.6 12.8 11.8C12.4 11.7 10.5 11.6 10.1 11.7C9.79999 11.7 9.49999 11.7 9.19999 11.7V11.8C9.09999 11.8 9.09999 11.8 8.99999 11.8C8.99999 11.7 8.99999 11.7 8.99999 11.6C8.99999 11.6 8.89999 11.7 8.89999 11.8L8.49999 11.7V11.6C8.49999 11.6 8.49999 11.6 8.39999 11.6C8.39999 11.7 8.39999 11.7 8.39999 11.8C8.19999 11.8 8.09999 11.8 7.89999 11.8C7.89999 11.7 7.89999 11.7 7.89999 11.6C7.69999 11.6 7.49999 11.6 7.29999 11.6C7.29999 11.7 7.29999 11.7 7.29999 11.8C7.09999 11.8 6.19999 11.8 5.99999 11.9H5.89999C5.99999 11.7 5.99999 11.8 6.19999 11.8C6.09999 11.6 5.99999 11.8 5.89999 11.6C5.89999 11.6 5.89999 11.5 5.79999 11.5C5.79999 11.4 5.69999 11.5 5.59999 11.6C5.49999 11.6 5.49999 11.6 5.39999 11.6V11.5C5.49999 11.5 5.59999 11.5 5.69999 11.4C5.69999 11.3 5.69999 11.3 5.69999 11.2C5.59999 11.2 5.59999 11.2 5.49999 11.2L5.59999 11.3C5.49999 11.3 5.59999 11.3 5.49999 11.2C5.39999 11.1 5.39999 10.9 5.39999 10.7C5.09999 10.7 4.89999 10.7 4.49999 10.7C4.59999 10.8 4.59999 10.7 4.79999 10.8C4.69999 10.9 4.59999 10.9 4.49999 10.7H4.39999C4.39999 10.9 4.39999 11.2 4.39999 11.4C4.49999 11.4 4.59999 11.4 4.69999 11.4C4.69999 11.5 4.69999 11.6 4.69999 11.7C4.69999 11.6 4.69999 11.6 4.59999 11.5C4.49999 11.5 4.39999 11.5 4.29999 11.5C4.29999 11.3 4.29999 11.1 4.29999 10.9C3.79999 10.9 3.19999 10.9 2.69999 10.9C2.69999 11.2 2.59999 11.3 2.39999 11.4C2.39999 11.6 2.39999 11.5 2.59999 11.6C2.39999 11.8 1.99999 11.8 1.69999 11.8C1.69999 11.9 1.79999 11.9 1.89999 12C1.89999 12 1.79999 12.1 1.69999 12.1C1.59999 12.1 1.49999 12.1 1.29999 12C1.29999 12.1 1.29999 12.1 1.29999 12.2H1.19999C1.09999 12.4 1.39999 12.5 1.29999 12.8H1.19999C1.19999 12.9 1.29999 12.8 1.29999 12.9C1.29999 13.2 1.29999 13.5 1.29999 13.8C1.39999 13.8 1.39999 13.8 1.49999 13.9H1.59999C1.59999 14.3 1.49999 14.6 1.39999 14.9C1.29999 15.2 1.59999 15.2 1.49999 15.4V15.5H1.59999C1.69999 15.3 1.69999 15.3 1.79999 15.2C1.89999 14.8 1.89999 14.4 1.99999 14C2.09999 14 2.19999 14 2.29999 13.9C2.29999 13.8 2.29999 13.9 2.39999 13.7C2.49999 13.7 2.49999 13.7 2.59999 13.7C2.49999 13.7 2.59999 13.7 2.49999 13.8C2.59999 13.9 2.49999 13.8 2.59999 13.9C2.59999 14.1 2.49999 14.3 2.49999 14.7C2.39999 14.7 2.29999 14.7 2.19999 14.7C2.19999 14.9 2.19999 15 2.29999 15.2C2.29999 15.1 2.29999 14.9 2.29999 14.8C2.39999 14.8 2.39999 14.8 2.49999 14.8C2.49999 15 2.49999 15.1 2.39999 15.3H2.29999V15.4C2.09999 15.5 1.79999 15.6 1.59999 15.7C1.49999 15.7 1.49999 15.7 1.39999 15.7C1.29999 15.7 1.29999 15.9 1.19999 15.9C1.19999 16 1.19999 15.9 1.09999 16C0.999988 15.8 0.799988 15.7 0.599988 15.6C0.499988 15.7 0.299988 15.8 0.199988 15.9C0.199988 16.3 0.0999878 16.5 0.299988 16.8C0.399988 16.8 0.499988 16.9 0.499988 16.9C0.799988 16.9 0.999988 16.8 1.09999 16.6C1.19999 16.7 1.19999 16.8 1.29999 16.9C1.59999 17 2.19999 17.3 2.49999 17.1C2.89999 17.1 3.29999 17.1 3.49999 17.2C3.49999 17.4 3.19999 18 3.39999 18.2C3.49999 18.4 3.49999 18.4 3.59999 18.5C3.89999 18.5 4.09999 18.1 4.29999 18.2L4.49999 18.4C4.79999 18.6 5.19999 18.8 5.49999 18.9C5.79999 19 8.19999 20.3 9.59999 20.6C12.5 20.6 15.5 20.6 18.4 20.6C22.6 20.6 26.7 20.6 30.9 20.6C32.2 20.6 33.5 20.6 34.7 20.6C35.4 20.6 36 20.6 36.7 20.5C38.2 20.1 39.5 19.2 40.8 18.6C40.9 18.6 40.9 18.6 41 18.6C41.2 18.5 41.4 18.3 41.6 18.2C41.8 18.2 41.8 18.4 42 18.3C42.3 18.2 42.1 18 42.3 17.7C42.4 17.6 42.4 17.6 42.5 17.5C42.7 17.3 42.7 17 42.8 16.7C42.9 16.5 43.3 16.4 43.5 16.3C43.6 16.1 43.2 15.5 42.9 15.5C43 15.3 43.1 15.1 43.3 14.9C42.9 14.7 42.6 14.5 42.4 14C42.3 14 42.2 13.9 42.2 13.9C42.1 13.9 41.9 13.9 41.8 14L41.7 13.9C41.5 13.9 41.3 13.9 41.1 13.9V13.8C41 13.7 40.8 13.6 40.6 13.5C40.6 13.3 40.7 13.3 40.5 13.2C40.5 12.9 40.5 12.4 40.4 12.2C40.3 12.2 40.1 12.2 40 12.1C40 12.3 40 12.4 40 12.6C39.9 12.5 39.9 12.3 39.9 12.2C39.6 12.2 39.5 12.3 39.4 12.5C39.4 12.5 39.4 12.5 39.3 12.5C39.3 12.4 39.3 12.3 39.3 12.1C39.2 12.1 39.2 12.1 39.1 12.1C39.1 12.3 39.1 12.4 39.1 12.6C38.6 12.5 38.2 12.4 37.8 12.2C37.6 12.1 37.3 12.3 37.1 12.1C36.7 12.1 36.7 12.1 36.7 11.8C37.1 12 36.8 12 36.5 12C36.5 12.1 36.5 12.1 36.5 12.2C36.2 12.2 36.2 12.1 36 12C35.7 11.9 35.5 12 35.3 12C35.3 12.1 35.3 12.1 35.3 12.2C35.1 12.2 34.9 12.2 34.7 12.2C34.8 11.8 35.4 11.8 35.7 11.7C35.7 11.6 35.7 11.5 35.8 11.4C37.1 11.4 38.4 11.4 39.5 11.4C40 11.4 40.6 11.5 40.9 11.4C41.9 11.2 43 11.6 43.8 11.3C44 11.2 44.4 11.3 44.6 11.4C44.7 11.4 44.8 11.4 45 11.3C45.5 11.3 46.1 11.4 46.4 11.3C46.7 11.2 47.2 11.4 47.4 11.4C47.9 11.3 48.4 11.3 48.8 11.3C48.9 11.3 49.1 11.4 49.1 11.4C49.7 11.3 50.2 11.3 50.9 11.3C51.1 11.3 51.6 11.4 51.8 11.4C52.2 11.4 52.5 11.3 52.8 11.4C52.9 11.3 53.7 11.3 53.7 11.3V11.4L53.8 11.3H54.4L54.5 11.4V11.3L55.4 11.4L55.8 11.3L56.5 11.4V11.3C56.5 11.3 56.8 11.3 57 11.3C57 11.4 57 11.4 57 11.5C58.1 11.5 59.1 11.5 60.2 11.5C60.2 11.4 60.2 11.4 60.2 11.3C60.5 11.3 62 11.3 62.2 11.2C62.4 11.1 62.3 11.1 62.5 11C62.6 10.6 62.6 10.5 62.5 10.3ZM23.3 4.99999V5.09999C23.2 5.09999 23.2 5.09999 23.1 5.09999C23.1 4.99999 23.1 4.99999 23.2 4.99999L23.1 4.89999C23.3 4.89999 23.2 4.89999 23.3 4.89999V4.99999ZM24.9 5.69999C25 5.69999 24.9 5.69999 25 5.79999C24.9 5.79999 25 5.79999 24.9 5.69999ZM17.3 7.39999C17.1 7.39999 17.1 7.39999 17 7.49999H16.9C16.9 7.29999 16.9 7.09999 16.9 6.89999C17.1 6.89999 17.2 6.89999 17.4 6.89999C17.3 7.09999 17.3 7.19999 17.3 7.39999ZM18.3 7.49999C18.1 7.49999 18.1 7.39999 17.9 7.39999C17.9 7.19999 17.9 7.09999 17.8 6.99999C17.8 6.99999 17.8 6.99999 17.8 6.89999C18 6.89999 18.1 6.89999 18.3 6.89999C18.3 7.19999 18.3 7.39999 18.3 7.49999ZM19.1 7.39999C19.1 7.29999 19.1 7.29999 19 7.19999C19.1 7.19999 19.1 7.19999 19.2 7.09999C19.2 7.19999 19.2 7.19999 19.1 7.29999C19.2 7.39999 19.2 7.39999 19.1 7.39999ZM0.999988 16.4C0.899988 16.4 0.999988 16.4 0.899988 16.5C0.899988 16.4 0.899988 16.4 0.799988 16.4C0.799988 16.3 0.799988 16.2 0.899988 16.1C0.999988 16.1 1.09999 16.1 1.19999 16.2C1.19999 16.4 1.19999 16.4 0.999988 16.4ZM4.29999 18C4.19999 18 4.09999 18 3.99999 18.1C3.99999 18 3.99999 17.9 4.09999 17.8V17.7C4.19999 17.7 4.29999 17.8 4.39999 17.9C4.29999 17.9 4.29999 18 4.29999 18ZM4.99999 11.7C4.89999 11.7 4.89999 11.6 4.79999 11.7C4.79999 11.6 4.79999 11.7 4.69999 11.5C4.79999 11.5 4.89999 11.5 4.99999 11.5C4.99999 11.6 4.99999 11.7 4.99999 11.7ZM7.59999 11.6C7.79999 11.6 7.89999 11.6 8.09999 11.6C7.99999 11.7 7.69999 11.7 7.59999 11.6ZM13.1 11.6C13.2 11.6 13.3 11.6 13.5 11.6C13.4 11.7 13.2 11.7 13.1 11.6ZM26.2 4.99999C26.1 5.09999 26.1 5.09999 26 4.99999C26.1 4.99999 26.1 4.99999 26.2 4.99999ZM26.8 7.39999C26.5 7.39999 26.4 7.39999 26.3 7.59999C25.7 7.59999 26 7.29999 25.6 7.09999C25.7 6.89999 25.6 6.69999 25.7 6.59999C25.7 6.49999 25.7 6.29999 25.7 6.19999C26 6.19999 26.2 6.29999 26.5 6.39999C26.5 6.89999 26.5 6.99999 26.9 7.09999C26.8 7.19999 26.8 7.29999 26.8 7.39999ZM33.4 8.49999C33.3 8.59999 33.1 8.49999 33 8.29999C33.1 8.29999 33.1 8.19999 33.2 8.09999C33.3 8.09999 33.3 8.09999 33.4 8.19999C33.4 8.29999 33.4 8.19999 33.5 8.29999C33.5 8.39999 33.5 8.49999 33.4 8.49999ZM41.1 13.8C41.1 13.8 41.2 13.8 41.2 13.9C41.1 14.1 41 13.9 41.1 13.8ZM40.7 12.3C40.8 12.3 40.9 12.3 41 12.4C41 12.7 41 13 41 13.3C40.9 13.3 40.8 13.2 40.7 13.2C40.7 12.8 40.7 12.5 40.7 12.3ZM39.2 12.8C39.4 12.8 39.6 12.9 39.7 12.9C39.7 12.9 39.7 12.9 39.7 13C39.7 13 39.7 13 39.8 13C39.8 13.1 39.8 13.1 39.8 13.2C39.6 13 39.5 13 39.2 13C39.2 12.9 39.2 12.9 39.2 12.8ZM37.3 12.1C37.2 12.1 37.3 12.1 37.2 12C37.3 12.1 37.2 12 37.3 12.1ZM36.8 12H36.9V12.1H36.8C36.8 12.1 36.8 12.1 36.8 12ZM40.6 9.79999C40.6 9.79999 40.6 9.69999 40.7 9.69999C40.6 9.69999 40.7 9.79999 40.6 9.79999ZM51.7 9.99999C51.6 9.99999 51.6 9.99999 51.5 9.99999V9.89999C51.6 9.89999 51.6 9.89999 51.7 9.99999ZM61.9 11C61.8 10.9 61.8 10.9 61.7 10.8C61.7 10.5 61.7 10.4 61.9 10.2C62 10.2 62 10.2 62.1 10.3C62.2 10.3 62.3 10.4 62.4 10.5C62.3 10.8 62.2 10.9 61.9 11Z" fill="#8C8C7C"/>
</svg>
