<?xml version="1.0" encoding="utf-8"?>
<!-- Generator: Adobe Illustrator 26.2.1, SVG Export Plug-In . SVG Version: 6.00 Build 0)  -->
<svg version="1.1" id="Layer_1" xmlns:sketch="http://www.bohemiancoding.com/sketch/ns"
	 xmlns="http://www.w3.org/2000/svg" xmlns:xlink="http://www.w3.org/1999/xlink" x="0px" y="0px" width="31.3px" height="17.6px"
	 viewBox="0 0 31.3 17.6" style="enable-background:new 0 0 31.3 17.6;" xml:space="preserve">
<style type="text/css">
	.st0{fill-rule:evenodd;clip-rule:evenodd;fill:#8C8C7C;}
</style>
<path class="st0" d="M5.4,17.6H23c0,0,0.9-0.1,1.2-0.2c1-0.5,2.7-1.9,3.3-2.8c0.1-0.1,0.2-0.4,0.2-0.5c0-0.1,0.1-0.4,0.1-0.5
	c0-0.1,0-0.4,0-0.5c0-0.1-0.1-0.4-0.2-0.5c-0.1-0.1-0.2-0.3-0.3-0.4c-0.1-0.1-0.4-0.3-0.5-0.3c-0.1,0-0.3-0.1-0.4-0.1
	c-0.1,0-0.5,0-0.5,0l-0.1-0.4l-0.1-0.2l-0.1,0l-3.7,0.1l-0.2-0.4l0.2-0.2v-0.1l-0.1,0h-0.1l0-0.2l-0.1,0l-0.3-0.1l0-0.1l-0.4-0.2
	l-0.1,0.1l-0.2-0.1l-0.4,0l-0.1-0.1l-0.1,0l-0.1,0.1l-0.2,0V9.6l0-0.1l-0.1-0.1l-0.1,0l0.2-0.1l-0.1-0.5h0.2L20,9.2l0.1,0l0.2-0.2
	h0.1V8.8H22L22.1,9h0.1l0.2-0.2h1.1L24,8.4V7.9l5.3-0.1v0h0.4L29.8,8v0.1h0.1V8h0V7.9l0-0.2V7.3H30v0.2h-0.1v0.1H30v0.2h-0.1l0,0.2
	H30v0H30v0.2h0.1l0.3-0.2V7.2L30.1,7H30v0.2h0v0h-0.1V7.1h0V7h-0.1v0.1l-0.1,0.1h-0.4v0.1l-7-0.1v0h-0.2v0h-1.7V6.9h-0.2l-0.9-0.9
	h-0.1l0.1,1.1h0l-0.2-0.9H19l-0.3,0.1l-0.2-0.7l-0.6,0h-0.7V5.5h0.2l0.1-0.1V5.4l0.2,0v0l0,0l-0.1,0h-0.1V5.1l-0.1,0h-0.3V4.9h-0.1
	V5h-0.3V5l-0.1-0.1h-0.5L16.1,5V5h0v0h-0.2v0h-0.1l-0.1,0V4.9h-0.1V5h-0.2v0h-0.1v0l0.3,0.2v0l-0.1,0.1v0.1l0.1,0h0.2v0.1h-0.3v0
	h-0.7v0h-0.2l-0.2-0.4h0l0.2,0.4h-0.1v0h-0.2l0-0.1c0,0,0,0-0.1,0c0,0-0.1,0-0.1,0c0,0,0,0,0,0l0,0h-0.1v0h-0.1v0h0v0h-0.5v0h0v0
	h-1.1v0H12V5.4l0-0.1h-0.4l0,0.1v0.1v0h0.1V5.4H12v0.2h-0.4h-0.9l-1,4.1H11v0.2h-0.3V9.7l-0.6,0v0h0v0h-0.1l-0.3,0H9.5V9.4H9.5V1
	H9.4v8.4H9.3L9.2,9.5H9.1v0.4l0.1,0h0.1v0H9.1L8.8,10V9.9h0.1v0h0.1V9.5H8.8L8.7,9.4H8.6V1H8.5v8.4H8.5L8.4,9.5v0.4h0v0l-0.1,0.1
	H8.2v0l0.1-0.1V9.5L7.9,9.3H7.7l0,0l0,0l-0.2,0.7H7.4V10H7.4v0H7.2v0h0V9.9l0,0h0l0,0V10l-0.1,0H6.6v0H6.2v0H6v0.1h0l-0.1-0.1H5.9
	v0.2l-0.4,0v0l-0.1,0h0l0,0v0.1H5.1v0l-0.1,0h0l-0.1,0v0h0v0l-0.2,0v0H4.7l0,0l-3.5,0.1v0.3l-0.7-0.1v0.6l0.5,0l0.2,0v0.1l-0.1,0
	v0.4h0l0-0.4l0,0l-0.1,0c0,0-0.1,0-0.2,0.1c0,0-0.1,0.1-0.1,0.1c0,0,0,0.1,0,0.1c0,0.1,0,0.2,0,0.2v0.1L0.5,12H0.4l-0.2-0.7l-0.1,0
	l0.1,0.8l0.1,0.2l0.2,0.2l0.1,0.4L0.5,13L0.5,13l0,0.1h0.1l0,0.1c0,0-0.2,0.4-0.3,0.6c0,0.2,0,0.7,0,0.9c0,0.2,0.2,0.5,0.3,0.6
	c0.1,0.1,0.4,0.4,0.6,0.5c0.3,0.2,0.8,0.5,1.1,0.6c0.4,0.2,1.1,0.6,1.5,0.8c0.2,0.1,0.7,0.3,0.9,0.3C4.9,17.5,5.4,17.6,5.4,17.6z"/>
</svg>
