<?xml version="1.0" encoding="utf-8"?>
<!-- Generator: Adobe Illustrator 17.1.0, SVG Export Plug-In . SVG Version: 6.00 Build 0)  -->
<!DOCTYPE svg PUBLIC "-//W3C//DTD SVG 1.1//EN" "http://www.w3.org/Graphics/SVG/1.1/DTD/svg11.dtd">
<svg version="1.1" id="Layer_1" xmlns="http://www.w3.org/2000/svg" xmlns:xlink="http://www.w3.org/1999/xlink" x="0px" y="0px"
	 width="47px" height="16px" viewBox="0 0 47 16" enable-background="new 0 0 47 16" xml:space="preserve">
<path fill="#8C8C7C" d="M5,16h27l4-4v-2l-2-1V8h-1v1h-1V8h-6V6h16v1h4l1-1l0,0l-1-1h-4H30l-2-1h-2V3h-2V2h6l-1-2h-8l-2,2h-3l-3,1
	l-2,2v1h4v1H8V5H5L2,6L0,8v4l2,3C2,15,4.7,16,5,16z"/>
</svg>
