<?xml version="1.0" encoding="utf-8"?>
<!-- Generator: Adobe Illustrator 22.1.0, SVG Export Plug-In . SVG Version: 6.00 Build 0)  -->
<svg version="1.1" id="Layer_1" xmlns="http://www.w3.org/2000/svg" xmlns:xlink="http://www.w3.org/1999/xlink" x="0px" y="0px"
	 width="43px" height="23.2px" viewBox="0 0 43 23.2" style="enable-background:new 0 0 43 23.2;" xml:space="preserve">
<style type="text/css">
	.st0{fill-rule:evenodd;clip-rule:evenodd;fill:#8C8C7C;}
</style>
<path class="st0" d="M15,14.1v-0.8H9l0-1.1L9.1,0l0.2,12.1h0.3l2.5-3l3.9,0l0-4.5l0.2,4.5h0.4V8.5L17,7.8l1.5,0v-1h1v0.7h0.7v0.3
	h0.2L21,8.5V9l1.3,0.3V8.5H23v1l2.9,0.4l0.9,0.8l1.2,0.2V11l2.1,0.2l12.9,0V12l-13,0.1l-2,0.2l0,0.2l-1.3,0.2l-0.9,0.6h-0.4v0.8
	l3.6,0v1l2,0l1,0l0-1l-1,1l0,1.1l3.9,0l2,1.9l-1,0l0,2l-3.8,3l-25,0l-4-1l-2-2l0-2.1l-1,0l0-1.8l2,0l0-2.1L15,14.1z"/>
</svg>
