<svg width="71" height="18" viewBox="0 0 71 18" fill="none" xmlns="http://www.w3.org/2000/svg">
<path fill-rule="evenodd" clip-rule="evenodd" d="M70.768 6.29272V4.91572H67.729L67.634 4.82072L63.218 4.86772L63.123 4.96272V5.01072H37.86L37.528 4.86872H36.15C36.15 4.86872 36.136 4.73972 35.818 4.67872C35.5 4.61772 35.2 4.53572 35.2 4.53572H34.963L33.728 4.01372C33.7866 3.98745 33.8384 3.9481 33.8795 3.89871C33.9206 3.84931 33.9498 3.79116 33.965 3.72872C33.9664 3.65575 33.9442 3.58427 33.9017 3.52497C33.8591 3.46567 33.7985 3.42173 33.729 3.39972C33.6605 3.39125 33.5912 3.40518 33.5313 3.43944C33.4715 3.47369 33.4243 3.52642 33.397 3.58972C33.402 3.66864 33.402 3.7478 33.397 3.82672L32.922 3.49472L32.875 3.54172L32.733 3.92172L31.023 3.25672L29.409 2.92472C29.4586 2.73816 29.4905 2.5473 29.504 2.35472C29.4757 2.28855 29.4298 2.23144 29.3712 2.18963C29.3127 2.14783 29.2437 2.12295 29.172 2.11772C29.0881 2.12413 29.0077 2.15435 28.9404 2.20483C28.8731 2.25532 28.8216 2.32397 28.792 2.40272C28.76 2.59072 28.697 2.82972 28.697 2.82972L27.415 2.54472C27.3876 2.5109 27.3687 2.47098 27.36 2.42833C27.3513 2.38568 27.353 2.34157 27.365 2.29972C27.386 2.12072 27.507 1.63472 27.507 1.63472L26.843 1.49972L25.988 1.87972L25.893 2.21172H22.332V2.06672L22.427 2.01972L22.474 1.92472L22.237 1.87772V1.39972H22.142L21.9 1.68672V1.78172H22.042V1.87672H20.385C20.3238 1.80021 20.2427 1.74201 20.1506 1.7085C20.0585 1.67499 19.959 1.66745 19.863 1.68672C19.426 1.68672 19.388 1.87672 19.388 1.87672H16.728L16.538 2.06672L16.4 1.97172H16.3L16.347 2.11372L16.4 2.20872H15.779L15.731 0.261719H15.494V2.20872H14.259L13.974 3.01572H11.22L11.03 3.11072L10.982 3.20572V5.48572C11.0171 5.55758 11.0656 5.62207 11.125 5.67572C11.158 5.66972 13.5 6.09972 13.5 6.09972L15.447 7.28672L15.4 7.38672L13.643 7.19672C13.6296 7.14662 13.6012 7.1018 13.5617 7.06823C13.5222 7.03466 13.4733 7.01394 13.4217 7.00883C13.3701 7.00373 13.3182 7.01448 13.2728 7.03965C13.2275 7.06482 13.1909 7.10322 13.168 7.14972L13.024 7.09972L12.217 6.71972L11.742 6.57772L11.647 6.43572H10.46V6.57772H10.175V6.43572H9.03496V6.57772H8.79996L8.69996 6.43572H7.51596V6.57772H7.23096L7.18396 6.43572H6.04396L5.99996 6.57772H5.75896L5.65896 6.43572H4.57196L4.52496 6.57772H3.90696V6.76772L3.81196 6.72072L2.86196 5.86572L2.14996 6.48272H1.95996L1.72296 6.76772L1.34296 6.90972V7.00972L1.48496 7.05672L0.819963 7.62672L0.439963 7.86372L0.0599627 8.33872L0.439963 9.47872C0.323056 9.53617 0.222538 9.62219 0.147722 9.72882C0.0729055 9.83545 0.0262106 9.95924 0.0119629 10.0887V10.0957C0.0344137 10.226 0.096648 10.3461 0.190116 10.4396C0.283584 10.533 0.4037 10.5953 0.533963 10.6177L0.392963 10.8997V12.3247H0.582963V10.8997H0.629963L1.29996 11.1837V11.3737L1.44196 11.4207L1.53696 11.3737L1.57996 11.5167L1.10496 11.7067L1.29996 12.1337L1.34696 12.3717L1.44196 12.4667V12.8467C1.37935 12.8971 1.33051 12.9624 1.29996 13.0367C1.31091 13.1011 1.32662 13.1646 1.34696 13.2267L1.57996 13.2737H2.00696L2.24396 13.9387L2.57596 13.9857L2.48096 14.3177L3.19296 14.9347L3.38296 14.8397V15.1247L4.23796 15.5047L4.33796 15.4577V15.5527L5.23796 15.9797L5.33796 15.9327V16.0277L6.23796 16.4077L8.23196 17.1677C8.23196 17.1677 9.34896 17.5597 9.37196 17.5477C9.39496 17.5357 10.607 17.7377 10.607 17.7377H35.058L36.293 17.3577L37.812 16.6457L39.522 15.6957L41.042 14.6957L41.897 13.9837L41.8 13.6997L42.132 13.6527L42.464 12.7527L42.274 12.5147L42.511 12.3247L42.369 11.3747L42.084 11.2797L42.984 10.4727L41.8 9.37972L41.658 9.18972L41.373 8.95272H40.9L40.093 8.76272H39.57L39.428 8.66272H39V7.99972H38.382C38.2835 8.05649 38.2017 8.13824 38.145 8.23672C38.121 8.33672 38.098 8.47372 38.098 8.47372V8.56872H38V8.42972L37.858 8.33472H37.718L37.528 8.38172H36.483L36.2 8.33472L35.963 7.90772V7.80772L36.2 7.42772V7.29072H34.773L34.726 7.57572C34.726 7.57572 34.033 7.36872 33.919 7.33872C33.8271 7.30789 33.7309 7.29203 33.634 7.29172C33.59 7.30272 33.302 7.33872 33.302 7.33872L32.875 7.43372L32.495 7.57672L31.83 7.47672L32.875 7.33472C33.0587 7.27772 33.235 7.19882 33.4 7.09972C33.4603 7.04847 33.5237 7.00105 33.59 6.95772L33.875 7.24272C33.9747 7.14949 34.0864 7.06981 34.207 7.00572C34.263 7.00572 34.967 6.72072 34.967 6.72072C34.967 6.72072 35.816 6.56772 35.822 6.57872C35.9019 6.56842 35.9811 6.55271 36.059 6.53172L36.2 6.38772H37.48L37.86 6.24572H63.123L63.17 6.43572H67.681L67.776 6.29372L70.768 6.29272ZM0.819963 9.09972H1.15296V8.95272L0.677963 8.47772L0.819963 9.09972Z" fill="#FAB81B"/>
</svg>
