<?xml version="1.0" encoding="utf-8"?>
<!-- Generator: Adobe Illustrator 22.1.0, SVG Export Plug-In . SVG Version: 6.00 Build 0)  -->
<svg version="1.1" id="Layer_1" xmlns="http://www.w3.org/2000/svg" xmlns:xlink="http://www.w3.org/1999/xlink" x="0px" y="0px"
	 width="36px" height="14.2px" viewBox="0 0 36 14.2" style="enable-background:new 0 0 36 14.2;" xml:space="preserve">
<style type="text/css">
	.st0{fill-rule:evenodd;clip-rule:evenodd;fill:#8C8C7C;}
</style>
<path class="st0" d="M36,2.9h-1V2.7h-4.3l0,0.8H30v0.2l-2,0V4l-0.7,0V3.8l-0.3,0v1.4h1V4.4h1v0.3h0.7v0.5l1.5,0V4.7L32,5.2l1,0v1h-1
	v0.2l3,0.5l0.6,0.2l0,1H35l-1,1l0,1.4l-0.4,0.5l-6,3l-0.5,0H7l-5.5-2.6l-0.8-0.8L0.5,10l0.2-1.1L0,8.2l1-1l0-1c0,0-0.8,0-0.8,0
	c0,0,0-0.5,0-0.5H1V5.2l7,0l0,0.5h1l1-1.2l0-0.4l1-0.3l0,0.4l4.2,0V3.6H16v0.5h2V3.5h-0.4L17,2.2l0.5-1l1.5,0l0.5-1H20L20,0l3,0
	l0,0.2h1v0.5h1.4L27,1.2l1,0v0.5h2V2l0.7,0l0,0.2H35V2.1h1V2.9z"/>
</svg>
