<svg xmlns="http://www.w3.org/2000/svg" xmlns:xlink="http://www.w3.org/1999/xlink" preserveAspectRatio="xMidYMid" width="24" height="13" viewBox="0 0 24 13">
  <defs>
    <style>
      .cls-1 {
        fill: #8c8c7c;
        fill-rule: evenodd;
      }
    </style>
  </defs>
  <path d="M4.208,12.960 L19.686,12.960 C19.686,12.960 22.067,11.139 22.702,10.426 C23.337,9.713 24.121,9.000 23.962,8.050 C23.803,7.099 23.020,5.629 22.543,5.233 C22.067,4.837 18.336,4.600 18.336,4.600 L17.701,4.283 L16.352,4.390 L16.828,4.089 L22.702,4.089 L22.702,2.505 L16.828,2.030 L15.796,1.317 L14.447,0.446 L10.875,0.287 L9.923,1.317 L8.494,1.475 L7.462,2.980 L7.541,3.851 L8.811,4.248 L2.064,4.168 L2.223,4.802 L3.096,5.436 L1.429,5.594 L0.318,6.545 C0.318,6.545 0.318,9.079 0.398,9.554 C0.477,10.030 2.461,11.693 2.461,11.693 L4.208,12.960 Z" class="cls-1"/>
</svg>
