<!DOCTYPE svg PUBLIC "-//W3C//DTD SVG 1.1//EN" "http://www.w3.org/Graphics/SVG/1.1/DTD/svg11.dtd">
<svg xmlns="http://www.w3.org/2000/svg" xmlns:xlink="http://www.w3.org/1999/xlink" version="1.1" id="Layer_1" x="0px" y="0px" width="43" height="19" viewBox="0 0 43 19" enable-background="new 0 0 43 19" xml:space="preserve">
<style type="text/css">
      #path-1 {
        fill: #8c8c7c;
     }
    </style>

<path id="path-1" d="M5.4,18.6c0.7,0.3,1.7,0.2,2.7,0.2c-1.3,0,11.1,0,18.6,0c2,0,4,0,6.1,0c1-0.2,1.6-0.8,2.3-1.3  c1.6-1,3.5-1.7,2.5-4.2c0.2,0,0.4-0.1,0.4-0.3c-0.3-0.2-0.6-0.4-1-0.6c-0.4-0.1-0.7-0.2-1.1-0.3c0.1-0.1,0.1-0.2,0.1-0.3  c-0.9,0-1.8,0-2.7,0c-0.8,0-1.4,0-2,0.1c0,0,0-0.1,0-0.1c0-0.1,0-0.2,0-0.3c0.7,0,2-0.3,2.1-0.9c0.8,0,1.6,0,2.3,0  c0-0.1,0-0.2,0-0.3c-1.6,0-3-0.2-4.4-0.2c-0.1-0.6-1.7-0.2-2.2-0.4c-0.3-0.1-0.8-0.2-1.2-0.2c-0.5,0-1.7,0.2-2-0.1  c0.2-0.1,0.1-0.4,0.1-0.5c0.2,0,0.3-0.1,0.5-0.1c0-0.1,0-0.1,0-0.2c0.8,0,1.5,0,2.3,0c0-0.2,0-0.6,0-0.8c4.4,0,9.1-0.1,13.5-0.1  c0-0.2,0-0.7,0-0.9c-3.6,0-7.5,0-11.1,0c-0.6-0.2-1.6,0-2.4,0c0.2-0.2,0.1-0.7-0.1-0.9c-0.9,0-1.8,0-2.6,0c0-0.2,0,0-0.1-0.1  c-0.6-0.3-2.4-0.4-2.8-0.3c0,0,0-0.1,0-0.1c-0.6-0.1-0.2-0.1-1.1-0.4c0-0.1-0.6,0.1-0.6,0c-0.6,0-0.8,0-1.4,0c0-0.3,0-0.1-0.3-0.1  c0-0.1,0,0.1,0,0c-0.2,0-0.3,0-0.5,0c0,0.1,0-0.2-0.1-0.1c-0.2,0.2-0.8,0.1-1.1,0c0-0.3,0.1-0.6-0.1-0.8c0.1,0,0.2,0,0.2,0  c0-0.1,0,0.1,0,0c-0.2-0.1,0-0.1-0.1-0.2c-0.3,0.2-0.9,0.1-1.4,0.1c0-0.1,0-0.1-0.1-0.2c0,0.2,0,0.1-0.1,0.2c0-0.7,0-3.1,0-3.8  c0,0,0,0,0,0c0,0.7,0,3.1,0,3.8c-0.3,0-0.7,0-0.9-0.1c-0.1,0.1-0.4,0.1-0.6,0.1c0,0.1,0-0.1-0.1,0c0.1,0,0.2,0,0.2,0  c-0.1,0.1-0.1,0.6-0.1,0.9c-1.7,0.1-3.3-0.1-5.1,0c0,1.3,0,2.7,0,4c1.3,0,2.7,0,4,0c0,0.2,0,0.8,0,1c-3.6,0-7.5,0-11.1,0  c0-0.1,0.1,0.2,0.1,0c-0.2,0-0.4,0-0.7,0c0,0.2,0-0.1,0.1,0c-0.1,0-0.4,0-0.5,0c0-0.3,0-0.9-0.1-1.1c-0.5,0-1.3,0-2,0  c0,0.6,0.5,1,0.5,1.4c0.1,0,0.4,0.1,0.6,0.1c0,0.2,0,0.2-0.1,0.4c0.1,0.1,0.1,1.6,0,2c-0.1,0.2,0.1,0.3,0,0.5c0,0,0.1,0.2,0.2,0.2  c0.3,0.1,0.5,0.3,0.8,0.5c-1.1,3,1.2,3.7,2.7,4.6"/>
</svg>