<?xml version="1.0" encoding="utf-8"?>
<!-- Generator: Adobe Illustrator 17.1.0, SVG Export Plug-In . SVG Version: 6.00 Build 0)  -->
<!DOCTYPE svg PUBLIC "-//W3C//DTD SVG 1.1//EN" "http://www.w3.org/Graphics/SVG/1.1/DTD/svg11.dtd">
<svg version="1.1" id="Layer_1" xmlns="http://www.w3.org/2000/svg" xmlns:xlink="http://www.w3.org/1999/xlink" x="0px" y="0px"
	 width="48px" height="17px" viewBox="0 0 48 17" enable-background="new 0 0 48 17" xml:space="preserve">
<path fill="#F9B71A" d="M0,5l2.9,0L3.1,6L7,6l0-0.9l1.9,0l0,0.9L13,6.2l0-1L9.9,5l0-3l3.9-1L14,0L18,0l0.2,1l2.3,0.1L23,1.9V1l0.9,0
	L24,1.9l1.2,0.4l0.2-0.3L26,2.6l0.4-0.3l0.4,0l0.9,0.3l4,0l0.3,0.3l4.4,0L36.7,3L45,3l1.2-0.3l0.4,0L48,3l0,0.9l-1.4,0.3l-0.3,0.2
	l-1-0.4l-0.4-0.1L36.6,4l-0.4,0.2l-4.3,0.1l-0.3,0.3l-4.2,0l-1.2,1.1l-1,0.2L28,6l3.1,0.1l0.9,0L32,7h1l0,0.9L32,7.9l0.2,0.8
	l5.9,1.3l0,0.1l-1.4,0l0.9,0.8l0.5,0.6L37.9,12l-1.1,1.9l-2.5,2l-3.5,1L8.2,17l-3.3-1.3l-1.1-1.3l-1-1.5l0.4-1.2L2.7,11l-0.4,0.3
	l-0.2-1L1.9,9.9l-1,0l0-1L2,9L2,8H1.1L0,7L0,5z"/>
</svg>
