<svg xmlns="http://www.w3.org/2000/svg" width="27" height="12" viewBox="0 0 27 12">
  <path fill="#FAB81B" fill-rule="evenodd" d="M0.706751414,10.1687136 C1.20758256,11.153273 2.49982458,11.951416 3.61649624,11.951416 L21.5257157,11.951416 C22.6318922,11.951416 24.0671342,11.2414642 24.7387541,10.356023 L25.4661053,9.39710757 C25.7984514,8.95895368 26.0678711,8.15794578 26.0678711,7.60699055 L26.0678711,7.36889648 L24.1883545,5.97436523 L23.1965332,5.95983887 L22.8206787,4.97827148 L22.0369263,4.97827148 L22.0369263,5.95983887 L21.274292,5.97436523 L20.0057983,5.1217041 L18.5206909,4.97827148 L18.0421143,3.97705078 L24.0396729,4.00476074 L24.0396729,2.96325684 L19.0341187,2.8927002 L19.0341187,2.03790283 L16.135376,0.916381836 L14.1583252,0.941650391 L13.6599121,0 L13.12854,0 L13.343811,0.916381836 L12.0985107,0.997070313 L11.2730713,1.36230469 L11.0032959,2.96325684 L10.1090088,3.80981445 L7.30041504,4.05236816 L6.58032227,4.82983398 L1.97229004,4.97827148 L0,6.52172852 L0.859558105,7.09942627 L0.979797363,8.10333252 L0.0997314453,8.97540283 L0.706751414,10.1687136 Z"/>
</svg>
