<svg xmlns="http://www.w3.org/2000/svg" width="24" height="12" viewBox="0 0 24 12">
  <path fill="#8C8C7C" fill-rule="evenodd" d="M17.2418278,11.9035825 C18.345315,11.9018871 19.9459459,11.3384224 20.8056517,10.6540326 L23.0894775,8.8359375 L22.8764648,6.74951172 L21.1087646,5.84509277 L16.2614746,5.88781738 L14.2800293,4.92602539 L14.2800293,2.91906738 L23.1568604,2.96594238 L23.1568604,1.93603516 L15.6563721,1.90441895 L15.1619873,0.821289063 L14.1573486,0 L14.1173096,1.89953613 L13.0675049,1.90161133 L12.817749,0.950561523 L12.0870361,0.932617188 L12.0870361,1.82287598 L9.28198242,1.92785645 L9.9498291,2.96166992 L11.729126,2.89331055 L11.154541,4.85168457 L4.16381836,4.90893555 L1.23608398,5.92858887 L0,5.99902344 L1.13562012,7.80407715 L1.7434082,7.91809082 L2.12207031,8.77966309 L0.200439453,9.28015137 L1.07448106,11.0313835 C1.32155642,11.5264244 1.95982648,11.9270615 2.52521375,11.9261928 L17.2418278,11.9035825 Z"/>
</svg>
