<?xml version="1.0" encoding="UTF-8"?>
<!-- Generator: Adobe Illustrator 25.3.1, SVG Export Plug-In . SVG Version: 6.00 Build 0)  -->
<svg version="1.1" id="Layer_1" xmlns="http://www.w3.org/2000/svg" xmlns:xlink="http://www.w3.org/1999/xlink" x="0px" y="0px" width="58.7px" height="19.3px" viewBox="0 0 58.7 19.3" style="enable-background:new 0 0 58.7 19.3;" xml:space="preserve">
<style type="text/css">
	.st0{display:none;fill-rule:evenodd;clip-rule:evenodd;fill:#8C8C7C;}
	.st1{fill-rule:evenodd;clip-rule:evenodd;fill:#FAB81B;}
</style>
<path class="st0" d="M8,18.8h23.4c0,0,0.7-0.2,1-0.2c1.3-0.4,3.7-1.4,4.8-2.2c0.2-0.1,0.5-0.5,0.7-0.7s0.4-0.7,0.5-0.9s0-0.7,0-0.9  c0-0.1-0.1-0.5-0.1-0.5h0.5c0,0-0.3-0.7-0.4-0.9c-0.1-0.2-0.5-0.6-0.6-0.7c-0.2-0.1-0.6-0.4-0.9-0.4c-0.2-0.1-0.9-0.1-0.9-0.1h-0.4  v-0.8h-0.5v0.6l-0.4-0.4l-0.2-0.4h0.3V9.4c0,0-0.1,0-0.2,0c-0.1,0-0.3,0.2-0.3,0.3s0,0.2,0,0.3l0.1,0.1v0.4h-0.2l-0.5-0.3h-0.3  l-1.1-0.7h-0.7v0.1H31l-0.1-0.7h0.2V8.6l0.2-0.2v0.7h0.2c0,0,0.4-0.4,0.6-0.5c0.1,0,0.6-0.2,0.6-0.2H35l0.3-0.1V8.2H42l0.1-0.1h0.3  V8H51l0.6,0.3h0.3L52,8.2h1L53.2,8V7.2L53,7h-0.9l-0.2-0.2h-0.3l-0.7,0.4h-8.6V7.1h-0.2L42,6.9h-6.6V6.8L35,6.7h-2.2  c0,0-0.6-0.3-0.8-0.4c-0.1-0.1-0.4-0.2-0.6-0.2c-0.1,0-0.4,0-0.4,0v0.5l-0.3-0.2h-0.1V6.1h-0.4L30.1,6H30c0,0-0.2-0.4-0.3-0.4  c-0.1,0-0.2-0.1-0.3-0.1c-0.1,0-0.2,0.1-0.2,0.1C29.1,5.7,29.1,6,29.1,6H29V5.8h-0.4v0.1h-0.1V5.6l-1.1-0.1V5.3h-0.6v0.1H26v0.2l0,0  v-1h-1.7V4.3h-0.9v0.3h-1.7v0.8h-0.2V5.2h-0.2v0.3l-0.7,0.1v0.1l-2.3,0.1V5.5c0,0-0.1-0.1-0.2-0.1s-0.2,0-0.3,0c0,0-0.1,0.1-0.2,0.2  c0,0.1,0,0.4,0,0.4h0.2c0,0-0.1-0.3,0-0.3l0.1-0.1H18l0.1,0.1c0,0.1,0,0.3,0,0.3l-1.4,0.1v0.3l-0.2,0.1l-0.2,0.7H16l-0.3,1.1h0.2  l-0.1,0.6v0.4h1.3v0.5h-0.4l-0.5-0.3H8.8L8.2,9.8H7.9L7.6,9.3H3.5L3.2,9.4L3.1,9.5H2.8v0.1H2.6v0.2L2.3,10L2,9.6l-0.7,0.6  c0,0-0.1-0.1-0.2-0.2C1,9.9,0.9,9.8,0.8,9.7c-0.1,0-0.3-0.1-0.5-0.1H0.2l-0.3-0.2h-0.5v0.2l0.2,0.4l0.2,0.1l0.1,0.1  c0,0-0.1,0.3-0.1,0.4c0,0.1,0,0.3,0,0.4c0,0.1,0.1,0.3,0.1,0.4c0,0,0.1,0.6,0.1,0.6l0.5-0.3l-0.2-0.2v-0.2h0.4h0.1v0.3L0,12.1h-0.1  c0,0-0.3,0.4-0.4,0.5c-0.2,0.1-0.4,0.6-0.4,0.6l0.7,0.3v1h0.3v-0.9l0.5,0.2c0,0-0.2,0.2-0.2,0.3s-0.1,0.3-0.1,0.3v0.1L0,14.6v0.8  h0.5v0.3h0.2v0.2H1v-0.2h0.2c0,0,0.1,0.3,0.2,0.4c0.1,0.1,0.2,0.3,0.3,0.4s0.3,0.3,0.4,0.4s0.4,0.2,0.6,0.3c1,0.4,3.2,1.1,4.2,1.4  c0.1,0,0.4,0.1,0.5,0.1C7.5,18.8,8,18.8,8,18.8z"/>
<g>
	<g>
		<path class="st1" d="M57.5,5.8l-0.1-0.1c-0.2,0-0.7,0.1-0.9,0.2c-0.4,0-1.3,0-1.3,0l0,0.1c0,0-11.9-0.1-17.1-0.1V5.8    c-0.5,0-1,0-1.6,0v0.1c-1.3,0-2.5-0.1-3.8-0.1c-0.2-0.2-0.6-0.5-0.8-0.7c-0.2-0.2-0.6-0.6-0.6-0.6L31,4.1c0,0-0.2,0-0.3,0.1    c0,0-0.1-0.1-0.1-0.1C30.5,4,30.4,4,30.2,4c0.1,0.1,0.3,0,0.4,0.1c0.2,0.2,0.6,0.6,0.8,0.8c0.2,0.1,0.2,0.2,0.4,0.4    c0,0.1,0,0,0,0.1c0.1,0.1,0.2,0.1,0.3,0.1c0,0,0,0.1,0,0.1c-0.4,0-0.6-0.4-0.8-0.6C31.3,5.1,31.2,5,31.1,5c0,0,0-0.1,0-0.1    c-0.1,0.2-0.4-0.2-0.4-0.3c-0.9,0.1-2.4,0.1-3.4,0.1h-1.1C24.9,5,23.3,4.9,22,5.2h-0.4c-0.5,0.1-1.1,0.1-1.5,0.2    c-0.3,0.1-0.6,0-0.8,0.1C19,5.5,19,5.4,19,5.2c-0.1,0,0,0,0,0c-0.5,0.1-1.1,0.2-1.6,0.4c-0.2,0.1-0.5,0-0.7,0.1h0V0.3    c-0.1,0.2,0,1.1,0,1.4v3.9c-0.3,0-0.7,0.1-1,0.2c-0.2,0-0.3,0.1-0.5,0.1c-0.4,0.1-0.9,0.3-1.3,0.3c-0.4,0.1-1.1,0.2-1.5,0.3    c-0.1,0-0.2,0.1-0.2,0.2c0,0.1-0.1,0.2-0.1,0.3c0,0,0.1,0.1,0.1,0.3c-0.1,0.3-0.3,0.7-0.3,1.2h6.7c0,0.1,0,0.2,0,0.4    c-0.5,0-1.5,0.1-1.7-0.2c-0.3,0-0.2,0.1-0.3,0.2h-0.9c-0.5,0-1,0-1.6,0c-0.2,0-0.5,0-0.6,0h-0.8V8.8h-0.4c-0.1,0-0.1-0.1-0.2-0.1    c-0.1,0-0.3,0.2-0.5,0.1c-0.1,0-0.1-0.1-0.2-0.1c0,0,0,0.1,0,0.1h-0.5c-0.1,0-0.3-0.1-0.5,0c-0.2,0-1,0-1.1,0v0.1    c-0.1,0.1-0.5,0-0.6,0c-0.2,0-0.3,0-0.5,0V8.8H5.7v0.1c-0.2,0-0.2-0.1-0.2-0.2c-0.3,0-0.2,0.1-0.3,0.2C5,9,5,8.8,4.9,9h0    c0-0.1,0-0.1,0.1-0.1c-0.1-0.1-0.2,0-0.3-0.1C4.5,8.7,4.5,8.5,4.4,8.4c0,0-0.2,0-0.2,0c0,0.1,0,0.1-0.1,0.1C4.1,8.9,4.1,9,4.3,9.3    c0,0-0.1,0-0.1,0c0,0.1-0.1,0.2-0.1,0.3v0C3.9,9.6,3.4,9.1,3.3,9C3.1,9,2.9,9.2,2.9,9.4C2.1,8.9,1.3,9.1,1,10    c-0.2,0.6,0.3,1.1,0.7,1.2c0.1,0.1,0.3,0.2,0.4,0.1h0c0,0.1,0.1,0.2,0,0.2c0,0-0.4,0.4-0.4,0.4c-0.1,0.1,0,0-0.1,0    c0,0.1,0,0.1,0,0.2c0,0-0.1,0.1-0.1,0.1c-0.1,0.1-0.1,0.2-0.2,0.3c-0.1,0.1-0.2,0.2-0.3,0.2c-0.1,0.2-0.2,0.4-0.3,0.6    c0,0.6,0.4,0.9,0.8,1.1c0.1,0,0.1,0,0.2,0c0,0.2,0.1,0.3,0.1,0.5c0,0,0.2,0.1,0.2,0.1c0,0.2,0,0.4,0,0.6c0.1,0.2,0.3,0.6,0.4,0.8    c0.4,0.4,1.4,0.7,2,1c0.6,0.3,1.1,0.5,1.7,0.8c0.2,0.1,0.5,0.3,0.8,0.4c0.6,0.2,1.4,0.1,2.1,0.1h21.7c0.8,0,2.5,0,2.8-0.1    c1.1-0.4,1.7-1.2,2.3-2c0.1-0.2,0.3-0.4,0.4-0.5c0.4-0.5,1-1.2,1-1.2l0.4-0.5c0,0,0.3-0.5,0.5-0.7c0.1-0.1,0.2-0.2,0.3-0.2v-0.1    c0.1-0.2,0.3-0.3,0.4-0.5c0.1-0.2,0.2-0.7,0.1-1c0-0.1-0.1-0.3-0.1-0.3c0-0.1,0.1-0.2,0.1-0.2c0-0.1,0-0.3,0-0.4    c-0.2-0.2-0.4-0.6-0.7-0.8c-0.3-0.1-0.6-0.2-0.8-0.2V9c-0.4,0-0.4,0.2-0.6,0.4c0,0.2,0,0.3,0.1,0.3v0h-0.6c0-0.2,0.1-0.5,0-0.6    V9.1c-0.1,0-0.1,0-0.1,0.1c-0.1,0.1-0.1,0-0.1,0.2c0,0,0-0.1-0.1-0.1c-0.1-0.1-0.2,0.1-0.3,0.2c-0.2,0-0.9-0.5-1.2-0.6V8.6    c-0.2,0-0.3,0.1-0.3,0.3c-0.2,0-0.2-0.1-0.5-0.1V8.2h0.2c0,0.1,0,0,0,0.1v0.2h0c0.1-0.1,0.1-0.2,0-0.3c0.4,0,0.5-0.1,0.8-0.1v0.1    h0.6c0.1,0-0.1,0.1,0,0.1c0.2,0,0.7,0.1,0.7-0.1h1.8c0.1-0.1,0.3-0.5,0.4-0.6c0-0.4-0.1-0.5-0.4-0.6V6.9c5.7,0,11.4-0.1,17.1-0.1    v0.1c0.6,0,1.3,0,1.7,0.1c0.2,0.1,0.5,0.1,0.6,0h0.7c0.1,0,0.1-0.1,0.2-0.2V6C58.2,5.7,57.9,5.9,57.5,5.8z M16.6,6.1    c-0.5,0.1-1,0.2-1.5,0.3h-0.7c-0.1,0-0.1,0.2-0.1,0.2c-0.7,0.1-1.4,0.3-2.1,0.4c0-0.2,0.1-0.2,0.2-0.3C12.9,6.6,14,6.4,14,6.4    s0.8-0.2,1.1-0.3c0.4-0.1,1-0.2,1.5-0.3V6.1z M1.8,12.2c0.1,0.1-0.1,0.2-0.2,0.4H1.4C1.5,12.4,1.7,12.3,1.8,12.2z M1.7,14.4    c-0.4-0.1-0.6-0.5-0.8-0.8c0-0.2,0.1-0.3,0.1-0.5C1,13.3,1,13.5,1.1,13.6C1.2,13.9,1.5,14.2,1.7,14.4L1.7,14.4z M1.8,13.7    C1.7,13.7,1.7,13.8,1.8,13.7L1.8,13.7c-0.2,0.1-0.2,0-0.2,0.2H1.5c-0.1-0.2-0.5-0.7-0.3-1v-0.1h0c0.1,0.1,0.2,0.2,0.3,0.3    c-0.1,0,0,0-0.1,0c-0.1,0.1,0,0.3,0,0.3c0,0-0.1,0,0,0h0.1v0.1c0.2,0,0.2,0,0.3-0.2c0.1,0,0.1,0,0.2,0.1    C1.9,13.6,1.8,13.7,1.8,13.7z M2,12.1L2,12.1c0-0.3,0.2-0.4,0.4-0.6h0C2.2,11.8,2.1,11.9,2,12.1z M5.5,8.9H5.3c0,0,0-0.1,0-0.1    C5.4,8.8,5.4,8.8,5.5,8.9L5.5,8.9z M16.9,8.9h-0.2c0,0,0-0.1,0-0.1L16.9,8.9L16.9,8.9z M18.9,5.6c-0.5,0.1-1,0.2-1.4,0.3    c-0.3,0.1-0.6,0-0.8,0.2h0V5.8c0.5-0.1,1-0.2,1.5-0.3c0.2-0.1,0.5,0,0.7-0.1c0.1,0,0.1,0,0.2,0V5.6z M34,7.3h-0.2V7.1    C33.8,7.1,33.9,7.2,34,7.3L34,7.3z M36.5,7.3h-1.8c-0.2,0-0.5,0-0.7,0c0-0.1,0-0.1,0-0.3c0.7,0,1.7-0.1,2.4-0.1V7.3z M57.3,6.7    c-0.3,0-0.7-0.1-0.8-0.2c0-0.1,0,0,0-0.1c0.2-0.1,0.5-0.2,0.8-0.2V6.7z M57.7,6.7c0,0-0.1,0-0.1,0c0-0.2,0-0.4,0-0.5    c0.2,0,0.4,0,0.5,0C58.1,6.4,58,6.9,57.7,6.7z"/>
	</g>
</g>
</svg>