<svg xmlns="http://www.w3.org/2000/svg" xmlns:xlink="http://www.w3.org/1999/xlink" preserveAspectRatio="xMidYMid" width="61" height="22" viewBox="0 0 61 22">
  <defs>
    <style type="text/css">
      .cls-1 {
        fill: #8c8c7c;
        fill-rule: evenodd;
      }
    </style>
  </defs>
  <path d="M0.932,14.964 L0.947,12.033 L1.999,11.158 L2.209,10.351 L7.797,10.340 L7.881,11.022 L15.957,11.033 L15.978,9.037 L16.973,8.993 L17.013,7.935 L15.020,7.945 L14.998,7.034 L16.742,7.024 L17.026,6.581 L18.078,6.034 L22.998,6.044 L23.009,8.980 L24.966,8.990 L24.986,5.961 L20.977,5.582 L20.965,1.955 L23.962,1.453 L23.933,0.679 L27.332,0.697 C27.458,1.117 30.357,0.970 30.357,0.970 L37.598,1.495 L38.017,3.037 L61.006,2.986 L60.996,3.993 L45.966,4.340 L45.944,4.982 L44.347,4.814 L44.179,5.150 L38.164,5.320 L38.153,6.243 L38.000,6.747 L38.003,8.969 L39.031,8.959 L39.022,6.983 L40.031,6.972 L40.022,6.020 L45.523,5.998 L47.070,6.159 L47.918,6.957 L54.766,6.959 C54.682,7.295 49.347,7.890 49.347,7.890 L47.984,8.896 L46.998,8.980 L47.008,10.486 L46.957,10.991 L49.389,10.990 L52.993,10.991 L53.018,9.979 L54.043,10.021 L54.012,10.991 L58.870,11.032 L59.849,11.914 L58.974,14.603 L58.954,15.611 L58.534,16.998 L53.506,20.932 L51.741,21.941 L10.654,21.958 L9.393,21.748 L1.579,19.098 L0.069,17.040 L-0.015,15.779 L0.932,14.964 Z" class="cls-1"/>
</svg>