<svg xmlns="http://www.w3.org/2000/svg" xmlns:xlink="http://www.w3.org/1999/xlink" preserveAspectRatio="xMidYMid" width="60" height="22" viewBox="0 0 60 22">
  <defs>
    <style type="text/css">
      .cls-1 {
        fill: #8c8c7c;
        fill-rule: evenodd;
      }
    </style>
  </defs>
  <path d="M1.025,9.091 L2.987,8.929 L3.028,7.913 L15.564,7.426 L18.055,6.897 L17.770,6.694 L18.961,2.017 L25.004,0.954 L27.944,0.973 L33.032,1.998 L34.741,2.001 L35.025,2.957 L57.958,2.998 L57.970,3.926 L43.268,4.216 L42.984,4.944 L41.250,5.016 L40.953,5.394 L35.994,5.638 L35.994,7.001 L37.866,6.985 L39.994,7.922 L39.990,6.816 L40.181,6.654 L40.712,6.010 L47.543,5.979 L48.955,6.248 L48.946,6.954 L56.989,6.929 L56.939,7.688 L51.646,7.685 L50.743,8.075 C50.743,8.075 48.908,9.016 49.071,9.016 C49.233,9.016 51.908,8.988 51.908,8.988 L52.652,9.985 L54.995,9.975 L54.955,10.694 L53.099,10.688 L54.011,11.953 L58.354,11.966 L59.070,12.950 L57.361,15.306 L58.026,15.994 L56.673,17.581 L52.164,21.509 L50.986,21.915 L10.852,21.859 L1.509,18.921 C1.509,18.921 0.969,17.012 0.969,16.850 C0.969,16.687 1.091,15.387 1.091,15.387 L1.956,13.894 L1.969,11.003 L1.025,10.919 L1.025,9.091 Z" class="cls-1"/>
</svg>