<svg xmlns="http://www.w3.org/2000/svg" xmlns:xlink="http://www.w3.org/1999/xlink" preserveAspectRatio="xMidYMid" width="39" height="17" viewBox="0 0 39 17">
  <defs>
    <style type="text/css">
      .cls-1 {
        fill: #8c8c7c;
        fill-rule: evenodd;
      }
    </style>
  </defs>
  <path d="M0.863,11.078 L2.812,10.685 L2.938,10.069 L3.464,9.932 L4.037,8.948 L1.990,8.958 L1.999,8.016 L3.956,8.025 L3.976,6.966 L6.011,6.966 L6.001,6.420 L9.021,6.400 L8.992,6.997 L18.980,4.941 L18.991,3.920 L17.993,3.940 L18.003,2.956 L19.930,2.956 L20.016,1.997 L21.033,1.162 C21.201,0.825 23.855,0.969 23.855,0.969 L24.076,1.753 L25.537,1.999 L26.714,1.957 L26.756,2.108 L30.970,2.066 L30.959,3.008 L28.899,3.009 L28.815,3.722 L26.953,3.996 L26.941,4.971 L27.990,4.971 L28.022,4.645 L31.012,4.644 C31.012,4.644 30.886,5.002 31.054,5.002 C31.222,5.002 32.624,4.992 32.624,4.992 L33.355,5.008 L38.021,4.988 L37.979,6.002 L35.038,6.034 L34.954,6.946 L32.015,6.937 L31.994,8.965 L36.069,8.974 L36.059,10.034 L37.750,10.027 L38.932,11.037 L38.942,12.298 L35.331,16.094 L33.901,16.977 L6.580,16.953 L5.277,16.323 L2.292,14.399 L1.662,13.306 L1.704,12.339 L2.250,11.751 L0.863,11.078 Z" class="cls-1"/>
</svg>