<?xml version="1.0" encoding="utf-8"?>
<!-- Generator: Adobe Illustrator 23.0.0, SVG Export Plug-In . SVG Version: 6.00 Build 0)  -->
<svg version="1.1" id="Layer_1" xmlns="http://www.w3.org/2000/svg" xmlns:xlink="http://www.w3.org/1999/xlink" x="0px" y="0px"
	 width="59.9px" height="19.3px" viewBox="0 0 59.9 19.3" style="enable-background:new 0 0 59.9 19.3;" xml:space="preserve">
<style type="text/css">
	.st0{fill-rule:evenodd;clip-rule:evenodd;fill:#FAB81B;}
</style>
<path class="st0" d="M29.6,19.3H8.1L6.5,19L2,16.3l-1.2-1.8L0,14.2l0.1-0.9l0.7-0.6l0.7-0.3l0.6-1.1l13.2,0.1l0.7-1.2L15,9.4h-2.1
	L8,8.6l0-1L6.4,7.3L6,6.9l1-1.7l1.1-0.6l0.6-0.3l1.8,0L11.3,5l2.7,0C13.9,5.4,14,0,14,0l0.5,4.8l0.7,0.4L16,4.2l1.9,0l1,0.9l2,0
	l1.9,0.1H25l0.6,0.6l3.2,0l0,0.3l-3.1,0l0.6,0.8l33.6,0.2l0,1l-34,0l-0.2,0.3h-0.4l-0.2,0.6l1.9,2.1l2.2,0l0.2-0.5l0.8,0v0.5
	l0.6,0.2c0,0,3.9,0.6,5.3,1.1c1.4,0.5,1,0.8,1,0.8l0.9,0.2l0.1,1.8l-1.1,0.1c0,0,0,1-1.4,1.7c-1.7,0.7-4.1,1.5-4.1,1.5
	S30.6,19.2,29.6,19.3z"/>
</svg>
