<?xml version="1.0" encoding="UTF-8"?>
<!-- Generator: Adobe Illustrator 24.0.0, SVG Export Plug-In . SVG Version: 6.00 Build 0)  -->
<svg version="1.1" id="Слой_1" xmlns="http://www.w3.org/2000/svg" xmlns:xlink="http://www.w3.org/1999/xlink" x="0px" y="0px" width="64px" height="18.3px" viewBox="0 0 64 18.3" style="enable-background:new 0 0 64 18.3;" xml:space="preserve">
<style type="text/css">
	.st0{fill-rule:evenodd;clip-rule:evenodd;fill:#8C8C7C;}
</style>
<path class="st0" d="M34.6,8.1V7.9h0.3l0.6-0.2l0.3-0.2l0.5-0.4h1.9L38.7,7L39,6.8V6.6l6.6-0.2v0.2h4.9V6.4h11.4L62,6.6h1.7V5.3  h-1.6l-0.2,0.2H50.5V5h-4.9v0.4L39,5.2V5l-0.5-0.2h-2l-0.3-0.2l-0.6-0.5L34.8,4l-0.5-0.1c0,0,0-0.4,0-0.5c0-0.1-0.2-0.2-0.3-0.3  c-0.1,0-0.2,0-0.3,0c-0.1,0-0.2,0.1-0.3,0.2c-0.1,0.1-0.1,0.4-0.1,0.4l-2.1-0.3V3H31V2.4h-0.9V3h-1V2.4l-1-0.5V1.5l-0.5-0.2h-0.3  V0.9h-0.8v0.3h-2.4V1.1l0.2-0.2l-0.2-0.2L23.6,1l-0.3,0.3v0.4H23v0.6l-0.2,0.2v0.3h-1.1V2.7l-0.3-0.1l-0.1-2.3l-0.2,2.1L21,2.7  l-0.2,0.3L20.4,3l-0.2-0.2l0.4-0.2l-0.1-0.3l-0.4-0.1l-1,0.3V0.4H19v2.2l-0.6,0.3l-0.2,0.2v0.3h0.3v0.3l-0.9,0.2l-0.3,0.9l-0.2-0.1  l0.2-1L15.2,4l-2.9,0.2l0.2,1.3l0.2,1.2h3.8L17,5.1l0.2,0.1L17,6.2l-0.2-0.1l-0.1,0.4l0.2,0v0.2l2.8,0.1c0,0,0.5,0.2,0.6,0.3  c0.1,0.1,0.3,0.3,0.3,0.4c0.1,0.1,0.1,0.5,0.1,0.5h0.8v0.2h-1.9V7.9l-0.2-0.2h-1.2l-0.2,0.2v0.2L6.2,8V7.8H4.9L3.8,7.9v0.2L3.1,8.5  L2.7,8.5L2.5,8.7L2.4,9L2.1,8.8L1.9,9.1L1.8,9.3L2,9.5l0.2,0.4l0.1,0.7l0.5-0.1l0.1,1.1c0,0-0.4,0.3-0.5,0.5  c-0.1,0.1-0.1,0.4-0.1,0.5c0,0.2-0.1,0.5-0.1,0.7c0,0.2,0.2,0.7,0.4,0.9c0,0.1,0.2,0.2,0.2,0.3c0.2,0.2,0.5,0.5,0.6,0.6  c0.2,0.2,0.6,0.5,0.9,0.6c1,0.6,3.1,1.5,4.2,1.9c0.2,0.1,0.8,0.2,0.8,0.2h29.4c0,0,0.5-0.1,0.7-0.2c1.4-0.5,4.1-1.6,5.3-2.5  c0.1-0.1,0.4-0.4,0.5-0.5c0.1-0.2,0.3-0.5,0.4-0.7c0-0.2,0.1-0.5,0.1-0.7c0-0.2-0.1-0.5-0.2-0.6c0-0.1-0.2-0.2-0.2-0.2l0.8-0.3  c0,0-0.2-0.5-0.4-0.6c-0.1-0.1-0.3-0.2-0.4-0.3c-0.3-0.2-1.2-0.6-1.2-0.6V9.2H43l-0.1,1.1c0,0-1.7-0.6-2.2-0.7  c-0.3-0.1-1.3-0.4-1.3-0.4V8.7L39,9V8.8h-0.6V8.5L38,8.4l-0.6-0.1l-0.2,0.2L35.7,8L34.6,8.1z"/>
</svg>