<?xml version="1.0" encoding="utf-8"?>
<!-- Generator: Adobe Illustrator 26.0.2, SVG Export Plug-In . SVG Version: 6.00 Build 0)  -->
<svg version="1.1" id="Layer_1" xmlns="http://www.w3.org/2000/svg" xmlns:xlink="http://www.w3.org/1999/xlink" x="0px" y="0px"
	 width="40.2px" height="12.3px" viewBox="0 0 40.2 12.3" style="enable-background:new 0 0 40.2 12.3;" xml:space="preserve">
<style type="text/css">
	.st0{fill-rule:evenodd;clip-rule:evenodd;fill:#FAB81B;}
</style>
<path class="st0" d="M5.4,12.2l17.2,0.1c0,0,0.5-0.1,0.6-0.2c0.1,0,0.3-0.2,0.4-0.2c0.2-0.1,0.5-0.3,0.7-0.4
	c0.7-0.4,2.9-1.6,2.9-1.6s0.2-0.2,0.3-0.2c0.1-0.1,0.2-0.4,0.3-0.6c0-0.1,0.1-0.4,0.1-0.6c0-0.1-0.1-0.3-0.1-0.3L27.8,8l0.7,0
	c0,0-0.3-1.3-0.5-1.6c0-0.1-0.2-0.2-0.2-0.2S27.7,6,27.7,6c-0.2-0.1-0.9-0.2-0.9-0.2l-0.1-0.3l-0.1-0.2h-0.2l0.2-0.6l0.1-0.3
	c0,0-0.5,0-0.7,0c-0.1,0-0.2,0.1-0.2,0.1c0,0-0.1,0.1-0.2,0.1c0,0-0.1,0.1-0.1,0.2c0,0.1-0.1,0.3-0.1,0.3L22,4.5l2.2-0.2h12.4
	l0.1,0.2h0.9l2.6,0.4V2.8l-2.6,0.3h-0.9l-0.1,0.2H24L18,3l-0.2-0.2h-4.1l-0.2-0.2l0-0.4l-0.2,0l0.1-0.4H13l-0.2,0.2h-1v0.2h-0.9
	L11,2h0.9V1.4h0.5L13.7,1V0.8h1.1V0.6h-1.1l0-0.1h-1.9l-0.2-0.2h-2L9.3,0H9.3L9.2,0.1l0,0.2H9.1L9,0.4v0.2H8.8l0,0.1l0,0.3H8.7
	l0,0.1v0.8l0,0.2l0.9,0.1l0.1,0.3H5.3L4.7,2.6l-0.1,0l0-0.2l-0.4,0l0-0.1L4.1,2.1L3.9,2.2L3.6,2.4H3.5L3.4,2.3L3.1,2.5l0-0.1
	L2.8,2.6l0.2,0.2H2.7v0.1L1.5,3L0.6,2.8L0.3,3.8L1,4L0.9,4.7l-0.1,0L0.7,5L0.2,4.9L0.1,5.2l0.3,0.2v0H0.3l0,0.1l0.1,0.2H0l0,0.2
	L0.3,6v0.2l0.2,0v0.2L0,8.1h0.4v0.3L0.1,8.6l0.1,0.3h0.1l0,0.4c0,0,0.2,0.4,0.3,0.6c0.1,0.1,0.3,0.3,0.4,0.4
	c0.1,0.1,0.4,0.3,0.5,0.4c0.6,0.4,2,1.1,2.7,1.4c0.1,0,0.2,0.1,0.3,0.1C4.7,12.1,5.4,12.2,5.4,12.2z"/>
</svg>
