<?xml version="1.0" encoding="utf-8"?>
<!-- Generator: Adobe Illustrator 22.1.0, SVG Export Plug-In . SVG Version: 6.00 Build 0)  -->
<svg version="1.1" id="Layer_1" xmlns="http://www.w3.org/2000/svg" xmlns:xlink="http://www.w3.org/1999/xlink" x="0px" y="0px"
	 width="58.2px" height="15px" viewBox="0 0 58.2 15" style="enable-background:new 0 0 58.2 15;" xml:space="preserve">
<style type="text/css">
	.st0{fill-rule:evenodd;clip-rule:evenodd;fill:#8C8C7C;}
</style>
<path class="st0" d="M2.6,7l2.9-1h1.9V5H10v0.8h6.2L16,5.1h-2.8c0,0,0-1.4,0-1.5c0-0.1,2.2-1.2,2.2-1.2l-0.1-0.3L17,1.2l1-0.2
	l0.1-0.6L20,0h1.2l1.2,0.4L23,1.1l1.1,0.2l0-0.7l0.9-0.1l0,0.8l1,0.1l0.1-0.8l1,0l0,0.9l2.6,0.3l1.9-0.1l0,0.3L35,2.6L55.7,3V2.7
	h1.2l0.4-0.3h1v1.9h-0.8l-0.7-0.2h-1L55.6,4L35.1,4.4l-2.9,0.1L31.3,5l-0.5-0.2l-0.6,0.7l0.7,0.1l0.6-0.4l2-0.1l0.6,0.4l0.8,0
	L35.3,6h6.9v1h1.8L45,7.7l1.3,0.8l-1.6,1.1l-0.5,1.5l-5.3,3.5L37.5,15H10.9l-1.3-0.4l-4.7-2.6l-0.8-1.4L3.3,11l-0.6-0.7l0.7-0.7
	L0.9,9.7L0,8.7l0.1-1.2l0.8-0.5l1.2,0.2l0.5,1.4l0.6,0.1L2.6,7z"/>
</svg>
