<?xml version="1.0" encoding="utf-8"?>
<!-- Generator: Adobe Illustrator 25.3.1, SVG Export Plug-In . SVG Version: 6.00 Build 0)  -->
<svg version="1.1" id="Layer_1" xmlns="http://www.w3.org/2000/svg" xmlns:xlink="http://www.w3.org/1999/xlink" x="0px" y="0px"
	 width="38.7px" height="14.3px" viewBox="0 0 38.7 14.3" style="enable-background:new 0 0 38.7 14.3;" xml:space="preserve">
<style type="text/css">
	.st0{display:none;fill:#8C8C7C;}
	.st1{display:none;}
	.st2{display:inline;}
	.st3{fill-rule:evenodd;clip-rule:evenodd;fill:#8C8C7C;}
	.st4{fill-rule:evenodd;clip-rule:evenodd;fill:#FAB81B;}
</style>
<path class="st0" d="M1.3,8.3L1.3,8.3L0,7.8l0.4-2.6h1.3l0.4,0.9l0.4-0.9l1.7-0.4V4.4h0.9v0.4l3.5-0.4V4l3.9-0.4V4H16V3.5h-3
	l0.4-1.3l1.7-0.4h0.4L16,0.9h-0.4V0.5H16V0.1h4.3v-0.9l-2.2-0.9v-0.4h6.1v0.4h-3.9l0.9,0.4v0.4h0.4L22,0l3.5,0.4l0.9,0.9h5.2v0.4
	h4.3l0,0h0.9v0.9h-1.3l0,0h-4.3l0,0h-4.8L26,3v0.4h-0.4l0,0h0.9l1.3,1.3h0.9v0.4l0.3,1h3.9l1.7,0.4l-0.4,0.4l0.9,1.3v1.3l-0.9,1.7
	l-5.7,2.7H7.4l-5.6-2.2l-1.3-1.3V9.1L1.3,8.3z"/>
<g class="st1">
	<g class="st2">
		<path class="st3" d="M33.1,4.2L33.1,4.2c-0.2-0.1-0.3-0.1-0.5-0.1V4c-0.1,0-0.1,0-0.2,0h-6.2c-0.1,0-0.1-0.2-0.1-0.3
			c0,0-0.1-0.1-0.1-0.1c-0.1-0.1,0-0.2,0-0.3l-0.1-0.1c0-0.1,0-0.2,0-0.2c0-0.2-0.1-0.1-0.1-0.4h0v0h-0.2V2.5H25c0,0,0.1,0,0.2,0
			V2.2h-0.3V2c-0.2,0-0.2,0-0.3,0.2c-0.3,0-0.5,0-0.7-0.1c0-0.1,0-0.2,0-0.3h0.2c0-0.1,0-0.3,0-0.5c-0.1,0-0.1,0-0.2,0
			c-0.1,0-0.1-0.2-0.3,0c-0.1,0-0.1,0-0.1-0.1c-0.1,0-0.1,0-0.2,0v0.1h0.1c0,0.3,0,0.6,0,0.9h-0.5c0-0.2-0.1-0.2-0.2-0.3
			c0-0.1,0.1-0.1,0.1-0.1v0h-0.1c0-0.1,0.1-0.1,0-0.2V1.3H23c0,0.1,0.1,0.3,0,0.3v0.1h0c0,0,0,0,0,0C23,1.5,23,1.4,23,1.3
			c0,0-0.1,0-0.2-0.1c0-0.7,0-3,0-4.6h-0.1c0,2.1,0,5.2-0.2,5.4V2c0,0-0.1-0.1-0.2,0l-0.1,0v0.1c-0.2,0-0.3,0.1-0.5,0.1c0,0,0,0,0,0
			v0.2c-0.3,0-3.6,0.2-3.8,0.2c0,0,0,0-0.1-0.1c0-0.1,0-0.2,0-0.3c-0.2,0-0.4,0.1-0.5,0.1c-0.1,0-0.1,0.2-0.2,0.2
			c-0.1,0-0.1-0.1-0.2-0.1c-0.1,0-0.1,0.1-0.2,0.1c-0.2-0.1-0.2,0-0.4,0.1v0.2c-0.4,0-0.6,0-0.9-0.1c0,0,0,0,0.1,0V3
			c-0.2,0-0.1,0-0.2-0.2c0-0.1-0.1,0-0.1-0.1c-0.1,0-0.2,0-0.3,0h0V1.6c-0.1,0.1,0,0.9,0,1.1c-0.4,0-0.7,0-1,0c0,0-0.1,0.1-0.2,0.1
			v0.3c-0.2,0-0.4,0-0.7,0c0,0.1-0.1,0.5-0.1,0.5c-0.1,0.1-0.3,0.1-0.3,0.2v0.5h0.1c0,0,0,0,0,0c0,0,0,0.1,0,0.1h-0.2
			c0-0.1,0-0.1,0.1-0.2c0-0.1-0.2-0.1-0.3-0.2c0-0.1,0,0,0-0.1V4c-0.4,0-0.7,0-1.1,0V3.8c0,0,0,0,0,0h-0.2v0.2c-0.4,0-1.4,0-1.7-0.2
			c-0.4,0-0.7,0-1.1,0C8,3.8,8,3.7,7.7,3.7V3.6H7.7c0,0,0.1-0.3,0.1-0.4H7.5c0,0.1,0.1,0.4,0.1,0.4H7.5V4C7.2,4,6.2,4.1,6.1,3.9
			C6,4,6,3.9,6,4c0,0-0.1,0.1-0.1,0.2c0,0,0,0,0,0.1c0.1,0,0.1,0,0.2,0H7c-0.1,0.1,0,0.3,0,0.5c0.2,0,0.1,0.1,0.3,0.1v0.5
			c-0.5,0-2.8,0-3.1,0c0,0-0.3,0.1-0.4,0.1v0.1c0,0-0.1,0-0.1,0h-1v0.1H2.2v-1C2.1,4.6,2,4.6,1.9,4.6c0,0-0.1,0.1-0.1,0.1
			c-0.3,0.1-0.7-0.1-1,0.1C0.7,4.9,0.7,5.1,0.5,5.2c0,0.3,0.2,0.4,0.3,0.5c0.1,0,1,0.2,1,0H2C2,5.9,2,6,2,6.1c-0.1,0-0.2,0-0.3,0.1
			c-0.1,0.1,0,0.5,0.1,0.6c0,0.1,0,0.1,0,0.2C1.6,7,1.6,7,1.5,7C1.4,6.8,1.4,6.6,1.3,6.3c-0.1,0-0.3,0-0.4,0.1c0,0,0.1,0.8,0.2,0.9
			v0.1c0,0-0.2,0-0.2,0c0,0.2,0.1,0.3,0.2,0.5C0.8,7.9,0.7,8.1,0.5,8.1v0c0,0,0.1,0.1,0.1,0.1v0.1c0.1,0,0.1,0.1,0.2,0.1v0.1
			c0,0,0.1,0,0.1,0C0.9,8.6,1,8.7,1.1,8.8h0c0,0,0,0,0,0C1,9,0.8,9.1,0.7,9.2v0.1c-0.1,0.3-0.3,0.6-0.3,1c0,0,0.1,0.3,0.1,0.3v0.2
			c0.1,0.2,0.2,0.5,0.3,0.7c0,0,0.1,0.1,0.1,0.1C1,11.7,1,11.8,1,11.9c0.3,0.4,1,0.6,1.5,0.7c0.2,0,4.9,1.3,4.9,1.3s14.6,0,16.6,0
			c1.5,0,3.4,0.1,4.4-0.1c0.2,0,0.6-0.1,0.8-0.2c0.3-0.1,0.3-0.2,0.6-0.3c0.5-0.2,1.1-0.5,1.6-0.8c0.4-0.2,0.8-0.3,1.2-0.5
			c0.1,0,0.4-0.3,0.5-0.3c0.1,0,0,0.1,0.1,0h0.1c0,0,0-0.2,0-0.2c0.1,0,0.1,0,0.2,0c0.2-0.1,0.2-0.3,0.5-0.3c0-0.1,0-0.1,0-0.2v0
			c0.1-0.1,0.2-0.2,0.3-0.2c0.1-0.1,0.1-0.2,0.2-0.2v-0.1c0.1,0,0.1-0.1,0.2-0.1c0,0-0.1-0.1-0.1-0.1c0.1-0.2,0.2-0.2,0.2-0.6
			c0.1,0,0.1,0.1,0.2,0.1c0.1,0,0.1,0,0.2-0.1c0-0.1-0.1-0.2-0.1-0.3c0.1,0,0.3-0.1,0.2-0.2c-0.1-0.2-0.2-0.1-0.3-0.1
			c0-0.2-0.1-0.3-0.1-0.4c0-0.1,0.1-0.1,0.1-0.2c0-0.1-0.2-0.1-0.2-0.2c0,0,0.1-0.2,0-0.3c0-0.1-0.1,0-0.2,0c0,0-0.1-0.2-0.1-0.2
			L35,7.3c0,0-0.3-0.3-0.4-0.4V6.7c0,0-0.1,0-0.2,0c-0.1-0.1-0.2-0.2-0.3-0.3c-0.2-0.1-0.5-0.1-0.7-0.2c-0.3-0.1-0.6-0.3-0.9-0.3
			c-0.1,0-4.7,0.3-4.8,0.2c0,0,0-0.2,0-0.3h0.1v0.2h0.1c0-0.2,0-0.3-0.1-0.3V5.5c-0.1,0-0.1,0-0.2,0V5.3c-0.1,0,0,0-0.1,0.1
			c-0.2,0-0.2-0.1-0.3-0.1c0,0,0,0,0,0v0h4.9c0.2,0,0.3,0,0.5,0V5.2l0.1,0H33l0.1-0.1c0.7,0,5.3,0,6.8,0V4.2H33.1z M8.2,4.4H7.6v0.2
			c-0.2,0-0.3-0.1-0.5-0.1c0-0.1,0-0.1,0.1-0.2C7.5,4.3,8,4.3,8.2,4.4L8.2,4.4z M8.7,4.5h0.2C8.8,4.5,8.7,4.5,8.7,4.5z M9,4.4H8.3
			V4.3H9V4.4z M9.3,4.4h1.1C10.3,4.5,9.4,4.5,9.3,4.4z M10.3,4.3c-0.2,0.1-0.7,0-1,0V4.3c0.5,0,1,0,1.4,0
			C10.7,4.4,10.4,4.3,10.3,4.3z M11,4.4h-0.1V4.3H11V4.4z M11.3,4.4L11.3,4.4C11.4,4.4,11.4,4.4,11.3,4.4L11.3,4.4z M12,4.4h0.5
			C12.4,4.5,12.1,4.5,12,4.4z M14.8,3.1c-0.2,0-0.2,0-0.3-0.1h0.3C14.8,3,14.8,3,14.8,3.1z M22.4,2.5H22V2.4c0.1,0,0.2-0.1,0.3-0.1
			c0.2,0.1,0.3,0.1,0.3,0.2C22.6,2.4,22.5,2.4,22.4,2.5z M22.8,2.4h0.3C23.1,2.5,22.9,2.5,22.8,2.4z M23.7,2.1
			c-0.1-0.1-0.1-0.4-0.1-0.5C23.7,1.8,23.7,1.9,23.7,2.1z M24.2,2.4h0.3C24.4,2.5,24.2,2.5,24.2,2.4z M26.2,6.1
			C26.3,6.1,26.2,6.1,26.2,6.1C26.2,6.1,26.3,6.1,26.2,6.1z M26.2,5.8c0,0,0-0.1,0-0.1C26.3,5.8,26.3,5.8,26.2,5.8L26.2,5.8z
			 M26.4,6c-0.1-0.1-0.1-0.4,0-0.5h0.1c0,0,0,0,0,0C26.5,5.6,26.4,5.8,26.4,6z M26.6,5.5c-0.1-0.1-0.1-0.1-0.3-0.1c0,0,0-0.1,0-0.1
			h0.3c0,0-0.1,0-0.1,0C26.6,5.3,26.6,5.4,26.6,5.5z"/>
	</g>
</g>
<g>
	<g>
		<path class="st4" d="M37.5,8.4c0,0,0.1-0.1,0.1-0.2c0.1-0.3,0.1-0.5,0.2-0.8c-0.2-0.2-0.7-0.6-1.1-0.7c-0.1,0-0.2,0-0.3,0
			c-0.5-0.1-2.2-0.3-2.5-0.3c-0.1,0-0.1-0.1-0.2-0.2c-0.2-0.1-0.4-0.2-0.6-0.3c0,0-0.1-0.1-0.1-0.1c0,0-0.1,0-0.1,0
			c-0.1-0.1-0.3-0.2-0.4-0.3c0,0-0.1,0-0.1,0c0,0,0-0.1,0-0.1c-0.1,0-0.1,0-0.2,0c0,0,0-0.1-0.1-0.2c-0.1,0,0,0-0.2,0c0,0,0,0,0,0
			c0-0.1,0-0.1,0-0.2c-0.2,0-0.7-0.1-0.7-0.1c-0.2-0.1,0-0.1-0.1-0.2c0,0-0.1,0-0.1-0.1c-0.2,0-0.4,0-0.6,0c0-0.1,0-0.2,0-0.3
			c-0.1,0-0.2,0.1-0.3,0.2c0,0,0,0.1,0,0.1c-0.1,0-0.2,0-0.3,0c0,0,0-0.1-0.1-0.1c0,0,0,0.1,0,0.1c-0.1,0-0.2,0-0.3,0
			c0-0.1,0-0.1,0-0.2c0,0-0.1,0-0.1,0c0,0.1,0,0.1,0,0.2c-0.8,0-1.7,0-2.5,0c0.1-0.1,0.5,0,0.7,0c0.6,0,1.2,0,1.7,0c0,0,0-0.1,0-0.1
			c-0.1,0-0.2,0-0.3,0c0,0,0-0.1,0-0.1c-0.1,0-0.1,0-0.2,0c0,0,0,0.1,0,0.1c0,0-0.1,0-0.1,0c0,0,0-0.1,0-0.1c-0.2,0-0.1,0-0.2-0.1
			c0-0.2,0-0.7,0-0.7l1.2-0.1l0.7,0c0,0,4.6,0,6,0c0-0.2,0-0.4,0-0.6C34.7,3,30,3,30,3l-0.7-0.1c0,0-0.7,0-1.1,0
			c0,0-0.1-0.2-0.1-0.2c-0.1-0.2-0.3-0.2-0.5-0.4c-0.1,0-0.1-0.2-0.1-0.2C27.5,2,27.3,2,27.2,2c0,0,0-0.1,0-0.1C27,1.9,27.1,2,27,2
			c-0.2,0-0.3,0-0.5,0c-0.3-0.1-1-0.1-1.4-0.1c0-0.1,0-0.1,0-0.2c0,0-0.3-0.1-0.3-0.1c-0.2,0-0.3,0-0.5,0c-0.3,0-0.6,0-0.9,0
			c0-0.2-0.1-0.3-0.2-0.5c-0.1,0-0.1,0-0.2,0c0-0.1,0-0.2,0-0.3c-0.1,0-0.1,0-0.2-0.1c0,0.1,0,0-0.1,0.1c0,0.1,0,0.2,0,0.3
			c-0.2,0-0.3,0.3-0.3,0.5c-0.2,0-0.7-0.1-0.8,0c-0.1,0-0.1,0-0.2,0c0,0,0-0.1,0-0.1c-0.2,0-0.2-0.1-0.5,0c0,0,0,0-0.1,0
			c0,0.1,0,0,0.1,0.1c-0.1,0.1-0.4,0-0.5,0c-0.2,0.1-0.5,0-0.7,0.3c-0.3,0-0.6,0-0.9,0c-0.1,0-0.3,0.6-0.4,0.7c0,0-0.1,0-0.1,0
			c-0.1,0.1-0.1,0.2-0.1,0.3c-0.1,0-0.1,0.1-0.2,0.1c0,0,0,0.1,0,0.1C18.2,3.4,18,3.5,18,3.6c0,0.1,0,0.1,0,0.2
			c-0.1,0-0.1,0.1-0.2,0.1c0,0.1,0,0.1,0,0.2c-0.1,0.2-0.3,0.3-0.3,0.5c0.4,0,0.7,0,1.1,0c0,0,0,0.2,0,0.2c0,0-0.1,0-0.1,0
			c0,0.1,0,0.1,0.1,0.2c0,0.1-0.1,0.1-0.1,0.2c0,0-0.1-0.1-0.1-0.1c-0.1,0-0.1,0-0.1,0.1c0,0,0,0,0,0c0-0.1,0-0.2,0-0.2
			c-0.2,0-0.3,0-0.5,0c0,0.1,0,0.2,0,0.2c-0.4,0-0.6,0-1,0c0,0,0-0.1,0-0.1c0,0,0,0,0,0C15.8,5,15,5,14.1,5.1c-0.2,0-1-0.1-1.1,0
			c-0.2,0-0.3,0-0.3,0.2c-0.2,0-0.8,0.1-0.9,0.2c-0.2,0-0.2-0.1-0.2-0.2c-0.5,0-0.9,0.1-1.4,0.2c-0.1,0-0.2,0-0.3,0
			C9.6,5.5,9.1,5.5,8.8,5.6c-0.3,0.1-1,0-1.2,0.2c0,0,0,0,0,0.1C7.3,5.9,7,6,6.9,6.1c-0.2,0-0.4,0-0.6,0c-0.1,0-0.3,0.1-0.4,0
			c-0.1,0-0.1-0.2-0.2-0.2c-0.2-0.1-0.3,0-0.5,0C5.1,6,5.1,6,5,6C4.9,6.1,4.9,6.2,4.8,6.2c0,0.2,0,0.3,0,0.5C4.8,6.8,5,6.9,4.9,7
			c0,0.2,0,0.2-0.1,0.3c-0.7,0-1.5,0.2-2,0.2c-0.1,0-0.3,0.3-0.5,0c0,0,0,0,0,0c0,0,0-0.1,0-0.1c-0.1,0-0.1,0-0.2,0
			c0,0.3-0.2,0.3-0.4,0.4C1.3,8.2,1,8.7,0.5,9c0.1,0.1,0.2,0.2,0.3,0.3c0,0.1,0,0.1-0.1,0.2c-0.1,0,0-0.1-0.2,0c0,0-0.1,0.1-0.1,0.1
			c0,0.2-0.1,0.3,0,0.5c0,0,0.1,0.1,0.1,0.1c0,0.1,0,0.3,0,0.5c0.1,0.4,0.4,0.9,0.6,1.1c0,0,0.1,0.1,0.2,0.1
			c0.1,0.1,0.2,0.2,0.2,0.2c0.2,0.1,0.6,0.2,0.8,0.3c1.3,0.4,4.7,1.3,5.4,1.5c2.1,0,4.1,0,6.2,0c4,0,7.9,0,11.9,0c1.2,0,3.6,0,3.6,0
			s1.4,0,1.9-0.1c1.3-0.4,4.6-2.4,4.7-2.6c0,0,0.1,0,0.1,0c0.1,0.3,0,0.5,0.2,0.8c0.3,0,0.4-0.4,0.5-0.6c0-0.1,0-0.2,0-0.3
			c0,0,0.1,0,0.1,0c0-0.1,0-0.1,0-0.2c0,0,0.1,0,0.2,0c0-0.1,0-0.1-0.1-0.2c0,0,0.1-0.1,0.1-0.2c0.1,0,0.1,0,0.2,0
			c0.1-0.1,0-0.2,0-0.2c0,0,0.1-0.1,0.1-0.1c0.1-0.2,0.3-1,0.2-1.4C37.6,8.7,37.4,8.5,37.5,8.4z M36.5,11.7
			C36.4,11.8,36.5,11.8,36.5,11.7c-0.1-0.3,0-0.3,0.1-0.6c0,0,0.1,0,0.1,0C36.7,11.4,36.6,11.6,36.5,11.7z"/>
	</g>
</g>
</svg>
