<?xml version="1.0" encoding="utf-8"?>
<!-- Generator: Adobe Illustrator 26.2.1, SVG Export Plug-In . SVG Version: 6.00 Build 0)  -->
<svg version="1.1" id="Layer_1" xmlns:sketch="http://www.bohemiancoding.com/sketch/ns"
	 xmlns="http://www.w3.org/2000/svg" xmlns:xlink="http://www.w3.org/1999/xlink" x="0px" y="0px" width="72.3px" height="19.3px"
	 viewBox="0 0 72.3 19.3" style="enable-background:new 0 0 72.3 19.3;" xml:space="preserve">
<style type="text/css">
	.st0{fill-rule:evenodd;clip-rule:evenodd;fill:#FAB81B;}
</style>
<desc>Created with Sketch.</desc>
<path class="st0" d="M9.7,19.3h26.4c0,0,0.6-0.1,0.8-0.2c0.1,0,0.3-0.1,0.4-0.2c1.3-0.7,3.8-2.1,5-3c0.1-0.1,0.3-0.3,0.4-0.4
	c0.1-0.1,0.3-0.5,0.3-0.6c0-0.1,0-0.3,0-0.3l0.3-0.2v-0.2c0,0,0.1-0.1,0.2-0.2c0-0.1,0-0.2,0-0.3c0,0,0-0.1,0-0.2
	c0,0-0.2-0.1-0.2-0.1l-0.1,0.2c0,0,0.1,0.1,0.1,0.1c0,0,0,0.1,0,0.2c0,0-0.1,0.1-0.1,0.1c0,0-0.1,0-0.1,0l0-0.3l0.8-0.9l0.2,1.1
	l0.1,0l-0.3-1.2l-0.7-1.3h-2.7v-0.3h-0.2v0h0l0,0v0h-0.1v0H40v0.2h-0.1v0.3h-1v-0.1h0.1l0-1.1l-0.2,0.1l0,0.8l-0.2,0.2v0.1h-0.1
	l-0.4-0.3l0.6-0.7l0.4-0.3h1.6l0,0.1h0.4V10h1.1V9.8l19-0.3v0.1l0,0h0.2l0.2-0.1h0.1l0.3,0.2h3.6v0h0.3l0.4-0.2h0.3V9.6H67l0.1-0.1
	h3.3v0h1.3V8.2h-1.3v0h-3.3L67,8.2h-0.3V8.1h-0.3v0h0l-0.3-0.2h-4l-0.3,0.2h-0.1l-0.2-0.1h-0.2l0,0v0.1L42.4,8V7.8h-1.1V7.6h-0.4
	l0,0v0.1h-1.6L37.8,7c0,0,0.1-0.2,0.1-0.2c0-0.1,0-0.2,0-0.3c0-0.1-0.1-0.1-0.1-0.1c0,0-0.1,0-0.2,0c-0.1,0-0.2,0-0.2,0.1
	c-0.1,0.1-0.2,0.4-0.2,0.4l0.1,0c0,0,0.1-0.2,0.1-0.2c0,0,0.1-0.1,0.1-0.1c0,0,0.1,0,0.2,0c0,0,0.1,0.1,0.1,0.1c0,0,0,0.1,0,0.2
	c0,0-0.1,0.1-0.1,0.1l-0.5-0.2l-0.4-0.6l-0.3-0.3l-0.2-0.2h-0.5v0h0.5V3.3c0,0-0.4,0-0.6,0c-0.1,0-0.2,0-0.3,0
	c-0.1,0-0.3,0.2-0.3,0.2c-0.1,0.1-0.2,0.2-0.3,0.3c-0.1,0.1-0.1,0.3-0.2,0.4c0,0.1,0,0.3,0,0.5c0,0.1,0,0.2,0.1,0.3
	c0,0.1,0.3,0.3,0.3,0.3v0.1l-0.2,0.1v0.3h1v0.1l0.2,0.4l0.4,0.1l0.1,0.2h0v0.1h-0.1l-0.5-0.3h-1.9H34l-0.1-0.2h-0.2l-0.1,0.1L31.7,4
	h-0.1l-0.8,0.2l-0.5,0V4.1h0.6l0.2-0.2V3.4L31,3.2h-0.8l-0.1,0.2h0V3h-0.8l-0.8,0.8h-3.5l-0.3,0L25,3.5h0.8v0.3H27V3.1h0.8V2.9h7.7
	H36V2.5h-8.2V2.4h-0.2v0h0V2.1L26.8,2h-1.1l-0.4,0.1V1.7h0.1V1.5h-0.1V1.4h-0.5l-0.5,0.4L24.2,2v0.1h-0.1L24,1.8h-0.7l-0.1-0.2
	l-0.5-0.1V1.4l0.2-0.1V1.2h0.2V1H23V0.8h-0.8V1H22v0.2h0.1v0.2h-0.1v0.5h0.2V2h-0.1v0.2h0.2v0H22V3l-1.1,0.1L20.8,3h-0.2l-0.1,0.1
	h-0.4v0h0.4v0h-0.2l-0.2,0.1h-0.3v0.2l0,0h-0.6l-0.1,0V3.3l0,0h-0.3l-0.1,0.1h-0.1l-0.1-0.1h-0.3v0h-0.3V2.8l0-0.1h0V2h-0.1v0.8h0
	l0,0.1v0.5l-1.4-0.5h-0.4v0.4l0.2,0v0.3l0.2,0.2h1.5v0.2l-0.2,0.2v0.1h-0.5v0.1h-0.2l0,0.4h-1.5l0,2.2l0,0h1l-0.3,1.4h0.2v0.2h-0.4
	l-0.2-0.1h-0.2V8.2h-3.7v0.4h-1.4L9.6,8.4H8.7L8.4,8.5v0H6.1v0.1l-0.5,0H5v0H4.9v0H4.6L4.3,8.6H3.8v0H3.5v0H3.4L2.9,8H2.9l0.1,0.3
	l0.5,0.5v0.1h0v0H3.3v0l-0.2,0L3,8.4c0,0-0.2-0.4-0.3-0.5C2.6,7.9,2.4,7.8,2.3,7.7C2.2,7.6,2,7.5,2,7.5H1.8V7.4H1.6v0.1H1.4v0.1
	c0,0-0.1,0-0.2,0c-0.1,0-0.3,0.2-0.4,0.3C0.7,7.9,0.6,8.1,0.5,8.1C0.4,8.3,0.2,8.7,0.2,8.9c0,0.1,0,0.2,0,0.3c0,0.2,0.1,0.5,0.2,0.6
	c0.1,0.1,0.2,0.2,0.3,0.3c0.1,0.1,0.3,0.2,0.5,0.3c0.1,0,0.5,0.1,0.5,0.1l0,0.2H2v0H1.9c0,0-0.6,0-0.8,0c-0.1,0-0.2,0.1-0.3,0.2
	c-0.1,0.1-0.1,0.2-0.2,0.3c0,0.1,0,0.3,0,0.3c0,0.1,0.1,0.3,0.2,0.4c0,0.1,0.2,0.2,0.3,0.2c0.3,0.1,0.6,0,0.6,0L2,12
	c0,0,0.1-0.2,0.1-0.3c0-0.1,0.1-0.3,0-0.3c0-0.1-0.1-0.3-0.1-0.4c0,0-0.1-0.2-0.1-0.2h0.2l0.3,0.5l0.4,0l-0.2,0.4l-0.4,0.3L2,12
	l-0.3,0.1l0.2,0.2v0.1l-0.3,0.3l-0.3,0.6L1,14.2h0.3l0.1-0.8l0.2-0.4l0.8,0.2c0,0-0.2,0.4-0.2,0.5c0,0.2-0.1,0.5-0.1,0.7
	c0,0.1,0,0.4,0,0.6c0,0.2,0.2,0.5,0.3,0.7c0.1,0.2,0.4,0.4,0.5,0.5c1.3,1,5.6,2.9,5.6,2.9l0.9,0.3L9.7,19.3z"/>
</svg>
