<?xml version="1.0" encoding="utf-8"?>
<!-- Generator: Adobe Illustrator 27.7.0, SVG Export Plug-In . SVG Version: 6.00 Build 0)  -->
<svg version="1.1" id="Слой_1" xmlns="http://www.w3.org/2000/svg" xmlns:xlink="http://www.w3.org/1999/xlink" x="0px" y="0px"
	 width="65.6px" height="21.8px" viewBox="0 0 65.6 21.8" style="enable-background:new 0 0 65.6 21.8;" xml:space="preserve">
<style type="text/css">
	.st0{fill-rule:evenodd;clip-rule:evenodd;fill:#8C8C7C;}
</style>
<path class="st0" d="M6.8,20.2h23.7l0.8-0.1c0,0,4.1-1.7,5.4-2.5c0.2-0.1,0.6-0.4,0.8-0.6c0.2-0.2,0.4-0.7,0.4-1
	c0-0.2-0.1-0.6-0.1-0.6l0.4-0.4l0.2,0.4l0.3-0.8l-0.2-0.8c0,0,0-0.5,0-0.6c-0.1-0.1-0.3-0.2-0.4-0.2c-0.4-0.1-1.7-0.1-1.7-0.1
	l-0.9-0.1l0.1-0.2l1,0l0.5-0.2l0.1-0.3l16.7-0.2l0.4,0.3h2.9l0.8-0.3h4.7h2.6v-1h-7.3l-0.7-0.3h-3l-0.5,0.3l-16.6-0.2
	c0,0-0.2-0.8-0.3-1c-0.1-0.2-0.3-0.5-0.4-0.7c0-0.1-0.2-0.1-0.2-0.1c-0.5-0.1-2.2,0-2.2,0l-1.3-0.3l-0.3-0.2l-0.8-1.4h-1.7l-0.6-0.2
	l-0.4-0.3V6h-0.8v0.4h-0.6l0-0.2l0.2-0.2h-3.7l0.1,0.3h-1l0.3,0.5l-0.1,0h-5l0.2-0.4l-1.5,0.8l-0.2,0.2h-0.6V6.9h-0.3V1h-0.1v5.9
	h-0.2v0.4h-0.4l-1.1,0.4l-0.1,0.7l-1.2-0.1L11.9,10l1,0.4l0,0.1l0.3,0L13,10.7h-0.8l-2.9,0.4l-2.4,0.6H4.4l-1.6,1l-1.3,0.8l-0.3,0
	l-0.9,0.9l0.2,0.2l0.2,0l0.1,0.2l-0.3,0L0.8,16l0.6,0v-0.1h0.1l0.4,0.9l0.6,0.6l0.7,0.4c0,0,2.2,1.8,3,2.3
	C6.3,20.1,6.8,20.2,6.8,20.2z"/>
</svg>
