<?xml version="1.0" encoding="utf-8"?>
<!-- Generator: Adobe Illustrator 27.2.0, SVG Export Plug-In . SVG Version: 6.00 Build 0)  -->
<svg version="1.1" id="Layer_1" xmlns="http://www.w3.org/2000/svg" xmlns:xlink="http://www.w3.org/1999/xlink" x="0px" y="0px"
	 width="54.5px" height="20.5px" viewBox="0 0 54.5 20.5" style="enable-background:new 0 0 54.5 20.5;" xml:space="preserve">
<style type="text/css">
	.st0{display:none;fill-rule:evenodd;clip-rule:evenodd;fill:#FAB81B;}
	.st1{display:none;}
	.st2{display:inline;}
	.st3{fill-rule:evenodd;clip-rule:evenodd;fill:#FAB81B;}
	.st4{fill-rule:evenodd;clip-rule:evenodd;fill:#8C8C7C;}
	.st5{fill-rule:evenodd;clip-rule:evenodd;fill:#F8B71A;}
</style>
<path class="st0" d="M0.8,9.8l0.9-0.1l-1.3-1H2l2.1,1h8.3v-1H8.3l0.5-1.1L8,7.2l0.2-0.6L7.3,6.8L6.8,6.4V4.6L6.4,3.8l0.5-0.5
	l1.5,0.4l2-0.2v-1H8.3l0.3-0.8l-0.3-1l2.8-0.1v3L11.9,3L12-0.3l0.1,4h0.6l0.5,0.5l0.4,0.3l1-0.3h0.9V2.7h4.9c0.1,0.1,0,1.9,0,1.9
	l2.2-0.1V5l1.1,0.4l0.8-0.7l0.3,0.7l0.6,0.3v-1c0,0,1-0.2,1,0s0,1.2,0,1.2l1.3,0.5l-0.4-0.6c0,0,0.4-0.8,0.5-0.7
	c0.2,0.1,2,0.9,2,0.9l2.6,0.1h3v0.3l10,0.2v0.9l-10,0.3v0.4h-2.8l-2.9,0.5l-2.3,0.2l-0.5,0.7l4.7-0.3l0.2,0.1h0.6h0.5L33,9.6
	l1.4,1.1V9.8h1V11c0,0,1.8,1.1,2,1.1s1-0.5,1-0.5l2,0.3v1.3l-1.3,1.2l1,1.2l-0.5,0.5l-0.8-0.5l-0.4,0.1l1.1,0.8l-0.4,0.6L38,16.2
	l-0.4,0.3l1.1,0.8l-0.4,0.4l-2,0.2l-3.8,2l-2.1,0.8H10.8L9,20l-5.1-1.6c0,0-0.7-2-0.8-2.1C3,16.3,1.5,15,1.5,15l0.6-0.3l-0.6-1
	l-0.9,0.1l-0.1-2.1h1.2l0.8,1L3,12.3l-0.5-0.8l-1.1-0.2l-1-0.5L0.8,9.8z"/>
<g class="st1">
	<g class="st2">
		<path class="st3" d="M43,7.4c0,0-5.4-0.1-5.6-0.2c-0.9,0-1.8,0-2.6,0c-0.2-0.2-0.4-0.5-0.7-0.7c-1.1,0-2.2,0-3.3,0
			c0-0.2,0-0.6-0.1-0.8c-0.1-0.1-0.8-0.3-0.9-0.4c-0.4-0.1-0.8,0.1-1-0.1c-0.2,0-0.2,0.1-0.4,0.1c0,0.1,0,0.1,0,0.2
			c-0.6,0-1.2-0.1-1.8-0.1c0,0,0-0.1,0-0.1c-0.1,0-0.1,0-0.2,0c0-0.1,0-0.1,0-0.2c0,0-0.1,0-0.1,0c-0.1-0.1,0-0.3,0-0.4
			c0-0.1-0.1-0.1-0.1-0.2c-0.2,0-0.4,0-0.5,0.1c-0.1,0.1-0.2,0.5-0.2,0.7c-0.2,0-0.6,0-0.7-0.1c-0.1,0-0.3,0-0.4,0
			c0-0.1,0,0,0.1-0.1c0,0,0-0.1,0-0.1c-0.1,0-0.2-0.1-0.3-0.1c0,0,0,0.1-0.1,0.1c-0.1,0-0.2-0.1-0.4-0.1c0,0-2.3-0.2-2.4-0.2
			c0,0,0,0.1,0,0.1L21,4.9c-0.2,0-2.3-0.2-2.5-0.2c0-0.1-0.1-0.1-0.1-0.2c-0.1,0-0.4-0.1-0.4-0.1c-0.2,0-0.3,0-0.5,0.1
			c0,0,0-0.1,0-0.1c0,0-0.1,0-0.1,0c0,0-0.1,0-0.1,0.1c-0.1,0-0.6-0.1-0.7-0.1c-0.1,0,0,0.1-0.2,0.1c0,0,0-0.1-0.1-0.1
			c-0.3,0-0.5,0-0.8,0.1c0,0,0,0.1,0,0.1c-0.1,0-1.1-0.1-1.2-0.1c0,0-0.1,0-0.1,0c0-2.3,0-4.6,0-6.9c0,0,0,0-0.1,0
			c-0.2,0.5-0.1,1.5-0.1,2.1c0,1.6,0,3.2,0,4.7c-0.1,0-0.3,0-0.3,0.1c-0.2,0.2-0.2,0.6-0.3,0.8c-0.1,0.2,0,0-0.2,0.1
			c-0.1,0.1-0.1,0.2-0.2,0.3c0,0.2,0,0.2,0.2,0.2c-0.1,0.2-0.1,0.4-0.2,0.6c-0.2,0-0.2,0-0.3,0.1c0,0,0,0-0.1,0c0.1,0.1,0,0,0.2,0
			c0,0.3,0,0.5-0.1,0.8c-0.1,0-0.1,0-0.2,0.1c0,0.1,0,0.1,0.1,0.2c0,0.1-0.4,0.8-0.4,1.1c-0.1,0-0.1,0-0.2-0.1C12.1,8.8,12,9,12,9.1
			c0,0.3,0,0.2,0.2,0.2c-0.1,0.3-0.3,1-0.5,1.3c-0.1,0.1,0,0-0.2,0.1c0-0.2,0-0.4,0-0.6c0.1,0,0.1,0,0.2,0.1c0-0.1-0.1-0.1-0.1-0.2
			c-1.3,0-2.5,0-3.8,0c0-0.1,0-0.1-0.1-0.2c-0.2,0-0.4,0-0.5,0C7,9,6.7,8.3,6.5,7.6c0-0.6,0-1.1,0-1.7c0.2,0,0.3,0,0.4-0.1
			c0-0.1,0-0.3,0-0.4c-0.1,0-0.1,0-0.2-0.1c0,0,0,0-0.1,0c0,0,0,0,0-0.1C7,5.2,7.8,5.5,8.2,5.1c0-0.1,0,0,0-0.1c0-0.1,0-0.1,0-0.2
			C8.4,4.9,9,5.2,9.3,5.1C9.5,5,9.5,4.8,9.7,4.8c0.2,0,0.4,0,0.6,0c0-0.5,0-0.9-0.1-1.3c-0.1,0-0.1,0-0.2,0c0,0.1,0,0.1,0,0.2
			c0,0-0.1,0-0.1,0c0-0.3,0.2-0.4-0.1-0.5c0-0.1,0-0.3,0-0.4c0,0,0.1,0,0.1,0.1c0-0.1,0-0.2,0-0.3c-0.1,0-0.1,0-0.2,0
			c0,0,0,0.1-0.1,0.1c0,0,0,0-0.1,0c0,0,0,0,0,0.1c0,0,0,0,0.1,0c0,0.5,0,1,0,1.5c0,0,0,0-0.1,0C9.6,4,9.4,3.9,9.3,3.8
			C9.2,3.3,9.2,3,8.9,2.6c-0.2,0-0.2,0.1-0.3,0.1C8.5,2.6,8.4,2.4,8.3,2.3c-0.1-0.1-0.1,0-0.2-0.1c0,0,0,0-0.1,0
			c0.1,0.1,0.1,0.2,0.2,0.2c0,0,0,0.1,0,0.1c-0.1,0-0.3,0-0.3-0.1c0,0-0.1,0-0.1,0c0-0.4,0.1-0.8,0.1-1.2c-0.4,0-0.9,0-1.3-0.1
			C6.4,1.9,6.6,2.7,6.1,3C5.8,3.2,4.7,2.5,4.4,2.6C3.9,2.7,3.5,2.3,3.1,2.2C3,2.3,2.1,2,1.8,2C0.7,1.5-0.8,1.3-1.8,0.7
			c-0.1,0.1-0.1,0.1-0.2,0.2c0,0.1,0,0.2,0.1,0.3c1.1,0,1.7,0.6,2.6,0.7c0,0.1,0,0.1-0.1,0.1c0,0.1,0,0,0.1,0.1
			c0.2,0.2,0.7,0.1,0.9,0.3c0.1,0,0.1,0,0.2,0c0,0,0-0.1,0-0.1c-0.2,0-0.3-0.1-0.4-0.2c0,0,0,0-0.1,0c0,0,0,0,0-0.1
			c0.4,0.2,1.2,0.5,1.6,0.5c-0.1,0.1-0.3,0-0.4-0.1c-0.1,0-0.1,0-0.2,0c0,0,0,0.1,0,0.1c0.1,0,0.2,0,0.3,0.1c0,0.1,0,0.1,0,0.2
			c0.4,0.2,0.8,0.3,1.3,0.3C4,3.5,4.1,3.2,4.3,3.4c0.1,0,0,0.1,0.1,0.2c0.1,0.6,0.1,1.2,0.2,1.9c0.1,0.3,0.2,0.4,0.2,0.8
			c0,0,0.1,0,0.1,0C5,6.2,5,6.1,5,5.9c0.1,0,0.3,0,0.4,0c0,0.6,0,1.1,0,1.7C5.2,8.2,4.8,9,4.8,9.7c-0.2,0-0.4,0-0.6,0
			c0,0.2,0,0.2-0.2,0.2C4.1,10.1,4,10,4.2,10c0,0.2,0,0.4,0,0.6c-0.3,0-0.2-0.1-0.3-0.2c0,0-0.1,0-0.1,0c0,0-0.1,0.1-0.2,0.1
			c-0.1,0-0.2,0-0.3-0.1l-0.1,0.1c0,0,0,0.1,0,0.1c-0.1,0-0.3,0-0.4,0c0,0.3,0,0.4,0,0.6c0,0-0.1,0-0.1,0c0-0.1,0-0.2-0.1-0.2
			c-0.1-0.1-0.3-0.2-0.3-0.3c-0.5,0-0.6,0.1-0.8,0.3c-0.1,0.3-0.2,0.9-0.1,1.1c0,0.2,0.2,0.4,0.4,0.4c0.2,0.2,0.7,0,1-0.1
			c0,0.1,0,0.2,0,0.3C2,12.8,1.4,12.9,1,13.2c-0.1,0.1-0.1,0.2-0.2,0.2c0,0.1,0,0.1,0.1,0.2c0.1,0.2,1.2,0.8,1.4,1
			c0,0,0.1,0,0.1,0.1c0,0-0.1,0.3-0.1,0.3c0,0.2,0,0.4,0,0.7c0,0.1-0.2,0.2-0.3,0.3c0,0.4,0.1,0.2,0.2,0.4c0.1,0.2-0.1,0.5,0.1,0.7
			c0.1,0.1,0,0,0.2,0.1c0-0.2,0-0.4,0-0.7c0,0,0.1,0,0.1,0c0.5,1,5.3,3.3,6,3.5c6,0,11.9,0,17.9,0c1.7,0,3.4,0,5.2,0
			c1.1,0,2.2,0.1,3-0.2c0.5-0.2,5.1-2.3,5.5-2.9c0.2-0.3,0.7-1.5,0.3-2c0-0.5,0.6-0.7,0.8-1.2c-0.4-0.2-0.8-0.6-1.3-0.8
			c-0.2-0.1-0.6-0.2-0.9-0.2c-0.3,0-0.6,0-0.9,0c-0.1,0-0.2-0.2-0.4-0.2c0-0.2,0-0.4,0-0.5c-0.2,0-0.2,0-0.3,0.1
			c0,0.1,0,0.2-0.1,0.3c-0.5,0-0.6-0.1-0.9-0.2c0-0.1,0-0.1-0.1-0.2c-0.1,0-0.1,0-0.2-0.1c0,0,0,0-0.1,0c0,0,0,0,0-0.1
			c0.1,0,0.1,0,0.2,0c0-0.1,0-0.1,0-0.2c-0.2-0.1-0.3,0-0.5,0c0.1-0.2,0.2-0.4,0.4-0.4c0-0.1-0.2-0.4-0.2-0.4
			c-0.2-0.2-0.4-0.3-0.7-0.4c-0.1,0-0.1,0-0.2,0c0,0,0.1,0.2,0.1,0.2c-0.1,0.1-0.1,0.1-0.2,0.2c0.1,0.2,0,0.3,0,0.5
			c-0.5-0.1-0.6-0.4-1-0.5c0-0.2,0-0.3,0-0.5c-0.2,0-0.4,0-0.6,0c0,0.1,0,0.3,0,0.4c-0.1,0-0.2-0.1-0.3-0.1c-0.1,0-0.7,0.1-0.7,0.1
			c0-0.1,0-0.1-0.1-0.2c-0.2-0.1-0.4,0.1-0.4,0.2l-0.1-0.1c-0.3,0-0.7,0-0.8,0.2c-0.1,0-0.1,0-0.2,0c0.3-0.4,0.1-0.4,0-0.8
			c1.9,0,3.7,0,5.6,0c0.1-0.1,0.3-0.4,0.5-0.5c0-0.1-0.1-0.2-0.2-0.2c0,0,0-0.1,0-0.1C37.4,9,43,8.7,43,8.7s12.6-0.1,13-0.1
			c0-0.4,0-0.7,0-1.1C55.2,7.5,43,7.4,43,7.4z M10,3.9C10,3.9,10,3.9,10,3.9C10,4,10,4,10,4c0,0,0,0-0.1,0C10,4,10,4,10,3.9z
			 M8.4,3.7c-0.1,0-0.2,0-0.3-0.1c0-0.1,0-0.2-0.1-0.2c0,0,0,0,0-0.1c0.1,0,0.2,0.1,0.3,0.1c0,0,0.1,0,0.1,0
			C8.4,3.6,8.4,3.6,8.4,3.7z M8.3,3.2c0.1,0,0.2,0,0.3,0C8.5,3.3,8.4,3.3,8.3,3.2z M9.5,4.2C9.5,4.2,9.4,4.1,9.4,4
			C9.4,4.1,9.5,4.2,9.5,4.2z M9.2,3.8C9.1,3.8,9,3.8,8.9,3.8C9,3.8,9.1,3.8,9.2,3.8z M8.9,4.8c0.2,0,0.4,0,0.6,0c0,0,0,0,0,0.1
			c-0.1,0-0.1,0.1-0.2,0.1c-0.2,0-0.3,0-0.4-0.1C8.9,4.8,8.9,4.8,8.9,4.8z M8.8,3.8c0,0-0.1,0-0.1,0c0,0,0-0.1,0-0.1
			C8.7,3.7,8.7,3.8,8.8,3.8C8.8,3.8,8.8,3.8,8.8,3.8z M7.7,2.7C8,2.8,8.3,2.9,8.7,2.9c0,0.1,0,0.1-0.1,0.2c-0.3,0-0.7,0.1-0.8-0.1
			c0,0-0.1,0-0.1,0C7.7,2.9,7.7,2.8,7.7,2.7z M7.7,3.3c0.1,0,0.1,0,0.2,0c0,0,0,0,0,0.1c0,0,0,0,0.1,0c0,0.1,0,0.1,0,0.2
			C7.8,3.5,7.8,3.5,7.7,3.4C7.7,3.4,7.7,3.3,7.7,3.3z M7.9,4.8C7.9,4.8,7.9,4.8,7.9,4.8C8,4.9,8,4.9,8,5C7.9,5,7.7,5,7.6,5.1
			c-0.1,0-0.3,0-0.4,0C7.3,4.7,7.6,4.7,7.9,4.8z M6.7,4.3C6.7,4.3,6.7,4.3,6.7,4.3c-0.1,0.1,0,0.1-0.1,0.1c-0.1-0.1,0,0-0.1-0.2
			C6.6,4.2,6.6,4.2,6.7,4.3z M3.5,2.8c0.2,0,0.4,0,0.5,0.2C3.9,2.9,3.7,2.8,3.5,2.8z M2.4,12.1c0-0.1,0-0.1,0.1-0.2
			c0.1,0.1,0.1,0,0.1,0.2C2.6,12.1,2.5,12.1,2.4,12.1z M4.5,10.6c0,0-0.1,0-0.1,0c0-0.1,0-0.1,0-0.2c0,0,0.1,0,0.1,0
			C4.5,10.4,4.5,10.5,4.5,10.6z M4.5,10.1c0,0,0,0.1,0,0.1c0,0,0,0-0.1,0c0-0.1,0-0.1,0-0.2c0.1,0,0.1,0,0.2,0
			C4.5,10.1,4.6,10,4.5,10.1z M4.9,5.7c0-0.1,0-0.1-0.1-0.2C5,5.6,5,5.5,4.9,5.7C5,5.7,4.9,5.7,4.9,5.7z M6.1,4.7
			C5.7,4.8,5.4,5.1,5.1,5.4c-0.1,0-0.1,0-0.2,0C4.8,4.8,4.7,4.2,4.6,3.6c0.5,0,0.7,0.3,1.2,0.4c0,0.1,0,0.3,0.1,0.3
			c-0.1,0.1,0,0-0.1,0.1c0,0,0,0.1,0,0.1c0.1,0,0.1,0,0.2-0.1C6,4.5,6,4.5,6.1,4.7C6,4.6,6.1,4.6,6.1,4.7C6.1,4.6,6.1,4.6,6.1,4.7z
			 M6.1,4.1c0,0,0.1,0,0.1,0c0,0,0,0.1,0,0.1c0,0-0.1,0-0.1,0C6.1,4.2,6.1,4.1,6.1,4.1z M6.3,4.4C6.3,4.4,6.3,4.4,6.3,4.4
			C6.3,4.4,6.3,4.4,6.3,4.4c0,0,0-0.1,0-0.1C6.3,4.4,6.3,4.3,6.3,4.4z M7.7,10.3c-0.1,0-0.1,0-0.2,0c-0.1-0.1-0.1-0.2-0.2-0.2
			c0,0,0,0,0-0.1c0.1,0,0.2,0,0.3,0C7.7,10.1,7.7,10.2,7.7,10.3z M8.3,10c-0.1,0.1-0.1,0.1-0.2,0.2c-0.1,0-0.1,0-0.2,0
			c0-0.1,0-0.2,0-0.3C8.1,10,8.2,10,8.3,10C8.3,10,8.3,10,8.3,10z M11.1,10.6c0-0.1,0-0.2,0.1-0.3c0.1,0.1,0.1,0.1,0.1,0.3
			C11.2,10.6,11.1,10.6,11.1,10.6z M11.2,10.3c-0.1-0.1-0.1-0.2-0.2-0.2c0.1-0.1,0,0,0.2-0.1C11.2,10.1,11.2,10.2,11.2,10.3z
			 M35.6,10.5c0,0.1,0,0,0,0.1c0,0,0,0.1,0,0.1c0,0,0,0-0.1,0C35.6,10.7,35.6,10.6,35.6,10.5z M35.8,11c0.1,0.1-0.1,0.3-0.2,0.3
			c0,0,0,0,0,0.1c0,0,0,0-0.1,0C35.6,11.3,35.7,11.2,35.8,11z"/>
	</g>
</g>
<g class="st1">
	<g class="st2">
		<path class="st4" d="M55.4,5.8c-0.5,0-18.3-0.2-18.3-0.2L37,5.4c0,0-10-0.2-10.6-0.2c-0.2,0-0.6,0.1-0.8-0.1c-1.1,0-2.3,0-3.4,0
			c-0.7,0-1.1,0.1-1.4-0.3c-1,0-2.1,0-3.1,0c0-0.2,0-0.5-0.1-0.7c0-0.1,0.2,0,0.1-0.2c0-0.1-0.1,0-0.2-0.3c-0.6,0-1.2,0-1.8,0
			c0-0.1,0-0.1,0-0.2c0,0-0.1,0-0.1,0c-0.1-0.1,0-0.3,0-0.4c0-0.1-0.1-0.1-0.1-0.2c-0.2,0-0.3,0-0.4,0.1c-0.3,0.1,0,0.3-0.2,0.5
			c-0.1,0.1-0.1-0.1-0.2,0.2c-0.4-0.1-6.6,0-6.8-0.1c-0.1,0,0-0.1-0.1-0.1c0,0,0,0.1-0.1,0.1c-0.6,0-3.7,0.1-4.4,0.1
			c0,0.4,0,0.7-0.1,1.1c-0.1,0-0.1,0-0.2-0.1c0,0,0,0-0.1,0c0,0.2-0.1,0.6,0,0.7c0,0.1,0,0,0.1,0.1c0,0.5-0.1,0.9-0.1,1.4
			c-0.1,0-0.1,0-0.2,0.1L3,7.1C2.9,7.6,3.4,7.9,3.1,8.4c0,0.2,0,0.5-0.1,0.6C3,9,3,9,2.9,9c0,0.2,0,0.5-0.1,0.7
			C2.9,9.8,3.1,9.8,3,10c-0.1,0-0.1,0-0.2,0.1c0,0.1,0,0.1,0,0.2c-0.2,0-0.2,0-0.4-0.1c0,0.1,0,0.1-0.1,0.1c0,0.4,0.1,0.1-0.1,0.4
			c0.1,0.1,0,0.1,0,0.3c0,0,0,0,0.1,0c0,0,0,0,0,0.1c0.1-0.1,0.1-0.1,0.1-0.3c0,0,0.1,0,0.1,0c0,0.3,0,0.6-0.1,0.7
			c0,0.1,0,0-0.2-0.1c0,0.1,0,0.1,0,0.2c0.2,0,0.1,0.1,0.2-0.1c0,0,0,0,0.1,0c0,0.2,0,0.8-0.1,1c-0.1,0.1,0,0.1-0.2,0.1
			c0.1,0.1,0,0.1,0.2,0.1c-0.1,0.2-0.8,0.8-1,1c-0.1,0.1-0.1,0.1-0.2,0.2c0,0.1,0,0.3-0.1,0.4c0,0-0.1,0.2-0.2,0.3
			c-0.1,0.3,0.2,0.4,0.2,0.5c0,0.2,0,0.4,0,0.6c0,0.1,0.1,0.3,0.2,0.5c0.2,0.4,0.5,0.6,0.8,0.8c0.1,0.2,0.3,0.3,0.4,0.5
			c0,0,0.1,0,0.1,0c0.1,0.1,0.2,0.3,0.4,0.4c0,0,0.1,0,0.1,0c0.1,0.1,1.5,1.5,2.3,1.8c0.5,0.2,1.4,0.2,2,0.2c1.3,0,2.6,0,4,0
			c4.5,0,9.1,0,13.6,0c2.2,0,4.5,0,6.7,0c0.8,0,2.2-0.1,2.9-0.2c1-0.2,3.5-1.5,3.7-1.7c0,0,0.1,0.1,0.1,0.2c0.1,0.1,0,0,0.1,0.1
			c0,0,0-0.3,0.1-0.4c0,0,0.6-0.3,0.7-0.3c0.6-0.4,1.4-1.3,1.1-2.3c-0.1-0.4-0.1-0.8-0.4-1.1c0-0.2,0.1-0.2,0.2-0.3
			c-0.1-0.3-0.4-0.4-0.6-0.5c-0.8-0.5-2.1-0.5-3.5-0.5c0.1-0.1,1-0.1,1.3-0.1c0-0.1,0-0.1,0-0.2c0.1,0,0.1,0.1,0.1,0.2
			c0,0,0.1,0,0.1,0c0-0.2,0-0.3-0.1-0.4c0-0.2,0-0.4,0-0.6c0,0,0,0-0.1,0c-0.1,0.1-0.1,0.2-0.1,0.4c-0.1-0.1-0.1,0-0.1-0.2
			c-0.4,0-1.2,0.1-1.3-0.2c-0.1,0-0.1,0.1-0.2,0c-0.1,0.1-0.1,0.1-0.1,0.2c-0.3,0-1.2,0.1-1.3-0.1c0,0,0,0-0.1,0c0,0.1,0,0.2,0,0.4
			c-0.3,0-3.1-1-3.4-1.2c-0.2-0.1-0.1-0.1-0.2-0.3c-0.1,0.1-0.1,0.1-0.2,0.2c-0.1-0.1-0.1,0-0.1-0.2c-0.2-0.1-0.5-0.1-0.7-0.2
			c0-0.1,0-0.1-0.1-0.2c0,0,0,0-0.1,0c-0.1,0-0.1,0.1-0.2,0.1c0,0-0.2-0.1-0.2-0.1c0,0,0,0.1-0.1,0.1c-0.5-0.3-1.2-0.4-1.7-0.6
			c-0.1,0-0.3-0.2-0.4-0.2c0,0-0.3,0.1-0.3,0.2c-0.1,0,0,0-0.1-0.1c0,0,0,0,0-0.1c-0.1,0-0.2,0-0.3,0c-0.2,0-0.1,0.1-0.2,0.1
			c-0.3,0.1-0.8-0.1-0.9,0c-0.1-0.1,0,0,0-0.1c0,0,0,0-0.1,0c-0.1-0.1-0.1,0.1-0.1,0.1c-0.1,0.1-0.4-0.1-0.5,0
			c-0.1,0-0.1-0.1-0.3-0.1c0-0.5,0-1.1,0-1.6c0,0-0.1,0-0.1,0c0,0.3,0.1,1.4-0.1,1.6c0,0,0,0.1,0,0.1c-0.2-0.1-0.1-0.6-0.2-0.8
			c-0.2-0.5-0.8-0.4-1.2-0.4c0-0.2,0-0.3-0.1-0.4c-0.1-0.1-0.3,0-0.4-0.1c0,0,0,0-0.1,0c0,0,0,0,0-0.1c0.6,0,0.7-0.1,1-0.4
			c0.9,0,2.2,0.1,3-0.1c0.5-0.1,1.1,0,1.5-0.1c0.5-0.1,1.1,0,1.5-0.1c0.4,0,0.7,0,1.1,0c0.5,0,0.9,0,1.4-0.1c0.5,0,4.3-0.1,5.3-0.1
			c0,0,0-0.1,0.1-0.1c1.5,0,17.4-0.2,18.3-0.2c0.2,0.1,0.3,0.2,0.6,0.2c0-0.6,0-1.1,0-1.7C55.7,5.6,55.6,5.8,55.4,5.8z M2.6,12.6
			c0-0.1,0-0.1,0-0.2c0,0,0,0,0.1,0c0,0,0,0,0,0.1c0,0,0.1,0,0.1,0C2.7,12.7,2.7,12.6,2.6,12.6z M19.1,9.8c-0.1,0-0.3,0-0.4,0.1
			c0-0.1,0-0.1,0-0.2c-0.3,0-0.4,0-0.7,0c0,0.1,0,0.1,0,0.2c0,0-0.1,0-0.1,0c0-0.2,0-0.4,0-0.5c0,0,0.1,0,0.1,0L18,9.1
			c0.1-0.2-0.1-0.2-0.1-0.2c0-0.3,0-0.5-0.1-0.8c0.4,0,0.9,0,1.3,0C19.2,8.5,19.3,9.6,19.1,9.8z M20.2,9.8
			C20.2,9.7,20.2,9.7,20.2,9.8c0,0-0.2,0-0.1,0C20.1,9.8,20.1,9.8,20.2,9.8C20.1,9.8,20.1,9.8,20.2,9.8c-0.3,0-0.7,0-1,0
			c0-0.5,0-1.1,0-1.6c0.3,0,0.7,0,1,0c-0.1,0.2-0.5,0.1-0.7,0.1c0,0.1,0,0-0.1,0.1c0,0.3-0.1,1.2,0.1,1.3c0,0,0,0,0,0.1
			C19.8,9.7,20,9.6,20.2,9.8C20.2,9.7,20.2,9.7,20.2,9.8C20.2,9.7,20.2,9.7,20.2,9.8C20.2,9.8,20.3,9.8,20.2,9.8
			C20.3,9.8,20.2,9.8,20.2,9.8z M37.4,12.5c0-0.1,0-0.1,0-0.2c0,0,0.1,0,0.1,0c0,0.1,0,0-0.1,0.1c0,0.1,0,0.2,0,0.3
			c-0.1-0.1-0.1-0.1-0.2-0.2C37.3,12.5,37.2,12.5,37.4,12.5z M35.8,12.7c-0.1,0.1-0.1,0.1-0.2,0C35.7,12.7,35.8,12.7,35.8,12.7z
			 M22.9,9.7C22.9,9.6,22.9,9.7,22.9,9.7c0.1-0.2,0.1-0.3,0.1-0.4c0.1,0,0.2,0,0.3,0c0,0,0,0.1,0.1,0.1c0,0,0-0.1,0-0.1
			c0.1,0,0.2,0,0.3,0c0,0.2,0,0.4,0,0.5c-0.2,0-0.7-0.2-1,0c-0.1-0.1,0.1,0,0-0.1c-0.1,0-0.1,0-0.2,0C22.6,9.7,22.7,9.7,22.9,9.7z"
			/>
	</g>
</g>
<g class="st1">
	<g class="st2">
		<path class="st5" d="M22.9,3.1c0-0.2,0-0.3-0.1-0.4C22.8,2.9,22.8,2.9,22.9,3.1C22.9,3.1,22.9,3.1,22.9,3.1z M22.9,3.1
			c0,0.1,0,0.2,0,0.3C23,3.3,23,3.2,22.9,3.1z M53.7,8.5V8.3c0,0-1.7,0-2.5,0c0-0.2,0-0.3,0-0.5c-0.8,0-1.1,0-1.3,0.5
			c-0.1,0-0.1,0-0.2,0c0,0,0-0.1,0-0.1c-0.1,0-0.1,0.1-0.2,0.1c-0.3,0-0.6,0-0.9,0c0,0,0-0.1,0-0.1c0,0-0.1,0-0.1,0c0,0,0,0.1,0,0.1
			c-0.4,0-0.8,0-1.1-0.1c0-0.1,0-0.2,0-0.4c-0.8,0-1.1,0-1.3,0.5c-0.1,0-0.1,0-0.2,0c0,0,0-0.1,0-0.1c0,0-0.1,0-0.1,0
			c0,0,0,0.1,0,0.1c-0.3,0-0.5,0-0.8,0c-0.1,0-0.1,0-0.2,0c0,0,0-0.1,0-0.1c0,0-0.1,0-0.1,0c0,0,0,0.1,0,0.1c-0.1,0-0.2,0-0.3,0
			c0-0.2,0-0.3,0-0.5c-0.7,0-1.1,0-1.3,0.5c-0.1,0-0.1,0-0.2,0c0,0,0-0.1,0-0.1c0,0-0.1,0-0.1,0c0,0,0,0.1,0,0.1c-0.3,0-0.5,0-0.8,0
			c-0.1,0-0.1,0-0.2,0c0,0,0-0.1,0-0.1c0,0-0.1,0-0.1,0c0,0,0,0.1,0,0.1c-0.1,0-0.2,0-0.3,0c0-0.2,0-0.3,0-0.5c-0.8,0-1,0-1.3,0.5
			c-0.1,0-0.1,0-0.2,0c0,0,0-0.1,0-0.1c0,0-0.1,0-0.1,0c0,0,0,0.1,0,0.1c-0.3,0-0.5,0-0.8,0c-0.1,0-0.1,0-0.2,0c0,0,0-0.1-0.1-0.1
			c0,0,0,0.1,0,0.1c-0.1,0-0.2,0-0.3,0c0-0.2,0-0.3,0-0.5c-0.7,0-1.2-0.1-1.3,0.5c-0.1,0-0.1,0-0.2,0c0-0.1,0-0.1,0-0.2
			c-0.1,0-0.1,0-0.2,0c0,0.1,0,0.1,0,0.2c-0.2-0.1-0.6-0.1-0.9-0.1c0-0.1,0-0.1,0-0.2c-0.1,0.1-0.1,0-0.1,0.2c-0.3,0-0.7,0-1-0.1
			c0-0.1,0-0.1,0-0.2c-0.1,0-0.1,0-0.2,0c0,0.1,0,0.1,0,0.2c-0.9,0-1.8,0-2.8,0c0-0.4-0.3-0.3-0.6-0.4c-0.5-0.3-1-0.5-1.9-0.5
			c0-0.2,0-0.4,0.1-0.5c-0.1,0-0.1,0-0.2-0.1c-0.1,0.2-0.1,0.3-0.2,0.5c0,0,0,0.1,0,0.1c-0.2,0-0.4,0-0.6-0.1c-0.4-0.1-1,0-1.4-0.1
			c-0.2-0.1-0.5,0.1-0.7-0.1c0,0,0,0-0.1,0c0,0,0,0,0-0.1c0,0,0,0,0.1,0c0,0,0-0.1,0-0.1c0.1,0,0.3,0,0.4,0c0-0.1,0-0.1,0-0.2
			c-0.2,0-0.3,0-0.5,0c0,0.1,0,0.2,0,0.4C26,7,25.5,6.9,25,6.8c0-0.1,0-0.1-0.1-0.2c-0.2-0.1-0.6,0-0.9-0.1
			c-0.2-0.1-1.1-0.5-1.3-0.3c-0.1,0-0.1,0-0.2,0c0-0.1,0-0.3,0.1-0.4c0,0,0-0.1,0-0.1c0.1,0,0.2,0,0.3,0c0-0.2,0-0.3,0-0.5
			c-0.2,0-0.3,0-0.5,0c0.1-0.1,0.4-0.1,0.6-0.1c0-0.2,0-0.3,0-0.5c0.2,0,0.4,0,0.6,0c0-0.1,0-0.1,0-0.2c-0.2,0-0.5,0-0.6-0.1
			c0,0,0,0-0.1,0c0,0,0-0.1,0-0.1c0.5,0,0.9,0,1.2-0.1c1.3,0,2.5,0,3.8,0c0-0.1,0-0.1,0-0.2c-1.3,0-2.5,0-3.8-0.1
			C24,3.9,23.5,3.9,23,3.9c0-0.2,0-0.3-0.1-0.5c-0.1,0.1,0,0.3,0,0.5c-0.1,0-0.2,0-0.3-0.1c0-0.1,0-0.2,0-0.3c-0.1,0-0.1,0-0.2,0
			c0,0.1,0,0.1,0,0.2c-0.5,0-1.6,0-2.4-0.1c0-0.1,0-0.1,0-0.2c-0.1,0-0.2,0-0.3,0c0,0.1,0,0.1,0,0.2c-0.1,0-0.2,0-0.3,0.1
			c-0.2,0-0.2-0.1-0.2,0.1c0,0,0,0,0,0.1c-0.1-0.1-0.1,0-0.2-0.2c0,0-0.1,0-0.1,0c0,0.1,0,0.2,0,0.3c0,0-0.1,0-0.1,0
			c0,0.2,0.1,0.2,0.1,0.4c0,0,0.1,0,0.1,0c0-0.1,0-0.1,0.1-0.2c0.1,0,0.1,0,0.2,0c-0.1,0.1,0,0.1-0.2,0.1c0,0.1,0,0.1,0.1,0.1
			c-0.1,0.1,0,0-0.1,0.1c0.1,0.1,0.7,0,1,0c0,0.1,0,0.2,0,0.3c0.4,0,1,0,1.2-0.2c0,0,0.1,0,0.1,0c0,0.2,0,0.3,0,0.5
			c0.1,0,0.2,0,0.3,0.1c0,0.4-0.1,0.7-0.1,1.1c-0.5,0-1,0.1-1.5,0.1c-0.1-0.1-0.2-0.2-0.3-0.3c-0.1,0-0.2,0-0.3-0.1
			c-0.1-0.1-0.1-0.1-0.1-0.3c-0.1,0.1-0.1,0.1-0.1,0.3c-1,0-2.2,0-3,0c0,0.1,0.1,0.1,0.2,0.2c-0.2,0.1-0.3,0.3-0.5,0.4
			c0,0.1,0,0.1,0.1,0.1c-0.2,0.2-1.2,0.1-1.4,0.3C15,6.8,15,6.7,15.1,6.6c-0.4,0.1-0.9,0-1.4,0.1c-0.2,0.1-0.6,0-0.8,0.1
			c-0.1,0-0.2,0.1-0.4,0.1c0,0.1,0,0.2,0.1,0.3c0,0,0,0,0,0.1c-0.1,0-0.3,0-0.4,0.1c0,0,0,0-0.1,0c0-0.2,0.1-0.6-0.1-0.8
			c0-0.2,0-0.4,0-0.7c0,0-0.1,0-0.1,0c0,0.5,0,1-0.1,1.4c-1.6,0.2-3.1,0.4-4.7,0.6C7.2,8,7.1,8,7.1,8c0,0.2-0.3,1.4-0.4,1.5
			c0,0,0,0,0,0.1C7.5,9.8,8.5,9.7,9.3,10c0.3,0,0.7,0,1,0.1c0.3,0.1,0.7,0.1,1,0.2c0.2,0,0.3,0,0.5,0c0.4,0.1,1,0.2,1.5,0.2
			c0,0.1,0,0,0.1,0.1c0,0.2,0,0.4,0,0.7c0.4,0,0.8,0,1.2,0c0,0,0,0,0,0.1c-0.1,0-0.1,0-0.2,0.2c-0.2,0-0.4-0.1-0.5-0.1
			c0,0-0.2,0.1-0.3,0.1c-0.1,0-0.5-0.2-0.8-0.1c-0.1,0-0.2,0.1-0.4,0.1c0-0.1,0-0.2,0-0.3c0,0-0.1,0-0.1,0c0,0.1,0,0.2,0,0.3
			c-0.6,0-0.3-0.1-0.6-0.3c-0.1-0.1-0.5-0.1-0.6,0c0,0-0.1,0-0.1,0c0,0.1,0,0.2,0,0.3c-0.3,0-0.4-0.2-0.7-0.2c-0.2,0-0.4,0-0.6,0.1
			c0,0-0.1-0.2-0.1-0.2c-0.1-0.1-0.6,0-0.7,0.1c-0.1,0.1-0.1,0-0.1,0.2c-0.5-0.2-1.1,0.2-1.4,0c0,0-0.1,0-0.1,0c0-0.1,0-0.1,0-0.2
			c-0.3,0-0.7,0-1,0c0-0.1,0-0.1,0-0.2c0,0-0.1,0.1-0.1,0.2C6,11,5.9,11,5.8,11c-0.4,0-1.5-0.1-1.6,0.2c-0.1,0-0.1,0-0.2,0.1
			c0,0-0.4-0.1-0.5-0.1c0,0-0.1,0.2-0.2,0.3c-0.2,0.1-0.6-0.1-0.8-0.1c-0.1,0-0.2,0.2-0.4,0.3c0,0.1,0,0.2-0.1,0.4
			c0,0.1,0.2,0.3,0.2,0.4c0,0.2-0.1,0.1-0.1,0.4c-0.2,0-0.3,0-0.5,0c0,0.1,0,0.3,0,0.4c-0.2,0-0.3,0-0.4,0.1c-0.1,0-0.3-0.2-0.4-0.3
			c0,0-0.1,0-0.1,0c0,0.2-0.1,0.2,0.1,0.3c0,0.1,0,0.1,0,0.2C1.1,13.5,1,13.4,1,13.4c0,0,0,0,0,0.1c0,0,0,0-0.1,0
			c0,0,0.2,0.5,0.2,0.5c0,0.3,0,0.2,0.3,0.4c0.1,0,0.1,0.2,0.2,0.2c0,0.3,0,0.4,0.1,0.6c0,0,0,0-0.1,0c-0.1,0.1,0,0-0.1,0
			c-0.3,0.5-0.4,0.9-0.4,1.6c0.1,0.1,0.1,0.1,0.2,0.2c0.2,0,0.4,0.1,0.5-0.1c0.5,0.4,0.7,1,1.3,1.3c0.5,0.3,1.3,0.3,1.9,0.5
			c0.9,0.3,1.9,0.6,2.9,0.8c1.4,0,2.9,0,4.3,0c4.5,0,9,0,13.5,0c2.8,0,5.7,0,8.5,0c1.2-0.3,4.2-0.8,5.2-1.8c0.5-0.5,0.7-2-0.1-2.7
			c0.1-0.1,0.3-0.1,0.4-0.2c0.2,0.1,0.1,0.3,0.3,0.4c0.4,0.2,0.7-0.1,1-0.2c0-0.1,0-0.2-0.1-0.3c-0.1,0-0.3,0.1-0.4,0.2
			c-0.7,0,0-0.5-0.2-0.8c-0.1-0.2-0.2-0.1-0.3-0.2c-0.1-0.1,0-0.2-0.1-0.2c-0.2-0.1-0.4-0.1-0.6-0.2c-0.4-0.2-0.9-0.4-1.2-0.5
			c-0.2,0-0.3-0.1-0.5-0.1c-0.2-0.1-0.5-0.3-0.8-0.3c0-0.1,0-0.3,0-0.4c-0.4,0-0.8,0-1.2,0c-0.4-0.1-0.8-0.4-1.1-0.5
			c-0.4,0-0.9-0.1-1.3-0.1c0-0.2,0-0.3,0-0.5c-0.9,0-1.8,0-2.6,0c0-0.1,0-0.1-0.1-0.2c-0.2,0-0.3,0-0.5,0c0,0.1,0,0.1,0,0.2
			c-0.8,0-1.7,0-2.5-0.1c0.2-0.1,0.5,0,0.7-0.1c0.2-0.1,1.1-0.5,1.2-0.6c0,0,0,0,0.1,0c-0.1,0.1-0.1,0.2-0.2,0.3c0,0,0,0-0.1,0
			c0,0,0,0,0,0.1c0.5,0,0.9-0.3,1.3-0.4c0.2-0.1,0.5-0.1,0.7-0.2c0.2-0.1,0.4-0.2,0.6-0.2c0-0.1,0,0,0.1-0.1c0-0.1,0-0.2,0-0.3
			c0.8,0,1.7,0,2.5,0c0,0.1,0,0.1,0,0.2c0.6,0,1.6,0,2.1-0.1c3.2,0,6.5,0,9.7,0c1,0,2,0.1,3,0.1c0.3,0,0.9,0.1,1.1-0.1
			c0,0,0.1,0,0.1,0c0-0.1,0-0.1,0-0.2c0.3,0,0.4,0.1,0.7,0.2c0.3,0.1,0.8-0.1,0.9,0c0.3,0,1.7-0.1,1.7-0.1l0.2-1.2H53.7z"/>
	</g>
</g>
<g class="st1">
	<g class="st2">
		<path class="st4" d="M36.4,9.9c0.9,0,2.3,0,2.9-0.1c0.2,0,12.7-0.2,13.8-0.2c0-0.3,0-0.6,0-0.9c-3.3,0-14-0.2-14.2-0.3
			c-1.1,0-2.2,0-3.3,0c-0.1,0-0.8-0.6-0.9-0.7c-1.1,0-2.1,0-3.2,0c0-0.3-0.1-0.6-0.1-0.9c-0.5-0.1-1-0.2-1.5-0.3
			c-0.2-0.1-0.4,0-0.5-0.1c0,0-0.1,0-0.1,0c0,0.1,0,0.2-0.1,0.3c-0.2-0.1-0.5-0.2-0.7-0.3c-0.1,0-0.1,0-0.2,0
			c-0.1-0.1,0-0.1-0.2-0.2c-0.2-0.1-0.2,0.1-0.4,0.1c0,0-0.4-0.1-0.5-0.2c-0.3,0-4-0.6-4.2-0.7c-0.1,0-0.2,0-0.4,0
			c-0.1,0,0-0.1-0.3-0.1c0-0.2-0.1-0.4,0-0.6c-0.1,0-0.1-0.1-0.2-0.2c-0.5,0-0.2-0.3-0.6-0.5c-0.1-0.1-0.6,0-0.7,0.1
			c-0.2,0-1.1,0-1.1-0.1c0-0.1,0-0.2,0-0.3c-0.1,0.1-0.1,0.2-0.1,0.3c-0.1,0-0.2,0-0.3,0c0,0,0-0.1,0-0.1c-0.2-0.1-0.2,0.2-0.5,0.1
			c0,0,0-0.1-0.1-0.1c-0.1,0-0.1,0-0.1,0.1c-0.2,0-0.3,0-0.5-0.1c-0.1,0.1-0.1,0.1-0.2,0.2c0,0.1-0.1,0.1-0.1,0.2
			c-0.1,0.3,0.1,0.7,0,0.9c0,0.2,0,0.3-0.1,0.4c-0.2,0-0.8-0.1-0.9,0.1c-0.3,0-0.5,0-0.8,0c0,0,0,0,0-0.1c0.1,0,0.1,0,0.2-0.1
			c0-0.4-0.1-0.4-0.3-0.5c0-2.9,0-5.8,0-8.7c0,0-0.1,0-0.1,0c0,2.1,0,4.2,0,6.3c0,0.8,0,1.6,0,2.4c0,0.1-0.2,0.1-0.2,0.2
			c-0.1,0-0.1,0-0.2,0c0,0.1,0,0.2,0,0.4c0.1,0,0.1,0,0.2,0.1c-0.1,0.1-1,0.2-1.3,0.2c0,1.1,0,2.1,0,3.2c0.1,0.2,2.4,1.4,2.5,1.4
			c0.6,0,1.2,0,1.9,0c0,0.1,0,0.2,0,0.3c0.1,0,0.2,0,0.3,0c-0.1,0.2-0.4,0.1-0.7,0.1c-0.6,0-1.2,0-1.9,0c-0.8,0-1.6,0-2.4,0
			c0,0,0-0.1,0-0.1l-0.9,0.1c-0.1,0-0.2,0-0.4-0.1c-0.5,0.1-1.3,0.1-2,0.1c-0.5,0-1.2-0.1-1.5-0.1c-0.3,0.1-0.6-0.1-0.7,0.1
			c-0.1,0-0.2,0-0.3,0c0-0.1,0,0,0.1-0.1c-0.1-0.2-0.1-0.1-0.3-0.1c0,0,0-0.2-0.1-0.1c0,0,0,0.1,0,0.1c-0.1,0-0.2,0-0.3,0
			c0,0.1,0,0,0.1,0.1c0,0,0,0.1,0,0.1c-0.2,0-0.3,0-0.5-0.1c0,0,0-0.1-0.1-0.1c-1.4,0-2.8,0-4.2,0c-0.4,0-1.5-0.1-1.7,0.1
			c0,0,0,0-0.1,0c0,0.1,0,0.1,0.1,0.1c-0.1,0.2,0,0.1-0.2,0.2c0,0.1-0.1,0.3-0.1,0.4c0,0,0,0,0,0.1c-0.2-0.1-0.5-0.1-0.7-0.1
			c0,0.3,0,0.5,0,0.8c0.1,0,0.2,0,0.3-0.1c0,0,0.1,0.1,0.1,0.2c-0.3,0,0,0.1-0.3,0.2c0.1,0.1,0.1,0,0.3,0c0,0.2,0,0.3-0.2,0.4
			c0.1,0,0,0,0.1,0c0,0,0.1,0,0.1,0c0,0.3-0.6,0.8-0.8,1c0,0.4,0,0.4,0.3,0.4c0,0.1,0,0.3,0,0.4c0.2,0,0.1-0.1,0.3-0.1
			c0.1,0.1,0.1,0.1,0.2,0.2c0,0.1,0,0.2,0,0.3c0.2,0,0.2-0.1,0.2-0.3c0,0,0.1,0.2,0.1,0.2c-0.1,0.2-0.1,0.1-0.2,0.2c0,0,0,0-0.1,0
			c0,0,0,0,0,0.1c0.1,0,0.1,0,0.2-0.1c0.2,0,0.1,0.1,0.3,0.1C2,15.9,2,16.2,1.7,16.5c0,0.4,0.1,0.2,0.2,0.4c0.1,0.2,0,0.4,0.1,0.6
			c0,0,0,0.1,0,0.1c0,0,0.1,0,0.1,0c0.1-0.2,0.1-0.4,0.1-0.7c0.1,0,0.1,0,0.2,0c0.1,0.1,0.1,0.3,0.2,0.4C2.5,17.4,6.4,20,7.3,20
			c7.2,0,14.4,0,21.6,0c1.7,0,3.5,0,5.2,0c0.9,0,2,0.1,2.6-0.3c0.1-0.1,2.7-2.3,2.8-2.5c0.4-0.3,0.7-0.6,0.9-1
			c0.1-0.3,0.2-1,0.1-1.4c-0.1-0.2-0.4-0.7-0.4-0.7s0.4-0.7,0.5-0.9c0-0.1,0,0,0.1-0.1c-0.3-0.2-0.7-0.3-1.1-0.4
			c-0.6,0-1.1,0-1.7,0.1c0.2-0.1,0.9-0.1,1.2-0.1c0-0.1,0-0.1,0-0.1c-1,0-1.9,0-2.8,0c0-0.1,0-0.1,0-0.2c0.5,0,0.9,0,1.4,0
			c0.1-0.1,0-0.1,0.2-0.2c0,0.1,0,0.1,0,0.2c0.1,0,0,0,0.1-0.1c0.3,0,0.4-0.1,0.6-0.1c0-0.1,0-0.2,0-0.3c-0.7,0-1.5-0.1-2.2-0.1
			c0-0.2,0-0.3-0.1-0.5c0,0,0,0-0.1,0c0,0,0,0,0-0.1c-0.1,0-0.2,0-0.3,0.1c0,0,0,0,0,0.1c-0.1,0-0.1-0.1-0.3-0.1c0,0,0,0,0,0.1
			c0,0-0.1,0-0.1-0.1c0,0,0,0.1,0,0.1c-0.2,0.1-0.3-0.1-0.4-0.1c0-0.1,0-0.1,0-0.2c0,0-0.1,0-0.1,0c0,0.1,0,0-0.1,0.1
			c0,0.1,0,0.1,0.1,0.1c-0.1,0.1,0,0.1-0.2,0.1c0-0.2,0-0.3,0-0.5c-0.1,0-0.2,0-0.3,0c0-0.2-0.1-0.2-0.1-0.4c0,0,0-0.1,0-0.1
			c-0.5,0-0.4,0.2-0.7,0.4c-0.1,0-0.1-0.1-0.1-0.1c-0.1,0-0.3,0-0.4,0.1c0,0-0.1,0-0.1,0c0,0,0-0.1,0-0.1c-0.2-0.1-0.4,0-0.5,0.1
			c-0.9,0-1.9,0-2.8,0c0,0,0-0.1,0-0.1c0.3,0,0.7,0,1,0c0,0,0-0.1,0-0.1c0,0,0.1,0,0.1,0c0,0,0-0.1,0.1-0.1c0.3,0,0.5,0,0.8-0.1
			c0-0.2,0-0.5-0.1-0.6c0,0,0-0.1,0-0.1C33.3,9.9,34.9,9.9,36.4,9.9z M2.1,14.5C2.1,14.5,2.1,14.5,2.1,14.5c-0.1,0.1,0,0-0.1,0.2
			c0-0.1,0,0-0.1-0.2C2,14.5,2.1,14.5,2.1,14.5z M1.9,12.3c0-0.1,0,0-0.1-0.2c0,0,0.1,0,0.1,0C1.9,12.2,1.9,12.2,1.9,12.3
			C1.9,12.3,1.9,12.3,1.9,12.3z M1.9,14.8c0,0,0-0.1,0-0.1c0.1,0,0,0,0.1,0.1C2,14.8,2,14.8,1.9,14.8C1.9,14.8,2,14.8,1.9,14.8z
			 M2.1,15c0-0.1,0-0.1-0.1-0.2c0,0,0.1,0.1,0.1,0.1C2.1,14.9,2.1,15,2.1,15C2.1,15,2.1,15,2.1,15z M2.2,15.3
			C2.2,15.3,2.2,15.3,2.2,15.3c-0.1,0-0.1-0.1-0.1-0.1c0,0,0,0,0.1,0C2.2,15.2,2.2,15.3,2.2,15.3z M37.7,12.8
			c-0.1,0.1-0.8,0.1-0.9,0C37.1,12.8,37.4,12.8,37.7,12.8z M36.4,12.8c-0.1,0.1-0.2,0.1-0.3,0C36.3,12.8,36.3,12.8,36.4,12.8z"/>
	</g>
</g>
<g>
	<g>
		<path class="st4" d="M42.8,9l-0.4-0.3h-2.8L39.3,9c0,0-1.7,0-2.5,0c0-0.2,0-0.5,0-0.7c-1.1,0-2.3,0-3.4,0
			c-0.2-0.1-0.4-0.2-0.7-0.3c0-0.1,0-0.2,0-0.3c-0.1,0-0.1,0-0.2,0c0,0.1,0,0.2-0.1,0.3c0,0-0.1,0-0.3,0c0,0.1,0,0.2,0,0.4
			c-0.4-0.1-0.7-0.3-1.1-0.5c0-0.2,0.2-0.4,0.1-0.6c0-0.1,0-0.1-0.1-0.2c-0.1,0,0,0-0.1-0.1c-0.4,0-0.4,0.1-0.6,0.3
			c-0.4,0-0.6-0.2-0.9-0.4c-0.3-0.1-0.6-0.2-0.9-0.3c-0.1,0-0.2,0-0.4,0c0,0,0-0.1,0-0.1c0,0-0.2-0.1-0.2-0.1
			c-0.2,0-0.5-0.1-0.7-0.1c0,0,0,0.1,0,0.1c-0.2,0-0.3,0-0.5,0c-0.5-0.1-1.3-0.1-1.9-0.1c0-0.2,0-0.4,0-0.6c-0.3,0-0.5,0.3-0.5,0.6
			c-0.1,0-0.2,0-0.4,0c0-0.1,0-0.1,0-0.2c-0.3,0-0.3-0.2-0.4-0.4c-0.4-0.1-0.7-0.3-1.1-0.4c-0.4-0.1-1.4,0.3-1.6,0.4
			c0,0.1,0,0.1-0.1,0.2c-0.2,0-0.3,0-0.5,0c-0.1,0.1,0,0.1-0.3,0.2c0,0.1,0,0.2,0,0.3c-0.2,0-1.2,0-1.4,0.1c-0.1,0-0.1,0-0.2-0.1
			c-0.2-0.3-0.2-1.1-0.3-1.6c-0.2-0.8-0.2-1.6-0.5-2.4c-0.1-0.5-0.3-1-0.3-1.6c-0.1,0-0.1,0-0.2,0c0,0.6,0.2,1.2,0.3,1.8
			c0.2,0.6,0.2,1.2,0.3,1.7C18.3,5,18.3,5.7,18.5,6c0,0.1,0,0.1,0,0.2c-0.2-0.3-0.2-0.8-0.4-1.1c-0.2-0.6-0.4-1.3-0.7-2
			c-0.1-0.3-0.3-0.7-0.4-1.1C17.1,2,17,2,17,2c0,0.5,0.2,0.7,0.3,1.1c0.2,0.7,0.4,1.3,0.6,1.9c0.1,0.4,0.2,1.2,0.5,1.5
			c0,0,0,0,0,0.1c-0.5,0-1.1-0.1-1.5,0.1c0,0.2,0.1,0.3,0.1,0.4c0,0.1-0.1,0.2-0.1,0.3c-0.2,0-0.3,0-0.5,0c0,0.1-0.1,0.2-0.1,0.3
			c0,0,0,0-0.1,0c-0.1,0.1-0.4,0.1-0.6,0.3c-0.1,0.1-0.2,0.2-0.3,0.3c-0.1,0-0.1,0-0.2,0c-0.1,0-0.7,1-0.8,1.2
			c-0.1,0.2,0,0.4-0.2,0.5c0,0.2,0,0.5,0.1,0.6c0.2,0.2,0.5,0.1,0.8,0.2c0.6,0.1,1.3,0.2,1.9,0.4c0.2,0,0.4,0,0.6,0.1
			c0.3,0.1,0.7,0.3,0.8,0.5c0.1,0.1,0.1,0.3,0.3,0.4c0,0,0,0,0,0.1c-0.6,0-0.9-0.2-1.3-0.3c-0.2,0-0.3,0-0.5-0.1
			c-0.1,0-0.2-0.2-0.4-0.3c-0.3,0-0.5,0-0.8,0c0,0,0-0.1-0.1-0.1c-0.2-0.1-0.5,0.1-0.6,0.1c-0.4,0-0.9,0-1.3,0
			c-0.3-0.1-0.8,0.1-1.3,0c-0.4-0.1-1.1,0-1.5,0.1c-0.8,0-1.5,0-2.3-0.1c0,0.1,0,0.1,0,0.2c-0.1,0-0.3,0-0.4,0c0,0,0-0.1,0-0.1
			c-0.2-0.1-0.3,0.1-0.4,0.1c-0.2,0-0.5-0.3-0.6-0.5c-0.1,0-0.2,0-0.3,0.1c0,0.2-0.1,0.3-0.1,0.6c-0.1-0.1-0.2-0.1-0.4-0.1
			c0-0.1,0-0.1,0-0.2c-0.2,0-0.8,0-1-0.1c-0.2,0-0.2-0.1-0.3-0.3c-0.1,0-0.1,0-0.2,0c0,0.1,0,0.2,0,0.3c-0.2,0-0.5,0-0.7,0
			c-0.2,0-0.2-0.1-0.4-0.2c0,0.1,0,0.3-0.1,0.4c-0.1,0-0.2,0-0.3,0.1c-0.1,0-0.1-0.1-0.3-0.2c0,0.1,0,0.2,0,0.3
			c-0.3,0-1.1,0.2-1.4,0.1c0,0,0-0.1,0-0.1c-0.1,0-0.2,0-0.4,0c0,0.1-0.2,0.2-0.1,0.4c0.1,0,0.1,0,0.2,0.1c0.1,0.2-0.1,0.4-0.1,0.6
			c0,0.3,0.1,0.7,0.1,1.1c0.3,0,0.5,0,0.8,0c0,0.2,0,0.4,0,0.6c0.1,0,0.3,0,0.4,0c0,0.3,0,0.5-0.2,0.7c-0.2,0.4-0.7,0.1-1.1,0.3
			c-0.1,0-0.2,0.1-0.3,0.2c0,0.3,0,0.6,0.1,0.7c0.3,0.4,0.6,0,0.8,0c0.3,0.1,0.6,0.3,1,0.3c0,0,0,0,0,0.1c0,0,0,0,0.1,0
			c0,0.2-0.1,0.3-0.3,0.4c0,0.1,0,0.2,0.1,0.3c-0.1,0-0.2,0.1-0.3,0.1c0,0.3,0.3,0.3,0.5,0.5c0.5,0,0.5-0.1,0.8-0.3
			c0.5,0.7,4.5,2.2,5.2,2.4c0.6,0.2,1.4,0.1,2.1,0.1c1.5,0,3,0,4.4,0c4.5,0,9,0,13.6,0c1.6,0,3.2,0,4.7,0c0.8,0,1.8,0.1,2.4-0.1
			c0.3-0.1,1.4-0.5,1.7-0.7c0.8-0.4,1.7-0.8,2.6-1.2c0.5-0.2,0.9-0.3,1.2-0.7c0.1-0.1,0-0.2,0.1-0.3c0.1-0.1,0.2-0.1,0.3-0.3
			c0.1-0.3,0-1-0.1-1.2c0.1-0.1,0.2-0.1,0.3-0.2c0-0.3-0.2-0.4-0.4-0.6c0.1-0.2,0.1-0.3,0.2-0.5c0.1,0,0.1,0,0.2,0.1
			c0-0.5-0.8-0.6-1.2-1c-0.6,0-1.2,0-1.8,0c0.1-0.3,0-0.1,0-0.5c0.1,0,0.1,0,0.2,0c0-0.2,0-0.3,0-0.5c-0.1,0-0.1,0-0.2,0
			c0-0.1,0-0.1,0-0.2c-0.3,0-0.6,0-0.9,0c-0.1,0.1,0,0.1-0.2,0.2c0,0.1,0,0.1-0.1,0.2c0,0,0,0,0,0.1c0,0,0,0-0.1,0
			c-0.1-0.1-0.1-0.2-0.2-0.3c-0.3,0-0.6,0-0.7,0.2c-0.2,0-0.3,0-0.4-0.1c0-0.1,0-0.2,0-0.3c0.1,0,0.1,0,0.2,0c0-0.1,0-0.1,0-0.2
			c-0.6,0-0.6-0.1-0.9-0.2c-0.4-0.1-1.3,0.1-1.7,0.1c0-0.1,0-0.1,0-0.2c-0.4,0-0.6-0.2-1.1-0.2c0.1-0.2,0.3-0.3,0.4-0.6
			c0.8-0.1,1.9-0.1,2.8-0.1c0-0.1,0-0.2,0-0.3c0.8,0,2.5,0,2.5,0l0.3,0.3h2.8l0.4-0.3l10.5-0.1h0.1V9.1L42.8,9z M1.7,15.6
			C1.7,15.6,1.7,15.6,1.7,15.6C1.6,15.7,1.7,15.6,1.7,15.6c-0.1,0-0.1,0-0.2-0.1c0,0,0-0.1,0-0.1c0.1,0,0.1,0,0.2,0
			C1.7,15.5,1.7,15.5,1.7,15.6z M3.4,17c-0.1,0-0.2,0-0.3-0.1c-0.1,0,0,0-0.1-0.1c0.1,0,0.1,0,0.2-0.1c0.2,0,0.1,0,0.2,0.1
			c0,0,0,0,0.1,0C3.4,16.9,3.4,16.9,3.4,17z M30.7,7.8c0-0.1,0-0.1-0.1-0.2c0,0,0.1-0.1,0.1-0.2c0.1,0,0.1,0,0.2,0.1
			C30.9,7.7,30.8,7.7,30.7,7.8z"/>
	</g>
</g>
</svg>
