<svg xmlns="http://www.w3.org/2000/svg" width="34" height="14" viewBox="0 0 34 14">
  <path fill="#8C8C7C" fill-rule="evenodd" d="M2.19077775,13.2331986 C2.56657332,13.636938 3.32068143,13.9642334 3.86490144,13.9642334 L21.4792462,13.9642334 C22.5805807,13.9642334 24.0274219,13.2571666 24.7061307,12.3909868 L26.2111816,10.4702148 L25.477417,9.02539062 L23.9919434,9.02539062 L23.9919434,7.91674805 L26.0330811,7.0057373 L34.008667,6.95275879 L33.9387207,5.99389648 L26.0697021,5.97473145 L25.5062256,4.91320801 L21.4261475,4.96179199 L20.7474365,3.98522949 L12.3903809,3.9979248 L12.3822021,0 L12.0487061,2.27100783e-18 L12.0255127,3.92614746 L9.05615234,5.2947998 L9.02758789,6.94055176 L2.484375,7.01330566 L0.142089844,8.48608398 L0,10.8795166 L2.19077775,13.2331986 Z"/>
</svg>
