<svg xmlns="http://www.w3.org/2000/svg" width="58" height="21" viewBox="0 0 58 21">
  <path fill="#FAB81B" fill-rule="evenodd" d="M7.05252804,19.7363345 C7.58112834,19.8947623 8.46434422,20.0231934 9.00535382,20.0231934 L34.5339528,20.0231934 C35.0838684,20.0231934 35.9293114,19.8284823 36.4301733,19.5844595 L39.1325708,18.2678354 C39.6299089,18.0255294 40.3552454,17.5103062 40.7441194,17.1254988 L42.9396973,14.9528809 L43.1020508,14.0078125 L43.9780273,14.0078125 L43.9780273,13.0218506 L43.1020508,13.0218506 L36.0205078,10.1153564 L32.0236816,10.0181885 L32.0831299,9.08239746 L33.0008545,8.96264648 L33.0703125,7.95043945 L57.0534668,7.96887207 L56.9816895,6.92504883 L31.869751,6.96948242 L31.0604248,5.97338867 L29.0775146,5.98937988 L28.0649414,5.03234863 L27.0119629,4.9699707 L25.9898682,4.03674316 L24.0296631,4.03503418 L23.0842285,3.00256348 L28.9957275,3.00598145 L29.0263672,2.54553223 L22.978447,2.54553223 L22.978447,2.09230649 L21.960083,2.01599121 L21.960083,2.54553223 L20.9786377,2.54553223 L21.9090576,2.859375 L21.9484863,3.90014648 L18.0491943,3.99145508 L17.9650879,4.87426758 L16.9952393,4.94836426 L17.0227051,0.294067383 L16.5296631,0.294067383 L16.5296631,4.94177246 L13.9718018,5.01025391 L13.9632568,5.89306641 L11.902832,6.02172852 L12.0307617,8.05334473 L17.9989014,8.00427246 L18.0795898,9.06848145 L19.0273437,9.04614258 L19.0151367,9.8939209 L13.7634277,9.94311523 L13.0361328,8.99206543 L3.0222168,9.05664062 L3.01416016,9.93847656 L0.00122070312,10.0566406 L-0.000122070313,12.041626 L1.98071289,12.0076904 L1.9642334,13.0218506 L0.915039062,13.9262695 L0.915039062,15.0939941 L2.12317041,16.9231873 C2.73066934,17.8429821 4.07887463,18.8450955 5.1424172,19.1638517 L7.05252804,19.7363345 Z"/>
</svg>