<?xml version="1.0" encoding="utf-8"?>
<!-- Generator: Adobe Illustrator 22.1.0, SVG Export Plug-In . SVG Version: 6.00 Build 0)  -->
<svg version="1.1" id="Layer_1" xmlns="http://www.w3.org/2000/svg" xmlns:xlink="http://www.w3.org/1999/xlink" x="0px" y="0px"
	 width="28px" height="13px" viewBox="0 0 28 13" style="enable-background:new 0 0 28 13;" xml:space="preserve">
<style type="text/css">
	.st0{fill-rule:evenodd;clip-rule:evenodd;fill:#8C8C7C;}
</style>
<path class="st0" d="M10,5l0-1L8,4l1-3l1,0l0.2-0.5h0.5L11,1l2,0l0.5-0.8L13.8,1L14,1l0-1h1l0,1l1,0l3,0.6h2.6l0,0.5l4.4,0v0L27,2
	l0,0.9l-1-0.1v0l-4.3,0v0.7l-0.9,0v0.3H19L19,4h-1l0,1l1,0.8l3,0L22,6l2,0l0-1h1l0,1l1,0l1,0.3L27.7,7L28,8l-1,0v1.9l-4,3L5,13l-3-1
	L1,11L1,10l-1,0l0-2l2-1l0-1l1-1l1,0l0-0.8l1,0L5,5L10,5z"/>
</svg>
