<svg width="61" height="22" viewBox="0 0 61 22" fill="none" xmlns="http://www.w3.org/2000/svg">
<g clip-path="url(#clip0_213_1063)">
<path fill-rule="evenodd" clip-rule="evenodd" d="M0.932352 14.964L0.947352 12.033L1.99935 11.158L2.20935 10.351L7.79735 10.34L7.88135 11.022L15.9574 11.033L15.9784 9.03695L16.9734 8.99296L17.0134 7.93496L15.0204 7.94496L14.9984 7.03396L16.7424 7.02396L17.0264 6.58096L18.0784 6.03396L22.9984 6.04396L23.0094 8.97995L24.9664 8.98995L24.9864 5.96096L20.9774 5.58195L20.9654 1.95496L23.9624 1.45296L23.9334 0.678955L27.3324 0.696955C27.4584 1.11696 30.3574 0.969955 30.3574 0.969955L37.5984 1.49496L38.0173 3.03695L61.0064 2.98596L60.9963 3.99296L45.9664 4.33996L45.9444 4.98196L44.3474 4.81396L44.1794 5.14996L38.1644 5.31996L38.1534 6.24296L38.0004 6.74696L38.0033 8.96896L39.0313 8.95895L39.0224 6.98295L40.0313 6.97196L40.0224 6.01996L45.5233 5.99796L47.0704 6.15896L47.9184 6.95695L54.7663 6.95896C54.6823 7.29496 49.3474 7.88996 49.3474 7.88996L47.9844 8.89596L46.9984 8.97995L47.0084 10.486L46.9574 10.991L49.3894 10.99L52.9934 10.991L53.0184 9.97896L54.0434 10.021L54.0124 10.991L58.8703 11.032L59.8493 11.914L58.9743 14.603L58.9543 15.611L58.5344 16.998L53.5064 20.932L51.7414 21.941L10.6544 21.958L9.39335 21.748L1.57935 19.098L0.0693516 17.04L-0.0146484 15.779L0.932352 14.964Z" fill="#FAB81B"/>
</g>
<defs>
<clipPath id="clip0_213_1063">
<rect width="61" height="22" fill="white"/>
</clipPath>
</defs>
</svg>
