<?xml version="1.0" encoding="UTF-8"?>
<!-- Generator: Adobe Illustrator 23.0.2, SVG Export Plug-In . SVG Version: 6.00 Build 0)  -->
<svg version="1.1" id="Layer_1" xmlns="http://www.w3.org/2000/svg" xmlns:xlink="http://www.w3.org/1999/xlink" x="0px" y="0px" width="42.4px" height="19px" viewBox="0 0 42.4 19" style="enable-background:new 0 0 42.4 19;" xml:space="preserve">
<style type="text/css">
	.st0{fill-rule:evenodd;clip-rule:evenodd;fill:#8C8C7C;}
</style>
<path class="st0" d="M0.4,14.7l0.4-0.8c0,0,0.2-0.4,0.2-0.5c0-0.1,0.4-1.4,0.4-1.4h1.6l0.9-0.4v-0.3h1.6l0.1-0.6l0.7-0.1l0.2,0.3  l1.9-0.4H7v-0.3H2.4L2.2,9.7l-0.9,0.7L0.6,9.5L0.3,9.9L0,9.7c0,0,0.5-0.7,0.5-0.7c0-0.1,0-1,0-1l1.8-3l0.1,0.2L1.5,7l0.9-0.5  L2.2,5.9l0.3-0.2l0.6,0.6l1.4,0.5L2.6,0l2.2,6.9h0.6V6.2h3v0.6h0.9V6.1h1.3v0.7h0.8l0-1.8h-1v-1l7.1,0.3l0,0.3l-5.1,0.4l0,1H15v0.5  l1.8,0.7L17,6.6L18.7,7h7.6V6.6h4V7h11V6.6h1.1v1.8h-1.1V7.9H30.3v0.3h-4V7.8h-5.8l4,2.7l1.9,0.1v-0.2h0.9v0.3l9.1,1.3v-1h0.8  l0.1,1.6l1.3,2.2l-1.3,0.1l-0.2,0.7l-0.5,0.5l-5,2.7L30.8,19H7.9L7,18.7L2,15.1L0.4,14.7z"/>
</svg>