<?xml version="1.0" encoding="utf-8"?>
<!-- Generator: Adobe Illustrator 27.2.0, SVG Export Plug-In . SVG Version: 6.00 Build 0)  -->
<svg version="1.1" id="Layer_1" xmlns:sketch="http://www.bohemiancoding.com/sketch/ns"
	 xmlns="http://www.w3.org/2000/svg" xmlns:xlink="http://www.w3.org/1999/xlink" x="0px" y="0px" width="44.1px" height="17.4px"
	 viewBox="0 0 44.1 17.4" style="enable-background:new 0 0 44.1 17.4;" xml:space="preserve">
<style type="text/css">
	.st0{display:none;fill-rule:evenodd;clip-rule:evenodd;fill:#8C8C7C;}
	.st1{fill-rule:evenodd;clip-rule:evenodd;fill:#8C8C7C;}
</style>
<path class="st0" d="M9.8,17.2h26.4l0.5-0.1l0.3-0.2l3-1.8c0,0,0.7-0.4,0.9-0.6c0.1-0.1,0.4-0.4,0.5-0.5c0.1-0.2,0.2-0.5,0.3-0.7
	c0-0.1,0-0.4,0-0.5s0-0.3-0.1-0.5s-0.3-0.6-0.3-0.6l0.4-0.3c0,0-0.6-0.5-0.8-0.6c0,0-0.1,0-0.1-0.1h-0.1l-0.1-0.1c0,0-0.1,0-0.2-0.1
	c-0.1,0-0.4,0-0.4,0h-0.2v-0.3h-4.3L35.4,10H37l0.1-0.1c0,0,0.2,0,0.3,0c0,0,0.1,0,0.1-0.1c0,0,0-0.1,0.1-0.1V9.6l-0.4-0.1V9.4
	l4.3-0.1l0,0h0.2V9.1h-0.2l0,0L36.4,9l-0.1-0.1h-0.1v0l-0.1-0.1L36,8.9V9h-0.3l-0.1-0.1l0,0h-0.1V9h-0.2V8.7l-0.6-0.2h-0.4V8.3
	l-1.5-0.5h-0.1V7.7h-0.1l0,0v0.1h-0.3l0,0H32l-0.1,0.1h-4.8L27,7.8h-0.1V7.4h-0.2v0.1l0,0V7.4h-0.1v0.1l0,0l-0.1-0.1h-0.2v0.1v0.2
	h-0.1v0.1H26v0l0,0h-0.1l0,0l0,0l0,0h-0.1l0,0v0.1h-0.3V7.8h-0.1l0,0h-0.1l-0.1,0.1V8h-1.1V7.8H24l0,0h-0.1l-0.1,0.1V8l0,0l0,0H24
	V7.7h-0.1l0,0h-0.2v0.1h-0.1V6.3h-0.1v1.5h-0.1l-0.1-0.1h-0.2c0,0,0-0.3,0-0.5C23.1,7.1,23,7,23,7c-0.1-0.1-0.2-0.2-0.3-0.2
	c-0.5,0-0.6,0-0.6,0V6.6l0,0l0,0H22v0.1l0,0v0.2h-0.1l-0.2-0.2h-0.1h-0.2V6.4h-0.1l0,0h-1.9V6.3H24l0.7-0.5l4.2-0.2l17.2-0.1v0.2H47
	V3.9h-0.9v0.2L28.7,3.9l-3.1-0.2h-2.4l-0.3-0.4l-0.1-0.1h-0.1h-3.3V2.3L18,2.1h-0.2l-0.1-0.2h0.1V1.8l-0.1-0.1l0,0l0,0h-0.1l0,0l0,0
	V1.6l0,0l0,0l0,0h-0.1l0,0l0,0l0,0l-0.1-0.2h-2V1.2h-0.6v0.1h-0.2l0,0h-0.1l0,0h-0.9v0.1h-0.1l0,0h-0.2V1.2h-0.6v0.1l0,0V1.2H12v0.1
	h-0.2l0,0h-0.1l0,0h-0.9v0.1h-0.1l0,0h-0.1V1.2H10v0.1H9.8l0,0H9.1V1.2H9V0.1l0,0v1.1H8.9v0.2H8.2V1.3l0,0H7.9l0,0l0,0h0.2v0.1H3.6
	L3.5,1.8v0.1H3.3L3.2,2.4l0.1,0.1L2.6,4.8H2.4L2.2,5.4h0.1L2.2,5.8v1h-2V7h0.9l0.7,0.3h0.1l0,0l0,0L1.7,7.5v0.1v0.1l0,0v0.4l0.1,0.1
	v0.1h0.1v0.2l0,0V9H1.7l0,0H1.5l0,0v0.6l0,0h0.2l0,0h0.2l-0.1,0v0.5l-0.1,0.2v0.2l0.1,0.1v0.3h0.4v-0.3l0.1-0.1v-0.3l-0.1,0V10l0,0
	v0.1l0.6,0.5h1.8l-0.9,0.8l-0.3,0.2v0.1V12l0.1,0.1h0.1v0.1l0,0v0h0.1v-0.1l1,0.1l0,0c0,0-0.2,0.4-0.3,0.6c0,0.1-0.1,0.4-0.1,0.5
	s0,0.2,0,0.3s0,0.3,0.1,0.4c0,0.1,0.1,0.4,0.2,0.5s0.2,0.3,0.3,0.4C5,15,5.2,15.2,5.3,15.2c0.2,0.1,1,0.5,1,0.5L6.9,16l2.5,1.1
	L9.8,17.2z"/>
<g>
	<g>
		<path class="st1" d="M24.1,6.2c0.2-0.2,0.4-0.3,0.7-0.5c0,0,0-0.1,0-0.1c0.6,0,1.4,0,1.9-0.1c0.2-0.1,0.6,0,0.8,0
			c0.2,0,0.3,0,0.5,0c0.3,0,0.8,0,1-0.1c4.6-0.1,9.2-0.1,13.8-0.2c0-0.3,0-0.6,0-1c-2.8,0-10.9-0.1-11.9-0.1c-0.6,0-4.2,0-4.9-0.2
			c-0.2-0.1-0.6,0.1-0.8,0c-0.6,0-1.3,0-1.9,0c-0.2-0.1-0.3-0.5-0.6-0.6c-0.2-0.1-0.6,0-0.9,0c-0.8,0-1.6,0-2.4,0c0-0.3,0-0.6,0-0.9
			c-0.2,0-1.2-0.1-1.3-0.2c-0.5,0-0.3-0.2-0.4-0.4c-0.1-0.1-0.2,0-0.4-0.4c-0.7,0-1.4,0-2,0c0-0.1,0-0.1,0-0.2c-0.2,0-0.4,0-0.6,0
			c0,0.1,0,0.1,0,0.2c-0.1,0-0.2,0-0.2,0c0,0,0-0.1,0-0.1h-0.9c-0.1,0,0,0.1-0.2,0.1c0-0.1,0-0.1,0-0.2c-0.2,0-0.4,0-0.7,0
			c0,0.1,0,0.1,0,0.2c0,0,0-0.1,0-0.2c-0.2,0-0.4,0-0.6,0c0,0.1,0,0.1,0,0.2c-0.1,0-0.2,0-0.2,0c0,0,0-0.1,0-0.1H11c0,0,0,0.1,0,0.1
			c-0.1,0-0.2,0-0.2,0c0-0.1,0-0.1,0-0.2c-0.2,0-0.4,0-0.6,0c0,0,0,0.1,0,0.1c-0.3,0-0.6,0-0.9,0c0-0.1,0-0.2,0-0.2
			c0-0.4,0-0.7,0-1.1c0,0-0.1,0-0.1,0c0,0.4,0,0.9,0,1.3c-0.2,0-0.4,0-0.7,0c0,0,0-0.1,0-0.1c0,0-0.2,0-0.3,0c0.1,0,0.1,0,0.2,0
			c0,0,0,0,0,0c-1.5,0-2.9,0-4.4,0c0,0-0.1,0.4-0.1,0.5c-0.1,0-0.1,0-0.2,0c0,0.2-0.1,0.4-0.2,0.5c0,0.2,0.1,0.1,0.1,0.3
			C3.5,3,3.2,3.6,3.1,3.9C3,4.2,3,4.5,2.8,4.7c-0.1,0,0,0-0.1,0c0,0.2-0.1,0.4-0.2,0.5c0,0.2,0.1,0.1,0.1,0.3c0,0.1-0.1,0.3-0.2,0.4
			c0,0.3,0,0.6,0,0.9c-0.7,0-1.3,0-2,0c0,0.1,0,0.1,0,0.1c0,0,0,0.1,0,0.1c0.9,0,1.1,0.1,1.7,0.4c0,0.1,0,0.1,0,0.2
			c-0.1,0-0.1-0.1-0.1-0.1C2,7.5,2,7.5,1.9,7.6c0,0.2,0,1,0,1.1c0,0.1,0,0,0,0.1c0-0.1,0,0,0-0.1c0,0,0-0.1,0-0.1c0,0,0,0,0,0.1
			c0,0,0,0,0,0c0-0.1,0.1-0.2,0-0.2c0,0,0-0.1,0-0.1c0,0,0,0,0,0.1c0,0,0,0,0,0C2,8.2,2,8.2,2,8.1C2,8.1,2,8,2,8c0,0,0,0,0,0.1
			c0,0,0,0,0,0c0-0.1,0.1-0.2,0-0.2c0-0.1,0-0.1,0-0.2c0.1,0.1,0.3,0.9,0.2,1.2C2,8.8,2,8.8,1.9,8.7c0,0-0.1,0-0.1,0
			c0.1,0.2,0,0.4,0,0.7c0.1,0,0.1,0,0.2,0c0,0,0.1,0,0.1,0c0,0.2,0.1,0.6,0,0.7c0,0-0.1,0.1-0.1,0.1c-0.1,0.2,0.1,0.4,0.1,0.7
			c0.1,0,0.3,0,0.4,0c0-0.3,0.2-0.6,0-0.7c0,0,0-0.1,0-0.1c0.2,0.1,0.5,0.3,0.6,0.5c0.6,0,1.2,0,1.7,0c0,0,0,0,0,0
			c-0.4,0.3-0.6,0.8-1.2,0.9c0,0.1,0,0.2,0,0.3c0.1,0.1,0.2,0.2,0.2,0.2c0.2,0,0.6-0.2,0.8,0c0.1,0,0.2,0,0.3,0
			c-0.1,0.2-0.3,0.5-0.3,0.7c0,0.1,0,0.2,0,0.3c-0.1,0.4,0,0.9,0.2,1.2c0.5,1.2,1.8,1.4,2.9,1.9c0.6,0.3,1.2,0.7,1.9,0.9
			c0.5,0.1,1.3,0,1.9,0c1.3,0,2.6,0,3.9,0c4.4,0,8.8,0,13.2,0c1.9,0,3.8,0,5.8,0c0.9,0,2,0.1,2.7-0.2c0.1-0.1,1.1-0.7,1.5-0.9
			c0.3-0.2,0.7-0.5,1-0.7c0.1,0,0.4-0.2,0.4-0.2c0.2-0.2,0.5-0.3,0.7-0.4c0,0,0.1,0,0.1,0c0.1,0,0-0.1,0.1-0.2
			c0.1-0.1,0.2-0.1,0.3-0.2c0-0.1,0.1-0.2,0.1-0.2c0,0,0.1,0,0.1,0c0.3-0.6,0.4-1.8-0.2-2.2c0.1-0.2,0.2-0.2,0.3-0.4c0,0,0,0,0,0
			c-0.1-0.2-0.2-0.2-0.4-0.3c-0.4-0.3-0.7-0.6-1.5-0.6c0-0.1,0-0.1,0-0.2c-0.2,0-0.3-0.1-0.5-0.1c-0.2,0-0.5,0-0.7,0
			c-0.2,0-0.6,0-0.9,0c-0.8,0-1.4,0-2.2,0c0-0.1,0-0.1,0-0.2c0.7,0,1.8,0.1,2-0.3c0.1-0.2-0.2-0.2-0.4-0.2c0.2-0.1,0.5,0,0.8,0
			c0.4-0.1,1,0,1.5,0c0.6-0.1,1.4,0,2.2,0c0-0.1,0-0.2,0-0.3c-0.7,0-1.5,0-2.2,0c-0.4,0-1,0-1.3,0c-0.4,0-0.9,0-1.3,0
			c-0.5-0.1-0.8-0.1-1.4-0.1c0-0.4-0.5-0.4-0.9-0.4c0-0.1,0-0.1,0-0.1c0-0.1-0.3-0.1-0.5-0.2C33.5,8,33,7.8,32.7,7.8
			c0,0,0-0.1,0-0.1c-0.1,0-0.2,0.1-0.3,0.1c-0.1,0-0.3-0.1-0.4,0c-1.2,0-2.3,0-3.5,0c-0.5,0-1.2,0.1-1.5-0.1c0-0.1,0-0.2,0-0.3
			c-0.1,0-0.1,0-0.2,0c0,0,0,0.1-0.1,0.1c0-0.1,0-0.1-0.1-0.1c0,0,0,0.1,0,0.1c0,0,0-0.1,0-0.1c-0.1,0-0.2,0-0.2,0
			c0,0.1,0,0.2,0,0.3c-0.1,0,0,0-0.1,0.1c-0.1,0-0.1,0-0.2,0c0,0,0-0.1,0-0.1c-0.1-0.1-0.2,0.2-0.4,0.1c0,0,0-0.1,0-0.1
			c-0.1-0.1-0.2,0.1-0.3,0.1c-0.4,0-0.9,0-1,0c-0.2,0-0.3-0.2-0.5-0.1c0,0,0,0,0,0c0-0.5,0-0.9,0-1.4C23.8,6.2,23.9,6.2,24.1,6.2z
			 M2.2,9.4C2.2,9.4,2.2,9.5,2.2,9.4C2.1,9.4,2.1,9.4,2.2,9.4C2.2,9.3,2.2,9.3,2.2,9.4C2.2,9.4,2.2,9.4,2.2,9.4z M2.4,9.2
			c0,0.1,0,0.1,0,0.2C2.4,9.4,2.4,9.3,2.4,9.2z M11.1,1.3c0.2,0,0.4,0,0.7,0C11.7,1.4,11.2,1.4,11.1,1.3z M13.7,1.3
			c0.2,0,0.5,0,0.7,0C14.3,1.4,13.8,1.4,13.7,1.3z M18.7,7.7c-0.1,0-0.2,0.1-0.4,0.1c0,0,0-0.1,0-0.1c0,0-0.1,0-0.1,0
			c0,0,0,0.1,0,0.1c0,0-0.1,0-0.1,0c0-0.1,0-0.2,0-0.3c0.3,0,0.4,0.1,0.6,0.1C18.7,7.6,18.7,7.6,18.7,7.7z M22.6,7.6
			c-0.1,0,0,0-0.1,0c0,0.1,0,0.1,0,0.2c-0.2,0-0.5,0-0.7,0c-0.1,0,0.1-0.1,0-0.1c0,0-0.1,0-0.1,0c0,0,0,0.1,0,0.1c0,0-0.1,0-0.1,0
			c0-0.1,0-0.1,0-0.2c0.1,0,0.2,0,0.2,0c0.1-0.1,0.2-0.2,0.2-0.3c0.2,0,0.1,0.1,0.2,0.2c0,0,0,0,0.1,0c0,0,0,0,0,0c0-0.1,0,0,0-0.1
			c0,0,0,0,0,0c0,0,0,0,0,0c0.2,0,0.3,0,0.5,0.1C22.7,7.4,22.7,7.5,22.6,7.6z M23.4,7.7C23.5,7.8,23.5,7.7,23.4,7.7
			C23.4,7.7,23.5,7.8,23.4,7.7z M23.5,7.7c-0.2,0-0.2-0.1-0.3,0c0-0.1,0-0.4,0-0.5C23.1,7,23,6.9,23,6.8c-0.1,0-0.7-0.1-0.7-0.1
			c0-0.1,0,0,0-0.1c0,0,0,0,0,0c0,0,0,0-0.1,0c0,0.1,0,0.1,0,0.2c-0.2,0-0.2-0.1-0.2-0.2c-0.1,0-0.2,0-0.3,0c0-0.1,0-0.1,0-0.2
			c-0.7,0-1.3,0-2,0c0,0,0-0.1,0-0.1c1.3,0,2.7,0,4,0C23.5,6.7,23.5,7.2,23.5,7.7z"/>
	</g>
</g>
</svg>
