<?xml version="1.0" encoding="utf-8"?>
<!-- Generator: Adobe Illustrator 27.2.0, SVG Export Plug-In . SVG Version: 6.00 Build 0)  -->
<svg version="1.1" id="Слой_1" xmlns="http://www.w3.org/2000/svg" xmlns:xlink="http://www.w3.org/1999/xlink" x="0px" y="0px"
	 width="65.6px" height="21.8px" viewBox="0 0 65.6 21.8" style="enable-background:new 0 0 65.6 21.8;" xml:space="preserve">
<style type="text/css">
	.st0{display:none;fill-rule:evenodd;clip-rule:evenodd;fill:#FAB81B;}
	.st1{display:none;}
	.st2{display:inline;}
	.st3{fill-rule:evenodd;clip-rule:evenodd;fill:#FAB81B;}
	.st4{fill-rule:evenodd;clip-rule:evenodd;fill:#8C8C7C;}
</style>
<path class="st0" d="M14.9,11.7h-1.4l-11.7,1l-0.2,0.2l-0.1,0.8V14l-0.3,0.2c0,0-0.1-0.2-0.2-0.2c-0.3-0.1-0.6-0.1-0.8,0
	c-0.1,0.1-0.3,0.3-0.4,0.4c-0.1,0.1-0.1,0.3-0.1,0.4c0,0.1,0,0.3,0.1,0.3c0.1,0.1,0.3,0.3,0.4,0.3c0.2,0.3,0.6,0.1,0.6,0.1L1,15.6
	l0.3-0.1l0.2,0.3c0,0-0.2,0.4-0.3,0.5S1,16.7,1,16.8s0,0.4,0,0.5s0.2,0.4,0.3,0.5c1.1,1.1,3.8,2.5,5.2,3c0.3,0,0.9,0.1,0.9,0.1h26.9
	c0,0,0.5-0.1,0.7-0.1c0.1,0,0.4-0.1,0.5-0.2c1-0.7,2.6-2.6,3.3-3.5c0.1-0.1,0.3-0.4,0.3-0.6c0-0.1,0.1-0.3,0.1-0.3l0.6,0.7L40,17
	l0.1-0.3l-0.6-0.9l0.9-0.6c0,0-0.4-0.7-0.6-0.9c-0.1-0.2-0.4-0.4-0.6-0.6c-0.2-0.1-0.7-0.4-0.9-0.4c-0.4-0.1-1.7,0-1.7,0l-1.2-0.5
	v-0.3h-0.2v-0.7H35v0.8h-0.6v-0.4h-1.2l-0.7-0.6H29l1-0.2l0.8-0.4c0,0,1.6,0,2.1-0.1c0.5,0,1.9-0.3,1.9-0.3h22.9l1.1,0.1l0.8,0.3h1
	l0.6-0.2V9.4l-0.6-0.3l-1,0.1l-0.8,0.3l-1,0.1H34.9c0,0-1.4-0.4-1.9-0.5c-0.6-0.1-1.8-0.3-2.4-0.3c-0.2,0-1-0.1-1-0.1l-0.1-0.5
	l-1-0.2l-0.3,0.6L25.1,8V7.2h-0.8l-0.4,0.6l-2-0.2L21.7,7l-0.5-0.3V6.5h0.6V6.2h-0.1V5.9h0.1V5.6H21V6l-0.5,0.1L19.8,6l-1.5,0.6
	l-0.6-0.1l-0.2-0.3h-0.3V5H17v1.2h-0.5V6h-0.3v0.2l0.5,0.5v0.2c0,0-0.5,0.1-0.6,0.2s-0.4,0.3-0.5,0.4s-0.2,0.4-0.3,0.6
	c0,0.1-0.1,0.3-0.1,0.3s-0.3-0.2-0.4-0.2s-0.2,0.1-0.3,0.2c-0.1,0.1-0.2,0.3-0.2,0.4c-0.1,0.1-0.2,0.4-0.2,0.6c0,0.1,0,0.3,0,0.4
	c0,0.1,0.3,0.3,0.3,0.3s0,0.5,0,0.6s0,0.3,0.1,0.3c0,0.1,0.1,0.3,0.2,0.4C14.8,11.6,14.9,11.7,14.9,11.7z"/>
<g class="st1">
	<g class="st2">
		<path class="st3" d="M56.7,10.7c-0.4,0-0.6,0.1-1,0.1c-0.1,0-0.2,0-0.3-0.1c-0.1,0-0.3,0.1-0.5,0.1c-0.1,0-0.4-0.1-0.5-0.1
			c-1.6,0.2-3.9,0.2-5.9,0.2c-3.2,0-12.1,0.1-12.9-0.1c-0.5-0.1-1.1,0-1.5-0.1h-1.9c0-0.1,0-0.1-0.1-0.2c-0.4-0.1-0.8-0.1-1.2-0.2
			c0-0.7,0-1,0-1.8c-0.9,0-0.8,0.1-1.4,0.4c-0.1,0.2-0.3,0.7-0.1,1V10c-0.1,0-0.2,0-0.3-0.1c-0.2,0-0.2,0-0.2,0.2
			c-0.4-0.2-0.8-0.2-1.2-0.3C26.9,9.4,25.9,9.3,25,9c-0.4-0.1-1.1-0.1-1.5-0.3h-0.6c0.1-0.1,0.1-0.6,0-0.7c-0.2-0.1-0.5-0.1-0.7-0.2
			C22,7.8,21.9,8,21.9,8.2c-0.2,0-0.4,0-0.6,0.1v0.3h-0.2C21.1,8.3,21,8.3,21,8c-0.1-0.1-0.2-0.1-0.4-0.1c0.1-0.2,0.1-0.1,0.2-0.3
			h0.1c0-0.1-0.1,0-0.1-0.1c0,0,0-0.1,0.1-0.1c-0.2,0-0.1,0-0.3,0c0-0.2,0-0.2-0.1-0.3V7c0.1,0,0,0,0.1-0.1c0.4,0,0.1,0.1,0.4,0.2
			c0,0.1-0.1,0.2-0.2,0.2v0.1c0.2,0,0.4-0.2,0.6,0c0.2-0.1,0.2-0.1,0.3-0.2c0-0.3-0.1-1-0.1-1.3c-0.1,0,0,0-0.1-0.1
			c-0.7,0-0.7,0.3-1.1,0.5c0,0.4-0.1,0.5-0.2,0.9c-0.1,0-0.3,0-0.3-0.1h-0.1c0,0,0,0.2-0.1,0.2c-0.2,0.1-0.4,0.1-0.5,0.2
			c0,0-0.1,0.1-0.2,0.2h-1.6c0-0.1,0-0.2-0.1-0.3V7h-0.1c-0.1,0.2-0.1,0.6-0.1,0.9c-0.1,0-0.1,0-0.2,0.1c-0.2,0.1-0.1,0.1-0.3,0.2
			c0,0.1,0,0.1,0.1,0.2c0,0-0.1,0-0.1,0.1c-0.1,0.1,0,0.2-0.1,0.2c-0.1,0.3-1,0.3-1.5,0.3V8.8c-0.2,0.1-0.1,0.1-0.2,0.2h-0.5
			c-0.2,0.1-0.8,0-1,0.1c-0.3,0-0.6,0-0.9,0c-0.4,0-0.6,0.2-0.8,0.5c-0.4,0.6-0.4,1.5-0.4,2.3c0.1,0.1,0,0.1,0.1,0.2
			c0.2,0.3,0.6,0.4,1,0.4c0,0.1,0,0.1-0.1,0.2c0,0.1,0,0.1,0.1,0.2v0.1h-1.2v-0.2c-0.3,0-0.4-0.1-0.5-0.1c-0.2-0.1-0.3,0.1-0.4,0.1
			l-0.1-0.1c-0.1,0-0.4,0-0.4-0.1c-0.1,0-0.2,0-0.2,0.1H5.9c-0.9,0-2-0.1-2.2,0.6c-0.3,0-0.3-0.1-0.4-0.1c-0.1,0-0.3,0-0.4,0.1
			c0-0.2,0-0.2,0-0.2l-0.1-0.2c-0.2,0-0.3,0-0.5-0.1c-0.1,0.1-0.1,0.2-0.2,0.2c0,0.1,0.1,0.2,0.2,0.2c-0.1,0.1-0.2,0.1-0.3,0.1
			c0,0.1,0,0-0.1,0.1c0,0.2,0,0.3,0.1,0.5c-0.3,0-0.4,0.1-0.6,0.1v0.2c-0.4,0.2-0.8,0.6-1,1c0,0-0.4,0.4-0.5,0.4
			c0.1,0.1,0.4-0.5,0.8-0.3c0,0.9,0,1.2,0.4,1.9c0.1,0.1,0.1,0.3,0.2,0.4c0.1,0.1,0.3,0.1,0.4,0.2c0.2,0.1,0.1,0.4,0.3,0.5
			c0.2,0.1,0.3,0,0.5,0.1c0.5,0.3,3.9,2.4,5.3,2.8C8.3,21,9.4,21,10.2,21h4.9c6.1,0,16.3,0,18.3,0c1.4,0,4.7-2.7,4.9-3h0.3
			c0,0.1,0,0.2,0.1,0.2c0,0.1,0.1,0.1,0.1,0.2c0.5,0,0.2-0.1,0.5-0.3l0.1-0.1h0.2c0,0,0.3-0.1,0.3-0.2c0-0.1,0-0.1,0.1-0.2
			c0.3-0.4,0.5-0.8,0.2-1.4c-0.1-0.2-0.1-0.3-0.3-0.4c0-0.3,0.6-0.7,0.8-0.8c0,0,0-0.1,0.1-0.1l0.4,0.4c0.1,0,0.1,0,0.2-0.1
			c0-0.1,0-0.1,0.1-0.2c-0.1-0.2-0.4-0.2-0.5-0.4c0-0.1-0.1-0.1-0.1-0.2c-0.4-0.3-1.4-0.9-2-0.9v-0.3c-0.4,0-1.1,0.1-1.2-0.2
			c-0.2,0-0.3,0-0.4,0.1v0.2c-0.6,0-1-0.1-1.4-0.2c-0.2-0.1-0.4,0-0.6-0.1H35v-0.3c-0.5,0-0.8-0.1-1.2-0.2h-1.1c0,0-0.1-0.1-0.2-0.2
			c-0.2,0-0.4,0-0.8-0.1c0,0.1,0,0.1,0.1,0.2v0.1c-0.1,0-0.8-0.1-0.8-0.1c-0.1,0,0,0.1-0.2,0.1c0,0-0.2-0.1-0.2-0.2
			c-0.2-0.1-0.3,0-0.4,0.2h-0.9v-0.1c0.2-0.1,0.2-0.1,0.2-0.3c0.3-0.1,0.5-0.2,0.8-0.3c0.6,0,1.2,0,1.7-0.1c0,0,0.2,0,0.2-0.1V12
			h1.4c0.4-0.1,1,0.1,1.5-0.1c0.3-0.1,0.8-0.1,1.2-0.1h2.2c3.3,0,6.6,0,9.8-0.1c2.1,0,4.3,0,5.9,0.2c0.2,0,0.4-0.1,0.6-0.1l0.2,0.1
			c0,0,0.2-0.1,0.3-0.1c0,0,0.3,0.1,0.4,0.1c0.2,0,0.4-0.1,0.7,0c0.1-0.1,0.2-0.2,0.3-0.3v-0.9C56.9,10.8,56.7,10.7,56.7,10.7z
			 M1.2,16.8L1.2,16.8c-0.2-0.5-0.5-0.9-0.3-1.7c0.1,0,0.1,0,0.2,0.1h0.3c-0.1,0.2-0.4,1-0.3,1.2C1.1,16.5,1.2,16.7,1.2,16.8z
			 M39.7,16.3c0.2,0.1,0.2,0.2,0.3,0.4c0,0.4-0.2,0.7-0.3,1h-0.1v0.1h-0.1c0-0.2,0.1-0.4,0.2-0.5c0-0.2,0-0.3-0.1-0.4
			c-0.1,0-0.1,0-0.2,0.2h-0.1C39.5,16.7,39.6,16.5,39.7,16.3z M37.8,13.5c-0.1,0.1-0.1,0.1-0.2,0H37.8z M32,12.8c-0.1,0,0,0-0.1-0.1
			C32,12.7,31.9,12.7,32,12.8z M30.6,12.8c-0.1,0.1-0.1,0.1-0.2,0H30.6z"/>
	</g>
</g>
<g class="st1">
	<g class="st2">
		<path class="st4" d="M60.6,10.6c0,0-0.2,0-0.2-0.1c0,0,0-0.1-0.1-0.1c-0.1,0-0.2,0-0.4,0l-0.1-0.1c-0.3,0-0.7,0-1,0
			c-0.7,0-1.4,0-2,0c0,0-0.1,0.2-0.2,0.2c-0.2,0-0.3,0-0.5-0.1c0,0,0,0.1,0,0.1c-1.5,0-3.1,0-4.6,0c-3.9,0-7.8-0.1-11.7-0.1
			c0-0.1,0-0.1,0-0.2c-0.1-0.1-0.2-0.2-0.3-0.3c-0.6-0.1-1.2-0.2-1.7-0.4c0-0.1,0.1-0.1,0.1-0.3c0,0,0,0-0.1,0c0,0,0,0,0-0.1
			c-0.3,0-0.3,0-0.4,0.2C37,9.3,36.7,9.1,36.4,9c-0.2-0.1-0.3-0.1-0.5-0.2c-0.1-0.1-0.2-0.3-0.4-0.3c-0.3-0.1-1.2,0.2-1.3,0.1
			c-0.1-0.1-0.1-0.2-0.2-0.2c0,0-0.4,0.1-0.4,0.1c-0.5,0.1-1.3,0.1-1.6,0.4c-0.5,0-0.4-0.3-0.7-0.5c-0.2-0.1-0.3,0-0.4-0.1
			c0-0.1,0-0.2-0.1-0.2c-0.1-0.1-0.2-0.2-0.3-0.4c0-0.1-0.1-0.2-0.1-0.4c0,0-0.3-0.1-0.3-0.1c-0.1-0.1,0-0.3-0.1-0.4
			c-0.1,0-0.3-0.1-0.5,0c-0.1,0-0.1,0.2-0.2,0.2c0,0-0.9-0.1-1.1-0.1c0-0.1,0-0.2,0-0.2c-0.2,0-0.2,0-0.3-0.1c0-0.3,0-0.6,0.1-1
			c-0.4,0-0.3,0.2-0.5,0.2c0,0-0.3-0.2-0.4-0.2c-0.2-0.1-0.2,0.1-0.4,0.1c-0.2,0.1-0.3-0.1-0.5-0.1c-0.2,0-0.9,0.2-1.1,0.2
			c0,0,0,0.1-0.1,0.1c-0.2,0.1-0.5,0-0.7,0.1c0,0,0,0.1,0,0.1l-0.1,0.1c-0.3,0.1-1.5,0-1.6-0.2c-0.1,0-0.2,0-0.3,0
			c0,0.1-0.1,0.1-0.1,0.2c0,0-0.3,0.1-0.3,0.1c0,0.1,0,0.1,0.1,0.2c-0.3,0-0.5,0-0.6-0.2c-0.2,0-0.5,0-0.7,0c0,0,0,0.1,0,0.1
			c-0.1,0-0.1,0-0.2,0c0,0,0,0.1,0.1,0.1c-0.2,0-0.2,0-0.3-0.1c-0.1-0.1,0-0.1-0.1-0.2c0.3,0,0.6-0.1,0.7-0.1c0.1,0,0.1,0,0.2-0.1
			c0.1-0.1-0.1-0.1-0.1-0.4c0,0,0.1-0.1,0.1-0.2c0,0-0.1,0-0.1-0.1c0,0,0,0,0-0.1c0.8,0,0.4,0,0.7,0.4c0,0,0,0.1,0,0.1
			c0.1-0.1,0.1-0.3,0-0.4c0,0,0,0,0-0.1c0.5,0,1.1-0.2,1.5-0.4c0-0.4-0.2-0.8-0.1-1.1c-0.5,0-0.8,0.1-1.3,0.1c0-0.1,0-0.1,0-0.2
			c-0.2,0-0.6,0-0.8-0.1c0,0-0.1-0.9,0-1c0,0,0,0,0-0.1c-0.3,0-0.6,0-0.9-0.1c0,0.1,0,0.3-0.1,0.4c0,0-0.1,0-0.1,0
			C20,3.5,20.3,3.6,20,3.8c0,0,0,0.1,0,0.1c0.1,0,0.2,0,0.3,0c0,0.1,0,0.1,0,0.2c-0.1,0-0.1,0-0.1-0.1c0,0-0.3,0-0.2,0.1
			c0,0.1,0.1,0,0.1,0.1c-0.3,0-0.6,0.1-1,0.1c0-0.2,0-0.4,0-0.6c-0.1,0,0,0-0.1,0.1C19,3.8,19,3.6,19,3.6C18.9,3.7,18.9,4,19,4.2
			c-0.1-0.1-0.1,0-0.1-0.1c-0.3,0-0.4,0-0.4,0.2c-0.1,0.1,0,0-0.1,0.1c0.1,0.1,0,0,0.1,0.1c0.2,0,0.3,0,0.5,0c0,0,0,0,0-0.1
			c0,0,0-0.1,0.1-0.1c0.1,0,0.1,0.2,0.2,0.2c0.1,0.1,1,0,1.1,0.1c-0.1,0.1-0.1,0.1-0.3,0.1c0,0.1,0,0.2,0,0.2c-0.2,0-0.4,0-0.5-0.1
			c-0.1,0-0.1,0.1-0.3,0.1c-0.1,0.1,0,0-0.1,0.1c0,0,0,0.1,0,0.1c0.1,0.1,0.2,0,0.3,0.1c0.8,0,0.9-0.1,1,0.5c-0.1,0-0.1,0.1-0.1,0.2
			c0,0-0.1,0-0.1,0c0,0,0,0.1,0,0.1c-0.1,0.1-0.2,0-0.3,0.1c0,0-0.1,0-0.1,0c0,0,0-0.3-0.1-0.3c-0.1-0.1-0.3,0-0.5,0
			c0,0,0,0.1,0,0.1c0.1,0,0.2,0,0.3,0c0,0.2,0,0.2-0.1,0.3c-0.5,0-1.4,0.1-1.7-0.1c-0.2,0-0.1,0-0.3-0.1c0-3.8,0-3.7-0.1-7.6
			c0,0,0,0-0.1,0c0,3.7,0,3.7,0,7.4c-0.2-0.1-0.4-0.1-0.5,0c0-0.2-0.1-0.2-0.2-0.3c-0.5,0-0.9,0-1.4,0c0.1,0.1,0.4,0.1,0.6,0.1
			c-0.1,0-0.2,0.1-0.2,0.1c-0.2,0.3-0.1,0.9,0.1,1c-0.1,0.1-0.2,0.1-0.3,0c-0.2,0.3,0,0.6-0.4,0.8c0,0.1,0,0.2,0,0.3
			c0,0,0.1,0,0.1,0.1c0,0.1-0.2,0.3-0.1,0.5c0.1,0,0.1,0,0.2,0.1c0,0,0,0,0,0.1c-0.1,0-0.2,0-0.3,0c0,0.3,0.1,0.3,0.3,0.4
			C15.2,9,15.1,9,14.9,9c0,0.2,0,0.3,0.3,0.4c0,0.1,0,0.3,0,0.4c-0.2,0-0.4,0-0.5,0.1c0.1,0.3,0.3,0.2,0.4,0.4c0,0.1,0,0.3,0.1,0.4
			c-0.1-0.1-0.1,0-0.1-0.2c-0.2,0.1-0.1,0.2-0.2,0.2c-0.3,0.1-0.5,0.1-0.8,0.2c-0.2,0.1-0.5,0.2-0.8,0.3c-0.1,0-0.1,0-0.2,0L13,11.2
			c0,0,0,0.1,0,0.1c0,0-0.5,0.1-0.5,0.1c-0.3,0-0.6,0-0.9,0c-0.9,0.2-2.3-0.1-3.4,0.2c-0.3,0.1-0.3-0.2-0.6-0.1c0,0-0.3,0.1-0.3,0.1
			c-0.2,0.1-0.8-0.1-0.9-0.1c0,0,0,0.1,0,0.1c-0.3,0-0.7,0-1,0c-0.6,0-1.1,0-1.7,0c-0.1,0-0.5,0.2-0.7,0.1c0,0,0-0.1,0-0.1
			c-0.1,0-0.1,0-0.2,0c0,0.1,0,0.1,0,0.2c-1,0-2,0.5-2.4,1.2C0.1,13,0,13-0.2,13c0,0.1,0,0.1-0.1,0.1c0,0.1,0,0.2,0,0.3
			c0.1,0,0.2,0,0.4,0.1c0,0.9,0.4,1.4,1,1.7c0.1,0.1,0.3,0.1,0.5,0.2c0.1,0.1,0,0.2,0.1,0.2C1.7,15.7,2.2,16,2.4,16
			c-0.1,0.2-0.1,0.3-0.1,0.5c0.1,0,0.1,0,0.2,0c0-0.2,0.1-0.3,0.1-0.5c0,0,0,0,0.1,0c0.1,0.2,0.2,0.4,0.3,0.5c0.1,0,0.2,0,0.4,0.1
			c0,1.6,1.9,2.2,2.9,2.8c0.7,0.5,1.6,1.1,2.5,1.4c0.7,0,1.4,0,2.2,0.1c1.5,0,3,0,4.5,0c4.3,0,8.6,0,12.9,0c1.7,0,3.4,0,5.1,0
			c0.8,0,1.8,0.1,2.5-0.1c0.8-0.2,3.7-2.9,4-3.2c0.2-0.2,0.8-1.2,0.5-1.7c0.4-0.6,0.8-0.7,0.8-0.7l0.1-0.1c0,0-0.2-0.5-0.4-0.7
			c-0.3-0.5-1.3-1-2.1-1c0.1-0.2,0.3-0.5,0.4-0.7c0-0.1,0-0.2,0.1-0.3c0,0,0.7-0.4,0.7-0.5c0-0.1,0-0.1,0-0.2
			c5.5-0.1,10.9-0.1,16.4-0.2c0,0.1,0,0.1,0.1,0.2c0.1,0,0.2-0.1,0.4-0.1c0,0,0.1,0.2,0.2,0.2c0.9,0,1.9,0,2.8,0
			c0.3,0.1,0.7-0.2,1.1-0.2c0.4,0,0.8,0,1.2,0c2.1,0,4.2,0,6.3,0.1c0-0.4,0-0.8,0-1.1C65.6,10.5,63.1,10.6,60.6,10.6z M19.5,4.5
			c0.2,0,0.3,0,0.5,0C19.9,4.5,19.7,4.5,19.5,4.5z M21.1,5.1c-0.1,0-0.1,0-0.1-0.1C21.1,5.1,21,5.1,21.1,5.1z M21,3
			c0.1,0.1,0.1,0.3,0.1,0.5C21,3.4,21,3.2,21,3z M21,3.6C21,3.6,21,3.6,21,3.6C21,3.7,21,3.8,21,3.9c0,0-0.1,0-0.1,0
			C20.9,3.7,21,3.7,21,3.6z M21,5.2c0.1,0,0.2,0,0.2,0c0,0.1,0,0.2,0,0.2c-0.1,0-0.3,0-0.4,0C20.9,5.3,20.9,5.4,21,5.2z M20.9,3.7
			c0,0.1,0,0.1,0,0.2c-0.2,0-0.2,0-0.3-0.1c-0.1-0.1,0,0-0.1-0.1C20.6,3.7,20.7,3.7,20.9,3.7z M20.6,5.7c0,0,0,0.1,0,0.1l-0.1-0.1
			C20.5,5.7,20.6,5.7,20.6,5.7z M3.2,14.2c-0.1,0-0.3,0-0.4,0.1c0,0.2,0,0.2,0,0.4c-0.1,0.1-0.2,0.2-0.3,0.3c0,0-0.1,0-0.1,0
			c0.2-0.2,0.7-0.8,0.2-1.1c0,0,0,0,0-0.1c0.2,0,0.3,0,0.5-0.1c0,0,0,0,0,0.1c0,0,0,0,0.1,0c-0.1,0.1,0,0-0.1,0.1
			C3.1,14,3.2,13.9,3.2,14.2z M3.1,11.9C3,12,3,12,2.9,11.9C3,11.9,3,11.9,3.1,11.9z M2.8,12.9c0,0,0.1,0,0.1,0c0,0.2-0.1,0.1,0,0.2
			c-0.1,0.1-0.5,0.2-0.8,0.2c0-0.1,0-0.1,0.1-0.2C2.3,13,2.6,13,2.8,12.9z M1.6,12.2c0.1,0,0.1,0,0.2,0c0,0,0,0,0,0.1
			c-0.2,0.1-0.3,0.4-0.5,0.5C1.1,12.9,1,12.9,0.9,13c-0.1,0-0.2,0-0.2,0C0.9,12.6,1.3,12.6,1.6,12.2z M3.2,15.4
			C3.2,15.4,3.2,15.5,3.2,15.4C3.2,15.5,3.2,15.5,3.2,15.4C3.1,15.5,3.1,15.4,3.2,15.4C2.9,15.4,3,15.3,3,15.1
			c-0.3,0-0.3,0.2-0.4,0.5c0,0,0,0-0.1,0c0-0.1,0-0.1-0.1-0.2c-0.1,0,0,0.1-0.1,0.1c0,0-0.4-0.2-0.4-0.2c0,0,0-0.1-0.1-0.1
			c-0.1,0-0.2,0-0.3,0.1c-0.4-0.1-0.9-0.6-1.1-0.9c-0.1-0.2-0.4-0.5-0.2-0.7c0.1-0.2,0.4-0.1,0.7-0.2c0.2-0.1,0.7-0.3,0.8-0.4
			C2,13,2,13,2.1,13c0,0,0,0,0,0.1c-0.3,0.2-0.1,0.1-0.2,0.3c-0.1,0.1-0.2,0.2-0.4,0.3c-0.2,0.3-0.2,0.9,0.1,1.1
			c0.2,0.1,0.8,0,0.9,0.1c0,0.1,0,0.1,0.1,0.2c0.1-0.1,0.1-0.2,0.1-0.2C3.1,14.9,3.1,15,3.2,15.4c0-0.1,0-0.2,0.1-0.2c0,0,0,0,0-0.1
			c0,0,0,0,0.1,0C3.3,15.2,3.3,15.3,3.2,15.4z M2,13.5c-0.1,0-0.1,0-0.1-0.1C2,13.5,1.9,13.4,2,13.5z M5.3,11.9
			c-0.2,0-0.4,0-0.5-0.1c0.2,0,0.4,0,0.5,0C5.3,11.9,5.3,11.9,5.3,11.9z M15.5,10.1c0,0,0,0.2,0.1,0.4c0,0,0,0-0.1,0
			C15.4,10.3,15.4,10.3,15.5,10.1z M13.8,11.5c0.1,0,0.1,0,0.2,0C13.9,11.5,13.9,11.5,13.8,11.5z M15.5,11.6c-0.2,0-0.3,0-0.4-0.1
			c0,0,0-0.1,0-0.1c-0.3,0-0.6,0-1,0c0.2-0.1,0.4,0,0.6-0.1c0.1,0,0.2-0.2,0.3-0.2c0.2,0,0.4,0,0.5,0.1
			C15.5,11.3,15.5,11.4,15.5,11.6z M15.5,11.1c0,0-0.1,0-0.1,0c0-0.1,0-0.2,0.1-0.3c0.1,0,0.2,0,0.2,0
			C15.7,10.9,15.6,10.9,15.5,11.1z M16.3,5.7c0.1,0,0.1,0,0.2,0.1c0.1,0,0.1,0,0.2,0.1c0,0,0,0.1-0.1,0.1c-0.1,0-0.1,0-0.2,0.1
			c-0.1-0.1,0-0.1-0.1-0.1C16.3,5.8,16.3,5.8,16.3,5.7z M16.2,5.7c0,0,0,0.1,0,0.1c-0.1,0-0.2,0-0.3-0.1C16,5.7,16.1,5.7,16.2,5.7z
			 M15.9,6.9C16,7,15.9,6.9,16,7C15.9,6.9,16,7,15.9,6.9z M16.3,7.4c-0.1-0.1,0-0.2,0-0.4c-0.1,0-0.2,0-0.2,0c0,0,0,0,0-0.1
			c0.1,0,0.1,0,0.2-0.1c0.1,0.1,0,0.1,0.1,0.1C16.4,7.1,16.3,7.3,16.3,7.4z M16.4,6.9C16.4,6.8,16.4,6.8,16.4,6.9
			C16.4,6.8,16.4,6.8,16.4,6.9c-0.1,0-0.1,0-0.1,0c0.1-0.2,0.2-0.3,0.2-0.7c0.1,0.1,0.1,0.1,0.3,0.2C16.7,6.6,16.6,6.7,16.4,6.9z
			 M17.2,6.1C17.1,6.1,17,6.1,17,6c0.1,0,0.1,0,0.2,0C17.2,6.1,17.2,6.1,17.2,6.1z M26.4,6.1c0.1,0.1,0,0.1,0.1,0.2
			C26.4,6.3,26.5,6.3,26.4,6.1z M37.6,9.4C37.6,9.5,37.6,9.5,37.6,9.4C37.5,9.5,37.5,9.5,37.6,9.4c-0.1,0-0.1,0-0.2,0
			c0,0,0-0.1,0.1-0.1C37.6,9.4,37.5,9.3,37.6,9.4C37.6,9.4,37.6,9.4,37.6,9.4C37.6,9.4,37.6,9.4,37.6,9.4z"/>
	</g>
</g>
<g>
	<g>
		<path class="st4" d="M63.9,8.6c-9.7,0.1-19.1-0.1-28.6-0.1c0-0.6-0.3-0.6-0.4-0.9c0-0.4,0-0.8,0-1.1c-0.2,0-0.4,0-0.5,0
			c0,0.1,0,0.2,0,0.2c-0.1,0-0.3-0.1-0.5-0.1c0,0.5,0,1,0,1.5c-0.2,0-0.4,0-0.5,0c0-0.6-0.1-1.3-0.5-1.6c-0.5-0.3-1.3,0-1.6-0.5
			c-0.4,0-0.5,0.2-0.7,0.3c-0.3-0.5-0.9-1.2-1.5-1.4c-0.1,0-0.2,0-0.3,0c-0.5-0.1-1.5,0.1-2-0.1c-0.1,0-0.1-0.1-0.2-0.1
			c0-0.2,0-0.1,0.1-0.2c0,0,0-0.1,0-0.1c-0.2,0-0.5,0-0.7,0c0,0.1,0,0.1,0,0.2c-0.4,0-0.9,0-1,0.2c-0.7,0-1.2,0.2-1.1-0.5
			c-0.1,0-0.1,0-0.2,0.1c0,0-0.2,0-0.1,0.1c0,0,0.1,0,0.1,0c0,0.1,0,0.1,0,0.2c-0.1,0-0.2,0-0.2-0.1c-0.2-0.1-0.1-0.1-0.1-0.3
			c-0.2,0-0.4,0-0.7,0c0-0.1,0-0.1,0.1-0.2c0,0,0-0.1,0-0.1c-0.1,0-0.2,0-0.3,0c0.1,0.2,0,0.1,0.2,0.2c0,0,0,0.1,0,0.1
			c-0.5,0-0.7-0.1-1.2-0.1c0.1-0.2,0.3-0.2,0.4-0.3c0.1-0.1,0-0.1,0.1-0.2c0-0.3-0.1-0.5-0.1-0.7c-0.2-0.1-0.3-0.1-0.6-0.1
			c0.1,0.1,0,0,0.1,0.1c0,0,0,0.1,0,0.1c-0.2-0.1-0.1,0-0.1-0.1c-0.2,0.1,0,0.5-0.5,0.5c0.1,0,0.2,0.1,0.2,0.1
			c0.2,0.1,0.2,0.2,0.3,0.3c0,0.1,0,0.2,0,0.3c-0.5,0-0.7,0.1-1.2,0.1c0-0.1,0-0.1,0-0.2c0.1,0.1,0,0,0.1,0.1c0.2-0.1,0.1,0,0.1-0.2
			c-0.1,0-0.2,0-0.3,0c0,0.1,0,0.2,0.1,0.3c-0.2,0-0.4,0-0.7,0C19,4.5,19,4.5,19,4.7c-0.3-0.1-0.2-0.2-0.4-0.3c0-0.9,0-1.9,0-2.8
			c-0.1,0.1-0.1,0.5-0.1,0.8c0,0.7,0,1.5-0.1,2.1c-0.1,0.1,0,0-0.1,0.1c-0.1,0-0.3,0-0.4,0c0-0.7,0-1.5,0-2.2
			C17.9,2.4,18,2.7,18,2.8c0,0.4-0.1,1.6,0,1.8c0,0.1,0,0.1-0.1,0.2c-0.2,0.2-0.8,0.1-1,0.2c-0.3,0.1-0.5,0.5-0.8,0.7
			c0,0-0.1,0-0.1,0c-0.1,0.1-0.2,0.2-0.2,0.3c0,0-0.1,0-0.1,0c-0.1,0.1-0.2,0.2-0.2,0.3c-0.5,0.4-0.6,0.4-0.6,1.3
			c-0.1,0.1,0,0-0.1,0.1c-0.2,0-0.5,0-0.6-0.1c-0.2,0-0.2,0-0.3,0.1c-0.2,0.3,0,0.9-0.1,1.2c0,0-0.1,0-0.1,0c0,0.2,0,0.3,0.1,0.5
			c0,0.3,0,0.6-0.1,1c0.3,0,0.6,0.1,0.9,0.1c0,0.3,0,0.6-0.1,0.9c-0.2,0-0.4,0-0.6,0c0-0.1,0-0.1,0-0.2c0.1,0,0.2,0,0.3,0
			c-0.1-0.1-0.2-0.2-0.2-0.4c-0.2,0-0.4,0-0.5,0c0-0.2,0-0.3-0.1-0.4c-0.3,0-0.5,0-0.7,0.1c0,0.1,0,0.2,0,0.2
			c-0.4,0-0.5,0.1-0.7,0.2c0,0.1,0,0.1-0.1,0.1c0,0,0,0,0,0.1c0.1,0,0.2,0,0.2,0c0,0.1,0,0.1,0,0.2c-0.2,0-0.3,0-0.5-0.1
			c0-0.1,0-0.1,0-0.2c-0.3,0.1-0.3,0.1-0.7,0.1c0-0.1,0-0.1-0.1-0.2c-0.1-0.2-0.2-0.3-0.4-0.2c-0.2,0.1-0.3,0.2-0.3,0.4
			c-0.2,0-0.4,0-0.7,0c0-0.1,0-0.2,0-0.2c-0.1,0.1-0.1,0.1-0.1,0.2c-0.2,0-0.4,0-0.5,0c0-0.1,0-0.2,0-0.3c-0.1,0.1-0.1,0.2-0.1,0.3
			c-0.5,0-1,0-1.5,0c0-0.1,0-0.1-0.1-0.2C7,10.9,7,11.2,6.9,11.3c-0.1,0.1-0.3,0-0.4,0.1c-0.4,0-0.6-0.1-0.8-0.1c0-0.1,0-0.1,0-0.2
			c-1.3,0-1.6,0.4-2.3,0.9c-0.1,0.1-0.2,0-0.4,0.1c-0.2,0.1-0.2,0.6-0.1,0.7c-0.1,0-0.4,0-0.5,0.1c-0.1,0.1-0.2,0.4-0.3,0.5
			c-0.1,0.1-0.3,0.2-0.4,0.4c-0.2,0.4-0.4,0.7-0.7,1c0,0.6,0.1,0.7,0.5,0.8c0.1,0,0.3,0,0.4,0c0,0,0,0.1,0,0.1
			c0.1,0.1,0.3,0.2,0.4,0.2c-0.1,0.2-0.3,0.3-0.4,0.4c0,0.2,0.1,0.3,0.2,0.4c0,0.3,0,0.5,0,0.8c0.1,0,0.1,0,0.2,0c0-0.3,0-0.5,0-0.8
			c0.1,0.1,0,0,0.1,0.1c0.3,0.1,0.7,0.9,1,1.1c0.1,0,0.2,0,0.2,0.1c0,0,0,0.1,0.1,0.1c0.1,0,0.2,0,0.3,0.1c0,0,0,0.1,0.1,0.1
			c0.1,0.1,0.2,0,0.3,0.1c1.2,0.8,2.4,1.8,3.9,2.2c0.7,0.2,1.7,0.1,2.5,0.1c1.7,0,3.4,0,5.1,0c5.6,0,11.2,0,16.9,0
			c0.6,0,1.1,0,1.7-0.1c1.5-0.2,2.9-0.9,4.2-1.5c0.7-0.3,1.4-0.5,1.9-1c0.7-0.7,0.9-2.6-0.1-3.3c0.2-0.1,0.4-0.1,0.5-0.2
			c0,0,0,0,0.1,0c-0.1-0.2-0.2-0.2-0.3-0.4c-0.2-0.3-0.3-0.5-0.5-0.8c-0.2-0.3-0.5-0.4-0.6-0.7c-0.4,0-0.8,0-1.3,0
			c0-0.3,0-0.5,0-0.8c-0.1-0.1-0.1-0.2-0.2-0.2c-0.1,0-0.3,0-0.4-0.1c0,0,0-0.1,0-0.1c-0.1,0.1-0.1,0.1-0.3,0.1c0-0.1,0-0.2-0.1-0.3
			c-0.1,0-0.2,0-0.2,0c0,0.3-0.1,0.3-0.2,0.5c-0.1,0-0.1,0-0.2,0c0-0.1,0-0.1-0.1-0.2c-0.1-0.1,0,0-0.2,0c0,0,0-0.1-0.1-0.1
			c-0.3-0.2-0.7-0.3-0.8-0.5c-0.1,0-0.1,0.1-0.2,0.1c0,0-0.1,0-0.1,0c0,0,0,0.1,0.1,0.1c0,0-0.2,0-0.1,0.1c0,0,0.1,0,0.1,0
			c0,0.1-0.1,0.1-0.1,0.1c0.1,0.2,0.4,0.4,0.6,0.5c0,0,0,0,0,0.1c-0.2,0-0.4,0-0.5,0c0,0-0.4-0.7-0.4-0.8c-0.1,0-0.1,0-0.1-0.1
			c-0.2,0-0.3,0-0.4,0.1c0,0.2-0.1,0.3-0.1,0.5c-0.2,0-0.6-0.1-0.7-0.2c-0.3,0-0.4-0.3-0.5-0.5c0.1-0.1,0.2-0.1,0.3-0.2
			c0-0.3,0-0.6,0-0.8c0.1,0,0.3,0,0.4,0c0,0.3,0,0.6,0,0.9c0.8,0,0.6-0.4,1.2-0.4c0.1-0.3,0.3-0.4,0.3-0.8c2.5,0,7.6-0.1,7.6-0.1
			h2.3L47,9.4c0,0,11.3,0,16.9,0C64,9.1,64,8.8,63.9,8.6z M10.5,11.3c0-0.1,0-0.1,0-0.2C10.6,11.1,10.6,11.1,10.5,11.3
			C10.6,11.3,10.5,11.3,10.5,11.3z M12.3,11.1c0.1,0.1,0,0.1,0.1,0.2C12.3,11.2,12.3,11.3,12.3,11.1z M13.2,10.8c-0.2,0-0.4,0-0.6,0
			c0-0.1,0-0.2,0-0.2c0.2,0,0.4,0,0.6,0C13.2,10.6,13.2,10.7,13.2,10.8z M13.6,11.3c-0.1-0.1,0-0.1-0.1-0.2c0,0,0,0,0.1,0
			C13.6,11.2,13.6,11.3,13.6,11.3z M38.1,12c0,0.3,0,0.5,0,0.8c-0.2-0.1-0.2-0.1-0.4-0.2c0-0.1,0-0.3,0-0.4c0.1,0,0.2,0,0.4,0
			C38.1,12.1,38.1,12,38.1,12C38.1,12,38.1,12,38.1,12z M38.1,11.9C38.1,11.9,38.1,11.9,38.1,11.9c-0.2,0.1-0.3,0.1-0.4-0.1
			C37.9,11.8,37.9,11.8,38.1,11.9z M36.6,12.5c-0.2,0-0.5-0.1-0.6-0.3C36.3,12.2,36.5,12.3,36.6,12.5z M35.8,11.9
			c0.1,0,0.1,0,0.1,0.1C35.8,11.9,35.9,11.9,35.8,11.9z M35.7,11.6c0,0-0.1,0-0.1,0C35.4,11.5,35.7,11.5,35.7,11.6
			c0-0.1-0.1-0.2-0.1-0.2c0.1,0,0.1,0.2,0.2,0.1c0,0,0-0.1-0.1-0.1c0,0,0.1,0,0.1,0c0.1,0.1,0,0,0.1,0.1c-0.1,0.1-0.2,0-0.1,0.1
			c0,0,0,0,0,0.1c0,0,0,0-0.1,0c0,0,0,0,0-0.1C35.7,11.5,35.7,11.5,35.7,11.6c0,0,0.1,0.1,0.1,0.1C35.7,11.6,35.7,11.6,35.7,11.6z
			 M34.6,11.3c0,0.1,0,0.1,0,0.2C34.5,11.4,34.5,11.4,34.6,11.3C34.5,11.3,34.6,11.3,34.6,11.3z M34.6,6.8c-0.1,0-0.1,0-0.2-0.1
			c0-0.2,0-0.1,0.1-0.2C34.7,6.6,34.7,6.6,34.6,6.8z"/>
	</g>
</g>
</svg>
