<?xml version="1.0" encoding="utf-8"?>
<!-- Generator: Adobe Illustrator 22.1.0, SVG Export Plug-In . SVG Version: 6.00 Build 0)  -->
<svg version="1.1" id="Layer_1" xmlns="http://www.w3.org/2000/svg" xmlns:xlink="http://www.w3.org/1999/xlink" x="0px" y="0px"
	 width="55.1px" height="21.1px" viewBox="0 0 55.1 21.1" style="enable-background:new 0 0 55.1 21.1;" xml:space="preserve">
<style type="text/css">
	.st0{fill-rule:evenodd;clip-rule:evenodd;fill:#FAB81B;}
</style>
<path class="st0" d="M4.7,11.5l1.5-0.4l2.9,0.3l2.2,0.5v0.2h3.1l-0.4-1l-2.1,0v-0.5h-1.5v-0.2h1.3l0.4-0.5l0.3-0.5h-0.6V9.1H10V8.6
	h1.8V8.2h-0.3l0.9-0.9l0.5,0V6.8h0.5v0.4h0.8V5l-1-1.1L12.1,3l-0.9-1l0.2-0.4l3,2.2l0-3.8l0.2,3.7l1.2,0.8l0.2-0.2l-0.4-0.3l0.5-0.7
	l0.9,0.7l-0.5,0.7l-0.3-0.2L16.1,5l0.7,0.5L16,6l-1.1-0.9l0,1.9L16,7l0.8-0.7l0.6,0l0.5-0.4l0.2,0.3l0.8,0l0,0.6l0.5-0.1l0,0.6
	l1.7,0.1V6.7H22v0.7l2,0.1V7.1h1c0,0,0,0.5,0,0.5c0-0.1,2.5,0.2,2.5,0.2l0.1-0.3l1.7,0.4l-0.1,0.4l1.5,0.3l1.7,0.2V9L47,9.2V8.7h2.9
	v0.4H51V8.8h3v0.4h1.1v0.9H54v0.3h-3V10H50v0.4H47V10l-14.6,0.3l0,0.2l-2.2,0.4l-1.5,0.3l0,0.4h1v-0.3h2.8v0.3h0.6l1.1,1.4h1v-0.5
	h0.9v0.5h1v-0.6h0.8V13h1.3v-0.4h0.7v0.5l1.4,0.1l1.6,0.3l0.4,0.7l-0.6,0.3l0.2,0.9L42.4,17L38,20l-2.3,1.1H10.1L3,18.5
	c0,0-1.1-0.8-1.1-0.9c0-0.1-1.1-1-1.1-1l0-0.5l0.1-1.2l-0.5,0.1L0,14.4l0.1-0.9l0.5-0.3l0.7,0.1l1.3-0.7l0-0.7l1.9-0.9L4.7,11.5z"/>
</svg>
