<?xml version="1.0" encoding="utf-8"?>
<!-- Generator: Adobe Illustrator 25.3.1, SVG Export Plug-In . SVG Version: 6.00 Build 0)  -->
<svg version="1.1" id="Слой_1" xmlns="http://www.w3.org/2000/svg" xmlns:xlink="http://www.w3.org/1999/xlink" x="0px" y="0px"
	 width="73.6px" height="22.8px" viewBox="0 0 73.6 22.8" style="enable-background:new 0 0 73.6 22.8;" xml:space="preserve">
<style type="text/css">
	.st0{display:none;fill-rule:evenodd;clip-rule:evenodd;fill:#FAB81B;}
	.st1{fill-rule:evenodd;clip-rule:evenodd;fill:#FAB81B;}
</style>
<path class="st0" d="M13.6,12.9v-0.3l-2-0.1v-0.8l-0.3-0.3l0.9-2.6c0,0-0.4-0.2-0.5-0.3S11.3,8.2,11.2,8c-0.1-0.1-0.1-0.5-0.1-0.5
	l-0.8-0.3l0.4-0.9l0.7,0.3c0,0,0.5-0.3,0.7-0.3s0.8,0,1,0.1S13.6,7,13.6,7h0.2v0.6L14,7.7c0,0,0.4-0.3,0.5-0.3s0.9-0.3,0.9-0.3
	l-0.2-0.5L15,6.3l-0.3-0.1V5.8h0.7v0.5l-0.1,0.2l0.3,0.6H17l0.1-0.4h1.1V5.1l-0.3-0.3L17.7,5L17,4.3l0.1-0.1l-2.8-2.5l0.1-0.1
	L16.2,3l0.2-0.1l0.9,0.7l0.1-0.1l-3.5-2.8l0.1,0l-1.3-1.2l-0.4-0.1L12.6-1l0.2,0.3l1,0.8l0.3-0.5l0.1,0.1l-0.3,0.4l3.8,3H18l0.9,0.8
	l-0.1,0.3l0.3-0.1v0.3l0.2,0.1l0.3-0.3l-0.3-0.5l0.5-0.6l0.8,0.7l-0.5,0.5h-0.2l-0.1,0.2v0.3l0.7,0.6L20,5.9h-0.1V6l-0.3,0.3
	l-0.4-0.1h-0.4L19,6.3h1.1L21,6l0.6,0.1l0.8-0.3V5.5h0.5V4.4L23,4h0.9v1.7h-0.8L23,5.6v0.3h0.1v0.7h0.4v0.1l-0.3,0.1l0.5,0.3
	l2.4,0.1L27,7.3V7.1h0.9v0.3L34.7,8l2,0.1l0.1,0.2l0.9,0.1v-1c0,0,0.2-0.8,0.3-0.8c0.1-0.1,0.3-0.1,0.5-0.1S39.2,7,39.2,7v1.6h0.5
	v0.2l1.1,0.1V9h12.9v0.3l19.7,0.2V9.3l2.1-0.1L76.2,9h2.5L79,9.4v1.4l-0.3,0.4H76l-0.8-0.3h-2v-0.1l-19.7,0.1v0.3h-13v0.1l-1.1,0.1
	v0.3L36,12.2v-0.4l-0.7,0.1v0.4L35,12.4v0.5h1.1v-0.3h2.1l0.7,0.4l0.7,0.1l0.4,0.7l0.9,0.2l0.1-0.2h1.5v0.5c0,0,0.4,0.1,0.5,0.2
	c0.2,0.1,0.6,0.5,0.6,0.5s0.5-0.1,0.7-0.1S45,15,45,15l0.3,0.2c0,0,0.5,0.2,0.7,0.3c0.2,0.1,0.6,0.4,0.7,0.5
	c0.1,0.1,0.5,0.5,0.5,0.5L47,16.7L46.3,17c0,0,0.2,0.6,0.2,0.8c0,0.1,0,0.4-0.1,0.5c0,0.2-0.2,0.6-0.3,0.8c-0.1,0.2-0.4,0.5-0.5,0.6
	c-1.2,0.9-3.4,1.9-4.7,2.5c-0.1,0.1-0.5,0.2-0.8,0.3c-0.4,0.1-0.7,0.2-1.1,0.2H9.5c0,0-0.7-0.1-1-0.2c-1.1-0.3-3.1-0.9-4.2-1.2
	c-0.2-0.1-0.7-0.3-0.9-0.4s-0.5-0.4-0.7-0.6s-0.4-0.7-0.5-0.9c-0.1-0.2-0.1-0.9-0.1-0.9H2l-0.4-0.6l-0.1-0.3l0.1-0.2l-0.1-0.3
	l-0.2,0.1c0,0,0,0-0.1,0.1c0,0.1-0.1,0.5-0.1,0.5H0.8c0,0,0-0.3,0.1-0.3c0-0.1,0.2-0.3,0.3-0.4s0.5-0.3,0.5-0.3l-0.5-1l-0.1-0.3
	l0.2-0.1l-0.4-1.3l0.2-0.3l0.4,0.1l0.4-0.1l0.9-0.7l0.8,0.4v-0.2l4-0.5L7.7,13l1.1-0.1v-0.2H9v0.1h0.2v-0.3h0.3l0.2,0.3L13.6,12.9z"
	/>
<g>
	<g>
		<path class="st1" d="M65.6,10v0.1H62c-0.1,0-0.1,0-0.1-0.1V10l-0.6-0.1l-0.1-0.1h-3.2c0,0-0.2,0.2-0.2,0.2c-0.1,0-0.3,0-0.4-0.1
			v0.1c-5.8,0-11.7-0.1-17.5-0.1V9.7c-0.8-0.1-1.5-0.1-2.3-0.2c-0.3-0.2-0.6-0.5-0.9-0.7V8.6h-1.3c-0.1,0,0,0.1-0.2,0.1l-0.1-0.1
			c-0.1,0-0.2,0-0.4-0.1c-0.3-0.1-0.6-0.3-0.9-0.4C33.2,8,32.5,8,32,7.8h-0.5c-0.5-0.1-1.3-0.2-1.8-0.2c-0.1,0-0.5,0.1-0.8,0.1
			c-0.1,0-0.2-0.2-0.3-0.2c-0.1,0-0.6,0.2-0.8,0.1c-0.2-0.1-0.7-0.3-1.1-0.2c-0.1-0.5,0-1.4-0.1-2.1c0-1.5-0.1-3.1-0.1-4.6h-0.1v4.6
			c0,0.6,0.1,1.5-0.1,2.1H26c0-0.3,0-0.3-0.3-0.4c0.1-0.1,0.2-0.1,0.4-0.1C26,6.7,26,6.6,25.9,6.5h-0.5c-0.2,0.1-0.1,0.3-0.4,0.2
			c-0.1,0.1-0.2,0.2-0.3,0.4h-0.2c0-0.1,0-0.1,0.1-0.1c0.1-0.1,0,0,0.2,0V6.9c-0.1-0.1,0,0-0.1-0.1c-0.1,0-0.2,0-0.3,0.1V7
			c0,0-0.6-0.1-0.8-0.1c-0.2,0.1-0.6,0.2-0.9,0.2c0-0.1,0-0.1-0.1-0.2V6.8h-0.1c0,0.1,0,0.2,0.1,0.2c-0.1,0.2-0.7,0.1-1.1,0.1V7H22
			V6.9c-0.2,0-0.5,0-0.7,0.1v0.2c-0.3,0-0.9,0.1-1.1-0.1c-0.1,0-0.1,0-0.2-0.1V6.7h0.4V6.6c-0.2,0-0.4,0-0.5-0.1
			c-0.1,0.1-0.1,0.2-0.1,0.4c-0.2-0.1-0.4-0.1-0.5-0.2c0-0.1,0-0.1,0-0.2H19C19,6.3,19,6.2,19,6h0.5V5.9H19c0-0.3,0-0.4-0.2-0.5V4.9
			c-0.1,0-0.1,0-0.1,0.1c-0.1-0.1,0-0.1-0.1-0.2c0,0-0.1,0-0.1-0.1c0.1,0,0.7-0.1,0.8-0.2c0.1-0.1,0-0.3-0.1-0.6
			c-0.1,0-0.1-0.1-0.2,0c-0.1-0.1-0.1-0.3-0.1-0.5c-0.1,0-0.1,0-0.1,0.1h-0.4c0,0.1,0,0.1-0.1,0.1c0,0.3,0,0.5,0.1,0.7h0.4
			c-0.1,0.2-0.3,0.2-0.6,0.2V3.6H18c0.1,0.2,0.1,0.6,0.1,0.9h-0.2v0.2c-0.1,0-0.1,0-0.2,0.1h-0.1c0,0,0.1,0.1,0.2,0.1h-0.1V5h0.1
			c0,0.1,0,0.2-0.1,0.1V5.1h-0.1v0.1c-0.1,0.1-0.1-0.1-0.2,0h-0.1c0-0.2,0-0.2,0-0.5h-0.2v0.4c-0.1,0-0.1-0.2-0.1-0.2
			c-0.1,0-0.2,0-0.3,0.1c-0.1,0-0.7-0.2-0.8-0.2c-0.1,0-0.1,0-0.2,0.1c-0.2,0.2-0.2,0.8-0.3,1.1c0.1,0.1,0.1,0,0.1,0.1
			c0.4,0.1,1.4,0.4,1.6,0.1h0.1c0,0.2-0.2,0.4-0.1,0.5v0.1c0.1-0.1,0.2-0.4,0.2-0.5H18c0,0-0.1,0.1-0.1,0.1c-0.1,0.2,0.3,0.3,0,0.5
			c0,0.3,0.4,0.4,0.7,0.4c-0.1,0.1-0.1,0.1-0.1,0.3h3.8v0.2c-0.5,0-0.6-0.1-1.1-0.1v0.2c-0.3,0.1-0.6,0-1,0.1
			c-0.9,0.2-2,0.2-2.9,0.4c-0.9,0.2-1.7-0.2-2.1,0.7c-0.4,0-0.5-0.1-0.8-0.2c-0.1-0.1,0,0-0.1-0.1V8.5l0.1,0.1c0.1-0.1,0,0,0.1-0.1
			V8.3c-0.2,0.1-0.3,0.2-0.7,0.2v0.2c0,0.1,0.4,0.3,0.5,0.4c0.1,0.1,0.1,0.3,0.2,0.5c-0.2,0.7-0.8,0.9-0.8,1.8h-0.2
			c0.1,0.1,0.1,0,0.2,0.1c0.2,0.1,0.2,0.4,0.5,0.5c0.3,0,0.6,0,0.8,0.1c0.8,0.2,1.9,0.1,2.7,0.3c0.5,0.1,1.7,0,2,0.2
			c0.2,0,0.5,0,0.7,0.1v0.1h-0.9c-0.1,0,0-0.2-0.1-0.1v0.1c-0.4,0-2.7,0-3.5,0v-0.2c-0.5,0-2.3,0-2.5,0c0,0.1,0,0.1-0.1,0.2
			c-0.2,0.1-0.8-0.1-1-0.1c-0.8,0-1.5,0.1-2.4,0.1c0,0.1,0,0.2-0.1,0.3c0,0.5,0,0.8-0.2,1.1H9.6c0-0.4,0-0.8,0.1-1.1H8.3
			c0,0.2-0.1,0.7,0.1,0.8V14c-0.1-0.1,0,0-0.1-0.1H7.9c0.1-0.1,0.1-0.1,0.2-0.3c-0.1-0.1,0,0-0.1-0.1c-0.3,0-0.9,0-1.2,0.2
			c-0.1,0-0.2,0.2-0.3,0.2c-0.4,0.1-1,0.1-1.3,0.3c-0.6,0-0.9,0-1-0.4H4.2c0-0.2,0-0.1,0.1-0.1v-0.1c-0.2,0-0.4,0-0.7,0
			c0.1,0.1,0.3,0.1,0.5,0.1C4.2,14,4.2,14,4,14c0,0.1,0,0.1-0.1,0.1c-0.2-0.6-1-0.4-1.4-0.2c-0.1,0.2-0.1,0.5-0.1,0.8
			c0.3,0.3,0.4,0.5,0.9,0.5c-0.2,0.2-1.5,0.6-1.5,0.7c-0.3,0.2-0.8,0.6-1.1,0.9c-0.1,0.2-0.2,0.4-0.4,0.6c0.3,0.3,0.9,0.3,1.2,0.6
			c0.1,0,0.1,1,0.2,1.2c0.2,0.6,0.8,1.2,1.4,1.5c1.9,0.5,3.7,1.1,5.6,1.6H41c0.8-0.2,5.9-1.9,6.2-2.1c0.5-0.4,1.1-1.2,0.9-2
			c0-0.3,0-0.5-0.2-0.7v-0.1h0.9c0-1.5-1-2.5-2.2-2.8c-0.3-0.1-0.5,0.2-0.8,0.1c0,0,0-0.1-0.1-0.1v0.1h-0.1c-0.2,0-0.5-0.2-0.7-0.3
			c-0.4,0-0.7,0.1-1.1,0.1v-0.2c-0.2,0.1-0.3,0.2-0.4,0.1h-0.2c0,0,0,0.1,0.1,0.1c-0.4,0-1.6,0.1-1.8-0.1h-0.1
			c0.1-0.1,0.2-0.1,0.4-0.1c-0.1-0.1-0.2-0.1-0.4-0.1c0-0.3,0-0.8-0.1-1c-0.5,0-0.6,0.2-0.9,0.4c0,0.2,0,0.4,0.1,0.5v0.1
			c-0.3-0.1-0.6-0.2-0.9-0.4h-0.1v-0.1H40v-0.2c-0.5,0-1.1,0.2-1.6,0c-0.2-0.1-0.3-0.3-0.4-0.4c-0.3,0-0.5,0-0.8,0.1
			c-0.5-0.1-1-0.3-1.4-0.3v-0.2h-0.3v-0.1c0.6-0.2,1.2-0.4,1.7-0.7c0.1-0.1,0.3-0.2,0.5-0.3c0.7-0.1,1.4-0.1,2.1-0.2v-0.2
			c4.1,0,8.2-0.1,12.4-0.1c1.8,0,4.4-0.3,5.8,0.2H59c1.1,0,2.1,0.1,2.8-0.3h3.8v0.2c0.6,0,5.2-0.1,6.9-0.1v-1.1
			C70.2,10,67.9,10,65.6,10z M19.1,4C19,4.1,19,4.1,19,4H19.1z M18.1,3.6h0.1v0.5h-0.1V3.6z M18.1,4.2c0.1,0.1,0,0,0.1,0.1h-0.1V4.2
			z M17.7,5.4c-0.1,0-0.1,0-0.1-0.1C17.6,5.4,17.6,5.4,17.7,5.4z M17.2,5.4h0.2v0.1c-0.1,0-0.2,0-0.2,0.1V5.4z M17.7,5.9L17.7,5.9
			l-0.3,0.1V5.7c-0.1,0.1,0,0-0.1,0.2h-0.2c0.1-0.1,0.1,0,0.1-0.2c0.2,0,0.2,0,0.3-0.1h0.1C17.8,5.7,17.6,5.7,17.7,5.9z M17.8,6.2V6
			c0.1,0,0.1,0.1,0.2,0h0.1V5.7h0.2c0,0.1,0,0.3,0.1,0.4H17.8z M18.7,5.9L18.7,5.9l0.1,0.3h-0.1C18.6,6,18.6,6,18.7,5.9z M18.7,6.6
			C18.7,6.6,18.7,6.6,18.7,6.6l-0.2-0.1V6.3c0.2,0,0.3,0,0.4,0.1C18.8,6.5,18.8,6.5,18.7,6.6z M3.7,15.1c0,0.1-0.1,0.1-0.1,0.2H3.6
			v-0.1C3.6,15.2,3.7,15.1,3.7,15.1L3.7,15.1C3.8,15.2,3.8,15.1,3.7,15.1z M4.1,15.3c0,0-0.3,0-0.2-0.1H4v-0.1
			C4,15.2,4.1,15.2,4.1,15.3L4.1,15.3z M4,14.4c0.1,0.1,0.1,0.1,0.1,0.2C4,14.5,4.1,14.5,4,14.4z M4.3,14.7H4.2v-0.1h0.1V14.7z
			 M6.9,14.3H6.5c0,0,0-0.1,0.1-0.1h0.4C6.9,14.3,6.9,14.2,6.9,14.3L6.9,14.3z M7.4,14.3H7.1c0,0,0-0.1,0.1-0.1
			C7.2,14.2,7.3,14.2,7.4,14.3L7.4,14.3z M14.9,12.7L14.9,12.7l-0.1-0.1h0.1V12.7z"/>
	</g>
</g>
</svg>
