<svg xmlns="http://www.w3.org/2000/svg" xmlns:xlink="http://www.w3.org/1999/xlink" preserveAspectRatio="xMidYMid" width="35" height="17" viewBox="0 0 35 17">
  <defs>
    <style>
      .cls-1 {
        fill: #8c8c7c;
        fill-rule: evenodd;
      }
    </style>
  </defs>
  <path d="M6.883,16.944 L28.844,16.944 C28.844,16.944 32.232,15.642 33.014,14.472 C33.796,13.301 34.969,11.415 34.969,11.415 L34.969,8.423 L32.734,6.884 L32.102,6.233 L31.059,6.168 L31.057,6.498 L28.192,6.431 L24.086,6.537 L27.149,6.273 L27.540,5.622 L34.057,5.622 L33.796,3.675 L23.370,3.675 L21.480,1.859 L20.372,1.729 L20.568,1.404 L24.152,0.948 C24.152,0.948 24.412,0.233 24.086,0.103 C23.761,-0.027 19.329,-0.027 19.329,-0.027 L17.831,0.103 L17.700,0.753 L18.938,1.209 L19.069,1.794 L16.983,1.924 L16.006,3.220 L13.204,3.675 L12.552,4.650 L13.790,5.951 L14.963,6.146 L14.963,6.421 L13.013,6.136 L12.552,5.561 L11.575,6.016 L3.429,6.341 L1.474,7.252 L0.079,8.878 L0.014,10.569 L1.083,13.821 L1.995,14.862 L4.015,15.902 L6.883,16.944 Z" class="cls-1"/>
</svg>