<svg xmlns="http://www.w3.org/2000/svg" width="28" height="13" viewBox="0 0 28 13">
  <path fill="#8C8C7C" fill-rule="evenodd" d="M2.48406762,11.3116179 C2.88961924,11.6838456 3.66281258,11.9881802 4.21062609,11.9913659 L19.2046798,12.0785604 C20.3052557,12.0849606 21.8032915,11.4316174 22.5562327,10.6131948 L25.0209351,7.93414307 L24.0087891,6.00146484 L20.4890747,5.63067627 L19.5054932,4.17230225 L28.0004272,3.99243164 L28.0063477,2.96191406 L18.062561,2.28503418 L17.94104,0.226196289 L16.0181274,0 L11.7540894,0.887939453 L8.0267334,0.949035645 L7.20446777,2.73449707 L9.97644043,3.11553955 L9.8848877,3.99243164 L6.7543335,3.4822998 L4.57263184,2.41442871 L3.4029541,3.41687012 L3.21838379,4.93981934 L1.6897583,4.93981934 L0.478210449,4.30871582 L0,7.93414307 L0.478210449,9.47058105 L2.48406762,11.3116179 Z"/>
</svg>
