<?xml version="1.0" encoding="utf-8"?>
<!-- Generator: Adobe Illustrator 22.0.0, SVG Export Plug-In . SVG Version: 6.00 Build 0)  -->
<svg version="1.1" id="Layer_1" xmlns="http://www.w3.org/2000/svg" xmlns:xlink="http://www.w3.org/1999/xlink" x="0px" y="0px"
	 width="41.2px" height="14px" viewBox="0 0 41.2 14" style="enable-background:new 0 0 41.2 14;" xml:space="preserve">
<style type="text/css">
	.st0{fill:#8C8C7C;}
</style>
<path class="st0" d="M0,6h2l3.6-1.2h1.2l0,0h0.8V4H8v1.2h1.2V4.8h2v0.4H16V4.4h-3.6L12.8,4h-1.2L12,2.8l2.8-0.4V2l1.6-0.4V2h0.8V0.8
	h2V0H20v0.4h1.2v1.2l2,0.4V1.2H24v0.4L25.6,2l0.8,0.4l0.4,0.4h2l0,0h4.4h7.2l0,0h0.8v1.6h-0.8l0,0h-7.2h-4.4v0.4h-1.6l0.4,0.4h-2.8
	v0.4h5.6L31.2,6l0.4,0.4h1.2l2.4,1.2L36,8.8l-0.8,0.8l-0.8-0.8V10L34,11.2L28.4,14H8.8l-6-2L2,10.8V9.2L1.2,8.8V8H0V6z"/>
</svg>
