<svg xmlns="http://www.w3.org/2000/svg" xmlns:xlink="http://www.w3.org/1999/xlink" preserveAspectRatio="xMidYMid" width="40" height="16" viewBox="0 0 40 16">
  <defs>
    <style>
      .cls-1 {
        fill: #8c8c7c;
        fill-rule: evenodd;
      }
    </style>
  </defs>
  <path d="M5.062,15.975 L32.047,15.975 C32.047,15.975 35.539,14.581 35.908,14.007 C36.278,13.433 36.730,12.818 36.730,12.818 L36.894,8.561 C36.894,8.561 35.498,7.331 35.333,7.167 C35.169,7.003 34.964,6.141 34.964,6.141 L34.101,5.977 L33.526,6.675 L32.376,6.346 L31.596,5.198 L29.131,4.962 L28.310,4.781 L28.186,4.207 L39.769,4.207 L39.769,2.239 L27.940,2.239 L23.258,1.706 L23.216,0.517 L19.807,0.230 L18.945,1.460 L16.480,1.829 L15.289,3.100 L15.330,4.330 L17.302,4.248 L14.550,4.658 L5.103,4.371 L2.063,5.191 L0.461,6.421 L0.461,11.793 L1.077,13.843 L3.131,14.991 L5.062,15.975 Z" class="cls-1"/>
</svg>
