<?xml version="1.0" encoding="UTF-8"?>
<!-- Generator: Adobe Illustrator 25.0.0, SVG Export Plug-In . SVG Version: 6.00 Build 0)  -->
<svg version="1.1" id="Layer_1" xmlns="http://www.w3.org/2000/svg" xmlns:xlink="http://www.w3.org/1999/xlink" x="0px" y="0px" width="57.8px" height="17.7px" viewBox="0 0 57.8 17.7" style="enable-background:new 0 0 57.8 17.7;" xml:space="preserve">
<style type="text/css">
	.st0{display:none;fill-rule:evenodd;clip-rule:evenodd;fill:#FAB81B;}
	.st1{fill-rule:evenodd;clip-rule:evenodd;fill:#FAB81B;}
</style>
<path class="st0" d="M34.6,17.3H8.4c0,0-5.2-2-5.8-2.2c-0.5-0.2-1.3-2.1-0.3-2.6c0.1-0.3-0.1-0.2-0.1-0.2H1.4V11  c0,0-1.7-0.2-0.8-1.8s2.1,0.2,2,0.5c0.2-0.3,0.2-0.3,0.2-0.3h1.4l1.1-1h12.9V7.5h-3.9V7.3c0,0-2-0.4-0.2-1.7c0-0.8,0-1.4,0-1.4  l1.5-0.3l1.2,0.7l-0.1,0.7c0,0,1.6-1.7,2-2.2c0.8-0.3,6.2,0.6,6.2,0.6l0.4-1l1,0.2c0,0-0.2,0.5,0.1,0.9c3.4,0.6,6.6,1,6.6,1l0.1-1.1  l1.2,0.6l3,0.5V5h7.6v0.4l16.5,0.2l0.1-0.3h2v1.1h-1.9l-0.1-0.2L45,6.5l-0.1,0.4h-7.6l0,0.2l-2.9,0.1l-1.1,0.4l-0.4-0.4l-1.1,1.2  h2.6l3.8,1.3c0,0,1.5,0.9,1.6,1.4c0.2,0.5,0.3,0.4,0.3,0.4L39.8,12c0,0,0.9,0.8-0.4,2.2c-1,1.2-3.2,2.7-3.2,2.7L34.6,17.3z"/>
<path class="st1" d="M33.8,17.3c0.2,0,0.4,0,0.6-0.1c1-0.3,4.5-1.5,5.5-2.3c0.3-0.2,0.7-0.7,0.9-1c0.1-0.2,0.3-0.7,0.3-1  c0-0.3-0.2-1.3-0.2-1.3l0.4,0.1l0.5-0.5l-2-2l-2,0.1V9.1l0.3,0.2V8.8l-0.4,0.2l0,0.5l-0.2-0.2l-0.1-0.5l0.3,0.1V7.8  c0,0-0.4,0.1-0.5,0.2c-0.1,0.1-0.1,0.3-0.1,0.4c0,0.1,0.1,0.3,0.1,0.3v0.4l-1-0.7h-0.4l-1.2-0.7H32L32.4,7h0.2l0.4-0.5l-0.3,0.9h0.3  c0,0,0.5-0.4,0.7-0.5C34.1,6.8,35,6.7,35,6.7V6.6h3.3l0.1-0.2h6.4l0.2-0.2l8.8,0h1l0.8,0.4L56,6.5c0,0,0.8,0,1.1,0  c0.1,0,0.2-0.2,0.2-0.2c0.1-0.2,0.1-0.8,0-1c0-0.1-0.2-0.3-0.3-0.3c-0.3,0-1.1,0-1.1,0l-0.4-0.2l-0.8,0.4l-9.7,0l-0.3-0.2h-6.3  l-0.1-0.2h-3.2c0,0-0.9-0.1-1.2-0.2c-0.4-0.1-1.5-0.6-1.5-0.6L32.2,4l-0.1,0.2l0.2,0.1l-0.1,0.1l-0.9-0.1L31,3.7h-1.4V3.3l-0.2-0.1  h-1V3.1h-0.5v0.1h-0.5v0.5h-0.7V3.6L26,3.1V2.6h0.4V2.2H27V2l1.4,0.2V1.8H29V1h-0.6V0.7l-0.6,0.1L27.5,1h-0.4v0.1h-0.8V0.9h-0.1V1  h-1v0.2h0.3V1h0.6v0.1H26l-0.1,0.1h-0.7v0.4H26l0.7,0.2v0.2h-0.5v0.2H26V1.9l-0.1-0.1h-0.5v0.1h0.4l0.1,0.1v0.2l-0.2,0.2h-1.6  L24,2.2h-0.7l-0.1,0.1h-2.1v0.2h0.3V3l-0.3,0.2l-0.2,0.2v0.2h-0.7v0.1h-1c0,0,0-0.2,0-0.3c0,0,0-0.1-0.1-0.2c-0.1,0-0.2-0.1-0.3,0  c0,0-0.1,0.1-0.1,0.1c0,0.1,0,0.4,0,0.4h0.2c0,0,0-0.3,0-0.3c0,0,0.1-0.1,0.1-0.1c0.1,0,0.1,0.1,0.1,0.1c0,0.1,0,0.3,0,0.3v0.1h-1.4  l-0.4-0.2h-0.2v0.1l0.5,0.2v0.1h-0.1l-1.2,2.8l0.1,0.1l-0.2,0.6h3.5v0.4H18V7.5h-2.2v0.2h-0.5V7.6h-0.3v0.1h-3.1V7.6h-0.3l-0.1-0.4  h0.1V7.1h-0.1V7h-0.2v0.1h-0.1v0.1h0.1L11,7.6h-0.2v0.1h-0.3V7.5l-0.1-0.1h-0.2l-0.1,0.1v0.2H9.2V7.5H9v0.2h-1V7.6H7.7v0.1H6.5V7.6  H6.1v0.1H5.3V7.5L5.3,7.5H5L5,7.5v0.2h-1L3.3,8.3H3.3V8.2H3.1L3,8.3v0.1h0.1v0.1H2.8c0,0-0.1-0.2-0.1-0.3c0,0-0.1-0.1-0.1-0.2  c0-0.1-0.2-0.2-0.2-0.2c-0.1,0-0.4,0-0.5,0C1.9,7.9,1.8,8,1.7,8c0,0-0.1,0.1-0.1,0.2c0,0.1,0,0.5,0,0.5L1.4,8.9l0.3,0.2l0.2-0.2H2  l0.2,0.3L2.1,9.3H1.9L1.8,9.4l0.1,0.1L1.8,9.6v0.2h0.1v0.2H1.6V9.7H1.3v0.5h0.1l-0.4,1H0.8V11l-0.1-0.2V9.9H0.4v2L0.5,12h0.4v0.3  h0.2v0.2h0.2l0.2,0.1h0.4v-0.2h0.2v0.2H2.1V13c0,0-0.3,0-0.4,0c0,0-0.1-0.1-0.2-0.1c0,0,0-0.1,0-0.1s0-0.1,0-0.1l-0.2-0.1  c0,0-0.1,0.1-0.1,0.2c0,0.1,0,0.2,0,0.2c0,0.1,0.1,0.2,0.2,0.3c0.1,0.1,0.2,0.2,0.3,0.2c0.1,0,0.4,0,0.4,0s0,0.4,0.1,0.5  c0.1,0.2,0.2,0.6,0.3,0.8c0.1,0.2,0.4,0.6,0.6,0.7c1.1,0.7,3.5,1.3,4.7,1.7c0.2,0.1,1,0.2,1,0.2H33.8z"/>
</svg>