<svg xmlns="http://www.w3.org/2000/svg" xmlns:xlink="http://www.w3.org/1999/xlink" preserveAspectRatio="xMidYMid" width="33" height="15" viewBox="0 0 33 15">
  <defs>
    <style type="text/css">
      .cls-1 {
        fill: #8c8c7c;
        fill-rule: evenodd;
      }
    </style>
  </defs>
  <path d="M0.444,8.239 L1.894,8.048 L2.293,8.943 L4.973,8.937 L4.972,8.019 L6.777,8.017 L6.945,7.335 L6.582,7.335 L6.540,6.815 L6.987,6.802 L7.073,6.035 C7.073,6.035 9.328,6.014 9.413,5.950 C9.499,5.886 10.074,5.587 10.074,5.587 L14.295,4.884 L14.274,4.585 L15.532,4.351 L15.617,4.628 L17.948,4.265 L18.012,2.887 L16.977,2.876 L16.909,2.025 L17.831,2.023 L18.090,1.448 L18.197,1.264 L20.669,0.968 C20.669,0.968 20.819,0.036 20.904,0.015 C20.989,-0.007 22.781,0.003 22.781,0.003 L22.973,0.968 L24.826,1.211 C24.826,1.211 24.933,2.002 25.040,2.002 C25.146,2.002 28.962,2.013 28.962,2.013 L28.962,2.928 L27.946,2.982 L27.925,3.418 L24.979,3.482 L24.960,4.202 L25.365,4.244 C25.365,4.244 25.429,4.521 25.514,4.521 C25.600,4.521 26.239,4.500 26.239,4.500 L27.143,5.225 L28.945,5.216 L28.934,5.755 L27.100,5.766 L26.951,6.129 L26.917,7.027 L29.016,6.974 L28.995,7.848 L29.623,8.046 L30.135,7.979 C30.135,7.979 30.923,8.000 31.051,8.022 C31.179,8.043 31.947,8.341 31.947,8.341 L32.544,8.917 L32.949,9.424 L32.970,10.704 L32.544,11.514 L31.861,12.111 L27.982,14.664 L25.445,14.984 L9.030,14.941 L6.024,13.070 L4.937,12.302 L4.617,11.769 L2.890,11.002 L1.440,10.064 L0.673,9.275 L0.444,8.239 Z" class="cls-1"/>
</svg>