<?xml version="1.0" encoding="utf-8"?>
<!-- Generator: Adobe Illustrator 27.2.0, SVG Export Plug-In . SVG Version: 6.00 Build 0)  -->
<svg version="1.1" id="Слой_1" xmlns="http://www.w3.org/2000/svg" xmlns:xlink="http://www.w3.org/1999/xlink" x="0px" y="0px"
	 width="43.5px" height="23.3px" viewBox="0 0 43.5 23.3" style="enable-background:new 0 0 43.5 23.3;" xml:space="preserve">
<style type="text/css">
	.st0{display:none;fill-rule:evenodd;clip-rule:evenodd;fill:#FAB81B;}
	.st1{display:none;}
	.st2{display:inline;}
	.st3{fill-rule:evenodd;clip-rule:evenodd;fill:#FAB81B;}
	.st4{fill-rule:evenodd;clip-rule:evenodd;fill:#8C8C7C;}
</style>
<path class="st0" d="M14.5,13.2h-1.4l-11.7,1l-0.2,0.2l-0.1,0.8v0.3l-0.3,0.2c0,0-0.1-0.2-0.2-0.2c-0.3-0.1-0.6-0.1-0.8,0
	c-0.1,0.1-0.3,0.3-0.4,0.4c-0.1,0.1-0.1,0.3-0.1,0.4c0,0.1,0,0.3,0.1,0.3c0.1,0.1,0.3,0.3,0.4,0.3C0,17.2,0.4,17,0.4,17l0.2,0.1
	L0.9,17l0.2,0.3c0,0-0.2,0.4-0.3,0.5s-0.2,0.4-0.2,0.5s0,0.4,0,0.5s0.2,0.4,0.3,0.5c1.1,1.1,3.8,2.5,5.2,3c0.3,0,0.9,0.1,0.9,0.1
	h26.9c0,0,0.5-0.1,0.7-0.1c0.1,0,0.4-0.1,0.5-0.2c1-0.7,2.6-2.6,3.3-3.5c0.1-0.1,0.3-0.4,0.3-0.6c0-0.1,0.1-0.3,0.1-0.3l0.6,0.7
	l0.2,0.1l0.1-0.3l-0.6-0.9l0.9-0.6c0,0-0.4-0.7-0.6-0.9c-0.1-0.2-0.4-0.4-0.6-0.6c-0.2-0.1-0.7-0.4-0.9-0.4c-0.4-0.1-1.7,0-1.7,0
	L35,14.3V14h-0.2v-0.7h-0.2v0.8H34v-0.4h-1.2l-0.7-0.6h-3.5l1-0.2l0.8-0.4c0,0,1.6,0,2.1-0.1c0.5,0,1.9-0.3,1.9-0.3h22.9l1.1,0.1
	l0.8,0.3h1l0.6-0.2v-1.4l-0.6-0.3l-1,0.1L58.4,11l-1,0.1H34.5c0,0-1.4-0.4-1.9-0.5c-0.6-0.1-1.8-0.3-2.4-0.3c-0.2,0-1-0.1-1-0.1
	l-0.1-0.5l-1-0.2l-0.3,0.6l-3.1-0.6V8.7h-0.8l-0.4,0.6l-2-0.2l-0.2-0.6l-0.5-0.3V8h0.6V7.7h-0.1V7.4h0.1V7.1h-0.8v0.4l-0.5,0.1
	l-0.7-0.1l-1.5,0.6L17.3,8l-0.2-0.3h-0.3V6.5h-0.2v1.2h-0.5V7.5h-0.3v0.2l0.5,0.5v0.2c0,0-0.5,0.1-0.6,0.2c-0.1,0.1-0.4,0.3-0.5,0.4
	c-0.1,0.1-0.2,0.4-0.3,0.6c0,0.1-0.1,0.3-0.1,0.3s-0.3-0.2-0.4-0.2s-0.2,0.1-0.3,0.2c-0.1,0.1-0.2,0.3-0.2,0.4
	c-0.1,0.1-0.2,0.4-0.2,0.6c0,0.1,0,0.3,0,0.4c0,0.1,0.3,0.3,0.3,0.3s0,0.5,0,0.6s0,0.3,0.1,0.3c0,0.1,0.1,0.3,0.2,0.4
	C14.4,13.1,14.5,13.2,14.5,13.2z"/>
<g class="st1">
	<g class="st2">
		<path class="st3" d="M56.3,12.1c-0.4,0-0.6,0.1-1,0.1c-0.1,0-0.2,0-0.3-0.1c-0.1,0-0.3,0.1-0.5,0.1c-0.1,0-0.4-0.1-0.5-0.1
			c-1.6,0.2-3.9,0.2-5.9,0.2c-3.2,0-12.1,0.1-12.9-0.1c-0.5-0.1-1.1,0-1.5-0.1h-1.9c0-0.1,0-0.1-0.1-0.2c-0.4-0.1-0.8-0.1-1.2-0.2
			c0-0.7,0-1,0-1.8c-0.9,0-0.8,0.1-1.4,0.4c-0.1,0.2-0.3,0.7-0.1,1v0.1c-0.1,0-0.2,0-0.3-0.1c-0.2,0-0.2,0-0.2,0.2
			c-0.4-0.2-0.8-0.2-1.2-0.3c-0.9-0.3-1.9-0.5-2.8-0.8c-0.4-0.1-1.1-0.1-1.5-0.3h-0.6c0.1-0.1,0.1-0.6,0-0.7
			c-0.2-0.1-0.5-0.1-0.7-0.2c-0.2,0.1-0.3,0.3-0.3,0.5c-0.2,0-0.4,0-0.6,0.1V10h-0.2c0-0.3-0.1-0.3-0.1-0.6
			c-0.1-0.1-0.2-0.1-0.4-0.1c0.1-0.2,0.1-0.1,0.2-0.3h0.1c0-0.1-0.1,0-0.1-0.1c0,0,0-0.1,0.1-0.1c-0.2,0-0.1,0-0.3,0
			c0-0.2,0-0.2-0.1-0.3V8.5c0.1,0,0,0,0.1-0.1c0.4,0,0.1,0.1,0.4,0.2c0,0.1-0.1,0.2-0.2,0.2v0.1c0.2,0,0.4-0.2,0.6,0
			c0.2-0.1,0.2-0.1,0.3-0.2c0-0.3-0.1-1-0.1-1.3c-0.1,0,0,0-0.1-0.1c-0.7,0-0.7,0.3-1.1,0.5c0,0.4-0.1,0.5-0.2,0.9
			c-0.1,0-0.3,0-0.3-0.1h-0.1c0,0,0,0.2-0.1,0.2C19.2,9.1,19,9,18.8,9.1c0,0-0.1,0.1-0.2,0.2h-1.6c0-0.1,0-0.2-0.1-0.3V8.5h-0.1
			c-0.1,0.2-0.1,0.6-0.1,0.9c-0.1,0-0.1,0-0.2,0.1c-0.2,0.1-0.1,0.1-0.3,0.2c0,0.1,0,0.1,0.1,0.2c0,0-0.1,0-0.1,0.1
			c-0.1,0.1,0,0.2-0.1,0.2c-0.1,0.3-1,0.3-1.5,0.3v-0.2c-0.2,0.1-0.1,0.1-0.2,0.2h-0.5c-0.2,0.1-0.8,0-1,0.1c-0.3,0-0.6,0-0.9,0
			c-0.4,0-0.6,0.2-0.8,0.5c-0.4,0.6-0.4,1.5-0.4,2.3c0.1,0.1,0,0.1,0.1,0.2c0.2,0.3,0.6,0.4,1,0.4c0,0.1,0,0.1-0.1,0.2
			c0,0.1,0,0.1,0.1,0.2v0.1h-1.2v-0.2c-0.3,0-0.4-0.1-0.5-0.1c-0.2-0.1-0.3,0.1-0.4,0.1L10,14c-0.1,0-0.4,0-0.4-0.1
			c-0.1,0-0.2,0-0.2,0.1H5.4c-0.9,0-2-0.1-2.2,0.6c-0.3,0-0.3-0.1-0.4-0.1c-0.1,0-0.3,0-0.4,0.1c0-0.2,0-0.2,0-0.2l-0.1-0.2
			c-0.2,0-0.3,0-0.5-0.1c-0.1,0.1-0.1,0.2-0.2,0.2c0,0.1,0.1,0.2,0.2,0.2c-0.1,0.1-0.2,0.1-0.3,0.1c0,0.1,0,0-0.1,0.1
			c0,0.2,0,0.3,0.1,0.5c-0.3,0-0.4,0.1-0.6,0.1v0.2c-0.4,0.2-0.8,0.6-1,1c0,0-0.4,0.4-0.5,0.4c0.1,0.1,0.4-0.5,0.8-0.3
			c0,0.9,0,1.2,0.4,1.9c0.1,0.1,0.1,0.3,0.2,0.4c0.1,0.1,0.3,0.1,0.4,0.2c0.2,0.1,0.1,0.4,0.3,0.5c0.2,0.1,0.3,0,0.5,0.1
			c0.5,0.3,3.9,2.4,5.3,2.8c0.6,0.2,1.7,0.1,2.5,0.1h4.9c6.1,0,16.3,0,18.3,0c1.4,0,4.7-2.7,4.9-3h0.3c0,0.1,0,0.2,0.1,0.2
			c0,0.1,0.1,0.1,0.1,0.2c0.5,0,0.2-0.1,0.5-0.3l0.1-0.1H39c0,0,0.3-0.1,0.3-0.2c0-0.1,0-0.1,0.1-0.2c0.3-0.4,0.5-0.8,0.2-1.4
			c-0.1-0.2-0.1-0.3-0.3-0.4c0-0.3,0.6-0.7,0.8-0.8c0,0,0-0.1,0.1-0.1l0.4,0.4c0.1,0,0.1,0,0.2-0.1c0-0.1,0-0.1,0.1-0.2
			c-0.1-0.2-0.4-0.2-0.5-0.4c0-0.1-0.1-0.1-0.1-0.2c-0.4-0.3-1.4-0.9-2-0.9v-0.3c-0.4,0-1.1,0.1-1.2-0.2c-0.2,0-0.3,0-0.4,0.1V15
			c-0.6,0-1-0.1-1.4-0.2c-0.2-0.1-0.4,0-0.6-0.1h-0.1v-0.3c-0.5,0-0.8-0.1-1.2-0.2h-1.1c0,0-0.1-0.1-0.2-0.2c-0.2,0-0.4,0-0.8-0.1
			c0,0.1,0,0.1,0.1,0.2v0.1c-0.1,0-0.8-0.1-0.8-0.1c-0.1,0,0,0.1-0.2,0.1c0,0-0.2-0.1-0.2-0.2c-0.2-0.1-0.3,0-0.4,0.2h-0.9v-0.1
			c0.2-0.1,0.2-0.1,0.2-0.3c0.3-0.1,0.5-0.2,0.8-0.3c0.6,0,1.2,0,1.7-0.1c0,0,0.2,0,0.2-0.1v-0.1h1.4c0.4-0.1,1,0.1,1.5-0.1
			c0.3-0.1,0.8-0.1,1.2-0.1h2.2c3.3,0,6.6,0,9.8-0.1c2.1,0,4.3,0,5.9,0.2c0.2,0,0.4-0.1,0.6-0.1l0.2,0.1c0,0,0.2-0.1,0.3-0.1
			c0,0,0.3,0.1,0.4,0.1c0.2,0,0.4-0.1,0.7,0c0.1-0.1,0.2-0.2,0.3-0.3v-0.9C56.5,12.2,56.3,12.2,56.3,12.1z M0.8,18.2L0.8,18.2
			c-0.2-0.5-0.5-0.9-0.3-1.7c0.1,0,0.1,0,0.2,0.1H1c-0.1,0.2-0.4,1-0.3,1.2C0.6,17.9,0.8,18.1,0.8,18.2z M39.3,17.7
			c0.2,0.1,0.2,0.2,0.3,0.4c0,0.4-0.2,0.7-0.3,1h-0.1v0.1h-0.1c0-0.2,0.1-0.4,0.2-0.5c0-0.2,0-0.3-0.1-0.4c-0.1,0-0.1,0-0.2,0.2H39
			C39.1,18.2,39.2,18,39.3,17.7z M37.4,14.9c-0.1,0.1-0.1,0.1-0.2,0H37.4z M31.6,14.2c-0.1,0,0,0-0.1-0.1
			C31.6,14.2,31.5,14.1,31.6,14.2z M30.2,14.2c-0.1,0.1-0.1,0.1-0.2,0H30.2z"/>
	</g>
</g>
<g class="st1">
	<g class="st2">
		<path class="st4" d="M60.2,12c0,0-0.2,0-0.2-0.1c0,0,0-0.1-0.1-0.1c-0.1,0-0.2,0-0.4,0l-0.1-0.1c-0.3,0-0.7,0-1,0
			c-0.7,0-1.4,0-2,0c0,0-0.1,0.2-0.2,0.2c-0.2,0-0.3,0-0.5-0.1c0,0,0,0.1,0,0.1c-1.5,0-3.1,0-4.6,0c-3.9,0-7.8-0.1-11.7-0.1
			c0-0.1,0-0.1,0-0.2c-0.1-0.1-0.2-0.2-0.3-0.3c-0.6-0.1-1.2-0.2-1.7-0.4c0-0.1,0.1-0.1,0.1-0.3c0,0,0,0-0.1,0c0,0,0,0,0-0.1
			c-0.3,0-0.3,0-0.4,0.2c-0.4-0.1-0.6-0.3-0.9-0.4c-0.2-0.1-0.3-0.1-0.5-0.2c-0.1-0.1-0.2-0.3-0.4-0.3c-0.3-0.1-1.2,0.2-1.3,0.1
			c-0.1-0.1-0.1-0.2-0.2-0.2c0,0-0.4,0.1-0.4,0.1C32.8,10,32,10,31.7,10.3c-0.5,0-0.4-0.3-0.7-0.5c-0.2-0.1-0.3,0-0.4-0.1
			c0-0.1,0-0.2-0.1-0.2c-0.1-0.1-0.2-0.2-0.3-0.4c0-0.1-0.1-0.2-0.1-0.4c0,0-0.3-0.1-0.3-0.1c-0.1-0.1,0-0.3-0.1-0.4
			c-0.1,0-0.3-0.1-0.5,0c-0.1,0-0.1,0.2-0.2,0.2c0,0-0.9-0.1-1.1-0.1c0-0.1,0-0.2,0-0.2c-0.2,0-0.2,0-0.3-0.1c0-0.3,0-0.6,0.1-1
			c-0.4,0-0.3,0.2-0.5,0.2c0,0-0.3-0.2-0.4-0.2c-0.2-0.1-0.2,0.1-0.4,0.1c-0.2,0.1-0.3-0.1-0.5-0.1c-0.2,0-0.9,0.2-1.1,0.2
			c0,0,0,0.1-0.1,0.1c-0.2,0.1-0.5,0-0.7,0.1c0,0,0,0.1,0,0.1L24,7.8c-0.3,0.1-1.5,0-1.6-0.2c-0.1,0-0.2,0-0.3,0
			C22,7.7,22,7.8,22,7.8c0,0-0.3,0.1-0.3,0.1c0,0.1,0,0.1,0.1,0.2c-0.3,0-0.5,0-0.6-0.2c-0.2,0-0.5,0-0.7,0c0,0,0,0.1,0,0.1
			c-0.1,0-0.1,0-0.2,0c0,0,0,0.1,0.1,0.1c-0.2,0-0.2,0-0.3-0.1c-0.1-0.1,0-0.1-0.1-0.2c0.3,0,0.6-0.1,0.7-0.1c0.1,0,0.1,0,0.2-0.1
			c0.1-0.1-0.1-0.1-0.1-0.4c0,0,0.1-0.1,0.1-0.2c0,0-0.1,0-0.1-0.1c0,0,0,0,0-0.1c0.8,0,0.4,0,0.7,0.4c0,0,0,0.1,0,0.1
			c0.1-0.1,0.1-0.3,0-0.4c0,0,0,0,0-0.1c0.5,0,1.1-0.2,1.5-0.4c0-0.4-0.2-0.8-0.1-1.1c-0.5,0-0.8,0.1-1.3,0.1c0-0.1,0-0.1,0-0.2
			c-0.2,0-0.6,0-0.8-0.1c0,0-0.1-0.9,0-1c0,0,0,0,0-0.1c-0.3,0-0.6,0-0.9-0.1c0,0.1,0,0.3-0.1,0.4c0,0-0.1,0-0.1,0
			c-0.1,0.2,0.2,0.3-0.1,0.5c0,0,0,0.1,0,0.1c0.1,0,0.2,0,0.3,0c0,0.1,0,0.1,0,0.2c-0.1,0-0.1,0-0.1-0.1c0,0-0.3,0-0.2,0.1
			c0,0.1,0.1,0,0.1,0.1c-0.3,0-0.6,0.1-1,0.1c0-0.2,0-0.4,0-0.6c-0.1,0,0,0-0.1,0.1c-0.1,0.1-0.1-0.1-0.1-0.1
			c-0.1,0.1-0.1,0.4-0.1,0.6c-0.1-0.1-0.1,0-0.1-0.1c-0.3,0-0.4,0-0.4,0.2c-0.1,0.1,0,0-0.1,0.1C18,5.9,18,5.8,18,6
			c0.2,0,0.3,0,0.5,0c0,0,0,0,0-0.1c0,0,0-0.1,0.1-0.1c0.1,0,0.1,0.2,0.2,0.2c0.1,0.1,1,0,1.1,0.1c-0.1,0.1-0.1,0.1-0.3,0.1
			c0,0.1,0,0.2,0,0.2c-0.2,0-0.4,0-0.5-0.1c-0.1,0-0.1,0.1-0.3,0.1c-0.1,0.1,0,0-0.1,0.1c0,0,0,0.1,0,0.1c0.1,0.1,0.2,0,0.3,0.1
			c0.8,0,0.9-0.1,1,0.5c-0.1,0-0.1,0.1-0.1,0.2c0,0-0.1,0-0.1,0c0,0,0,0.1,0,0.1c-0.1,0.1-0.2,0-0.3,0.1c0,0-0.1,0-0.1,0
			c0,0,0-0.3-0.1-0.3c-0.1-0.1-0.3,0-0.5,0c0,0,0,0.1,0,0.1c0.1,0,0.2,0,0.3,0c0,0.2,0,0.2-0.1,0.3c-0.5,0-1.4,0.1-1.7-0.1
			c-0.2,0-0.1,0-0.3-0.1c0-3.8,0-3.7-0.1-7.6c0,0,0,0-0.1,0c0,3.7,0,3.7,0,7.4c-0.2-0.1-0.4-0.1-0.5,0c0-0.2-0.1-0.2-0.2-0.3
			c-0.5,0-0.9,0-1.4,0c0.1,0.1,0.4,0.1,0.6,0.1c-0.1,0-0.2,0.1-0.2,0.1c-0.2,0.3-0.1,0.9,0.1,1c-0.1,0.1-0.2,0.1-0.3,0
			c-0.2,0.3,0,0.6-0.4,0.8c0,0.1,0,0.2,0,0.3c0,0,0.1,0,0.1,0.1c0,0.1-0.2,0.3-0.1,0.5c0.1,0,0.1,0,0.2,0.1c0,0,0,0,0,0.1
			c-0.1,0-0.2,0-0.3,0c0,0.3,0.1,0.3,0.3,0.4c-0.1,0.1-0.2,0.1-0.4,0.1c0,0.2,0,0.3,0.3,0.4c0,0.1,0,0.3,0,0.4c-0.2,0-0.4,0-0.5,0.1
			c0.1,0.3,0.3,0.2,0.4,0.4c0,0.1,0,0.3,0.1,0.4c-0.1-0.1-0.1,0-0.1-0.2c-0.2,0.1-0.1,0.2-0.2,0.2c-0.3,0.1-0.5,0.1-0.8,0.2
			c-0.2,0.1-0.5,0.2-0.8,0.3c-0.1,0-0.1,0-0.2,0l-0.1,0.1c0,0,0,0.1,0,0.1c0,0-0.5,0.1-0.5,0.1c-0.3,0-0.6,0-0.9,0
			c-0.9,0.2-2.3-0.1-3.4,0.2c-0.3,0.1-0.3-0.2-0.6-0.1c0,0-0.3,0.1-0.3,0.1C6.6,13.1,6,12.9,5.9,13c0,0,0,0.1,0,0.1
			c-0.3,0-0.7,0-1,0c-0.6,0-1.1,0-1.7,0c-0.1,0-0.5,0.2-0.7,0.1c0,0,0-0.1,0-0.1c-0.1,0-0.1,0-0.2,0c0,0.1,0,0.1,0,0.2
			c-1,0-2,0.5-2.4,1.2c-0.2,0-0.3,0-0.5-0.1c0,0.1,0,0.1-0.1,0.1c0,0.1,0,0.2,0,0.3c0.1,0,0.2,0,0.4,0.1c0,0.9,0.4,1.4,1,1.7
			c0.1,0.1,0.3,0.1,0.5,0.2c0.1,0.1,0,0.2,0.1,0.2c0.1,0.1,0.6,0.4,0.7,0.4c-0.1,0.2-0.1,0.3-0.1,0.5c0.1,0,0.1,0,0.2,0
			c0-0.2,0.1-0.3,0.1-0.5c0,0,0,0,0.1,0c0.1,0.2,0.2,0.4,0.3,0.5c0.1,0,0.2,0,0.4,0.1c0,1.6,1.9,2.2,2.9,2.8
			c0.7,0.5,1.6,1.1,2.5,1.4c0.7,0,1.4,0,2.2,0.1c1.5,0,3,0,4.5,0c4.3,0,8.6,0,12.9,0c1.7,0,3.4,0,5.1,0c0.8,0,1.8,0.1,2.5-0.1
			c0.8-0.2,3.7-2.9,4-3.2c0.2-0.2,0.8-1.2,0.5-1.7c0.4-0.6,0.8-0.7,0.8-0.7l0.1-0.1c0,0-0.2-0.5-0.4-0.7c-0.3-0.5-1.3-1-2.1-1
			c0.1-0.2,0.3-0.5,0.4-0.7c0-0.1,0-0.2,0.1-0.3c0,0,0.7-0.4,0.7-0.5c0-0.1,0-0.1,0-0.2c5.5-0.1,10.9-0.1,16.4-0.2
			c0,0.1,0,0.1,0.1,0.2c0.1,0,0.2-0.1,0.4-0.1c0,0,0.1,0.2,0.2,0.2c0.9,0,1.9,0,2.8,0c0.3,0.1,0.7-0.2,1.1-0.2c0.4,0,0.8,0,1.2,0
			c2.1,0,4.2,0,6.3,0.1c0-0.4,0-0.8,0-1.1C65.2,12,62.7,12,60.2,12z M19.1,5.9c0.2,0,0.3,0,0.5,0C19.5,6,19.2,6,19.1,5.9z M20.7,6.6
			c-0.1,0-0.1,0-0.1-0.1C20.7,6.5,20.6,6.5,20.7,6.6z M20.6,4.5c0.1,0.1,0.1,0.3,0.1,0.5C20.6,4.8,20.6,4.6,20.6,4.5z M20.6,5.1
			C20.6,5.1,20.6,5.1,20.6,5.1c0.1,0.1,0.1,0.2,0.1,0.2c0,0-0.1,0-0.1,0C20.5,5.2,20.5,5.2,20.6,5.1z M20.6,6.7c0.1,0,0.2,0,0.2,0
			c0,0.1,0,0.2,0,0.2c-0.1,0-0.3,0-0.4,0C20.4,6.8,20.5,6.8,20.6,6.7z M20.5,5.1c0,0.1,0,0.1,0,0.2c-0.2,0-0.2,0-0.3-0.1
			c-0.1-0.1,0,0-0.1-0.1C20.2,5.2,20.3,5.1,20.5,5.1z M20.2,7.1c0,0,0,0.1,0,0.1l-0.1-0.1C20.1,7.1,20.2,7.1,20.2,7.1z M2.8,15.6
			c-0.1,0-0.3,0-0.4,0.1c0,0.2,0,0.2,0,0.4c-0.1,0.1-0.2,0.2-0.3,0.3c0,0-0.1,0-0.1,0c0.2-0.2,0.7-0.8,0.2-1.1c0,0,0,0,0-0.1
			c0.2,0,0.3,0,0.5-0.1c0,0,0,0,0,0.1c0,0,0,0,0.1,0c-0.1,0.1,0,0-0.1,0.1C2.7,15.4,2.7,15.4,2.8,15.6z M2.7,13.4
			c-0.1,0.1-0.1,0.1-0.2,0C2.5,13.4,2.6,13.4,2.7,13.4z M2.4,14.3c0,0,0.1,0,0.1,0c0,0.2-0.1,0.1,0,0.2c-0.1,0.1-0.5,0.2-0.8,0.2
			c0-0.1,0-0.1,0.1-0.2C1.9,14.4,2.2,14.5,2.4,14.3z M1.2,13.7c0.1,0,0.1,0,0.2,0c0,0,0,0,0,0.1c-0.2,0.1-0.3,0.4-0.5,0.5
			c-0.1,0.1-0.3,0.1-0.4,0.2c-0.1,0-0.2,0-0.2,0C0.4,14.1,0.9,14,1.2,13.7z M2.8,16.9C2.8,16.9,2.8,16.9,2.8,16.9
			C2.8,16.9,2.7,16.9,2.8,16.9C2.7,16.9,2.7,16.9,2.8,16.9c-0.3-0.1-0.2-0.1-0.2-0.3c-0.3,0-0.3,0.2-0.4,0.5c0,0,0,0-0.1,0
			c0-0.1,0-0.1-0.1-0.2c-0.1,0,0,0.1-0.1,0.1c0,0-0.4-0.2-0.4-0.2c0,0,0-0.1-0.1-0.1c-0.1,0-0.2,0-0.3,0.1c-0.4-0.1-0.9-0.6-1.1-0.9
			c-0.1-0.2-0.4-0.5-0.2-0.7c0.1-0.2,0.4-0.1,0.7-0.2c0.2-0.1,0.7-0.3,0.8-0.4c0.1,0,0.2,0,0.2,0c0,0,0,0,0,0.1
			c-0.3,0.2-0.1,0.1-0.2,0.3c-0.1,0.1-0.2,0.2-0.4,0.3c-0.2,0.3-0.2,0.9,0.1,1.1c0.2,0.1,0.8,0,0.9,0.1c0,0.1,0,0.1,0.1,0.2
			c0.1-0.1,0.1-0.2,0.1-0.2C2.7,16.3,2.7,16.5,2.8,16.9c0-0.1,0-0.2,0.1-0.2c0,0,0,0,0-0.1c0,0,0,0,0.1,0
			C2.9,16.7,2.9,16.8,2.8,16.9z M1.6,14.9c-0.1,0-0.1,0-0.1-0.1C1.6,14.9,1.5,14.9,1.6,14.9z M4.9,13.4c-0.2,0-0.4,0-0.5-0.1
			c0.2,0,0.4,0,0.5,0C4.9,13.3,4.9,13.3,4.9,13.4z M15.1,11.5c0,0,0,0.2,0.1,0.4c0,0,0,0-0.1,0C15,11.7,15,11.7,15.1,11.5z
			 M13.4,12.9c0.1,0,0.1,0,0.2,0C13.5,13,13.5,13,13.4,12.9z M15.1,13c-0.2,0-0.3,0-0.4-0.1c0,0,0-0.1,0-0.1c-0.3,0-0.6,0-1,0
			c0.2-0.1,0.4,0,0.6-0.1c0.1,0,0.2-0.2,0.3-0.2c0.2,0,0.4,0,0.5,0.1C15.1,12.7,15.1,12.8,15.1,13z M15.1,12.5c0,0-0.1,0-0.1,0
			c0-0.1,0-0.2,0.1-0.3c0.1,0,0.2,0,0.2,0C15.2,12.4,15.2,12.3,15.1,12.5z M15.8,7.2c0.1,0,0.1,0,0.2,0.1c0.1,0,0.1,0,0.2,0.1
			c0,0,0,0.1-0.1,0.1c-0.1,0-0.1,0-0.2,0.1c-0.1-0.1,0-0.1-0.1-0.1C15.8,7.3,15.8,7.2,15.8,7.2z M15.8,7.2c0,0,0,0.1,0,0.1
			c-0.1,0-0.2,0-0.3-0.1C15.6,7.2,15.7,7.2,15.8,7.2z M15.5,8.4c0.1,0,0.1,0,0.1,0.1C15.5,8.4,15.5,8.4,15.5,8.4z M15.9,8.8
			c-0.1-0.1,0-0.2,0-0.4c-0.1,0-0.2,0-0.2,0c0,0,0,0,0-0.1c0.1,0,0.1,0,0.2-0.1c0.1,0.1,0,0.1,0.1,0.1C15.9,8.6,15.9,8.7,15.9,8.8z
			 M16,8.3C16,8.3,16,8.3,16,8.3C15.9,8.2,16,8.3,16,8.3c-0.1,0-0.1,0-0.1,0C16,8.1,16.1,8,16.1,7.6c0.1,0.1,0.1,0.1,0.3,0.2
			C16.3,8,16.2,8.2,16,8.3z M16.7,7.6c-0.1,0-0.1-0.1-0.2-0.1c0.1,0,0.1,0,0.2,0C16.7,7.5,16.7,7.5,16.7,7.6z M26,7.6
			c0.1,0.1,0,0.1,0.1,0.2C26,7.7,26,7.7,26,7.6z M37.2,10.9C37.2,10.9,37.2,10.9,37.2,10.9C37.1,11,37.1,10.9,37.2,10.9
			c-0.1,0-0.1,0-0.2,0c0,0,0-0.1,0.1-0.1C37.2,10.8,37.1,10.8,37.2,10.9C37.2,10.8,37.2,10.8,37.2,10.9
			C37.2,10.9,37.2,10.8,37.2,10.9z"/>
	</g>
</g>
<g>
	<g>
		<path class="st4" d="M41.8,13.2c0-0.3,0-0.5,0-0.8c-3.4,0-7-0.1-10.5-0.1c-0.1-0.4-0.3-0.7-0.5-1.1c-0.2,0-0.3,0.1-0.3,0.3
			c-0.1,0.1-0.1,0.3-0.1,0.6c-0.1,0-0.2,0-0.3,0c0-0.5-0.2-1.1-0.5-1.3c0,0-0.1,0-0.1,0c-0.2-0.1-0.5-0.1-0.7-0.3
			c-0.2-0.1-0.4-0.9-0.5-1.1c-0.3,0-0.7,0-1,0c0,0,0-0.1,0-0.1c-0.1,0-0.2,0-0.3,0c0,0,0,0.1,0,0.1c-0.1,0-0.1,0-0.2,0
			c0-0.1,0-0.1,0-0.2c-0.1,0-0.1,0-0.2,0c0-0.2,0-0.3,0.1-0.3c0,0,0-0.1,0-0.1c-0.1,0-0.1,0-0.2,0c0-0.1,0-0.2,0-0.3
			c-0.2,0-0.5,0-0.6,0c0,0.2,0,0.3,0,0.5c-0.1,0-0.1,0-0.2,0c0,0.1,0,0.2,0,0.3c0,0-0.8,0.1-0.8,0.1c0,0-0.1,0-0.1,0
			c0-0.1,0-0.1,0-0.2c0.2,0,0.3,0,0.5,0c0.1,0,0.1-0.2,0.1-0.2c0.1,0,0.1,0,0.2,0c0.1-0.2,0.2-0.6,0-0.8c0-0.1,0-0.1-0.1-0.1
			c0,0,0-0.1,0,0c0,0,0,0.1,0,0.1c-0.2,0.1-0.3,0-0.5,0.1c0,0,0,0.1,0,0.1c-0.1,0-0.2,0-0.3,0c0,0,0,0.1,0,0.1
			c-0.2,0.1-0.5-0.1-0.6,0c0,0-0.1,0-0.1,0c0,0.1,0,0.1,0,0.2c0.1,0,0.5,0.1,0.6,0c0.2,0,0.1,0.1,0.3,0.1c0,0.1,0,0.2,0,0.3
			c-0.2,0-0.2,0.1-0.2,0.3c-0.4,0-0.8,0-1.1,0c0-0.1,0-0.2,0-0.3c-0.5,0-0.9,0-1.4,0c0,0.1,0,0.2,0,0.3c-0.6,0-1.3,0-1.9,0
			c0,0,0-0.1,0-0.1c-0.1,0-0.1,0-0.2,0c0-0.2,0-0.4,0-0.6c-0.1-0.1-0.2-0.2-0.2-0.3c-0.1,0-0.1,0-0.2,0c-0.1-0.9,0-2.1,0-3.1
			c0-1.8,0-3.6,0-5.4c-0.1,0-0.1,0-0.2,0c0,2.8,0,5.6,0,8.3c0,0-0.1,0-0.1,0c0,0.2-0.2,0.3-0.3,0.3c0,0.2,0,0.4,0,0.6
			c-0.1,0-0.1,0-0.2,0c0,0,0,0.1,0,0.1c-0.3,0-0.5,0-0.8,0c0,0,0-0.1,0-0.1c-0.1,0-0.2,0-0.3,0c0,0,0,0.1,0,0.1c-1.3,0-2.6,0-3.9,0
			c0-0.1,0-0.2,0-0.4c0,0-0.1,0-0.1,0c0,0.1,0,0.2,0,0.3c-0.2,0-0.5,0.2-0.8,0.1c0,0-0.1-0.1-0.2-0.1c-0.1,0.1-0.1,0.1-0.3,0.1
			c0,0.3-0.1,0.3-0.1,0.6c-0.1,0-0.2,0-0.3,0c0,0,0,0.1,0,0.1c-0.1,0-0.1,0-0.2,0c0,0,0-0.1,0-0.1c-0.1,0-0.3,0-0.3,0
			c0,0-0.1,0-0.1,0c0.1,0.1,0.2,0.1,0.3,0.1c0,0.1,0.1,0.2,0.1,0.3c0.3,0,0.3,0,0.5-0.1c0,0,0-0.1,0-0.1c0,0,0,0.2,0,0.3
			c0,0,0.1,0,0.1,0c0,0.8,0,1.6,0,2.3c-0.1,0-0.2,0-0.4,0c0.1,0,0.2,0,0.3,0.1c0,0,0.1,0,0.1,0c0,0.1,0,0.2,0,0.3c1.4,0,2.8,0,4.1,0
			c0,0.1-0.1,0.3-0.1,0.4c0,0,0,0.1,0,0.1c-0.1,0-0.1,0-0.2,0c0,0,0-0.1,0-0.1c-0.1,0-0.1,0-0.2,0c0,0,0-0.1,0-0.1
			c-0.1,0-0.1,0-0.2,0.1c-0.2,0-0.2-0.1-0.3-0.1c0,0,0-0.1,0-0.1c-1.6,0-3.3,0-4.9,0c0,0.2-0.1,0.2-0.2,0.3c-0.2,0-0.6-0.1-0.8,0
			c0,0-0.1-0.1-0.1-0.1c0,0,0,0,0,0c0,0,0,0,0,0c0,0.1,0,0.1,0,0.2c-0.2,0-0.6,0-0.9,0c0-0.1,0-0.2,0-0.3c-1,0-2,0-3,0
			c0,0.1,0,0.2,0,0.3c-0.3,0-0.6-0.1-0.7,0.2c-0.1,0-0.3,0-0.4,0c0,0.1,0,0.2,0,0.3c-0.1,0-0.2,0-0.3,0c0,0.1,0,0.3,0,0.4
			c0.2,0,0.4,0,0.6,0c-0.1,0.1-0.2,0.2-0.2,0.4c-0.1,0-0.1,0-0.1-0.1c0,0-0.2-0.1-0.2-0.1c0,0.1,0.2,0.2,0.2,0.2
			c0,0.1-0.1,0.3-0.2,0.4c-0.4,0-0.1-0.5-0.1-0.6c-0.1,0-0.3,0.5-0.4,0.6c-0.1,0.1-0.7,0-0.9,0c-0.2,0-0.3,0-0.5,0
			c-0.3,0.1-0.7,0.4-1,0.6c-0.1,0.1-0.5,0.5-0.6,0.6c-0.1,0.1-0.1,0.3-0.2,0.3c0,0.1,0.7,0.4,0.9,0.5c0,0.5-0.1,1,0.1,1.3
			c0.6,1.2,2,1.5,3.2,2.2c0.5,0.3,1,0.5,1.5,0.8c0.3,0.2,0.7,0.4,1.1,0.5c0.5,0.2,1.4,0.1,2,0.1c1.3,0,2.6,0,3.8,0
			c4.2,0,8.4,0,12.6,0c1.7,0,3.4,0,5.1,0c0.6,0,1.4,0,2,0c0.2,0,5.6-2.3,5.7-2.3c0.2-0.1,0.7-0.4,0.8-0.6c0.4-0.5,0.6-1.4,0.3-2.2
			c0.3-0.1,0.6-0.3,0.9-0.3c-0.2-0.4-0.4-0.8-0.8-1c-0.1-0.1-0.3-0.1-0.5-0.2l-0.1-0.1c-0.1,0-0.2,0-0.3-0.1c0-0.1,0-0.4-0.1-0.5
			c-0.1-0.1-0.7,0.1-0.9,0.1c0,0,0-0.1,0-0.1c0,0,0,0,0,0c0,0,0,0,0,0c-0.1,0-0.1,0-0.1,0c-0.2,0-0.3,0-0.3,0.3c0,0,0,0,0,0
			c0-0.1-0.1-0.1-0.1-0.3c-0.2,0-0.3,0-0.5,0.1c0,0,0,0.1,0,0.1c0.1,0,0,0,0.1,0c0.1,0,0.2,0,0.3,0c0,0,0,0.1,0,0.1c0,0-0.3,0-0.3,0
			c0,0.1,0,0.2,0,0.3c-0.3,0-0.6,0-1,0c0-0.1,0-0.1,0-0.2c0,0-0.1,0-0.1,0c0,0,0-0.1,0-0.1c-0.2-0.1-0.5,0.1-0.7,0
			c-0.1,0-0.2-0.2-0.3-0.3c-0.1,0-0.2,0-0.3,0c0,0-0.2-0.1-0.2-0.1c0,0,0-0.1,0-0.1c0,0-0.1,0.1-0.2,0c-0.1,0-0.3-0.2-0.4-0.2
			c0,0-0.1,0-0.1,0c-0.4-0.2-0.8-0.4-1.2-0.6c0,0-0.1,0-0.1,0c0,0-0.1-0.1-0.2-0.1c-0.1,0-0.2,0-0.3,0c0,0,0-0.1,0-0.1
			c-0.1-0.1-0.1-0.1-0.2-0.1c0-0.2,0.1-0.2,0.2-0.3C34.5,13.2,37.1,13.2,41.8,13.2z M24.9,8.8C25,8.8,24.9,8.8,24.9,8.8
			c0.2,0.1,0.3,0.1,0.5,0.2c0,0,0,0.1,0,0.1c-0.1,0-0.3,0-0.4,0c0-0.1,0-0.1,0-0.2C24.9,8.9,24.9,8.9,24.9,8.8z M24.8,9.4
			C24.8,9.4,24.7,9.4,24.8,9.4c-0.1-0.1-0.1-0.1-0.1-0.2c0,0,0.1,0,0.1,0C24.8,9.3,24.8,9.4,24.8,9.4z M30.6,13.7c0-0.1,0-0.2,0-0.3
			c0.1,0.1,0.1,0.1,0.1,0.3C30.7,13.7,30.7,13.7,30.6,13.7z"/>
	</g>
</g>
</svg>
