<?xml version="1.0" encoding="UTF-8"?>
<!-- Generator: Adobe Illustrator 25.0.0, SVG Export Plug-In . SVG Version: 6.00 Build 0)  -->
<svg version="1.1" id="Слой_1" xmlns="http://www.w3.org/2000/svg" xmlns:xlink="http://www.w3.org/1999/xlink" x="0px" y="0px" width="53.2px" height="17px" viewBox="0 0 53.2 17" style="enable-background:new 0 0 53.2 17;" xml:space="preserve">
<style type="text/css">
	.st0{fill-rule:evenodd;clip-rule:evenodd;fill:#8C8C7C;}
</style>
<path class="st0" d="M10.7,7.4l0.4-2.6h1.7V4.4L13,4.2l0.1,0.1v0.5h4.4l0.3-0.3V3H18v1.5l0.9-0.6h0.9L21,4.8h2.5V4.2L23.7,4l0.2,0  l0.2,0.2v0.7h2l2.4,0.2l0.3-0.3h0.4L29.4,5L31,5.1l0.7,0.3v0.2H36L36.5,5h2.2l0.5,0.5h0.5v0.1h12.7v1.2H39.9v0.1h-8.2V7l-0.5,0.2  l-5.1,0.4L27,8h0.3v0.3h3L30.6,8v0.4h0.6v0.2h0.4l1.1,0.6V9H33v0.4h0.2l0.2-0.2V9H34v0.7h2.5l1.2,1.5l-0.5,0.3c0,0,0,0.3,0.1,0.4  c0,0.1,0,0.3,0,0.4c0,0.1-0.1,0.4-0.2,0.5c-0.1,0.1-0.3,0.4-0.4,0.5c-0.1,0.1-0.4,0.3-0.6,0.4c-1.1,0.6-3.4,1.6-4.6,2  c-0.1,0-0.4,0.1-0.5,0.2c-0.1,0-0.7,0.2-0.7,0.2H7.2c0,0-0.4-0.1-0.5-0.1s-0.4-0.1-0.5-0.2c-1.1-0.4-3.1-1.5-4-2.2  c-0.1-0.1-0.4-0.3-0.4-0.3l-0.2,0.2l-0.2,0.1l-0.3-0.1l-0.3-0.1l0.1-0.3c0,0-0.2-0.5-0.2-0.7c-0.1-0.1-0.2-0.4-0.2-0.5  c-0.1-0.2-0.1-0.6-0.1-0.8c0-0.1,0-0.4,0-0.4l0.8-1.5h1.4l2.8-1.4h0.3c0,0,0.1-0.2,0.2-0.2l0.2-0.1c0.1,0,0.1,0.2,0.1,0.2h8.6V7.4  H10.7z"/>
</svg>