<svg xmlns="http://www.w3.org/2000/svg" width="40" height="16" viewBox="0 0 40 16">
  <path fill="#FAB81B" fill-rule="evenodd" d="M6.18529608,14.4484082 C6.63248051,14.7710444 7.43604817,15.0325928 8.00109454,15.0325928 L26.0740656,15.0325928 C27.7313415,15.0325928 30.1495437,14.2167134 31.4642526,13.2186403 L34.027771,11.272522 L33.2442627,8.46850586 L29.0748291,8.09967041 L24.2969971,6.05230713 L22.885376,4.99591064 L23.0604858,3.44934082 L39.9971924,3.03369141 L39.9971924,2.02856445 L21.3052368,1.8036499 L18.7608643,0 L16.1535034,0 L15.5213623,1.70025635 L14.5026855,2.02856445 L14.1610107,0.86328125 L11.0205078,1.20788574 L11.2440186,4.53833008 L14.8642578,5.50982666 L14.7189331,6.05230713 L11.2440186,6.05230713 L10.3790283,5.50982666 L9.50457764,5.8817749 L4.79602051,6.24969482 L3.71343994,7.01824951 L1.20458984,7.19165039 L0,9.01837158 L2.09124756,9.54144287 L2.52380371,11.8067017 L6.18529608,14.4484082 L6.18529608,14.4484082 Z"/>
</svg>
