<svg xmlns="http://www.w3.org/2000/svg" width="42" height="18" viewBox="0 0 42 18">
  <path fill="#8C8C7C" fill-rule="evenodd" d="M2.91735436,15.8380634 C3.77322267,16.5289981 5.36677646,17.0871406 6.47465926,17.084714 L28.5976064,17.0362577 C29.7063833,17.0338291 31.2561424,16.4271426 32.0721603,15.669043 L35.5842285,12.40625 L36.0625,11.0166016 L35.0424805,10.0427246 L31.0041504,10.0117188 L29.9914551,8.97009277 L29.9608154,9.96264648 L28.9158936,9.99829102 L27.9818115,9.00366211 L25.6785889,9.0213623 L25.4215088,8.01464844 L26.9698486,7.74645996 L27.0749512,6.99780273 L41.9832764,6.97021484 L41.9822998,5.95202637 L27.0600586,5.9921875 L25.9316406,4.95056152 L23.0020752,5.00256348 L22.5285645,3.95166016 L19.989502,3.9979248 L19.9140625,2.96166992 L14.9902344,3.02099609 L14.960083,4.00756836 L11.2496338,4.0020752 L11.1782227,0 L10.868042,0 L10.868042,4.95056152 L9.91760254,5.84509277 L9.92980957,6.95397949 L11.9121094,7.96350098 L14.0336914,8.05981445 L13.4331055,8.97009277 L3.18664551,9.05456543 L0,10.1275635 L0,11.8747559 L0.907551013,13.3549952 C1.48453366,14.296069 2.65277429,15.6244703 3.50195716,16.3100079 L2.91735436,15.8380634 Z"/>
</svg>
