<svg xmlns="http://www.w3.org/2000/svg" width="50" height="20" viewBox="0 0 50 20">
  <path fill="#8C8C7C" fill-rule="evenodd" d="M6.99329962,17.5200307 C7.72531217,18.3492607 9.20676041,19.0219984 10.3191421,19.0226423 L26.9853013,19.0322893 C28.0901008,19.0329288 29.6681537,18.4529603 30.512801,17.7344947 L35.0373535,13.8858643 L35.1477051,13.0930176 L40.1090088,13.0134277 L40.0367432,12.0012207 L36.1016846,12.0012207 L33.0332031,10.8123779 L33.0332031,10.0179443 L49.0501709,10.0179443 L49.0198975,9.01513672 L36.7458496,8.95214844 L35.3054199,8.0390625 L33.0483398,8.03015137 L33.0332031,8.94665527 L23.0938721,9.01135254 L22.0367432,7.94641113 L20.0334473,7.97790527 L20.0334473,6.99926758 L18.9694824,6.98168945 L18.9694824,7.97277832 L17.8702393,7.91931152 L17.0368652,6.98156738 L12.9705811,7.00097656 L12.0593262,7.96704102 L9.40454102,7.92822266 L9.43444824,0 L9.03833008,0.0386962891 L9.03918457,7.92114258 L4.07250977,8.03051758 L4.07250977,8.85583496 L3.07202148,8.85583496 L3.07202148,7.98022461 L2.02636719,7.94958496 L2.08581543,9.95166016 L0,9.97338867 L0,10.8123779 L1.52807617,11.3289795 L6.99329962,17.5200307 Z"/>
</svg>
