<?xml version="1.0" encoding="utf-8"?>
<!-- Generator: Adobe Illustrator 22.0.0, SVG Export Plug-In . SVG Version: 6.00 Build 0)  -->
<svg version="1.1" id="Layer_1" xmlns="http://www.w3.org/2000/svg" xmlns:xlink="http://www.w3.org/1999/xlink" x="0px" y="0px"
	 width="52.1px" height="15px" viewBox="0 0 52.1 15" style="enable-background:new 0 0 52.1 15;" xml:space="preserve">
<style type="text/css">
	.st0{fill:#8C8C7C;}
</style>
<path class="st0" d="M1.3,5h5.4v0.8h6.3l1.7,1.2h2.1V6.2H15V5V4.6l-0.4,0.8l-0.8-0.8l2.1-3.3l0.8,0.8l-0.4,0.8h0.4l0.8-0.8h0.4l0,0
	h1.2V1.3h-2.5V0l7.1,0.4v0.4h-4.2v1.3h2.5V1.3h0.4v0.8h1.3V1.7h0.4v0.4h2.1l0.4-0.4l2.5,1.7H30l0.4-0.4l2.1,0.8h1.7v0.4H50V3.3h2.1
	v2.1H50V5H34.2v0.4h-1.7l-2.1,0.4h-2.1v0.8h4.6V6.2h0.8v0.4h0.4l2.1,0.8l1.2,0.4V7.5h0.8v0.8l0.8,0.8V10l0.4,0.4l-0.8,1.7l-0.8,0.4
	L32.5,15H10.4l-5.8-2.1c0,0-0.8-0.8-0.8-1.2v-1.2L2.1,8.8H1.3v0.8L0,9.2V8.8h0.4V7.9h0.4V6.7h0.4V5.8h0.4L1.3,5z"/>
</svg>
