<svg xmlns="http://www.w3.org/2000/svg" width="27" height="13" viewBox="0 0 27 13">
  <path fill="#8C8C7C" fill-rule="evenodd" d="M1.86701804,11.67957 C2.34995628,11.954766 3.18760397,12.1778564 3.7402549,12.1778564 L20.3340265,12.1778564 C21.4414717,12.1778564 23.1501134,11.8140596 24.1692048,11.3568498 L24.4572489,11.2276204 C24.958648,11.0026705 25.6795289,10.4945326 26.0601688,10.1001361 L26.2237667,9.93062563 C26.6076358,9.53288318 26.9188232,8.77045846 26.9188232,8.21917725 L26.9188232,7.22790527 L23.9064941,6.21032715 L23.9064941,5.44091797 L22.9456787,5.68286133 L22.9456787,6.20397949 L21.1241455,6.21746826 L21.0158437,5.26215295 C20.9531594,4.70922389 20.4649768,4.24346107 19.8932256,4.22055105 L19.0166016,4.1854248 L19.0726318,3.22546387 L25.8962402,3.26611328 L25.8475342,2.23583984 L19.8969727,2.19714355 L18.0236816,1.22851563 L15.449707,1.22180176 L15.0313721,0 L11.6875,0.291015625 L9.43432617,1.4050293 L9.96386719,3.20202637 L10.8452148,4.14599609 L4.95422363,4.24206543 L1.94616699,5.20739746 L0,5.24560547 L0.317993164,7.14367676 L1.84265137,8.17871094 L1.70361328,8.86157227 L0.880493164,9.21044922 L1.05173243,10.3061888 C1.13783869,10.8571725 1.59468751,11.524386 2.08207864,11.8021195 L1.86701804,11.67957 Z"/>
</svg>
