<?xml version="1.0" encoding="utf-8"?>
<!-- Generator: Adobe Illustrator 25.3.1, SVG Export Plug-In . SVG Version: 6.00 Build 0)  -->
<svg version="1.1" id="Layer_1" xmlns="http://www.w3.org/2000/svg" xmlns:xlink="http://www.w3.org/1999/xlink" x="0px" y="0px"
	 width="56.6px" height="18.8px" viewBox="0 0 56.6 18.8" style="enable-background:new 0 0 56.6 18.8;" xml:space="preserve">
<style type="text/css">
	.st0{display:none;fill-rule:evenodd;clip-rule:evenodd;fill:#FAB81B;}
	.st1{display:none;}
	.st2{display:inline;}
	.st3{fill-rule:evenodd;clip-rule:evenodd;fill:#FAB81B;}
	.st4{fill-rule:evenodd;clip-rule:evenodd;fill:#8C8C7C;}
</style>
<path class="st0" d="M0.8,8.1L1.7,8L0.4,7H2l2.1,1h8.3V7H8.3l0.5-1.1L8,5.5l0.2-0.6L7.3,5.1L6.8,4.7V2.9L6.4,2.1l0.5-0.5L8.4,2
	l2-0.2v-1H8.3L8.6,0L8.3-1l2.8-0.1v3l0.8-0.6L12-2l0.1,4h0.6l0.5,0.5l0.4,0.3l1-0.3h0.9V1h4.9c0.1,0.1,0,1.9,0,1.9l2.2-0.1v0.5
	l1.1,0.4L24.5,3l0.3,0.7L25.4,4V3c0,0,1-0.2,1,0s0,1.2,0,1.2l1.3,0.5l-0.4-0.6c0,0,0.4-0.8,0.5-0.7c0.2,0.1,2,0.9,2,0.9l2.6,0.1h3
	v0.3l10,0.2v0.9l-10,0.3v0.4h-2.8L29.7,7l-2.3,0.2l-0.5,0.7l4.7-0.3l0.2,0.1h0.6h0.5L33,7.9L34.4,9V8.1h1v1.2c0,0,1.8,1.1,2,1.1
	s1-0.5,1-0.5l2,0.3v1.3l-1.3,1.2l1,1.2l-0.5,0.5l-0.8-0.5L38.4,14l1.1,0.8l-0.4,0.6L38,14.5l-0.4,0.3l1.1,0.8L38.3,16l-2,0.2l-3.8,2
	L30.4,19H10.8L9,18.3l-5.1-1.6c0,0-0.7-2-0.8-2.1c-0.1,0-1.6-1.3-1.6-1.3L2.1,13l-0.6-1l-0.9,0.1L0.5,10h1.2l0.8,1L3,10.6L2.5,9.8
	L1.4,9.6l-1-0.5L0.8,8.1z"/>
<g class="st1">
	<g class="st2">
		<path class="st3" d="M43,5.7c0,0-5.4-0.1-5.6-0.2h-2.6c-0.2-0.2-0.4-0.5-0.7-0.7h-3.3c0-0.2,0-0.6-0.1-0.8
			c-0.1-0.1-0.8-0.3-0.9-0.4c-0.4-0.1-0.8,0.1-1-0.1c-0.2,0-0.2,0.1-0.4,0.1v0.2c-0.6,0-1.2-0.1-1.8-0.1V3.5h-0.2V3.3h-0.1
			c-0.1-0.1,0-0.3,0-0.4c0-0.1-0.1-0.1-0.1-0.2c-0.2,0-0.4,0-0.5,0.1c-0.1,0.1-0.2,0.5-0.2,0.7c-0.2,0-0.6,0-0.7-0.1h-0.4
			c0-0.1,0,0,0.1-0.1V3.3c-0.1,0-0.2-0.1-0.3-0.1c0,0,0,0.1-0.1,0.1c-0.1,0-0.2-0.1-0.4-0.1c0,0-2.3-0.2-2.4-0.2v0.1L21,3.3
			c-0.2,0-2.3-0.2-2.5-0.2c0-0.1-0.1-0.1-0.1-0.2c-0.1,0-0.4-0.1-0.4-0.1c-0.2,0-0.3,0-0.5,0.1V2.8h-0.1c0,0-0.1,0-0.1,0.1
			c-0.1,0-0.6-0.1-0.7-0.1c-0.1,0,0,0.1-0.2,0.1c0,0,0-0.1-0.1-0.1c-0.3,0-0.5,0-0.8,0.1v0.1c-0.1,0-1.1-0.1-1.2-0.1h-0.1v-6.9h-0.1
			c-0.2,0.5-0.1,1.5-0.1,2.1v4.7c-0.1,0-0.3,0-0.3,0.1c-0.2,0.2-0.2,0.6-0.3,0.8c-0.1,0.2,0,0-0.2,0.1c-0.1,0.1-0.1,0.2-0.2,0.3
			c0,0.2,0,0.2,0.2,0.2c-0.1,0.2-0.1,0.4-0.2,0.6c-0.2,0-0.2,0-0.3,0.1h-0.1c0.1,0.1,0,0,0.2,0c0,0.3,0,0.5-0.1,0.8
			c-0.1,0-0.1,0-0.2,0.1c0,0.1,0,0.1,0.1,0.2c0,0.1-0.4,0.8-0.4,1.1c-0.1,0-0.1,0-0.2-0.1c0,0.1-0.1,0.2-0.2,0.3
			c0,0.3,0,0.2,0.2,0.2c-0.1,0.3-0.3,1-0.5,1.3c-0.1,0.1,0,0-0.2,0.1V8.3c0.1,0,0.1,0,0.2,0.1c0-0.1-0.1-0.1-0.1-0.2H7.7
			c0-0.1,0-0.1-0.1-0.2H7.1C7,7.3,6.7,6.6,6.5,5.9V4.2c0.2,0,0.3,0,0.4-0.1V3.8c-0.1,0-0.1,0-0.2-0.1H6.7V3.7C7,3.6,7.8,3.8,8.2,3.5
			c0-0.1,0,0,0-0.1V3.2C8.4,3.2,9,3.5,9.3,3.4c0.2-0.1,0.3-0.3,0.4-0.3h0.6c0-0.5,0-0.9-0.1-1.3H10V2H9.9c0-0.3,0.2-0.4-0.1-0.5V1.1
			c0,0,0.1,0,0.1,0.1V0.8c-0.1,0-0.1,0-0.2,0c0,0,0,0.1-0.1,0.1H9.7V1h0.1v1.5H9.7C9.6,2.3,9.4,2.2,9.3,2.2C9.2,1.7,9.2,1.4,8.9,0.9
			C8.7,1,8.8,1,8.6,1.1C8.5,0.9,8.4,0.8,8.3,0.7c-0.1-0.1-0.1,0-0.2-0.1H8c0.1,0.1,0.1,0.2,0.2,0.2v0.1c-0.1,0-0.3,0-0.3-0.1H7.8
			c0-0.4,0.1-0.8,0.1-1.2c-0.4,0-0.9,0-1.3-0.1C6.4,0.2,6.6,1,6.1,1.3C5.8,1.5,4.7,0.8,4.4,0.9C3.9,1,3.5,0.6,3.1,0.6
			c-0.1,0-1-0.2-1.3-0.3C0.7-0.1-0.8-0.4-1.8-1c-0.1,0.1-0.1,0.1-0.2,0.2c0,0.1,0,0.2,0.1,0.3c1.1,0,1.7,0.6,2.6,0.7
			c0,0.1,0,0.1-0.1,0.1c0,0.1,0,0,0.1,0.1c0.2,0.2,0.7,0.1,0.9,0.3h0.2V0.6c-0.2,0-0.3-0.1-0.4-0.2H1.2V0.3c0.4,0.2,1.2,0.5,1.6,0.5
			c-0.1,0.1-0.3,0-0.4-0.1H2.3v0.1c0.1,0,0.2,0,0.3,0.1v0.2c0.4,0.2,0.8,0.3,1.3,0.3C4,1.8,4.1,1.6,4.3,1.7c0.1,0,0,0.1,0.1,0.2
			c0.1,0.6,0.1,1.2,0.2,1.9C4.7,4,4.8,4.2,4.8,4.6h0.1C5,4.5,5,4.4,5,4.2h0.4v1.7C5.2,6.6,4.8,7.3,4.8,8H4.2c0,0.2,0,0.2-0.2,0.2
			c0.1,0.2,0,0.1,0.2,0.1v0.6c-0.3,0-0.2-0.1-0.3-0.2H3.7c0,0-0.1,0.1-0.2,0.1c-0.1,0-0.2,0-0.3-0.1L3.1,8.8v0.1H2.6
			c0,0.3,0,0.4,0,0.6H2.5c0-0.1,0-0.2-0.1-0.2C2.4,9.2,2.2,9.1,2.1,9C1.6,9,1.6,9.1,1.3,9.2c-0.1,0.3-0.2,0.9-0.1,1.1
			c0,0.2,0.2,0.4,0.4,0.4c0.2,0.2,0.7,0,1-0.1V11C2,11.1,1.4,11.3,1,11.6c-0.1,0.1-0.1,0.2-0.2,0.2c0,0.1,0,0.1,0.1,0.2
			c0.1,0.2,1.2,0.8,1.4,1c0,0,0.1,0,0.1,0.1c0,0-0.1,0.3-0.1,0.3V14c0,0.1-0.2,0.2-0.3,0.3c0,0.4,0.1,0.2,0.2,0.4
			c0.1,0.2-0.1,0.5,0.1,0.7c0.1,0.1,0,0,0.2,0.1v-0.7h0.1c0.5,1,5.3,3.3,6,3.5h23.1c1.1,0,2.2,0.1,3-0.2c0.5-0.2,5.1-2.3,5.5-2.9
			c0.2-0.3,0.7-1.5,0.3-2c0-0.5,0.6-0.7,0.8-1.2c-0.4-0.2-0.8-0.6-1.3-0.8c-0.2-0.1-0.6-0.2-0.9-0.2h-0.9c-0.1,0-0.2-0.2-0.4-0.2
			v-0.5c-0.2,0-0.2,0-0.3,0.1c0,0.1,0,0.2-0.1,0.3c-0.5,0-0.6-0.1-0.9-0.2c0-0.1,0-0.1-0.1-0.2c-0.1,0-0.1,0-0.2-0.1h-0.1v-0.1h0.2
			V9.9c-0.2-0.1-0.3,0-0.5,0c0.1-0.2,0.2-0.4,0.4-0.4c0-0.1-0.2-0.4-0.2-0.4c-0.2-0.2-0.4-0.3-0.7-0.4h-0.2c0,0,0.1,0.2,0.1,0.2
			C35.1,8.9,35.1,9,35,9c0.1,0.2,0,0.3,0,0.5c-0.5-0.1-0.6-0.4-1-0.5V8.5h-0.6v0.4c-0.1,0-0.2-0.1-0.3-0.1c-0.1,0-0.7,0.1-0.7,0.1
			c0-0.1,0-0.1-0.1-0.2c-0.2-0.1-0.4,0.1-0.4,0.2l-0.1-0.1c-0.3,0-0.7,0-0.8,0.2h-0.2c0.3-0.4,0.1-0.4,0-0.8h5.6
			c0.1-0.1,0.3-0.4,0.5-0.5c0-0.1-0.1-0.2-0.2-0.2V7.3C37.4,7.3,43,7,43,7s12.6-0.1,13-0.1V5.8C55.2,5.9,43,5.7,43,5.7z M10,2.3
			L10,2.3L10,2.4H10V2.3z M8.4,2L8.1,2c0-0.1,0-0.2-0.1-0.2V1.7c0.1,0,0.2,0.1,0.3,0.1h0.1V2z M8.3,1.5h0.3C8.5,1.6,8.4,1.6,8.3,1.5
			z M9.5,2.5c-0.1,0-0.1-0.1-0.2-0.2C9.4,2.4,9.5,2.5,9.5,2.5z M9.2,2.1C9.1,2.2,9,2.2,8.9,2.1H9.2z M8.9,3.1h0.6v0.1
			c-0.1,0-0.1,0.1-0.2,0.1c-0.2,0-0.3,0-0.4-0.1V3.1z M8.8,2.2H8.7V2C8.7,2.1,8.7,2.1,8.8,2.2L8.8,2.2z M7.7,1
			C8,1.1,8.3,1.2,8.7,1.3c0,0.1,0,0.1-0.1,0.2c-0.3,0-0.7,0.1-0.8-0.1H7.7C7.7,1.2,7.7,1.1,7.7,1z M7.7,1.6h0.2v0.1h0.1v0.2
			C7.8,1.8,7.8,1.8,7.7,1.8V1.6z M7.9,3.1L7.9,3.1C8,3.2,8,3.2,8,3.3c-0.1,0-0.3,0-0.4,0.1H7.2C7.3,3,7.6,3,7.9,3.1z M6.7,2.6
			L6.7,2.6c-0.1,0.1,0,0.1-0.1,0.1c-0.1-0.1,0,0-0.1-0.2C6.6,2.6,6.6,2.6,6.7,2.6z M3.5,1.1c0.2,0,0.4,0,0.5,0.2
			C3.9,1.2,3.7,1.2,3.5,1.1z M2.4,10.5c0-0.1,0-0.1,0.1-0.2c0.1,0.1,0.1,0,0.1,0.2H2.4z M4.5,8.9H4.4V8.7h0.1V8.9z M4.5,8.4v0.1H4.4
			V8.3h0.2C4.5,8.4,4.6,8.4,4.5,8.4z M4.9,4c0-0.1,0-0.1-0.1-0.2C5,3.9,5,3.9,4.9,4L4.9,4z M6.1,3C5.7,3.2,5.4,3.4,5.1,3.7H4.9
			C4.8,3.1,4.7,2.5,4.6,1.9c0.5,0,0.7,0.3,1.2,0.4c0,0.1,0,0.3,0.1,0.3c-0.1,0.1,0,0-0.1,0.1v0.1c0.1,0,0.1,0,0.2-0.1
			C6,2.8,6,2.9,6.1,3L6.1,3L6.1,3z M6.1,2.4h0.1v0.1H6.1V2.4z M6.3,2.7L6.3,2.7L6.3,2.7c0,0,0-0.1,0-0.1C6.3,2.7,6.3,2.6,6.3,2.7z
			 M7.7,8.6H7.5C7.5,8.5,7.4,8.4,7.3,8.4V8.3h0.3V8.6z M8.3,8.4C8.2,8.4,8.2,8.4,8.1,8.6H7.9V8.3L8.3,8.4L8.3,8.4z M11.1,8.9
			c0-0.1,0-0.2,0.1-0.3c0.1,0.1,0.1,0.1,0.1,0.3H11.1z M11.2,8.6c-0.1-0.1-0.1-0.2-0.2-0.2c0.1-0.1,0,0,0.2-0.1V8.6z M35.6,8.9
			c0,0.1,0,0,0,0.1v0.1h-0.1C35.6,9,35.6,8.9,35.6,8.9z M35.8,9.4c0.1,0.1-0.1,0.3-0.2,0.3v0.1h-0.1C35.6,9.6,35.7,9.5,35.8,9.4z"/>
	</g>
</g>
<g>
	<g>
		<path class="st4" d="M55.4,4.1c-0.5,0-18.3-0.2-18.3-0.2L37,3.7c0,0-10-0.2-10.6-0.2c-0.2,0-0.6,0.1-0.8-0.1h-3.4
			c-0.7,0-1.1,0.1-1.4-0.3h-3.1c0-0.2,0-0.5-0.1-0.7c0-0.1,0.2,0,0.1-0.2c0-0.1-0.1,0-0.2-0.3h-1.8V1.8h-0.1c-0.1-0.1,0-0.3,0-0.4
			c0-0.1-0.1-0.1-0.1-0.2c-0.2,0-0.3,0-0.4,0.1c-0.3,0.1,0,0.3-0.2,0.5C15,1.9,14.9,1.7,14.9,2c-0.4-0.1-6.6,0-6.8-0.1
			c-0.1,0,0-0.1-0.1-0.1c0,0,0,0.1-0.1,0.1C7.3,1.9,4.3,2,3.5,2c0,0.4,0,0.7-0.1,1.1c-0.1,0-0.1,0-0.2-0.1H3.3c0,0.2-0.1,0.6,0,0.7
			c0,0.1,0,0,0.1,0.1c0,0.5-0.1,0.9-0.1,1.4c-0.1,0-0.1,0-0.2,0.1L3,5.4C2.9,5.9,3.4,6.3,3.1,6.7c0,0.2,0,0.5-0.1,0.6
			c-0.1,0,0,0-0.2,0.1c0,0.2,0,0.5-0.1,0.7c0,0.1,0.3,0.1,0.2,0.3c-0.1,0-0.1,0-0.2,0.1v0.2c-0.2,0-0.2,0-0.4-0.1
			c0,0.1,0,0.1-0.1,0.1C2.4,9,2.4,8.8,2.3,9c0.1,0.1,0,0.1,0,0.3h0.1v0.1c0.1-0.1,0.1-0.1,0.1-0.3h0.1c0,0.3,0,0.6-0.1,0.7
			c0,0.1,0,0-0.2-0.1v0.2c0.2,0,0.1,0.1,0.2-0.1h0.1c0,0.2,0,0.8-0.1,1c-0.1,0.1,0,0.1-0.2,0.1C2.2,11,2.1,11,2.3,11
			c-0.1,0.2-0.8,0.8-1,1c-0.1,0.1-0.1,0.1-0.2,0.2c0,0.1,0,0.3-0.1,0.4c0,0-0.1,0.2-0.2,0.3c-0.1,0.3,0.2,0.4,0.2,0.5V14
			c0,0.1,0.1,0.3,0.2,0.5c0.2,0.4,0.5,0.6,0.8,0.8c0.1,0.2,0.3,0.3,0.4,0.5h0.1C2.7,15.9,2.9,16,3,16.2h0.1c0.1,0.1,1.5,1.5,2.3,1.8
			c0.5,0.2,1.4,0.2,2,0.2h24.3c0.8,0,2.2-0.1,2.9-0.2c1-0.2,3.5-1.5,3.7-1.7c0,0,0.1,0.1,0.1,0.2c0.1,0.1,0,0,0.1,0.1
			c0,0,0-0.3,0.1-0.4c0,0,0.6-0.3,0.7-0.3c0.6-0.4,1.4-1.3,1.1-2.3c-0.1-0.4-0.1-0.8-0.4-1.1c0-0.2,0.1-0.2,0.2-0.3
			c-0.1-0.3-0.4-0.4-0.6-0.5c-0.8-0.5-2.1-0.5-3.5-0.5c0.1-0.1,1-0.1,1.3-0.1v-0.2c0.1,0,0.1,0.1,0.1,0.2h0.1c0-0.2,0-0.3-0.1-0.4
			v-0.6h-0.1c-0.1,0.1-0.1,0.2-0.1,0.4c-0.1-0.1-0.1,0-0.1-0.2c-0.4,0-1.2,0.1-1.3-0.2c-0.1,0-0.1,0.1-0.2,0
			c-0.1,0.1-0.1,0.1-0.1,0.2c-0.3,0-1.2,0.1-1.3-0.1h-0.1v0.4c-0.3,0-3.1-1-3.4-1.2c-0.2-0.1-0.1-0.1-0.2-0.3
			c-0.1,0.1-0.1,0.1-0.2,0.2c-0.1-0.1-0.1,0-0.1-0.2C30.4,9.1,30.2,9,30,9c0-0.1,0-0.1-0.1-0.2h-0.1c-0.1,0-0.1,0.1-0.2,0.1
			c0,0-0.2-0.1-0.2-0.1c0,0,0,0.1-0.1,0.1c-0.5-0.3-1.2-0.4-1.7-0.6c-0.1,0-0.3-0.2-0.4-0.2c0,0-0.3,0.1-0.3,0.2c-0.1,0,0,0-0.1-0.1
			V8.1h-0.3c-0.2,0-0.1,0.1-0.2,0.1c-0.3,0.1-0.8-0.1-0.9,0c-0.1-0.1,0,0,0-0.1h-0.1c-0.1-0.1-0.1,0.1-0.1,0.1
			c-0.1,0.1-0.4-0.1-0.5,0c-0.1,0-0.1-0.1-0.3-0.1V6.5h-0.1c0,0.3,0.1,1.4-0.1,1.6v0.1c-0.2-0.1-0.1-0.6-0.2-0.8
			C24,6.9,23.3,7,22.9,7c0-0.2,0-0.3-0.1-0.4c-0.1-0.1-0.3,0-0.4-0.1h-0.1V6.5c0.6,0,0.7-0.1,1-0.4c0.9,0,2.2,0.1,3-0.1
			c0.5-0.1,1.1,0,1.5-0.1c0.5-0.1,1.1,0,1.5-0.1h1.1c0.5,0,0.9,0,1.4-0.1c0.5,0,4.3-0.1,5.3-0.1c0,0,0-0.1,0.1-0.1
			c1.5,0,17.4-0.2,18.3-0.2c0.2,0.1,0.3,0.2,0.6,0.2V3.9C55.7,3.9,55.6,4.1,55.4,4.1z M2.6,11v-0.2h0.1v0.1h0.1
			C2.7,11,2.7,10.9,2.6,11z M19.1,8.1c-0.1,0-0.3,0-0.4,0.1V7.9c-0.3,0-0.4,0-0.7,0v0.2h-0.1V7.6H18L18,7.5c0.1-0.2-0.1-0.2-0.1-0.2
			c0-0.3,0-0.5-0.1-0.8h1.3C19.2,6.8,19.3,7.9,19.1,8.1z M20.2,8.1C20.2,8.1,20.2,8.1,20.2,8.1c0,0-0.2,0-0.1,0L20.2,8.1L20.2,8.1
			c-0.3,0-0.7,0-1,0V6.5h1c-0.1,0.2-0.5,0.1-0.7,0.1c0,0.1,0,0-0.1,0.1c0,0.3-0.1,1.2,0.1,1.3V8C19.8,8,20,8,20.2,8.1
			C20.2,8.1,20.2,8.1,20.2,8.1C20.2,8.1,20.2,8.1,20.2,8.1C20.2,8.1,20.3,8.1,20.2,8.1C20.3,8.1,20.2,8.1,20.2,8.1z M37.4,10.8v-0.2
			h0.1c0,0.1,0,0-0.1,0.1V11l-0.2-0.2C37.3,10.8,37.2,10.8,37.4,10.8z M35.8,11.1c-0.1,0.1-0.1,0.1-0.2,0H35.8z M22.9,8
			C22.9,7.9,22.9,8,22.9,8l0.1-0.4h0.3c0,0,0,0.1,0.1,0.1V7.6h0.3v0.5c-0.2,0-0.7-0.2-1,0c-0.1-0.1,0.1,0,0-0.1h-0.2
			C22.6,8,22.7,8,22.9,8z"/>
	</g>
</g>
</svg>
