<?xml version="1.0" encoding="utf-8"?>
<!-- Generator: Adobe Illustrator 25.3.1, SVG Export Plug-In . SVG Version: 6.00 Build 0)  -->
<svg version="1.1" id="Layer_1" xmlns="http://www.w3.org/2000/svg" xmlns:xlink="http://www.w3.org/1999/xlink" x="0px" y="0px"
	 width="36px" height="15px" viewBox="0 0 36 15" style="enable-background:new 0 0 36 15;" xml:space="preserve">
<style type="text/css">
	.st0{display:none;fill:#8C8C7C;}
	.st1{display:none;}
	.st2{display:inline;}
	.st3{fill-rule:evenodd;clip-rule:evenodd;fill:#8C8C7C;}
</style>
<path class="st0" d="M1.3,9L1.3,9L0,8.5l0.4-2.6h1.3l0.4,0.9l0.4-0.9l1.7-0.4V5.1h0.9v0.4l3.5-0.4V4.7l3.9-0.4v0.4H16V4.2h-3
	l0.4-1.3l1.7-0.4h0.4L16,1.6h-0.4V1.2H16V0.8h4.3v-0.9L18.1-1v-0.4h6.1V-1h-3.9l0.9,0.4v0.4h0.4L22,0.7l3.5,0.4L26.4,2h5.2v0.4h4.3
	l0,0h0.9v0.9h-1.3l0,0h-4.3l0,0h-4.8L26,3.7v0.4h-0.4l0,0h0.9l1.3,1.3h0.9v0.4l0.3,1h3.9l1.7,0.4l-0.4,0.4l0.9,1.3v1.3l-0.9,1.7
	l-5.7,2.7H7.4l-5.6-2.2l-1.3-1.3V9.8L1.3,9z"/>
<g class="st1">
	<g class="st2">
		<path class="st3" d="M33.1,4.9L33.1,4.9c-0.2-0.1-0.3-0.1-0.5-0.1V4.7c-0.1,0-0.1,0-0.2,0h-6.2c-0.1,0-0.1-0.2-0.1-0.3
			c0,0-0.1-0.1-0.1-0.1c-0.1-0.1,0-0.2,0-0.3L25.9,4c0-0.1,0-0.2,0-0.2c0-0.2-0.1-0.1-0.1-0.4h0v0h-0.2V3.2H25c0,0,0.1,0,0.2,0V2.9
			h-0.3V2.8c-0.2,0-0.2,0-0.3,0.2c-0.3,0-0.5,0-0.7-0.1c0-0.1,0-0.2,0-0.3h0.2c0-0.1,0-0.3,0-0.5C24.1,2,24,2,24,2
			c-0.1,0-0.1-0.2-0.3,0c-0.1,0-0.1,0-0.1-0.1c-0.1,0-0.1,0-0.2,0v0.1h0.1c0,0.3,0,0.6,0,0.9h-0.5c0-0.2-0.1-0.2-0.2-0.3
			c0-0.1,0.1-0.1,0.1-0.1v0h-0.1c0-0.1,0.1-0.1,0-0.2V2H23c0,0.1,0.1,0.3,0,0.3v0.1h0c0,0,0,0,0,0C23,2.3,23,2.1,23,2
			c0,0-0.1,0-0.2-0.1c0-0.7,0-3,0-4.6h-0.1c0,2.1,0,5.2-0.2,5.4v0.1c0,0-0.1-0.1-0.2,0l-0.1,0v0.1c-0.2,0-0.3,0.1-0.5,0.1
			c0,0,0,0,0,0v0.2c-0.3,0-3.6,0.2-3.8,0.2c0,0,0,0-0.1-0.1c0-0.1,0-0.2,0-0.3c-0.2,0-0.4,0.1-0.5,0.1c-0.1,0-0.1,0.2-0.2,0.2
			c-0.1,0-0.1-0.1-0.2-0.1c-0.1,0-0.1,0.1-0.2,0.1c-0.2-0.1-0.2,0-0.4,0.1v0.2c-0.4,0-0.6,0-0.9-0.1c0,0,0,0,0.1,0v0.1
			c-0.2,0-0.1,0-0.2-0.2c0-0.1-0.1,0-0.1-0.1c-0.1,0-0.2,0-0.3,0h0V2.4c-0.1,0.1,0,0.9,0,1.1c-0.4,0-0.7,0-1,0c0,0-0.1,0.1-0.2,0.1
			v0.3c-0.2,0-0.4,0-0.7,0c0,0.1-0.1,0.5-0.1,0.5c-0.1,0.1-0.3,0.1-0.3,0.2v0.5h0.1c0,0,0,0,0,0c0,0,0,0.1,0,0.1h-0.2
			c0-0.1,0-0.1,0.1-0.2c0-0.1-0.2-0.1-0.3-0.2c0-0.1,0,0,0-0.1V4.7c-0.4,0-0.7,0-1.1,0V4.6c0,0,0,0,0,0h-0.2v0.2
			c-0.4,0-1.4,0-1.7-0.2c-0.4,0-0.7,0-1.1,0C8,4.5,8,4.4,7.7,4.4V4.3H7.7c0,0,0.1-0.3,0.1-0.4H7.5c0,0.1,0.1,0.4,0.1,0.4H7.5v0.4
			c-0.3,0-1.3,0.1-1.4-0.1C6,4.7,6,4.7,6,4.7c0,0-0.1,0.1-0.1,0.2c0,0,0,0,0,0.1c0.1,0,0.1,0,0.2,0H7c-0.1,0.1,0,0.3,0,0.5
			c0.2,0,0.1,0.1,0.3,0.1V6C6.7,6,4.4,6,4.1,6C4.1,6,3.7,6,3.7,6v0.1c0,0-0.1,0-0.1,0h-1v0.1H2.2v-1C2.1,5.3,2,5.3,1.9,5.4
			c0,0-0.1,0.1-0.1,0.1c-0.3,0.1-0.7-0.1-1,0.1C0.7,5.6,0.7,5.9,0.5,6c0,0.3,0.2,0.4,0.3,0.5c0.1,0,1,0.2,1,0H2C2,6.6,2,6.8,2,6.9
			c-0.1,0-0.2,0-0.3,0.1C1.7,7,1.8,7.5,1.8,7.6c0,0.1,0,0.1,0,0.2c-0.2,0-0.2,0-0.3,0C1.4,7.5,1.4,7.3,1.3,7c-0.1,0-0.3,0-0.4,0.1
			c0,0,0.1,0.8,0.2,0.9v0.1c0,0-0.2,0-0.2,0c0,0.2,0.1,0.3,0.2,0.5C0.8,8.6,0.7,8.8,0.5,8.9v0c0,0,0.1,0.1,0.1,0.1v0.1
			c0.1,0,0.1,0.1,0.2,0.1v0.1c0,0,0.1,0,0.1,0C0.9,9.4,1,9.4,1.1,9.5h0c0,0,0,0,0,0C1,9.8,0.8,9.8,0.7,10v0.1
			c-0.1,0.3-0.3,0.6-0.3,1c0,0,0.1,0.3,0.1,0.3v0.2c0.1,0.2,0.2,0.5,0.3,0.7c0,0,0.1,0.1,0.1,0.1C1,12.4,1,12.6,1,12.6
			c0.3,0.4,1,0.6,1.5,0.7c0.2,0,4.9,1.3,4.9,1.3s14.6,0,16.6,0c1.5,0,3.4,0.1,4.4-0.1c0.2,0,0.6-0.1,0.8-0.2
			c0.3-0.1,0.3-0.2,0.6-0.3c0.5-0.2,1.1-0.5,1.6-0.8c0.4-0.2,0.8-0.3,1.2-0.5c0.1,0,0.4-0.3,0.5-0.3c0.1,0,0,0.1,0.1,0h0.1
			c0,0,0-0.2,0-0.2c0.1,0,0.1,0,0.2,0c0.2-0.1,0.2-0.3,0.5-0.3c0-0.1,0-0.1,0-0.2v0c0.1-0.1,0.2-0.2,0.3-0.2
			c0.1-0.1,0.1-0.2,0.2-0.2v-0.1c0.1,0,0.1-0.1,0.2-0.1c0,0-0.1-0.1-0.1-0.1c0.1-0.2,0.2-0.2,0.2-0.6c0.1,0,0.1,0.1,0.2,0.1
			c0.1,0,0.1,0,0.2-0.1c0-0.1-0.1-0.2-0.1-0.3c0.1,0,0.3-0.1,0.2-0.2C35.1,9.9,35,10,34.8,10c0-0.2-0.1-0.3-0.1-0.4
			c0-0.1,0.1-0.1,0.1-0.2c0-0.1-0.2-0.1-0.2-0.2c0,0,0.1-0.2,0-0.3c0-0.1-0.1,0-0.2,0c0,0-0.1-0.2-0.1-0.2L35,8c0,0-0.3-0.3-0.4-0.4
			V7.5c0,0-0.1,0-0.2,0c-0.1-0.1-0.2-0.2-0.3-0.3C33.9,7,33.7,7,33.4,6.9c-0.3-0.1-0.6-0.3-0.9-0.3c-0.1,0-4.7,0.3-4.8,0.2
			c0,0,0-0.2,0-0.3h0.1v0.2h0.1c0-0.2,0-0.3-0.1-0.3V6.2c-0.1,0-0.1,0-0.2,0V6c-0.1,0,0,0-0.1,0.1c-0.2,0-0.2-0.1-0.3-0.1
			c0,0,0,0,0,0v0h4.9c0.2,0,0.3,0,0.5,0V5.9l0.1,0H33l0.1-0.1c0.7,0,5.3,0,6.8,0V4.9H33.1z M8.2,5.1H7.6v0.2c-0.2,0-0.3-0.1-0.5-0.1
			c0-0.1,0-0.1,0.1-0.2C7.5,5,8,5,8.2,5.1L8.2,5.1z M8.7,5.2h0.2C8.8,5.3,8.7,5.3,8.7,5.2z M9,5.1H8.3V5H9V5.1z M9.3,5.2h1.1
			C10.3,5.2,9.4,5.2,9.3,5.2z M10.3,5.1c-0.2,0.1-0.7,0-1,0V5c0.5,0,1,0,1.4,0C10.7,5.1,10.4,5,10.3,5.1z M11,5.2h-0.1V5.1H11V5.2z
			 M11.3,5.2L11.3,5.2C11.4,5.1,11.4,5.1,11.3,5.2L11.3,5.2z M12,5.1h0.5C12.4,5.2,12.1,5.2,12,5.1z M14.8,3.8c-0.2,0-0.2,0-0.3-0.1
			h0.3C14.8,3.7,14.8,3.7,14.8,3.8z M22.4,3.2H22V3.1c0.1,0,0.2-0.1,0.3-0.1c0.2,0.1,0.3,0.1,0.3,0.2C22.6,3.2,22.5,3.1,22.4,3.2z
			 M22.8,3.2h0.3C23.1,3.2,22.9,3.2,22.8,3.2z M23.7,2.9c-0.1-0.1-0.1-0.4-0.1-0.5C23.7,2.5,23.7,2.6,23.7,2.9z M24.2,3.2h0.3
			C24.4,3.2,24.2,3.2,24.2,3.2z M26.2,6.8C26.3,6.8,26.2,6.8,26.2,6.8C26.2,6.8,26.3,6.8,26.2,6.8z M26.2,6.6c0,0,0-0.1,0-0.1
			C26.3,6.5,26.3,6.5,26.2,6.6L26.2,6.6z M26.4,6.7c-0.1-0.1-0.1-0.4,0-0.5h0.1c0,0,0,0,0,0C26.5,6.4,26.4,6.5,26.4,6.7z M26.6,6.2
			c-0.1-0.1-0.1-0.1-0.3-0.1c0,0,0-0.1,0-0.1h0.3c0,0-0.1,0-0.1,0C26.6,6.1,26.6,6.1,26.6,6.2z"/>
	</g>
</g>
<g>
	<g>
		<path class="st3" d="M34.9,9C34.8,8.7,34.4,8,34.4,8l0.3-0.5c0,0-0.5-0.3-0.8-0.5c-0.4-0.2-0.9-0.2-1.4-0.3
			c-0.2-0.1-1.1,0-1.3,0.1c-0.4,0-0.9,0-1.3,0c-0.2,0-0.5,0-0.7,0C28.9,7,28.3,7,28,6.9c-0.1,0-0.2,0.1-0.3,0c0,0,0-0.1,0-0.1
			c-0.1,0-0.1,0.1-0.3,0.1c-0.1,0-0.1-0.2-0.2-0.2c0,0-0.1,0.1-0.2,0.1c-0.1,0-0.5-0.1-0.5-0.2c-0.1-0.1,0-0.1-0.1-0.1
			c0,0-0.1,0.1-0.1,0.1c0-0.1,0-0.1-0.1-0.2c0,0.1,0,0-0.1,0.1c0-0.1,0-0.1,0-0.2c0,0,0.1,0,0.1,0c0-0.1-0.1-0.1-0.1-0.2
			c0-0.2,0-0.4,0-0.6c1.5,0,3,0,4.5,0c0,0,0,0,0,0c0,0,0,0,0,0c0,0,0-0.1,0-0.1c0.5,0,1,0.1,1.4,0.1c0.1-0.2,0.1-0.6,0.1-0.9
			c-0.1-0.1-1.4,0-1.5,0c0-0.1,0-0.1,0-0.2c-1.4,0-3,0-4.5,0c-0.1-0.2-0.1-0.4-0.2-0.6c0,0-0.1,0-0.1,0c-0.1-0.2,0.1-0.2,0.1-0.3
			c0,0-0.1,0-0.1,0c0,0,0-0.1,0-0.1c0,0-0.1,0-0.1,0c0,0,0-0.1,0-0.1c0,0-0.1,0-0.1,0c0-0.1,0.1-0.1,0.1-0.2c0,0-0.1,0-0.1,0
			c0-0.1,0.1-0.1,0-0.2c0,0-0.1,0-0.1,0c0,0,0-0.1,0-0.2c-0.1,0-0.1,0-0.2,0c0,0,0-0.1,0-0.1c-0.2,0-0.3,0-0.5,0c0-0.1,0-0.3,0-0.4
			c0,0-0.1,0-0.1,0c-0.1,0.1-0.2,0.1-0.2,0.4c-0.2,0-0.3,0-0.5,0c0,0,0-0.1,0-0.1c0,0-0.1,0-0.1,0c-0.1-0.2,0.1-0.7,0.1-0.8
			c0,0,0.1,0,0.1,0c0,0,0-0.1,0-0.1c0.1-0.1,0.1-0.3,0.1-0.5c-0.1,0-0.2,0-0.2,0c-0.1,0-0.1,0-0.1,0c-0.2,0-0.3,0-0.4,0.1
			c0,0,0-0.1,0-0.1c-0.1,0-0.2,0-0.3,0c0,0.5,0,1.1,0,1.6c-0.3,0-0.6,0-0.9,0.1c-0.1,0-0.3,0.1-0.4,0.1c-0.1-0.1,0-0.6,0-0.8
			c-0.1,0-0.2,0-0.2,0c0-0.1,0-0.1,0-0.1c0,0,0,0,0,0c0,0,0,0,0,0.1c-0.1,0-0.2,0-0.2,0c0,0.2,0.1,0.4,0.1,0.6c0,0-0.1,0-0.1,0
			c-0.1,0.1-0.1,0.3-0.3,0.3c-0.1-0.1-0.3,0-0.4,0c0,0,0,0,0,0C20.9,2.6,21,2.5,21,2.4c0.2-0.1,0.2,0.1,0.2-0.2c-0.1,0-0.1,0-0.2,0
			c-0.1,0.2-0.4,0.2-0.4,0.5c-0.1,0-0.1,0-0.2,0c-0.1-0.2-0.1-0.6-0.4-0.7c0-0.1,0-0.2,0-0.3c-0.1,0-0.2,0-0.3,0c0,0,0,0,0,0
			c0,0,0.1,0.2,0,0.3c0,0-0.1,0-0.1,0c-0.1,0.2-0.2,0.5-0.2,0.8c-0.6,0.1-1.3,0.1-1.9,0.2c0-0.2,0.1-0.2,0.1-0.5
			c-0.1,0-0.1-0.1-0.2-0.2c-0.3,0-0.6,0-0.9,0c0,0.1,0,0.1,0,0.2c0,0,0,0,0,0c0,0,0-0.1,0-0.1c-0.1,0-0.1,0.1-0.2,0.1
			c-0.2,0-0.3,0-0.5,0c-0.2,0-5.7,0.2-6.1,0.2c-0.8,0-1.7,0-2.5,0c0-0.1,0-0.1,0-0.2c-0.1,0-0.1,0-0.2,0c0,0.1,0,0.1,0,0.2
			c-0.3,0-0.5,0-0.8,0c0,0,0,0.1,0,0.1c0.3,0,0.5,0,0.8,0c0,0.5,0,1.1,0,1.6c-0.3,0-0.6,0-0.9,0c-0.1,0,0-0.1-0.2-0.1c0,0,0,0,0,0
			c0,0,0,0,0,0c0,0.1,0,0.1,0,0.2c0.1,0,0.1,0.1,0.2,0.1c0.1-0.2,0.8-0.1,1,0c0,0.2,0,0.3,0,0.5c-0.1,0-0.2,0-0.3,0
			c0,0.1,0,0.2,0,0.3c-0.3,0-0.7,0-0.9,0c-0.2,0-0.3,0-0.4-0.1c0.1,0,0,0,0.1-0.1c-0.1,0-0.2-0.1-0.3-0.1c-0.2,0-0.5,0.1-0.7,0.2
			c0,0,0,0,0,0c0.1,0,0,0,0.1,0.1c-0.3,0-0.5,0.1-0.6,0.3c0,0.1,0,0.3,0,0.4C4,6,3.9,5.9,3.8,5.8c-0.1,0-0.2,0-0.2,0
			c0,0,0-0.1,0-0.1c0,0-0.3,0-0.3,0C3.2,5.6,3.2,5.5,3.2,5.4c-0.1,0-0.2,0-0.3,0c0,0.1,0,0,0,0.1c0,0.1,0.1,0.3,0,0.3
			C2.8,5.9,2.5,6,2.4,6c0,0.1,0,0.1,0,0.2c-0.1,0-0.1,0-0.2,0.1c0.1,0.1,0.1,0.2,0.1,0.3c0.1,0,0.1,0.1,0.2,0.1c0,0,0,0.1,0,0.1
			c-0.2,0-0.3,0.1-0.5,0.2c0,0.1,0.1,0.1,0.1,0.2C2,7,1.3,7.4,1.3,7.4l0.2,0.4c0,0,0.4-0.2,0.7-0.2c0,0.1,0.1,0.2,0.1,0.3
			C2,7.9,1.6,8.1,1.6,8.1s0.1,0.3,0.2,0.5C1.3,8.6,0.9,8.9,0.6,9.1c0,0,0,0,0,0c0,0,0,0,0,0c0.1,0.2,0.2,0.3,0.5,0.3
			C1.4,9.1,2.1,9,2.8,9c0,0,0,0,0,0c0,0-0.1,0-0.1,0c-0.1,0.1-0.4,0-0.6,0.1C1.8,9.3,1.5,9.4,1.2,9.6c-0.2,0.1-0.4,0.5-0.5,0.6
			c-0.1,0.2-0.2,0.6-0.2,0.8c0,0.2,0,0.6,0.1,0.9c0,0.2,0.2,0.6,0.3,0.8c0.1,0.1,0.3,0.4,0.4,0.5c0.5,0.3,1.7,0.6,2.3,0.7
			c1,0.2,3,0.5,4.2,0.8c2,0,3.9,0,5.9,0c3.5,0,6.9,0,10.4,0c1,0,2.1,0,3.1,0c0.5,0,1.1,0.1,1.5,0c1-0.3,1.9-0.9,2.8-1.3
			c1-0.4,2.2-1,2.8-1.5c0.2-0.2,0.5-0.6,0.6-0.8c0.1-0.2,0.2-0.5,0.2-0.6C35.1,10,35.1,9.3,34.9,9z M1.9,8.5
			c0.2-0.1,0.4-0.1,0.6-0.2C2.4,8.4,2,8.6,1.9,8.5z M1.4,11.2c0.1-0.1,0.1-0.3,0.2-0.4c0,0.1,0.1,0.2,0.2,0.2c0,0.3-0.1,0.4-0.3,0.5
			C1.4,11.4,1.4,11.3,1.4,11.2z M2.2,12.6C2.1,12.6,2.1,12.6,2.2,12.6c-0.3-0.1-0.4-0.3-0.6-0.5c0,0,0-0.1,0-0.1c0,0,0.1,0,0.1,0
			c0.1,0,0.2,0,0.3,0c0.1,0.1,0.2,0.1,0.2,0.3C2.2,12.4,2.2,12.5,2.2,12.6C2.2,12.6,2.2,12.6,2.2,12.6z M2,10.3
			C1.9,10.3,2,10.3,2,10.3c0.1-0.1,0.3-0.3,0.5-0.3c0.1,0.1,0.1,0.1,0.1,0.2C2.4,10.4,2.2,10.5,2,10.3z M2.8,6.4
			C2.9,6.4,2.9,6.4,2.8,6.4c0,0.1,0,0.1,0,0.1C2.8,6.5,2.8,6.4,2.8,6.4z M2.8,12.8c0-0.1,0-0.2,0-0.2C2.9,12.5,3,12.4,3,12.3
			c0.2,0,0.3,0,0.5,0.1c0,0.1,0.1,0.1,0.1,0.2C3.3,12.7,3.2,12.8,2.8,12.8z M3.5,6.2c-0.1,0,0,0.1-0.2,0.1c0-0.1,0-0.1,0-0.2
			C3.5,6.1,3.6,6,3.8,6c0.1,0.1,0.1,0.1,0.1,0.3C3.7,6.3,3.6,6.2,3.5,6.2z M3.8,6.7C3.8,6.7,3.8,6.7,3.8,6.7
			C3.7,6.8,3.7,6.8,3.8,6.7C3.7,6.7,3.7,6.7,3.8,6.7C3.7,6.7,3.7,6.7,3.8,6.7z M3.9,7.6C3.9,7.6,3.9,7.6,3.9,7.6
			C3.8,7.5,3.8,7.4,3.8,7.3c0,0-0.1,0-0.1,0c0,0,0.1-0.3,0.1-0.4c0,0,0,0,0,0c0,0.1,0,0.2,0,0.3c0.1,0,0.1,0,0.2,0
			C4,7.4,4,7.5,3.9,7.6z M8,5c0,0,0.1,0,0.1,0C8.1,5.1,8.1,5.1,8,5z M9.2,5C9.2,5,9.2,5,9.2,5C9.2,5,9.2,5,9.2,5z M9.2,4.8
			C9.2,4.8,9.2,4.8,9.2,4.8c-0.2,0.1-0.5,0-0.6,0c-0.4,0-0.9,0-1.2,0.1c0-0.1,0-0.2,0-0.2C8,4.7,8.6,4.7,9.2,4.8
			C9.2,4.7,9.2,4.8,9.2,4.8z M10.3,5C10.3,4.9,10.3,5,10.3,5C10.3,5,10.4,5,10.3,5z M9.5,4.7c0.3,0,0.6,0,0.9,0
			C10.3,4.8,9.6,4.9,9.5,4.7z M11.3,4.9c-0.1,0-0.3,0-0.4,0c0-0.1,0-0.1-0.1-0.2c0.2,0,0.4,0,0.5,0C11.3,4.8,11.3,4.9,11.3,4.9z
			 M12.3,4.9c-0.2,0-0.4,0-0.6,0c0-0.1,0-0.1,0-0.2c0,0,0,0,0,0C11.7,4.9,12,4.8,12.3,4.9C12.3,4.9,12.3,4.9,12.3,4.9z M16.5,2.8
			C16.5,2.8,16.4,2.8,16.5,2.8c-0.2,0.3-0.4,0.2-0.6,0.2l-0.1,0.2c-0.1,0-0.2,0-0.2,0c0.1,0.2-0.3,0.1-0.5,0.1
			c-0.4,0-0.8,0.1-1.2,0.1c0,0.2,0,0.2-0.1,0.3c0.1,0,0.1,0,0.1,0.2c0,0-0.1,0-0.1,0c0,0.1,0,0.2,0,0.2c0,0-0.2,0.1-0.3,0.2
			c0,0,0,0,0,0.1c0,0.2,0,0.3,0,0.5c0,0,0.1,0,0.1,0c0,0.1,0,0.1,0,0.2c0,0,0,0,0,0c-0.1-0.2-0.5,0-0.6-0.2c0,0,0.1-0.1,0.1-0.2
			c-0.2,0-0.4,0-0.4-0.3c-0.4,0-0.7,0-1.1,0c0-0.1,0-0.1,0-0.2c-0.1,0-0.2,0-0.3,0c0,0,0,0.1,0,0.1c-1.1,0-2-0.1-3.1-0.1
			c0,0,0-0.1,0-0.1c-0.1,0-0.2,0-0.3,0c0,0.1,0,0.2,0,0.3c-0.2,0-0.3,0-0.5,0c0-0.5,0-1.1,0-1.6c1.1,0,7.8,0,8.1-0.1
			C15.7,2.7,16.2,2.7,16.5,2.8C16.5,2.7,16.5,2.7,16.5,2.8z M21.7,2.7C21.6,2.7,21.6,2.7,21.7,2.7C21.6,2.7,21.6,2.6,21.7,2.7
			C21.6,2.6,21.6,2.6,21.7,2.7C21.7,2.6,21.7,2.7,21.7,2.7z M23.8,2.3c-0.1,0-0.1,0-0.2,0c0-0.3,0-0.6,0-0.9c0,0,0.1,0,0.1,0
			c0,0,0,0,0,0C23.8,1.6,23.8,2,23.8,2.3z"/>
	</g>
</g>
</svg>
