<?xml version="1.0" encoding="utf-8"?>
<!-- Generator: Adobe Illustrator 25.3.1, SVG Export Plug-In . SVG Version: 6.00 Build 0)  -->
<svg version="1.1" id="Layer_1" xmlns="http://www.w3.org/2000/svg" xmlns:xlink="http://www.w3.org/1999/xlink" x="0px" y="0px"
	 width="59px" height="23.3px" viewBox="0 0 59 23.3" style="enable-background:new 0 0 59 23.3;" xml:space="preserve">
<style type="text/css">
	.st0{display:none;fill-rule:evenodd;clip-rule:evenodd;fill:#FAB81B;}
	.st1{fill-rule:evenodd;clip-rule:evenodd;fill:#FAB81B;}
</style>
<path class="st0" d="M3.3,12.6l0.9-0.1l-1.3-1h1.6l2.1,1h8.3v-1h-4.1l0.5-1.1L10.5,10l0.2-0.6L9.8,9.6L9.3,9.2V7.4L8.9,6.6l0.5-0.5
	l1.5,0.4l2-0.2v-1h-2.1l0.3-0.8l-0.3-1l2.8-0.1v3l0.8-0.6l0.1-3.3l0.1,4h0.6L15.7,7l0.4,0.3l1-0.3H18V5.5h4.9c0.1,0.1,0,1.9,0,1.9
	l2.2-0.1v0.5l1.1,0.4L27,7.5l0.3,0.7l0.6,0.3v-1c0,0,1-0.2,1,0s0,1.2,0,1.2l1.3,0.5l-0.4-0.6c0,0,0.4-0.8,0.5-0.7
	c0.2,0.1,2,0.9,2,0.9l2.6,0.1h3v0.3l10,0.2v0.9l-10,0.3V11h-2.8l-2.9,0.5l-2.3,0.2l-0.5,0.7l4.7-0.3l0.2,0.1h0.6h0.5l0.1,0.2
	l1.4,1.1v-0.9h1v1.2c0,0,1.8,1.1,2,1.1s1-0.5,1-0.5l2,0.3V16l-1.3,1.2l1,1.2l-0.5,0.5l-0.8-0.5l-0.4,0.1l1.1,0.8l-0.4,0.6L40.5,19
	l-0.4,0.3l1.1,0.8l-0.4,0.4l-2,0.2l-3.8,2l-2.1,0.8H13.3l-1.8-0.7l-5.1-1.6c0,0-0.7-2-0.8-2.1c-0.1,0-1.6-1.3-1.6-1.3l0.6-0.3
	l-0.6-1l-0.9,0.1L3,14.5h1.2l0.8,1l0.5-0.4L5,14.3l-1.1-0.2l-1-0.5L3.3,12.6z"/>
<g>
	<g>
		<path class="st1" d="M45.4,10.1c0,0-5.4-0.1-5.6-0.2h-2.6c-0.2-0.2-0.4-0.5-0.7-0.7h-3.3c0-0.2,0-0.6-0.1-0.8
			c-0.1-0.1-0.8-0.3-0.9-0.4c-0.4-0.1-0.8,0.1-1-0.1C31,7.9,31,8,30.8,8v0.2c-0.6,0-1.2-0.1-1.8-0.1V8h-0.2V7.8h-0.1
			c-0.1-0.1,0-0.3,0-0.4c0-0.1-0.1-0.1-0.1-0.2c-0.2,0-0.4,0-0.5,0.1C28,7.4,27.9,7.9,27.9,8c-0.2,0-0.6,0-0.7-0.1h-0.4
			c0-0.1,0,0,0.1-0.1V7.7c-0.1,0-0.2-0.1-0.3-0.1c0,0,0,0.1-0.1,0.1c-0.1,0-0.2-0.1-0.4-0.1c0,0-2.3-0.2-2.4-0.2v0.1l-0.1,0.1
			c-0.2,0-2.3-0.2-2.5-0.2c0-0.1-0.1-0.1-0.1-0.2c-0.1,0-0.4-0.1-0.4-0.1c-0.2,0-0.3,0-0.5,0.1V7.2h-0.1c0,0-0.1,0-0.1,0.1
			c-0.1,0-0.6-0.1-0.7-0.1c-0.1,0,0,0.1-0.2,0.1c0,0,0-0.1-0.1-0.1c-0.3,0-0.5,0-0.8,0.1v0.1c-0.1,0-1.1-0.1-1.2-0.1h-0.1V0.3h-0.1
			c-0.2,0.5-0.1,1.5-0.1,2.1v4.7c-0.1,0-0.3,0-0.3,0.1c-0.2,0.2-0.2,0.6-0.3,0.8c-0.1,0.2,0,0-0.2,0.1c-0.1,0.1-0.1,0.2-0.2,0.3
			c0,0.2,0,0.2,0.2,0.2c-0.1,0.2-0.1,0.4-0.2,0.6c-0.2,0-0.2,0-0.3,0.1h-0.1c0.1,0.1,0,0,0.2,0c0,0.3,0,0.5-0.1,0.8
			c-0.1,0-0.1,0-0.2,0.1c0,0.1,0,0.1,0.1,0.2c0,0.1-0.4,0.8-0.4,1.1c-0.1,0-0.1,0-0.2-0.1c0,0.1-0.1,0.2-0.2,0.3
			c0,0.3,0,0.2,0.2,0.2c-0.1,0.3-0.3,1-0.5,1.3c-0.1,0.1,0,0-0.2,0.1v-0.6c0.1,0,0.1,0,0.2,0.1c0-0.1-0.1-0.1-0.1-0.2h-3.8
			c0-0.1,0-0.1-0.1-0.2H9.6c-0.2-0.7-0.4-1.4-0.6-2.1V8.7c0.2,0,0.3,0,0.4-0.1V8.3c-0.1,0-0.1,0-0.2-0.1H9.2V8.1
			c0.3-0.1,1.1,0.1,1.5-0.2c0-0.1,0,0,0-0.1V7.6c0.2,0.1,0.8,0.3,1.1,0.2C12,7.8,12,7.6,12.1,7.5h0.6c0-0.5,0-0.9-0.1-1.3h-0.2v0.2
			h-0.1c0-0.3,0.2-0.4-0.1-0.5V5.5c0,0,0.1,0,0.1,0.1V5.3c-0.1,0-0.1,0-0.2,0c0,0,0,0.1-0.1,0.1h-0.1v0.1h0.1v1.5h-0.1
			c-0.1-0.2-0.2-0.3-0.4-0.3c-0.1-0.5-0.1-0.8-0.3-1.2c-0.2,0-0.2,0.1-0.3,0.1c-0.1-0.1-0.2-0.3-0.3-0.4c-0.1-0.1-0.1,0-0.2-0.1
			h-0.1c0.1,0.1,0.1,0.2,0.2,0.2v0.1c-0.1,0-0.3,0-0.3-0.1h-0.1c0-0.4,0.1-0.8,0.1-1.2c-0.4,0-0.9,0-1.3-0.1c-0.2,0.6,0,1.4-0.5,1.8
			C8.3,6,7.2,5.3,6.9,5.3C6.4,5.4,6,5.1,5.6,5c-0.1,0-1-0.2-1.3-0.3C3.2,4.3,1.7,4,0.7,3.5C0.7,3.6,0.6,3.6,0.5,3.6
			c0,0.1,0,0.2,0.1,0.3c1.1,0,1.7,0.6,2.6,0.7c0,0.1,0,0.1-0.1,0.1c0,0.1,0,0,0.1,0.1C3.4,5,3.8,4.9,4.1,5.1h0.2V5
			C4.1,5,3.9,4.9,3.8,4.8H3.7V4.8C4.1,4.9,5,5.3,5.4,5.3C5.3,5.4,5.1,5.3,5,5.2H4.8v0.1c0.1,0,0.2,0,0.3,0.1v0.2
			C5.5,5.7,6,5.9,6.4,5.9C6.5,6.2,6.6,6,6.8,6.2c0.1,0,0,0.1,0.1,0.2C7,7,7.1,7.6,7.1,8.2C7.2,8.5,7.3,8.6,7.3,9h0.1
			c0-0.1,0.1-0.2,0.1-0.3h0.4v1.7c-0.2,0.6-0.5,1.4-0.6,2.1H6.6c0,0.2,0,0.2-0.2,0.2c0.1,0.2,0,0.1,0.2,0.1v0.6
			c-0.3,0-0.2-0.1-0.3-0.2H6.2c0,0-0.1,0.1-0.2,0.1c-0.1,0-0.2,0-0.3-0.1l-0.1,0.1v0.1H5.1c0,0.3,0,0.4,0,0.6H5c0-0.1,0-0.2-0.1-0.2
			c-0.1-0.1-0.3-0.2-0.3-0.3c-0.5,0-0.6,0.1-0.8,0.3c-0.1,0.3-0.2,0.9-0.1,1.1c0,0.2,0.2,0.4,0.4,0.4c0.2,0.2,0.7,0,1-0.1v0.3
			c-0.6,0.1-1.2,0.3-1.6,0.5c-0.1,0.1-0.1,0.2-0.2,0.2c0,0.1,0,0.1,0.1,0.2c0.1,0.2,1.2,0.8,1.4,1c0,0,0.1,0,0.1,0.1
			c0,0-0.1,0.3-0.1,0.3v0.7c0,0.1-0.2,0.2-0.3,0.3c0,0.4,0.1,0.2,0.2,0.4c0.1,0.2-0.1,0.5,0.1,0.7c0.1,0.1,0,0,0.2,0.1v-0.7h0.1
			c0.5,1,5.3,3.3,6,3.5H34c1.1,0,2.2,0.1,3-0.2c0.5-0.2,5.1-2.3,5.5-2.9c0.2-0.3,0.7-1.5,0.3-2c0-0.5,0.6-0.7,0.8-1.2
			c-0.4-0.2-0.8-0.6-1.3-0.8c-0.2-0.1-0.6-0.2-0.9-0.2h-0.9c-0.1,0-0.2-0.2-0.4-0.2v-0.5c-0.2,0-0.2,0-0.3,0.1c0,0.1,0,0.2-0.1,0.3
			c-0.5,0-0.6-0.1-0.9-0.2c0-0.1,0-0.1-0.1-0.2c-0.1,0-0.1,0-0.2-0.1h-0.1v-0.1h0.2v-0.2c-0.2-0.1-0.3,0-0.5,0
			c0.1-0.2,0.2-0.4,0.4-0.4c0-0.1-0.2-0.4-0.2-0.4c-0.2-0.2-0.4-0.3-0.7-0.4h-0.2c0,0,0.1,0.2,0.1,0.2c-0.1,0.1-0.1,0.1-0.2,0.2
			c0.1,0.2,0,0.3,0,0.5c-0.5-0.1-0.6-0.4-1-0.5V13h-0.6v0.4c-0.1,0-0.2-0.1-0.3-0.1c-0.1,0-0.7,0.1-0.7,0.1c0-0.1,0-0.1-0.1-0.2
			c-0.2-0.1-0.4,0.1-0.4,0.2l-0.1-0.1c-0.3,0-0.7,0-0.8,0.2h-0.2c0.3-0.4,0.1-0.4,0-0.8h5.6c0.1-0.1,0.3-0.4,0.5-0.5
			c0-0.1-0.1-0.2-0.2-0.2v-0.1c0.7,0,6.3-0.3,6.3-0.3s12.6-0.1,13-0.1v-1.1C57.7,10.3,45.4,10.1,45.4,10.1z M12.5,6.7L12.5,6.7
			l0.1,0.1h-0.1V6.7z M10.9,6.5l-0.3-0.1c0-0.1,0-0.2-0.1-0.2V6.2c0.1,0,0.2,0.1,0.3,0.1h0.1V6.5z M10.8,6h0.3
			C11,6.1,10.9,6.1,10.8,6z M12,7c-0.1,0-0.1-0.1-0.2-0.2C11.9,6.8,12,7,12,7z M11.6,6.6c-0.1,0.1-0.1,0.1-0.2,0H11.6z M11.4,7.5H12
			v0.1c-0.1,0-0.1,0.1-0.2,0.1c-0.2,0-0.3,0-0.4-0.1V7.5z M11.3,6.6h-0.1V6.5C11.2,6.5,11.2,6.5,11.3,6.6L11.3,6.6z M10.2,5.5
			c0.3,0.1,0.6,0.2,0.9,0.3c0,0.1,0,0.1-0.1,0.2c-0.3,0-0.7,0.1-0.8-0.1h-0.1C10.2,5.7,10.2,5.6,10.2,5.5z M10.2,6.1h0.2v0.1h0.1
			v0.2c-0.1-0.1-0.1-0.1-0.2-0.1V6.1z M10.4,7.5L10.4,7.5c0.1,0.1,0,0.1,0.1,0.2c-0.1,0-0.3,0-0.4,0.1H9.7C9.8,7.5,10,7.5,10.4,7.5z
			 M9.2,7L9.2,7c-0.1,0.1,0,0.1-0.1,0.1C9,7.1,9,7.1,9,7C9.1,7,9.1,7,9.2,7z M6,5.6c0.2,0,0.4,0,0.5,0.2C6.4,5.7,6.2,5.6,6,5.6z
			 M4.9,14.9c0-0.1,0-0.1,0.1-0.2c0.1,0.1,0.1,0,0.1,0.2H4.9z M7,13.4H6.9v-0.2H7V13.4z M7,12.9V13H6.9v-0.2h0.2
			C7,12.8,7,12.8,7,12.9z M7.4,8.5c0-0.1,0-0.1-0.1-0.2C7.5,8.3,7.4,8.3,7.4,8.5L7.4,8.5z M8.6,7.4C8.1,7.6,7.9,7.9,7.6,8.2H7.4
			C7.3,7.6,7.2,7,7.1,6.3c0.5,0,0.7,0.3,1.2,0.4c0,0.1,0,0.3,0.1,0.3c-0.1,0.1,0,0-0.1,0.1v0.1c0.1,0,0.1,0,0.2-0.1
			C8.5,7.3,8.5,7.3,8.6,7.4L8.6,7.4L8.6,7.4z M8.6,6.9h0.1V7H8.6V6.9z M8.8,7.2L8.8,7.2L8.8,7.2c0,0,0-0.1,0-0.1
			C8.8,7.1,8.8,7.1,8.8,7.2z M10.2,13H10c-0.1-0.1-0.1-0.2-0.2-0.2v-0.1h0.3V13z M10.8,12.8c-0.1,0.1-0.1,0.1-0.2,0.2h-0.2v-0.3
			L10.8,12.8L10.8,12.8z M13.6,13.4c0-0.1,0-0.2,0.1-0.3c0.1,0.1,0.1,0.1,0.1,0.3H13.6z M13.7,13c-0.1-0.1-0.1-0.2-0.2-0.2
			c0.1-0.1,0,0,0.2-0.1V13z M38.1,13.3c0,0.1,0,0,0,0.1v0.1H38C38,13.5,38.1,13.4,38.1,13.3z M38.3,13.8c0.1,0.1-0.1,0.3-0.2,0.3
			v0.1H38C38.1,14.1,38.2,13.9,38.3,13.8z"/>
	</g>
</g>
</svg>
