<svg xmlns="http://www.w3.org/2000/svg" width="61" height="20" viewBox="0 0 61 20">
  <path fill="#8C8C7C" fill-rule="evenodd" d="M58,7.9455302 L29.4018555,7.91040039 L29.1523438,8.90454102 L26.9550781,9.34301758 L28.3347168,10.8017578 L30.8977051,10.953125 L32.5,12.9230957 L36.3894043,13.6057129 L36.0223389,15.9841309 L34.5650861,17.161476 C33.2627105,18.2136927 30.8824461,19.0478124 29.2262015,19.0426444 L6.44679146,18.9715651 C5.34191319,18.9681175 3.78961305,18.3628303 2.97594818,17.6196067 L0.492675781,15.3513184 L0,12.3381348 L0.492675781,9.95715332 L6.33374023,9.83203125 L7.48779297,10.8562012 L13.645752,10.8220215 L16.4128418,9.94677734 L16.0593262,9.9074707 L14.3818359,9.9074707 L14.130249,9.49951172 L11.8760986,9.74389648 L6.35375977,8.95605469 L6.29174805,5.88305664 L7.36425781,3.97460937 L10.3464355,3.74609375 L10.3793945,4.9453125 L13.8756104,3.87597656 L13.8756104,0 L14.130249,0 L14.130249,3.87597656 L17.0810547,3.80151367 L17.411377,4.9140625 L19.3916016,4.91821289 L19.4904785,3.99633789 L20.8601074,3.87597656 L22.4230957,4.9453125 L22.4230957,5.85595703 L28.2121582,5.89941406 L28.9941406,6.88647461 L58,6.93137916 L58,6 L58.4768066,6 L58.4768066,6.93211732 L60.376709,6.93505859 L60.4064941,7.94848633 L58.4768066,7.94611591 L58.4768066,9 L58,9 L58,7.9455302 Z"/>
</svg>
