<?xml version="1.0" encoding="utf-8"?>
<!-- Generator: Adobe Illustrator 22.0.0, SVG Export Plug-In . SVG Version: 6.00 Build 0)  -->
<svg version="1.1" id="Layer_1" xmlns="http://www.w3.org/2000/svg" xmlns:xlink="http://www.w3.org/1999/xlink" x="0px" y="0px"
	 width="27.9px" height="15px" viewBox="0 0 27.9 15" style="enable-background:new 0 0 27.9 15;" xml:space="preserve">
<style type="text/css">
	.st0{fill:#8C8C7C;}
</style>
<path class="st0" d="M1.2,10L0.8,8.7l1.7-0.8l0.8,0.8V7.1h2.5V6.7H5V6.2h5.8v0.8h0.4V5H10l1.7-2.9l0.4-0.4l0,0h2.1v0.4H15V0.8h-2.1
	V0l5,0.4v0.4h-2.5v1.2h0.4V1.7h1.2v0.4h1.7l0.8,0.4L20,2.9h6.2v0.4L20,4.2v0.4h-0.4L20,5h1.2l0.8,0.8l0,0h1.7v0.4h-0.8v0.4h-0.8v1.2
	l3.8-0.4l1.2,0.4v0.8l0.4,0.4l0.4,1.2l-0.8,1.7L22.9,15H6.7l-5.4-2.1L0,12.1v-1.3L1.2,10z"/>
</svg>
