<svg xmlns="http://www.w3.org/2000/svg" width="40" height="16" viewBox="0 0 40 16">
  <path fill="#8C8C7C" fill-rule="evenodd" d="M0.833983146,13.2500941 C1.30550232,14.2496425 2.573579,15.0643938 3.68000953,15.069961 L18.7061013,15.1455675 C20.3609747,15.1538943 22.6829061,14.2499576 23.8969557,13.1222254 L26.1699219,11.0108643 L26.1931152,8.99621582 L23.0074463,7.04272461 L39.1497803,7.08093262 L39.0767822,5.94396973 L20.1151123,5.93823242 L18.1014404,4.05932617 L15.1376953,4.04162598 L14.8913574,3.03527832 L13.7667236,3.03527832 L13.7667236,2.09448242 L17.0991211,2.09448242 L17.0991211,1.49401855 L12.1463623,1.49401855 L12.1463623,2.03356934 L13.1011963,2.03356934 L13.1011963,4.04162598 L12.1635742,4.0032959 L11.2236328,3.28222656 L10.0275879,3.03527832 L8.36535645,4.0032959 L8.09960937,5.01635742 L3.21704102,5.03662109 L1.44592285,4.62084961 L1.36096191,0.615844727 L1.07531738,0 L1.1217041,5.01635742 L0.0817871094,6.9519043 L1.125,7.4407959 L0.119262695,8.28759766 L0,11.4821777 L0.833983146,13.2500941 Z"/>
</svg>
