<?xml version="1.0" encoding="UTF-8"?>
<!-- Generator: Adobe Illustrator 24.0.0, SVG Export Plug-In . SVG Version: 6.00 Build 0)  -->
<svg version="1.1" id="Слой_1" xmlns="http://www.w3.org/2000/svg" xmlns:xlink="http://www.w3.org/1999/xlink" x="0px" y="0px" width="54px" height="18.2px" viewBox="0 0 54 18.2" style="enable-background:new 0 0 54 18.2;" xml:space="preserve">
<style type="text/css">
	.st0{fill-rule:evenodd;clip-rule:evenodd;fill:#8C8C7C;}
</style>
<path class="st0" d="M18.3,6.1V3.8l-0.2-0.2l3.6-0.8h0.8V2.7h2.2l0.4-0.2V1.9l0.3-0.5l2.2,0l0.6-0.4l0.8-0.1l-0.1,0.3l0,0.2l0.5,0.1  l0.2,0.4l0,0.6h0.1V2.1h0.3V1.7h0.7v0.8l1.1,0.3l0-0.3l1.5,0.3l-0.1,0.3l0.7,0.2l0.4,0.1l0.3,0.3l0.3,0.3h1.5L39,4.5h14.5v0.9H38.9  l-2.3,0.4h-1.6l-0.4,0.5l-0.3,0.3h-0.8v0.2h2.3l2.7,1.3h0.9V7.7L40,7.9l0.4,0.4H42v1.2l1,0.3l0.9,0.4l-0.7,0.8c0,0,0.5,0.6,0.6,0.8  c0.1,0.2,0.2,0.8,0.2,1c0,0.3-0.2,0.8-0.3,1c-0.1,0.2-0.3,0.6-0.4,0.7c-0.1,0.1-0.4,0.3-0.6,0.4c-1.3,0.7-4.1,2-5.6,2.5  c-0.3,0.1-1.4,0.4-1.4,0.4H10c0,0-5.4-0.9-7.1-1.8c-0.2-0.1-0.8-0.6-1-0.7c-0.1-0.1-0.4-0.4-0.5-0.6c-0.1-0.1-0.1-0.6-0.1-0.6H1.2  v0.3l-0.4,0.1c0,0-0.2-0.1-0.2-0.2c0-0.1,0-0.4,0-0.4l0.2-0.5v-0.8l0.1-0.5l-0.2-0.5L1,11.2l0-0.5L0.6,11l-0.2-0.2l0.9-1.3l0.3-0.3  L2.8,9c0,0-0.2-0.2-0.3-0.2C2.4,8.7,2.3,8.4,2.3,8.4H2.1V8.2h0.2c0,0,0.1-0.3,0.2-0.4c0.1-0.1,0.3-0.2,0.4-0.2c0.2,0,0.4,0,0.5,0.1  c0.1,0.1,0.3,0.4,0.3,0.4H4V7.5h1l0.3-0.3h3.1v0.3h13.9V6.8H23V6.6h-2V6.1H18.3z"/>
</svg>