<svg xmlns="http://www.w3.org/2000/svg" width="37" height="16" viewBox="0 0 37 16">
  <path fill="#8C8C7C" fill-rule="evenodd" d="M2.57634138,14.8120905 C3.48159834,15.4441541 5.10750675,15.956543 6.20605793,15.956543 L22.9853483,15.956543 C24.0847285,15.956543 25.7377918,15.4828497 26.6741793,14.9006269 L28.2938383,13.8935626 C29.2317432,13.3103962 30.4827914,12.0947923 30.9970703,11.3162842 L30.9970703,11.3162842 L29.0130615,9.86303711 L16.9146729,9.04248047 L12.9591064,8.02038574 L12.9664307,6.96569824 L36.9888916,6.94311523 L37.015625,5.90527344 L12.9508057,5.92993164 L8.97509766,3.97619629 L8.07263184,3.97619629 L7.02185059,3.01049805 L6.96569824,3.92626953 L3.21960449,4.31274414 L3.02746582,5.88720703 L1.37316895,5.99328613 L1.37316895,0 L1.00671387,0 L1.00671387,7.97827148 L0,8.54248047 L0.0294434757,12.0416001 C0.0340817404,12.5928205 0.40857702,13.2985256 0.863203555,13.6159525 L2.57634138,14.8120905 Z"/>
</svg>
