<svg xmlns="http://www.w3.org/2000/svg" width="40" height="16" viewBox="0 0 40 16">
  <path fill="#8C8C7C" fill-rule="evenodd" d="M14.0239679,6 L14.0239679,6.93197235 L11.9899211,6.93197235 L11.0915808,5.99494145 L7.08982794,5.98009691 L7.08982794,3.99555282 L5.98370085,4.22832001 L5.98370085,5.98922265 L3.50474428,6.00976984 L3.50474428,0 L3.23919831,0.00650969398 L3.23919831,6.47537116 L2.92605735,7.02846183 L1.28859485,7.3530948 L0.469498427,7.99213989 L0,11.018235 L5.42646721,15.3697258 C5.86107732,15.7182402 6.66369526,16.000421 7.21222973,15.9999995 L27.8182113,15.9841673 C28.9180696,15.9833222 30.5199436,15.4232406 31.383967,14.7427434 L34.9178043,11.9595246 L34.9479924,11.0356348 L32.9639751,9.94078941 L28.0377108,9.96901836 L27.0118014,8.98806223 L39.9970786,8.99049576 L40,7.94006234 L18.9180964,7.99213989 L17.997602,6.97127387 L15.0739792,6.93197235 L15.0739792,6.00978598 L19.0089043,5.98922265 L19.0089043,5.70151851 L15,5.70151851 L15,5 L13,5 L13,6 L13.0080535,6 L13.0074314,6.00978598 L13.677564,6 L14.0239679,6 Z"/>
</svg>
