<?xml version="1.0" encoding="UTF-8"?>
<!-- Generator: Adobe Illustrator 25.0.0, SVG Export Plug-In . SVG Version: 6.00 Build 0)  -->
<svg version="1.1" id="Layer_1" xmlns="http://www.w3.org/2000/svg" xmlns:xlink="http://www.w3.org/1999/xlink" x="0px" y="0px" width="60.8px" height="21.9px" viewBox="0 0 60.8 21.9" style="enable-background:new 0 0 60.8 21.9;" xml:space="preserve">
<style type="text/css">
	.st0{display:none;fill-rule:evenodd;clip-rule:evenodd;fill:#8C8C7C;}
	.st1{fill-rule:evenodd;clip-rule:evenodd;fill:#8C8C7C;}
</style>
<path class="st0" d="M7.6,21.1c0.3,0.1,0.6,0.2,1,0.2h27.3c0,0,0.5-0.1,0.7-0.1c1.3-0.5,3.8-2.1,4.9-3c0.2-0.1,0.5-0.4,0.6-0.6  c0.1-0.2,0.2-0.5,0.2-0.7c0-0.2-0.1-0.5-0.1-0.7c0-0.1-0.2-0.4-0.3-0.5c-0.1-0.1-0.3-0.3-0.3-0.3l0.5-0.7c0,0-0.5-0.2-0.6-0.3  c-0.2-0.1-0.5-0.1-0.7-0.2c-0.1,0-0.5,0-0.5,0l-0.3-0.3V13h-2.1v0.4l-1.2-0.7h-4.5v-0.3h0.3l0.2-0.2h2.1v-0.3l0.7-0.1v-0.2l5.6-0.2  h16.5l0.8,0.2h1.8l0.2-0.2v-1l-0.2-0.2h-1.8l-0.9,0.2H41.3l-5.9-0.2l-2-0.3L33,9.4l-0.8-0.1v0.3c0,0-1.8-0.4-2.4-0.5  c-0.5-0.1-2-0.3-2-0.3l-0.2-0.2h-1l-2.4-0.1l-0.2-0.2h-0.4V7.8h-0.3V7.7h0.4c0,0-0.2-0.3-0.3-0.3c-0.1,0-0.2,0-0.3,0.1  c-0.1,0.1-0.2,0.2-0.3,0.3c0,0.1-0.1,0.3-0.1,0.3h-0.2l-0.5-0.2h-1.2V7.4H20V6.8l0.2-0.4h0.2v0.1h0.6V5.9h-0.6V5.3L20,5.9h-0.2v-1  h-0.2v1.1H19V5.5h-0.6L18.3,0l0,5.6h-0.4v0.3h-1.3V5.3h-0.2v0.6h-3.8v0.3h5l-0.3,0.3h0.8v1.1h0.9V6.5h0.8l-0.8,1.4L18.5,8V7.6  l-0.2,0v0.5c0,0-0.4,0-0.5,0c-0.1,0-0.2,0.1-0.3,0.1c-0.1,0-0.2,0.1-0.2,0.2c0,0,0,0.2,0,0.2S17,8.8,16.9,8.8  c-0.1,0.1-0.4,0.4-0.4,0.4H16c0,0-0.2,0.2-0.2,0.3c0,0.1-0.1,0.3-0.1,0.4c-0.1,0.1-0.2,0.4-0.3,0.6c-0.1,0.1-0.2,0.3-0.3,0.4  c-0.1,0.1-0.3,0.3-0.3,0.3l0.1,0.2c0,0-0.1,0.2-0.1,0.3c0,0.1,0,0.3,0,0.3c0,0,0.3,0.1,0.4,0.1c0.6,0.1,2.4,0.3,2.4,0.3h0.2v0.4  h-6.2v-0.2h-0.4v0.2H8.3l-5.2,0.1L2.7,13l-0.1,0.3l-0.2-0.1c0,0-0.3-0.3-0.4-0.3c-0.1-0.1-0.4-0.1-0.6-0.1c-0.1,0-0.4,0.1-0.6,0.2  c-0.1,0.1-0.4,0.4-0.4,0.5c0,0.1-0.1,0.4-0.1,0.5c0,0.1,0.1,0.4,0.1,0.5c0.1,0.1,0.3,0.3,0.4,0.3c0.1,0.1,0.3,0.2,0.5,0.2  c0.1,0,0.3,0,0.4,0c0,0,0.2,0,0.2,0v1.4c0,0-0.2,0.2-0.2,0.2c0,0.1,0,0.3,0,0.3c0,0.1,0.1,0.3,0.2,0.4c0.1,0.1,0.3,0.4,0.3,0.4  l0.1-0.2h0.3c0,0,0,0.4,0,0.5c0,0.2,0.2,0.6,0.3,0.7c0.1,0.2,0.4,0.5,0.6,0.6c0.1,0.1,0.3,0.2,0.4,0.3C4.5,20.1,6.7,20.8,7.6,21.1z"/>
<path class="st1" d="M9.3,21.3h28c0,0,0.5-0.1,0.7-0.2c0.1-0.1,0.3-0.2,0.5-0.3c1-0.7,2.8-2.4,3.6-3.4c0.1-0.2,0.3-0.6,0.4-0.8  c0-0.1,0-0.4,0-0.6c0-0.1-0.1-0.3-0.1-0.3l0.9-1.2c0,0-0.7-0.4-0.9-0.5c-0.1,0-0.5-0.1-0.6-0.1c-0.1,0-0.5,0-0.5,0v-0.9H40l-0.7,0.7  v-0.6h-0.6v0.6l-1-0.5v-0.3l-0.3,0.3H37l-0.3-0.3h-0.2v-0.4H36l-0.4,0.4l-1-0.3H32v-0.1h2l0.3-0.1l0.2-0.5v0.6l0.5-0.3l0.5-0.2  l1.6-0.3v-0.2h23.5v-1.1H37.1v-0.2h-0.4l-1.8-0.3l-0.6-0.1l-0.6-0.3l-0.3-0.1l-0.2-0.2h0.2V7.5c0,0-0.2,0-0.3,0  c-0.2,0-0.5,0-0.6,0.1c-0.1,0.1-0.3,0.3-0.4,0.4C32,8.1,32,8.4,32,8.5c0,0.1,0.1,0.3,0.2,0.4c0,0.1,0.2,0.2,0.2,0.2L32,9.4v0.2  l-1.3-0.2V9h-0.8l-0.3,0.3l-2.4-0.3V8.4h-0.3l-0.1-0.1h-0.3L27,7.6h0.3V6.2c0,0-0.4-0.1-0.6,0c-0.1,0-0.3,0.2-0.4,0.4  c-0.1,0.1-0.1,0.4-0.1,0.6c0,0.1,0.1,0.3,0.2,0.3c0.1,0.1,0.4,0.1,0.4,0.1L26.3,8l0.1-0.4H26l-0.6,0.2h-1.7V8h-0.4v0.2h-1.1l0.3-0.4  l-0.2-0.1L22,7.9L21.6,8l-0.2-0.1l-0.2-7.8l-0.1,7.7l-0.4-0.1l-1,0l-0.6,0.2l-0.6-0.2V7.5L19,7.6l0.4-0.2l0.1-0.2  c0,0,0.3-0.3,0.4-0.5c0.1-0.1,0.1-0.4,0.1-0.5c0-0.1-0.1-0.2-0.1-0.2L19,6.1V5h-0.6v0.8h0.4v0.4h-0.6H18V5.4h-0.8v0.8h-4.5V5.7h-0.2  v0.5h-1.2v0.4h5.1v0.2H16L15.7,7H14v0.2h2.4h1.8v0.6L18.2,8L19,8.2h-1.6V7.8h-0.3l-0.3-0.3l-0.5,0l-0.2,0.3l-0.6,0.2l-0.4,0.2  l-0.5,0.3l0.4,1l-0.2,0.2c0,0-0.9-0.3-1.2-0.3c-0.2,0-0.5,0-0.7,0.1c-0.2,0.1-0.4,0.3-0.5,0.5c-0.1,0.1-0.2,0.3-0.2,0.5  c-0.1,0.1-0.2,0.6-0.2,0.6l0.2-0.1c0,0,0.1,0.4,0.1,0.5c0.1,0.1,0.2,0.3,0.4,0.4c0.1,0.1,0.4,0.1,0.6,0.1c0.1,0,0.3-0.1,0.3-0.1  l0.1,0.3l4.3,0.6l0.2,0.3h-4.8l-0.7-0.1l-7.1,0.2l-0.4,0.2H4.7l-0.2,0.2l-0.2-0.2H2.5v0.2l-0.8,0l-0.4-0.2l-1,1.1l0.9,1l1-1L2.2,14  l0.5,0.1l-0.6,0.6l0,0.4l0.8,1L3.4,16c0,0-0.2,0.6-0.2,0.8c0,0.2,0,0.7,0.1,0.9c0,0.2,0.1,0.5,0.2,0.6c0.1,0.2,0.3,0.5,0.5,0.6  c1.1,0.7,3.3,1.7,4.6,2.2C8.7,21.2,9.3,21.3,9.3,21.3z"/>
</svg>