<?xml version="1.0" encoding="utf-8"?>
<!-- Generator: Adobe Illustrator 25.3.1, SVG Export Plug-In . SVG Version: 6.00 Build 0)  -->
<svg version="1.1" id="Слой_1" xmlns="http://www.w3.org/2000/svg" xmlns:xlink="http://www.w3.org/1999/xlink" x="0px" y="0px"
	 width="65.1px" height="22.5px" viewBox="0 0 65.1 22.5" style="enable-background:new 0 0 65.1 22.5;" xml:space="preserve">
<style type="text/css">
	.st0{display:none;fill-rule:evenodd;clip-rule:evenodd;fill:#FAB81B;}
	.st1{display:none;}
	.st2{display:inline;}
	.st3{fill-rule:evenodd;clip-rule:evenodd;fill:#FAB81B;}
</style>
<path class="st0" d="M16.1,12.4h-1.4L3,13.4l-0.2,0.2l-0.1,0.8v0.3l-0.3,0.2c0,0-0.1-0.2-0.2-0.2c-0.3-0.1-0.6-0.1-0.8,0
	C1.3,14.8,1.1,15,1,15.1c-0.1,0.1-0.1,0.3-0.1,0.4c0,0.1,0,0.3,0.1,0.3c0.1,0.1,0.3,0.3,0.4,0.3C1.6,16.4,2,16.2,2,16.2l0.2,0.1
	l0.3-0.1l0.2,0.3c0,0-0.2,0.4-0.3,0.5s-0.2,0.4-0.2,0.5s0,0.4,0,0.5s0.2,0.4,0.3,0.5c1.1,1.1,3.8,2.5,5.2,3c0.3,0,0.9,0.1,0.9,0.1
	h26.9c0,0,0.5-0.1,0.7-0.1c0.1,0,0.4-0.1,0.5-0.2c1-0.7,2.6-2.6,3.3-3.5c0.1-0.1,0.3-0.4,0.3-0.6c0-0.1,0.1-0.3,0.1-0.3l0.6,0.7
	l0.2,0.1l0.1-0.3l-0.6-0.9l0.9-0.6c0,0-0.4-0.7-0.6-0.9c-0.1-0.2-0.4-0.4-0.6-0.6c-0.2-0.1-0.7-0.4-0.9-0.4c-0.4-0.1-1.7,0-1.7,0
	l-1.2-0.5v-0.3h-0.2v-0.7h-0.2v0.8h-0.6v-0.4h-1.2l-0.7-0.6h-3.5l1-0.2l0.8-0.4c0,0,1.6,0,2.1-0.1c0.5,0,1.9-0.3,1.9-0.3h22.9
	l1.1,0.1l0.8,0.3h1l0.6-0.2v-1.4l-0.6-0.3l-1,0.1L60,10.2l-1,0.1H36.1c0,0-1.4-0.4-1.9-0.5c-0.6-0.1-1.8-0.3-2.4-0.3
	c-0.2,0-1-0.1-1-0.1l-0.1-0.5l-1-0.2l-0.3,0.6l-3.1-0.6V7.9h-0.8l-0.4,0.6l-2-0.2l-0.2-0.6l-0.5-0.3V7.2H23V6.9h-0.1V6.6H23V6.3
	h-0.8v0.4l-0.5,0.1L21,6.7l-1.5,0.6l-0.6-0.1l-0.2-0.3h-0.3V5.7h-0.2v1.2h-0.5V6.7h-0.3v0.2l0.5,0.5v0.2c0,0-0.5,0.1-0.6,0.2
	s-0.4,0.3-0.5,0.4c-0.1,0.1-0.2,0.4-0.3,0.6c0,0.1-0.1,0.3-0.1,0.3S16.1,8.9,16,8.9S15.8,9,15.7,9.1c-0.1,0.1-0.2,0.3-0.2,0.4
	c-0.1,0.1-0.2,0.4-0.2,0.6c0,0.1,0,0.3,0,0.4c0,0.1,0.3,0.3,0.3,0.3s0,0.5,0,0.6s0,0.3,0.1,0.3c0,0.1,0.1,0.3,0.2,0.4
	C16,12.3,16.1,12.4,16.1,12.4z"/>
<g class="st1">
	<g class="st2">
		<path class="st3" d="M57.9,11.3c-0.4,0-0.6,0.1-1,0.1c-0.1,0-0.2,0-0.3-0.1c-0.1,0-0.3,0.1-0.5,0.1c-0.1,0-0.4-0.1-0.5-0.1
			c-1.6,0.2-3.9,0.2-5.9,0.2c-3.2,0-12.1,0.1-12.9-0.1c-0.5-0.1-1.1,0-1.5-0.1h-1.9c0-0.1,0-0.1-0.1-0.2c-0.4-0.1-0.8-0.1-1.2-0.2
			c0-0.7,0-1,0-1.8c-0.9,0-0.8,0.1-1.4,0.4c-0.1,0.2-0.3,0.7-0.1,1v0.1c-0.1,0-0.2,0-0.3-0.1c-0.2,0-0.2,0-0.2,0.2
			c-0.4-0.2-0.8-0.2-1.2-0.3c-0.9-0.3-1.9-0.5-2.8-0.8c-0.4-0.1-1.1-0.1-1.5-0.3h-0.6c0.1-0.1,0.1-0.6,0-0.7
			c-0.2-0.1-0.5-0.1-0.7-0.2c-0.2,0.1-0.3,0.3-0.3,0.5c-0.2,0-0.4,0-0.6,0.1v0.3h-0.2c0-0.3-0.1-0.3-0.1-0.6
			c-0.1-0.1-0.2-0.1-0.4-0.1c0.1-0.2,0.1-0.1,0.2-0.3H22c0-0.1-0.1,0-0.1-0.1c0,0,0-0.1,0.1-0.1c-0.2,0-0.1,0-0.3,0
			c0-0.2,0-0.2-0.1-0.3V7.7c0.1,0,0,0,0.1-0.1c0.4,0,0.1,0.1,0.4,0.2C22.1,7.9,22,8,21.9,8v0.1c0.2,0,0.4-0.2,0.6,0
			C22.7,8,22.7,8,22.9,7.9c0-0.3-0.1-1-0.1-1.3c-0.1,0,0,0-0.1-0.1c-0.7,0-0.7,0.3-1.1,0.5c0,0.4-0.1,0.5-0.2,0.9
			c-0.1,0-0.3,0-0.3-0.1H21c0,0,0,0.2-0.1,0.2c-0.2,0.1-0.4,0.1-0.5,0.2c0,0-0.1,0.1-0.2,0.2h-1.6c0-0.1,0-0.2-0.1-0.3V7.7h-0.1
			c-0.1,0.2-0.1,0.6-0.1,0.9c-0.1,0-0.1,0-0.2,0.1c-0.2,0.1-0.1,0.1-0.3,0.2C18,9,18,8.9,18.1,9c0,0-0.1,0-0.1,0.1
			c-0.1,0.1,0,0.2-0.1,0.2c-0.1,0.3-1,0.3-1.5,0.3V9.4c-0.2,0.1-0.1,0.1-0.2,0.2h-0.5c-0.2,0.1-0.8,0-1,0.1c-0.3,0-0.6,0-0.9,0
			c-0.4,0-0.6,0.2-0.8,0.5c-0.4,0.6-0.4,1.5-0.4,2.3c0.1,0.1,0,0.1,0.1,0.2c0.2,0.3,0.6,0.4,1,0.4c0,0.1,0,0.1-0.1,0.2
			c0,0.1,0,0.1,0.1,0.2v0.1h-1.2v-0.2c-0.3,0-0.4-0.1-0.5-0.1c-0.2-0.1-0.3,0.1-0.4,0.1l-0.1-0.1c-0.1,0-0.4,0-0.4-0.1
			c-0.1,0-0.2,0-0.2,0.1H7c-0.9,0-2-0.1-2.2,0.6c-0.3,0-0.3-0.1-0.4-0.1c-0.1,0-0.3,0-0.4,0.1c0-0.2,0-0.2,0-0.2l-0.1-0.2
			c-0.2,0-0.3,0-0.5-0.1c-0.1,0.1-0.1,0.2-0.2,0.2c0,0.1,0.1,0.2,0.2,0.2c-0.1,0.1-0.2,0.1-0.3,0.1c0,0.1,0,0-0.1,0.1
			c0,0.2,0,0.3,0.1,0.5c-0.3,0-0.4,0.1-0.6,0.1v0.2c-0.4,0.2-0.8,0.6-1,1C1.4,15.6,1,16,1,16c0.1,0.1,0.4-0.5,0.8-0.3
			c0,0.9,0,1.2,0.4,1.9c0.1,0.1,0.1,0.3,0.2,0.4c0.1,0.1,0.3,0.1,0.4,0.2c0.2,0.1,0.1,0.4,0.3,0.5c0.2,0.1,0.3,0,0.5,0.1
			c0.5,0.3,3.9,2.4,5.3,2.8c0.6,0.2,1.7,0.1,2.5,0.1h4.9c6.1,0,16.3,0,18.3,0c1.4,0,4.7-2.7,4.9-3h0.3c0,0.1,0,0.2,0.1,0.2
			c0,0.1,0.1,0.1,0.1,0.2c0.5,0,0.2-0.1,0.5-0.3l0.1-0.1h0.2c0,0,0.3-0.1,0.3-0.2c0-0.1,0-0.1,0.1-0.2c0.3-0.4,0.5-0.8,0.2-1.4
			c-0.1-0.2-0.1-0.3-0.3-0.4c0-0.3,0.6-0.7,0.8-0.8c0,0,0-0.1,0.1-0.1l0.4,0.4c0.1,0,0.1,0,0.2-0.1c0-0.1,0-0.1,0.1-0.2
			c-0.1-0.2-0.4-0.2-0.5-0.4c0-0.1-0.1-0.1-0.1-0.2c-0.4-0.3-1.4-0.9-2-0.9V14c-0.4,0-1.1,0.1-1.2-0.2c-0.2,0-0.3,0-0.4,0.1v0.2
			c-0.6,0-1-0.1-1.4-0.2c-0.2-0.1-0.4,0-0.6-0.1h-0.1v-0.3c-0.5,0-0.8-0.1-1.2-0.2h-1.1c0,0-0.1-0.1-0.2-0.2c-0.2,0-0.4,0-0.8-0.1
			c0,0.1,0,0.1,0.1,0.2v0.1c-0.1,0-0.8-0.1-0.8-0.1c-0.1,0,0,0.1-0.2,0.1c0,0-0.2-0.1-0.2-0.2c-0.2-0.1-0.3,0-0.4,0.2h-0.9v-0.1
			c0.2-0.1,0.2-0.1,0.2-0.3c0.3-0.1,0.5-0.2,0.8-0.3c0.6,0,1.2,0,1.7-0.1c0,0,0.2,0,0.2-0.1v-0.1h1.4c0.4-0.1,1,0.1,1.5-0.1
			c0.3-0.1,0.8-0.1,1.2-0.1h2.2c3.3,0,6.6,0,9.8-0.1c2.1,0,4.3,0,5.9,0.2c0.2,0,0.4-0.1,0.6-0.1l0.2,0.1c0,0,0.2-0.1,0.3-0.1
			c0,0,0.3,0.1,0.4,0.1c0.2,0,0.4-0.1,0.7,0c0.1-0.1,0.2-0.2,0.3-0.3v-0.9C58.1,11.5,57.9,11.4,57.9,11.3z M2.4,17.5L2.4,17.5
			c-0.2-0.5-0.5-0.9-0.3-1.7c0.1,0,0.1,0,0.2,0.1h0.3c-0.1,0.2-0.4,1-0.3,1.2C2.2,17.1,2.4,17.4,2.4,17.5z M40.9,16.9
			c0.2,0.1,0.2,0.2,0.3,0.4c0,0.4-0.2,0.7-0.3,1h-0.1v0.1h-0.1c0-0.2,0.1-0.4,0.2-0.5c0-0.2,0-0.3-0.1-0.4c-0.1,0-0.1,0-0.2,0.2
			h-0.1C40.7,17.4,40.8,17.2,40.9,16.9z M39,14.1c-0.1,0.1-0.1,0.1-0.2,0H39z M33.2,13.4c-0.1,0,0,0-0.1-0.1
			C33.2,13.4,33.1,13.4,33.2,13.4z M31.8,13.5c-0.1,0.1-0.1,0.1-0.2,0H31.8z"/>
	</g>
</g>
<g>
	<g>
		<path class="st3" d="M64.7,9.8c-0.1-0.1-0.1-0.1-0.2-0.2c-0.8,0-1.3,0.1-1.9,0.2c-0.4,0-0.7,0-1.1-0.1v0.1
			c-8.9-0.1-17.9-0.2-26.8-0.3V9.3c-0.6,0-0.9,0-1.4-0.2H33C33,9.1,33,9,33,9c-0.2-0.1-0.3-0.1-0.4-0.2c-0.1-0.1-0.2-0.3-0.3-0.3
			c-0.2-0.1-0.8-0.2-1-0.1h-0.4l-0.1-0.2c-0.1-0.1-0.3-0.3-0.4-0.3h-1.9c-0.1,0-0.2-0.2-0.2-0.2c-0.3-0.1-1,0-1.1,0.1
			c-0.1-0.1-0.3-0.7-0.2-0.8V6.9h-0.8c0,0.5-0.2,0.6-0.2,1c-1,0-1.5,0-2.1-0.3V7.1c-0.3,0-0.5,0.1-0.6,0.3h-0.3V7.3
			c-0.1,0,0,0.1-0.1,0.1c-0.1,0,0-0.1-0.1-0.1c-0.1-0.1-0.6,0.3-0.8,0.1V7.3h-0.1c-0.3-0.1-0.3,0.2-0.6,0.1V7.3h-0.2v0.2h-0.1
			c-0.1,0.1-0.3,0.2-0.6,0.2V7.4c-0.1,0-0.3,0-0.3-0.1c-0.3,0-0.4,0.1-0.6,0.1v0.2c-0.4,0-0.3-0.1-0.5-0.3c0.2-0.2,5.4-1.8,5.4-1.8
			l-0.1-0.4L18.9,7h-0.1c0,0,0-4.2,0-6.3h-0.1c0,2,0,6,0,6s-2-0.2-3.2-0.2V6.3c-0.1,0.1-0.1,0.1-0.1,0.3c-0.4,0-1.7-0.1-1.9,0.1
			c-0.6,0.1-0.5,0.8-1,1c0,0.3-0.1,0.6-0.1,0.8h-0.6v0.2h0.6c-0.1,0.7-0.2,1.3-0.3,2h-0.6v0.2H12c0,0.2-0.2,0.6-0.1,0.7v0.1h5.2v0.4
			h0.6v0.1h-3.4c-0.5,0-1.2-0.1-1.6,0.1V13c-1,0-1.6-0.1-2.4-0.3c-0.2,0-0.2,0.1-0.2,0.1c0,0-0.9,0-1-0.1c-0.5-0.2-1.8-0.1-2.4,0.1
			H6.2C6,12.9,5.7,13,5.4,13c-0.3,0-0.6-0.1-0.8,0.1c-0.1,0.1,0,0-0.1,0.2c-0.2,0-0.2,0.1-0.3-0.1c-0.1,0-0.1,0-0.2,0.1
			c-0.1,0.1,0,0-0.1,0.2c-0.2,0-0.6,0-0.7,0.1c-0.1-0.1,0,0-0.1-0.2c-0.1,0.1,0,0-0.1,0.2c-0.1-0.1-0.1-0.2-0.2-0.2
			c0,0.1,0,0.1-0.1,0.1c0,0,0,0.3,0.1,0.2v-0.1H3c0,0.2,0,0.1-0.1,0.2c-0.1,0.1-0.2,0-0.3-0.1c-0.1,0.1,0,0-0.1,0.2
			c-0.1-0.1-0.1-0.1-0.3-0.1c0-0.2,0-0.4-0.1-0.4c-0.1-0.5-1-0.9-1.6-0.6c-0.2,0.1-0.3,0.3-0.4,0.4C0,13.4,0,13.5,0,14.1
			c0.2,0.2,0.3,0.4,0.4,0.6c0.1,0.1,0.3,0.1,0.4,0.2c0.1,0,0.1,0,0.2-0.1c0,0,0,0.1-0.1,0.1c0.7-0.2,0.9-0.3,1.2-0.9h0.2
			c-0.1,0.3-0.3,0.3-0.4,0.6c-0.1,0.1-0.1,0.2-0.2,0.3c-0.1,0.1-0.1,0.1-0.3,0.1c0.1,0.1,0.1,0.1,0.3,0.1c0,0.2,0,0.4,0.1,0.4v0.1
			c-0.2,0-0.1,0-0.3,0v0.1H1.5c0,0.1,0,0.2,0.1,0.2c-0.1,0.2-0.2,0.3-0.3,0.4c0.1,0,0.1,0.1,0.1,0.1c0.1,0,0.3,0,0.4-0.1
			c0,0.1,0.1,0.1,0.1,0.3c0.1,0.2-0.2,0.3-0.3,0.5c0,0.2,0.1,0.4,0.2,0.4c0.1,0.3-0.1,0.7,0.1,0.8c0.1,0.1,0,0,0.1,0.1
			c0-0.1,0.1-0.4,0.1-0.4c0.1,0,0,0,0.1,0c0.2,0,0.4,0,0.4,0.1c0.2,0.2,0,0.5,0.1,0.6l0.2,0.1c0,0.1,0,0.1,0.1,0.2
			c0.1,0.2,0.3,0.5,0.5,0.6c0.1,0,0.1,0,0.2,0.1c0.4,0.3,0.9,0.4,1.4,0.6c0.1,0,0.2,0,0.3,0.1c1.1,0.4,2.3,0.9,3.4,1.2h9.9
			c0.9,0,1.6,0,2.1-0.3c0.4-0.2,0.6-0.8,0.7-1.3c0-0.2,0-0.4-0.1-0.6h1.1c-0.1,2.7,2.1,2.2,4.8,2.2h7.8c1.1-0.3,5.3-1.5,5.9-2.7
			c0.1-0.2,0.3-0.7,0.2-1v-0.3c0.2,0.1,0.4,0.2,0.6,0c0.1,0.1,0.1,0.5,0.1,0.6c0.1,0,0.1,0,0.2,0.1c0.1-0.3,0-0.7,0.1-1
			c0-0.1,0.2-0.2,0.1-0.3c0-0.4-0.4-0.4-0.5-0.7c0-0.1,0.2-0.1,0.2-0.2c0.2-0.4,0.2-1-0.1-1.3c-0.3-0.4-1.5-0.6-2.1-0.8h-0.3
			c-1.4-0.4-3.1-0.6-5.1-0.6c0.1-0.1,0.1-0.1,0.3-0.1c-0.1-0.1-0.3-0.1-0.3-0.1v-1.2c-0.2,0.1-0.1,0.3-0.1,0.5
			c-0.1-0.1-0.1-0.3-0.1-0.3C34.2,12,34.1,12,34,12c-0.4,0-0.5,0.2-0.5,0.6c-0.1,0,0,0-0.1,0.1c-0.3,0-0.3-0.1-0.4-0.4
			c-0.4,0-0.8-0.1-1.3-0.1c0.1-0.1,0.4,0,0.6-0.1V12h0.3c0.1,0,0.2-0.2,0.3-0.3h0.4c0,0,0.2,0,0.3-0.1l0.1-0.1h1v-0.2
			c8.9-0.1,17.9-0.2,26.8-0.3v0.2c0.4,0,0.9,0,1.3-0.1c0.2,0.1,0.5,0.2,0.8,0.2c0.3,0,0.8,0.1,1-0.1h0.1
			C64.7,10.9,64.7,10.3,64.7,9.8z M1.9,15.7v-0.1C1.9,15.6,1.9,15.6,1.9,15.7L1.9,15.7z M2.2,16.2c-0.1,0-0.1,0-0.2-0.1
			c0,0-0.1,0-0.1-0.1h0.1V16l0.1,0.1V16.2z M2.4,16.5L2.4,16.5l-0.1-0.1h0.1V16.5z M2.2,13.9c0-0.1,0-0.1,0.1-0.2
			c0.1,0,0.1,0.1,0.2,0.2H2.2z M2.6,13.8L2.6,13.8C2.5,13.8,2.5,13.9,2.6,13.8C2.6,13.8,2.6,13.8,2.6,13.8L2.6,13.8z M9,13
			C8.9,13.1,8.4,13,8.2,13H6c0.1-0.1,0.4,0,0.6-0.1c0.4-0.1,1.9,0,2.2-0.2H9c-0.1,0.1,0,0-0.1,0.1C9,13,8.9,12.9,9,13z M41.1,17
			c0.1,0,0.2,0.1,0.3-0.1c0.1,0,0.1,0,0.2,0.1h0.1c0,0.2,0,0.2-0.1,0.3c-0.1,0-0.2,0-0.3,0.1C41.2,17.3,41.2,17.2,41.1,17L41.1,17z
			 M34.2,13c-0.1,0.1-0.1,0.1-0.2,0H34.2z M34.2,13.3c-0.1,0.1-0.1,0.1-0.2,0H34.2z M33.8,13.3c0.1,0,0,0,0.1,0.1
			C33.8,13.3,33.9,13.3,33.8,13.3z M33.5,12.8c0.1,0.1,0.2,0.1,0.3,0.2c-0.2,0-0.1,0-0.2,0h-0.1V12.8z M63.2,10.9
			c-0.2,0-0.4-0.1-0.6-0.2c0-0.2,0-0.4,0.1-0.5c0.1-0.1,0.3-0.2,0.6-0.2V10.9z M64.3,11c-0.3,0-0.5,0-0.7-0.1
			c-0.1-0.3-0.1-0.7,0.1-1h0.6V10h0.1C64.3,10.3,64.4,10.8,64.3,11z"/>
	</g>
</g>
</svg>
